<?xml version="1.0" encoding="UTF-8"?>
<svg version="1.1" xmlns="http://www.w3.org/2000/svg" width="80" height="80">
<path d="M0 0 C26.4 0 52.8 0 80 0 C80 26.4 80 52.8 80 80 C53.6 80 27.2 80 0 80 C0 53.6 0 27.2 0 0 Z " fill="#20232B" transform="translate(0,0)"/>
<path d="M0 0 C26.4 0 52.8 0 80 0 C80 12.21 80 24.42 80 37 C79.01 37.66 78.02 38.32 77 39 C76.26656572 42.06556598 76.26656572 42.06556598 76 45 C74.68 45 73.36 45 72 45 C72 44.34 72 43.68 72 43 C70.02 43 68.04 43 66 43 C66 42.01 66 41.02 66 40 C65.34 40 64.68 40 64 40 C64 40.99 64 41.98 64 43 C60.95002867 44.47877398 59.17785041 45.0136808 55.75 44.75 C50.98727243 45.06751517 48.67576846 46.89340451 44.91796875 49.6875 C43 51 43 51 41 51 C40.731875 50.360625 40.46375 49.72125 40.1875 49.0625 C39.11332248 46.66868314 39.11332248 46.66868314 36 46 C36 45.34 36 44.68 36 44 C35.12730469 44.23589844 34.25460938 44.47179688 33.35546875 44.71484375 C29.11067633 45.07557698 27.73017715 44.00778365 24.3125 41.5625 C20.52410707 38.67469277 20.52410707 38.67469277 16 38 C15.67 38.66 15.34 39.32 15 40 C15.65097656 40.21527344 16.30195313 40.43054687 16.97265625 40.65234375 C21.91190094 42.85110429 26.22798945 46.04382332 30.67382812 49.09960938 C36.34621362 52.91276463 36.34621362 52.91276463 43 54 C45.54361146 52.85574949 45.54361146 52.85574949 47.75 51.0625 C51.85193622 48 51.85193622 48 54 48 C54 48.66 54 49.32 54 50 C51.55078125 51.76171875 51.55078125 51.76171875 48.3125 53.6875 C46.72888672 54.65236328 46.72888672 54.65236328 45.11328125 55.63671875 C41.54631274 57.19866607 40.63504022 57.0977135 37 56 C34.41625977 54.50952148 34.41625977 54.50952148 31.69140625 52.62109375 C30.69689453 51.94755859 29.70238281 51.27402344 28.67773438 50.58007812 C26.60173461 49.15225885 24.52880586 47.71996404 22.45898438 46.28320312 C21.46318359 45.61095703 20.46738281 44.93871094 19.44140625 44.24609375 C18.54107666 43.62404053 17.64074707 43.0019873 16.71313477 42.36108398 C13.5789742 40.78878621 11.46093315 40.73602245 8 41 C7.67 40.34 7.34 39.68 7 39 C8.134375 38.62875 9.26875 38.2575 10.4375 37.875 C11.96320679 37.26199281 13.48371031 36.63594387 15 36 C16.2375 35.55333984 16.2375 35.55333984 17.5 35.09765625 C20.48676534 33.67607082 22.0193131 32.68560385 24 30 C25.40888966 24.13243857 25.15702777 17.99217976 25 12 C22.69 12 20.38 12 18 12 C18 14.97 18 17.94 18 21 C18.99 20.01 19.98 19.02 21 18 C21.99 18 22.98 18 24 18 C24 20.64 24 23.28 24 26 C17.93179132 27.08360869 13.89893243 26.79074734 8 25 C8 22.03 8 19.06 8 16 C7.01 16 6.02 16 5 16 C5 19.3 5 22.6 5 26 C3.35 26 1.7 26 0 26 C0 17.42 0 8.84 0 0 Z " fill="#CECECE" transform="translate(0,0)"/>
<path d="M0 0 C6.35557673 3.17778837 12.05643992 6.14144096 17.8125 10.125 C19.06830176 10.9828092 20.3247974 11.8396036 21.58203125 12.6953125 C22.12061768 13.06672363 22.6592041 13.43813477 23.21411133 13.82080078 C24.09812622 14.40450439 24.09812622 14.40450439 25 15 C25.75514893 15.53431641 26.51029785 16.06863281 27.28833008 16.61914062 C30.65088202 18.33144762 33.0407765 18.38769954 36.8046875 18.3984375 C38.76341797 18.40423828 38.76341797 18.40423828 40.76171875 18.41015625 C41.4376709 18.40387207 42.11362305 18.39758789 42.81005859 18.39111328 C44.8623359 18.37509882 46.9126285 18.39095827 48.96484375 18.41015625 C57.56204465 18.3847458 62.83200896 17.7786607 70 13 C72.33882138 13.29235267 74.67284 13.62599214 77 14 C77.99 13.67 78.98 13.34 80 13 C80 18.94 80 24.88 80 31 C53.6 31 27.2 31 0 31 C0 20.77 0 10.54 0 0 Z " fill="#D9D9D9" transform="translate(0,49)"/>
<path d="M0 0 C2.31 0 4.62 0 7 0 C7.13510253 2.91821463 7.2341305 5.83017652 7.3125 8.75 C7.35439453 9.575 7.39628906 10.4 7.43945312 11.25 C7.56285882 17.37092249 7.56285882 17.37092249 4.875 20.375 C1.84372085 22.08833169 -1.17706363 23.73396483 -4.3125 25.25 C-5.38113281 25.77078125 -6.44976562 26.2915625 -7.55078125 26.828125 C-8.76314453 27.40820312 -8.76314453 27.40820312 -10 28 C-8.78957031 27.82984375 -8.78957031 27.82984375 -7.5546875 27.65625 C-2.45931928 28.1489889 0.72883319 30.63984764 4.875 33.5 C5.65875 34.02464844 6.4425 34.54929688 7.25 35.08984375 C9.175286 36.38119411 11.09111484 37.68458031 13 39 C12.67 41.64 12.34 44.28 12 47 C12.66 47.33 13.32 47.66 14 48 C13.38722388 50.96175123 12.74627478 52.38058783 11 55 C1.09289715 49.35694325 -8.51452384 43.32365077 -18 37 C-18.34057617 34.66162109 -18.34057617 34.66162109 -18.29296875 31.7734375 C-18.28330078 30.7421875 -18.27363281 29.7109375 -18.26367188 28.6484375 C-18.23853516 27.56820312 -18.21339844 26.48796875 -18.1875 25.375 C-18.17396484 24.28703125 -18.16042969 23.1990625 -18.14648438 22.078125 C-18.11104754 19.38492591 -18.06164331 16.69270626 -18 14 C-16.35 14 -14.7 14 -13 14 C-13 10.7 -13 7.4 -13 4 C-12.01 4 -11.02 4 -10 4 C-10 6.97 -10 9.94 -10 13 C-4.72 13.33 0.56 13.66 6 14 C6 11.36 6 8.72 6 6 C5.01 6 4.02 6 3 6 C2.67 6.99 2.34 7.98 2 9 C1.34 9 0.68 9 0 9 C0 6.03 0 3.06 0 0 Z " fill="#2C3243" transform="translate(18,12)"/>
<path d="M0 0 C1.85625 0.0309375 1.85625 0.0309375 3.75 0.0625 C4.08 0.7225 4.41 1.3825 4.75 2.0625 C3.76 2.0625 2.77 2.0625 1.75 2.0625 C1.42 2.7225 1.09 3.3825 0.75 4.0625 C0.75 3.4025 0.75 2.7425 0.75 2.0625 C-1.23 2.3925 -3.21 2.7225 -5.25 3.0625 C-5.25 4.0525 -5.25 5.0425 -5.25 6.0625 C-4.30125 5.876875 -3.3525 5.69125 -2.375 5.5 C0.75 5.0625 0.75 5.0625 2.75 6.0625 C2.75 6.7225 2.75 7.3825 2.75 8.0625 C3.74 7.7325 4.73 7.4025 5.75 7.0625 C5.75 7.7225 5.75 8.3825 5.75 9.0625 C6.74 9.0625 7.73 9.0625 8.75 9.0625 C7.63530322 12.40659033 6.23861247 13.65416535 3.75 16.0625 C3.75 16.3925 3.75 16.7225 3.75 17.0625 C5.73 17.7225 7.71 18.3825 9.75 19.0625 C9.09 19.3925 8.43 19.7225 7.75 20.0625 C7.09786708 22.08713255 7.09786708 22.08713255 6.75 24.0625 C5.43 24.3925 4.11 24.7225 2.75 25.0625 C2.75 27.3725 2.75 29.6825 2.75 32.0625 C1.48308493 32.73658308 0.21129251 33.40150497 -1.0625 34.0625 C-1.77019531 34.43375 -2.47789063 34.805 -3.20703125 35.1875 C-5.25 36.0625 -5.25 36.0625 -8.25 36.0625 C-8.25 24.5125 -8.25 12.9625 -8.25 1.0625 C-5.12110801 0.280277 -3.1099909 -0.05183318 0 0 Z " fill="#E2E1E1" transform="translate(48.25,10.9375)"/>
<path d="M0 0 C2.375 0.6875 2.375 0.6875 3.375 1.6875 C3.625 5.125 3.625 5.125 3.375 8.6875 C2.385 9.3475 1.395 10.0075 0.375 10.6875 C-0.35843428 13.75306598 -0.35843428 13.75306598 -0.625 16.6875 C-1.945 16.6875 -3.265 16.6875 -4.625 16.6875 C-4.625 16.0275 -4.625 15.3675 -4.625 14.6875 C-6.605 14.6875 -8.585 14.6875 -10.625 14.6875 C-10.625 13.6975 -10.625 12.7075 -10.625 11.6875 C-11.285 11.6875 -11.945 11.6875 -12.625 11.6875 C-12.625 12.6775 -12.625 13.6675 -12.625 14.6875 C-15.67497133 16.16627398 -17.44714959 16.7011808 -20.875 16.4375 C-25.63772757 16.75501517 -27.94923154 18.58090451 -31.70703125 21.375 C-33.625 22.6875 -33.625 22.6875 -35.625 22.6875 C-35.955 21.3675 -36.285 20.0475 -36.625 18.6875 C-35.35808493 18.01341692 -34.08629251 17.34849503 -32.8125 16.6875 C-32.10480469 16.31625 -31.39710937 15.945 -30.66796875 15.5625 C-28.625 14.6875 -28.625 14.6875 -25.625 14.6875 C-25.8725 13.676875 -26.12 12.66625 -26.375 11.625 C-26.390625 9.71484375 -26.390625 9.71484375 -25.625 7.6875 C-21.53089791 4.1620232 -16.667828 0.86535882 -11.15234375 0.54296875 C-9.29411811 0.83820086 -7.45607847 1.25469963 -5.625 1.6875 C-2.625 -0.3125 -2.625 -0.3125 0 0 Z " fill="#BFB492" transform="translate(76.625,28.3125)"/>
<path d="M0 0 C0.825 0.309375 1.65 0.61875 2.5 0.9375 C3.11101563 0.63070313 3.72203125 0.32390625 4.3515625 0.0078125 C9.59792005 -2.60582744 16.96149601 -1.22850084 22.5 -0.0625 C22.5 0.5975 22.5 1.2575 22.5 1.9375 C24.15 1.9375 25.8 1.9375 27.5 1.9375 C27.5 2.5975 27.5 3.2575 27.5 3.9375 C25.85 3.9375 24.2 3.9375 22.5 3.9375 C22.5 4.5975 22.5 5.2575 22.5 5.9375 C23.16 5.9375 23.82 5.9375 24.5 5.9375 C24.5 7.9175 24.5 9.8975 24.5 11.9375 C26.975 12.4325 26.975 12.4325 29.5 12.9375 C29.5 13.5975 29.5 14.2575 29.5 14.9375 C27.8603125 15.1540625 27.8603125 15.1540625 26.1875 15.375 C22.56877013 15.82038104 22.56877013 15.82038104 19.5 16.9375 C18.5925 16.73125 17.685 16.525 16.75 16.3125 C12.41502648 15.81231075 10.36203764 17.00648118 6.5 18.9375 C6.83 17.9475 7.16 16.9575 7.5 15.9375 C5.19 15.6075 2.88 15.2775 0.5 14.9375 C1.16 13.6175 1.82 12.2975 2.5 10.9375 C0.19 10.6075 -2.12 10.2775 -4.5 9.9375 C-4.5 9.6075 -4.5 9.2775 -4.5 8.9375 C-3.71753906 8.88851563 -2.93507812 8.83953125 -2.12890625 8.7890625 C-1.11699219 8.71429688 -0.10507812 8.63953125 0.9375 8.5625 C1.94683594 8.49289063 2.95617187 8.42328125 3.99609375 8.3515625 C5.23552734 8.14660156 5.23552734 8.14660156 6.5 7.9375 C6.83 7.2775 7.16 6.6175 7.5 5.9375 C6.5925 5.81375 5.685 5.69 4.75 5.5625 C1.86282373 5.00727379 0.07361146 4.22430573 -2.5 2.9375 C-3.82 2.9375 -5.14 2.9375 -6.5 2.9375 C-6.5 1.9475 -6.5 0.9575 -6.5 -0.0625 C-3.74574641 -1.08259392 -2.76794241 -1.17637552 0 0 Z " fill="#D1C9C4" transform="translate(49.5,14.0625)"/>
<path d="M0 0 C2.31 0 4.62 0 7 0 C7.13510253 2.91821463 7.2341305 5.83017652 7.3125 8.75 C7.35439453 9.575 7.39628906 10.4 7.43945312 11.25 C7.56335285 17.39542621 7.56335285 17.39542621 4.7578125 20.40625 C3.84773438 20.9321875 2.93765625 21.458125 2 22 C1.25878906 22.48984375 0.51757812 22.9796875 -0.24609375 23.484375 C-6.83982516 27.29251934 -10.45468694 27.50906261 -18 26 C-18 22.04 -18 18.08 -18 14 C-16.35 14 -14.7 14 -13 14 C-13 10.7 -13 7.4 -13 4 C-12.01 4 -11.02 4 -10 4 C-10 6.97 -10 9.94 -10 13 C-4.72 13.33 0.56 13.66 6 14 C6 11.36 6 8.72 6 6 C5.01 6 4.02 6 3 6 C2.67 6.99 2.34 7.98 2 9 C1.34 9 0.68 9 0 9 C0 6.03 0 3.06 0 0 Z " fill="#958976" transform="translate(18,12)"/>
<path d="M0 0 C0 8.25 0 16.5 0 25 C-5 27 -5 27 -7.4375 26.375 C-11.26342566 25.81510844 -12.96097053 27.80155315 -16 30 C-19.80236334 31.52094534 -23.96654546 31.06722424 -28 31 C-27.01 30.01 -26.02 29.02 -25 28 C-25.66 27.01 -26.32 26.02 -27 25 C-26.67 24.01 -26.34 23.02 -26 22 C-25.34 22 -24.68 22 -24 22 C-23.67 23.65 -23.34 25.3 -23 27 C-18.05 23.7 -13.1 20.4 -8 17 C-8.33 16.34 -8.66 15.68 -9 15 C-8.34 15 -7.68 15 -7 15 C-7 14.34 -7 13.68 -7 13 C-7.598125 12.855625 -8.19625 12.71125 -8.8125 12.5625 C-10.56150404 12.1127561 -12.28677023 11.57107659 -14 11 C-14 9.35 -14 7.7 -14 6 C-12.02 6 -10.04 6 -8 6 C-8 6.66 -8 7.32 -8 8 C-6.68 8 -5.36 8 -4 8 C-4.061875 7.05125 -4.12375 6.1025 -4.1875 5.125 C-4.0946875 3.578125 -4.0946875 3.578125 -4 2 C-1 0 -1 0 0 0 Z " fill="#35413C" transform="translate(80,37)"/>
<path d="M0 0 C5.94 0 11.88 0 18 0 C18 2.97 18 5.94 18 9 C18.99 8.01 19.98 7.02 21 6 C21.99 6 22.98 6 24 6 C24 8.64 24 11.28 24 14 C17.93179132 15.08360869 13.89893243 14.79074734 8 13 C8 10.03 8 7.06 8 4 C7.01 4 6.02 4 5 4 C5 7.3 5 10.6 5 14 C3.35 14 1.7 14 0 14 C0 9.38 0 4.76 0 0 Z " fill="#A4B1C8" transform="translate(0,12)"/>
<path d="M0 0 C4.51885332 0.81590407 7.79071194 3.32495271 11.5625 5.8203125 C14.36396987 7.17615208 15.15198697 6.96979754 18 6 C18.66 6.33 19.32 6.66 20 7 C20 7.66 20 8.32 20 9 C21.32 9.33 22.64 9.66 24 10 C24.33 11.32 24.66 12.64 25 14 C25.68707031 13.57847656 26.37414062 13.15695313 27.08203125 12.72265625 C27.98308594 12.17480469 28.88414063 11.62695312 29.8125 11.0625 C30.70582031 10.51722656 31.59914062 9.97195312 32.51953125 9.41015625 C36.09139965 7.379535 39.15133311 6.80442426 43.1875 6.4375 C44.08855469 6.35371094 44.98960938 6.26992188 45.91796875 6.18359375 C46.60503906 6.12300781 47.29210938 6.06242187 48 6 C47.67 8.31 47.34 10.62 47 13 C46.34 13 45.68 13 45 13 C44.79029441 17.14093698 44.79029441 17.14093698 46 21 C43.525 20.01 43.525 20.01 41 19 C41.66 18.67 42.32 18.34 43 18 C42.505 15.03 42.505 15.03 42 12 C37.34572042 11.28395699 35.15098626 12.38758113 31.5 15.0625 C30.7884375 15.63097656 30.076875 16.19945313 29.34375 16.78515625 C27 18 27 18 24.359375 18.08984375 C19.26299224 16.43648237 15.16073998 13.49345609 10.75 10.5 C8.95351657 9.30149618 7.15666014 8.10355123 5.359375 6.90625 C4.57014648 6.37322266 3.78091797 5.84019531 2.96777344 5.29101562 C1.03923458 3.97098279 1.03923458 3.97098279 -1 3 C-0.67 2.01 -0.34 1.02 0 0 Z " fill="#313333" transform="translate(16,37)"/>
<path d="M0 0 C0.99 0 1.98 0 3 0 C3 11.55 3 23.1 3 35 C1.68 34.67 0.36 34.34 -1 34 C-1 33.34 -1 32.68 -1 32 C-2.30324219 32.34998047 -2.30324219 32.34998047 -3.6328125 32.70703125 C-7.87065096 33.07575269 -9.39270842 32.04205758 -12.875 29.6875 C-13.84179688 29.05199219 -14.80859375 28.41648437 -15.8046875 27.76171875 C-16.52914063 27.18035156 -17.25359375 26.59898438 -18 26 C-18 25.34 -18 24.68 -18 24 C-14.12070505 25.4547356 -10.5166464 27.2498811 -6.8671875 29.1953125 C-4.87969295 30.19788674 -4.87969295 30.19788674 -2 30 C-4.82506863 27.0702992 -7.78796065 24.49825283 -11 22 C-9.906875 21.34 -8.81375 20.68 -7.6875 20 C-3.50653154 16.99308127 -2.09801174 13.95422896 -1 9 C-0.53020005 6.00444389 -0.20306151 3.02491633 0 0 Z " fill="#CAC2B9" transform="translate(37,12)"/>
<path d="M0 0 C-0.3125 2.375 -0.3125 2.375 -1 5 C-1.99 5.66 -2.98 6.32 -4 7 C-3.4225 7.40992188 -2.845 7.81984375 -2.25 8.2421875 C-1.13625 9.05042969 -1.13625 9.05042969 0 9.875 C0.7425 10.40867187 1.485 10.94234375 2.25 11.4921875 C2.8275 11.98976563 3.405 12.48734375 4 13 C4 13.66 4 14.32 4 15 C2.30859375 15.6875 2.30859375 15.6875 0 16 C-2.65680243 14.61759874 -5.00411543 12.9538737 -7.46484375 11.25 C-9.9426091 9.7645522 -9.9426091 9.7645522 -12.75390625 10.1875 C-15.17242259 10.77071111 -15.17242259 10.77071111 -16 13 C-15.34902344 13.21527344 -14.69804687 13.43054687 -14.02734375 13.65234375 C-9.08809906 15.85110429 -4.77201055 19.04382332 -0.32617188 22.09960938 C5.34621362 25.91276463 5.34621362 25.91276463 12 27 C14.54361146 25.85574949 14.54361146 25.85574949 16.75 24.0625 C20.85193622 21 20.85193622 21 23 21 C23 21.66 23 22.32 23 23 C20.55078125 24.76171875 20.55078125 24.76171875 17.3125 26.6875 C15.72888672 27.65236328 15.72888672 27.65236328 14.11328125 28.63671875 C10.54631274 30.19866607 9.63504022 30.0977135 6 29 C3.41625977 27.50952148 3.41625977 27.50952148 0.69140625 25.62109375 C-0.30310547 24.94755859 -1.29761719 24.27402344 -2.32226562 23.58007812 C-4.39826539 22.15225885 -6.47119414 20.71996404 -8.54101562 19.28320312 C-10.0347168 18.27483398 -10.0347168 18.27483398 -11.55859375 17.24609375 C-12.45892334 16.62404053 -13.35925293 16.0019873 -14.28686523 15.36108398 C-17.4210258 13.78878621 -19.53906685 13.73602245 -23 14 C-23.33 13.34 -23.66 12.68 -24 12 C-22.865625 11.62875 -21.73125 11.2575 -20.5625 10.875 C-15.51796147 8.99671438 -11.38752335 6.06456784 -7 3 C-2.3 0 -2.3 0 0 0 Z " fill="#F4F2EC" transform="translate(31,27)"/>
<path d="M0 0 C0.33 0 0.66 0 1 0 C1 1.98 1 3.96 1 6 C1.99 5.67 2.98 5.34 4 5 C8.08594833 3.8134874 11.76342394 3.85134821 16 4 C16.33 4.66 16.66 5.32 17 6 C16.34 6 15.68 6 15 6 C14.67 7.32 14.34 8.64 14 10 C12.68 10.33 11.36 10.66 10 11 C10 13.31 10 15.62 10 18 C3.375 21 3.375 21 0 21 C0 14.07 0 7.14 0 0 Z " fill="#F1EFEF" transform="translate(41,25)"/>
<path d="M0 0 C1.98 0.99 3.96 1.98 6 3 C6 4.98 6 6.96 6 9 C7.7015625 8.9690625 7.7015625 8.9690625 9.4375 8.9375 C13 9 13 9 14 10 C14.04063832 11.66617115 14.042721 13.33388095 14 15 C14.99 15 15.98 15 17 15 C16.67 15.99 16.34 16.98 16 18 C10.72 18.33 5.44 18.66 0 19 C0 12.73 0 6.46 0 0 Z " fill="#C0BFBF" transform="translate(0,49)"/>
<path d="M0 0 C0.66 0 1.32 0 2 0 C2 2.64 2 5.28 2 8 C3.65 8 5.3 8 7 8 C8.125 9.75 8.125 9.75 9 12 C7.71383723 16.05763608 5.0862291 17.53021034 1.5625 19.6875 C0.59441406 20.28949219 -0.37367187 20.89148438 -1.37109375 21.51171875 C-4 23 -4 23 -7 24 C-7.33 22.35 -7.66 20.7 -8 19 C-9.32 19.33 -10.64 19.66 -12 20 C-10 17 -10 17 -8 16.3125 C-6 16 -6 16 -4 16 C-3.67 14.02 -3.34 12.04 -3 10 C-2.34 10 -1.68 10 -1 10 C-0.67 6.7 -0.34 3.4 0 0 Z " fill="#0E1416" transform="translate(64,40)"/>
<path d="M0 0 C0.99 0 1.98 0 3 0 C3 2.97 3 5.94 3 9 C3.99 9 4.98 9 6 9 C6.33 9.66 6.66 10.32 7 11 C7.99 11 8.98 11 10 11 C10 11.99 10 12.98 10 14 C9.34 14 8.68 14 8 14 C8 15.32 8 16.64 8 18 C7.01 18 6.02 18 5 18 C5 18.66 5 19.32 5 20 C1.79040466 20.80239884 -0.25187355 21.29531307 -3.375 20.0625 C-5.92795288 16.82221366 -5.26529939 14.04581568 -5 10 C-3.35 10 -1.7 10 0 10 C0 6.7 0 3.4 0 0 Z " fill="#60554E" transform="translate(5,16)"/>
<path d="M0 0 C4.89946269 1.31448999 9.56313273 3.15469343 13 7 C13.4375 10.8125 13.4375 10.8125 13 14 C8.50343896 16.24828052 4.92127034 16.16682272 0 16 C0.875 11.25 0.875 11.25 2 9 C1.34 8.67 0.68 8.34 0 8 C0 5.36 0 2.72 0 0 Z " fill="#161B24" transform="translate(30,52)"/>
<path d="M0 0 C0.33 0.66 0.66 1.32 1 2 C-0.98 2.33 -2.96 2.66 -5 3 C-2.03 3.495 -2.03 3.495 1 4 C1 4.99 1 5.98 1 7 C-2.04997133 8.47877398 -3.82214959 9.0136808 -7.25 8.75 C-12.01272757 9.06751517 -14.32423154 10.89340451 -18.08203125 13.6875 C-20 15 -20 15 -22 15 C-22.33 13.68 -22.66 12.36 -23 11 C-21.73308493 10.32591692 -20.46129251 9.66099503 -19.1875 9 C-18.47980469 8.62875 -17.77210937 8.2575 -17.04296875 7.875 C-15 7 -15 7 -12 7 C-12 4.69 -12 2.38 -12 0 C-7.25903047 -2.03184408 -4.71062577 -2.19098873 0 0 Z " fill="#B4A18C" transform="translate(63,36)"/>
<path d="M0 0 C2.64 0 5.28 0 8 0 C9.87774157 1.87774157 9.42951503 4.72611501 9.5625 7.25 C9.64628906 8.38953125 9.73007812 9.5290625 9.81640625 10.703125 C9 14 9 14 1 19 C0.67 12.73 0.34 6.46 0 0 Z " fill="#BFC6CD" transform="translate(24,11)"/>
<path d="M0 0 C0.33 -0.33 0.66 -0.66 1 -1 C3.33297433 -1.04092937 5.66705225 -1.04241723 8 -1 C8.04254356 0.99954746 8.04080783 3.00041636 8 5 C7.67 5.33 7.34 5.66 7 6 C7.1018371 7.91424457 7.1018371 7.91424457 7.4375 10.0625 C7.623125 11.361875 7.80875 12.66125 8 14 C4.7 14 1.4 14 -2 14 C-1.34 12.68 -0.68 11.36 0 10 C-2.31 9.67 -4.62 9.34 -7 9 C-7 8.67 -7 8.34 -7 8 C-6.21753906 7.95101563 -5.43507812 7.90203125 -4.62890625 7.8515625 C-3.61699219 7.77679688 -2.60507812 7.70203125 -1.5625 7.625 C-0.55316406 7.55539063 0.45617187 7.48578125 1.49609375 7.4140625 C2.73552734 7.20910156 2.73552734 7.20910156 4 7 C4.33 6.34 4.66 5.68 5 5 C4.0925 4.87625 3.185 4.7525 2.25 4.625 C-0.63717627 4.06977379 -2.42638854 3.28680573 -5 2 C-6.32 2 -7.64 2 -9 2 C-9 1.01 -9 0.02 -9 -1 C-5.38055101 -2.34053666 -3.42632833 -1.61798838 0 0 Z " fill="#B8B5B4" transform="translate(52,15)"/>
<path d="M0 0 C0.66 0 1.32 0 2 0 C2.33 2.31 2.66 4.62 3 7 C3.6496875 6.2575 3.6496875 6.2575 4.3125 5.5 C6 4 6 4 9 4 C9 6.64 9 9.28 9 12 C2.93179132 13.08360869 -1.10106757 12.79074734 -7 11 C-7 8.36 -7 5.72 -7 3 C-6.071875 3.2784375 -6.071875 3.2784375 -5.125 3.5625 C-2.95839822 4.23686176 -2.95839822 4.23686176 -1 3 C-0.67 2.01 -0.34 1.02 0 0 Z " fill="#D0DAE2" transform="translate(15,14)"/>
<path d="M0 0 C3.465 1.98 3.465 1.98 7 4 C6.67 6.64 6.34 9.28 6 12 C6.66 12.33 7.32 12.66 8 13 C7.38722388 15.96175123 6.74627478 17.38058783 5 20 C1.535 18.02 1.535 18.02 -2 16 C-1.62875 15.071875 -1.2575 14.14375 -0.875 13.1875 C-0.58625 12.135625 -0.2975 11.08375 0 10 C-0.66 9.01 -1.32 8.02 -2 7 C-1.125 3.3125 -1.125 3.3125 0 0 Z " fill="#545964" transform="translate(24,47)"/>
<path d="M0 0 C0.66 0.33 1.32 0.66 2 1 C1.04451335 7.09122737 1.04451335 7.09122737 -1.7734375 9.54296875 C-6.5725921 12.5848121 -10.53007557 14.15783207 -16.25 14.0625 C-18.10625 14.0315625 -18.10625 14.0315625 -20 14 C-19.01 13.01 -18.02 12.02 -17 11 C-17.66 10.01 -18.32 9.02 -19 8 C-18.67 7.01 -18.34 6.02 -18 5 C-17.34 5 -16.68 5 -16 5 C-15.67 6.65 -15.34 8.3 -15 10 C-10.05 6.7 -5.1 3.4 0 0 Z " fill="#A26643" transform="translate(72,54)"/>
<path d="M0 0 C1.4375 1.875 1.4375 1.875 2 4 C1.67 4.99 1.34 5.98 1 7 C-0.32 7 -1.64 7 -3 7 C-3 7.99 -3 8.98 -3 10 C-6.63 10 -10.26 10 -14 10 C-11.08235 8.0549 -9.37462715 7.54723683 -6 7 C-10.39253773 5.43727811 -10.39253773 5.43727811 -15 5 C-6.59235669 -2.00636943 -6.59235669 -2.00636943 0 0 Z " fill="#938D7C" transform="translate(69,30)"/>
<path d="M0 0 C0.99 0.33 1.98 0.66 3 1 C2.67 1.66 2.34 2.32 2 3 C1.01 3.33 0.02 3.66 -1 4 C-1.33 4.66 -1.66 5.32 -2 6 C-1.34902344 6.21527344 -0.69804687 6.43054687 -0.02734375 6.65234375 C4.91190094 8.85110429 9.22798945 12.04382332 13.67382812 15.09960938 C19.34621362 18.91276463 19.34621362 18.91276463 26 20 C28.54361146 18.85574949 28.54361146 18.85574949 30.75 17.0625 C34.85193622 14 34.85193622 14 37 14 C37 14.66 37 15.32 37 16 C34.55078125 17.76171875 34.55078125 17.76171875 31.3125 19.6875 C29.72888672 20.65236328 29.72888672 20.65236328 28.11328125 21.63671875 C24.54631274 23.19866607 23.63504022 23.0977135 20 22 C17.41625977 20.50952148 17.41625977 20.50952148 14.69140625 18.62109375 C13.69689453 17.94755859 12.70238281 17.27402344 11.67773438 16.58007812 C9.60173461 15.15225885 7.52880586 13.71996404 5.45898438 12.28320312 C4.46318359 11.61095703 3.46738281 10.93871094 2.44140625 10.24609375 C1.54107666 9.62404053 0.64074707 9.0019873 -0.28686523 8.36108398 C-3.4210258 6.78878621 -5.53906685 6.73602245 -9 7 C-9.33 6.34 -9.66 5.68 -10 5 C-9.16855469 4.70996094 -9.16855469 4.70996094 -8.3203125 4.4140625 C-7.59585937 4.15367188 -6.87140625 3.89328125 -6.125 3.625 C-5.04605469 3.24214844 -5.04605469 3.24214844 -3.9453125 2.8515625 C-1.81842006 2.06122217 -1.81842006 2.06122217 0 0 Z " fill="#C9CDD4" transform="translate(17,34)"/>
<path d="M0 0 C0.99 -0.33 1.98 -0.66 3 -1 C3 0.65 3 2.3 3 4 C1.78763672 4.19916016 1.78763672 4.19916016 0.55078125 4.40234375 C-0.51785156 4.57894531 -1.58648437 4.75554687 -2.6875 4.9375 C-3.74324219 5.11152344 -4.79898438 5.28554687 -5.88671875 5.46484375 C-8.88677243 5.93897309 -8.88677243 5.93897309 -11.34375 6.59375 C-15.20635335 7.1845011 -18.92811414 6.84577039 -22.8125 6.5625 C-23.99489258 6.48418945 -23.99489258 6.48418945 -25.20117188 6.40429688 C-27.13451529 6.27540731 -29.06732164 6.13850506 -31 6 C-31 5.67 -31 5.34 -31 5 C-30.07058594 4.96261719 -29.14117187 4.92523438 -28.18359375 4.88671875 C-18.24872647 4.35837857 -9.04364812 -1.45344345 0 0 Z " fill="#C9BEB9" transform="translate(77,63)"/>
<path d="M0 0 C2.31 0 4.62 0 7 0 C7.13510253 2.91821463 7.2341305 5.83017652 7.3125 8.75 C7.35439453 9.575 7.39628906 10.4 7.43945312 11.25 C7.56331392 17.39349561 7.56331392 17.39349561 4.60546875 20.578125 C2 22 2 22 0 22 C0 20.35 0 18.7 0 17 C1.32 17.33 2.64 17.66 4 18 C3.67 16.68 3.34 15.36 3 14 C3.99 14 4.98 14 6 14 C6 11.36 6 8.72 6 6 C5.01 6 4.02 6 3 6 C2.67 6.99 2.34 7.98 2 9 C1.34 9 0.68 9 0 9 C0 6.03 0 3.06 0 0 Z " fill="#7D766F" transform="translate(18,12)"/>
<path d="M0 0 C1.81242052 -0.02687279 3.62495233 -0.04633715 5.4375 -0.0625 C6.44683594 -0.07410156 7.45617187 -0.08570313 8.49609375 -0.09765625 C11 0 11 0 12 1 C12 2.98 12 4.96 12 7 C8.04 7 4.08 7 0 7 C0 4.69 0 2.38 0 0 Z " fill="#B39076" transform="translate(2,58)"/>
<path d="M0 0 C0 4.29 0 8.58 0 13 C-4.2129476 11.31482096 -7.32315889 9.56523798 -11 7 C-4.48275862 0 -4.48275862 0 0 0 Z " fill="#291F20" transform="translate(37,28)"/>
<path d="M0 0 C0.99 0 1.98 0 3 0 C3.05814085 3.58326501 3.09364357 7.16640838 3.125 10.75 C3.14175781 11.76578125 3.15851562 12.7815625 3.17578125 13.828125 C3.18222656 14.8078125 3.18867187 15.7875 3.1953125 16.796875 C3.20578613 17.69760742 3.21625977 18.59833984 3.22705078 19.52636719 C3 22 3 22 1 26 C1 22.37 1 18.74 1 15 C-0.98 15.99 -0.98 15.99 -3 17 C-2.40670188 12.15473202 -1.35106007 7.68367489 0 3 C0 2.01 0 1.02 0 0 Z " fill="#C7C5C4" transform="translate(37,12)"/>
<path d="M0 0 C3.63 0 7.26 0 11 0 C11 0.66 11 1.32 11 2 C12.65 2 14.3 2 16 2 C16 2.66 16 3.32 16 4 C10.68670645 6.08989546 6.71271928 7.6112798 1 6 C0.67 4.02 0.34 2.04 0 0 Z " fill="#B9B4AD" transform="translate(61,14)"/>
<path d="M0 0 C4.1403898 1.47980598 7.58703856 3.51507353 11.25 5.9375 C12.30703125 6.62714844 13.3640625 7.31679688 14.453125 8.02734375 C17 10 17 10 18 13 C15.69 13 13.38 13 11 13 C11 12.34 11 11.68 11 11 C10.01 11 9.02 11 8 11 C7.67 9.35 7.34 7.7 7 6 C4.69 5.67 2.38 5.34 0 5 C0 3.35 0 1.7 0 0 Z " fill="#DBE1E4" transform="translate(6,53)"/>
<path d="M0 0 C0.33 0 0.66 0 1 0 C1.33 1.65 1.66 3.3 2 5 C4.64 5 7.28 5 10 5 C10.33 6.65 10.66 8.3 11 10 C9.68 10.33 8.36 10.66 7 11 C6.67 12.32 6.34 13.64 6 15 C1.77202073 13.15025907 1.77202073 13.15025907 0 11 C-0.54496736 7.28674204 -0.34704379 3.72750735 0 0 Z " fill="#212334" transform="translate(0,38)"/>
<path d="M0 0 C3 3.75 3 3.75 3 6 C5.64 6 8.28 6 11 6 C8 8 8 8 4.875 7.75 C0.01998331 8.06322688 -2.25653804 9.84307131 -6.08203125 12.6875 C-8 14 -8 14 -10 14 C-10.33 12.68 -10.66 11.36 -11 10 C-9.73308493 9.32591692 -8.46129251 8.66099503 -7.1875 8 C-6.47980469 7.62875 -5.77210937 7.2575 -5.04296875 6.875 C-3 6 -3 6 0 6 C0 4.02 0 2.04 0 0 Z " fill="#A17F5F" transform="translate(51,37)"/>
<path d="M0 0 C3.125 0.375 3.125 0.375 6 1 C6 3.31 6 5.62 6 8 C3.6875 9.125 3.6875 9.125 1 10 C0.01 9.34 -0.98 8.68 -2 8 C-2.3125 5 -2.3125 5 -2 2 C-1.34 1.34 -0.68 0.68 0 0 Z " fill="#22110E" transform="translate(74,54)"/>
<path d="M0 0 C4.51885332 0.81590407 7.79071194 3.32495271 11.5625 5.8203125 C14.3841146 7.18590162 15.12262477 6.88057604 18 6 C18.66 6.66 19.32 7.32 20 8 C18.02 8.33 16.04 8.66 14 9 C13.67 9.99 13.34 10.98 13 12 C8.38 9.03 3.76 6.06 -1 3 C-0.67 2.01 -0.34 1.02 0 0 Z " fill="#6B6765" transform="translate(16,37)"/>
<path d="M0 0 C0.66 0.33 1.32 0.66 2 1 C2 5.29 2 9.58 2 14 C-0.64 13.67 -3.28 13.34 -6 13 C-5.01 12.67 -4.02 12.34 -3 12 C-3.32960216 6.98464948 -3.32960216 6.98464948 -6 3 C-4.03533587 1.93224776 -2.03144641 0.93446535 0 0 Z " fill="#535860" transform="translate(46,54)"/>
<path d="M0 0 C0.99 0.66 1.98 1.32 3 2 C2.67447917 3.98567708 2.34895833 5.97135417 2.0234375 7.95703125 C1.80422152 10.31755824 1.80422152 10.31755824 4 13 C3.34 13 2.68 13 2 13 C2 14.32 2 15.64 2 17 C-0.86724686 16.42655063 -1.8614515 16.1385485 -4 14 C-3.01 13.67 -2.02 13.34 -1 13 C-1 13.66 -1 14.32 -1 15 C-0.34 15 0.32 15 1 15 C0.34 13.68 -0.32 12.36 -1 11 C-1.99 11 -2.98 11 -4 11 C-3.39301257 6.87248551 -1.96189209 3.6678852 0 0 Z " fill="#353A49" transform="translate(21,45)"/>
<path d="M0 0 C1 1 1 1 1.0625 4.0625 C1.041875 5.031875 1.02125 6.00125 1 7 C-4.75 8.125 -4.75 8.125 -7 7 C-7 4.69 -7 2.38 -7 0 C-4.31633121 -1.3418344 -2.84719317 -0.73004953 0 0 Z " fill="#B25A27" transform="translate(79,29)"/>
<path d="M0 0 C-0.375 2.9375 -0.375 2.9375 -1 6 C-1.99 6.495 -1.99 6.495 -3 7 C-3.33 7.99 -3.66 8.98 -4 10 C-6.375 9.8125 -6.375 9.8125 -9 9 C-10.3125 6.4375 -10.3125 6.4375 -11 4 C-9.5437455 3.32880451 -8.08492133 2.66318193 -6.625 2 C-5.81289062 1.62875 -5.00078125 1.2575 -4.1640625 0.875 C-2 0 -2 0 0 0 Z " fill="#080B1C" transform="translate(17,45)"/>
<path d="M0 0 C0.33 -0.33 0.66 -0.66 1 -1 C3.33297433 -1.04092937 5.66705225 -1.04241723 8 -1 C8 0.32 8 1.64 8 3 C3.71270043 4.18270333 0.32258207 4.02376944 -4 3 C-4.33 2.67 -4.66 2.34 -5 2 C-6.32 2 -7.64 2 -9 2 C-9 1.01 -9 0.02 -9 -1 C-5.38055101 -2.34053666 -3.42632833 -1.61798838 0 0 Z " fill="#988272" transform="translate(52,15)"/>
<path d="M0 0 C0.33 0.66 0.66 1.32 1 2 C3.52733235 2.65555119 3.52733235 2.65555119 6 3 C6 3.99 6 4.98 6 6 C5.01 6 4.02 6 3 6 C3 6.66 3 7.32 3 8 C0.1875 8.625 0.1875 8.625 -3 9 C-3.99 8.34 -4.98 7.68 -6 7 C-5.67 5.68 -5.34 4.36 -5 3 C-3.35 3.33 -1.7 3.66 0 4 C0 2.68 0 1.36 0 0 Z " fill="#2E2B28" transform="translate(7,28)"/>
<path d="M0 0 C0.9075 0.309375 1.815 0.61875 2.75 0.9375 C6.35775227 2.11695747 9.20539546 3 13 3 C13 3.99 13 4.98 13 6 C9.04 6 5.08 6 1 6 C0.67 7.32 0.34 8.64 0 10 C0 6.7 0 3.4 0 0 Z " fill="#0F121B" transform="translate(1,37)"/>
<path d="M0 0 C0 4.29 0 8.58 0 13 C-1.32 13.33 -2.64 13.66 -4 14 C-4.08082094 12.04233719 -4.13910778 10.08373272 -4.1875 8.125 C-4.22230469 7.03445312 -4.25710937 5.94390625 -4.29296875 4.8203125 C-4.19628906 3.88960937 -4.09960938 2.95890625 -4 2 C-1 0 -1 0 0 0 Z " fill="#040307" transform="translate(80,37)"/>
<path d="M0 0 C0 2.64 0 5.28 0 8 C-8.42857143 9.28571429 -8.42857143 9.28571429 -13 8 C-13 7.67 -13 7.34 -13 7 C-11.02 7 -9.04 7 -7 7 C-6.8453125 6.1028125 -6.8453125 6.1028125 -6.6875 5.1875 C-5.47470998 1.32862265 -4.05869208 0 0 0 Z " fill="#C0C1BB" transform="translate(24,18)"/>
<path d="M0 0 C3.3 0.33 6.6 0.66 10 1 C8 5 8 5 5 7 C3.0103005 7.39013716 1.00980131 7.73202649 -1 8 C-0.67 5.36 -0.34 2.72 0 0 Z " fill="#D7D7D8" transform="translate(44,23)"/>
<path d="M0 0 C3.65316671 1.24976756 4.78065836 1.67098753 7 5 C7 5.99 7 6.98 7 8 C5.68 8 4.36 8 3 8 C3 6.68 3 5.36 3 4 C2.01 4.66 1.02 5.32 0 6 C-2.6875 5.625 -2.6875 5.625 -5 5 C-4.67 4.01 -4.34 3.02 -4 2 C-2.68 2 -1.36 2 0 2 C0 1.34 0 0.68 0 0 Z " fill="#151C28" transform="translate(14,41)"/>
<path d="M0 0 C1.41623216 -0.05447047 2.83308191 -0.09300508 4.25 -0.125 C5.03890625 -0.14820312 5.8278125 -0.17140625 6.640625 -0.1953125 C9.20731941 0.0171622 10.7916067 0.71345895 13 2 C11.35 2.66 9.7 3.32 8 4 C8 6.31 8 8.62 8 11 C7.67 11 7.34 11 7 11 C6.34 8.69 5.68 6.38 5 4 C3.35 3.67 1.7 3.34 0 3 C0 2.01 0 1.02 0 0 Z " fill="#E0CDBB" transform="translate(43,32)"/>
<path d="M0 0 C0.66 0 1.32 0 2 0 C2.33 1.65 2.66 3.3 3 5 C4.65 4.34 6.3 3.68 8 3 C7.34 4.32 6.68 5.64 6 7 C7.65 6.67 9.3 6.34 11 6 C10 8 10 8 8.4375 8.625 C4.93601819 9.16368951 1.54193167 9.05903219 -2 9 C-1.01 8.01 -0.02 7.02 1 6 C0.34 5.01 -0.32 4.02 -1 3 C-0.67 2.01 -0.34 1.02 0 0 Z " fill="#876046" transform="translate(54,59)"/>
<path d="M0 0 C3 1.1875 3 1.1875 5 3.1875 C0.25 7.1875 0.25 7.1875 -2 7.1875 C-2.33 5.5375 -2.66 3.8875 -3 2.1875 C-4.32 2.5175 -5.64 2.8475 -7 3.1875 C-4.12941176 -1.11838235 -4.12941176 -1.11838235 0 0 Z " fill="#0E0D12" transform="translate(59,56.8125)"/>
<path d="M0 0 C2.31 0 4.62 0 7 0 C6.67 1.98 6.34 3.96 6 6 C5.01 6 4.02 6 3 6 C2.67 6.99 2.34 7.98 2 9 C1.34 9 0.68 9 0 9 C0 6.03 0 3.06 0 0 Z " fill="#8091AC" transform="translate(18,12)"/>
<path d="M0 0 C2.12046792 3.53411321 2.53199289 6.94393835 3 11 C2.34 11 1.68 11 1 11 C1 11.99 1 12.98 1 14 C1.99 14.33 2.98 14.66 4 15 C2.35 14.67 0.7 14.34 -1 14 C-1.02694851 12.04174127 -1.04637218 10.08337774 -1.0625 8.125 C-1.07410156 7.03445312 -1.08570313 5.94390625 -1.09765625 4.8203125 C-1 2 -1 2 0 0 Z " fill="#32363D" transform="translate(48,53)"/>
<path d="M0 0 C4.30764815 1.56641751 8.06171464 3.68336156 12 6 C12 6.99 12 7.98 12 9 C7.2292071 8.56629155 3.36635741 6.35665609 0 3 C0 2.01 0 1.02 0 0 Z " fill="#1C1A1D" transform="translate(30,46)"/>
<path d="M0 0 C0.66 0 1.32 0 2 0 C2.33 2.31 2.66 4.62 3 7 C3.33 7 3.66 7 4 7 C4 11.29 4 15.58 4 20 C2.68 19.34 1.36 18.68 0 18 C0 12 0 6 0 0 Z " fill="#C4B5AD" transform="translate(36,27)"/>
<path d="M0 0 C0.33 0 0.66 0 1 0 C1 1.98 1 3.96 1 6 C1.66 6 2.32 6 3 6 C3.33 7.65 3.66 9.3 4 11 C1.36 10.67 -1.28 10.34 -4 10 C-4.33 10.99 -4.66 11.98 -5 13 C-5 11.02 -5 9.04 -5 7 C-3.68 7 -2.36 7 -1 7 C-1.020625 6.030625 -1.04125 5.06125 -1.0625 4.0625 C-1 1 -1 1 0 0 Z " fill="#B6A98E" transform="translate(71,30)"/>
<path d="M0 0 C2.97 0 5.94 0 9 0 C8.67 1.65 8.34 3.3 8 5 C5 6 5 6 1.8125 4.5625 C0.884375 4.046875 -0.04375 3.53125 -1 3 C-0.67 2.01 -0.34 1.02 0 0 Z " fill="#8DA4CA" transform="translate(6,13)"/>
<path d="M0 0 C1.98 0.99 1.98 0.99 4 2 C3.01 3.485 3.01 3.485 2 5 C3.32 5.33 4.64 5.66 6 6 C6.33 7.65 6.66 9.3 7 11 C5.02 11.33 3.04 11.66 1 12 C1.33 11.01 1.66 10.02 2 9 C1.34 8.67 0.68 8.34 0 8 C0 5.36 0 2.72 0 0 Z " fill="#272C31" transform="translate(30,52)"/>
<path d="M0 0 C0.66 0.33 1.32 0.66 2 1 C2.05441656 2.89551022 2.09298035 4.7914792 2.125 6.6875 C2.14820313 7.74324219 2.17140625 8.79898437 2.1953125 9.88671875 C1.99653524 13.05522823 1.44874543 15.18862338 0 18 C-0.66 18.33 -1.32 18.66 -2 19 C-2.33 17.35 -2.66 15.7 -3 14 C-2.34 13.67 -1.68 13.34 -1 13 C-0.53045739 9.95418731 -0.53045739 9.95418731 -0.375 6.4375 C-0.30023438 5.23996094 -0.22546875 4.04242188 -0.1484375 2.80859375 C-0.09945312 1.88175781 -0.05046875 0.95492188 0 0 Z " fill="#DFDEDB" transform="translate(33,12)"/>
<path d="M0 0 C0.66 0.99 1.32 1.98 2 3 C-0.97 2.67 -3.94 2.34 -7 2 C-7 2.66 -7 3.32 -7 4 C-9.64 4.66 -12.28 5.32 -15 6 C-7.34837545 -2.0767148 -7.34837545 -2.0767148 0 0 Z " fill="#B98059" transform="translate(69,30)"/>
<path d="M0 0 C0.25 2.3125 0.25 2.3125 0 5 C-2.04424538 6.97610386 -3.1176825 8 -6 8 C-6 5.69 -6 3.38 -6 1 C-4 0 -4 0 0 0 Z " fill="#828481" transform="translate(33,20)"/>
<path d="M0 0 C0.99 0 1.98 0 3 0 C3 2.97 3 5.94 3 9 C3.99 9.33 4.98 9.66 6 10 C2.94736336 10.98120464 1.05263664 10.98120464 -2 10 C-1.34 10 -0.68 10 0 10 C0 6.7 0 3.4 0 0 Z " fill="#6B747C" transform="translate(5,16)"/>
<path d="M0 0 C0.61875 0.350625 1.2375 0.70125 1.875 1.0625 C2.57625 1.371875 3.2775 1.68125 4 2 C4.66 1.67 5.32 1.34 6 1 C8.125 1.4375 8.125 1.4375 10 2 C10 1.34 10 0.68 10 0 C10.99 0 11.98 0 13 0 C12.34 1.65 11.68 3.3 11 5 C7.16774573 5.08912219 3.73437848 4.87867729 0 4 C0 2.68 0 1.36 0 0 Z " fill="#76787A" transform="translate(0,34)"/>
<path d="M0 0 C0.33 0.66 0.66 1.32 1 2 C1.5775 1.773125 2.155 1.54625 2.75 1.3125 C5 1 5 1 7.25 2.3125 C7.8275 2.869375 8.405 3.42625 9 4 C9 4.66 9 5.32 9 6 C6.69 6 4.38 6 2 6 C2 5.34 2 4.68 2 4 C1.01 4 0.02 4 -1 4 C-0.67 2.68 -0.34 1.36 0 0 Z " fill="#F2F0F0" transform="translate(15,60)"/>
<path d="M0 0 C1.67542976 0.28604898 3.34385343 0.61781233 5 1 C5 4 5 4 4 7 C2.35 6.67 0.7 6.34 -1 6 C-1.042721 4.33388095 -1.04063832 2.66617115 -1 1 C-0.67 0.67 -0.34 0.34 0 0 Z " fill="#6A707C" transform="translate(25,49)"/>
<path d="M0 0 C-0.33 1.32 -0.66 2.64 -1 4 C-3.97 4.66 -6.94 5.32 -10 6 C-7.37633201 0.75266403 -5.66081183 -0.30598983 0 0 Z " fill="#B65313" transform="translate(70,60)"/>
<path d="M0 0 C3.63 0 7.26 0 11 0 C11.33 0.99 11.66 1.98 12 3 C8.04 3 4.08 3 0 3 C0 2.01 0 1.02 0 0 Z " fill="#51585F" transform="translate(2,58)"/>
<path d="M0 0 C0.66 0 1.32 0 2 0 C2.33 3.3 2.66 6.6 3 10 C1.35 10 -0.3 10 -2 10 C-2 8.35 -2 6.7 -2 5 C-1.34 4.67 -0.68 4.34 0 4 C0 2.68 0 1.36 0 0 Z " fill="#BABFC7" transform="translate(2,16)"/>
<path d="M0 0 C0.99 0 1.98 0 3 0 C3.33 2.31 3.66 4.62 4 7 C3.01 7.33 2.02 7.66 1 8 C1 10.31 1 12.62 1 15 C0.67 15 0.34 15 0 15 C0 10.05 0 5.1 0 0 Z " fill="#D8E0EA" transform="translate(26,13)"/>
<path d="M0 0 C0.33 0.66 0.66 1.32 1 2 C0.34 2 -0.32 2 -1 2 C-1 2.66 -1 3.32 -1 4 C-9.57142857 3.14285714 -9.57142857 3.14285714 -13 1 C-8.59085217 -0.10228696 -4.51617599 -0.07654536 0 0 Z " fill="#E2E1DF" transform="translate(57,29)"/>
<path d="M0 0 C-0.33 0.99 -0.66 1.98 -1 3 C-5.95 3 -10.9 3 -16 3 C-15.67 2.34 -15.34 1.68 -15 1 C-12.3828125 0.5859375 -12.3828125 0.5859375 -9.125 0.375 C-8.05507812 0.30023438 -6.98515625 0.22546875 -5.8828125 0.1484375 C-3.92384602 0.04756931 -1.96156164 0 0 0 Z " fill="#DBC4B3" transform="translate(17,64)"/>
<path d="M0 0 C0.66 0 1.32 0 2 0 C2.33 1.98 2.66 3.96 3 6 C-0.3 6.33 -3.6 6.66 -7 7 C-6.67 5.68 -6.34 4.36 -6 3 C-5.01 3.33 -4.02 3.66 -3 4 C-2.34 3.67 -1.68 3.34 -1 3 C-0.67 2.01 -0.34 1.02 0 0 Z " fill="#B0C6E2" transform="translate(15,14)"/>
<path d="M0 0 C2.64 0 5.28 0 8 0 C8.33 1.32 8.66 2.64 9 4 C6.03 4 3.06 4 0 4 C0 2.68 0 1.36 0 0 Z " fill="#504942" transform="translate(2,43)"/>
<path d="M0 0 C1.98 0 3.96 0 6 0 C6 1.98 6 3.96 6 6 C4.35 6 2.7 6 1 6 C0.67 4.02 0.34 2.04 0 0 Z " fill="#B1896A" transform="translate(61,14)"/>
<path d="M0 0 C2.8125 0.125 2.8125 0.125 6 1 C7.875 4.0625 7.875 4.0625 9 7 C5.40608886 5.66511872 2.24509304 4.03977277 -1 2 C-0.67 1.34 -0.34 0.68 0 0 Z " fill="#88461C" transform="translate(33,45)"/>
<path d="M0 0 C3.3 0 6.6 0 10 0 C10 0.99 10 1.98 10 3 C6.7 3 3.4 3 0 3 C0 2.01 0 1.02 0 0 Z " fill="#C9B991" transform="translate(54,40)"/>
<path d="M0 0 C3.34249629 0.59687434 5.46436342 1.73603877 8 4 C8 4.66 8 5.32 8 6 C4.65626525 5.44271087 1.96687001 4.64826111 -1 3 C-0.67 2.01 -0.34 1.02 0 0 Z " fill="#29343C" transform="translate(16,37)"/>
<path d="M0 0 C0.99 0 1.98 0 3 0 C3 0.99 3 1.98 3 3 C4.32 3 5.64 3 7 3 C7 3.99 7 4.98 7 6 C6.21625 5.95875 5.4325 5.9175 4.625 5.875 C1.83883881 5.71271266 1.83883881 5.71271266 0 8 C0 5.36 0 2.72 0 0 Z " fill="#4E433A" transform="translate(0,26)"/>
<path d="M0 0 C5.75 -0.125 5.75 -0.125 8 1 C8 1.66 8 2.32 8 3 C6.3603125 3.2165625 6.3603125 3.2165625 4.6875 3.4375 C1.06877013 3.88288104 1.06877013 3.88288104 -2 5 C-4.6875 4.0625 -4.6875 4.0625 -7 3 C-3.25 1.875 -3.25 1.875 -1 3 C-0.67 2.01 -0.34 1.02 0 0 Z " fill="#D9BEAA" transform="translate(71,26)"/>
<path d="M0 0 C0.33 0.99 0.66 1.98 1 3 C1.94875 2.814375 2.8975 2.62875 3.875 2.4375 C7 2 7 2 9 3 C9 3.66 9 4.32 9 5 C9.66 5.33 10.32 5.66 11 6 C7.37 6 3.74 6 0 6 C0 4.02 0 2.04 0 0 Z " fill="#BABABD" transform="translate(42,14)"/>
<path d="M0 0 C0.66 1.32 1.32 2.64 2 4 C-1.96 5.98 -1.96 5.98 -6 8 C-5.8125 5.6875 -5.8125 5.6875 -5 3 C-2.4375 1.1875 -2.4375 1.1875 0 0 Z " fill="#514F4F" transform="translate(48,47)"/>
<path d="M0 0 C1.875 0.1875 1.875 0.1875 4 1 C5.25 3.5625 5.25 3.5625 6 6 C5.01 6 4.02 6 3 6 C3 5.34 3 4.68 3 4 C1.35 4 -0.3 4 -2 4 C-1.34 2.68 -0.68 1.36 0 0 Z " fill="#0A0F1A" transform="translate(33,54)"/>
<path d="M0 0 C0 0.66 0 1.32 0 2 C-1.9375 2.5625 -1.9375 2.5625 -4 3 C-4.33 2.67 -4.66 2.34 -5 2 C-6.32 2 -7.64 2 -9 2 C-9 1.01 -9 0.02 -9 -1 C-5.38055101 -2.34053666 -3.42632833 -1.61798838 0 0 Z " fill="#7B7C7F" transform="translate(52,15)"/>
<path d="M0 0 C-0.375 2.9375 -0.375 2.9375 -1 6 C-1.99 6.495 -1.99 6.495 -3 7 C-3.66 7.99 -4.32 8.98 -5 10 C-5.3669579 3.51707705 -5.3669579 3.51707705 -3.625 1.0625 C-2 0 -2 0 0 0 Z " fill="#131723" transform="translate(17,45)"/>
<path d="M0 0 C2.53541298 0.09086451 5.03554784 0.2370945 7.5625 0.4375 C8.62887695 0.51581055 8.62887695 0.51581055 9.71679688 0.59570312 C11.47821999 0.72574107 13.23916173 0.86226897 15 1 C15 1.33 15 1.66 15 2 C8.4 2.33 1.8 2.66 -5 3 C-3.68 2.34 -2.36 1.68 -1 1 C-0.67 0.67 -0.34 0.34 0 0 Z " fill="#B8A99F" transform="translate(65,65)"/>
<path d="M0 0 C0.33 1.98 0.66 3.96 1 6 C-1.64 5.67 -4.28 5.34 -7 5 C-6.01 4.67 -5.02 4.34 -4 4 C-4 3.01 -4 2.02 -4 1 C-1 0 -1 0 0 0 Z " fill="#434851" transform="translate(47,62)"/>
<path d="M0 0 C0.99 0.33 1.98 0.66 3 1 C3 2.98 3 4.96 3 7 C2.34 7 1.68 7 1 7 C0.67 6.34 0.34 5.68 0 5 C-0.66 5 -1.32 5 -2 5 C-2 3.68 -2 2.36 -2 1 C-1.34 0.67 -0.68 0.34 0 0 Z " fill="#191D1E" transform="translate(56,48)"/>
<path d="M0 0 C1.98 0 3.96 0 6 0 C6 1.32 6 2.64 6 4 C4.02 4 2.04 4 0 4 C0 2.68 0 1.36 0 0 Z " fill="#882B02" transform="translate(73,31)"/>
<path d="M0 0 C-0.33 1.65 -0.66 3.3 -1 5 C-2.32 5.33 -3.64 5.66 -5 6 C-5.33 4.68 -5.66 3.36 -6 2 C-2.25 0 -2.25 0 0 0 Z " fill="#BE8954" transform="translate(46,45)"/>
<path d="M0 0 C0 0.33 0 0.66 0 1 C-5.77759884 1.12036664 -11.27959989 0.8320582 -17 0 C-17 -0.33 -17 -0.66 -17 -1 C-10.77104914 -2.13253652 -6.08251096 -1.70366626 0 0 Z " fill="#B3B5B9" transform="translate(36,68)"/>
<path d="M0 0 C0.33 0 0.66 0 1 0 C1 1.98 1 3.96 1 6 C1.66 6.33 2.32 6.66 3 7 C2.38722388 9.96175123 1.74627478 11.38058783 0 14 C-1.41778293 11.16443413 -0.86257622 9.0091294 -0.5625 5.875 C-0.46066406 4.77929688 -0.35882812 3.68359375 -0.25390625 2.5546875 C-0.17011719 1.71164063 -0.08632813 0.86859375 0 0 Z " fill="#42474F" transform="translate(29,53)"/>
<path d="M0 0 C-0.33 2.31 -0.66 4.62 -1 7 C-1.66 7 -2.32 7 -3 7 C-3 5.68 -3 4.36 -3 3 C-3.66 3 -4.32 3 -5 3 C-5 2.34 -5 1.68 -5 1 C-2 0 -2 0 0 0 Z " fill="#414744" transform="translate(64,43)"/>
<path d="M0 0 C0.66 0.33 1.32 0.66 2 1 C1.34 2.65 0.68 4.3 0 6 C-1.65 5.67 -3.3 5.34 -5 5 C-4.67 4.01 -4.34 3.02 -4 2 C-2.68 2 -1.36 2 0 2 C0 1.34 0 0.68 0 0 Z " fill="#2E2D32" transform="translate(14,41)"/>
<path d="M0 0 C1.98 0 3.96 0 6 0 C6 1.65 6 3.3 6 5 C3.5625 4.1875 3.5625 4.1875 1 3 C0.67 2.01 0.34 1.02 0 0 Z " fill="#291D1E" transform="translate(31,36)"/>
<path d="M0 0 C0 1.32 0 2.64 0 4 C-2.31 3.34 -4.62 2.68 -7 2 C-6 0 -6 0 -4.0625 -0.6875 C-2 -1 -2 -1 0 0 Z " fill="#131E31" transform="translate(22,56)"/>
<path d="M0 0 C1.32 0.33 2.64 0.66 4 1 C2.95125002 3.62187494 2.35068687 4.79371361 -0.125 6.25 C-0.74375 6.4975 -1.3625 6.745 -2 7 C-1.34 4.69 -0.68 2.38 0 0 Z " fill="#948E8C" transform="translate(14,31)"/>
<path d="M0 0 C2.64 0 5.28 0 8 0 C8.33 0.66 8.66 1.32 9 2 C8.01 2 7.02 2 6 2 C5.67 2.66 5.34 3.32 5 4 C5 3.34 5 2.68 5 2 C3.35 2.33 1.7 2.66 0 3 C0 2.01 0 1.02 0 0 Z " fill="#E0E1E2" transform="translate(44,11)"/>
<path d="M0 0 C0.66 0 1.32 0 2 0 C2.33 1.98 2.66 3.96 3 6 C1.68 5.67 0.36 5.34 -1 5 C-0.67 3.35 -0.34 1.7 0 0 Z " fill="#65686E" transform="translate(26,57)"/>
<path d="M0 0 C1.98 0.99 1.98 0.99 4 2 C3.01 3.485 3.01 3.485 2 5 C3.32 5.66 4.64 6.32 6 7 C4.02 7 2.04 7 0 7 C0 4.69 0 2.38 0 0 Z " fill="#1C202B" transform="translate(30,52)"/>
<path d="M0 0 C0.33 0.66 0.66 1.32 1 2 C2.65 2 4.3 2 6 2 C6 2.33 6 2.66 6 3 C4.02 3 2.04 3 0 3 C0.33 3.99 0.66 4.98 1 6 C-1.475 5.01 -1.475 5.01 -4 4 C-2.68 2.68 -1.36 1.36 0 0 Z " fill="#6E6965" transform="translate(30,31)"/>
<path d="M0 0 C1.65 0 3.3 0 5 0 C5 0.99 5 1.98 5 3 C3.125 4.0625 3.125 4.0625 1 5 C0.34 4.67 -0.32 4.34 -1 4 C-0.67 2.68 -0.34 1.36 0 0 Z " fill="#C9C9C9" transform="translate(47,25)"/>
<path d="M0 0 C0.99 0 1.98 0 3 0 C3 2.64 3 5.28 3 8 C2.67 6.68 2.34 5.36 2 4 C0.35 4 -1.3 4 -3 4 C-1.6875 2 -1.6875 2 0 0 Z " fill="#A3ADBD" transform="translate(21,18)"/>
<path d="M0 0 C1.32 0 2.64 0 4 0 C3.67 1.65 3.34 3.3 3 5 C2.01 5.33 1.02 5.66 0 6 C0 4.02 0 2.04 0 0 Z " fill="#151C1E" transform="translate(69,50)"/>
<path d="M0 0 C1.34245892 2.68491785 1.02549373 5.0850533 0.9375 8.02734375 C0.91266984 10.2147211 0.91266984 10.2147211 2 13 C1.01 13 0.02 13 -1 13 C-1.02686553 11.02090602 -1.04633375 9.04171029 -1.0625 7.0625 C-1.07410156 5.96035156 -1.08570312 4.85820313 -1.09765625 3.72265625 C-1 1 -1 1 0 0 Z " fill="#171718" transform="translate(77,38)"/>
<path d="M0 0 C2.4375 0.375 2.4375 0.375 5 1 C5.33 1.66 5.66 2.32 6 3 C4.02 3 2.04 3 0 3 C-0.33 3.66 -0.66 4.32 -1 5 C-0.67 3.35 -0.34 1.7 0 0 Z " fill="#606570" transform="translate(25,49)"/>
<path d="M0 0 C1.98 0 3.96 0 6 0 C5.67 0.99 5.34 1.98 5 3 C3.35 3 1.7 3 0 3 C0 2.01 0 1.02 0 0 Z " fill="#544A4A" transform="translate(73,56)"/>
<path d="M0 0 C0 1.65 0 3.3 0 5 C-2.97 4.505 -2.97 4.505 -6 4 C-2.17391304 0 -2.17391304 0 0 0 Z " fill="#BDADAD" transform="translate(80,50)"/>
<path d="M0 0 C0.33 0 0.66 0 1 0 C1 1.65 1 3.3 1 5 C-0.98 5.66 -2.96 6.32 -5 7 C-5 6.34 -5 5.68 -5 5 C-4.34 5 -3.68 5 -3 5 C-3 4.34 -3 3.68 -3 3 C-2.01 3 -1.02 3 0 3 C0 2.01 0 1.02 0 0 Z " fill="#F4E3CE" transform="translate(49,38)"/>
<path d="M0 0 C2.875 0.3125 2.875 0.3125 6 1 C6.66 1.99 7.32 2.98 8 4 C3.545 3.01 3.545 3.01 -1 2 C-0.67 1.34 -0.34 0.68 0 0 Z " fill="#A0714D" transform="translate(63,29)"/>
</svg>
