<?xml version="1.0" encoding="UTF-8"?>
<svg version="1.1" xmlns="http://www.w3.org/2000/svg" width="80" height="80">
<path d="M0 0 C26.4 0 52.8 0 80 0 C80 26.4 80 52.8 80 80 C53.6 80 27.2 80 0 80 C0 53.6 0 27.2 0 0 Z " fill="#EBEEF8" transform="translate(0,0)"/>
<path d="M0 0 C26.4 0 52.8 0 80 0 C80 27 80 27 79 29 C76.69 28.34 74.38 27.68 72 27 C71.67 28.32 71.34 29.64 71 31 C71 30.01 71 29.02 71 28 C70.4740625 28.20625 69.948125 28.4125 69.40625 28.625 C65.07319271 29.30028165 61.15210321 27.22733873 57.09375 25.8125 C54.11079631 25.02909802 52.81372571 24.89657815 50 26 C50 26.66 50 27.32 50 28 C52.31 28.33 54.62 28.66 57 29 C57 29.33 57 29.66 57 30 C54.69 30 52.38 30 50 30 C50 30.66 50 31.32 50 32 C51.051875 31.814375 52.10375 31.62875 53.1875 31.4375 C56.57119882 31.04920669 58.76425888 31.11752515 62 32 C57.95879982 42.25347067 57.95879982 42.25347067 54 44 C50.875 44.3125 50.875 44.3125 48 44 C47.34 43.34 46.68 42.68 46 42 C46.66 40.68 47.32 39.36 48 38 C46.35 37.67 44.7 37.34 43 37 C42.505 37.99 42.505 37.99 42 39 C40.64984141 34.94952424 41.37915002 32.2079832 42 28 C41.34 28 40.68 28 40 28 C39.67 28.66 39.34 29.32 39 30 C38.34 30 37.68 30 37 30 C36.34 27.03 35.68 24.06 35 21 C33.35 20.67 31.7 20.34 30 20 C29.690625 20.9590625 29.690625 20.9590625 29.375 21.9375 C28 24 28 24 24.875 24.75 C23.451875 24.87375 23.451875 24.87375 22 25 C22 25.66 22 26.32 22 27 C21.34 27 20.68 27 20 27 C20 28.65 20 30.3 20 32 C19.01 32 18.02 32 17 32 C16.855625 31.236875 16.71125 30.47375 16.5625 29.6875 C16.0367406 26.91827092 16.0367406 26.91827092 15 24 C15.66 24 16.32 24 17 24 C17.22682556 19.81706986 17.16345584 16.04314067 16 12 C11.6503132 8.08283366 5.76919372 6.45546266 0 6 C0 4.02 0 2.04 0 0 Z " fill="#F1F4FA" transform="translate(0,0)"/>
<path d="M0 0 C0.66 0 1.32 0 2 0 C2.33 0.66 2.66 1.32 3 2 C3.78375 1.814375 4.5675 1.62875 5.375 1.4375 C8 1 8 1 10 2 C10 2.66 10 3.32 10 4 C10.66 4 11.32 4 12 4 C12 6.31 12 8.62 12 11 C12.69867187 11.02578125 13.39734375 11.0515625 14.1171875 11.078125 C15.02726562 11.13484375 15.93734375 11.1915625 16.875 11.25 C18.23238281 11.31960937 18.23238281 11.31960937 19.6171875 11.390625 C22 12 22 12 23.3203125 14.046875 C23.54460938 14.69140625 23.76890625 15.3359375 24 16 C23.34 16.99 22.68 17.98 22 19 C16.73679517 19.7518864 12.7782258 17.97719688 8 16 C8 16.99 8 17.98 8 19 C10.31 19.33 12.62 19.66 15 20 C14.01 20.33 13.02 20.66 12 21 C12 21.66 12 22.32 12 23 C12.763125 23 13.52625 23 14.3125 23 C20 23 20 23 23 24 C22.67 23.01 22.34 22.02 22 21 C22.45375 20.443125 22.9075 19.88625 23.375 19.3125 C25.7289971 15.96258105 25.66216596 13.05400852 26 9 C28.475 9.495 28.475 9.495 31 10 C29.06382979 18.93617021 29.06382979 18.93617021 26 22 C25.34 22 24.68 22 24 22 C25.39799303 24.79598606 27.43825896 25.08457892 30.21875 26.20703125 C32.40739211 27.18136096 34.14838209 28.49127429 36 30 C36.66 30.33 37.32 30.66 38 31 C38 31.66 38 32.32 38 33 C41.96 33 45.92 33 50 33 C50.2784375 31.02 50.2784375 31.02 50.5625 29 C51.77458502 23.33462485 54.95077756 19.97343485 59 16 C59.8200707 18.81978157 60.04396736 21.13936468 59.875 24.0625 C59.71158401 27.80280333 59.71158401 27.80280333 61.0625 30.0625 C64.1415866 31.55238061 66.74856958 30.67482518 70 30 C69.34 29.67 68.68 29.34 68 29 C68 26.36 68 23.72 68 21 C67.34 21 66.68 21 66 21 C66 20.01 66 19.02 66 18 C64.68 17.67 63.36 17.34 62 17 C62.33 16.34 62.66 15.68 63 15 C64.64696604 15.4752588 66.29254728 15.95531891 67.9375 16.4375 C69.31228516 16.83775391 69.31228516 16.83775391 70.71484375 17.24609375 C73 18 73 18 74 19 C74 24.94 74 30.88 74 37 C47.6 37 21.2 37 -6 37 C-6 28.09 -6 19.18 -6 10 C-5.01 9.34 -4.02 8.68 -3 8 C-1.99831469 6.05167065 -1.99831469 6.05167065 -1.3125 3.875 C-1.06113281 3.15054688 -0.80976562 2.42609375 -0.55078125 1.6796875 C-0.36902344 1.12539063 -0.18726563 0.57109375 0 0 Z " fill="#E4EAF3" transform="translate(6,43)"/>
<path d="M0 0 C1.78515625 0.26953125 1.78515625 0.26953125 4.0625 0.8125 C4.8771875 1.00070313 5.691875 1.18890625 6.53125 1.3828125 C8.05971928 1.76492982 9.58252964 2.17171583 11.09375 2.6171875 C16.13510654 4.07758047 19.82060753 3.8929987 25 3 C26.33333333 3 27.66666667 3 29 3 C29 14.55 29 26.1 29 38 C25.37 36.68 21.74 35.36 18 34 C18 34.66 18 35.32 18 36 C18.99 36.33 19.98 36.66 21 37 C21 37.99 21 38.98 21 40 C21.66 40 22.32 40 23 40 C23.79953138 43.28696233 24.09658936 44.71023192 23 48 C23.99 48.33 24.98 48.66 26 49 C22.75173326 51.16551116 21.76905843 51.55156953 18 51 C15.6875 49.6875 15.6875 49.6875 14 47 C13.66547609 43.30961716 13.77067194 39.69472983 14 36 C9.66933354 40.48046939 7.31763201 43.89097886 6 50 C5.67 50.66 5.34 51.32 5 52 C1.04 52 -2.92 52 -7 52 C-7 51.34 -7 50.68 -7 50 C-9.31 49.34 -11.62 48.68 -14 48 C-14 46.35 -14 44.7 -14 43 C-13.26394531 43.30035156 -12.52789062 43.60070312 -11.76953125 43.91015625 C-10.30580078 44.48056641 -10.30580078 44.48056641 -8.8125 45.0625 C-7.36810547 45.63677734 -7.36810547 45.63677734 -5.89453125 46.22265625 C-2.68870503 47.08360013 -1.06892436 47.27696682 2 46 C3.48308739 43.65767362 3.48308739 43.65767362 4.3125 40.75 C4.63863281 39.79609375 4.96476562 38.8421875 5.30078125 37.859375 C5.9729871 35.11046616 6.13868643 32.81482096 6 30 C4.27255984 29.34956281 2.5429631 28.70485156 0.8125 28.0625 C-0.15042969 27.70285156 -1.11335938 27.34320313 -2.10546875 26.97265625 C-4.7368278 26.08843438 -7.26894908 25.47431414 -10 25 C-10 24.34 -10 23.68 -10 23 C-8.35 23 -6.7 23 -5 23 C-5.33 22.01 -5.66 21.02 -6 20 C-3 19 -3 19 -0.125 19.25 C3.17488175 19.27856381 3.17488175 19.27856381 5.75 16.8125 C7.83504346 14.20619567 9.00698233 12.15960167 10 9 C4.5155733 8.25669086 4.5155733 8.25669086 -1 8 C-1 7.34 -1 6.68 -1 6 C0.65 5.67 2.3 5.34 4 5 C0.37114676 4.84850702 0.37114676 4.84850702 -3 6 C-1.125 1.125 -1.125 1.125 0 0 Z " fill="#E9EFF9" transform="translate(51,24)"/>
<path d="M0 0 C15.84 0 31.68 0 48 0 C47 5 47 5 45.875 6.75 C43.04368789 8.6375414 40.34498696 8.75672822 37 9 C36.34 8.67 35.68 8.34 35 8 C35 8.66 35 9.32 35 10 C40.445 10.495 40.445 10.495 46 11 C46.66 9.35 47.32 7.7 48 6 C48.66 6 49.32 6 50 6 C49.51639563 10.25571848 48.79074727 12.74412819 46 16 C45.67 16.66 45.34 17.32 45 18 C44.4225 17.814375 43.845 17.62875 43.25 17.4375 C41.06066196 16.83859669 41.06066196 16.83859669 39.1875 17.5 C35.99901038 18.22879763 33.18918974 17.55197515 30 17 C29.34 19.31 28.68 21.62 28 24 C26.02 24.33 24.04 24.66 22 25 C22 25.66 22 26.32 22 27 C21.34 27 20.68 27 20 27 C20 28.65 20 30.3 20 32 C19.01 32 18.02 32 17 32 C16.855625 31.236875 16.71125 30.47375 16.5625 29.6875 C16.0367406 26.91827092 16.0367406 26.91827092 15 24 C15.66 24 16.32 24 17 24 C17.22682556 19.81706986 17.16345584 16.04314067 16 12 C11.6503132 8.08283366 5.76919372 6.45546266 0 6 C0 4.02 0 2.04 0 0 Z " fill="#EBF1F8" transform="translate(0,0)"/>
<path d="M0 0 C1.64696604 0.4752588 3.29254728 0.95531891 4.9375 1.4375 C5.85402344 1.70433594 6.77054688 1.97117188 7.71484375 2.24609375 C10 3 10 3 11 4 C11.08631874 5.34267413 11.10706473 6.68974322 11.09765625 8.03515625 C11.09443359 8.84404297 11.09121094 9.65292969 11.08789062 10.48632812 C11.07532227 11.7615332 11.07532227 11.7615332 11.0625 13.0625 C11.05798828 13.91650391 11.05347656 14.77050781 11.04882812 15.65039062 C11.03700373 17.76695663 11.01906769 19.88348685 11 22 C3.63105185 22.05058145 -3.73785178 22.08568333 -11.10693359 22.10986328 C-13.61541415 22.11994011 -16.12388292 22.13360179 -18.63232422 22.15087891 C-22.23147488 22.17505337 -25.83047067 22.18646612 -29.4296875 22.1953125 C-30.55680145 22.20563507 -31.68391541 22.21595764 -32.84518433 22.22659302 C-33.88611237 22.22674408 -34.92704041 22.22689514 -35.99951172 22.22705078 C-36.91884491 22.231492 -37.8381781 22.23593323 -38.78536987 22.24050903 C-41 22 -41 22 -43 20 C-42.63723355 17.17042171 -41.90305236 14.70915709 -41 12 C-39 12.66666667 -37 13.33333333 -35 14 C-34.67 12.68 -34.34 11.36 -34 10 C-32.88625 10.928125 -32.88625 10.928125 -31.75 11.875 C-29.51198812 13.60437281 -27.56260013 14.86106661 -25 16 C-25 16.66 -25 17.32 -25 18 C-21.04 18 -17.08 18 -13 18 C-12.814375 16.68 -12.62875 15.36 -12.4375 14 C-11.22541498 8.33462485 -8.04922244 4.97343485 -4 1 C-3.1799293 3.81978157 -2.95603264 6.13936468 -3.125 9.0625 C-3.28841599 12.80280333 -3.28841599 12.80280333 -1.9375 15.0625 C1.1415866 16.55238061 3.74856958 15.67482518 7 15 C6.34 14.67 5.68 14.34 5 14 C5 11.36 5 8.72 5 6 C4.34 6 3.68 6 3 6 C3 5.01 3 4.02 3 3 C1.68 2.67 0.36 2.34 -1 2 C-0.67 1.34 -0.34 0.68 0 0 Z " fill="#F4F6FB" transform="translate(69,58)"/>
<path d="M0 0 C3.37431362 1.23892709 6.69199751 2.59442582 10 4 C9.43270056 10.35375374 8.71062571 17.28937429 4 22 C-1.02079894 21.75508298 -8.31525952 19.68474048 -12 16 C-11.58902656 10.14362846 -10.35926502 5.37912424 -8 0 C-4.99552601 -1.502237 -3.28001811 -0.76143278 0 0 Z " fill="#AC6FF1" transform="translate(48,50)"/>
<path d="M0 0 C5.24875001 0 6.94579346 0.03396491 11.3125 2.1875 C12.60607422 2.79658203 12.60607422 2.79658203 13.92578125 3.41796875 C16 5 16 5 16.90625 7.3515625 C17.0158257 10.4470759 16.40293164 12.34862963 15.1875 15.1875 C14.83042969 16.04730469 14.47335937 16.90710938 14.10546875 17.79296875 C13 20 13 20 11 22 C8.90625 22.01171875 8.90625 22.01171875 6.5 21.6875 C5.7059375 21.58824219 4.911875 21.48898438 4.09375 21.38671875 C2 21 2 21 0 20 C0 13.4 0 6.8 0 0 Z " fill="#4FBDF7" transform="translate(0,6)"/>
<path d="M0 0 C3.96403099 0.41726642 7.57230704 1.41919963 11.3125 2.75 C12.17488281 3.05421875 13.03726562 3.3584375 13.92578125 3.671875 C16 5 16 5 16.91796875 7.328125 C17 10 17 10 15 15 C8.07 15 1.14 15 -6 15 C-2.625 3.75 -2.625 3.75 0 0 Z " fill="#759BE5" transform="translate(7,65)"/>
<path d="M0 0 C5.41297425 0.68374412 12.02499266 2.02499266 16 6 C15.61099199 11.64061616 14.61190114 15.97711319 12 21 C9 23 9 23 6.5 22.75 C4 22 4 22 1 20 C1.928125 19.484375 2.85625 18.96875 3.8125 18.4375 C7.59173021 15.96268495 8.54881819 13.192303 10 9 C4.5155733 8.25669086 4.5155733 8.25669086 -1 8 C-1 7.34 -1 6.68 -1 6 C0.65 5.67 2.3 5.34 4 5 C0.37114676 4.84850702 0.37114676 4.84850702 -3 6 C-1.125 1.125 -1.125 1.125 0 0 Z " fill="#9071ED" transform="translate(51,24)"/>
<path d="M0 0 C0.33 0 0.66 0 1 0 C2.20582466 8.09857913 1.73148221 13.53703559 -2 21 C-5.96 21 -9.92 21 -14 21 C-14 20.34 -14 19.68 -14 19 C-16.31 18.34 -18.62 17.68 -21 17 C-21 15.35 -21 13.7 -21 12 C-20.26394531 12.30035156 -19.52789062 12.60070312 -18.76953125 12.91015625 C-17.79371094 13.29042969 -16.81789063 13.67070313 -15.8125 14.0625 C-14.84957031 14.44535156 -13.88664062 14.82820313 -12.89453125 15.22265625 C-9.68879557 16.08357582 -8.06704731 16.28363558 -5 15 C-3.5543698 12.61900748 -3.5543698 12.61900748 -2.75 9.6875 C-2.43546875 8.72199219 -2.1209375 7.75648437 -1.796875 6.76171875 C-1.1487864 4.515647 -0.54015213 2.27404049 0 0 Z " fill="#E4E2FB" transform="translate(58,55)"/>
<path d="M0 0 C1.670625 0.061875 1.670625 0.061875 3.375 0.125 C3.705 1.115 4.035 2.105 4.375 3.125 C2.5 5.6875 2.5 5.6875 0.375 8.125 C0.045 8.785 -0.285 9.445 -0.625 10.125 C-1.615 10.455 -2.605 10.785 -3.625 11.125 C-5.33355022 14.12507271 -5.33355022 14.12507271 -6.625 17.125 C-7.615 16.795 -8.605 16.465 -9.625 16.125 C-8.95280248 9.53746429 -7.9634656 0.27460226 0 0 Z " fill="#FDFCFD" transform="translate(63.625,-0.125)"/>
<path d="M0 0 C5.28 0 10.56 0 16 0 C15 5 15 5 13.875 6.75 C10.88111599 8.74592267 8.57186665 9 5 9 C2.0625 6.8125 2.0625 6.8125 0 4 C0 2.68 0 1.36 0 0 Z " fill="#ABB9E7" transform="translate(32,0)"/>
<path d="M0 0 C1.33333333 2 2.66666667 4 4 6 C4 5.67 4 5.34 4 5 C7.3 5 10.6 5 14 5 C14.66 6.32 15.32 7.64 16 9 C15.01 10.485 15.01 10.485 14 12 C8.38514034 12.98260044 2.89928207 10.63468586 -2 8 C-2.66 7.01 -3.32 6.02 -4 5 C-3 2 -3 2 0 0 Z " fill="#F8FAFD" transform="translate(14,50)"/>
<path d="M0 0 C2.625 0.375 2.625 0.375 5 1 C7.42857143 7.28571429 7.42857143 7.28571429 6 11 C4.68 11.33 3.36 11.66 2 12 C1.67 11.01 1.34 10.02 1 9 C-0.3921875 9.7425 -0.3921875 9.7425 -1.8125 10.5 C-5 12 -5 12 -8 12 C-7.67 10.68 -7.34 9.36 -7 8 C-6.01 8 -5.02 8 -4 8 C-3.71125 7.05125 -3.4225 6.1025 -3.125 5.125 C-2 2 -2 2 0 0 Z " fill="#D98BF0" transform="translate(30,19)"/>
<path d="M0 0 C0.81210937 0.29003906 1.62421875 0.58007812 2.4609375 0.87890625 C3.27820312 1.16636719 4.09546875 1.45382813 4.9375 1.75 C5.56398438 1.97816406 6.19046875 2.20632812 6.8359375 2.44140625 C6.8359375 4.75140625 6.8359375 7.06140625 6.8359375 9.44140625 C5.5159375 9.44140625 4.1959375 9.44140625 2.8359375 9.44140625 C2.5059375 8.45140625 2.1759375 7.46140625 1.8359375 6.44140625 C0.8459375 6.44140625 -0.1440625 6.44140625 -1.1640625 6.44140625 C-1.1640625 7.43140625 -1.1640625 8.42140625 -1.1640625 9.44140625 C-0.1740625 10.10140625 0.8159375 10.76140625 1.8359375 11.44140625 C-1.1340625 10.94640625 -1.1340625 10.94640625 -4.1640625 10.44140625 C-4.1640625 8.79140625 -4.1640625 7.14140625 -4.1640625 5.44140625 C-4.4940625 6.76140625 -4.8240625 8.08140625 -5.1640625 9.44140625 C-5.8240625 9.44140625 -6.4840625 9.44140625 -7.1640625 9.44140625 C-6.8340625 7.13140625 -6.5040625 4.82140625 -6.1640625 2.44140625 C-5.5040625 2.44140625 -4.8440625 2.44140625 -4.1640625 2.44140625 C-4.1640625 1.78140625 -4.1640625 1.12140625 -4.1640625 0.44140625 C-2.1640625 -0.55859375 -2.1640625 -0.55859375 0 0 Z " fill="#D291F9" transform="translate(47.1640625,52.55859375)"/>
<path d="M0 0 C3.37431362 1.23892709 6.69199751 2.59442582 10 4 C10 5.65 10 7.3 10 9 C9.01 9.33 8.02 9.66 7 10 C7 11.32 7 12.64 7 14 C6.01 13.67 5.02 13.34 4 13 C4.66 12.67 5.32 12.34 6 12 C5.67 9.69 5.34 7.38 5 5 C3.7090864 4.66376204 2.41723903 4.33110751 1.125 4 C0.04605469 3.7215625 0.04605469 3.7215625 -1.0546875 3.4375 C-2.99289317 2.92686035 -2.99289317 2.92686035 -5 3 C-5 3.66 -5 4.32 -5 5 C-5.66 5 -6.32 5 -7 5 C-7.33 6.32 -7.66 7.64 -8 9 C-8 8.01 -8 7.02 -8 6 C-8.66 5.67 -9.32 5.34 -10 5 C-7.80153119 -1.12430597 -6.30467488 -1.46358524 0 0 Z " fill="#C97FEB" transform="translate(48,50)"/>
<path d="M0 0 C0.66 0 1.32 0 2 0 C2.27906926 5.4883621 2.25491791 8.3888663 -1 13 C-1 13.66 -1 14.32 -1 15 C-1.556875 14.814375 -2.11375 14.62875 -2.6875 14.4375 C-5.39820835 13.92466328 -7.32383562 14.43659697 -10 15 C-12 14 -12 14 -13 11 C-13.99 10.67 -14.98 10.34 -16 10 C-16 9.01 -16 8.02 -16 7 C-14.80375 7.33 -13.6075 7.66 -12.375 8 C-8.84208503 8.89265823 -5.65920891 9.18296045 -2 9 C-1.34 6.03 -0.68 3.06 0 0 Z " fill="#E0E6EA" transform="translate(30,52)"/>
<path d="M0 0 C0 3.20395416 -0.74335022 5.09399739 -2 8 C-1.01 8.66 -0.02 9.32 1 10 C2.57657955 12.36486932 3.09744693 13.41531841 2.625 16.25 C2.41875 16.8275 2.2125 17.405 2 18 C-4.75 15.375 -4.75 15.375 -7 12 C-7.59555934 7.59286088 -6.12739908 4.81159001 -4 1 C-3.01 1 -2.02 1 -1 1 C-0.67 0.67 -0.34 0.34 0 0 Z " fill="#EAFBFB" transform="translate(77,37)"/>
<path d="M0 0 C0.33 0 0.66 0 1 0 C1 2.64 1 5.28 1 8 C0.34 8 -0.32 8 -1 8 C-0.34 9.32 0.32 10.64 1 12 C-0.62339805 13.70884005 -2.29319053 15.37446717 -4 17 C-4.66 17 -5.32 17 -6 17 C-6 16.34 -6 15.68 -6 15 C-9.3 14.67 -12.6 14.34 -16 14 C-16 12.68 -16 11.36 -16 10 C-12.37 10.33 -8.74 10.66 -5 11 C-4.360625 9.55625 -3.72125 8.1125 -3.0625 6.625 C-2.07503996 4.39525153 -1.09058 2.18116 0 0 Z " fill="#D0E9FB" transform="translate(16,16)"/>
<path d="M0 0 C-3.23880597 8.42089552 -3.23880597 8.42089552 -7 11 C-10.25 10.75 -10.25 10.75 -13 10 C-12.34 8.35 -11.68 6.7 -11 5 C-10.01 5 -9.02 5 -8 5 C-7.566875 3.7934375 -7.566875 3.7934375 -7.125 2.5625 C-5.35420017 -1.4709885 -3.85559812 -1.15667944 0 0 Z " fill="#EDD3EE" transform="translate(71,5)"/>
<path d="M0 0 C5.89502551 -0.77566125 11.34121262 1.44668759 16 5 C16.79296875 7.67578125 16.79296875 7.67578125 17 10 C15.0625 9.1875 15.0625 9.1875 13 8 C12.67 7.01 12.34 6.02 12 5 C8.06924356 5.57452746 8.06924356 5.57452746 5 8 C5 7.01 5 6.02 5 5 C3.35 5.66 1.7 6.32 0 7 C0 4.69 0 2.38 0 0 Z " fill="#4680E0" transform="translate(0,6)"/>
<path d="M0 0 C0.33 0.61875 0.66 1.2375 1 1.875 C3.86920334 4.92352855 6.91207198 5.51485679 11 6 C13.86557953 5.73198143 13.86557953 5.73198143 16 5 C15.67 6.65 15.34 8.3 15 10 C10.6825386 11.27632983 8.31821 10.71119208 4.25 8.875 C3.28578125 8.45992187 2.3215625 8.04484375 1.328125 7.6171875 C-1 6 -1 6 -1.828125 3.3203125 C-1.88484375 2.55460937 -1.9415625 1.78890625 -2 1 C-1.34 0.67 -0.68 0.34 0 0 Z " fill="#9456ED" transform="translate(38,61)"/>
<path d="M0 0 C3.85924326 1.28641442 4.97778274 2.47984402 7 6 C6.73628668 8.90622845 5.9479872 11.20343775 5 14 C4.5978125 13.1028125 4.5978125 13.1028125 4.1875 12.1875 C3.01506533 10.02775192 1.80630718 8.64209744 0 7 C0 7.66 0 8.32 0 9 C-1.875 8.6875 -1.875 8.6875 -4 8 C-4.66 7.01 -5.32 6.02 -6 5 C-1.60546875 0.99609375 -1.60546875 0.99609375 0 0 Z " fill="#5CE1FA" transform="translate(9,10)"/>
<path d="M0 0 C0.33 0.99 0.66 1.98 1 3 C2.32 3 3.64 3 5 3 C5.33 2.01 5.66 1.02 6 0 C7.65 0 9.3 0 11 0 C10.01 0.66 9.02 1.32 8 2 C8 2.99 8 3.98 8 5 C8.99 5.66 9.98 6.32 11 7 C10.67 7.66 10.34 8.32 10 9 C5.71 9 1.42 9 -3 9 C-2.01 7.35 -1.02 5.7 0 4 C0 2.68 0 1.36 0 0 Z " fill="#E8EEF8" transform="translate(7,71)"/>
<path d="M0 0 C1.32 0 2.64 0 4 0 C4 0.99 4 1.98 4 3 C4.66 3.33 5.32 3.66 6 4 C5.67 4.99 5.34 5.98 5 7 C5.99 7.33 6.98 7.66 8 8 C4.77626323 10.14915785 3.73296326 10.38286803 0 10 C-0.66 9.34 -1.32 8.68 -2 8 C-1.42307692 1.42307692 -1.42307692 1.42307692 0 0 Z " fill="#2C5DE9" transform="translate(69,65)"/>
<path d="M0 0 C4.83915573 0.68987964 9.54468406 1.98792183 14 4 C14 4.33 14 4.66 14 5 C12.02 5 10.04 5 8 5 C8 5.66 8 6.32 8 7 C8.99 7.33 9.98 7.66 11 8 C7.04 8 3.08 8 -1 8 C-1 7.34 -1 6.68 -1 6 C0.65 5.67 2.3 5.34 4 5 C0.37114676 4.84850702 0.37114676 4.84850702 -3 6 C-1.125 1.125 -1.125 1.125 0 0 Z " fill="#9279E6" transform="translate(51,24)"/>
<path d="M0 0 C0.33 0 0.66 0 1 0 C1 2.64 1 5.28 1 8 C-5.13053511 8.32712342 -9.62669111 8.39366878 -15 5 C-15 4.67 -15 4.34 -15 4 C-10.71 4 -6.42 4 -2 4 C-1.34 2.68 -0.68 1.36 0 0 Z " fill="#FAFAFC" transform="translate(79,72)"/>
<path d="M0 0 C1.64696604 0.4752588 3.29254728 0.95531891 4.9375 1.4375 C6.31228516 1.83775391 6.31228516 1.83775391 7.71484375 2.24609375 C10 3 10 3 11 4 C11.04080783 5.99958364 11.04254356 8.00045254 11 10 C10.01 10.33 9.02 10.66 8 11 C8.33 9.68 8.66 8.36 9 7 C8.34 7 7.68 7 7 7 C7 7.99 7 8.98 7 10 C6.34 10 5.68 10 5 10 C5 8.68 5 7.36 5 6 C4.34 6 3.68 6 3 6 C3 5.01 3 4.02 3 3 C1.68 2.67 0.36 2.34 -1 2 C-0.67 1.34 -0.34 0.68 0 0 Z " fill="#F8FCFD" transform="translate(69,58)"/>
<path d="M0 0 C0.66 0.33 1.32 0.66 2 1 C1.67 2.11375 1.34 3.2275 1 4.375 C-0.088643 7.69459717 -0.088643 7.69459717 0 10 C-0.66 10 -1.32 10 -2 10 C-2.33 9.01 -2.66 8.02 -3 7 C-3.99 7.495 -3.99 7.495 -5 8 C-5 7.34 -5 6.68 -5 6 C-5.56589844 5.89042969 -6.13179687 5.78085938 -6.71484375 5.66796875 C-7.44832031 5.50941406 -8.18179687 5.35085937 -8.9375 5.1875 C-9.66839844 5.03667969 -10.39929688 4.88585937 -11.15234375 4.73046875 C-11.76207031 4.48941406 -12.37179687 4.24835937 -13 4 C-13.33 3.01 -13.66 2.02 -14 1 C-13.15695312 1.09539063 -12.31390625 1.19078125 -11.4453125 1.2890625 C-10.34960938 1.39992187 -9.25390625 1.51078125 -8.125 1.625 C-7.03445312 1.74101562 -5.94390625 1.85703125 -4.8203125 1.9765625 C-3.42425781 1.98816406 -3.42425781 1.98816406 -2 2 C-1.34 1.34 -0.68 0.68 0 0 Z " fill="#DEE4EC" transform="translate(22,0)"/>
<path d="M0 0 C5.05531868 0.77774134 10.01716284 1.85948394 15 3 C15 3.99 15 4.98 15 6 C13.35 5.67 11.7 5.34 10 5 C9.34 6.65 8.68 8.3 8 10 C6.68 9.34 5.36 8.68 4 8 C4.33 6.68 4.66 5.36 5 4 C2.525 3.01 2.525 3.01 0 2 C0 1.34 0 0.68 0 0 Z " fill="#E1E4EE" transform="translate(56,18)"/>
<path d="M0 0 C1.38524415 4.42288666 0.5272254 7.7183145 -1 12 C-2.25 14 -2.25 14 -4 15 C-7.0625 15.3125 -7.0625 15.3125 -10 15 C-10.66 14.34 -11.32 13.68 -12 13 C-13.96488831 12.11221308 -13.96488831 12.11221308 -16.125 11.375 C-16.84945312 11.11460938 -17.57390625 10.85421875 -18.3203125 10.5859375 C-18.87460937 10.39257812 -19.42890625 10.19921875 -20 10 C-19.67 9.34 -19.34 8.68 -19 8 C-18.33613281 8.30035156 -17.67226563 8.60070312 -16.98828125 8.91015625 C-16.10527344 9.29042969 -15.22226562 9.67070313 -14.3125 10.0625 C-13.44238281 10.44535156 -12.57226562 10.82820313 -11.67578125 11.22265625 C-8.55507739 12.12925489 -7.00589631 12.25922683 -4 11 C-2.5223281 8.48113268 -2.5223281 8.48113268 -1.6875 5.4375 C-1.36136719 4.42558594 -1.03523438 3.41367187 -0.69921875 2.37109375 C-0.46847656 1.58863281 -0.23773438 0.80617187 0 0 Z " fill="#D7C3FC" transform="translate(57,59)"/>
<path d="M0 0 C0.33 0.99 0.66 1.98 1 3 C1.99 3.33 2.98 3.66 4 4 C4 4.99 4 5.98 4 7 C4.66 7 5.32 7 6 7 C5.67 8.32 5.34 9.64 5 11 C5 10.01 5 9.02 5 8 C3.03243548 8.03122943 3.03243548 8.03122943 1 9 C-0.3045656 11.99615946 -0.3045656 11.99615946 -1 15 C-1.66 14.67 -2.32 14.34 -3 14 C-3.08153933 12.41753293 -3.13943557 10.83383727 -3.1875 9.25 C-3.22230469 8.36828125 -3.25710937 7.4865625 -3.29296875 6.578125 C-2.94923684 3.55328417 -1.99772541 2.24416398 0 0 Z " fill="#D0EFFC" transform="translate(68,57)"/>
<path d="M0 0 C0.66 0.33 1.32 0.66 2 1 C1.34 2.98 0.68 4.96 0 7 C0.99 7 1.98 7 3 7 C2.67 5.68 2.34 4.36 2 3 C3.32 2.67 4.64 2.34 6 2 C6.103125 2.639375 6.20625 3.27875 6.3125 3.9375 C6.539375 4.618125 6.76625 5.29875 7 6 C7.99 6.33 8.98 6.66 10 7 C10 7.66 10 8.32 10 9 C6.37 9 2.74 9 -1 9 C-1.09765625 2.84765625 -1.09765625 2.84765625 -1 1 C-0.67 0.67 -0.34 0.34 0 0 Z " fill="#C293EF" transform="translate(43,56)"/>
<path d="M0 0 C1.65 0.33 3.3 0.66 5 1 C3.88541926 6.9782058 2.81397943 9.94612259 -2 14 C-2.66 13.34 -3.32 12.68 -4 12 C-3.525625 11.505 -3.05125 11.01 -2.5625 10.5 C-0.37832093 7.00531349 -0.34086089 4.09033064 0 0 Z " fill="#EBEEF5" transform="translate(32,52)"/>
<path d="M0 0 C-0.33 1.65 -0.66 3.3 -1 5 C1.475 6.98 1.475 6.98 4 9 C3.67 9.66 3.34 10.32 3 11 C1.02 11 -0.96 11 -3 11 C-4.81502739 7.26317891 -5.33059914 4.99179743 -4 1 C-2 0 -2 0 0 0 Z " fill="#56C1F7" transform="translate(5,11)"/>
<path d="M0 0 C0.99 0.33 1.98 0.66 3 1 C3 2.98 3 4.96 3 7 C-3.625 11 -3.625 11 -7 11 C-6.67 9.68 -6.34 8.36 -6 7 C-5.01 7 -4.02 7 -3 7 C-2.690625 6.030625 -2.38125 5.06125 -2.0625 4.0625 C-1 1 -1 1 0 0 Z " fill="#996FED" transform="translate(29,20)"/>
<path d="M0 0 C0.66 0 1.32 0 2 0 C1.67 1.32 1.34 2.64 1 4 C1.99 3.67 2.98 3.34 4 3 C3.45276317 6.37462715 2.9451 8.08235 1 11 C-1.3828125 11.29296875 -1.3828125 11.29296875 -4.125 11.1875 C-5.03507812 11.16042969 -5.94515625 11.13335937 -6.8828125 11.10546875 C-7.58148438 11.07066406 -8.28015625 11.03585938 -9 11 C-9.33 9.68 -9.66 8.36 -10 7 C-8.515 7.99 -8.515 7.99 -7 9 C-3.36060068 8.68269476 -3.36060068 8.68269476 0 8 C-0.66 7.67 -1.32 7.34 -2 7 C-1.42415568 4.61435923 -0.77772405 2.33317216 0 0 Z " fill="#EADBF8" transform="translate(76,65)"/>
<path d="M0 0 C3.14624993 -0.26218749 4.61837017 -0.24754367 7.3125 1.5 C8.1478125 2.2425 8.1478125 2.2425 9 3 C8.34 4.32 7.68 5.64 7 7 C6.67 6.34 6.34 5.68 6 5 C5.67 5.33 5.34 5.66 5 6 C3.33382885 6.04063832 1.66611905 6.042721 0 6 C-1.125 2.25 -1.125 2.25 0 0 Z " fill="#9181E1" transform="translate(19,48)"/>
<path d="M0 0 C1.98 0 3.96 0 6 0 C5.09507813 0.53560547 5.09507813 0.53560547 4.171875 1.08203125 C1.29246698 3.62481783 0.53250389 6.08936409 -0.75 9.6875 C-1.17796875 10.86699219 -1.6059375 12.04648438 -2.046875 13.26171875 C-2.36140625 14.16535156 -2.6759375 15.06898437 -3 16 C-3.33 16 -3.66 16 -4 16 C-4.08121924 14.39667209 -4.13929134 12.79215974 -4.1875 11.1875 C-4.22230469 10.29417969 -4.25710937 9.40085937 -4.29296875 8.48046875 C-3.9428334 5.51598947 -3.18190656 4.91809922 -1 3 C-0.67 2.01 -0.34 1.02 0 0 Z " fill="#E1F2FD" transform="translate(4,64)"/>
<path d="M0 0 C0.66 0 1.32 0 2 0 C2 0.66 2 1.32 2 2 C3.32 2.66 4.64 3.32 6 4 C6 4.66 6 5.32 6 6 C7.65 6.33 9.3 6.66 11 7 C11 7.66 11 8.32 11 9 C10.33613281 8.79503906 9.67226563 8.59007812 8.98828125 8.37890625 C8.10527344 8.10949219 7.22226562 7.84007812 6.3125 7.5625 C5.44238281 7.29566406 4.57226562 7.02882813 3.67578125 6.75390625 C1.12974079 6.03655471 -1.4003423 5.482459 -4 5 C-4 4.34 -4 3.68 -4 3 C-2.35 3 -0.7 3 1 3 C0.67 2.01 0.34 1.02 0 0 Z " fill="#F3E5FC" transform="translate(45,44)"/>
<path d="M0 0 C0.33 0.66 0.66 1.32 1 2 C2.65 1.67 4.3 1.34 6 1 C6 2.32 6 3.64 6 5 C-4.55808656 5.18451025 -4.55808656 5.18451025 -9 4 C-6.10130984 1.70103884 -3.84906588 0 0 0 Z " fill="#EAD2FD" transform="translate(31,28)"/>
<path d="M0 0 C2.97 0.33 5.94 0.66 9 1 C8.34 2.98 7.68 4.96 7 7 C3.62294375 6.46274105 0.303314 5.88935377 -3 5 C-2.67 4.34 -2.34 3.68 -2 3 C-1.01 3.33 -0.02 3.66 1 4 C0.67 2.68 0.34 1.36 0 0 Z " fill="#CCC1E7" transform="translate(53,31)"/>
<path d="M0 0 C1.65 0 3.3 0 5 0 C4.44894091 3.9492568 3.61064629 7.34920174 2 11 C1.34 11 0.68 11 0 11 C0 7.37 0 3.74 0 0 Z " fill="#40A2EB" transform="translate(0,37)"/>
<path d="M0 0 C-1.50239966 3.61941735 -2.82145293 6.7321794 -5 10 C-7.97 9.505 -7.97 9.505 -11 9 C-10.360625 8.87625 -9.72125 8.7525 -9.0625 8.625 C-8.381875 8.41875 -7.70125 8.2125 -7 8 C-6.67 7.34 -6.34 6.68 -6 6 C-5.34 5.34 -4.68 4.68 -4 4 C-4.99 3.67 -5.98 3.34 -7 3 C-6.67 2.01 -6.34 1.02 -6 0 C-3.50907189 -1.24546405 -2.58919267 -0.7767578 0 0 Z " fill="#CEB8E6" transform="translate(71,5)"/>
<path d="M0 0 C3.37991574 0.3557806 6.04288438 1.35715799 9 3 C7.35 3 5.7 3 4 3 C3.67 4.32 3.34 5.64 3 7 C1.68 6.67 0.36 6.34 -1 6 C-1.625 4.125 -1.625 4.125 -2 2 C-1.34 1.34 -0.68 0.68 0 0 Z " fill="#9AA4E0" transform="translate(9,68)"/>
<path d="M0 0 C2.9375 0.375 2.9375 0.375 6 1 C6.33 1.66 6.66 2.32 7 3 C7.99 3.33 8.98 3.66 10 4 C10 4.66 10 5.32 10 6 C10.66 6 11.32 6 12 6 C11.67 6.66 11.34 7.32 11 8 C8.00309792 7.86060921 5.77158295 7.69781403 3.48828125 5.6328125 C0 1.45487106 0 1.45487106 0 0 Z " fill="#E1E4F1" transform="translate(46,43)"/>
<path d="M0 0 C0.33 0 0.66 0 1 0 C1 2.64 1 5.28 1 8 C0.34 8 -0.32 8 -1 8 C-0.34 9.32 0.32 10.64 1 12 C-0.65 13.65 -2.3 15.3 -4 17 C-4.66 16.67 -5.32 16.34 -6 16 C-5.34 15.01 -4.68 14.02 -4 13 C-3.34 13 -2.68 13 -2 13 C-2.02320313 12.39671875 -2.04640625 11.7934375 -2.0703125 11.171875 C-2.08835937 10.37265625 -2.10640625 9.5734375 -2.125 8.75 C-2.14820313 7.96109375 -2.17140625 7.1721875 -2.1953125 6.359375 C-1.9828378 3.79268059 -1.28654105 2.2083933 0 0 Z " fill="#DEEEF8" transform="translate(16,16)"/>
<path d="M0 0 C0.33 0 0.66 0 1 0 C0.98839844 0.62648437 0.97679688 1.25296875 0.96484375 1.8984375 C0.95582031 2.71570312 0.94679688 3.53296875 0.9375 4.375 C0.92589844 5.18710937 0.91429688 5.99921875 0.90234375 6.8359375 C0.85533666 9.04937142 0.85533666 9.04937142 2 11 C1.67 11.99 1.34 12.98 1 14 C0.34 14 -0.32 14 -1 14 C-3.20651618 10.69022573 -3.44592388 9.83494538 -3 6 C-1.5 2.6875 -1.5 2.6875 0 0 Z " fill="#F9FCFC" transform="translate(73,38)"/>
<path d="M0 0 C5.41538462 -0.36923077 5.41538462 -0.36923077 8.375 1.5 C8.91125 1.995 9.4475 2.49 10 3 C7.36 3.33 4.72 3.66 2 4 C1.67 4.99 1.34 5.98 1 7 C0.67 7 0.34 7 0 7 C0 4.69 0 2.38 0 0 Z " fill="#5B5BDB" transform="translate(0,6)"/>
<path d="M0 0 C1.32 0.99 2.64 1.98 4 3 C-0.29 3 -4.58 3 -9 3 C-9 2.34 -9 1.68 -9 1 C-5.64846558 -1.11022538 -3.75933548 -1.22178403 0 0 Z " fill="#E4EBF0" transform="translate(66,77)"/>
<path d="M0 0 C0.99 0.66 1.98 1.32 3 2 C2.625 3.9375 2.625 3.9375 2 6 C1.01 6.495 1.01 6.495 0 7 C-2.125 6.0625 -2.125 6.0625 -4 5 C-3.6875 3.0625 -3.6875 3.0625 -3 1 C-2.01 0.67 -1.02 0.34 0 0 Z " fill="#8C9FD7" transform="translate(18,71)"/>
<path d="M0 0 C2.625 0.375 2.625 0.375 5 1 C5.33 2.65 5.66 4.3 6 6 C5.34 5.01 4.68 4.02 4 3 C3.01 3 2.02 3 1 3 C1 3.99 1 4.98 1 6 C1.99 6.66 2.98 7.32 4 8 C1.03 7.505 1.03 7.505 -2 7 C-2.125 4.625 -2.125 4.625 -2 2 C-1.34 1.34 -0.68 0.68 0 0 Z " fill="#EFDFFE" transform="translate(45,56)"/>
<path d="M0 0 C0.99 0 1.98 0 3 0 C2.51421457 3.12290635 2.0013988 5.99580359 1 9 C-0.65 9 -2.3 9 -4 9 C-4 8.34 -4 7.68 -4 7 C-3.01 6.34 -2.02 5.68 -1 5 C-0.27034634 2.43717258 -0.27034634 2.43717258 0 0 Z " fill="#67C0EE" transform="translate(21,71)"/>
<path d="M0 0 C-1.98 0.99 -1.98 0.99 -4 2 C-3.67 2.99 -3.34 3.98 -3 5 C-3.99 5.33 -4.98 5.66 -6 6 C-6.99 5.01 -7.98 4.02 -9 3 C-6.38997624 -0.48003168 -4.1689578 -0.27793052 0 0 Z " fill="#F9F9FC" transform="translate(22,40)"/>
<path d="M0 0 C0.99 0.66 1.98 1.32 3 2 C2.34 2 1.68 2 1 2 C1 3.32 1 4.64 1 6 C-0.98 6.33 -2.96 6.66 -5 7 C-5.33 6.34 -5.66 5.68 -6 5 C-4.02 3.35 -2.04 1.7 0 0 Z " fill="#48CEFA" transform="translate(9,10)"/>
<path d="M0 0 C3 1 3 1 4 3 C4.039992 4.99960012 4.04346799 7.00047242 4 9 C3.01 9.495 3.01 9.495 2 10 C0.39644899 6.49223216 -0.22036864 3.85645121 0 0 Z " fill="#4ED7F5" transform="translate(9,17)"/>
<path d="M0 0 C1.52519276 0.08937803 3.04681929 0.24537146 4.5625 0.4375 C5.80193359 0.59025391 5.80193359 0.59025391 7.06640625 0.74609375 C7.70449219 0.82988281 8.34257813 0.91367188 9 1 C6.3203125 3.953125 6.3203125 3.953125 3.4375 4.375 C2.2309375 4.189375 2.2309375 4.189375 1 4 C0.34 3.01 -0.32 2.02 -1 1 C-0.67 0.67 -0.34 0.34 0 0 Z " fill="#8B41E8" transform="translate(68,71)"/>
<path d="M0 0 C0.33 0 0.66 0 1 0 C1 3.96 1 7.92 1 12 C0.34 11.67 -0.32 11.34 -1 11 C-1 10.01 -1 9.02 -1 8 C-1.66 7.67 -2.32 7.34 -3 7 C-2.25 2.25 -2.25 2.25 0 0 Z " fill="#A9B6EE" transform="translate(79,39)"/>
<path d="M0 0 C0.99 0.33 1.98 0.66 3 1 C2.67 1.66 2.34 2.32 2 3 C3.32 2.67 4.64 2.34 6 2 C6.33 3.32 6.66 4.64 7 6 C4.625 6.125 4.625 6.125 2 6 C1.34 5.34 0.68 4.68 0 4 C0 2.68 0 1.36 0 0 Z " fill="#F1EBFE" transform="translate(34,0)"/>
<path d="M0 0 C1.27875 0.28875 2.5575 0.5775 3.875 0.875 C4.95394531 1.11863281 4.95394531 1.11863281 6.0546875 1.3671875 C8 2 8 2 10 4 C6.06329512 5.31223496 3.87511856 4.24296256 0 3 C0 2.01 0 1.02 0 0 Z " fill="#E0E4E7" transform="translate(14,59)"/>
<path d="M0 0 C0.66 0 1.32 0 2 0 C2 1.98 2 3.96 2 6 C2.66 6 3.32 6 4 6 C3.67 7.32 3.34 8.64 3 10 C2.54625 9.360625 2.0925 8.72125 1.625 8.0625 C0.16078274 5.90297594 0.16078274 5.90297594 -2 5 C-1.34 3.35 -0.68 1.7 0 0 Z " fill="#A567EE" transform="translate(38,56)"/>
<path d="M0 0 C2.97851562 0.43945312 2.97851562 0.43945312 5.95703125 0.87890625 C8.2025342 1.13904799 8.2025342 1.13904799 11 0 C11 0.66 11 1.32 11 2 C10.34 2 9.68 2 9 2 C8.67 3.32 8.34 4.64 8 6 C7.34 6 6.68 6 6 6 C6 5.34 6 4.68 6 4 C5.34 4 4.68 4 4 4 C4 3.34 4 2.68 4 2 C2.68 1.67 1.36 1.34 0 1 C0 0.67 0 0.34 0 0 Z " fill="#CECAF7" transform="translate(52,45)"/>
<path d="M0 0 C1.98 0 3.96 0 6 0 C6 2.31 6 4.62 6 7 C4.68 6.01 3.36 5.02 2 4 C2.33 3.34 2.66 2.68 3 2 C2.01 2 1.02 2 0 2 C0 1.34 0 0.68 0 0 Z " fill="#9D6FF9" transform="translate(59,29)"/>
<path d="M0 0 C3.96 0 7.92 0 12 0 C11.01 1.485 11.01 1.485 10 3 C2.25 2.25 2.25 2.25 0 0 Z " fill="#F5FBFE" transform="translate(10,0)"/>
<path d="M0 0 C1.98 0.495 1.98 0.495 4 1 C4.33 2.32 4.66 3.64 5 5 C4.01 5.495 4.01 5.495 3 6 C0.875 5.0625 0.875 5.0625 -1 4 C-0.67 2.68 -0.34 1.36 0 0 Z " fill="#A09CED" transform="translate(46,58)"/>
<path d="M0 0 C1.98 0.495 1.98 0.495 4 1 C4 2.65 4 4.3 4 6 C3.34 6 2.68 6 2 6 C2 7.32 2 8.64 2 10 C1.01 9.67 0.02 9.34 -1 9 C-0.34 8.67 0.32 8.34 1 8 C0.67 5.36 0.34 2.72 0 0 Z " fill="#C66EFA" transform="translate(53,54)"/>
<path d="M0 0 C-1.27514492 2.55028983 -2.40341297 2.93081711 -5 4 C-5.99 4 -6.98 4 -8 4 C-7.6875 2.0625 -7.6875 2.0625 -7 0 C-3.86650268 -1.04449911 -3.01031744 -0.93423645 0 0 Z " fill="#6085E7" transform="translate(30,27)"/>
<path d="M0 0 C2.31 0 4.62 0 7 0 C7.56054936 1.24164697 8.09777907 2.49383884 8.625 3.75 C8.92664062 4.44609375 9.22828125 5.1421875 9.5390625 5.859375 C10 8 10 8 8 12 C7.34 9.03 6.68 6.06 6 3 C5.195625 2.87625 4.39125 2.7525 3.5625 2.625 C2.716875 2.41875 1.87125 2.2125 1 2 C0.67 1.34 0.34 0.68 0 0 Z " fill="#FCECFF" transform="translate(29,18)"/>
<path d="M0 0 C0.66 0 1.32 0 2 0 C1.51639563 4.25571848 0.79074727 6.74412819 -2 10 C-2.33 10.66 -2.66 11.32 -3 12 C-3.6875 10.25 -3.6875 10.25 -4 8 C-2.625 6 -2.625 6 -1 4 C-0.29485154 1.85266073 -0.29485154 1.85266073 0 0 Z " fill="#E0E5ED" transform="translate(48,6)"/>
<path d="M0 0 C1.4800841 0.11362262 2.95910074 0.24122908 4.4375 0.375 C5.26121094 0.44460937 6.08492187 0.51421875 6.93359375 0.5859375 C7.95646484 0.79089844 7.95646484 0.79089844 9 1 C9.33 1.66 9.66 2.32 10 3 C9.34 3 8.68 3 8 3 C7.67 3.66 7.34 4.32 7 5 C6.34 4.34 5.68 3.68 5 3 C3.35008418 2.29289322 1.68437744 1.62056011 0 1 C0 0.67 0 0.34 0 0 Z " fill="#75A6EB" transform="translate(13,68)"/>
<path d="M0 0 C0.350625 0.61875 0.70125 1.2375 1.0625 1.875 C3.68887702 4.75554253 6.26627537 5.15462838 10 6 C9.67 6.66 9.34 7.32 9 8 C2.25 6.25 2.25 6.25 0 4 C0 2.68 0 1.36 0 0 Z " fill="#8E59E4" transform="translate(36,62)"/>
<path d="M0 0 C2.6875 0.6875 2.6875 0.6875 5 2 C5.33 2.66 5.66 3.32 6 4 C2.7 3.67 -0.6 3.34 -4 3 C-2.68 2.01 -1.36 1.02 0 0 Z " fill="#C5CDFA" transform="translate(26,29)"/>
<path d="M0 0 C0.99 0 1.98 0 3 0 C3 0.66 3 1.32 3 2 C3.66 2.33 4.32 2.66 5 3 C5.33 3.66 5.66 4.32 6 5 C4.02 5 2.04 5 0 5 C0 3.35 0 1.7 0 0 Z " fill="#F1FCFB" transform="translate(0,32)"/>
<path d="M0 0 C0.33 0 0.66 0 1 0 C1 1.65 1 3.3 1 5 C-2.63 5 -6.26 5 -10 5 C-10.33 4.34 -10.66 3.68 -11 3 C-10.06027344 3.05220703 -10.06027344 3.05220703 -9.1015625 3.10546875 C-8.28429687 3.13253906 -7.46703125 3.15960937 -6.625 3.1875 C-5.40683594 3.23970703 -5.40683594 3.23970703 -4.1640625 3.29296875 C-3.44992188 3.19628906 -2.73578125 3.09960938 -2 3 C-1.34 2.01 -0.68 1.02 0 0 Z " fill="#B4E8FD" transform="translate(13,24)"/>
<path d="M0 0 C0.99 0.33 1.98 0.66 3 1 C2.67 1.66 2.34 2.32 2 3 C1.01 3.33 0.02 3.66 -1 4 C-2.20882096 6.00016466 -2.20882096 6.00016466 -3 8 C-3.33 6.35 -3.66 4.7 -4 3 C-3.34 3 -2.68 3 -2 3 C-2 2.34 -2 1.68 -2 1 C-1.34 0.67 -0.68 0.34 0 0 Z " fill="#D7E6FE" transform="translate(24,24)"/>
<path d="M0 0 C1.32 0 2.64 0 4 0 C4 1.32 4 2.64 4 4 C2.35 4 0.7 4 -1 4 C-0.67 2.68 -0.34 1.36 0 0 Z " fill="#7C5FE8" transform="translate(20,50)"/>
<path d="M0 0 C-0.33 1.65 -0.66 3.3 -1 5 C-1.99 5.33 -2.98 5.66 -4 6 C-4 4.35 -4 2.7 -4 1 C-2 0 -2 0 0 0 Z " fill="#F2FBFE" transform="translate(4,47)"/>
<path d="M0 0 C1.04973814 4.19895255 0.72795155 6.79405774 0 11 C-0.99 10.67 -1.98 10.34 -3 10 C-2.01 6.7 -1.02 3.4 0 0 Z " fill="#D1F1FD" transform="translate(5,37)"/>
<path d="M0 0 C0 0.66 0 1.32 0 2 C0.99 2.33 1.98 2.66 3 3 C-0.96 3 -4.92 3 -9 3 C-9 2.34 -9 1.68 -9 1 C-2.25 0 -2.25 0 0 0 Z " fill="#9683D6" transform="translate(59,29)"/>
<path d="M0 0 C0.99 0.33 1.98 0.66 3 1 C2.67 2.32 2.34 3.64 2 5 C0.68 5.33 -0.64 5.66 -2 6 C-2.33 5.01 -2.66 4.02 -3 3 C-1.68 3.33 -0.36 3.66 1 4 C0.67 2.68 0.34 1.36 0 0 Z " fill="#9650C8" transform="translate(34,25)"/>
<path d="M0 0 C2.31 0 4.62 0 7 0 C6.67 0.99 6.34 1.98 6 3 C4.02 3 2.04 3 0 3 C0 2.01 0 1.02 0 0 Z " fill="#57A0DC" transform="translate(2,19)"/>
<path d="M0 0 C0.66 0 1.32 0 2 0 C1.67 1.65 1.34 3.3 1 5 C-0.65 5.33 -2.3 5.66 -4 6 C-4 5.34 -4 4.68 -4 4 C-2.68 3.67 -1.36 3.34 0 3 C0 2.01 0 1.02 0 0 Z " fill="#F8FAFD" transform="translate(46,6)"/>
<path d="M0 0 C0.66 0 1.32 0 2 0 C2 2.64 2 5.28 2 8 C0.4375 6.8125 0.4375 6.8125 -1 5 C-0.6875 2.3125 -0.6875 2.3125 0 0 Z " fill="#E2BBCA" transform="translate(30,52)"/>
<path d="M0 0 C1.65 0 3.3 0 5 0 C4.67 0.66 4.34 1.32 4 2 C3.34 2 2.68 2 2 2 C2 2.66 2 3.32 2 4 C1.34 4 0.68 4 0 4 C-0.33 5.32 -0.66 6.64 -1 8 C-0.67 5.36 -0.34 2.72 0 0 Z " fill="#C56BFA" transform="translate(41,51)"/>
<path d="M0 0 C2.475 0.495 2.475 0.495 5 1 C4.67 1.99 4.34 2.98 4 4 C2.68 4 1.36 4 0 4 C0 2.68 0 1.36 0 0 Z " fill="#E6CAEA" transform="translate(72,27)"/>
<path d="M0 0 C0.33 0 0.66 0 1 0 C1 2.64 1 5.28 1 8 C0.01 8 -0.98 8 -2 8 C-1.125 2.25 -1.125 2.25 0 0 Z " fill="#BBF0F8" transform="translate(16,16)"/>
<path d="M0 0 C1.65 0 3.3 0 5 0 C5 1.65 5 3.3 5 5 C4.34 4.67 3.68 4.34 3 4 C3 3.34 3 2.68 3 2 C1.68 2.33 0.36 2.66 -1 3 C-0.67 2.01 -0.34 1.02 0 0 Z " fill="#9195E3" transform="translate(37,0)"/>
<path d="M0 0 C2.64 0.66 5.28 1.32 8 2 C7.67 2.66 7.34 3.32 7 4 C4.69 3.67 2.38 3.34 0 3 C0 2.01 0 1.02 0 0 Z " fill="#DDDEF6" transform="translate(37,69)"/>
<path d="M0 0 C3 3.625 3 3.625 3 7 C1.68 6.67 0.36 6.34 -1 6 C-0.67 4.02 -0.34 2.04 0 0 Z " fill="#43CAFB" transform="translate(8,20)"/>
</svg>
