<?xml version="1.0" encoding="UTF-8"?>
<svg version="1.1" xmlns="http://www.w3.org/2000/svg" width="80" height="80">
<path d="M0 0 C26.4 0 52.8 0 80 0 C80 26.4 80 52.8 80 80 C53.6 80 27.2 80 0 80 C0 53.6 0 27.2 0 0 Z " fill="#A6A8AC" transform="translate(0,0)"/>
<path d="M0 0 C17.16 0 34.32 0 52 0 C52 11.25 52 11.25 51 15.125 C50.7215625 16.24261719 50.7215625 16.24261719 50.4375 17.3828125 C50.293125 17.91648437 50.14875 18.45015625 50 19 C52.3260857 19.38063221 54.66055264 19.71269945 57 20 C57.495 19.505 57.495 19.505 58 19 C56.35 17.35 54.7 15.7 53 14 C55.97 13.34 58.94 12.68 62 12 C62.05407567 14.58361518 62.093707 17.16609255 62.125 19.75 C62.14175781 20.47960937 62.15851562 21.20921875 62.17578125 21.9609375 C62.21208861 25.95474739 61.85735833 28.51745313 60 32 C59.75889241 35.05014928 59.75889241 35.05014928 59.875 38.25 C59.89304688 39.32765625 59.91109375 40.4053125 59.9296875 41.515625 C59.95289063 42.33546875 59.97609375 43.1553125 60 44 C58.68 43.67 57.36 43.34 56 43 C56 40.69 56 38.38 56 36 C54.06257659 35.97296619 52.12504521 35.95358875 50.1875 35.9375 C49.10855469 35.92589844 48.02960937 35.91429687 46.91796875 35.90234375 C43.93487831 35.86375234 43.93487831 35.86375234 41 37 C38.07336916 37.09755436 35.17600502 37.13911256 32.25 37.125 C31.07050781 37.13080078 31.07050781 37.13080078 29.8671875 37.13671875 C25.14085953 37.12886771 20.66113097 36.78516377 16 36 C15.67 37.32 15.34 38.64 15 40 C19.29 40 23.58 40 28 40 C31.125 49.625 31.125 49.625 30 53 C28.68 52.34 27.36 51.68 26 51 C25.67 51.99 25.34 52.98 25 54 C24 55 24 55 21 56 C25.62 55.67 30.24 55.34 35 55 C31.44525908 57.66605569 30.29786012 58.41364439 26.25 59.1875 C25.05117188 59.42533203 25.05117188 59.42533203 23.828125 59.66796875 C23.22484375 59.77753906 22.6215625 59.88710938 22 60 C22 60.66 22 61.32 22 62 C17.71 62 13.42 62 9 62 C9 61.01 9 60.02 9 59 C10.32 58.34 11.64 57.68 13 57 C12.7834375 56.39671875 12.566875 55.7934375 12.34375 55.171875 C12.0653125 54.37265625 11.786875 53.5734375 11.5 52.75 C11.2215625 51.96109375 10.943125 51.1721875 10.65625 50.359375 C10 48 10 48 10 44 C8.02 44 6.04 44 4 44 C4 42.68 4 41.36 4 40 C5.98 39.505 5.98 39.505 8 39 C6.02 38.67 4.04 38.34 2 38 C2 37.67 2 37.34 2 37 C6.95 36.505 6.95 36.505 12 36 C12 33.69 12 31.38 12 29 C11.01 29.33 10.02 29.66 9 30 C6.3071504 30.17812624 3.70558632 30.08727698 1 30 C0 29 0 29 -0.11352539 26.22436523 C-0.10828857 25.01466064 -0.10305176 23.80495605 -0.09765625 22.55859375 C-0.09515869 21.38353271 -0.09266113 20.20847168 -0.09008789 18.99780273 C-0.08098389 17.49290283 -0.07187988 15.98800293 -0.0625 14.4375 C-0.041875 9.673125 -0.02125 4.90875 0 0 Z " fill="#A8A9A6" transform="translate(0,0)"/>
<path d="M0 0 C3.96 0 7.92 0 12 0 C12 2.31 12 4.62 12 7 C12.66 7.33 13.32 7.66 14 8 C10.99382731 11.00617269 8.17618402 10.59585316 4 11 C4 12.32 4 13.64 4 15 C5.98 15 7.96 15 10 15 C10.50310058 16.7907985 11.00238628 18.58266911 11.5 20.375 C11.7784375 21.37273438 12.056875 22.37046875 12.34375 23.3984375 C13 26 13 26 13 28 C13.99 28.33 14.98 28.66 16 29 C13.69 29.33 11.38 29.66 9 30 C9 30.99 9 31.98 9 33 C10.79240663 32.88610125 12.58394835 32.75852313 14.375 32.625 C15.37273438 32.55539063 16.37046875 32.48578125 17.3984375 32.4140625 C20.15508879 32.23636036 20.15508879 32.23636036 22 30 C25.62341561 28.81395705 29.30365422 27.94557683 33 27 C28.05 27.33 23.1 27.66 18 28 C21 26 21 26 23 25 C23.33 24.34 23.66 23.68 24 23 C24.33 23.33 24.66 23.66 25 24 C25.33 23.34 25.66 22.68 26 22 C27.32 22.33 28.64 22.66 30 23 C29.67 21.7625 29.34 20.525 29 19.25 C28.20108841 16.25408155 28 14.19892281 28 11 C23.71 11 19.42 11 15 11 C15.33 9.68 15.66 8.36 16 7 C21.28 7.33 26.56 7.66 32 8 C32.33 7.01 32.66 6.02 33 5 C33.66 5 34.32 5 35 5 C35 5.99 35 6.98 35 8 C36.98 8 38.96 8 41 8 C41.33 6.68 41.66 5.36 42 4 C42.66 4 43.32 4 44 4 C44 4.99 44 5.98 44 7 C44.66 7 45.32 7 46 7 C46.33 5.68 46.66 4.36 47 3 C47 4.32 47 5.64 47 7 C48.32 7 49.64 7 51 7 C51.33 5.68 51.66 4.36 52 3 C52 4.32 52 5.64 52 7 C53.32 7 54.64 7 56 7 C56 9.31 56 11.62 56 14 C57.32 14.33 58.64 14.66 60 15 C60.66 21.27 61.32 27.54 62 34 C58 34 58 34 55.25 33 C52.1114869 32.03430366 49.59127392 31.86450368 46.3203125 32.02734375 C44 32 44 32 40.5234375 31.2890625 C34.55261757 30.4978075 29.13174596 32.6489491 23.5 34.4375 C22.39140625 34.77587891 21.2828125 35.11425781 20.140625 35.46289062 C17.42246467 36.29474142 14.70957362 37.14067262 12 38 C14.89514194 39.29322032 17.79123484 40.58429741 20.6875 41.875 C21.50412109 42.23980469 22.32074219 42.60460937 23.16210938 42.98046875 C25.43831723 43.99416456 27.71810522 44.99918302 30 46 C31.40765625 46.61875 31.40765625 46.61875 32.84375 47.25 C35.91523327 48.31834201 38.77975958 48.12628394 42 48 C42.33 45.03 42.66 42.06 43 39 C45.475 38.505 45.475 38.505 48 38 C48 38.99 48 39.98 48 41 C52.29 41 56.58 41 61 41 C60.67 41.99 60.34 42.98 60 44 C59.34 44 58.68 44 58 44 C57.67 45.65 57.34 47.3 57 49 C51.15597276 51.54739649 45.5068935 51.25504256 39.2578125 51.1953125 C38.26128662 51.19329834 37.26476074 51.19128418 36.23803711 51.18920898 C32.53364424 51.17878519 28.82931725 51.1508627 25.125 51.125 C12.688125 51.063125 12.688125 51.063125 0 51 C0 34.17 0 17.34 0 0 Z " fill="#2E2F2F" transform="translate(0,29)"/>
<path d="M0 0 C-1.32 0.33 -2.64 0.66 -4 1 C-4 1.66 -4 2.32 -4 3 C-2.046875 2.47916667 -0.09375 1.95833333 1.859375 1.4375 C4 1 4 1 8 1 C8 0.34 8 -0.32 8 -1 C9.32 -0.67 10.64 -0.34 12 0 C6.91260065 3.39159956 2.13018154 5 -4 5 C-3.34 11.93 -2.68 18.86 -2 26 C-1.34 26 -0.68 26 0 26 C0.12375 24.700625 0.2475 23.40125 0.375 22.0625 C0.5859375 19.84765625 0.5859375 19.84765625 1 18 C3.95664519 16.5216774 6.74229737 16.93967217 10 17 C11.9078584 20.1749094 12.1609041 22.10585211 11.625 25.75 C11.45871094 26.94882812 11.45871094 26.94882812 11.2890625 28.171875 C11.19367187 28.77515625 11.09828125 29.3784375 11 30 C12.05767578 29.75443359 12.05767578 29.75443359 13.13671875 29.50390625 C16.09658688 28.98300176 18.81061273 28.90133268 21.8125 28.9375 C22.78832031 28.94652344 23.76414063 28.95554687 24.76953125 28.96484375 C25.87361328 28.98224609 25.87361328 28.98224609 27 29 C27 30.32 27 31.64 27 33 C22.36072164 34.17379332 17.87521024 34.14840005 13.125 34.125 C12.34769531 34.12886719 11.57039063 34.13273437 10.76953125 34.13671875 C6.07641994 34.12883117 1.62873105 33.77762682 -3 33 C-3.33 34.32 -3.66 35.64 -4 37 C0.29 37 4.58 37 9 37 C12.125 46.625 12.125 46.625 11 50 C9.68 49.34 8.36 48.68 7 48 C6.67 48.99 6.34 49.98 6 51 C5 52 5 52 2 53 C6.62 52.67 11.24 52.34 16 52 C12.44525908 54.66605569 11.29786012 55.41364439 7.25 56.1875 C6.05117188 56.42533203 6.05117188 56.42533203 4.828125 56.66796875 C4.22484375 56.77753906 3.6215625 56.88710938 3 57 C3 57.66 3 58.32 3 59 C-1.29 59 -5.58 59 -10 59 C-10 58.01 -10 57.02 -10 56 C-8.68 55.34 -7.36 54.68 -6 54 C-6.2165625 53.39671875 -6.433125 52.7934375 -6.65625 52.171875 C-6.9346875 51.37265625 -7.213125 50.5734375 -7.5 49.75 C-7.7784375 48.96109375 -8.056875 48.1721875 -8.34375 47.359375 C-9 45 -9 45 -9 41 C-10.98 41 -12.96 41 -15 41 C-15 39.68 -15 38.36 -15 37 C-13.02 36.505 -13.02 36.505 -11 36 C-12.98 35.67 -14.96 35.34 -17 35 C-17 34.67 -17 34.34 -17 34 C-12.05 33.505 -12.05 33.505 -7 33 C-7 30.69 -7 28.38 -7 26 C-9.31 26.33 -11.62 26.66 -14 27 C-12 25 -12 25 -9.4375 24.0625 C-8.633125 23.711875 -7.82875 23.36125 -7 23 C-6.03911617 20.11734851 -5.88329059 18.32337729 -5.90234375 15.33203125 C-5.90556641 14.43935547 -5.90878906 13.54667969 -5.91210938 12.62695312 C-5.92048828 11.69818359 -5.92886719 10.76941406 -5.9375 9.8125 C-5.94201172 8.87212891 -5.94652344 7.93175781 -5.95117188 6.96289062 C-5.96295374 4.64186288 -5.97940442 2.32096356 -6 0 C-3 -1 -3 -1 0 0 Z " fill="#999B9B" transform="translate(19,3)"/>
<path d="M0 0 C9.24 0 18.48 0 28 0 C28.103125 2.866875 28.20625 5.73375 28.3125 8.6875 C28.38078003 10.02880981 28.38078003 10.02880981 28.45043945 11.3972168 C28.52376893 15.61579048 28.43050354 17.4426112 25.7734375 20.8828125 C23.33311314 22.74570799 20.87335022 24.49620843 18.3125 26.1875 C14.69886128 28.91567758 13.37715045 30.72006202 12.5625 35.1875 C12.48128906 36.00605469 12.40007812 36.82460938 12.31640625 37.66796875 C11.97966909 40.14984632 11.22912525 41.83534622 10 44 C9.34 44 8.68 44 8 44 C6.77514188 41.55028376 6.83277192 39.85765539 6.8125 37.125 C6.79832031 36.26132812 6.78414062 35.39765625 6.76953125 34.5078125 C7 32 7 32 7.97265625 30.1953125 C9.5373331 26.85178249 9.47103924 23.38090789 9.625 19.75 C9.68300781 18.63238281 9.68300781 18.63238281 9.7421875 17.4921875 C9.83605108 15.6618476 9.91909718 13.83095857 10 12 C9.34 12 8.68 12 8 12 C7.67 12.66 7.34 13.32 7 14 C4.4375 14.625 4.4375 14.625 2 15 C4.475 16.98 4.475 16.98 7 19 C6.34 19.66 5.68 20.32 5 21 C2.38419521 20.6730244 0.35921863 20.17960932 -2 19 C-1.34 12.73 -0.68 6.46 0 0 Z " fill="#71573C" transform="translate(52,0)"/>
<path d="M0 0 C1.32 0 2.64 0 4 0 C4 14.52 4 29.04 4 44 C-2.93 44 -9.86 44 -17 44 C-17.495 42.515 -17.495 42.515 -18 41 C-16.1875 38.3125 -16.1875 38.3125 -14 36 C-13.34 36 -12.68 36 -12 36 C-12.33 33.69 -12.66 31.38 -13 29 C-10.04335481 27.5216774 -7.25770263 27.93967217 -4 28 C-4.33 27.01 -4.66 26.02 -5 25 C-4.67 24.67 -4.34 24.34 -4 24 C-5.32 23.67 -6.64 23.34 -8 23 C-7.33472871 17.34519404 -5.25650355 13.6022271 -2.375 8.78125 C-0.90821121 5.81433631 -0.38488659 3.27153601 0 0 Z " fill="#767778" transform="translate(76,36)"/>
<path d="M0 0 C0.96679688 0.45890625 1.93359375 0.9178125 2.9296875 1.390625 C16.84119966 8.81794531 16.84119966 8.81794531 32 11 C32.33 8.03 32.66 5.06 33 2 C34.65 1.67 36.3 1.34 38 1 C38 1.99 38 2.98 38 4 C42.29 4 46.58 4 51 4 C50.67 4.99 50.34 5.98 50 7 C49.34 7 48.68 7 48 7 C47.67 8.65 47.34 10.3 47 12 C41.15601738 14.54737704 35.50638282 14.25478291 29.2578125 14.1953125 C27.57254959 14.19106766 27.57254959 14.19106766 25.85324097 14.18673706 C22.27705073 14.17557303 18.7011141 14.15047501 15.125 14.125 C12.69531613 14.11496533 10.26562831 14.10584033 7.8359375 14.09765625 C1.8905278 14.075646 -4.05469315 14.0411418 -10 14 C-10 10.37 -10 6.74 -10 3 C-7.36 3.66 -4.72 4.32 -2 5 C-1.34 3.35 -0.68 1.7 0 0 Z " fill="#2D261F" transform="translate(10,66)"/>
<path d="M0 0 C0.66 0 1.32 0 2 0 C2.24991456 6.65050424 1.73955334 12.56986533 0 19 C2.3260857 19.38063221 4.66055264 19.71269945 7 20 C7.33 19.67 7.66 19.34 8 19 C6.35 17.35 4.7 15.7 3 14 C5.97 13.34 8.94 12.68 12 12 C12.05407567 14.58361518 12.093707 17.16609255 12.125 19.75 C12.14175781 20.47960937 12.15851562 21.20921875 12.17578125 21.9609375 C12.21208861 25.95474739 11.85735833 28.51745313 10 32 C9.75889241 35.05014928 9.75889241 35.05014928 9.875 38.25 C9.90207031 39.86648437 9.90207031 39.86648437 9.9296875 41.515625 C9.95289062 42.33546875 9.97609375 43.1553125 10 44 C8.68 43.67 7.36 43.34 6 43 C6 40.69 6 38.38 6 36 C3.03 36 0.06 36 -3 36 C-3.16179775 24.88988764 -3.16179775 24.88988764 -2.375 20.5625 C-1.9208628 17.45922916 -2.61537436 15.76925129 -4 13 C-5.32 13 -6.64 13 -8 13 C-8 12.34 -8 11.68 -8 11 C-9.32 10.67 -10.64 10.34 -12 10 C-12 7.69 -12 5.38 -12 3 C-7.53763531 1.19380477 -4.68965706 0.88341499 0 2 C0 1.34 0 0.68 0 0 Z " fill="#9B9894" transform="translate(50,0)"/>
<path d="M0 0 C0.33 1.32 0.66 2.64 1 4 C2.32 4 3.64 4 5 4 C5.33 2.68 5.66 1.36 6 0 C6 1.32 6 2.64 6 4 C7.32 4 8.64 4 10 4 C10 6.31 10 8.62 10 11 C10.66 11.33 11.32 11.66 12 12 C11.0409375 12.2784375 11.0409375 12.2784375 10.0625 12.5625 C7.59722815 13.92071493 7.59722815 13.92071493 7.375 17.4375 C7.189375 19.2009375 7.189375 19.2009375 7 21 C6.34 21.99 5.68 22.98 5 24 C6.65 24.33 8.3 24.66 10 25 C10 25.66 10 26.32 10 27 C3.73 26.67 -2.54 26.34 -9 26 C-9.495 23.525 -9.495 23.525 -10 21 C-5.38 21 -0.76 21 4 21 C4.33 19.02 4.66 17.04 5 15 C3.68 14.67 2.36 14.34 1 14 C1 14.66 1 15.32 1 16 C-2.3 15.34 -5.6 14.68 -9 14 C-9 14.66 -9 15.32 -9 16 C-9.99 16 -10.98 16 -12 16 C-12.99 13.36 -13.98 10.72 -15 8 C-20.28 8 -25.56 8 -31 8 C-30.67 6.68 -30.34 5.36 -30 4 C-24.72 4.33 -19.44 4.66 -14 5 C-13.67 4.01 -13.34 3.02 -13 2 C-12.34 2 -11.68 2 -11 2 C-11 2.99 -11 3.98 -11 5 C-9.02 5 -7.04 5 -5 5 C-4.67 3.68 -4.34 2.36 -4 1 C-3.34 1 -2.68 1 -2 1 C-2 1.99 -2 2.98 -2 4 C-1.34 4 -0.68 4 0 4 C0 2.68 0 1.36 0 0 Z " fill="#58372C" transform="translate(46,32)"/>
<path d="M0 0 C6.27 0 12.54 0 19 0 C18.01 0.33 17.02 0.66 16 1 C16 1.66 16 2.32 16 3 C15.01 3 14.02 3 13 3 C13.165 4.258125 13.33 5.51625 13.5 6.8125 C14.95861062 20.39044887 14.95861062 20.39044887 12.875 26.0625 C10.39887665 28.6211608 8.477249 29.3045502 5 30 C3.35 29.67 1.7 29.34 0 29 C0 19.43 0 9.86 0 0 Z " fill="#B0B5B5" transform="translate(0,0)"/>
<path d="M0 0 C-3.06786205 0.94341999 -5.3926624 0.99694475 -8.5625 0.5625 C-11.10435893 0.22387124 -13.42614244 0 -16 0 C-16 0.66 -16 1.32 -16 2 C-17.5 3.625 -17.5 3.625 -19 5 C-18.01 5 -17.02 5 -16 5 C-16 5.66 -16 6.32 -16 7 C-11.38 5.35 -6.76 3.7 -2 2 C-2.33 3.32 -2.66 4.64 -3 6 C-3.66 6 -4.32 6 -5 6 C-4.98839844 6.63808594 -4.97679687 7.27617188 -4.96484375 7.93359375 C-4.95582031 8.75988281 -4.94679687 9.58617188 -4.9375 10.4375 C-4.92589844 11.26121094 -4.91429687 12.08492187 -4.90234375 12.93359375 C-5 15 -5 15 -6 16 C-12.69720041 16.76927302 -17.71039117 14.38898939 -23.75 11.6875 C-25.16732422 11.08131836 -25.16732422 11.08131836 -26.61328125 10.46289062 C-34.19955086 7.14457212 -34.19955086 7.14457212 -37 4 C-33.00720054 2.78732206 -29.00490917 1.60950519 -25 0.4375 C-23.87464844 0.09525391 -22.74929687 -0.24699219 -21.58984375 -0.59960938 C-13.98475964 -2.80108109 -7.16838286 -4.48023929 0 0 Z " fill="#C2C6CC" transform="translate(48,62)"/>
<path d="M0 0 C9.24 0 18.48 0 28 0 C28 2.31 28 4.62 28 7 C27.67 6.34 27.34 5.68 27 5 C26.38125 5.495 25.7625 5.99 25.125 6.5 C23 8 23 8 21 8 C20.67 9.32 20.34 10.64 20 12 C19.34 11.01 18.68 10.02 18 9 C15.94074861 8.27617533 15.94074861 8.27617533 14 8 C14 9.32 14 10.64 14 12 C13.01 12.33 12.02 12.66 11 13 C11 11.68 11 10.36 11 9 C9.02 9.33 7.04 9.66 5 10 C4.87625 10.639375 4.7525 11.27875 4.625 11.9375 C4.41875 12.618125 4.2125 13.29875 4 14 C3.01 14.495 3.01 14.495 2 15 C4.475 16.98 4.475 16.98 7 19 C6.34 19.66 5.68 20.32 5 21 C2.38419521 20.6730244 0.35921863 20.17960932 -2 19 C-1.34 12.73 -0.68 6.46 0 0 Z " fill="#4D3521" transform="translate(52,0)"/>
<path d="M0 0 C3.96 0 7.92 0 12 0 C12 2.31 12 4.62 12 7 C12.66 7.33 13.32 7.66 14 8 C10.99382731 11.00617269 8.17618402 10.59585316 4 11 C4 12.32 4 13.64 4 15 C5.98 15 7.96 15 10 15 C10.99 18.96 11.98 22.92 13 27 C11.35 27.33 9.7 27.66 8 28 C7.01 25.36 6.02 22.72 5 20 C5.33 22.31 5.66 24.62 6 27 C4.02 27 2.04 27 0 27 C0 18.09 0 9.18 0 0 Z " fill="#312F2F" transform="translate(0,29)"/>
<path d="M0 0 C3.96388638 -0.07622858 7.1273408 0.0318352 11 1 C11 5.62 11 10.24 11 15 C4.07 15 -2.86 15 -10 15 C-10.33 14.01 -10.66 13.02 -11 12 C-9.5 9.3125 -9.5 9.3125 -7 7 C-3.25 6.6875 -3.25 6.6875 0 7 C0 4.69 0 2.38 0 0 Z " fill="#513117" transform="translate(69,65)"/>
<path d="M0 0 C2.64 1.32 5.28 2.64 8 4 C7.67 4.66 7.34 5.32 7 6 C7.52643767 8.1379323 7.52643767 8.1379323 9 10 C11.40404738 10.91599427 11.40404738 10.91599427 14.125 11.25 C15.49011719 11.47429687 15.49011719 11.47429687 16.8828125 11.703125 C17.58148437 11.80109375 18.28015625 11.8990625 19 12 C19 12.66 19 13.32 19 14 C9.43 14 -0.14 14 -10 14 C-10 10.37 -10 6.74 -10 3 C-7.36 3.66 -4.72 4.32 -2 5 C-1.34 3.35 -0.68 1.7 0 0 Z " fill="#473621" transform="translate(10,66)"/>
<path d="M0 0 C1.9780436 3.95608721 1.56564099 8.69864214 1 13 C-1.4340312 16.22344672 -3.66204565 17.7746971 -7 20 C-8.32 20 -9.64 20 -11 20 C-11 20.66 -11 21.32 -11 22 C-11.66 22 -12.32 22 -13 22 C-12.34 16.06 -11.68 10.12 -11 4 C-8 3 -8 3 -6 3 C-5.34 2.505 -4.68 2.01 -4 1.5 C-2 0 -2 0 0 0 Z " fill="#5F472C" transform="translate(79,5)"/>
<path d="M0 0 C3.51716303 3.51716303 3.54676163 5.19567333 4 10 C4.763125 9.79375 5.52625 9.5875 6.3125 9.375 C9 9 9 9 12 11 C9.69 11.33 7.38 11.66 5 12 C5 12.99 5 13.98 5 15 C9.455 14.505 9.455 14.505 14 14 C11.47211993 16.79872437 9.79588866 18.45773019 6 19 C5.67 20.65 5.34 22.3 5 24 C2 25 2 25 -1.1875 23.5625 C-2.115625 23.046875 -3.04375 22.53125 -4 22 C-4 17.71 -4 13.42 -4 9 C-2.02 9 -0.04 9 2 9 C1.34 6.03 0.68 3.06 0 0 Z " fill="#201A15" transform="translate(4,47)"/>
<path d="M0 0 C0.66 0 1.32 0 2 0 C2.24991456 6.65050424 1.73955334 12.56986533 0 19 C-2.2477975 16.94766315 -3.0022242 15.99332739 -4 13 C-5.32 13 -6.64 13 -8 13 C-8 12.34 -8 11.68 -8 11 C-9.32 10.67 -10.64 10.34 -12 10 C-12 7.69 -12 5.38 -12 3 C-7.53763531 1.19380477 -4.68965706 0.88341499 0 2 C0 1.34 0 0.68 0 0 Z " fill="#918581" transform="translate(50,0)"/>
<path d="M0 0 C0.66 0 1.32 0 2 0 C3.4606285 2.64738916 4 3.89448334 4 7 C3.34 7 2.68 7 2 7 C1.67 7.99 1.34 8.98 1 10 C0 11 0 11 -3 12 C1.62 11.67 6.24 11.34 11 11 C7.44525908 13.66605569 6.29786012 14.41364439 2.25 15.1875 C1.45078125 15.34605469 0.6515625 15.50460938 -0.171875 15.66796875 C-0.77515625 15.77753906 -1.3784375 15.88710938 -2 16 C-2 16.66 -2 17.32 -2 18 C-6.29 18 -10.58 18 -15 18 C-15 17.01 -15 16.02 -15 15 C-12.66785852 13.79371992 -10.50357861 12.8345262 -8 12 C-8.33 10.68 -8.66 9.36 -9 8 C-8.34 8 -7.68 8 -7 8 C-7.33 7.401875 -7.66 6.80375 -8 6.1875 C-9 4 -9 4 -9 1 C-8.34 1 -7.68 1 -7 1 C-7 2.32 -7 3.64 -7 5 C-5.68 4.67 -4.36 4.34 -3 4 C-2.67 4.99 -2.34 5.98 -2 7 C-1.01 7 -0.02 7 1 7 C0.67 4.69 0.34 2.38 0 0 Z " fill="#63675E" transform="translate(24,44)"/>
<path d="M0 0 C9.24 0 18.48 0 28 0 C28 0.66 28 1.32 28 2 C22.54465272 3.73579232 17.14642393 4.64962844 11.4765625 5.4375 C10.65929688 5.623125 9.84203125 5.80875 9 6 C8.67 6.66 8.34 7.32 8 8 C5.09740189 9.3749149 3.23861295 10 0 10 C0 6.7 0 3.4 0 0 Z " fill="#6E1F0E" transform="translate(52,0)"/>
<path d="M0 0 C0.33 0.66 0.66 1.32 1 2 C0.67 2.66 0.34 3.32 0 4 C-0.66 4 -1.32 4 -2 4 C-1.98839844 4.63808594 -1.97679688 5.27617188 -1.96484375 5.93359375 C-1.95582031 6.75988281 -1.94679688 7.58617188 -1.9375 8.4375 C-1.92589844 9.26121094 -1.91429688 10.08492187 -1.90234375 10.93359375 C-2 13 -2 13 -3 14 C-8.90667041 14.60272147 -13.14086046 13.2473274 -18 10 C-18.33 9.34 -18.66 8.68 -19 8 C-12.73 5.36 -6.46 2.72 0 0 Z " fill="#DADFE3" transform="translate(45,64)"/>
<path d="M0 0 C0.66 6.27 1.32 12.54 2 19 C-1.79557881 19 -3.62902617 18.49821059 -7 17 C-6.01 16.67 -5.02 16.34 -4 16 C-4 15.01 -4 14.02 -4 13 C-5.65 12.67 -7.3 12.34 -9 12 C-8.74476126 10.37247769 -8.47025506 8.74796804 -8.1875 7.125 C-8.03667969 6.22007813 -7.88585938 5.31515625 -7.73046875 4.3828125 C-6.40927926 0.07305 -4.22709174 0 0 0 Z " fill="#31352F" transform="translate(60,44)"/>
<path d="M0 0 C0.66 0 1.32 0 2 0 C2 3.96 2 7.92 2 12 C0.68 12 -0.64 12 -2 12 C-1.938125 12.86625 -1.87625 13.7325 -1.8125 14.625 C-2.02455502 18.44199033 -3.12044307 20.71077536 -5 24 C-5.66 22.68 -6.32 21.36 -7 20 C-7.19335938 20.69867188 -7.38671875 21.39734375 -7.5859375 22.1171875 C-7.84632812 23.02726562 -8.10671875 23.93734375 -8.375 24.875 C-8.63023438 25.77992187 -8.88546875 26.68484375 -9.1484375 27.6171875 C-10 30 -10 30 -12 32 C-12.70405924 25.13542244 -9.71802894 19.5770434 -6 14 C-6.66 14 -7.32 14 -8 14 C-6.62675159 8.38216561 -6.62675159 8.38216561 -3.4375 6.4375 C-2.2309375 5.7259375 -2.2309375 5.7259375 -1 5 C-0.11341534 2.40877257 -0.11341534 2.40877257 0 0 Z " fill="#7E7F81" transform="translate(78,24)"/>
<path d="M0 0 C4.9607924 0.42140234 4.9607924 0.42140234 9.93359375 0.5546875 C12.62341754 0.56427689 13.94434699 0.98340644 16.125 2.5625 C17.375 5.1875 17.375 5.1875 18.125 7.5625 C16.145 7.8925 14.165 8.2225 12.125 8.5625 C12.125 7.9025 12.125 7.2425 12.125 6.5625 C12.785 6.5625 13.445 6.5625 14.125 6.5625 C14.125 5.9025 14.125 5.2425 14.125 4.5625 C12.145 4.8925 10.165 5.2225 8.125 5.5625 C7.795 4.9025 7.465 4.2425 7.125 3.5625 C3.26384041 3.95649588 -0.09638578 4.52997609 -3.625 6.125 C-6.875 7.5625 -6.875 7.5625 -9.875 7.5625 C-9.875 6.9025 -9.875 6.2425 -9.875 5.5625 C-10.865 5.5625 -11.855 5.5625 -12.875 5.5625 C-12.545 4.5725 -12.215 3.5825 -11.875 2.5625 C-11.215 2.5625 -10.555 2.5625 -9.875 2.5625 C-9.875 1.9025 -9.875 1.2425 -9.875 0.5625 C-6.27668184 -0.63693939 -3.77225226 -0.32299412 0 0 Z " fill="#848C9B" transform="translate(41.875,61.4375)"/>
<path d="M0 0 C2.9375 1.5625 2.9375 1.5625 5 3 C4.67 4.32 4.34 5.64 4 7 C4.99 7 5.98 7 7 7 C7 11 7 11 4.5 13.5625 C3.675 14.366875 2.85 15.17125 2 16 C2 16.99 2 17.98 2 19 C-0.64 19 -3.28 19 -6 19 C-5.67 18.34 -5.34 17.68 -5 17 C-3.35 17 -1.7 17 0 17 C0.103125 16.236875 0.20625 15.47375 0.3125 14.6875 C1.04364039 11.82940576 1.76951913 10.84257115 4 9 C2.1746875 9.2784375 2.1746875 9.2784375 0.3125 9.5625 C-3.02977939 9.98993182 -5.71968417 9.92258883 -9 9 C-9 8.01 -9 7.02 -9 6 C-9.99 5.67 -10.98 5.34 -12 5 C-10.02 4.34 -8.04 3.68 -6 3 C-6.33 3.99 -6.66 4.98 -7 6 C-5.02 5.67 -3.04 5.34 -1 5 C-1 5.66 -1 6.32 -1 7 C-1.66 7 -2.32 7 -3 7 C-3 7.66 -3 8.32 -3 9 C-1.35 8.34 0.3 7.68 2 7 C1.67 6.01 1.34 5.02 1 4 C0.2575 3.855625 -0.485 3.71125 -1.25 3.5625 C-2.1575 3.376875 -3.065 3.19125 -4 3 C-4.721875 2.855625 -5.44375 2.71125 -6.1875 2.5625 C-8 2 -8 2 -10 0 C-6.20961574 -1.26346142 -3.89502364 -0.80586696 0 0 Z " fill="#B39C8F" transform="translate(57,61)"/>
<path d="M0 0 C1.32 0 2.64 0 4 0 C4 8.25 4 16.5 4 25 C2.35 24.67 0.7 24.34 -1 24 C-1.02712325 21.12493579 -1.04689851 18.25013092 -1.0625 15.375 C-1.07087891 14.56675781 -1.07925781 13.75851563 -1.08789062 12.92578125 C-1.1058955 8.49658082 -0.89622662 4.36116576 0 0 Z " fill="#666668" transform="translate(76,36)"/>
<path d="M0 0 C0 0.99 0 1.98 0 3 C4.29 3 8.58 3 13 3 C12.67 3.99 12.34 4.98 12 6 C11.34 6 10.68 6 10 6 C9.67 7.65 9.34 9.3 9 11 C6.03 11.66 3.06 12.32 0 13 C0 10.37886292 0.31292445 8.49064888 1 6 C-0.32 5.67 -1.64 5.34 -3 5 C-3 6.65 -3 8.3 -3 10 C-3.66 10 -4.32 10 -5 10 C-5 7.03 -5 4.06 -5 1 C-3 0 -3 0 0 0 Z " fill="#69452F" transform="translate(48,67)"/>
<path d="M0 0 C-1.32 0.33 -2.64 0.66 -4 1 C-4 1.66 -4 2.32 -4 3 C-2.046875 2.47916667 -0.09375 1.95833333 1.859375 1.4375 C4 1 4 1 8 1 C8 0.34 8 -0.32 8 -1 C9.32 -0.67 10.64 -0.34 12 0 C6.91260065 3.39159956 2.13018154 5 -4 5 C-3.67 11.93 -3.34 18.86 -3 26 C-3.66 26 -4.32 26 -5 26 C-4.67 27.65 -4.34 29.3 -4 31 C-4.99 31.495 -4.99 31.495 -6 32 C-6.33 30.02 -6.66 28.04 -7 26 C-9.31 26.33 -11.62 26.66 -14 27 C-12 25 -12 25 -9.4375 24.0625 C-8.633125 23.711875 -7.82875 23.36125 -7 23 C-6.03911617 20.11734851 -5.88329059 18.32337729 -5.90234375 15.33203125 C-5.90556641 14.43935547 -5.90878906 13.54667969 -5.91210938 12.62695312 C-5.92048828 11.69818359 -5.92886719 10.76941406 -5.9375 9.8125 C-5.94201172 8.87212891 -5.94652344 7.93175781 -5.95117188 6.96289062 C-5.96295374 4.64186288 -5.97940442 2.32096356 -6 0 C-3 -1 -3 -1 0 0 Z " fill="#9B9994" transform="translate(19,3)"/>
<path d="M0 0 C2.04219706 1.69179328 2.91793306 2.63727666 3.51171875 5.26171875 C3.67447917 7.5078125 3.83723958 9.75390625 4 12 C-0.62 12 -5.24 12 -10 12 C-10.33 11.01 -10.66 10.02 -11 9 C-9.5 6.3125 -9.5 6.3125 -7 4 C-3.25 3.6875 -3.25 3.6875 0 4 C0 2.68 0 1.36 0 0 Z " fill="#6B4C36" transform="translate(69,68)"/>
<path d="M0 0 C0.66 0.33 1.32 0.66 2 1 C0.46527032 5.72224516 -1.23945126 10.35855331 -3 15 C-1.35 15 0.3 15 2 15 C1.67 16.65 1.34 18.3 1 20 C-1.97 20.33 -4.94 20.66 -8 21 C-8 21.99 -8 22.98 -8 24 C-8.66 24 -9.32 24 -10 24 C-10 20.04 -10 16.08 -10 12 C-9.01 12 -8.02 12 -7 12 C-4.38047752 9.38047752 -2.77909769 6.69509897 -1.375 3.3125 C-0.92125 2.219375 -0.4675 1.12625 0 0 Z " fill="#8F9296" transform="translate(71,44)"/>
<path d="M0 0 C0.66 1.32 1.32 2.64 2 4 C0 6 0 6 -2 6.25 C-2.66 6.4975 -3.32 6.745 -4 7 C-5.3045656 9.99615946 -5.3045656 9.99615946 -6 13 C-8 12 -8 12 -10 7 C-15.28 7 -20.56 7 -26 7 C-25.67 5.68 -25.34 4.36 -25 3 C-19.72 3.33 -14.44 3.66 -9 4 C-8.67 3.01 -8.34 2.02 -8 1 C-7.34 1 -6.68 1 -6 1 C-6 1.99 -6 2.98 -6 4 C-4.02 4 -2.04 4 0 4 C0 2.68 0 1.36 0 0 Z " fill="#4F4342" transform="translate(41,33)"/>
<path d="M0 0 C3.96 0 7.92 0 12 0 C12 2.31 12 4.62 12 7 C12.66 7.33 13.32 7.66 14 8 C9.38 8.33 4.76 8.66 0 9 C0 6.03 0 3.06 0 0 Z " fill="#5E5F4B" transform="translate(0,29)"/>
<path d="M0 0 C3.3 0.66 6.6 1.32 10 2 C10 1.34 10 0.68 10 0 C11.32 0.33 12.64 0.66 14 1 C13.67 2.98 13.34 4.96 13 7 C8.38 7 3.76 7 -1 7 C-1.66 5.35 -2.32 3.7 -3 2 C-2.01 2 -1.02 2 0 2 C0 1.34 0 0.68 0 0 Z " fill="#3C1D16" transform="translate(37,46)"/>
<path d="M0 0 C0.33 0 0.66 0 1 0 C1.05407567 2.58361518 1.093707 5.16609255 1.125 7.75 C1.14175781 8.47960938 1.15851562 9.20921875 1.17578125 9.9609375 C1.21208861 13.95474739 0.85735833 16.51745313 -1 20 C-1.24110759 23.05014928 -1.24110759 23.05014928 -1.125 26.25 C-1.10695312 27.32765625 -1.08890625 28.4053125 -1.0703125 29.515625 C-1.04710937 30.33546875 -1.02390625 31.1553125 -1 32 C-2.32 31.67 -3.64 31.34 -5 31 C-5.0814222 28.77144426 -5.13938079 26.54202345 -5.1875 24.3125 C-5.22230469 23.07113281 -5.25710937 21.82976563 -5.29296875 20.55078125 C-4.9759375 16.70836246 -4.03948179 15.18159159 -2 12 C-1.22187049 8.88995738 -1.22187049 8.88995738 -0.8125 5.6875 C-0.65394531 4.61886719 -0.49539062 3.55023438 -0.33203125 2.44921875 C-0.22246094 1.64097656 -0.11289062 0.83273437 0 0 Z " fill="#B1A497" transform="translate(61,12)"/>
<path d="M0 0 C0.66 0 1.32 0 2 0 C2.53154742 1.60064843 3.04988353 3.20568874 3.5625 4.8125 C3.85253906 5.70582031 4.14257812 6.59914063 4.44140625 7.51953125 C5 10 5 10 4 13 C2.10134397 10.02819057 0.64544429 7.48539917 0 4 C-0.66 4 -1.32 4 -2 4 C-1.67 6.31 -1.34 8.62 -1 11 C-1.99 11 -2.98 11 -4 11 C-4.33 10.34 -4.66 9.68 -5 9 C-6.32 9 -7.64 9 -9 9 C-9 7.68 -9 6.36 -9 5 C-9.66 4.67 -10.32 4.34 -11 4 C-8.59454362 2.79727181 -7.05003047 2.89928528 -4.375 2.9375 C-3.14910156 2.95103516 -3.14910156 2.95103516 -1.8984375 2.96484375 C-0.95871094 2.98224609 -0.95871094 2.98224609 0 3 C0 2.01 0 1.02 0 0 Z " fill="#ABA494" transform="translate(26,40)"/>
<path d="M0 0 C0 3.96 0 7.92 0 12 C-0.66 12 -1.32 12 -2 12 C-2 11.01 -2 10.02 -2 9 C-3.98 9.33 -5.96 9.66 -8 10 C-8 7.03 -8 4.06 -8 1 C-6 0 -6 0 0 0 Z " fill="#848581" transform="translate(28,20)"/>
<path d="M0 0 C0.66 0.33 1.32 0.66 2 1 C2 2.98 2 4.96 2 7 C0.68 7 -0.64 7 -2 7 C-2 8.65 -2 10.3 -2 12 C-2.99 12.33 -3.98 12.66 -5 13 C-5.33 12.67 -5.66 12.34 -6 12 C-6.66 12.66 -7.32 13.32 -8 14 C-7.67 10.04 -7.34 6.08 -7 2 C-4 1 -4 1 -2 1 C-1.34 0.67 -0.68 0.34 0 0 Z " fill="#654C2F" transform="translate(75,7)"/>
<path d="M0 0 C6.27 0 12.54 0 19 0 C18.01 0.33 17.02 0.66 16 1 C16 1.66 16 2.32 16 3 C10.72 4.32 5.44 5.64 0 7 C0 4.69 0 2.38 0 0 Z " fill="#CCCED0" transform="translate(0,0)"/>
<path d="M0 0 C0.99 0 1.98 0 3 0 C3.50559908 1.43554025 4.0042749 2.8735202 4.5 4.3125 C4.7784375 5.11300781 5.056875 5.91351563 5.34375 6.73828125 C6 9 6 9 6 12 C1.52845395 16.00897232 -4.29620237 15.71031501 -10 16 C-7 14 -7 14 -5 13 C-4.67 12.34 -4.34 11.68 -4 11 C-3.67 11.33 -3.34 11.66 -3 12 C-2.67 11.34 -2.34 10.68 -2 10 C-0.68 10.33 0.64 10.66 2 11 C1.34 7.37 0.68 3.74 0 0 Z " fill="#383734" transform="translate(28,41)"/>
<path d="M0 0 C2.475 0.99 2.475 0.99 5 2 C5 2.66 5 3.32 5 4 C5.99 4 6.98 4 8 4 C8 6.31 8 8.62 8 11 C5.36 11 2.72 11 0 11 C0 7.37 0 3.74 0 0 Z " fill="#7B7465" transform="translate(0,69)"/>
<path d="M0 0 C3.96 0 7.92 0 12 0 C12.33 1.32 12.66 2.64 13 4 C15.31 4 17.62 4 20 4 C20 4.66 20 5.32 20 6 C13.73 5.67 7.46 5.34 1 5 C0.67 3.35 0.34 1.7 0 0 Z " fill="#93726F" transform="translate(36,53)"/>
<path d="M0 0 C1.98 0 3.96 0 6 0 C6.99 3.96 7.98 7.92 9 12 C7.35 12.33 5.7 12.66 4 13 C3.32942113 11.2097939 2.6636531 9.41778511 2 7.625 C1.62875 6.62726562 1.2575 5.62953125 0.875 4.6015625 C0 2 0 2 0 0 Z " fill="#57656C" transform="translate(4,44)"/>
<path d="M0 0 C0.33 0 0.66 0 1 0 C1 3.63 1 7.26 1 11 C1.66 11 2.32 11 3 11 C1.94124926 14.40312738 0.99097846 17.01353231 -1 20 C-1 20.99 -1 21.98 -1 23 C-0.34 23 0.32 23 1 23 C1.33 22.01 1.66 21.02 2 20 C2.17942163 23.94727588 2.09350689 26.5980513 0 30 C-0.66 30 -1.32 30 -2 30 C-3.22485812 27.55028376 -3.16722808 25.85765539 -3.1875 23.125 C-3.20167969 22.26132812 -3.21585938 21.39765625 -3.23046875 20.5078125 C-3 18 -3 18 -2.02734375 16.1328125 C-0.54119757 13.04750522 -0.56391881 10.15053864 -0.375 6.75 C-0.30023438 5.48671875 -0.22546875 4.2234375 -0.1484375 2.921875 C-0.09945312 1.95765625 -0.05046875 0.9934375 0 0 Z " fill="#947A61" transform="translate(62,14)"/>
<path d="M0 0 C0 1.65 0 3.3 0 5 C-0.33 4.34 -0.66 3.68 -1 3 C-1.84820312 3.31710938 -2.69640625 3.63421875 -3.5703125 3.9609375 C-7.09477225 5.02871232 -10.20670957 5.40041079 -13.875 5.625 C-15.02742188 5.69976563 -16.17984375 5.77453125 -17.3671875 5.8515625 C-18.23601563 5.90054687 -19.10484375 5.94953125 -20 6 C-19.67 5.01 -19.34 4.02 -19 3 C-18.15695313 2.86722656 -17.31390625 2.73445312 -16.4453125 2.59765625 C-15.34960938 2.42105469 -14.25390625 2.24445312 -13.125 2.0625 C-11.48917969 1.80146484 -11.48917969 1.80146484 -9.8203125 1.53515625 C-1.51923077 -0.03997976 -1.51923077 -0.03997976 0 0 Z " fill="#331006" transform="translate(80,2)"/>
<path d="M0 0 C2.64 1.32 5.28 2.64 8 4 C7.01 4.33 6.02 4.66 5 5 C5 6.98 5 8.96 5 11 C3.68 11.33 2.36 11.66 1 12 C0.34 10.35 -0.32 8.7 -1 7 C-2.32 7 -3.64 7 -5 7 C-4.67 6.34 -4.34 5.68 -4 5 C-3.34 5 -2.68 5 -2 5 C-1.34 3.35 -0.68 1.7 0 0 Z " fill="#544532" transform="translate(10,66)"/>
<path d="M0 0 C-1.485 1.485 -1.485 1.485 -3 3 C-2.01 3 -1.02 3 0 3 C0 3.99 0 4.98 0 6 C-5.67276511 6.29341888 -8.99067246 6.00559652 -14 3 C-14 2.67 -14 2.34 -14 2 C-12.01432292 1.51171875 -10.02864583 1.0234375 -8.04296875 0.53515625 C-2.64025696 -0.88008565 -2.64025696 -0.88008565 0 0 Z " fill="#9BA2B0" transform="translate(32,64)"/>
<path d="M0 0 C1.15837573 3.47512718 0.77265943 5.13670286 0.0625 8.6875 C-0.13214844 9.68136719 -0.32679687 10.67523438 -0.52734375 11.69921875 C-0.68332031 12.45847656 -0.83929688 13.21773437 -1 14 C-1.99 14 -2.98 14 -4 14 C-4 12.68 -4 11.36 -4 10 C-4.66 10 -5.32 10 -6 10 C-6 8.68 -6 7.36 -6 6 C-5.34 6 -4.68 6 -4 6 C-3.896875 5.38125 -3.79375 4.7625 -3.6875 4.125 C-3 2 -3 2 0 0 Z " fill="#939496" transform="translate(66,38)"/>
<path d="M0 0 C3.03918463 4.55877695 4.29408315 9.5983209 3.625 15.0625 C3.41875 15.701875 3.2125 16.34125 3 17 C1.68 16.34 0.36 15.68 -1 15 C-1.09038099 9.84828377 -0.84681133 5.08086796 0 0 Z " fill="#191919" transform="translate(58,47)"/>
<path d="M0 0 C0.91007812 0.00902344 1.82015625 0.01804688 2.7578125 0.02734375 C3.45648438 0.03894531 4.15515625 0.05054688 4.875 0.0625 C4.875 0.3925 4.875 0.7225 4.875 1.0625 C2.895 1.0625 0.915 1.0625 -1.125 1.0625 C-0.795 3.7025 -0.465 6.3425 -0.125 9.0625 C-3.095 8.5675 -3.095 8.5675 -6.125 8.0625 C-6.455 5.7525 -6.785 3.4425 -7.125 1.0625 C-4.60024538 -0.19987731 -2.81299534 -0.03606404 0 0 Z " fill="#6E615F" transform="translate(70.125,63.9375)"/>
<path d="M0 0 C3.51716303 3.51716303 3.54676163 5.19567333 4 10 C4.763125 9.79375 5.52625 9.5875 6.3125 9.375 C9 9 9 9 12 11 C9.69 11.33 7.38 11.66 5 12 C4.67 13.65 4.34 15.3 4 17 C2 14 2 14 2 10 C0.02 10 -1.96 10 -4 10 C-4 9.67 -4 9.34 -4 9 C-2.02 9 -0.04 9 2 9 C1.34 6.03 0.68 3.06 0 0 Z " fill="#242627" transform="translate(4,47)"/>
<path d="M0 0 C3.63 0 7.26 0 11 0 C10.67 0.99 10.34 1.98 10 3 C9.34 3 8.68 3 8 3 C7.67 4.65 7.34 6.3 7 8 C5.02 8.33 3.04 8.66 1 9 C1 8.34 1 7.68 1 7 C1.66 7 2.32 7 3 7 C3 5.35 3 3.7 3 2 C2.01 1.67 1.02 1.34 0 1 C0 0.67 0 0.34 0 0 Z " fill="#664937" transform="translate(50,70)"/>
<path d="M0 0 C-3.732388 3.57011026 -8.0949989 4.10913442 -13 5 C-13 5.66 -13 6.32 -13 7 C-15.97 6.505 -15.97 6.505 -19 6 C-18.328125 4.078125 -18.328125 4.078125 -17 2 C-14.609375 1.171875 -14.609375 1.171875 -11.75 0.75 C-10.76902344 0.60304687 -9.78804687 0.45609375 -8.77734375 0.3046875 C-5.82876044 -0.01878577 -2.96382255 -0.16020662 0 0 Z " fill="#6F797C" transform="translate(35,55)"/>
<path d="M0 0 C-0.33 0.99 -0.66 1.98 -1 3 C-4.0546875 4.203125 -4.0546875 4.203125 -7.875 5.25 C-9.13054688 5.60578125 -10.38609375 5.9615625 -11.6796875 6.328125 C-15 7 -15 7 -18 6 C-15.674397 4.65115026 -13.34099799 3.32153113 -11 2 C-9.96875 1.401875 -8.9375 0.80375 -7.875 0.1875 C-4.67288065 -1.13511451 -3.2464272 -1.05031468 0 0 Z " fill="#333A3D" transform="translate(30,59)"/>
<path d="M0 0 C1.32 0 2.64 0 4 0 C3.67 2.64 3.34 5.28 3 8 C1.02 8 -0.96 8 -3 8 C-3.33 7.01 -3.66 6.02 -4 5 C-2.3125 2.3125 -2.3125 2.3125 0 0 Z " fill="#4E3822" transform="translate(62,72)"/>
<path d="M0 0 C1.51400391 0.01740234 1.51400391 0.01740234 3.05859375 0.03515625 C4.07050781 0.04417969 5.08242188 0.05320312 6.125 0.0625 C7.29869141 0.07990234 7.29869141 0.07990234 8.49609375 0.09765625 C8.49609375 1.41765625 8.49609375 2.73765625 8.49609375 4.09765625 C4.76171527 4.97633354 1.32834802 5.18677844 -2.50390625 5.09765625 C-3.06640625 3.16015625 -3.06640625 3.16015625 -3.50390625 1.09765625 C-2.50390625 0.09765625 -2.50390625 0.09765625 0 0 Z " fill="#8C827B" transform="translate(37.50390625,31.90234375)"/>
<path d="M0 0 C3.96 0 7.92 0 12 0 C12 0.99 12 1.98 12 3 C8.37 3.33 4.74 3.66 1 4 C0.67 5.32 0.34 6.64 0 8 C-0.79953138 4.71303767 -1.09658936 3.28976808 0 0 Z " fill="#BEC5BF" transform="translate(14,40)"/>
<path d="M0 0 C2.40713382 1.7430969 2.93277293 3.52669762 3.8125 6.3125 C1.8325 6.6425 -0.1475 6.9725 -2.1875 7.3125 C-2.1875 6.6525 -2.1875 5.9925 -2.1875 5.3125 C-1.5275 5.3125 -0.8675 5.3125 -0.1875 5.3125 C-0.1875 4.6525 -0.1875 3.9925 -0.1875 3.3125 C-2.1675 3.6425 -4.1475 3.9725 -6.1875 4.3125 C-6.5175 3.6525 -6.8475 2.9925 -7.1875 2.3125 C-7.8475 2.3125 -8.5075 2.3125 -9.1875 2.3125 C-9.1875 1.6525 -9.1875 0.9925 -9.1875 0.3125 C-6.04132398 -1.26058801 -3.31970196 -1.0433349 0 0 Z " fill="#80594D" transform="translate(56.1875,62.6875)"/>
<path d="M0 0 C0.33 0 0.66 0 1 0 C1 2.64 1 5.28 1 8 C0.34 8 -0.32 8 -1 8 C-1 8.99 -1 9.98 -1 11 C-2.32 11 -3.64 11 -5 11 C-5 11.66 -5 12.32 -5 13 C-5.66 13 -6.32 13 -7 13 C-6.34 10.03 -5.68 7.06 -5 4 C-3.35 4.33 -1.7 4.66 0 5 C0 3.35 0 1.7 0 0 Z " fill="#5A3F1F" transform="translate(73,14)"/>
<path d="M0 0 C0.99 0.33 1.98 0.66 3 1 C1.68 1.33 0.36 1.66 -1 2 C-1 2.66 -1 3.32 -1 4 C0.953125 3.47916667 2.90625 2.95833333 4.859375 2.4375 C7 2 7 2 11 2 C11 1.34 11 0.68 11 0 C12.32 0.33 13.64 0.66 15 1 C9.91260065 4.39159956 5.13018154 6 -1 6 C-1.33 6.66 -1.66 7.32 -2 8 C-2 5.69 -2 3.38 -2 1 C-1.34 0.67 -0.68 0.34 0 0 Z " fill="#848785" transform="translate(16,2)"/>
<path d="M0 0 C1.98 0 3.96 0 6 0 C6.33 0.99 6.66 1.98 7 3 C7.66 3 8.32 3 9 3 C9 5.64 9 8.28 9 11 C8.67 9.68 8.34 8.36 8 7 C7.34 7 6.68 7 6 7 C5.67 5.68 5.34 4.36 5 3 C4.34 3 3.68 3 3 3 C2.67 3.66 2.34 4.32 2 5 C1.01 5 0.02 5 -1 5 C-0.67 3.35 -0.34 1.7 0 0 Z " fill="#61452D" transform="translate(57,9)"/>
<path d="M0 0 C0.99 0.66 1.98 1.32 3 2 C2.360625 2.185625 1.72125 2.37125 1.0625 2.5625 C-1.40277185 3.92071493 -1.40277185 3.92071493 -1.625 7.4375 C-1.810625 9.2009375 -1.810625 9.2009375 -2 11 C-2.99 12.485 -2.99 12.485 -4 14 C-3.34 14.33 -2.68 14.66 -2 15 C-3.32 15 -4.64 15 -6 15 C-6.33 13.68 -6.66 12.36 -7 11 C-6.34 11 -5.68 11 -5 11 C-5.103125 9.741875 -5.20625 8.48375 -5.3125 7.1875 C-5.33203125 4.98046875 -5.33203125 4.98046875 -5 3 C-2.5 1 -2.5 1 0 0 Z " fill="#594D49" transform="translate(55,42)"/>
<path d="M0 0 C1.32 0.33 2.64 0.66 4 1 C3.814375 1.639375 3.62875 2.27875 3.4375 2.9375 C3.293125 3.618125 3.14875 4.29875 3 5 C3.33 5.33 3.66 5.66 4 6 C4.04080783 7.99958364 4.04254356 10.00045254 4 12 C3.01 12.495 3.01 12.495 2 13 C1.67 12.01 1.34 11.02 1 10 C1.33 9.67 1.66 9.34 2 9 C0.68 8.67 -0.64 8.34 -2 8 C-1.125 2.25 -1.125 2.25 0 0 Z " fill="#83858A" transform="translate(70,51)"/>
<path d="M0 0 C2.97 0 5.94 0 9 0 C8.67 1.65 8.34 3.3 8 5 C5.36 5 2.72 5 0 5 C0 3.35 0 1.7 0 0 Z " fill="#9CA0A6" transform="translate(64,59)"/>
<path d="M0 0 C2.60444348 -0.05394705 5.20776998 -0.09364469 7.8125 -0.125 C8.55048828 -0.14175781 9.28847656 -0.15851562 10.04882812 -0.17578125 C13.91246426 -0.21074628 15.70903668 -0.19397555 19 2 C13.61597119 3.27516472 8.40298307 3.06943727 3 2 C2.01 1.34 1.02 0.68 0 0 Z " fill="#654342" transform="translate(37,58)"/>
<path d="M0 0 C0 0.66 0 1.32 0 2 C0.66 2.66 1.32 3.32 2 4 C-3.625 7 -3.625 7 -7 7 C-7.33 5.68 -7.66 4.36 -8 3 C-3.375 0 -3.375 0 0 0 Z " fill="#76818E" transform="translate(39,62)"/>
<path d="M0 0 C1.10844919 3.32534757 0.84454356 5.62182575 0 9 C-1.98 9.33 -3.96 9.66 -6 10 C-4.68 9.01 -3.36 8.02 -2 7 C-3.65 5.35 -5.3 3.7 -7 2 C-4.69 1.34 -2.38 0.68 0 0 Z " fill="#836F64" transform="translate(60,12)"/>
<path d="M0 0 C1.65 0 3.3 0 5 0 C5 2.31 5 4.62 5 7 C4.34 7 3.68 7 3 7 C2.01 7.33 1.02 7.66 0 8 C-0.99 7.01 -1.98 6.02 -3 5 C-2.01 5 -1.02 5 0 5 C0 3.35 0 1.7 0 0 Z " fill="#5B371D" transform="translate(45,72)"/>
<path d="M0 0 C1.98 0 3.96 0 6 0 C6 1.65 6 3.3 6 5 C4.02 5.66 2.04 6.32 0 7 C0 4.69 0 2.38 0 0 Z " fill="#F6F7FB" transform="translate(0,0)"/>
<path d="M0 0 C3.96 0 7.92 0 12 0 C12 0.66 12 1.32 12 2 C10.39950296 2.39036513 8.79437629 2.76178619 7.1875 3.125 C6.29417969 3.33382813 5.40085937 3.54265625 4.48046875 3.7578125 C2 4 2 4 -1 2 C-0.67 1.34 -0.34 0.68 0 0 Z " fill="#621807" transform="translate(68,0)"/>
<path d="M0 0 C4.62 0 9.24 0 14 0 C13.34 1.32 12.68 2.64 12 4 C8.875 4.75 8.875 4.75 6 5 C6.33 4.34 6.66 3.68 7 3 C4.69 2.34 2.38 1.68 0 1 C0 0.67 0 0.34 0 0 Z " fill="#9B9D9D" transform="translate(23,0)"/>
<path d="M0 0 C0.33 0 0.66 0 1 0 C1 5.28 1 10.56 1 16 C0.67 15.34 0.34 14.68 0 14 C-2.02463255 13.34786708 -2.02463255 13.34786708 -4 13 C-3.01 12.67 -2.02 12.34 -1 12 C-0.67 11.01 -0.34 10.02 0 9 C-0.99 9.33 -1.98 9.66 -3 10 C-2.39009109 6.44219804 -1.4216319 3.3171411 0 0 Z " fill="#6F6F72" transform="translate(74,43)"/>
<path d="M0 0 C0.66 0.33 1.32 0.66 2 1 C1.67 1.66 1.34 2.32 1 3 C2.98 2.67 4.96 2.34 7 2 C7 2.66 7 3.32 7 4 C6.01 4 5.02 4 4 4 C4 4.66 4 5.32 4 6 C2.35 6 0.7 6 -1 6 C-1 5.01 -1 4.02 -1 3 C-1.99 2.67 -2.98 2.34 -4 2 C-2.125 0.9375 -2.125 0.9375 0 0 Z " fill="#C1A9A9" transform="translate(49,64)"/>
<path d="M0 0 C4.29 0.33 8.58 0.66 13 1 C13 1.66 13 2.32 13 3 C8.71 3 4.42 3 0 3 C0 2.01 0 1.02 0 0 Z " fill="#533F2C" transform="translate(16,77)"/>
<path d="M0 0 C0 1.32 0 2.64 0 4 C-2.64 4.33 -5.28 4.66 -8 5 C-8 3.68 -8 2.36 -8 1 C-5.10765685 0.17361624 -3.11257569 0 0 0 Z " fill="#3E494C" transform="translate(46,2)"/>
<path d="M0 0 C3.3 0.66 6.6 1.32 10 2 C10 1.34 10 0.68 10 0 C11.32 0.33 12.64 0.66 14 1 C13.67 1.66 13.34 2.32 13 3 C9.37 2.67 5.74 2.34 2 2 C2 2.66 2 3.32 2 4 C0.35 3.67 -1.3 3.34 -3 3 C-2.01 2.67 -1.02 2.34 0 2 C0 1.34 0 0.68 0 0 Z " fill="#452419" transform="translate(37,46)"/>
<path d="M0 0 C1.66628955 0.03545297 3.33409803 0.05048188 5 0 C1.46813168 2.15059309 -1.66287993 2.3797728 -5.75 2.625 C-6.92046875 2.69976562 -8.0909375 2.77453125 -9.296875 2.8515625 C-10.18890625 2.90054687 -11.0809375 2.94953125 -12 3 C-11.67 2.01 -11.34 1.02 -11 0 C-7.37654779 -1.67236256 -3.80882108 -0.6013928 0 0 Z " fill="#441C10" transform="translate(72,5)"/>
<path d="M0 0 C0.99 0 1.98 0 3 0 C4.35439668 2.70879335 4.06501451 5.00933268 4 8 C2.68 8 1.36 8 0 8 C0 5.36 0 2.72 0 0 Z " fill="#867E6E" transform="translate(0,72)"/>
<path d="M0 0 C0.66 0 1.32 0 2 0 C1.67 3.3 1.34 6.6 1 10 C-0.65 10 -2.3 10 -4 10 C-4 9.34 -4 8.68 -4 8 C-3.01 8 -2.02 8 -1 8 C-1.020625 6.865625 -1.04125 5.73125 -1.0625 4.5625 C-1 1 -1 1 0 0 Z " fill="#151817" transform="translate(55,46)"/>
<path d="M0 0 C3.96 0 7.92 0 12 0 C8 2 8 2 4 2 C3.67 3.32 3.34 4.64 3 6 C3 5.34 3 4.68 3 4 C2.01 4 1.02 4 0 4 C0 2.68 0 1.36 0 0 Z " fill="#242B35" transform="translate(0,38)"/>
<path d="M0 0 C3.96 0 7.92 0 12 0 C12 0.99 12 1.98 12 3 C3.42857143 3.14285714 3.42857143 3.14285714 0 2 C0 1.34 0 0.68 0 0 Z " fill="#767774" transform="translate(19,34)"/>
<path d="M0 0 C0.66 0 1.32 0 2 0 C5 4.38461538 5 4.38461538 5 7 C0.25 8.125 0.25 8.125 -2 7 C-1.67 5.68 -1.34 4.36 -1 3 C-0.67 3.33 -0.34 3.66 0 4 C0 2.68 0 1.36 0 0 Z " fill="#898886" transform="translate(14,29)"/>
<path d="M0 0 C0.66 1.32 1.32 2.64 2 4 C1.04882866 5.1725131 0.08882991 6.33787015 -0.875 7.5 C-1.40867187 8.1496875 -1.94234375 8.799375 -2.4921875 9.46875 C-2.98976563 9.9740625 -3.48734375 10.479375 -4 11 C-4.66 11 -5.32 11 -6 11 C-6 10.34 -6 9.68 -6 9 C-5.34 9 -4.68 9 -4 9 C-3.8453125 7.329375 -3.8453125 7.329375 -3.6875 5.625 C-3.460625 4.42875 -3.23375 3.2325 -3 2 C-2.01 1.34 -1.02 0.68 0 0 Z " fill="#695136" transform="translate(78,13)"/>
<path d="M0 0 C-0.33 1.32 -0.66 2.64 -1 4 C-3.31 4.66 -5.62 5.32 -8 6 C-8 4.68 -8 3.36 -8 2 C-4.91190305 0.23537317 -3.76687864 0 0 0 Z " fill="#BABDC0" transform="translate(8,5)"/>
<path d="M0 0 C1.32 0 2.64 0 4 0 C4 1.98 4 3.96 4 6 C2.35 6 0.7 6 -1 6 C-1.042721 4.33388095 -1.04063832 2.66617115 -1 1 C-0.67 0.67 -0.34 0.34 0 0 Z " fill="#826755" transform="translate(66,74)"/>
<path d="M0 0 C1.16585932 3.49757797 0.75860292 4.61568066 -0.3125 8.0625 C-0.57675781 8.94035156 -0.84101562 9.81820312 -1.11328125 10.72265625 C-2 13 -2 13 -4 15 C-4.59720137 9.17728663 -2.528243 5.0790596 0 0 Z " fill="#81848B" transform="translate(70,41)"/>
<path d="M0 0 C0.33 0 0.66 0 1 0 C1 1.98 1 3.96 1 6 C2.98 5.67 4.96 5.34 7 5 C7 6.32 7 7.64 7 9 C5.00045254 9.04254356 2.99958364 9.04080783 1 9 C0 8 0 8 -0.09765625 6.15234375 C-0.06510417 4.1015625 -0.03255208 2.05078125 0 0 Z " fill="#8F8E8A" transform="translate(19,24)"/>
<path d="M0 0 C0.66 0 1.32 0 2 0 C2 1.98 2 3.96 2 6 C1.34 6 0.68 6 0 6 C0 7.65 0 9.3 0 11 C-0.99 11.33 -1.98 11.66 -3 12 C-3 11.34 -3 10.68 -3 10 C-2.34 10 -1.68 10 -1 10 C-1.20625 8.906875 -1.4125 7.81375 -1.625 6.6875 C-2 3 -2 3 0 0 Z " fill="#9C9C98" transform="translate(78,18)"/>
<path d="M0 0 C0.33 0 0.66 0 1 0 C1 3.96 1 7.92 1 12 C0.34 12 -0.32 12 -1 12 C-1 11.01 -1 10.02 -1 9 C-2.32 9 -3.64 9 -5 9 C-5 8.01 -5 7.02 -5 6 C-3.68 6 -2.36 6 -1 6 C-0.67 4.02 -0.34 2.04 0 0 Z " fill="#4C4C48" transform="translate(27,20)"/>
<path d="M0 0 C0.66 0.33 1.32 0.66 2 1 C2 1.66 2 2.32 2 3 C2.99 3 3.98 3 5 3 C4.67 4.32 4.34 5.64 4 7 C3.34 6.67 2.68 6.34 2 6 C0.62657169 5.9310528 -0.75002102 5.91532292 -2.125 5.9375 C-4.043125 5.9684375 -4.043125 5.9684375 -6 6 C-5.67 5.01 -5.34 4.02 -5 3 C-5 3.66 -5 4.32 -5 5 C-3.35 4.34 -1.7 3.68 0 3 C0 2.01 0 1.02 0 0 Z " fill="#9B7869" transform="translate(59,65)"/>
<path d="M0 0 C1.65 0.33 3.3 0.66 5 1 C4.34 1.66 3.68 2.32 3 3 C2.01 3 1.02 3 0 3 C0.33 3.99 0.66 4.98 1 6 C-2 7 -2 7 -5 6 C-5 5.34 -5 4.68 -5 4 C-3.35 3.34 -1.7 2.68 0 2 C0 1.34 0 0.68 0 0 Z " fill="#0D0B08" transform="translate(8,62)"/>
<path d="M0 0 C0.33 0 0.66 0 1 0 C1.17942163 3.94727588 1.09350689 6.5980513 -1 10 C-1.66 10 -2.32 10 -3 10 C-3.33 7.69 -3.66 5.38 -4 3 C-2.68 3 -1.36 3 0 3 C0 2.01 0 1.02 0 0 Z " fill="#816F5E" transform="translate(63,34)"/>
<path d="M0 0 C0 0.66 0 1.32 0 2 C-3.3 2.33 -6.6 2.66 -10 3 C-10 2.01 -10 1.02 -10 0 C-6.42355152 -1.2380014 -3.66305234 -0.74926071 0 0 Z " fill="#7B7D7B" transform="translate(48,7)"/>
<path d="M0 0 C0.66 0 1.32 0 2 0 C2 1.32 2 2.64 2 4 C3.32 3.67 4.64 3.34 6 3 C5.67 5.31 5.34 7.62 5 10 C4.01 9.67 3.02 9.34 2 9 C1.26953125 6.93359375 1.26953125 6.93359375 0.8125 4.4375 C0.65394531 3.61121094 0.49539063 2.78492188 0.33203125 1.93359375 C0.16767578 0.97646484 0.16767578 0.97646484 0 0 Z " fill="#4E3C28" transform="translate(15,45)"/>
<path d="M0 0 C0.66 0 1.32 0 2 0 C2.53154742 1.60064843 3.04988353 3.20568874 3.5625 4.8125 C3.85253906 5.70582031 4.14257812 6.59914063 4.44140625 7.51953125 C5 10 5 10 4 13 C1.14971899 8.78654111 0 5.09630931 0 0 Z " fill="#8B9192" transform="translate(26,40)"/>
<path d="M0 0 C3 4 3 4 3.07421875 6.140625 C2.71614583 8.09375 2.35807292 10.046875 2 12 C1.34 12 0.68 12 0 12 C0 8.04 0 4.08 0 0 Z " fill="#8E8E8A" transform="translate(28,20)"/>
<path d="M0 0 C-0.33 0.99 -0.66 1.98 -1 3 C-4.3 3.66 -7.6 4.32 -11 5 C-10.67 4.01 -10.34 3.02 -10 2 C-6.3962102 0.47839986 -3.94779314 0 0 0 Z " fill="#A0A7A9" transform="translate(11,8)"/>
<path d="M0 0 C7.42857143 -0.14285714 7.42857143 -0.14285714 11 1 C11 1.66 11 2.32 11 3 C3.49230769 3.36923077 3.49230769 3.36923077 1 1.5 C0.67 1.005 0.34 0.51 0 0 Z " fill="#39281B" transform="translate(69,65)"/>
<path d="M0 0 C0.66 0 1.32 0 2 0 C3.4606285 2.64738916 4 3.89448334 4 7 C3.34 7 2.68 7 2 7 C1.67 7.99 1.34 8.98 1 10 C0.34 9.01 -0.32 8.02 -1 7 C-0.34 7 0.32 7 1 7 C0.67 4.69 0.34 2.38 0 0 Z " fill="#91584B" transform="translate(24,44)"/>
<path d="M0 0 C0.33 0 0.66 0 1 0 C1.33 2.97 1.66 5.94 2 9 C0.68 8.67 -0.64 8.34 -2 8 C-2.125 5.125 -2.125 5.125 -2 2 C-1.34 1.34 -0.68 0.68 0 0 Z " fill="#AE9A8C" transform="translate(58,35)"/>
<path d="M0 0 C-1.125 1.5 -1.125 1.5 -3 3 C-6.1875 3.1875 -6.1875 3.1875 -9 3 C-9.33 2.01 -9.66 1.02 -10 0 C-3.375 -1.125 -3.375 -1.125 0 0 Z " fill="#7A755E" transform="translate(12,30)"/>
<path d="M0 0 C0.66 0.33 1.32 0.66 2 1 C2 2.98 2 4.96 2 7 C0.68 6.67 -0.64 6.34 -2 6 C-2 4.35 -2 2.7 -2 1 C-1.34 0.67 -0.68 0.34 0 0 Z " fill="#685236" transform="translate(75,7)"/>
<path d="M0 0 C1.32 0.33 2.64 0.66 4 1 C3.34 3.97 2.68 6.94 2 10 C1.34 10 0.68 10 0 10 C0 6.7 0 3.4 0 0 Z " fill="#873524" transform="translate(52,0)"/>
<path d="M0 0 C0.33 0.99 0.66 1.98 1 3 C-2.50776784 4.60355101 -5.14354879 5.22036864 -9 5 C-6.42595029 1.13892543 -4.38979741 1.05680308 0 0 Z " fill="#181B1E" transform="translate(36,56)"/>
<path d="M0 0 C2.45331002 3.67996503 2.39507893 5.65413172 2 10 C1.01 10.66 0.02 11.32 -1 12 C-0.67 8.04 -0.34 4.08 0 0 Z " fill="#07120E" transform="translate(58,47)"/>
<path d="M0 0 C0.66 1.32 1.32 2.64 2 4 C1.34 4.66 0.68 5.32 0 6 C-2.3828125 5.9765625 -2.3828125 5.9765625 -5.125 5.625 C-6.03507812 5.51414062 -6.94515625 5.40328125 -7.8828125 5.2890625 C-8.93082031 5.14597656 -8.93082031 5.14597656 -10 5 C-9.34 3.68 -8.68 2.36 -8 1 C-7.34 1 -6.68 1 -6 1 C-6 1.99 -6 2.98 -6 4 C-4.02 4 -2.04 4 0 4 C0 2.68 0 1.36 0 0 Z " fill="#68534C" transform="translate(41,33)"/>
<path d="M0 0 C1.65 0 3.3 0 5 0 C4.67 1.65 4.34 3.3 4 5 C2.68 5 1.36 5 0 5 C0 3.35 0 1.7 0 0 Z " fill="#89837A" transform="translate(52,31)"/>
<path d="M0 0 C0.33 0.66 0.66 1.32 1 2 C1.99 2 2.98 2 4 2 C4.33 1.34 4.66 0.68 5 0 C6.32 0.99 7.64 1.98 9 3 C8.34 3.66 7.68 4.32 7 5 C4.38419521 4.6730244 2.35921863 4.17960932 0 3 C0 2.01 0 1.02 0 0 Z " fill="#453D38" transform="translate(50,16)"/>
<path d="M0 0 C0.60714844 0.31582031 1.21429688 0.63164063 1.83984375 0.95703125 C0.21520533 1.01098603 -1.40994166 1.0498032 -3.03515625 1.08203125 C-3.94007812 1.10523438 -4.845 1.1284375 -5.77734375 1.15234375 C-8.16015625 0.95703125 -8.16015625 0.95703125 -10.16015625 -1.04296875 C-6.2216555 -2.35580233 -3.71019158 -1.79135832 0 0 Z " fill="#28352D" transform="translate(12.16015625,36.04296875)"/>
<path d="M0 0 C0 0.66 0 1.32 0 2 C0.66 2 1.32 2 2 2 C2 2.66 2 3.32 2 4 C1.34 4 0.68 4 0 4 C-0.33 4.66 -0.66 5.32 -1 6 C-1.33 5.01 -1.66 4.02 -2 3 C-3.32 3 -4.64 3 -6 3 C-6 2.34 -6 1.68 -6 1 C-4 0 -4 0 0 0 Z " fill="#9A9796" transform="translate(48,10)"/>
<path d="M0 0 C-0.33 1.32 -0.66 2.64 -1 4 C-1.66 4 -2.32 4 -3 4 C-3.33 5.65 -3.66 7.3 -4 9 C-4.33 9 -4.66 9 -5 9 C-5 6.36 -5 3.72 -5 1 C-3 0 -3 0 0 0 Z " fill="#8A746D" transform="translate(48,67)"/>
<path d="M0 0 C0.99 0 1.98 0 3 0 C3.625 3.375 3.625 3.375 4 7 C3.34 7.66 2.68 8.32 2 9 C1.34 6.03 0.68 3.06 0 0 Z " fill="#46585B" transform="translate(28,41)"/>
<path d="M0 0 C0.66 0 1.32 0 2 0 C1.34 2.64 0.68 5.28 0 8 C-0.99 7.67 -1.98 7.34 -3 7 C-1.125 1.125 -1.125 1.125 0 0 Z " fill="#8C8D91" transform="translate(73,31)"/>
<path d="M0 0 C0.33 0 0.66 0 1 0 C1.66 2.64 2.32 5.28 3 8 C1.68 8 0.36 8 -1 8 C-1.04241723 5.66705225 -1.04092937 3.33297433 -1 1 C-0.67 0.67 -0.34 0.34 0 0 Z " fill="#3C2C18" transform="translate(9,72)"/>
<path d="M0 0 C0.66 0.33 1.32 0.66 2 1 C0.84414715 4.91211733 -0.35534962 7.8745041 -3 11 C-2.44894091 7.0507432 -1.61064629 3.65079826 0 0 Z " fill="#94979D" transform="translate(71,44)"/>
<path d="M0 0 C0.66 0 1.32 0 2 0 C2.33 2.31 2.66 4.62 3 7 C1.35 7.33 -0.3 7.66 -2 8 C-1.34 5.36 -0.68 2.72 0 0 Z " fill="#3B454C" transform="translate(31,46)"/>
<path d="M0 0 C0.99 0.33 1.98 0.66 3 1 C3 1.66 3 2.32 3 3 C4.98 2.67 6.96 2.34 9 2 C8.01 3.485 8.01 3.485 7 5 C4.5 5.3125 4.5 5.3125 2 5 C1.34 4.34 0.68 3.68 0 3 C0 2.01 0 1.02 0 0 Z " fill="#8F8A87" transform="translate(51,19)"/>
<path d="M0 0 C1.32 0.66 2.64 1.32 4 2 C3.34 2.66 2.68 3.32 2 4 C2 4.99 2 5.98 2 7 C1.01 7 0.02 7 -1 7 C-1.04254356 5.00045254 -1.04080783 2.99958364 -1 1 C-0.67 0.67 -0.34 0.34 0 0 Z " fill="#2F221D" transform="translate(52,11)"/>
<path d="M0 0 C0.99 0.66 1.98 1.32 3 2 C2.34 3.32 1.68 4.64 1 6 C0.34 6 -0.32 6 -1 6 C-1.33 6.66 -1.66 7.32 -2 8 C-1.125 1.125 -1.125 1.125 0 0 Z " fill="#735B45" transform="translate(62,31)"/>
<path d="M0 0 C1.32 0.33 2.64 0.66 4 1 C3.67 2.65 3.34 4.3 3 6 C2.01 5.67 1.02 5.34 0 5 C0 3.35 0 1.7 0 0 Z " fill="#6C7D6B" transform="translate(0,22)"/>
<path d="M0 0 C0.99 0.33 1.98 0.66 3 1 C3 1.66 3 2.32 3 3 C4.32 3.33 5.64 3.66 7 4 C6.34 4 5.68 4 5 4 C4.67 4.99 4.34 5.98 4 7 C0 2.25 0 2.25 0 0 Z " fill="#593A24" transform="translate(69,66)"/>
<path d="M0 0 C1.98 0 3.96 0 6 0 C6 0.99 6 1.98 6 3 C4.02 3 2.04 3 0 3 C0 2.01 0 1.02 0 0 Z " fill="#7F8D8E" transform="translate(9,59)"/>
<path d="M0 0 C1.98 0 3.96 0 6 0 C6 0.99 6 1.98 6 3 C4.02 3 2.04 3 0 3 C0 2.01 0 1.02 0 0 Z " fill="#816766" transform="translate(0,53)"/>
<path d="M0 0 C1.98 0.495 1.98 0.495 4 1 C3.67 2.32 3.34 3.64 3 5 C1.68 5 0.36 5 -1 5 C-0.67 3.35 -0.34 1.7 0 0 Z " fill="#787A80" transform="translate(70,51)"/>
<path d="M0 0 C2.64 0 5.28 0 8 0 C7.01 0.33 6.02 0.66 5 1 C5 1.66 5 2.32 5 3 C3.35 3 1.7 3 0 3 C0 2.01 0 1.02 0 0 Z " fill="#D7DADA" transform="translate(11,0)"/>
<path d="M0 0 C1.98 0.99 3.96 1.98 6 3 C5.34 3.66 4.68 4.32 4 5 C2.68 5 1.36 5 0 5 C0 3.35 0 1.7 0 0 Z " fill="#6D5F5C" transform="translate(10,66)"/>
<path d="M0 0 C0.33 0.66 0.66 1.32 1 2 C0.67 2.66 0.34 3.32 0 4 C-0.66 4 -1.32 4 -2 4 C-2 4.66 -2 5.32 -2 6 C-4 5 -4 5 -5 2 C-3.35 1.34 -1.7 0.68 0 0 Z " fill="#D5D6DE" transform="translate(45,64)"/>
<path d="M0 0 C2.475 0.495 2.475 0.495 5 1 C4.67 1.99 4.34 2.98 4 4 C1.9375 4.6875 1.9375 4.6875 0 5 C0 3.35 0 1.7 0 0 Z " fill="#292620" transform="translate(0,62)"/>
<path d="M0 0 C1.65 0 3.3 0 5 0 C5 0.66 5 1.32 5 2 C4.34 2 3.68 2 3 2 C3 2.66 3 3.32 3 4 C2.01 4.33 1.02 4.66 0 5 C0 3.35 0 1.7 0 0 Z " fill="#B0B5BC" transform="translate(64,59)"/>
<path d="M0 0 C0.99 0.33 1.98 0.66 3 1 C2.67 2.65 2.34 4.3 2 6 C1.34 6 0.68 6 0 6 C0 4.68 0 3.36 0 2 C-0.66 1.67 -1.32 1.34 -2 1 C-1.34 0.67 -0.68 0.34 0 0 Z " fill="#827D69" transform="translate(17,43)"/>
<path d="M0 0 C1.65 0 3.3 0 5 0 C5.33 0.99 5.66 1.98 6 3 C3.69 3 1.38 3 -1 3 C-0.67 2.01 -0.34 1.02 0 0 Z " fill="#3B404A" transform="translate(16,36)"/>
</svg>
