<?xml version="1.0" encoding="UTF-8"?>
<svg version="1.1" xmlns="http://www.w3.org/2000/svg" width="512" height="512">
<path d="M0 0 C1.79081421 -0.00576172 1.79081421 -0.00576172 3.61780649 -0.01163983 C4.92576117 -0.01077335 6.23371584 -0.00990687 7.5813055 -0.00901413 C8.98775102 -0.01159874 10.3941958 -0.01461216 11.80063957 -0.01801753 C15.6655174 -0.02607978 19.53037664 -0.02787667 23.39526188 -0.028615 C27.56381835 -0.03046694 31.7323652 -0.03801506 35.9009161 -0.04475021 C45.01683617 -0.05832927 54.13275185 -0.06435779 63.24868035 -0.06876087 C68.94262456 -0.07152442 74.63656708 -0.07576201 80.33051014 -0.08026505 C96.1002854 -0.09245791 111.8700593 -0.1027567 127.63983917 -0.10614014 C129.15368222 -0.10646949 129.15368222 -0.10646949 130.69810795 -0.10680549 C131.70973415 -0.10702377 132.72136035 -0.10724204 133.76364189 -0.10746694 C135.81353509 -0.1079104 137.8634283 -0.10835696 139.9133215 -0.10880661 C140.93013651 -0.10902804 141.94695153 -0.10924947 142.99457913 -0.10947761 C159.46288435 -0.11342384 175.93114527 -0.13087246 192.39943338 -0.15416613 C209.31367699 -0.1778971 226.2278984 -0.19034281 243.14215893 -0.19150805 C252.63619711 -0.19242391 262.1301776 -0.19815366 271.62419987 -0.21632767 C279.71040708 -0.23175231 287.79653877 -0.23683524 295.88275791 -0.22858956 C300.00575372 -0.22469122 304.12859755 -0.22557258 308.25157452 -0.23964691 C312.03250548 -0.25243511 315.81317104 -0.25114554 319.5941019 -0.2390562 C321.59616841 -0.23619075 323.59823972 -0.24799767 325.60026938 -0.26047826 C341.86051323 -0.17207814 354.90038504 4.38595535 366.78807735 15.65095901 C378.28208968 28.10607476 381.24245091 42.13303887 381.19739437 58.48920059 C381.19867601 60.19488806 381.19867601 60.19488806 381.19998354 61.93503386 C381.20162927 65.74131861 381.19613176 69.54755919 381.19066525 73.35383987 C381.18982604 76.08390201 381.19049752 78.81396328 381.19110775 81.54402542 C381.19163143 87.41962452 381.18850086 93.29521249 381.18286991 99.17080879 C381.17473387 107.66587533 381.17213753 116.16093651 381.17088192 124.65600652 C381.16869471 138.4395647 381.16204359 152.22311695 381.15257931 166.00667191 C381.14339664 179.3940414 381.13631998 192.78140928 381.1320715 206.16878128 C381.13167741 207.40711935 381.13167741 207.40711935 381.13127536 208.67047434 C381.1299703 212.81216763 381.1287066 216.95386093 381.12746346 221.09555423 C381.11710115 255.44084967 381.09949182 289.78613808 381.07713985 324.13142776 C382.27314816 324.11571732 383.46915646 324.10000687 384.70140743 324.08382034 C389.13493279 324.02955716 393.56842874 323.99509087 398.00218868 323.96663284 C399.92183523 323.95153796 401.84144726 323.93106003 403.76097775 323.90510941 C406.51879549 323.86875668 409.27615765 323.85170864 412.0341711 323.83845901 C412.89363842 323.82297516 413.75310574 323.8074913 414.63861752 323.79153824 C415.439221 323.79131165 416.23982449 323.79108505 417.06468868 323.79085159 C418.12058949 323.78085884 418.12058949 323.78085884 419.19782162 323.77066422 C421.68124324 324.24739454 422.53837163 325.15735567 424.07713985 327.13142776 C425.85672664 333.37559193 424.21913088 337.41761612 421.82713985 343.13142776 C410.26764276 372.46400842 412.04658419 403.86634086 423.95213985 432.75642776 C425.20303156 436.50910287 425.34930909 438.39973134 424.07713985 442.13142776 C421.94775573 444.82748675 420.78638692 446.00084345 417.36638641 446.63052309 C416.31900771 446.63008835 415.27162901 446.62965361 414.19251156 446.6292057 C412.98175929 446.6384033 411.77100702 446.64760089 410.52356529 446.65707719 C409.17822087 446.64704688 407.8328792 446.63664237 406.48754025 446.62590408 C405.05975307 446.62907982 403.63196889 446.63400658 402.20419312 446.6405369 C398.27586241 446.65338517 394.34794285 446.64121183 390.41963911 446.62500834 C386.18508761 446.61186982 381.95058267 446.6217479 377.71602535 446.62877274 C369.41862268 446.63886499 361.12137921 446.62756321 352.82399631 446.60907213 C343.16669522 446.5883226 333.50942874 446.58844402 323.85210955 446.58941729 C306.6240261 446.590419 289.39601684 446.57208313 272.16796017 446.54304886 C255.44073287 446.51487311 238.71357089 446.50070728 221.98631954 446.50203323 C220.95613158 446.50211315 219.92594362 446.50219306 218.86453784 446.50227539 C217.32195978 446.50239646 217.32195978 446.50239646 215.74821854 446.50251997 C196.71980761 446.50389896 177.6914245 446.49212346 158.66302258 446.47421353 C151.92721027 446.46817536 145.19140306 446.46605376 138.45558834 446.46514893 C130.24981824 446.46378593 122.04409501 446.45487437 113.83834481 446.43648331 C109.64955393 446.42723672 105.46082308 446.42116022 101.27202129 446.42367172 C97.44030903 446.42585776 93.60872967 446.41884994 89.77704513 446.40437467 C88.38814379 446.40074077 86.99922878 446.40049446 85.61032689 446.40390925 C83.72747165 446.40802716 81.84460118 446.3987253 79.96176815 446.38869667 C78.91438945 446.38728782 77.86701075 446.38587897 76.7878933 446.38442743 C74.01481804 446.12561115 72.39150101 445.65492641 70.07713985 444.13142776 C68.53576366 441.41566971 68.04984476 439.69097723 68.20213985 436.56892776 C69.29975872 433.5112752 70.56859162 432.18738628 73.07713985 430.13142776 C75.64256954 429.6773262 75.64256954 429.6773262 78.49901485 429.74080276 C79.4229504 429.750793 80.34688595 429.76078323 81.29881954 429.7710762 C82.46316525 429.80749222 83.62751095 429.84390823 84.82713985 429.88142776 C88.53963985 429.96392776 92.25213985 430.04642776 96.07713985 430.13142776 C96.07713985 416.27142776 96.07713985 402.41142776 96.07713985 388.13142776 C93.02504269 388.15237503 89.97294552 388.1733223 86.82836056 388.19490433 C76.70633108 388.26139811 66.58429156 388.30545231 56.46210098 388.33867645 C50.32934922 388.35948679 44.19682262 388.38768435 38.0642004 388.43318558 C32.13787488 388.47687739 26.21176496 388.50061408 20.28529072 388.51093674 C18.03242954 388.51828636 15.7795792 388.53263767 13.52681065 388.55434799 C-6.1428847 388.73624501 -21.66418734 386.62092835 -36.56348515 372.64705276 C-48.62839416 359.78314315 -51.07660116 345.11211159 -51.06330204 328.17815018 C-51.06627316 326.98879541 -51.06924428 325.79944064 -51.07230544 324.57404482 C-51.07945405 321.28988023 -51.08216228 318.00574762 -51.08290291 314.72157645 C-51.08476198 311.17267131 -51.09231353 307.62377732 -51.09903812 304.07487869 C-51.11258712 296.32259509 -51.11864073 288.57031668 -51.12304878 280.8180232 C-51.12581689 275.97214874 -51.13005526 271.12627626 -51.13455296 266.28040314 C-51.14674089 252.84811338 -51.1570413 239.41582521 -51.16042805 225.98353004 C-51.16064761 225.1247904 -51.16086718 224.26605075 -51.1610934 223.38128868 C-51.16131168 222.5205651 -51.16152995 221.65984152 -51.16175485 220.77303541 C-51.1621983 219.02905552 -51.16264487 217.28507562 -51.16309452 215.54109573 C-51.16331595 214.67603258 -51.16353738 213.81096942 -51.16376552 212.91969223 C-51.16771152 198.91020533 -51.18516163 184.9007705 -51.20845404 170.8913037 C-51.23220709 156.48784271 -51.24463169 142.08440781 -51.24579597 127.68092692 C-51.24671048 119.60203437 -51.25240627 111.52320971 -51.27061558 103.44433594 C-51.28606999 96.5637865 -51.29110567 89.68332594 -51.28287748 82.80276243 C-51.27898984 79.29719417 -51.27980728 75.79180459 -51.29393482 72.2862587 C-51.36639182 50.64263618 -51.3121459 30.98699732 -35.4033289 14.38533401 C-25.63571026 5.50987583 -13.25653921 0.016035 0 0 Z M-26.70411015 29.33845901 C-33.38228778 38.9465234 -35.07891138 47.64649307 -35.04311466 59.19206619 C-35.04397068 60.19931747 -35.0448267 61.20656876 -35.04570866 62.2443428 C-35.04736294 65.62778369 -35.04184164 69.011175 -35.03638554 72.39461136 C-35.0360792 74.85836981 -35.0362127 77.32212835 -35.03675079 79.78588676 C-35.03695374 85.71699052 -35.03266991 91.64807512 -35.02624946 97.57917408 C-35.01904375 104.44140121 -35.0182544 111.30362077 -35.01746464 118.16585159 C-35.01221631 136.27937938 -34.99825518 154.3929038 -34.98536015 172.50642776 C-34.96473515 212.97267776 -34.94411015 253.43892776 -34.92286015 295.13142776 C97.07713985 295.13142776 229.07713985 295.13142776 365.07713985 295.13142776 C365.11838985 254.72705276 365.15963985 214.32267776 365.20213985 172.69392776 C365.22034786 159.93293411 365.23855587 147.17194046 365.25731564 134.02425003 C365.26400422 122.59217507 365.26400422 122.59217507 365.26802731 111.16009903 C365.26989169 106.06547964 365.27722517 100.97089206 365.28829098 95.87628555 C365.30238722 89.37685664 365.30612154 82.87747075 365.30328441 76.37802684 C365.30387765 73.9933262 365.30784167 71.60862344 365.31557012 69.22393525 C365.32553219 66.00015712 365.32311445 62.77661337 365.31764889 59.55282974 C365.32638688 58.15679724 365.32638688 58.15679724 365.3353014 56.73256207 C365.28028807 44.64177825 362.27435708 34.92499101 353.9872961 25.95174026 C344.36890336 16.78574636 332.88718305 15.68371612 320.12355709 15.74374771 C318.72929198 15.73956822 317.33503027 15.73408734 315.9407748 15.7274279 C312.1327351 15.71303511 308.32491297 15.71719856 304.51686168 15.72459471 C300.40086631 15.72933945 296.28491713 15.71680501 292.16893673 15.7065773 C284.11435531 15.68940938 276.05985198 15.68854513 268.00525703 15.6937902 C261.45620044 15.69783695 254.90716687 15.69638236 248.35811138 15.69104195 C247.42485886 15.69029352 246.49160633 15.6895451 245.53007343 15.688774 C243.63397154 15.68724247 241.73786965 15.68570412 239.84176777 15.68415903 C222.07326541 15.67044121 204.30480712 15.6758666 186.53630577 15.68734425 C170.29462348 15.69727546 154.05305513 15.6843366 137.81139041 15.66041005 C121.11846085 15.63600474 104.42558433 15.62641473 87.73263729 15.63306278 C78.36721443 15.63655187 69.00187918 15.63434346 59.63646984 15.61681175 C51.6638075 15.60207185 43.69129445 15.60147766 35.71863498 15.61888266 C31.65430055 15.62738041 27.59023264 15.62957242 23.52591228 15.61423111 C19.79875764 15.60033713 16.07209664 15.60520685 12.34497021 15.62447035 C10.37197494 15.62997863 8.39895423 15.6159982 6.42600739 15.60111624 C-6.55716436 15.70773426 -18.28414873 18.90583138 -26.70411015 29.33845901 Z M156.07713985 330.13142776 C151.87977028 334.78256703 150.70498261 337.66478138 150.80370235 343.81502151 C151.30961139 348.10079375 153.37071252 350.67256501 156.58495235 353.42049026 C160.66572038 356.21059678 164.0890486 356.62047716 168.92870235 355.81111526 C173.08850645 354.49510452 175.95079638 352.00866689 178.2138586 348.23689651 C179.71612748 344.57299188 179.63019841 341.01632692 179.07713985 337.13142776 C177.07572373 333.27155381 174.98265736 330.13696378 171.07713985 328.13142776 C165.31510391 326.71019901 161.11129537 326.61922624 156.07713985 330.13142776 Z M221.8310461 357.67830276 C215.05433419 367.15664371 211.96485818 378.55674659 213.07713985 390.13142776 C215.42942588 402.95873748 221.12695084 414.00791364 231.84276485 421.68220901 C243.57460999 429.29150018 254.32144022 430.43133499 268.05199337 430.35847855 C269.55083871 430.35791352 271.0496846 430.35823277 272.54852962 430.35936356 C276.59337144 430.35993452 280.63809327 430.34822193 284.68290734 430.33421564 C288.91896176 430.32166536 293.1550193 430.32053441 297.39108944 430.31816483 C305.40190788 430.31196264 313.41267137 430.29556898 321.42346567 430.27546585 C330.54803959 430.25306747 339.67261622 430.24210353 348.79721081 430.23207498 C367.55721825 430.21120158 386.31717462 430.17605026 405.07713985 430.13142776 C404.27033196 426.81751436 403.4557454 423.50556265 402.63963985 420.19392776 C402.29449337 418.77563675 402.29449337 418.77563675 401.94237423 417.32869339 C401.72001095 416.4295723 401.49764767 415.5304512 401.2685461 414.60408401 C401.06431026 413.77143021 400.86007442 412.9387764 400.64964962 412.08089066 C400.25017344 410.14472492 400.25017344 410.14472492 399.07713985 409.13142776 C397.24772422 409.02711861 395.41425979 408.99343864 393.58188534 408.98666763 C392.38884792 408.97976913 391.19581051 408.97287064 389.96662045 408.96576309 C388.63228527 408.96304806 387.29794993 408.96041093 385.96361446 408.95784378 C384.56759591 408.95154179 383.17157938 408.9447764 381.77556515 408.93758011 C378.76135267 408.92288038 375.74714811 408.91116742 372.73291492 408.90163231 C367.96289954 408.8862036 363.19295101 408.86225175 358.42298031 408.83673477 C344.85600163 408.76547823 331.28898373 408.70585953 317.72191525 408.65462112 C310.23486203 408.62626922 302.74787442 408.59085608 295.26089007 408.54796737 C290.52386012 408.52125769 285.78690442 408.50331326 281.04981411 408.49193013 C278.09286675 408.48276799 275.13600893 408.46538829 272.17911434 408.44575119 C270.16488776 408.4347792 268.15061547 408.43352907 266.13635921 408.432621 C256.39481693 408.35455924 247.98260913 407.97146248 240.6669836 400.73689651 C236.02865626 395.1790174 234.68591642 387.9139347 235.2685461 380.79158401 C236.84736186 373.38110644 241.0574842 368.46557983 247.07713985 364.13142776 C251.28392449 362.44616064 254.82486089 361.87627602 259.34139156 361.85295486 C260.57810604 361.84179138 261.81482052 361.8306279 263.08901119 361.81912613 C264.44621914 361.81676158 265.80342742 361.81458586 267.16063595 361.81258011 C268.599932 361.80327489 270.03922269 361.79310534 271.47850704 361.78213882 C275.37471034 361.75489157 279.27087758 361.73970511 283.16715097 361.7267108 C287.24311573 361.71105712 291.31900712 361.68427404 295.3949194 361.65867996 C303.10828961 361.61193173 310.82167369 361.5751685 318.53511298 361.54200709 C327.3186854 361.50375773 336.10218406 361.45435494 344.88569427 361.40402293 C362.94945545 361.30076193 381.01326167 361.21148259 399.07713985 361.13142776 C400.66131856 356.55015421 401.9762584 351.94201909 403.20213985 347.25642776 C403.38389767 346.56806839 403.56565548 345.87970901 403.7529211 345.17049026 C404.19605211 343.49125696 404.63684029 341.8114057 405.07713985 340.13142776 C385.07494117 340.03780675 365.07278722 339.96736171 345.07041454 339.92417908 C335.78205427 339.90359182 326.49383047 339.87554494 317.20555782 339.82966995 C309.10580752 339.78968432 301.00615611 339.76396709 292.90630984 339.75507379 C288.62117147 339.74987881 284.33631592 339.73774962 280.05126858 339.70850754 C276.00962671 339.68115261 271.96838143 339.67302282 267.92665577 339.67899704 C266.45134665 339.6779057 264.97602286 339.670072 263.50079441 339.65460587 C246.36692001 339.48394082 233.05130853 344.34999103 221.8310461 357.67830276 Z " fill="#000000" transform="translate(68.92286014556885,32.86857223510742)"/>
<path d="M0 0 C5.14275783 4.10599428 8.52681512 9.90076893 9.75 16.375 C9.89158737 18.07949413 9.97008566 19.78989698 10 21.5 C10.02578125 22.36882812 10.0515625 23.23765625 10.078125 24.1328125 C9.75 27.375 9.75 27.375 6.75 37.375 C14.01 44.635 21.27 51.895 28.75 59.375 C32.71 57.395 36.67 55.415 40.75 53.375 C53.11190707 49.59775062 65.62212583 50.57584677 77.14697266 56.63525391 C79.36015959 57.86191763 81.5607779 59.1061385 83.75 60.375 C97.78393846 49.41904894 97.78393846 49.41904894 105.96875 34.69921875 C105.9712859 31.94681393 105.58823736 29.45487524 105.1875 26.7109375 C104.71757779 23.12778067 104.93069068 21.74621379 106.75 18.6875 C110.58534695 13.80418502 115.6036405 10.5001319 121.75 9.4375 C128.26443522 9.0430713 132.97526587 10.42389088 138.0625 14.5625 C142.90226674 19.18357394 144.85085131 23.64073515 145.1875 30.3125 C144.95646195 36.4026629 143.32801739 40.95018446 138.84375 45.16796875 C135.57404334 47.73615252 132.88318245 49.63651961 128.75 50.375 C127.08916775 50.1734635 125.42906159 49.96589627 123.76953125 49.75390625 C117.59854492 49.70565532 114.27111737 52.4875016 110.04055786 56.56973267 C109.0116976 57.60585388 107.99279584 58.65195066 106.98364258 59.70727539 C105.43176701 61.31845206 103.82924158 62.86201097 102.21289062 64.40820312 C96.89540804 69.40152514 96.89540804 69.40152514 94.49853516 75.99658203 C95.00815164 78.32687146 95.73703658 80.22282604 96.75 82.375 C100.5291502 95.41229058 96.62025432 107.7238759 90.75 119.375 C94.72610537 123.54897835 98.72788772 127.69587988 102.75561523 131.82006836 C104.12170064 133.22636613 105.4805178 134.6397627 106.83178711 136.06030273 C108.77667641 138.10232936 110.74636299 140.11731559 112.72265625 142.12890625 C113.61997215 143.08815758 113.61997215 143.08815758 114.53541565 144.06678772 C116.2150703 145.74819202 117.70733822 147.15890926 119.75 148.375 C123.48977962 148.4382201 123.48977962 148.4382201 126.75 147.375 C133.51834037 146.68458401 138.98489813 147.61560752 144.75 151.375 C150.60160743 156.61358189 153.66816207 161.72031943 154.125 169.625 C153.94914938 175.75908343 152.13364783 181.43557936 148.2421875 186.234375 C143.43260395 190.75314652 137.78642998 193.28354011 131.1640625 193.43359375 C123.1934283 192.87110155 118.14222022 190.35016294 112.75 184.375 C112.193125 183.776875 111.63625 183.17875 111.0625 182.5625 C109.12833325 179.33888875 108.09280836 176.09720211 107.75 172.375 C107.96769043 171.62065674 108.18538086 170.86631348 108.40966797 170.08911133 C109.34252472 166.78355372 109.43486092 164.77127381 108.75 161.375 C105.46802746 156.12812524 100.74700896 151.90132315 96.28271484 147.67285156 C94.12003301 145.62028591 92.00987815 143.52306899 89.90234375 141.4140625 C88.54968051 140.09087589 87.1943005 138.77045966 85.8359375 137.453125 C85.20239349 136.82625793 84.56884949 136.19939087 83.91610718 135.55352783 C80.49298265 132.14755951 80.49298265 132.14755951 75.93383789 131.45019531 C75.21317139 131.75538086 74.49250488 132.06056641 73.75 132.375 C73.08097656 132.6121875 72.41195312 132.849375 71.72265625 133.09375 C71.09230469 133.3515625 70.46195312 133.609375 69.8125 133.875 C62.87912392 136.5317142 55.62265448 137.66000534 48.48022461 135.29003906 C44.50874796 134.05724998 40.92812059 132.95137049 36.75 133.375 C32.10296648 135.93820723 28.82047047 139.1901183 25.30957031 143.12792969 C23.73888072 144.8874561 22.11082206 146.57263629 20.4609375 148.2578125 C19.42842255 149.34529783 18.3996288 150.43633114 17.375 151.53125 C16.89192383 152.03982544 16.40884766 152.54840088 15.91113281 153.0723877 C14.41086277 154.70235778 14.41086277 154.70235778 12.75 157.375 C12.79575025 160.0616524 12.79575025 160.0616524 13.75 162.375 C15.94611883 171.5986991 16.41169585 179.16299268 11.5625 187.625 C6.39498409 195.06081505 0.6468447 198.6716484 -8.25 200.375 C-16.23174794 201.26186088 -23.16176647 198.73709048 -30.0625 194.75 C-36.82494485 187.40791702 -39.65462002 180.15900153 -39.5234375 170.3203125 C-38.82670651 162.81552442 -35.7426218 156.86201619 -30.15625 151.84375 C-23.68260653 146.85586077 -17.40603565 145.32018793 -9.25 145.375 C-7.36667969 145.78250488 -7.36667969 145.78250488 -5.4453125 146.19824219 C-1.82342459 146.65572779 -1.39586552 146.47296477 1.86132812 144.28540039 C2.85801705 143.28729963 3.83055166 142.2646575 4.78125 141.22265625 C5.56332825 140.42147621 5.56332825 140.42147621 6.36120605 139.60411072 C8.01321276 137.90192697 9.63111771 136.17115739 11.25 134.4375 C12.36767684 133.27465632 13.48744938 132.11382307 14.609375 130.95507812 C17.3477354 128.11776235 20.05594036 125.25438712 22.75 122.375 C22.33790283 121.70460693 21.92580566 121.03421387 21.5012207 120.34350586 C20.96070068 119.45542236 20.42018066 118.56733887 19.86328125 117.65234375 C19.32743408 116.77570068 18.79158691 115.89905762 18.23950195 114.99584961 C12.10551705 104.20281111 11.74311559 92.23378392 14.75 80.375 C15.69034324 77.68102711 16.71060338 75.03345675 17.75 72.375 C14.48608363 68.91301658 11.19648981 65.47841438 7.88061523 62.06616211 C6.75700071 60.90236642 5.64067666 59.73148508 4.53198242 58.5534668 C2.93461702 56.85881448 1.31255625 55.19157625 -0.31640625 53.52734375 C-0.80524796 52.99721176 -1.29408966 52.46707977 -1.79774475 51.92088318 C-3.40116463 50.22983417 -3.40116463 50.22983417 -6.25 48.375 C-9.93543659 48.4117828 -9.93543659 48.4117828 -13.25 49.375 C-22.13666671 50.14775363 -29.10142926 48.46924306 -36.0625 42.75 C-41.63149733 37.44341616 -44.68150496 31.16882053 -45.27734375 23.46875 C-45.16877158 15.15522349 -42.69654402 8.66317333 -37.25 2.375 C-26.43101812 -7.87340678 -12.15014364 -8.20647601 0 0 Z " fill="#000000" transform="translate(118.25,91.625)"/>
<path d="M0 0 C0.72567673 -0.00700928 1.45135345 -0.01401855 2.19902039 -0.02124023 C4.5933581 -0.03881904 6.98651003 -0.02719894 9.38085938 -0.01367188 C11.04708076 -0.01636685 12.7133006 -0.02024931 14.3795166 -0.02526855 C17.86986276 -0.03116341 21.35979917 -0.02260137 24.85009766 -0.00390625 C29.322722 0.01888367 33.79438628 0.00576047 38.2669754 -0.01819611 C41.7071251 -0.03265465 45.14704741 -0.02804792 48.58720398 -0.01768494 C50.23622247 -0.01501779 51.88526165 -0.01828703 53.53425598 -0.02760315 C55.83979929 -0.03777017 58.14379095 -0.02226802 60.44921875 0 C61.76063843 0.00318237 63.07205811 0.00636475 64.42321777 0.00964355 C67.72460938 0.51757812 67.72460938 0.51757812 70.14416504 2.33508301 C72.48479326 5.56734469 72.33891029 7.62700564 71.72460938 11.51757812 C69.10873818 14.88141518 67.61900983 16.34750536 63.38562012 17.15249634 C61.4796405 17.15846329 61.4796405 17.15846329 59.53515625 17.16455078 C58.83044693 17.17331238 58.12573761 17.18207397 57.39967346 17.19110107 C55.08026769 17.21303033 52.76278303 17.19856794 50.44335938 17.18164062 C48.82580196 17.18501069 47.20824701 17.18986489 45.59069824 17.19613647 C42.20458815 17.20349894 38.81913862 17.19282332 35.43310547 17.16943359 C31.09828869 17.14094518 26.76501972 17.15735266 22.4302597 17.18729591 C19.09125155 17.20538642 15.7526088 17.19960305 12.41358948 17.18665695 C10.81563635 17.18332774 9.21764976 17.18739303 7.61973572 17.19905472 C5.38362099 17.21179366 3.14999254 17.19234993 0.9140625 17.16455078 C-0.35659058 17.16057281 -1.62724365 17.15659485 -2.93640137 17.15249634 C-7.16979108 16.34750536 -8.65951943 14.88141518 -11.27539062 11.51757812 C-11.88969154 7.62700564 -12.03557451 5.56734469 -9.69494629 2.33508301 C-6.37018107 -0.16239085 -4.13624796 0.01003728 0 0 Z " fill="#000000" transform="translate(320.275390625,203.482421875)"/>
<path d="M0 0 C0.70470932 -0.0087616 1.40941864 -0.01752319 2.13548279 -0.02655029 C4.45488856 -0.04847955 6.77237322 -0.03401716 9.09179688 -0.01708984 C10.70935429 -0.0204599 12.32690924 -0.02531411 13.94445801 -0.03158569 C17.3305681 -0.03894816 20.71601763 -0.02827254 24.10205078 -0.00488281 C28.43686756 0.0236056 32.77013653 0.00719812 37.10489655 -0.02274513 C40.4439047 -0.04083564 43.78254745 -0.03505227 47.12156677 -0.02210617 C48.7195199 -0.01877695 50.31750649 -0.02284225 51.91542053 -0.03450394 C54.15153526 -0.04724288 56.38516371 -0.02779915 58.62109375 0 C59.89174683 0.00397797 61.1623999 0.00795593 62.47155762 0.01205444 C66.70494733 0.81704542 68.19467568 2.2831356 70.81054688 5.64697266 C71.42484779 9.53754514 71.57073076 11.59720609 69.23010254 14.82946777 C65.90533732 17.32694163 63.67140421 17.1545135 59.53515625 17.16455078 C58.80947952 17.17156006 58.0838028 17.17856934 57.33613586 17.18579102 C54.94179815 17.20336982 52.54864622 17.19174972 50.15429688 17.17822266 C48.48807549 17.18091763 46.82185565 17.1848001 45.15563965 17.18981934 C41.66529349 17.19571419 38.17535708 17.18715215 34.68505859 17.16845703 C30.21243425 17.14566711 25.74076997 17.15879031 21.26818085 17.18274689 C17.82803115 17.19720543 14.38810884 17.1925987 10.94795227 17.18223572 C9.29893378 17.17956857 7.6498946 17.18283781 6.00090027 17.19215393 C3.69535696 17.20232095 1.3913653 17.1868188 -0.9140625 17.16455078 C-2.22548218 17.16136841 -3.53690186 17.15818604 -4.88806152 17.15490723 C-8.18945312 16.64697266 -8.18945312 16.64697266 -10.60900879 14.82946777 C-12.94963701 11.59720609 -12.80375404 9.53754514 -12.18945312 5.64697266 C-8.46758441 0.86089606 -5.97557925 0.01870743 0 0 Z " fill="#000000" transform="translate(321.189453125,157.35302734375)"/>
<path d="M0 0 C0.99569504 -0.00744736 0.99569504 -0.00744736 2.01150513 -0.01504517 C4.20649251 -0.0296439 6.4014076 -0.03646534 8.59643555 -0.04199219 C10.12477113 -0.04774604 11.6531067 -0.05350374 13.18144226 -0.05926514 C16.38675268 -0.06976897 19.59203807 -0.0756155 22.79736328 -0.07910156 C26.89633927 -0.08458148 30.99498227 -0.10860109 35.09385395 -0.13707352 C38.25179497 -0.15573664 41.40965643 -0.16090747 44.56764793 -0.16243744 C46.07826747 -0.1654568 47.58888585 -0.17346113 49.09945107 -0.18662262 C51.21759676 -0.20375882 53.33493731 -0.20178487 55.453125 -0.1953125 C56.6565303 -0.19895813 57.85993561 -0.20260376 59.09980774 -0.20635986 C62.82011912 0.20533853 65.23809819 1.21948984 68.4206543 3.16113281 C69.96652305 6.25287033 69.71424951 8.75542834 69.4206543 12.16113281 C67.85583496 14.35534668 67.85583496 14.35534668 65.4206543 16.16113281 C62.1192627 16.66906738 62.1192627 16.66906738 58.14526367 16.67871094 C57.41958694 16.68572021 56.69391022 16.69272949 55.94624329 16.69995117 C53.55190557 16.71752998 51.15875364 16.70590988 48.7644043 16.69238281 C47.09818292 16.69507779 45.43196307 16.69896025 43.76574707 16.70397949 C40.27540092 16.70987435 36.78546451 16.70131231 33.29516602 16.68261719 C28.82254167 16.65982726 24.3508774 16.67295047 19.87828827 16.69690704 C16.43813857 16.71136559 12.99821626 16.70675886 9.55805969 16.69639587 C7.9090412 16.69372872 6.26000202 16.69699797 4.61100769 16.70631409 C2.30546438 16.71648111 0.00147273 16.70097896 -2.30395508 16.67871094 C-3.61537476 16.67552856 -4.92679443 16.67234619 -6.2779541 16.66906738 C-9.5793457 16.16113281 -9.5793457 16.16113281 -12.00280762 14.34753418 C-14.30809712 11.15047337 -14.12803811 9.00197966 -13.5793457 5.16113281 C-9.76572823 0.16397888 -5.98512171 0.03402648 0 0 Z " fill="#000000" transform="translate(322.579345703125,111.8388671875)"/>
<path d="M0 0 C1.0304393 -0.00145523 2.0608786 -0.00291046 3.12254333 -0.00440979 C5.29876537 -0.00275109 7.47499916 0.00880684 9.65112305 0.02954102 C12.98732129 0.05851756 16.32193297 0.05014456 19.65820312 0.03710938 C21.77214316 0.04334607 23.88607817 0.05173647 26 0.0625 C27.00003555 0.05956436 28.00007111 0.05662872 29.03041077 0.05360413 C29.95824875 0.0662883 30.88608673 0.07897247 31.84204102 0.09204102 C33.06637596 0.10014549 33.06637596 0.10014549 34.31544495 0.1084137 C36.93606169 0.58805934 37.8268314 1.40703929 39.43359375 3.49609375 C39.83203125 5.65234375 39.83203125 5.65234375 39.80859375 7.99609375 C39.82019531 9.15625 39.82019531 9.15625 39.83203125 10.33984375 C39.33472069 13.03117151 38.61618397 13.87643404 36.43359375 15.49609375 C33.7135856 16.33145742 31.24017974 16.62888694 28.40283203 16.65722656 C27.62167023 16.66683411 26.84050842 16.67644165 26.03567505 16.68634033 C24.78244949 16.69271515 24.78244949 16.69271515 23.50390625 16.69921875 C22.63595428 16.70491882 21.76800232 16.7106189 20.87374878 16.7164917 C19.03970554 16.72592483 17.20564547 16.73246897 15.37158203 16.73632812 C12.5755439 16.74603491 9.7802408 16.77707439 6.984375 16.80859375 C5.1992231 16.81512433 3.41406596 16.82037459 1.62890625 16.82421875 C0.79747101 16.83656555 -0.03396423 16.84891235 -0.89059448 16.8616333 C-5.850884 16.84272923 -9.27371559 16.26464753 -13.56640625 13.49609375 C-15.11227501 10.40435623 -14.86000146 7.90179823 -14.56640625 4.49609375 C-11.1624843 -1.00264347 -5.78708184 -0.0651415 0 0 Z " fill="#000000" transform="translate(323.56640625,249.50390625)"/>
</svg>
