<?xml version="1.0" encoding="UTF-8"?>
<svg version="1.1" xmlns="http://www.w3.org/2000/svg" width="270" height="203">
<path d="M0 0 C89.1 0 178.2 0 270 0 C270 66.99 270 133.98 270 203 C180.9 203 91.8 203 0 203 C0 136.01 0 69.02 0 0 Z " fill="#9E8FAF" transform="translate(0,0)"/>
<path d="M0 0 C1.33224609 -0.00483398 1.33224609 -0.00483398 2.69140625 -0.00976562 C9.22312452 0.04458301 9.22312452 0.04458301 12.625 2.3125 C14.28049531 2.69749891 15.9472433 3.04043135 17.625 3.3125 C17.625 3.9725 17.625 4.6325 17.625 5.3125 C18.65625 5.395 19.6875 5.4775 20.75 5.5625 C24.95897057 6.37713946 27.30668257 7.64165914 30.625 10.3125 C30.625 10.9725 30.625 11.6325 30.625 12.3125 C31.285 12.3125 31.945 12.3125 32.625 12.3125 C33.12 13.3025 33.12 13.3025 33.625 14.3125 C34.615 14.6425 35.605 14.9725 36.625 15.3125 C39.625 18.75694444 39.625 18.75694444 39.625 21.3125 C40.285 21.3125 40.945 21.3125 41.625 21.3125 C50.71859612 38.54247159 53.10764308 53.54750137 47.625 72.3125 C46.965 72.3125 46.305 72.3125 45.625 72.3125 C45.625 73.3025 45.625 74.2925 45.625 75.3125 C44.965 75.3125 44.305 75.3125 43.625 75.3125 C43.295 77.2925 42.965 79.2725 42.625 81.3125 C41.14 81.8075 41.14 81.8075 39.625 82.3125 C38.50293313 84.22661407 37.68961491 86.14148119 36.90625 88.21484375 C35.15560791 91.08098645 33.02639697 92.29808595 30.1875 94.0625 C29.21941406 94.67609375 28.25132812 95.2896875 27.25390625 95.921875 C24.625 97.3125 24.625 97.3125 21.625 97.3125 C21.625 97.9725 21.625 98.6325 21.625 99.3125 C20.42875 99.786875 19.2325 100.26125 18 100.75 C17.32710938 101.01683594 16.65421875 101.28367187 15.9609375 101.55859375 C3.36119022 105.62506737 -12.40191733 104.76365959 -24.375 99.3125 C-24.375 98.6525 -24.375 97.9925 -24.375 97.3125 C-25.1175 97.209375 -25.86 97.10625 -26.625 97 C-29.5723519 96.26316203 -31.15883074 95.36450858 -33.375 93.3125 C-33.375 92.6525 -33.375 91.9925 -33.375 91.3125 C-33.99375 91.003125 -34.6125 90.69375 -35.25 90.375 C-36.625 89.6875 -38 89 -39.375 88.3125 C-39.375 87.3225 -39.375 86.3325 -39.375 85.3125 C-40.365 84.9825 -41.355 84.6525 -42.375 84.3125 C-44.99725892 82.39623387 -45.36038152 81.3802766 -46.0625 78.125 C-46.165625 77.196875 -46.26875 76.26875 -46.375 75.3125 C-47.035 75.3125 -47.695 75.3125 -48.375 75.3125 C-53.80447488 63.98142198 -54.46505802 47.35609934 -51.06640625 35.1875 C-48.7613085 28.93638744 -45.50470815 23.52897345 -41.375 18.3125 C-40.715 18.3125 -40.055 18.3125 -39.375 18.3125 C-39.045 17.3225 -38.715 16.3325 -38.375 15.3125 C-37.715 15.3125 -37.055 15.3125 -36.375 15.3125 C-36.045 14.3225 -35.715 13.3325 -35.375 12.3125 C-30.46609414 8.07777863 -25.85686757 5.58832415 -19.375 5.3125 C-19.375 4.6525 -19.375 3.9925 -19.375 3.3125 C-12.79533907 0.66561357 -7.06237361 -0.13156434 0 0 Z " fill="#8F4C8A" transform="translate(134.375,53.6875)"/>
<path d="M0 0 C0 0.99 0 1.98 0 3 C-0.99 3 -1.98 3 -3 3 C-3.2475 3.61875 -3.495 4.2375 -3.75 4.875 C-5.22770762 7.38710296 -6.43955177 7.76107344 -9 9 C-9.33 9.99 -9.66 10.98 -10 12 C-10.66 12 -11.32 12 -12 12 C-12.33 12.99 -12.66 13.98 -13 15 C-13.99 15.33 -14.98 15.66 -16 16 C-17.01187895 17.65948148 -18.0126546 19.32580562 -19 21 C-19.66 21 -20.32 21 -21 21 C-21 21.99 -21 22.98 -21 24 C-20.01 24 -19.02 24 -18 24 C-18 24.99 -18 25.98 -18 27 C-16.02 27 -14.04 27 -12 27 C-12 26.34 -12 25.68 -12 25 C-6.00196401 21.82373508 -0.82820111 19.82475024 6 21 C11.19684128 22.64022688 15.482276 24.71755339 19 29 C18.67 29.66 18.34 30.32 18 31 C17.34 31 16.68 31 16 31 C15.896875 31.639375 15.79375 32.27875 15.6875 32.9375 C15.460625 33.618125 15.23375 34.29875 15 35 C14.01 35.33 13.02 35.66 12 36 C11.34 35.34 10.68 34.68 10 34 C4.41582966 31.85224218 -2.28715996 32.85743199 -8 34 C-8.33 35.65 -8.66 37.3 -9 39 C-9.66 39 -10.32 39 -11 39 C-11.59026322 47.51875755 -11.59026322 47.51875755 -8 55 C-8 55.66 -8 56.32 -8 57 C-4.29870703 58.69895415 -1.37833604 59.27218737 2.6875 59.25 C4.11642578 59.25773437 4.11642578 59.25773437 5.57421875 59.265625 C8.18101364 59.23627741 8.18101364 59.23627741 10 57 C12.375 56.625 12.375 56.625 15 57 C17.375 58.75 17.375 58.75 19 61 C19 63.125 19 63.125 18 65 C15.41847698 66.72101535 14.15081975 67 11 67 C11 67.66 11 68.32 11 69 C5.54045091 70.8198497 -0.49017726 70.37745568 -6 69 C-6 68.34 -6 67.68 -6 67 C-8.97 66.505 -8.97 66.505 -12 66 C-12 65.34 -12 64.68 -12 64 C-13.32 64 -14.64 64 -16 64 C-16.66 64.99 -17.32 65.98 -18 67 C-18.99 67 -19.98 67 -21 67 C-21 68.65 -21 70.3 -21 72 C-19.515 72.495 -19.515 72.495 -18 73 C-18 73.66 -18 74.32 -18 75 C-17.10474609 75.14115234 -17.10474609 75.14115234 -16.19140625 75.28515625 C-13.50761579 76.16061731 -12.65730321 77.23156574 -10.9375 79.4375 C-8.98931914 81.91277489 -7.69367114 83.20421924 -5 85 C-5 85.66 -5 86.32 -5 87 C-4.34 87 -3.68 87 -3 87 C-3 87.99 -3 88.98 -3 90 C-2.01 90.495 -2.01 90.495 -1 91 C-8.59570439 91.58179863 -14.14115041 90.26889853 -21 87 C-21 86.34 -21 85.68 -21 85 C-22.2065625 84.814375 -22.2065625 84.814375 -23.4375 84.625 C-24.7059375 84.315625 -24.7059375 84.315625 -26 84 C-26.495 83.01 -26.495 83.01 -27 82 C-28.485 81.505 -28.485 81.505 -30 81 C-31.6875 79.625 -31.6875 79.625 -33 78 C-33 77.01 -33 76.02 -33 75 C-33.99 74.67 -34.98 74.34 -36 74 C-37.53515625 71.671875 -37.53515625 71.671875 -39.0625 68.75 C-39.82240234 67.31914062 -39.82240234 67.31914062 -40.59765625 65.859375 C-45.32772746 56.21477297 -46.91015386 45.16516229 -44.10546875 34.64453125 C-43.15463477 32.04737695 -42.14962325 29.51480086 -41 27 C-40.34 27 -39.68 27 -39 27 C-38.67 25.02 -38.34 23.04 -38 21 C-37.34 21 -36.68 21 -36 21 C-35.67 19.35 -35.34 17.7 -35 16 C-34.34 16 -33.68 16 -33 16 C-32.731875 15.360625 -32.46375 14.72125 -32.1875 14.0625 C-31 12 -31 12 -28 11 C-27.278125 10.236875 -26.55625 9.47375 -25.8125 8.6875 C-18.60581871 1.80111566 -9.73781183 -0.38951247 0 0 Z " fill="#BF85BC" transform="translate(131,60)"/>
<path d="M0 0 C1.33224609 -0.00483398 1.33224609 -0.00483398 2.69140625 -0.00976562 C9.22312452 0.04458301 9.22312452 0.04458301 12.625 2.3125 C14.28049531 2.69749891 15.9472433 3.04043135 17.625 3.3125 C17.625 3.9725 17.625 4.6325 17.625 5.3125 C18.65625 5.395 19.6875 5.4775 20.75 5.5625 C24.95897057 6.37713946 27.30668257 7.64165914 30.625 10.3125 C30.625 10.9725 30.625 11.6325 30.625 12.3125 C31.285 12.3125 31.945 12.3125 32.625 12.3125 C33.12 13.3025 33.12 13.3025 33.625 14.3125 C34.615 14.6425 35.605 14.9725 36.625 15.3125 C39.625 18.75694444 39.625 18.75694444 39.625 21.3125 C40.285 21.3125 40.945 21.3125 41.625 21.3125 C50.71859612 38.54247159 53.10764308 53.54750137 47.625 72.3125 C46.965 72.3125 46.305 72.3125 45.625 72.3125 C45.625 73.3025 45.625 74.2925 45.625 75.3125 C44.965 75.3125 44.305 75.3125 43.625 75.3125 C43.295 77.2925 42.965 79.2725 42.625 81.3125 C41.14 81.8075 41.14 81.8075 39.625 82.3125 C38.50293313 84.22661407 37.68961491 86.14148119 36.90625 88.21484375 C35.15560791 91.08098645 33.02639697 92.29808595 30.1875 94.0625 C29.21941406 94.67609375 28.25132812 95.2896875 27.25390625 95.921875 C24.625 97.3125 24.625 97.3125 21.625 97.3125 C21.625 97.9725 21.625 98.6325 21.625 99.3125 C20.42875 99.786875 19.2325 100.26125 18 100.75 C17.32710938 101.01683594 16.65421875 101.28367187 15.9609375 101.55859375 C3.36119022 105.62506737 -12.40191733 104.76365959 -24.375 99.3125 C-24.375 98.6525 -24.375 97.9925 -24.375 97.3125 C-25.1175 97.209375 -25.86 97.10625 -26.625 97 C-29.5723519 96.26316203 -31.15883074 95.36450858 -33.375 93.3125 C-33.375 92.6525 -33.375 91.9925 -33.375 91.3125 C-33.99375 91.003125 -34.6125 90.69375 -35.25 90.375 C-36.625 89.6875 -38 89 -39.375 88.3125 C-39.375 87.3225 -39.375 86.3325 -39.375 85.3125 C-40.365 84.9825 -41.355 84.6525 -42.375 84.3125 C-44.99725892 82.39623387 -45.36038152 81.3802766 -46.0625 78.125 C-46.165625 77.196875 -46.26875 76.26875 -46.375 75.3125 C-47.035 75.3125 -47.695 75.3125 -48.375 75.3125 C-53.80447488 63.98142198 -54.46505802 47.35609934 -51.06640625 35.1875 C-48.7613085 28.93638744 -45.50470815 23.52897345 -41.375 18.3125 C-40.715 18.3125 -40.055 18.3125 -39.375 18.3125 C-39.045 17.3225 -38.715 16.3325 -38.375 15.3125 C-37.715 15.3125 -37.055 15.3125 -36.375 15.3125 C-36.045 14.3225 -35.715 13.3325 -35.375 12.3125 C-30.46609414 8.07777863 -25.85686757 5.58832415 -19.375 5.3125 C-19.375 4.6525 -19.375 3.9925 -19.375 3.3125 C-12.79533907 0.66561357 -7.06237361 -0.13156434 0 0 Z M-31.375 17.3125 C-32.2825 17.84875 -33.19 18.385 -34.125 18.9375 C-34.8675 19.39125 -35.61 19.845 -36.375 20.3125 C-36.375 20.9725 -36.375 21.6325 -36.375 22.3125 C-37.035 22.3125 -37.695 22.3125 -38.375 22.3125 C-38.705 23.9625 -39.035 25.6125 -39.375 27.3125 C-40.035 27.3125 -40.695 27.3125 -41.375 27.3125 C-41.705 29.2925 -42.035 31.2725 -42.375 33.3125 C-43.035 33.3125 -43.695 33.3125 -44.375 33.3125 C-48.71514645 42.80657037 -49.67881738 51.79341311 -47.625 62.0625 C-47.2125 63.135 -46.8 64.2075 -46.375 65.3125 C-45.93800781 66.51326172 -45.93800781 66.51326172 -45.4921875 67.73828125 C-43.62389088 72.70324275 -41.67226932 77.13595886 -38.375 81.3125 C-37.715 81.3125 -37.055 81.3125 -36.375 81.3125 C-36.375 82.3025 -36.375 83.2925 -36.375 84.3125 C-34.43676821 86.71221554 -33.38109963 87.31046679 -30.375 88.3125 C-29.88 88.828125 -29.385 89.34375 -28.875 89.875 C-27.36027194 91.65845268 -27.36027194 91.65845268 -24.375 91.3125 C-24.375 91.9725 -24.375 92.6325 -24.375 93.3125 C-22.10430578 94.12539053 -19.83345099 94.93782738 -17.5625 95.75 C-16.91990234 95.98009766 -16.27730469 96.21019531 -15.61523438 96.44726562 C-7.1298672 99.55725765 -7.1298672 99.55725765 1.75 98.6875 C4.52366618 96.65347813 6.43647921 93.94994813 8.625 91.3125 C9.615 90.9825 10.605 90.6525 11.625 90.3125 C13.44461805 88.5922466 13.44461805 88.5922466 15.1875 86.5 C16.08662109 85.46939453 16.08662109 85.46939453 17.00390625 84.41796875 C18.52148749 82.44694155 19.60402958 80.57285739 20.625 78.3125 C21.285 78.3125 21.945 78.3125 22.625 78.3125 C23.223125 77.405 23.82125 76.4975 24.4375 75.5625 C26.57269518 72.39021001 28.64294652 70.63187493 31.625 68.3125 C31.625 67.6525 31.625 66.9925 31.625 66.3125 C32.285 66.3125 32.945 66.3125 33.625 66.3125 C33.955 65.3225 34.285 64.3325 34.625 63.3125 C36.27571396 62.28638051 37.94470006 61.28941857 39.625 60.3125 C41.91789472 58.35440477 41.91789472 58.35440477 43.625 56.3125 C43.625 55.6525 43.625 54.9925 43.625 54.3125 C44.285 54.3125 44.945 54.3125 45.625 54.3125 C45.295 52.6625 44.965 51.0125 44.625 49.3125 C43.14 48.8175 43.14 48.8175 41.625 48.3125 C41.625 47.3225 41.625 46.3325 41.625 45.3125 C40.635 45.3125 39.645 45.3125 38.625 45.3125 C38.625 44.3225 38.625 43.3325 38.625 42.3125 C37.965 42.3125 37.305 42.3125 36.625 42.3125 C36.295 41.3225 35.965 40.3325 35.625 39.3125 C34.965 39.3125 34.305 39.3125 33.625 39.3125 C33.625 38.6525 33.625 37.9925 33.625 37.3125 C32.965 37.3125 32.305 37.3125 31.625 37.3125 C31.625 36.6525 31.625 35.9925 31.625 35.3125 C30.965 35.3125 30.305 35.3125 29.625 35.3125 C29.625 34.6525 29.625 33.9925 29.625 33.3125 C28.35443475 31.62517956 28.35443475 31.62517956 26.625 30.3125 C25.635 30.3125 24.645 30.3125 23.625 30.3125 C23.875 27.4375 23.875 27.4375 24.625 24.3125 C26.5625 23.1875 26.5625 23.1875 28.625 22.3125 C29.76527964 20.30308127 29.76527964 20.30308127 30.625 18.3125 C29.37812408 17.35010548 28.12735031 16.39275991 26.875 15.4375 C26.17890625 14.90382813 25.4828125 14.37015625 24.765625 13.8203125 C21.58110573 11.57720221 19.56932537 10.3125 15.625 10.3125 C15.625 9.6525 15.625 8.9925 15.625 8.3125 C13.08453542 7.80561395 10.54291124 7.30683126 8 6.8125 C6.93072266 6.59787109 6.93072266 6.59787109 5.83984375 6.37890625 C-7.72862788 3.76479704 -21.73895597 6.98816711 -31.375 17.3125 Z " fill="#693A68" transform="translate(134.375,53.6875)"/>
<path d="M0 0 C7.53216715 0.44238385 14.6802723 1.13905228 22 3 C22 3.66 22 4.32 22 5 C22.56460938 5.11730469 23.12921875 5.23460938 23.7109375 5.35546875 C26.236883 6.06669914 28.31712478 7.06593863 30.625 8.3125 C31.40101563 8.72113281 32.17703125 9.12976563 32.9765625 9.55078125 C35.22888685 11.16393247 35.99030549 12.45404986 37 15 C35.71034824 16.37562854 34.37310707 17.70766393 33 19 C32.34 19 31.68 19 31 19 C31 19.99 31 20.98 31 22 C30.34 22 29.68 22 29 22 C28.9071875 22.928125 28.9071875 22.928125 28.8125 23.875 C28.544375 24.57625 28.27625 25.2775 28 26 C26.34795544 26.70211894 24.68076231 27.36971413 23 28 C22.505 29.485 22.505 29.485 22 31 C21.505 29.515 21.505 29.515 21 28 C19.35369807 26.88064927 19.35369807 26.88064927 17 26 C16.43023437 25.73960938 15.86046875 25.47921875 15.2734375 25.2109375 C10.17746318 23.03855004 5.5215308 22.20244555 0 23 C-3.30101131 24.39924945 -3.30101131 24.39924945 -6 26 C-6.99 26 -7.98 26 -9 26 C-9 26.66 -9 27.32 -9 28 C-12.75 29.125 -12.75 29.125 -15 28 C-15 27.01 -15 26.02 -15 25 C-15.99 25 -16.98 25 -18 25 C-18 22 -18 22 -16.625 20.5 C-16.08875 20.005 -15.5525 19.51 -15 19 C-14.34 18.01 -13.68 17.02 -13 16 C-12.01 15.67 -11.02 15.34 -10 15 C-8.65576661 13.34211215 -7.32381517 11.67423683 -6 10 C-4.34466005 8.65263027 -2.67987227 7.31665664 -1 6 C-0.67 5.34 -0.34 4.68 0 4 C0.99 4 1.98 4 3 4 C3 3.01 3 2.02 3 1 C2.01 0.67 1.02 0.34 0 0 Z " fill="#924C8E" transform="translate(128,59)"/>
<path d="M0 0 C2.38175199 1.40999718 4.1974846 3.01894864 5.953125 5.15625 C5.623125 5.81625 5.293125 6.47625 4.953125 7.15625 C4.293125 7.15625 3.633125 7.15625 2.953125 7.15625 C2.85 7.795625 2.746875 8.435 2.640625 9.09375 C2.41375 9.774375 2.186875 10.455 1.953125 11.15625 C0.963125 11.48625 -0.026875 11.81625 -1.046875 12.15625 C-1.706875 11.49625 -2.366875 10.83625 -3.046875 10.15625 C-8.63104534 8.00849218 -15.33403496 9.01368199 -21.046875 10.15625 C-21.376875 11.80625 -21.706875 13.45625 -22.046875 15.15625 C-22.706875 15.15625 -23.366875 15.15625 -24.046875 15.15625 C-24.63713822 23.67500755 -24.63713822 23.67500755 -21.046875 31.15625 C-21.046875 31.81625 -21.046875 32.47625 -21.046875 33.15625 C-17.34558203 34.85520415 -14.42521104 35.42843737 -10.359375 35.40625 C-8.93044922 35.41398437 -8.93044922 35.41398437 -7.47265625 35.421875 C-4.86586136 35.39252741 -4.86586136 35.39252741 -3.046875 33.15625 C-0.671875 32.78125 -0.671875 32.78125 1.953125 33.15625 C4.328125 34.90625 4.328125 34.90625 5.953125 37.15625 C5.953125 39.28125 5.953125 39.28125 4.953125 41.15625 C2.37160198 42.87726535 1.10394475 43.15625 -2.046875 43.15625 C-2.046875 43.81625 -2.046875 44.47625 -2.046875 45.15625 C-7.50642409 46.9760997 -13.53705226 46.53370568 -19.046875 45.15625 C-19.046875 44.49625 -19.046875 43.83625 -19.046875 43.15625 C-21.026875 42.82625 -23.006875 42.49625 -25.046875 42.15625 C-25.046875 41.49625 -25.046875 40.83625 -25.046875 40.15625 C-26.036875 39.82625 -27.026875 39.49625 -28.046875 39.15625 C-28.046875 38.49625 -28.046875 37.83625 -28.046875 37.15625 C-29.036875 36.82625 -30.026875 36.49625 -31.046875 36.15625 C-34.23806922 31.32110725 -34.43079311 27.35146605 -34.234375 21.78125 C-34.22083984 21.04519531 -34.20730469 20.30914062 -34.19335938 19.55078125 C-34.15832369 17.75228257 -34.10452788 15.95416578 -34.046875 14.15625 C-33.386875 14.15625 -32.726875 14.15625 -32.046875 14.15625 C-31.94375 13.41375 -31.840625 12.67125 -31.734375 11.90625 C-30.99753703 8.9588981 -30.09888358 7.37241926 -28.046875 5.15625 C-27.386875 5.15625 -26.726875 5.15625 -26.046875 5.15625 C-25.964375 4.54265625 -25.881875 3.9290625 -25.796875 3.296875 C-25.046875 1.15625 -25.046875 1.15625 -23.296875 -0.109375 C-14.81486906 -3.8202526 -8.39752352 -4.11067585 0 0 Z " fill="#F7EDF6" transform="translate(144.046875,83.84375)"/>
<path d="M0 0 C2.46880968 3.70321452 2.3426285 6.58592537 2.3125 10.875 C2.31121094 11.62644287 2.30992187 12.37788574 2.30859375 13.15209961 C2.1914754 20.0628141 0.94097506 26.35678178 -1 33 C-2.18335938 33.20496094 -2.18335938 33.20496094 -3.390625 33.4140625 C-6.28936628 34.06497746 -7.21498359 34.67947867 -9 37 C-9.33 37.99 -9.66 38.98 -10 40 C-10.66 40 -11.32 40 -12 40 C-12 40.66 -12 41.32 -12 42 C-12.66 42 -13.32 42 -14 42 C-14.2475 42.7425 -14.495 43.485 -14.75 44.25 C-16.15924398 47.35033675 -17.32034132 48.89972698 -20 51 C-23.5625 52.1875 -23.5625 52.1875 -27 53 C-28.485 53.495 -28.485 53.495 -30 54 C-30.33 54.99 -30.66 55.98 -31 57 C-35.62 57.33 -40.24 57.66 -45 58 C-42.5 53 -42.5 53 -40 51 C-39.01 51 -38.02 51 -37 51 C-36.7421875 50.42765625 -36.484375 49.8553125 -36.21875 49.265625 C-34.88634058 46.78871005 -33.34943882 44.8658834 -31.5 42.75 C-30.8915625 42.04359375 -30.283125 41.3371875 -29.65625 40.609375 C-28 39 -28 39 -26 39 C-25.6596875 37.9171875 -25.6596875 37.9171875 -25.3125 36.8125 C-23.73664872 33.43567583 -21.79123384 31.44232961 -19 29 C-18.34 29 -17.68 29 -17 29 C-17 28.34 -17 27.68 -17 27 C-16.34 27 -15.68 27 -15 27 C-14.9071875 26.071875 -14.9071875 26.071875 -14.8125 25.125 C-14.544375 24.42375 -14.27625 23.7225 -14 23 C-12.34795544 22.29788106 -10.68076231 21.63028587 -9 21 C-8.505 19.515 -8.505 19.515 -8 18 C-6.5625 16.3125 -6.5625 16.3125 -5 15 C-4.34 15 -3.68 15 -3 15 C-2.814375 14.071875 -2.814375 14.071875 -2.625 13.125 C-2 11 -2 11 0 9 C0.24253813 6.78927023 0.24253813 6.78927023 0.125 4.375 C0.10695312 3.55773437 0.08890625 2.74046875 0.0703125 1.8984375 C0.04710937 1.27195312 0.02390625 0.64546875 0 0 Z " fill="#6C3969" transform="translate(183,93)"/>
<path d="M0 0 C2.64 0 5.28 0 8 0 C6.625 1.5 6.625 1.5 5 3 C4.34 3 3.68 3 3 3 C1.76760136 6.82900359 1.84884855 10.64478394 1.84609985 14.62254333 C1.8417176 15.3942246 1.83733535 16.16590587 1.8328203 16.96097142 C1.81945718 19.54877186 1.81325914 22.13653827 1.80712891 24.72436523 C1.79922625 26.5788895 1.7909572 28.43341223 1.78234863 30.28793335 C1.75615699 36.3781386 1.74082821 42.46835064 1.7265625 48.55859375 C1.72120247 50.6548011 1.71582496 52.7510084 1.71043015 54.84721565 C1.68880953 63.56383258 1.67007088 72.28044767 1.65880775 80.99708462 C1.64255332 93.49422017 1.6093299 105.9910456 1.55240691 118.48806423 C1.51375001 127.27371303 1.49418036 136.05927871 1.48888719 144.84501034 C1.48522917 150.09400831 1.47315915 155.34267529 1.44078445 160.59158134 C1.4107771 165.52712863 1.40436573 170.46214333 1.41616821 175.3977623 C1.41638953 177.20981262 1.4080363 179.02188715 1.39051437 180.83385277 C1.3679013 183.30670477 1.37607941 185.77761234 1.39199829 188.25047302 C1.3781162 188.96856956 1.36423412 189.68666611 1.34993136 190.42652315 C1.40613054 193.96610343 1.970144 195.95353377 3.89230824 198.94508362 C8.36597613 201.90323202 12.07260051 201.69152379 17.33106995 201.62818909 C18.38199276 201.63528347 19.43291558 201.64237786 20.51568455 201.64968723 C24.04280901 201.66731187 27.56883807 201.64913858 31.09594727 201.63110352 C33.62218733 201.63624055 36.14842381 201.64352019 38.6746521 201.65278625 C44.82700811 201.66940769 50.97895688 201.66264841 57.13129754 201.64469803 C62.13069046 201.63067437 67.12999717 201.62677871 72.12940788 201.6301403 C72.84084338 201.63061775 73.55227888 201.63109519 74.28527303 201.6315871 C75.73051145 201.63261342 77.17574986 201.63366878 78.62098824 201.63475286 C91.40062799 201.64332058 104.18011437 201.62664198 116.9597168 201.59692383 C129.36342815 201.56808013 141.7669186 201.56100561 154.1706543 201.57641602 C167.67564633 201.59317162 181.18053347 201.59721943 194.68552822 201.57970566 C196.12515476 201.57786125 197.56478132 201.57602652 199.00440788 201.57420158 C200.06691571 201.57283345 200.06691571 201.57283345 201.15088834 201.57143768 C206.1454615 201.56582874 211.13998351 201.56914271 216.13455391 201.57574654 C222.85445857 201.58427883 229.57399655 201.57134181 236.2938652 201.54389763 C238.76422998 201.53699413 241.23462448 201.53693671 243.70498848 201.54411316 C247.06899004 201.55276165 250.43199569 201.53692882 253.7959137 201.5146637 C255.27328132 201.52702485 255.27328132 201.52702485 256.78049475 201.53963572 C262.03114369 201.55270491 262.03114369 201.55270491 266.51275539 199.09283352 C267.24894147 198.05688093 267.24894147 198.05688093 268 197 C268.66 196.34 269.32 195.68 270 195 C270 197.64 270 200.28 270 203 C180.9 203 91.8 203 0 203 C0 136.01 0 69.02 0 0 Z " fill="#FDFDFD" transform="translate(0,0)"/>
<path d="M0 0 C0 3 0 3 -2.375 5.6875 C-5 8 -5 8 -7 8 C-7.33 9.98 -7.66 11.96 -8 14 C-7.01 14.33 -6.02 14.66 -5 15 C-5 15.66 -5 16.32 -5 17 C-4.34 17 -3.68 17 -3 17 C-3 17.66 -3 18.32 -3 19 C-1.02 19.66 0.96 20.32 3 21 C3 21.66 3 22.32 3 23 C1.7934375 23.4640625 1.7934375 23.4640625 0.5625 23.9375 C-1.89080405 24.76335345 -1.89080405 24.76335345 -3 26 C-7.78656172 26.41761948 -12.39171214 26.58172114 -16.9375 24.9375 C-20.45432765 21.63381342 -22.7158658 18.41119438 -23.28125 13.61328125 C-23.35724097 7.71448195 -23.35724097 7.71448195 -22 5 C-21.34 5 -20.68 5 -20 5 C-19.67 3.35 -19.34 1.7 -19 0 C-12.50765041 -2.59693984 -6.43380148 -3.21690074 0 0 Z " fill="#9D5497" transform="translate(142,94)"/>
<path d="M0 0 C0 0.99 0 1.98 0 3 C-0.99 3 -1.98 3 -3 3 C-3.2475 3.61875 -3.495 4.2375 -3.75 4.875 C-5.22770762 7.38710296 -6.43955177 7.76107344 -9 9 C-9.33 9.99 -9.66 10.98 -10 12 C-10.66 12 -11.32 12 -12 12 C-12.33 12.99 -12.66 13.98 -13 15 C-13.99 15.33 -14.98 15.66 -16 16 C-17.01187895 17.65948148 -18.0126546 19.32580562 -19 21 C-19.66 21 -20.32 21 -21 21 C-21.33 21.66 -21.66 22.32 -22 23 C-22 22.34 -22 21.68 -22 21 C-22.66 21 -23.32 21 -24 21 C-24 20.01 -24 19.02 -24 18 C-24.66 18 -25.32 18 -26 18 C-26.45375 17.525625 -26.9075 17.05125 -27.375 16.5625 C-29.22977487 14.77906263 -30.50135592 14.4308007 -33 14 C-32.278125 13.608125 -31.55625 13.21625 -30.8125 12.8125 C-27.91310441 11.10121411 -27.91310441 11.10121411 -25.6875 8.5625 C-18.53510928 1.74277861 -9.63787107 -0.38551484 0 0 Z " fill="#B87AB4" transform="translate(131,60)"/>
<path d="M0 0 C86.46 0 172.92 0 262 0 C262 2.31 262 4.62 262 7 C261.38863347 6.18818425 260.77726694 5.3763685 260.14737415 4.53995228 C256.94178546 1.37069485 253.98791458 1.39314716 249.62810296 1.32842034 C248.64269345 1.3390936 247.65728395 1.34976686 246.64201355 1.36076355 C245.58826847 1.35240787 244.53452339 1.3440522 243.44884664 1.33544332 C239.91242171 1.31346901 236.37703077 1.32713488 232.84057617 1.34057617 C230.30784311 1.3321258 227.77511656 1.32148302 225.24240112 1.30880737 C219.78683872 1.28644478 214.33159555 1.2793581 208.87599754 1.28615379 C200.98822441 1.29595271 193.10070182 1.27822112 185.21296922 1.25378648 C172.41549283 1.21488933 159.61808808 1.1982335 146.82055664 1.19555664 C134.38952968 1.19290883 121.95858643 1.17979116 109.52758789 1.15258789 C108.76124364 1.15091451 107.9948994 1.14924113 107.2053326 1.14751705 C103.36077906 1.13905753 99.51622602 1.13039212 95.67167318 1.12162435 C63.78112364 1.04916205 31.89063084 1.01316234 0 1 C0 0.67 0 0.34 0 0 Z " fill="#BEACC7" transform="translate(8,0)"/>
<path d="M0 0 C0 0.66 0 1.32 0 2 C0.66 2 1.32 2 2 2 C2 2.99 2 3.98 2 5 C2.66 5 3.32 5 4 5 C4 5.99 4 6.98 4 8 C3.443125 8.226875 2.88625 8.45375 2.3125 8.6875 C-1.66580458 10.94545665 -4.40234879 14.23159131 -7.1875 17.8125 C-7.785625 18.534375 -8.38375 19.25625 -9 20 C-9.66 20 -10.32 20 -11 20 C-11.2475 20.61875 -11.495 21.2375 -11.75 21.875 C-13.22047178 24.37480203 -14.41403076 24.83316022 -17 26 C-16.85930804 23.87465341 -16.71229079 21.74972471 -16.5625 19.625 C-16.48128906 18.44164063 -16.40007812 17.25828125 -16.31640625 16.0390625 C-16 13 -16 13 -15 11 C-14.34 11 -13.68 11 -13 11 C-12.67 9.02 -12.34 7.04 -12 5 C-11.34 5 -10.68 5 -10 5 C-9.9175 4.21625 -9.835 3.4325 -9.75 2.625 C-9 0 -9 0 -7.25 -1.4375 C-4.25020339 -2.18744915 -2.7110745 -1.35553725 0 0 Z " fill="#C993C5" transform="translate(105,76)"/>
<path d="M0 0 C0.33 0.99 0.66 1.98 1 3 C1.99 3.33 2.98 3.66 4 4 C4 4.66 4 5.32 4 6 C4.59683594 6.09410156 5.19367188 6.18820313 5.80859375 6.28515625 C8.49238421 7.16061731 9.34269679 8.23156574 11.0625 10.4375 C13.01068086 12.91277489 14.30632886 14.20421924 17 16 C17 16.66 17 17.32 17 18 C17.66 18 18.32 18 19 18 C19 18.99 19 19.98 19 21 C19.66 21.33 20.32 21.66 21 22 C13.40429561 22.58179863 7.85884959 21.26889853 1 18 C1 17.34 1 16.68 1 16 C0.195625 15.87625 -0.60875 15.7525 -1.4375 15.625 C-2.283125 15.41875 -3.12875 15.2125 -4 15 C-4.33 14.34 -4.66 13.68 -5 13 C-5.99 12.67 -6.98 12.34 -8 12 C-8.33 11.01 -8.66 10.02 -9 9 C-8.030625 8.38125 -7.06125 7.7625 -6.0625 7.125 C-2.97164638 5.34321154 -2.97164638 5.34321154 -2 3 C-1.34 3 -0.68 3 0 3 C0 2.01 0 1.02 0 0 Z " fill="#BA7CB7" transform="translate(109,129)"/>
<path d="M0 0 C0.99 0.495 0.99 0.495 2 1 C1.01 1.495 1.01 1.495 0 2 C0 1.34 0 0.68 0 0 Z M-2 2 C-1.34 2.33 -0.68 2.66 0 3 C-0.433125 3.37511719 -0.86625 3.75023438 -1.3125 4.13671875 C-4.98563624 7.35744333 -4.98563624 7.35744333 -6.375 11.875 C-6.25125 12.57625 -6.1275 13.2775 -6 14 C-4.68 14.33 -3.36 14.66 -2 15 C-1.25 17.25 -1.25 17.25 -1 20 C-3.63001147 23.57681559 -6.97997685 25.25216385 -11 27 C-11.66 27 -12.32 27 -13 27 C-13.33 27.99 -13.66 28.98 -14 30 C-18.62 30.33 -23.24 30.66 -28 31 C-25.5 26 -25.5 26 -23 24 C-22.01 24 -21.02 24 -20 24 C-19.7421875 23.42765625 -19.484375 22.8553125 -19.21875 22.265625 C-17.88634058 19.78871005 -16.34943882 17.8658834 -14.5 15.75 C-13.8915625 15.04359375 -13.283125 14.3371875 -12.65625 13.609375 C-11 12 -11 12 -9 12 C-8.773125 11.278125 -8.54625 10.55625 -8.3125 9.8125 C-6.75168987 6.46790687 -4.6968713 4.48396041 -2 2 Z " fill="#83427D" transform="translate(166,120)"/>
<path d="M0 0 C2.64 0 5.28 0 8 0 C6.625 1.5 6.625 1.5 5 3 C4.34 3 3.68 3 3 3 C1.77979802 6.80568328 1.84721131 10.58945968 1.84178162 14.54229736 C1.83684364 15.3052558 1.83190566 16.06821424 1.82681805 16.85429263 C1.81145289 19.41229968 1.80308508 21.97028164 1.79467773 24.52832031 C1.78509844 26.36140158 1.77508833 28.19448063 1.76467896 30.02755737 C1.73762941 35.00648645 1.71662009 39.98542501 1.69667697 44.96438694 C1.67481775 50.16676628 1.64742874 55.3691164 1.62062073 60.57147217 C1.57069299 70.42404508 1.52575444 80.2766342 1.48259836 90.12923884 C1.4332267 101.34558248 1.3783083 112.56189679 1.32291877 123.77821207 C1.20909747 146.85211403 1.10225873 169.92604411 1 193 C0.67 193 0.34 193 0 193 C0 129.31 0 65.62 0 0 Z " fill="#E3DEE6" transform="translate(0,0)"/>
<path d="M0 0 C0 1.32 0 2.64 0 4 C0.99 4.66 1.98 5.32 3 6 C3 6.99 3 7.98 3 9 C3.99 9.33 4.98 9.66 6 10 C5.01 10 4.02 10 3 10 C3 11.65 3 13.3 3 15 C2.01 15.33 1.02 15.66 0 16 C0 16.66 0 17.32 0 18 C-1.8125 18.625 -1.8125 18.625 -4 19 C-4.99 18.34 -5.98 17.68 -7 17 C-7 16.34 -7 15.68 -7 15 C-7.66 15 -8.32 15 -9 15 C-10.6875 13.875 -10.6875 13.875 -12 12 C-12.14678925 8.69724192 -11.6911276 6.79578922 -9.50390625 4.27734375 C-4.8018617 0 -4.8018617 0 0 0 Z " fill="#854481" transform="translate(146,96)"/>
<path d="M0 0 C2.9375 1.3125 2.9375 1.3125 6 3 C6.33 3.99 6.66 4.98 7 6 C7.680625 6.495 8.36125 6.99 9.0625 7.5 C9.701875 7.995 10.34125 8.49 11 9 C11 9.99 11 10.98 11 12 C10.01 12.33 9.02 12.66 8 13 C5.11464643 15.46103687 3.54287852 17.19985035 3 21 C2.34 21 1.68 21 1 21 C-2.69351306 15.57515269 -3.81523315 11.56195862 -3 5 C-2.67 4.34 -2.34 3.68 -2 3 C-1.34 3 -0.68 3 0 3 C0 2.01 0 1.02 0 0 Z " fill="#B97FB6" transform="translate(122,96)"/>
<path d="M0 0 C0.99 0 1.98 0 3 0 C3 0.99 3 1.98 3 3 C3.99 3 4.98 3 6 3 C6 2.01 6 1.02 6 0 C6.99 0 7.98 0 9 0 C9 1.32 9 2.64 9 4 C9.99 4 10.98 4 12 4 C12 4.66 12 5.32 12 6 C11.01 6 10.02 6 9 6 C9 7.32 9 8.64 9 10 C9.99 10 10.98 10 12 10 C12 10.66 12 11.32 12 12 C11.01 12 10.02 12 9 12 C9 13.32 9 14.64 9 16 C8.01 16 7.02 16 6 16 C6 15.01 6 14.02 6 13 C5.01 13 4.02 13 3 13 C3 13.99 3 14.98 3 16 C2.01 16 1.02 16 0 16 C0 14.68 0 13.36 0 12 C-0.99 12 -1.98 12 -3 12 C-3 11.34 -3 10.68 -3 10 C-2.01 10 -1.02 10 0 10 C0 8.68 0 7.36 0 6 C-0.99 6 -1.98 6 -3 6 C-3 5.34 -3 4.68 -3 4 C-2.01 4 -1.02 4 0 4 C0 2.68 0 1.36 0 0 Z " fill="#E6D1E4" transform="translate(153,98)"/>
<path d="M0 0 C-0.00785522 0.83809204 -0.00785522 0.83809204 -0.01586914 1.69311523 C-0.03691719 4.27456494 -0.04974734 6.85599649 -0.0625 9.4375 C-0.07087891 10.31599609 -0.07925781 11.19449219 -0.08789062 12.09960938 C-0.10899107 17.81783077 0.26719943 23.32800815 1 29 C0.01 29.33 -0.98 29.66 -2 30 C-2 29.34 -2 28.68 -2 28 C-2.66 28 -3.32 28 -4 28 C-5.65436256 19.3046704 -6.48518363 9.32571645 -3 1 C-1 0 -1 0 0 0 Z " fill="#60345F" transform="translate(87,92)"/>
<path d="M0 0 C7.92 0.33 15.84 0.66 24 1 C24.33 1.66 24.66 2.32 25 3 C21.29016217 5.47322522 18.41412215 5.29636889 14.125 5.25 C13.41730469 5.25773438 12.70960938 5.26546875 11.98046875 5.2734375 C7.91837378 5.25830865 4.56464855 5.03306951 1 3 C0.67 2.01 0.34 1.02 0 0 Z " fill="#5F355F" transform="translate(120,152)"/>
<path d="M0 0 C2.64 0 5.28 0 8 0 C6.625 1.5 6.625 1.5 5 3 C4.34 3 3.68 3 3 3 C2.0301579 6.27401828 1.84745817 9.278415 1.79467773 12.68652344 C1.7647599 14.39784454 1.7647599 14.39784454 1.73423767 16.14373779 C1.71752518 17.36989807 1.70081268 18.59605835 1.68359375 19.859375 C1.66281265 21.11888977 1.64203156 22.37840454 1.62062073 23.67608643 C1.56633698 27.01658871 1.51607931 30.35710222 1.46777344 33.69769287 C1.41744296 37.10971393 1.3618173 40.52164823 1.30664062 43.93359375 C1.19954886 50.62232664 1.0977646 57.31112463 1 64 C0.67 64 0.34 64 0 64 C0 42.88 0 21.76 0 0 Z " fill="#E3DDE8" transform="translate(0,0)"/>
<path d="M0 0 C0.33 0.66 0.66 1.32 1 2 C1.66 2 2.32 2 3 2 C3.33 3.98 3.66 5.96 4 8 C3.34 8 2.68 8 2 8 C1.34 10.64 0.68 13.28 0 16 C-1.32 15.34 -2.64 14.68 -4 14 C-4 15.98 -4 17.96 -4 20 C-4.66 20.33 -5.32 20.66 -6 21 C-5.81045578 13.05637416 -3.62115114 7.02850737 0 0 Z " fill="#6B426D" transform="translate(88,79)"/>
<path d="M0 0 C0.66 0.66 1.32 1.32 2 2 C2.99 2 3.98 2 5 2 C4.53199289 6.05606165 4.12046792 9.46588679 2 13 C0.68 12.67 -0.64 12.34 -2 12 C-2 11.01 -2 10.02 -2 9 C-2.99 9 -3.98 9 -5 9 C-5 6 -5 6 -3.625 4.5 C-3.08875 4.005 -2.5525 3.51 -2 3 C-1.34 2.01 -0.68 1.02 0 0 Z " fill="#9C5198" transform="translate(115,75)"/>
<path d="M0 0 C17.16 0 34.32 0 52 0 C52 2.31 52 4.62 52 7 C51.39712158 6.18958252 50.79424316 5.37916504 50.1730957 4.54418945 C46.24913281 0.65180292 41.45429106 1.27247165 36.23046875 1.29296875 C34.67625969 1.27028679 34.67625969 1.27028679 33.09065247 1.24714661 C29.78938069 1.20424465 26.48902287 1.19542884 23.1875 1.1875 C20.9459392 1.16435776 18.70440017 1.138993 16.46289062 1.11132812 C10.97525177 1.04845133 5.48797043 1.01353684 0 1 C0 0.67 0 0.34 0 0 Z " fill="#BCAAC5" transform="translate(218,0)"/>
<path d="M0 0 C0.66 0.33 1.32 0.66 2 1 C1.67 2.65 1.34 4.3 1 6 C2.2375 6.680625 2.2375 6.680625 3.5 7.375 C4.325 7.91125 5.15 8.4475 6 9 C6 9.66 6 10.32 6 11 C5.01 11 4.02 11 3 11 C3 11.66 3 12.32 3 13 C3.99 13 4.98 13 6 13 C6 14.32 6 15.64 6 17 C5.01 17 4.02 17 3 17 C3 17.66 3 18.32 3 19 C3.99 19.33 4.98 19.66 6 20 C4.68 20 3.36 20 2 20 C1.96261719 19.37351562 1.92523438 18.74703125 1.88671875 18.1015625 C1.82097656 17.28429687 1.75523437 16.46703125 1.6875 15.625 C1.60048828 14.40683594 1.60048828 14.40683594 1.51171875 13.1640625 C1.17009472 10.62078662 1.17009472 10.62078662 -2 9 C-1.67 7.68 -1.34 6.36 -1 5 C-1.66 4.67 -2.32 4.34 -3 4 C-2.34 4 -1.68 4 -1 4 C-0.67 2.68 -0.34 1.36 0 0 Z " fill="#986794" transform="translate(147,91)"/>
<path d="M0 0 C5.94 0 11.88 0 18 0 C18.33 1.32 18.66 2.64 19 4 C15.4280275 4.08118119 12.44112731 3.87312185 9 3 C7.41974995 2.78807905 5.83601539 2.60076629 4.25 2.4375 C3.45078125 2.35371094 2.6515625 2.26992188 1.828125 2.18359375 C1.22484375 2.12300781 0.6215625 2.06242187 0 2 C0 1.34 0 0.68 0 0 Z " fill="#613160" transform="translate(129,56)"/>
<path d="M0 0 C1.65 0 3.3 0 5 0 C5 0.66 5 1.32 5 2 C5.928125 1.443125 5.928125 1.443125 6.875 0.875 C11.50065797 -0.42018423 15.4205517 0.84402276 20 2 C18.68 2.33 17.36 2.66 16 3 C16 3.66 16 4.32 16 5 C16.99 5.66 17.98 6.32 19 7 C13.34979382 6.39891424 8.33835539 4.92471317 3 3 C3 2.34 3 1.68 3 1 C2.01 0.67 1.02 0.34 0 0 Z " fill="#6C436D" transform="translate(107,150)"/>
<path d="M0 0 C0.33 0 0.66 0 1 0 C1.01417969 0.60585937 1.02835937 1.21171875 1.04296875 1.8359375 C1.43498539 8.72271634 3.23161353 14.18893675 7 20 C7.66 20.33 8.32 20.66 9 21 C8.01 23.475 8.01 23.475 7 26 C6.71125 25.38125 6.4225 24.7625 6.125 24.125 C5.06279958 21.86674235 5.06279958 21.86674235 3 20 C-0.24523844 13.2598894 -0.3332882 7.40640436 0 0 Z " fill="#B88BB3" transform="translate(107,100)"/>
<path d="M0 0 C0.99 0 1.98 0 3 0 C3.33 0.66 3.66 1.32 4 2 C3.67 2.99 3.34 3.98 3 5 C2.34 5 1.68 5 1 5 C1 9.29 1 13.58 1 18 C0.34 17.67 -0.32 17.34 -1 17 C-1.484375 14.453125 -1.484375 14.453125 -1.75 11.25 C-1.84796875 10.20328125 -1.9459375 9.1565625 -2.046875 8.078125 C-1.99820731 4.88228024 -1.37576529 2.85735868 0 0 Z " fill="#C39BC2" transform="translate(109,93)"/>
<path d="M0 0 C-0.33 1.32 -0.66 2.64 -1 4 C-0.34 4.33 0.32 4.66 1 5 C0 6 0 6 -2.5625 6.0625 C-3.7690625 6.0315625 -3.7690625 6.0315625 -5 6 C-4.67 5.34 -4.34 4.68 -4 4 C-7.3 3.67 -10.6 3.34 -14 3 C-10.45175471 -0.54824529 -4.80349002 0 0 0 Z " fill="#6F3C6B" transform="translate(148,150)"/>
<path d="M0 0 C0.66 0.33 1.32 0.66 2 1 C3.20116938 6.64549608 3.10414253 12.24901786 3 18 C2.2884375 17.0409375 2.2884375 17.0409375 1.5625 16.0625 C0.16261274 14.11706694 0.16261274 14.11706694 -1 13 C-0.90982004 10.80949979 -0.75333792 8.621534 -0.5625 6.4375 C-0.46066406 5.23996094 -0.35882813 4.04242188 -0.25390625 2.80859375 C-0.17011719 1.88175781 -0.08632812 0.95492187 0 0 Z " fill="#5D315C" transform="translate(181,91)"/>
<path d="M0 0 C0.99 0.33 1.98 0.66 3 1 C2.67 1.99 2.34 2.98 2 4 C1.01 3.67 0.02 3.34 -1 3 C-1.99 3.165 -2.98 3.33 -4 3.5 C-7 4 -7 4 -10 3 C-10 2.34 -10 1.68 -10 1 C-6.85658007 -0.57170996 -3.44228549 -0.23175783 0 0 Z " fill="#94578E" transform="translate(137,92)"/>
<path d="M0 0 C-1.52206009 2.62901288 -2.84365964 4.84365964 -5 7 C-7.625 7.625 -7.625 7.625 -10 8 C-8.2565271 1.8307882 -6.61067842 -0.35733397 0 0 Z " fill="#8A759D" transform="translate(11,1)"/>
<path d="M0 0 C0.99 0 1.98 0 3 0 C3.33 0.66 3.66 1.32 4 2 C4.99 2.33 5.98 2.66 7 3 C7.6875 5.0625 7.6875 5.0625 8 7 C5.69 6.67 3.38 6.34 1 6 C0.67 4.02 0.34 2.04 0 0 Z " fill="#613662" transform="translate(94,136)"/>
<path d="M0 0 C2.97 0 5.94 0 9 0 C9 1.65 9 3.3 9 5 C7.02 5 5.04 5 3 5 C3 3.68 3 2.36 3 1 C2.01 0.67 1.02 0.34 0 0 Z " fill="#C5B2C7" transform="translate(150,103)"/>
<path d="M0 0 C0.66 0 1.32 0 2 0 C2 0.66 2 1.32 2 2 C3.98 2.66 5.96 3.32 8 4 C8 4.66 8 5.32 8 6 C5.36 6.33 2.72 6.66 0 7 C0 4.69 0 2.38 0 0 Z " fill="#965690" transform="translate(137,111)"/>
<path d="M0 0 C2.64 0 5.28 0 8 0 C6.625 1.5 6.625 1.5 5 3 C4.34 3 3.68 3 3 3 C2.34 4.98 1.68 6.96 1 9 C0.67 9 0.34 9 0 9 C0 6.03 0 3.06 0 0 Z " fill="#F8F5F8" transform="translate(0,0)"/>
<path d="M0 0 C4.95 0.33 9.9 0.66 15 1 C14.67 1.66 14.34 2.32 14 3 C12.22992286 3.08114106 10.45877902 3.13925505 8.6875 3.1875 C7.70136719 3.22230469 6.71523437 3.25710937 5.69921875 3.29296875 C3 3 3 3 0 0 Z " fill="#A070A1" transform="translate(125,117)"/>
<path d="M0 0 C0.99 0.33 1.98 0.66 3 1 C3 3.64 3 6.28 3 9 C2.34 9 1.68 9 1 9 C0.67 9.66 0.34 10.32 0 11 C0 7.37 0 3.74 0 0 Z " fill="#8F829F" transform="translate(1,104)"/>
<path d="M0 0 C0.33 0 0.66 0 1 0 C1 1.98 1 3.96 1 6 C1.66 6.33 2.32 6.66 3 7 C2.34 7.66 1.68 8.32 1 9 C1.32198966 12.09926819 1.32198966 12.09926819 2 15 C0 14 0 14 -1 11 C-1.09203743 9.48138245 -1.13001284 7.95889574 -1.125 6.4375 C-1.12757812 5.65246094 -1.13015625 4.86742188 -1.1328125 4.05859375 C-1 2 -1 2 0 0 Z " fill="#C199BF" transform="translate(120,99)"/>
<path d="M0 0 C0.66 0.33 1.32 0.66 2 1 C1.34 2.98 0.68 4.96 0 7 C-1.65 6.67 -3.3 6.34 -5 6 C-3.86695008 2.60085025 -2.87481525 1.94745549 0 0 Z " fill="#B4A3BF" transform="translate(168,144)"/>
<path d="M0 0 C0.66 0.33 1.32 0.66 2 1 C2 1.66 2 2.32 2 3 C2.66 3.66 3.32 4.32 4 5 C0.23375329 6.25541557 -1.37188934 5.37061958 -5 4 C-3.35 2.68 -1.7 1.36 0 0 Z " fill="#6C386A" transform="translate(158,144)"/>
<path d="M0 0 C2.64 0 5.28 0 8 0 C8 2.31 8 4.62 8 7 C7.236875 6.21625 6.47375 5.4325 5.6875 4.625 C3.09108195 1.92742283 3.09108195 1.92742283 0 0 Z " fill="#F9F6FA" transform="translate(262,0)"/>
<path d="M0 0 C0.66 0 1.32 0 2 0 C2 0.66 2 1.32 2 2 C3.65 2.33 5.3 2.66 7 3 C6.67 3.66 6.34 4.32 6 5 C2.9375 5.625 2.9375 5.625 0 6 C0 4.02 0 2.04 0 0 Z " fill="#6F3D6D" transform="translate(115,57)"/>
<path d="M0 0 C0 3 0 3 -2.5 5.6875 C-3.325 6.450625 -4.15 7.21375 -5 8 C-5 6.68 -5 5.36 -5 4 C-2.5 1.75 -2.5 1.75 0 0 Z M-6 8 C-4.515 8.99 -4.515 8.99 -3 10 C-3.99 10.33 -4.98 10.66 -6 11 C-6 10.01 -6 9.02 -6 8 Z " fill="#B29CB9" transform="translate(179,132)"/>
<path d="M0 0 C1.32 0.66 2.64 1.32 4 2 C3.01 2.33 2.02 2.66 1 3 C1.66 4.65 2.32 6.3 3 8 C0.97954558 7.39816251 -1.02111039 6.72693904 -3 6 C-3.33 5.34 -3.66 4.68 -4 4 C-2.68 4.33 -1.36 4.66 0 5 C0 3.35 0 1.7 0 0 Z " fill="#713F70" transform="translate(157,60)"/>
<path d="M0 0 C2.3125 -0.25 2.3125 -0.25 5 0 C6.8125 2 6.8125 2 8 4 C4.625 4.125 4.625 4.125 1 4 C0.34 3.34 -0.32 2.68 -1 2 C-0.67 1.34 -0.34 0.68 0 0 Z " fill="#8F78A4" transform="translate(260,1)"/>
<path d="M0 0 C6.75 0.75 6.75 0.75 9 3 C7.35 3.33 5.7 3.66 4 4 C4 3.34 4 2.68 4 2 C2.35 2 0.7 2 -1 2 C-0.67 1.34 -0.34 0.68 0 0 Z " fill="#5E315E" transform="translate(108,148)"/>
<path d="M0 0 C0.33 0 0.66 0 1 0 C1.06058594 0.71027344 1.12117188 1.42054687 1.18359375 2.15234375 C1.26738281 3.07144531 1.35117188 3.99054688 1.4375 4.9375 C1.51871094 5.85402344 1.59992188 6.77054687 1.68359375 7.71484375 C1.76044976 9.96159732 1.76044976 9.96159732 3 11 C3.04063832 12.66617115 3.042721 14.33388095 3 16 C-0.13107836 12.61416198 -0.33550778 10.28890538 -0.1875 5.75 C-0.14689453 4.13351563 -0.14689453 4.13351563 -0.10546875 2.484375 C-0.07066406 1.66453125 -0.03585938 0.8446875 0 0 Z " fill="#B081B1" transform="translate(107,100)"/>
<path d="M0 0 C0.99 0.66 1.98 1.32 3 2 C0 4 0 4 -3 4 C-3 4.66 -3 5.32 -3 6 C-3.99 5.67 -4.98 5.34 -6 5 C-4.02 3.35 -2.04 1.7 0 0 Z " fill="#8F5A8A" transform="translate(122,81)"/>
<path d="M0 0 C1.98 0.495 1.98 0.495 4 1 C3.67 2.65 3.34 4.3 3 6 C2.34 6 1.68 6 1 6 C1 5.34 1 4.68 1 4 C0.34 4 -0.32 4 -1 4 C-0.67 2.68 -0.34 1.36 0 0 Z " fill="#623A64" transform="translate(90,77)"/>
<path d="M0 0 C0.66 0.33 1.32 0.66 2 1 C2 1.99 2 2.98 2 4 C-0.31 4.66 -2.62 5.32 -5 6 C-5 5.01 -5 4.02 -5 3 C-2.625 1.25 -2.625 1.25 0 0 Z " fill="#5F315F" transform="translate(103,65)"/>
<path d="M0 0 C0.33 0.66 0.66 1.32 1 2 C2.65 1.67 4.3 1.34 6 1 C5.67 2.65 5.34 4.3 5 6 C4.34 6 3.68 6 3 6 C3 5.34 3 4.68 3 4 C2.01 4 1.02 4 0 4 C0 2.68 0 1.36 0 0 Z " fill="#976390" transform="translate(162,98)"/>
<path d="M0 0 C3.63 0 7.26 0 11 0 C10.34 0.66 9.68 1.32 9 2 C6.375 1.625 6.375 1.625 4 1 C4 1.66 4 2.32 4 3 C2.68 2.67 1.36 2.34 0 2 C0 1.34 0 0.68 0 0 Z " fill="#AA99B5" transform="translate(128,158)"/>
<path d="M0 0 C2.4375 1 2.4375 1 4 2 C-1.03733166 3.5111995 -5.88171027 2.64599773 -11 2 C-7.16675992 -0.11836952 -4.40022616 -0.31430187 0 0 Z " fill="#FDF4FC" transform="translate(161,107)"/>
<path d="M0 0 C0.66 0 1.32 0 2 0 C2 0.66 2 1.32 2 2 C2.969375 2.12375 3.93875 2.2475 4.9375 2.375 C6.4534375 2.684375 6.4534375 2.684375 8 3 C8.33 3.66 8.66 4.32 9 5 C5.7 4.34 2.4 3.68 -1 3 C-0.67 2.01 -0.34 1.02 0 0 Z " fill="#794475" transform="translate(108,145)"/>
<path d="M0 0 C1.98 0 3.96 0 6 0 C5.01 0.33 4.02 0.66 3 1 C3 2.32 3 3.64 3 5 C2.01 5 1.02 5 0 5 C0 3.35 0 1.7 0 0 Z " fill="#E6CEE3" transform="translate(159,109)"/>
<path d="M0 0 C1.32 0 2.64 0 4 0 C4 0.66 4 1.32 4 2 C2.37373596 3.38232443 0.7074998 4.71937515 -1 6 C-1 5.34 -1 4.68 -1 4 C-1.66 3.67 -2.32 3.34 -3 3 C-2.01 2.67 -1.02 2.34 0 2 C0 1.34 0 0.68 0 0 Z " fill="#C097C0" transform="translate(114,87)"/>
</svg>
