<?xml version="1.0" encoding="UTF-8"?>
<svg version="1.1" xmlns="http://www.w3.org/2000/svg" width="271" height="203">
<path d="M0 0 C89.43 0 178.86 0 271 0 C271 66.99 271 133.98 271 203 C181.57 203 92.14 203 0 203 C0 136.01 0 69.02 0 0 Z " fill="#DD5F5E" transform="translate(0,0)"/>
<path d="M0 0 C0.99410385 -0.00419449 1.9882077 -0.00838898 3.01243591 -0.01271057 C4.10189514 -0.00709106 5.19135437 -0.00147156 6.31382751 0.00431824 C7.46197433 0.00241989 8.61012115 0.00052155 9.7930603 -0.00143433 C13.59814729 -0.00514698 17.40304453 0.00556869 21.20811462 0.01676941 C23.84462461 0.01796098 26.48113502 0.01841442 29.11764526 0.01815796 C34.64660515 0.01909453 40.17551016 0.0277781 45.70445251 0.04142761 C52.10115663 0.05716082 58.49780066 0.06242544 64.89452273 0.06169206 C71.04387214 0.0610822 77.19319874 0.06629128 83.34254265 0.07448387 C85.96171894 0.07767479 88.58089702 0.07963893 91.20007515 0.08037758 C94.85390905 0.08253618 98.50766624 0.09126983 102.16148376 0.10197449 C103.25296722 0.1015213 104.34445068 0.10106812 105.4690094 0.1006012 C106.46029343 0.10486618 107.45157745 0.10913116 108.47290039 0.11352539 C109.76954919 0.11603916 109.76954919 0.11603916 111.09239292 0.11860371 C113.17295837 0.24723816 113.17295837 0.24723816 115.17295837 1.24723816 C115.17295837 17.41723816 115.17295837 33.58723816 115.17295837 50.24723816 C115.83295837 50.24723816 116.49295837 50.24723816 117.17295837 50.24723816 C117.17295837 51.89723816 117.17295837 53.54723816 117.17295837 55.24723816 C127.73295837 55.24723816 138.29295837 55.24723816 149.17295837 55.24723816 C149.17295837 66.13723816 149.17295837 77.02723816 149.17295837 88.24723816 C146.53295837 88.24723816 143.89295837 88.24723816 141.17295837 88.24723816 C141.17295837 87.58723816 141.17295837 86.92723816 141.17295837 86.24723816 C136.88295837 86.24723816 132.59295837 86.24723816 128.17295837 86.24723816 C126.87481598 88.47084496 126.87481598 88.47084496 127.17295837 92.24723816 C127.17295837 93.91390483 127.17295837 95.58057149 127.17295837 97.24723816 C126.84295837 96.58723816 126.51295837 95.92723816 126.17295837 95.24723816 C125.51295837 95.24723816 124.85295837 95.24723816 124.17295837 95.24723816 C124.17295837 96.56723816 124.17295837 97.88723816 124.17295837 99.24723816 C125.16295837 99.57723816 126.15295837 99.90723816 127.17295837 100.24723816 C129.77637493 102.85065472 128.17295837 107.56545115 128.17295837 111.24723816 C148.30295837 111.24723816 168.43295837 111.24723816 189.17295837 111.24723816 C189.17295837 111.57723816 189.17295837 111.90723816 189.17295837 112.24723816 C108.98295837 112.24723816 28.79295837 112.24723816 -53.82704163 112.24723816 C-53.82704163 111.91723816 -53.82704163 111.58723816 -53.82704163 111.24723816 C-45.57704163 111.24723816 -37.32704163 111.24723816 -28.82704163 111.24723816 C-28.82704163 102.33723816 -28.82704163 93.42723816 -28.82704163 84.24723816 C-23.87704163 84.24723816 -18.92704163 84.24723816 -13.82704163 84.24723816 C-14.63061305 93.8900953 -14.63061305 93.8900953 -15.82704163 98.37223816 C-17.08007494 102.88648021 -17.08007494 102.88648021 -17.82704163 110.24723816 C12.86295837 110.24723816 43.55295837 110.24723816 75.17295837 110.24723816 C75.17295837 109.25723816 75.17295837 108.26723816 75.17295837 107.24723816 C73.19295837 107.24723816 71.21295837 107.24723816 69.17295837 107.24723816 C67.89496903 102.53465243 67.17295837 99.20458768 67.17295837 94.24723816 C89.44795837 93.75223816 89.44795837 93.75223816 112.17295837 93.24723816 C112.50295837 88.62723816 112.83295837 84.00723816 113.17295837 79.24723816 C73.24295837 79.24723816 33.31295837 79.24723816 -7.82704163 79.24723816 C-7.88891663 66.58348816 -7.95079163 53.91973816 -8.01454163 40.87223816 C-8.04185364 36.87050476 -8.06916565 32.86877136 -8.0973053 28.74577332 C-8.1108551 23.86711121 -8.1108551 23.86711121 -8.1133728 21.58473206 C-8.117986 19.98729448 -8.1285505 18.38986748 -8.14376831 16.79249573 C-8.16564585 14.37569471 -8.1687625 11.95953313 -8.1676178 9.54264832 C-8.17841212 8.82848063 -8.18920645 8.11431293 -8.20032787 7.3785038 C-8.18780518 5.41096497 -8.18780518 5.41096497 -7.82704163 2.24723816 C-4.58964567 0.08897419 -3.73152442 -0.00235059 0 0 Z " fill="#254D8E" transform="translate(80.82704162597656,76.75276184082031)"/>
<path d="M0 0 C89.43 0 178.86 0 271 0 C271 66.99 271 133.98 271 203 C181.57 203 92.14 203 0 203 C0 136.01 0 69.02 0 0 Z M2.88756275 3.10348225 C0.55799491 6.67826916 0.38284832 8.72678058 0.39872742 12.97920227 C0.39445529 13.66951119 0.39018317 14.35982011 0.38578159 15.07104748 C0.37756334 17.3778649 0.40501352 19.68285289 0.43237305 21.98950195 C0.43378379 23.64539039 0.43299103 25.30128196 0.43016052 26.95716858 C0.42872596 31.44873907 0.45812196 35.93964189 0.49303031 40.43105721 C0.52428726 45.12621949 0.52722403 49.82139708 0.53315735 54.51664734 C0.54869774 63.40603623 0.58972886 72.29511767 0.6399048 81.18437117 C0.69579216 91.30517008 0.72328324 101.42598368 0.74838197 111.54689848 C0.80064453 132.3647706 0.88859065 153.18236593 1 174 C3.64 174 6.28 174 9 174 C9 163.11 9 152.22 9 141 C15.1875 140.9690625 15.1875 140.9690625 21.5 140.9375 C22.78455078 140.928396 24.06910156 140.91929199 25.39257812 140.90991211 C39.62676655 140.87558885 39.62676655 140.87558885 46 143 C46.66 142.67 47.32 142.34 48 142 C48 143.65 48 145.3 48 147 C48.33 145.68 48.66 144.36 49 143 C49.99 143 50.98 143 52 143 C52 157.85 52 172.7 52 188 C43.75 188 35.5 188 27 188 C27 188.33 27 188.66 27 189 C107.19 189 187.38 189 270 189 C270 188.67 270 188.34 270 188 C249.87 188 229.74 188 209 188 C209 184.7 209 181.4 209 178 C208.67 177.34 208.34 176.68 208 176 C207.01 176 206.02 176 205 176 C205 174.68 205 173.36 205 172 C205.66 172 206.32 172 207 172 C207.33 172.66 207.66 173.32 208 174 C207.67 170.7 207.34 167.4 207 164 C207.33 164.33 207.66 164.66 208 165 C208.33 164.34 208.66 163.68 209 163 C213.29 163 217.58 163 222 163 C222 163.66 222 164.32 222 165 C228.6 165 235.2 165 242 165 C242.33 172.26 242.66 179.52 243 187 C243.33 187 243.66 187 244 187 C244.33 178.09 244.66 169.18 245 160 C248.96 159.67 252.92 159.34 257 159 C257 160.65 257 162.3 257 164 C257.33 164 257.66 164 258 164 C258 162.35 258 160.7 258 159 C261.63 159 265.26 159 269 159 C269 160.98 269 162.96 269 165 C269.33 165 269.66 165 270 165 C270 158.07 270 151.14 270 144 C267.69 144 265.38 144 263 144 C263 144.99 263 145.98 263 147 C263.99 147.33 264.98 147.66 266 148 C266.33 148.66 266.66 149.32 267 150 C263.37 150 259.74 150 256 150 C256 149.01 256 148.02 256 147 C256.99 147 257.98 147 259 147 C259 146.01 259 145.02 259 144 C254.71 144 250.42 144 246 144 C246 143.01 246 142.02 246 141 C251.94 141 257.88 141 264 141 C263.67 139.68 263.34 138.36 263 137 C259.37 137 255.74 137 252 137 C252 136.01 252 135.02 252 134 C257.94 134 263.88 134 270 134 C270.11575644 117.39727227 270.20497852 100.79471099 270.25906086 84.19167805 C270.28483999 76.48254469 270.31998455 68.77366671 270.37719727 61.06469727 C270.42704164 54.34535002 270.45929314 47.62618772 270.47044247 40.90666074 C270.47695966 37.34878373 270.49226953 33.7914358 270.52865028 30.23372841 C270.56893926 26.2615939 270.56994874 22.28997647 270.56762695 18.31762695 C270.58560333 17.1387088 270.60357971 15.95979065 270.62210083 14.74514771 C270.61179085 13.11932014 270.61179085 13.11932014 270.60127258 11.46064758 C270.60588155 10.52134053 270.61049051 9.58203348 270.61523914 8.61426258 C269.68854055 4.67655239 268.30128444 3.33177938 265 1 C261.53176564 0.27413122 258.1327314 0.32526924 254.59973145 0.36508179 C253.54134709 0.35728183 252.48296273 0.34948188 251.39250612 0.34144557 C247.84009446 0.32147532 244.28874806 0.33731085 240.73632812 0.35302734 C238.19200514 0.34625352 235.64768706 0.33735172 233.1033783 0.32647705 C226.90658114 0.30602127 220.71017955 0.30904719 214.51337707 0.32354026 C209.47728164 0.33483115 204.44127108 0.33636407 199.40516663 0.33092117 C198.68846913 0.33015501 197.97177163 0.32938884 197.23335603 0.32859946 C195.77740933 0.32700084 194.32146266 0.32537977 192.86551601 0.3237365 C179.21230748 0.30947795 165.55926679 0.32587333 151.90608579 0.35273834 C140.19039892 0.37507728 128.47495975 0.37119718 116.75927734 0.34814453 C103.1550188 0.32138833 89.55090737 0.31085125 75.94662619 0.32620585 C74.49602861 0.3277986 73.045431 0.32937045 71.59483337 0.33092117 C70.88110731 0.33169255 70.16738125 0.33246393 69.43202713 0.33325868 C64.40183817 0.33757624 59.37174251 0.33028796 54.34156799 0.31852341 C47.57153974 0.30303777 40.80205199 0.31405891 34.03204536 0.34299469 C31.54436078 0.34961773 29.05663688 0.34768722 26.56896782 0.33668137 C23.17886514 0.32306347 19.7902743 0.34009853 16.40026855 0.36508179 C15.41048775 0.35392818 14.42070695 0.34277457 13.40093279 0.33128297 C8.94636122 0.39517454 6.65012211 0.56062718 2.88756275 3.10348225 Z " fill="#D95F5E" transform="translate(0,0)"/>
<path d="M0 0 C0.99410385 -0.00419449 1.9882077 -0.00838898 3.01243591 -0.01271057 C4.10189514 -0.00709106 5.19135437 -0.00147156 6.31382751 0.00431824 C7.46197433 0.00241989 8.61012115 0.00052155 9.7930603 -0.00143433 C13.59814729 -0.00514698 17.40304453 0.00556869 21.20811462 0.01676941 C23.84462461 0.01796098 26.48113502 0.01841442 29.11764526 0.01815796 C34.64660515 0.01909453 40.17551016 0.0277781 45.70445251 0.04142761 C52.10115663 0.05716082 58.49780066 0.06242544 64.89452273 0.06169206 C71.04387214 0.0610822 77.19319874 0.06629128 83.34254265 0.07448387 C85.96171894 0.07767479 88.58089702 0.07963893 91.20007515 0.08037758 C94.85390905 0.08253618 98.50766624 0.09126983 102.16148376 0.10197449 C103.25296722 0.1015213 104.34445068 0.10106812 105.4690094 0.1006012 C106.46029343 0.10486618 107.45157745 0.10913116 108.47290039 0.11352539 C109.76954919 0.11603916 109.76954919 0.11603916 111.09239292 0.11860371 C113.17295837 0.24723816 113.17295837 0.24723816 115.17295837 1.24723816 C115.17295837 17.41723816 115.17295837 33.58723816 115.17295837 50.24723816 C115.83295837 50.24723816 116.49295837 50.24723816 117.17295837 50.24723816 C117.17295837 51.89723816 117.17295837 53.54723816 117.17295837 55.24723816 C127.73295837 55.24723816 138.29295837 55.24723816 149.17295837 55.24723816 C149.17295837 66.13723816 149.17295837 77.02723816 149.17295837 88.24723816 C146.53295837 88.24723816 143.89295837 88.24723816 141.17295837 88.24723816 C141.17295837 87.58723816 141.17295837 86.92723816 141.17295837 86.24723816 C136.88295837 86.24723816 132.59295837 86.24723816 128.17295837 86.24723816 C126.87481598 88.47084496 126.87481598 88.47084496 127.17295837 92.24723816 C127.17295837 93.91390483 127.17295837 95.58057149 127.17295837 97.24723816 C126.84295837 96.58723816 126.51295837 95.92723816 126.17295837 95.24723816 C125.51295837 95.24723816 124.85295837 95.24723816 124.17295837 95.24723816 C124.17295837 96.56723816 124.17295837 97.88723816 124.17295837 99.24723816 C125.16295837 99.57723816 126.15295837 99.90723816 127.17295837 100.24723816 C129.77637493 102.85065472 128.17295837 107.56545115 128.17295837 111.24723816 C148.30295837 111.24723816 168.43295837 111.24723816 189.17295837 111.24723816 C189.17295837 111.57723816 189.17295837 111.90723816 189.17295837 112.24723816 C108.98295837 112.24723816 28.79295837 112.24723816 -53.82704163 112.24723816 C-53.82704163 111.91723816 -53.82704163 111.58723816 -53.82704163 111.24723816 C-45.57704163 111.24723816 -37.32704163 111.24723816 -28.82704163 111.24723816 C-28.82704163 102.33723816 -28.82704163 93.42723816 -28.82704163 84.24723816 C-23.87704163 84.24723816 -18.92704163 84.24723816 -13.82704163 84.24723816 C-14.63061305 93.8900953 -14.63061305 93.8900953 -15.82704163 98.37223816 C-17.08007494 102.88648021 -17.08007494 102.88648021 -17.82704163 110.24723816 C12.86295837 110.24723816 43.55295837 110.24723816 75.17295837 110.24723816 C75.17295837 109.25723816 75.17295837 108.26723816 75.17295837 107.24723816 C73.19295837 107.24723816 71.21295837 107.24723816 69.17295837 107.24723816 C67.89496903 102.53465243 67.17295837 99.20458768 67.17295837 94.24723816 C89.44795837 93.75223816 89.44795837 93.75223816 112.17295837 93.24723816 C112.50295837 88.62723816 112.83295837 84.00723816 113.17295837 79.24723816 C73.24295837 79.24723816 33.31295837 79.24723816 -7.82704163 79.24723816 C-7.88891663 66.58348816 -7.95079163 53.91973816 -8.01454163 40.87223816 C-8.04185364 36.87050476 -8.06916565 32.86877136 -8.0973053 28.74577332 C-8.1108551 23.86711121 -8.1108551 23.86711121 -8.1133728 21.58473206 C-8.117986 19.98729448 -8.1285505 18.38986748 -8.14376831 16.79249573 C-8.16564585 14.37569471 -8.1687625 11.95953313 -8.1676178 9.54264832 C-8.17841212 8.82848063 -8.18920645 8.11431293 -8.20032787 7.3785038 C-8.18780518 5.41096497 -8.18780518 5.41096497 -7.82704163 2.24723816 C-4.58964567 0.08897419 -3.73152442 -0.00235059 0 0 Z M0.17295837 9.24723816 C0.17295837 30.36723816 0.17295837 51.48723816 0.17295837 73.24723816 C35.15295837 73.24723816 70.13295837 73.24723816 106.17295837 73.24723816 C106.17295837 52.12723816 106.17295837 31.00723816 106.17295837 9.24723816 C71.19295837 9.24723816 36.21295837 9.24723816 0.17295837 9.24723816 Z " fill="#AA524F" transform="translate(80.82704162597656,76.75276184082031)"/>
<path d="M0 0 C0.99417435 -0.00281982 1.98834869 -0.00563965 3.01264954 -0.00854492 C4.65458786 -0.00550858 4.65458786 -0.00550858 6.32969666 -0.00241089 C7.47930374 -0.00416321 8.62891083 -0.00591553 9.81335449 -0.00772095 C13.62863151 -0.01213678 17.4438625 -0.00920259 21.25914001 -0.00582886 C23.89947519 -0.00650193 26.5398103 -0.00747198 29.18014526 -0.00872803 C34.71925866 -0.01054851 40.25835872 -0.00814632 45.79747009 -0.00338745 C52.20950705 0.00205762 58.62151223 0.00029025 65.03354841 -0.00521386 C71.19303884 -0.01029034 77.35251512 -0.00976369 83.51200676 -0.00683212 C86.137593 -0.00616264 88.76318004 -0.006992 91.38876534 -0.00931168 C95.05008758 -0.0118364 98.71134781 -0.00800027 102.37266541 -0.00241089 C103.46931519 -0.00443512 104.56596497 -0.00645935 105.69584656 -0.00854492 C107.18287834 -0.00431519 107.18287834 -0.00431519 108.69995117 0 C109.99993089 0.00056554 109.99993089 0.00056554 111.32617283 0.0011425 C113.28648376 0.12698364 113.28648376 0.12698364 114.28648376 1.12698364 C114.38145249 3.53050824 114.4120593 5.90505457 114.40000916 8.30886841 C114.40012969 9.07222724 114.40025023 9.83558607 114.40037441 10.62207699 C114.39962532 13.10421047 114.39199727 15.58626977 114.38414001 18.06838989 C114.38267058 19.59634363 114.38164988 21.12429786 114.38108826 22.6522522 C114.3758355 28.331337 114.36187441 34.01041104 114.34898376 39.68948364 C114.32835876 52.37385864 114.30773376 65.05823364 114.28648376 78.12698364 C74.35648376 78.12698364 34.42648376 78.12698364 -6.71351624 78.12698364 C-6.71351624 52.71698364 -6.71351624 27.30698364 -6.71351624 1.12698364 C-4.27753455 -0.0910072 -2.72294172 0.00118406 0 0 Z M1.28648376 8.12698364 C1.28648376 29.24698364 1.28648376 50.36698364 1.28648376 72.12698364 C36.26648376 72.12698364 71.24648376 72.12698364 107.28648376 72.12698364 C107.28648376 51.00698364 107.28648376 29.88698364 107.28648376 8.12698364 C72.30648376 8.12698364 37.32648376 8.12698364 1.28648376 8.12698364 Z " fill="#252022" transform="translate(79.71351623535156,77.87301635742188)"/>
<path d="M0 0 C39.93 0 79.86 0 121 0 C121 4.29 121 8.58 121 13 C120 14 120 14 118.17137146 14.12025452 C117.37417191 14.11803391 116.57697235 14.11581329 115.75561523 14.11352539 C114.40432777 14.11341209 114.40432777 14.11341209 113.02574158 14.11329651 C112.04658279 14.10813522 111.06742401 14.10297394 110.05859375 14.09765625 C109.06118668 14.0962413 108.0637796 14.09482635 107.03614807 14.09336853 C103.83656876 14.08775114 100.63705831 14.07519571 97.4375 14.0625 C95.27408955 14.05748724 93.11067801 14.05292395 90.94726562 14.04882812 C85.63148371 14.03777606 80.31575354 14.02049979 75 14 C75.99 20.435 75.99 20.435 77 27 C78.98 27 80.96 27 83 27 C83 27.99 83 28.98 83 30 C68.48 30 53.96 30 39 30 C39 29.01 39 28.02 39 27 C40.98 27 42.96 27 45 27 C45.144375 25.783125 45.28875 24.56625 45.4375 23.3125 C45.81046172 20.16896549 46.36889865 17.10160487 47 14 C46.16101669 14.00666183 46.16101669 14.00666183 45.30508423 14.01345825 C39.49801176 14.05761149 33.69098675 14.08783294 27.88378906 14.10986328 C25.71482406 14.11993789 23.54587269 14.13359798 21.37695312 14.15087891 C18.26428874 14.17506323 15.15180349 14.18646832 12.0390625 14.1953125 C11.065065 14.20563507 10.0910675 14.21595764 9.08755493 14.22659302 C8.18677216 14.22674408 7.28598938 14.22689514 6.35791016 14.22705078 C5.16544174 14.23371262 5.16544174 14.23371262 3.94888306 14.24050903 C2 14 2 14 0 12 C0 8.04 0 4.08 0 0 Z " fill="#FDFCFC" transform="translate(73,157)"/>
<path d="M0 0 C0.66 0.33 1.32 0.66 2 1 C1.67 26.41 1.34 51.82 1 78 C40.93 78 80.86 78 122 78 C122 78.33 122 78.66 122 79 C82.07 79 42.14 79 1 79 C0.63195919 86.13449589 0.63195919 86.13449589 3 92 C4.41117702 92.12209924 5.82820459 92.17770872 7.24438477 92.20532227 C8.59567223 92.2352401 8.59567223 92.2352401 9.97425842 92.26576233 C10.95341721 92.28247482 11.93257599 92.29918732 12.94140625 92.31640625 C14.43751686 92.3475779 14.43751686 92.3475779 15.96385193 92.37937927 C19.16332843 92.44498637 22.36288982 92.50381134 25.5625 92.5625 C27.72592039 92.60567462 29.88933206 92.64928855 32.05273438 92.69335938 C37.36839874 92.80067903 42.68414834 92.90242427 48 93 C46.9375 101.71428571 46.9375 101.71428571 46 106 C44.02 106 42.04 106 40 106 C40 106.99 40 107.98 40 109 C23.83 109 7.66 109 -9 109 C-9 100 -9 100 -8.125 96.28125 C-7.85429688 95.10175781 -7.85429688 95.10175781 -7.578125 93.8984375 C-7.38734375 93.10695313 -7.1965625 92.31546875 -7 91.5 C-6.80921875 90.67757812 -6.6184375 89.85515625 -6.421875 89.0078125 C-5.95572696 87.00337593 -5.47897024 85.00141137 -5 83 C-9.95 83 -14.9 83 -20 83 C-20 77.06 -20 71.12 -20 65 C-20.99 65 -21.98 65 -23 65 C-23.33 66.32 -23.66 67.64 -24 69 C-24 67.35 -24 65.7 -24 64 C-24.5775 64.185625 -25.155 64.37125 -25.75 64.5625 C-30.04233723 65.39712113 -33.94957999 63.380825 -38 62 C-38 58.7 -38 55.4 -38 52 C-35.1875 51.375 -35.1875 51.375 -32 51 C-31.01 51.66 -30.02 52.32 -29 53 C-28.8125 55.625 -28.8125 55.625 -29 58 C-28.01 58 -27.02 58 -26 58 C-26.01740234 56.41058594 -26.01740234 56.41058594 -26.03515625 54.7890625 C-26.04453476 53.40104342 -26.05363489 52.01302245 -26.0625 50.625 C-26.07087891 49.92632812 -26.07925781 49.22765625 -26.08789062 48.5078125 C-26.11328125 43.2265625 -26.11328125 43.2265625 -25 41 C-23.56344146 40.91868537 -22.1255517 40.86066441 -20.6875 40.8125 C-19.48673828 40.76029297 -19.48673828 40.76029297 -18.26171875 40.70703125 C-16 41 -16 41 -14.21875 42 C-12.27043209 45.19723965 -12.68913349 48.56558588 -12.8125 52.1875 C-12.83280273 53.31188477 -12.83280273 53.31188477 -12.85351562 54.45898438 C-12.88881461 56.30629767 -12.94262083 58.15324066 -13 60 C-12.37351562 59.90460938 -11.74703125 59.80921875 -11.1015625 59.7109375 C-10.28429687 59.60007813 -9.46703125 59.48921875 -8.625 59.375 C-7.81289062 59.25898438 -7.00078125 59.14296875 -6.1640625 59.0234375 C-5.44992188 59.01570313 -4.73578125 59.00796875 -4 59 C-2 61 -2 61 -1.8046875 64.4765625 C-1.81798507 65.85950968 -1.84183768 67.24238654 -1.875 68.625 C-1.88402344 69.33140625 -1.89304688 70.0378125 -1.90234375 70.765625 C-1.92592397 72.51056098 -1.96179539 74.25532295 -2 76 C-1.34 76 -0.68 76 0 76 C0 50.92 0 25.84 0 0 Z " fill="#DC615D" transform="translate(72,78)"/>
<path d="M0 0 C89.43 0 178.86 0 271 0 C271 59.4 271 118.8 271 180 C270.34 180 269.68 180 269 180 C269 182.31 269 184.62 269 187 C261.41 187 253.82 187 246 187 C246 178.09 246 169.18 246 160 C249.3 160 252.6 160 256 160 C256 161.32 256 162.64 256 164 C255.34 164 254.68 164 254 164 C254 166.31 254 168.62 254 171 C256.31 171 258.62 171 261 171 C261 168.69 261 166.38 261 164 C260.01 164 259.02 164 258 164 C258 162.35 258 160.7 258 159 C261.63 159 265.26 159 269 159 C269.33 154.05 269.66 149.1 270 144 C267.69 144 265.38 144 263 144 C263 144.99 263 145.98 263 147 C264.32 147.33 265.64 147.66 267 148 C267 148.66 267 149.32 267 150 C263.37 150 259.74 150 256 150 C256 149.01 256 148.02 256 147 C256.99 147 257.98 147 259 147 C259 146.01 259 145.02 259 144 C254.71 144 250.42 144 246 144 C246 143.01 246 142.02 246 141 C251.94 141 257.88 141 264 141 C263.67 140.01 263.34 139.02 263 138 C259.37 137.67 255.74 137.34 252 137 C252 136.01 252 135.02 252 134 C257.94 134 263.88 134 270 134 C269.96200498 117.37980233 269.9029973 100.75987337 269.81609726 84.13986588 C269.77627823 76.42299295 269.74390037 68.70622241 269.72900391 60.98925781 C269.71600213 54.2635787 269.68907553 47.53812462 269.64538693 40.81257224 C269.62273852 37.25098111 269.60709131 33.68966788 269.60811615 30.12799835 C269.60899909 26.15313348 269.5787953 22.17883764 269.54589844 18.20410156 C269.5509288 17.02158813 269.55595917 15.83907471 269.56114197 14.62072754 C269.54027275 12.99696198 269.54027275 12.99696198 269.51898193 11.34039307 C269.51529476 10.40016422 269.51160759 9.45993538 269.50780869 8.49121475 C269.12946396 5.92365935 269.12946396 5.92365935 267.61048508 3.69797134 C263.503209 1.026423 259.51231275 1.44895845 254.71325684 1.49206543 C253.65502134 1.48582547 252.59678584 1.4795855 251.5064826 1.47315645 C247.94875877 1.4571595 244.3917137 1.46985741 240.83398438 1.48242188 C238.28818867 1.47700376 235.7423961 1.46988286 233.1966095 1.46118164 C226.9927051 1.4448077 220.78905343 1.44724281 214.58514559 1.4588322 C209.54378268 1.46786052 204.50247402 1.46909315 199.46110535 1.46473694 C198.74398364 1.46412401 198.02686193 1.46351107 197.28800926 1.46287957 C195.8312553 1.46160069 194.37450136 1.46030383 192.91774744 1.4589892 C179.25315169 1.44757911 165.58866323 1.46070381 151.92408508 1.48219067 C140.19559283 1.50006207 128.46725893 1.49695808 116.73876953 1.47851562 C103.12355583 1.45711646 89.50843619 1.44867778 75.89320803 1.46096468 C74.44177025 1.4622389 72.99033246 1.46349638 71.53889465 1.46473694 C70.82473289 1.46535404 70.11057113 1.46597114 69.37476811 1.46660694 C64.33862353 1.47006272 59.30253855 1.46422663 54.2664032 1.45481873 C47.48989259 1.44243811 40.7137278 1.45123443 33.93723106 1.47439575 C31.44589931 1.47969795 28.95454245 1.47814344 26.4632206 1.46934509 C23.07071736 1.45846614 19.67918406 1.47206166 16.28674316 1.49206543 C15.2933674 1.48314254 14.29999164 1.47421966 13.27651358 1.46502638 C8.06527635 1.51426644 8.06527635 1.51426644 3.38951492 3.59357071 C1.4983901 6.86871233 1.49203871 9.23072412 1.48101807 13.01080322 C1.47351681 13.71659193 1.46601556 14.42238063 1.458287 15.14955688 C1.43798793 17.51439118 1.44611629 19.8782687 1.45410156 22.24316406 C1.4453677 23.93832346 1.43488258 25.63347462 1.42277527 27.32861328 C1.39487155 31.93160077 1.39151154 36.53431985 1.39249516 41.13737965 C1.3893698 45.94742179 1.36375949 50.75734236 1.34051514 55.56732178 C1.29992261 64.67617373 1.27960679 73.78495403 1.26654124 82.89388251 C1.25068221 93.26385442 1.21227122 103.63370422 1.17194796 114.00360537 C1.0895045 135.33569665 1.03544018 156.66778225 1 178 C2.32 178 3.64 178 5 178 C5 180.31 5 182.62 5 185 C3.68 185.33 2.36 185.66 1 186 C1.03320484 187.75080087 1.10279393 189.50093421 1.1875 191.25 C1.22230469 192.22453125 1.25710937 193.1990625 1.29296875 194.203125 C2.28075157 198.11059738 3.54253715 198.92965629 7 201 C10.44063614 201.58955985 13.84056072 201.53958977 17.32434082 201.50793457 C18.37455807 201.51417453 19.42477532 201.5204145 20.50681734 201.52684355 C24.03146491 201.54281836 27.55542523 201.53015119 31.08007812 201.51757812 C33.60469466 201.52299722 36.12930804 201.53011868 38.65391541 201.53881836 C44.80253945 201.5551825 50.95090834 201.55276235 57.09953582 201.5411678 C62.09652997 201.53213492 67.09346939 201.53090883 72.09046936 201.53526306 C73.15718952 201.53618246 73.15718952 201.53618246 74.24545959 201.53712043 C75.69013228 201.53839933 77.13480495 201.53969618 78.57947761 201.5410108 C92.12679277 201.5524175 105.67399968 201.53930152 119.22129709 201.51780933 C130.84599056 201.49993823 142.47052426 201.50304232 154.09521484 201.52148438 C167.59398323 201.54288954 181.09265673 201.55131885 194.59143972 201.53903532 C196.03080335 201.53776112 197.47016699 201.53650364 198.90953064 201.53526306 C199.9718274 201.53433741 199.9718274 201.53433741 201.0555847 201.53339306 C206.04668758 201.52993908 211.03773029 201.5357695 216.02882385 201.54518127 C222.74625594 201.55756996 229.46333939 201.54875217 236.18075752 201.52560425 C238.64909424 201.52030596 241.11745631 201.52184994 243.585783 201.53065491 C246.94942094 201.54154919 250.31208376 201.52791956 253.67565918 201.50793457 C254.65765809 201.51685746 255.63965699 201.52578034 256.65141344 201.53497362 C260.9027448 201.48581568 263.3309963 201.40850878 267.0202713 199.15575409 C269.135874 196.9632806 269.135874 196.9632806 271 194 C271 196.97 271 199.94 271 203 C181.57 203 92.14 203 0 203 C0 136.01 0 69.02 0 0 Z " fill="#F89695" transform="translate(0,0)"/>
<path d="M0 0 C0 1.98 0 3.96 0 6 C0.66 6 1.32 6 2 6 C2 4.35 2 2.7 2 1 C2.99 1 3.98 1 5 1 C5 2.32 5 3.64 5 5 C5.66 5 6.32 5 7 5 C7 3.68 7 2.36 7 1 C10.36541838 -0.08174162 11.29847322 0.07461831 15 1 C15 15.52 15 30.04 15 45 C7.08 45 -0.84 45 -9 45 C-9 37 -9 37 -7 33 C-13.27 33 -19.54 33 -26 33 C-26 22.44 -26 11.88 -26 1 C-24.35 1 -22.7 1 -21 1 C-21 2.32 -21 3.64 -21 5 C-20.34 5 -19.68 5 -19 5 C-19 3.68 -19 2.36 -19 1 C-17.68 1 -16.36 1 -15 1 C-14.67 2.32 -14.34 3.64 -14 5 C-14 3.68 -14 2.36 -14 1 C-11.03 1 -8.06 1 -5 1 C-5 2.32 -5 3.64 -5 5 C-4.896875 4.360625 -4.79375 3.72125 -4.6875 3.0625 C-4.460625 2.381875 -4.23375 1.70125 -4 1 C-1 0 -1 0 0 0 Z " fill="#F7F7F6" transform="translate(37,142)"/>
<path d="M0 0 C10.56 0 21.12 0 32 0 C32 10.89 32 21.78 32 33 C29.36 33 26.72 33 24 33 C24 32.34 24 31.68 24 31 C19.71 31 15.42 31 11 31 C9.7018576 33.2236068 9.7018576 33.2236068 10 37 C10 38.66666667 10 40.33333333 10 42 C9.67 41.34 9.34 40.68 9 40 C8.34 40 7.68 40 7 40 C7 41.32 7 42.64 7 44 C7.99 44.33 8.98 44.66 10 45 C11 46 11 46 11.09765625 48.28515625 C11.04882812 52.14257812 11.04882812 52.14257812 11 56 C7.37 56 3.74 56 0 56 C0 37.52 0 19.04 0 0 Z " fill="#27221F" transform="translate(198,132)"/>
<path d="M0 0 C4.29 0 8.58 0 13 0 C13 0.66 13 1.32 13 2 C13.95261719 1.98839844 14.90523437 1.97679688 15.88671875 1.96484375 C17.14097656 1.95582031 18.39523438 1.94679688 19.6875 1.9375 C20.92886719 1.92589844 22.17023438 1.91429688 23.44921875 1.90234375 C26.46235454 1.98521327 29.08275339 2.29160551 32 3 C32 3.66 32 4.32 32 5 C30.02 5 28.04 5 26 5 C26 5.66 26 6.32 26 7 C24.44539063 6.98259766 24.44539063 6.98259766 22.859375 6.96484375 C21.48958514 6.95546163 20.11979332 6.94636188 18.75 6.9375 C18.06808594 6.92912109 17.38617188 6.92074219 16.68359375 6.91210938 C13.30657446 6.89571608 10.22708361 6.94371232 7 8 C7 8.66 7 9.32 7 10 C12.94 10 18.88 10 25 10 C25.33 10.99 25.66 11.98 26 13 C26.99 13 27.98 13 29 13 C29 13.66 29 14.32 29 15 C24.05 15.33 19.1 15.66 14 16 C14 16.66 14 17.32 14 18 C22.25 18 30.5 18 39 18 C38.505 19.485 38.505 19.485 38 21 C37.01 21 36.02 21 35 21 C35 22.32 35 23.64 35 25 C39.95 25.99 39.95 25.99 45 27 C45 27.33 45 27.66 45 28 C40.32798795 29.20568053 35.78503708 29.09382426 31 29 C31 29.66 31 30.32 31 31 C32.32 31 33.64 31 35 31 C35 31.99 35 32.98 35 34 C27.08 34.33 19.16 34.66 11 35 C11 35.99 11 36.98 11 38 C12.2375 37.979375 13.475 37.95875 14.75 37.9375 C17.6640825 37.93233319 20.20953327 38.06984442 23 39 C23 39.66 23 40.32 23 41 C16.565 41.495 16.565 41.495 10 42 C14.29 42 18.58 42 23 42 C23 42.66 23 43.32 23 44 C13.595 44.99 13.595 44.99 4 46 C3.67 47.32 3.34 48.64 3 50 C1.35 50 -0.3 50 -2 50 C-2 34.16 -2 18.32 -2 2 C-1.34 2 -0.68 2 0 2 C0 1.34 0 0.68 0 0 Z " fill="#305693" transform="translate(97,96)"/>
<path d="M0 0 C0.33 0 0.66 0 1 0 C1 3.96 1 7.92 1 12 C1.66 12 2.32 12 3 12 C3 17.94 3 23.88 3 30 C-10.53 30 -24.06 30 -38 30 C-38 29.01 -38 28.02 -38 27 C-39.98 27 -41.96 27 -44 27 C-45.27798935 22.28741428 -46 18.95734952 -46 14 C-23.725 13.505 -23.725 13.505 -1 13 C-0.505 6.565 -0.505 6.565 0 0 Z " fill="#DC5F5E" transform="translate(194,157)"/>
<path d="M0 0 C3.3 0 6.6 0 10 0 C12.21903945 3.32855918 12.2688066 4.46766438 12.3347168 8.35766602 C12.35781418 9.4521254 12.38091156 10.54658478 12.40470886 11.67420959 C12.42674126 13.44615944 12.42674126 13.44615944 12.44921875 15.25390625 C12.47095657 16.46570053 12.4926944 17.67749481 12.51509094 18.92601013 C12.55902822 21.48892853 12.59822332 24.05193193 12.63305664 26.61499023 C12.68733093 30.5502416 12.75749569 34.48496999 12.83007812 38.41992188 C12.87073134 40.90623481 12.91047578 43.39256281 12.94921875 45.87890625 C12.96997971 47.06223038 12.99074066 48.2455545 13.01213074 49.46473694 C13.03259209 51.10169777 13.03259209 51.10169777 13.0534668 52.77172852 C13.06741989 53.73530777 13.08137299 54.69888702 13.0957489 55.69166565 C13 58 13 58 12 60 C12.66 60.33 13.32 60.66 14 61 C9.38 61 4.76 61 0 61 C0 40.87 0 20.74 0 0 Z " fill="#365C9A" transform="translate(82,88)"/>
<path d="M0 0 C10.56 0 21.12 0 32 0 C32 6.93 32 13.86 32 21 C21.44 21 10.88 21 0 21 C0 14.07 0 7.14 0 0 Z " fill="#F7F9FA" transform="translate(209,166)"/>
<path d="M0 0 C3.63 0 7.26 0 11 0 C11 2.31 11 4.62 11 7 C11.66 7 12.32 7 13 7 C13 11.62 13 16.24 13 21 C12.34 21 11.68 21 11 21 C11 23.31 11 25.62 11 28 C3.41 28 -4.18 28 -12 28 C-12 19.09 -12 10.18 -12 1 C-8.7 1 -5.4 1 -2 1 C-2 2.32 -2 3.64 -2 5 C-2.66 5 -3.32 5 -4 5 C-4 7.31 -4 9.62 -4 12 C-1.69 12 0.62 12 3 12 C3 9.69 3 7.38 3 5 C2.01 5 1.02 5 0 5 C0 3.35 0 1.7 0 0 Z " fill="#FCF6F3" transform="translate(258,159)"/>
<path d="M0 0 C3.0625 0.3125 3.0625 0.3125 4.7355957 1.51293945 C6.51401789 3.92485296 6.40708505 5.44142892 6.35546875 8.41796875 C6.34580078 9.40087891 6.33613281 10.38378906 6.32617188 11.39648438 C6.30103516 12.42064453 6.27589844 13.44480469 6.25 14.5 C6.22969727 16.05364258 6.22969727 16.05364258 6.20898438 17.63867188 C6.17361389 20.19713699 6.12425544 22.7545578 6.0625 25.3125 C7.0525 25.3125 8.0425 25.3125 9.0625 25.3125 C9.0625 23.3325 9.0625 21.3525 9.0625 19.3125 C11.3885857 18.93186779 13.72305264 18.59980055 16.0625 18.3125 C17.71099053 19.96099053 17.2727571 21.86296635 17.3125 24.125 C17.33828125 24.99769531 17.3640625 25.87039062 17.390625 26.76953125 C16.99494742 29.83603252 16.27719835 31.16716581 14.0625 33.3125 C11.30107697 33.84049676 8.89884455 33.49848981 6.0625 33.3125 C6.0625 35.6225 6.0625 37.9325 6.0625 40.3125 C4.0825 40.3125 2.1025 40.3125 0.0625 40.3125 C0.0625 34.3725 0.0625 28.4325 0.0625 22.3125 C-0.9275 22.3125 -1.9175 22.3125 -2.9375 22.3125 C-3.2675 23.6325 -3.5975 24.9525 -3.9375 26.3125 C-3.9375 24.6625 -3.9375 23.0125 -3.9375 21.3125 C-4.515 21.498125 -5.0925 21.68375 -5.6875 21.875 C-9.97983723 22.70962113 -13.88707999 20.693325 -17.9375 19.3125 C-17.9375 16.0125 -17.9375 12.7125 -17.9375 9.3125 C-15.125 8.6875 -15.125 8.6875 -11.9375 8.3125 C-10.9475 8.9725 -9.9575 9.6325 -8.9375 10.3125 C-8.75 13.4375 -8.75 13.4375 -8.9375 16.3125 C-7.6175 16.3125 -6.2975 16.3125 -4.9375 16.3125 C-4.96070313 15.32507813 -4.98390625 14.33765625 -5.0078125 13.3203125 C-5.02585937 12.03898438 -5.04390625 10.75765625 -5.0625 9.4375 C-5.08570313 8.16132813 -5.10890625 6.88515625 -5.1328125 5.5703125 C-4.87792742 1.31882937 -4.2550723 0.45266727 0 0 Z " fill="#FBCD1D" transform="translate(51.9375,120.6875)"/>
<path d="M0 0 C0.89525391 -0.00128906 1.79050781 -0.00257813 2.71289062 -0.00390625 C4.09831055 0.00189453 4.09831055 0.00189453 5.51171875 0.0078125 C6.42373047 0.00394531 7.33574219 0.00007812 8.27539062 -0.00390625 C23.08373059 0.01732434 23.08373059 0.01732434 25.19921875 2.1328125 C25.23985707 3.79898365 25.24193975 5.46669345 25.19921875 7.1328125 C24.53921875 7.1328125 23.87921875 7.1328125 23.19921875 7.1328125 C23.19921875 5.8128125 23.19921875 4.4928125 23.19921875 3.1328125 C22.20921875 3.1328125 21.21921875 3.1328125 20.19921875 3.1328125 C20.19921875 4.7828125 20.19921875 6.4328125 20.19921875 8.1328125 C19.53921875 8.1328125 18.87921875 8.1328125 18.19921875 8.1328125 C17.70421875 5.6578125 17.70421875 5.6578125 17.19921875 3.1328125 C16.20921875 3.1328125 15.21921875 3.1328125 14.19921875 3.1328125 C14.69421875 5.1128125 14.69421875 5.1128125 15.19921875 7.1328125 C14.53921875 7.1328125 13.87921875 7.1328125 13.19921875 7.1328125 C13.19921875 5.8128125 13.19921875 4.4928125 13.19921875 3.1328125 C11.87921875 3.1328125 10.55921875 3.1328125 9.19921875 3.1328125 C8.86921875 4.4528125 8.53921875 5.7728125 8.19921875 7.1328125 C8.19921875 5.8128125 8.19921875 4.4928125 8.19921875 3.1328125 C6.87921875 3.1328125 5.55921875 3.1328125 4.19921875 3.1328125 C4.19921875 4.4528125 4.19921875 5.7728125 4.19921875 7.1328125 C3.53921875 6.8028125 2.87921875 6.4728125 2.19921875 6.1328125 C2.52921875 5.1428125 2.85921875 4.1528125 3.19921875 3.1328125 C1.87921875 3.1328125 0.55921875 3.1328125 -0.80078125 3.1328125 C-0.80078125 4.4528125 -0.80078125 5.7728125 -0.80078125 7.1328125 C-1.46078125 7.1328125 -2.12078125 7.1328125 -2.80078125 7.1328125 C-2.80078125 5.8128125 -2.80078125 4.4928125 -2.80078125 3.1328125 C-4.45078125 3.1328125 -6.10078125 3.1328125 -7.80078125 3.1328125 C-7.80078125 13.6928125 -7.80078125 24.2528125 -7.80078125 35.1328125 C-1.53078125 35.1328125 4.73921875 35.1328125 11.19921875 35.1328125 C10.53921875 39.0928125 9.87921875 43.0528125 9.19921875 47.1328125 C17.11921875 47.1328125 25.03921875 47.1328125 33.19921875 47.1328125 C33.19921875 47.4628125 33.19921875 47.7928125 33.19921875 48.1328125 C32.45760498 48.15786865 31.71599121 48.1829248 30.9519043 48.20874023 C27.59666547 48.32467382 24.24170931 48.44741235 20.88671875 48.5703125 C19.71947266 48.60962891 18.55222656 48.64894531 17.34960938 48.68945312 C16.23134766 48.73134766 15.11308594 48.77324219 13.9609375 48.81640625 C12.41345825 48.87139282 12.41345825 48.87139282 10.8347168 48.92749023 C8.09173617 49.03442492 8.09173617 49.03442492 5.19921875 50.1328125 C3.42608024 50.21491042 1.650011 50.24027544 -0.125 50.23046875 C-1.15302734 50.22724609 -2.18105469 50.22402344 -3.24023438 50.22070312 C-4.31208984 50.21232422 -5.38394531 50.20394531 -6.48828125 50.1953125 C-7.57173828 50.19080078 -8.65519531 50.18628906 -9.77148438 50.18164062 C-12.4479721 50.16984993 -15.12434902 50.15339313 -17.80078125 50.1328125 C-17.80078125 48.8128125 -17.80078125 47.4928125 -17.80078125 46.1328125 C-16.31578125 45.6378125 -16.31578125 45.6378125 -14.80078125 45.1328125 C-14.47078125 42.8228125 -14.14078125 40.5128125 -13.80078125 38.1328125 C-15.12078125 38.1328125 -16.44078125 38.1328125 -17.80078125 38.1328125 C-17.80078125 36.8128125 -17.80078125 35.4928125 -17.80078125 34.1328125 C-15.16078125 34.1328125 -12.52078125 34.1328125 -9.80078125 34.1328125 C-9.80078125 23.2428125 -9.80078125 12.3528125 -9.80078125 1.1328125 C-6.21427932 0.41551211 -3.54837648 0.00498618 0 0 Z " fill="#1E1918" transform="translate(18.80078125,139.8671875)"/>
<path d="M0 0 C0.33 0 0.66 0 1 0 C1.33 8.25 1.66 16.5 2 25 C2.33 21.04 2.66 17.08 3 13 C5 11 5 11 8.6953125 10.8046875 C10.17200108 10.817991 11.64862358 10.84185165 13.125 10.875 C13.87910156 10.88402344 14.63320312 10.89304688 15.41015625 10.90234375 C17.27357254 10.9259313 19.13682593 10.96180281 21 11 C20.01 11.33 19.02 11.66 18 12 C18 12.99 18 13.98 18 15 C16.02 15.33 14.04 15.66 12 16 C13.65 16.33 15.3 16.66 17 17 C17 17.66 17 18.32 17 19 C17.66 19.66 18.32 20.32 19 21 C16.69 21 14.38 21 12 21 C12 21.99 12 22.98 12 24 C15.96 24 19.92 24 24 24 C24 24.66 24 25.32 24 26 C23.01 26 22.02 26 21 26 C21 26.66 21 27.32 21 28 C20.01 28 19.02 28 18 28 C18 28.66 18 29.32 18 30 C15.69 30 13.38 30 11 30 C9.78918149 33.10540926 9.78918149 33.10540926 10 37 C10 38.66666667 10 40.33333333 10 42 C9.67 41.34 9.34 40.68 9 40 C8.34 40 7.68 40 7 40 C7 41.32 7 42.64 7 44 C7.99 44.33 8.98 44.66 10 45 C11 46 11 46 11.09765625 48.28515625 C11.04882812 52.14257812 11.04882812 52.14257812 11 56 C7.37 56 3.74 56 0 56 C0 37.52 0 19.04 0 0 Z " fill="#332B2A" transform="translate(198,132)"/>
<path d="M0 0 C9.24 0 18.48 0 28 0 C28.66 4.29 29.32 8.58 30 13 C31.98 13 33.96 13 36 13 C36 13.99 36 14.98 36 16 C21.48 16 6.96 16 -8 16 C-8 15.01 -8 14.02 -8 13 C-6.02 13 -4.04 13 -2 13 C-1.855625 11.783125 -1.71125 10.56625 -1.5625 9.3125 C-1.18652748 6.14358879 -0.63024451 3.15122255 0 0 Z " fill="#D1EFF7" transform="translate(120,171)"/>
<path d="M0 0 C0 1.98 0 3.96 0 6 C3.96 6.33 7.92 6.66 12 7 C12 7.66 12 8.32 12 9 C1.11 9 -9.78 9 -21 9 C-21 15.6 -21 22.2 -21 29 C-10.11 29 0.78 29 12 29 C12 29.33 12 29.66 12 30 C5.73 30.33 -0.54 30.66 -7 31 C-1.06 31.33 4.88 31.66 11 32 C11 32.33 11 32.66 11 33 C5.39 33 -0.22 33 -6 33 C-6 34.32 -6 35.64 -6 37 C-0.06 37.33 5.88 37.66 12 38 C12 38.33 12 38.66 12 39 C5.4 39 -1.2 39 -8 39 C-8 39.66 -8 40.32 -8 41 C-1.4 41 5.2 41 12 41 C11.505 41.99 11.505 41.99 11 43 C6.05 43 1.1 43 -4 43 C-0.7 43.33 2.6 43.66 6 44 C6 44.33 6 44.66 6 45 C1.05 45 -3.9 45 -9 45 C-9.25 37.5 -9.25 37.5 -7 33 C-13.27 33 -19.54 33 -26 33 C-26 22.44 -26 11.88 -26 1 C-24.35 1 -22.7 1 -21 1 C-21 2.32 -21 3.64 -21 5 C-20.34 5 -19.68 5 -19 5 C-19 3.68 -19 2.36 -19 1 C-17.68 1 -16.36 1 -15 1 C-14.67 2.32 -14.34 3.64 -14 5 C-14 3.68 -14 2.36 -14 1 C-11.03 1 -8.06 1 -5 1 C-5 2.32 -5 3.64 -5 5 C-4.896875 4.360625 -4.79375 3.72125 -4.6875 3.0625 C-4.460625 2.381875 -4.23375 1.70125 -4 1 C-1 0 -1 0 0 0 Z M2 1 C2.99 1 3.98 1 5 1 C5 2.32 5 3.64 5 5 C4.01 5.33 3.02 5.66 2 6 C2 4.35 2 2.7 2 1 Z " fill="#F4F4F1" transform="translate(37,142)"/>
<path d="M0 0 C7.92 0 15.84 0 24 0 C24 1.65 24 3.3 24 5 C25.32 5.33 26.64 5.66 28 6 C27.67 6.99 27.34 7.98 27 9 C26.01 9 25.02 9 24 9 C24.020625 9.804375 24.04125 10.60875 24.0625 11.4375 C24 14 24 14 23 15 C21.37742456 15.0991657 19.75060169 15.13079777 18.125 15.1328125 C17.14015625 15.13410156 16.1553125 15.13539062 15.140625 15.13671875 C14.10421875 15.13285156 13.0678125 15.12898438 12 15.125 C10.44539063 15.13080078 10.44539063 15.13080078 8.859375 15.13671875 C7.87453125 15.13542969 6.8896875 15.13414063 5.875 15.1328125 C4.96492188 15.13168457 4.05484375 15.13055664 3.1171875 15.12939453 C1 15 1 15 0 14 C-0.14426614 9.33154772 -0.04208415 4.67134047 0 0 Z " fill="#F9908F" transform="translate(38,94)"/>
<path d="M0 0 C0.99 0.495 0.99 0.495 2 1 C1.67 26.41 1.34 51.82 1 78 C40.93 78 80.86 78 122 78 C122 78.33 122 78.66 122 79 C82.07 79 42.14 79 1 79 C0.63195919 86.13449589 0.63195919 86.13449589 3 92 C4.41117702 92.12209924 5.82820459 92.17770872 7.24438477 92.20532227 C8.59567223 92.2352401 8.59567223 92.2352401 9.97425842 92.26576233 C10.95341721 92.28247482 11.93257599 92.29918732 12.94140625 92.31640625 C14.43751686 92.3475779 14.43751686 92.3475779 15.96385193 92.37937927 C19.16332843 92.44498637 22.36288982 92.50381134 25.5625 92.5625 C27.72592039 92.60567462 29.88933206 92.64928855 32.05273438 92.69335938 C37.36839874 92.80067903 42.68414834 92.90242427 48 93 C46.9375 101.71428571 46.9375 101.71428571 46 106 C44.02 106 42.04 106 40 106 C41.98 105.505 41.98 105.505 44 105 C44.33 101.7 44.66 98.4 45 95 C43.06181396 95.02356567 43.06181396 95.02356567 41.08447266 95.04760742 C36.30247197 95.10180039 31.52049855 95.13631126 26.73828125 95.16479492 C24.66629476 95.17990586 22.59434037 95.20039541 20.52246094 95.22631836 C17.54874767 95.26260051 14.57545627 95.27970298 11.6015625 95.29296875 C10.20618759 95.31619453 10.20618759 95.31619453 8.78262329 95.33988953 C7.92188202 95.34011612 7.06114075 95.34034271 6.17431641 95.34057617 C5.41486725 95.34723801 4.65541809 95.35389984 3.87295532 95.36076355 C3.25488007 95.24171158 2.63680481 95.12265961 2 95 C-0.61615703 91.07576446 -0.26556915 87.76461941 -0.22705078 83.21411133 C-0.22734283 82.31634476 -0.22763489 81.41857819 -0.22793579 80.49360657 C-0.22654125 77.52298351 -0.21097415 74.55261055 -0.1953125 71.58203125 C-0.19158281 69.5236576 -0.18873563 67.46528218 -0.18673706 65.40690613 C-0.17909712 59.98665473 -0.15944549 54.56651035 -0.1373291 49.14630127 C-0.11687847 43.61642912 -0.10773702 38.08653969 -0.09765625 32.55664062 C-0.07619998 21.70438004 -0.04205964 10.85219892 0 0 Z " fill="#B67B7C" transform="translate(72,78)"/>
<path d="M0 0 C1.65322266 0.01740234 1.65322266 0.01740234 3.33984375 0.03515625 C4.99693359 0.04869141 4.99693359 0.04869141 6.6875 0.0625 C7.54214844 0.07410156 8.39679688 0.08570313 9.27734375 0.09765625 C9.27734375 1.74765625 9.27734375 3.39765625 9.27734375 5.09765625 C10.59734375 5.09765625 11.91734375 5.09765625 13.27734375 5.09765625 C13.27734375 7.40765625 13.27734375 9.71765625 13.27734375 12.09765625 C10.96734375 12.09765625 8.65734375 12.09765625 6.27734375 12.09765625 C6.27734375 9.78765625 6.27734375 7.47765625 6.27734375 5.09765625 C6.93734375 5.09765625 7.59734375 5.09765625 8.27734375 5.09765625 C8.27734375 3.77765625 8.27734375 2.45765625 8.27734375 1.09765625 C4.97734375 1.09765625 1.67734375 1.09765625 -1.72265625 1.09765625 C-1.72265625 10.00765625 -1.72265625 18.91765625 -1.72265625 28.09765625 C5.86734375 28.09765625 13.45734375 28.09765625 21.27734375 28.09765625 C21.27734375 25.78765625 21.27734375 23.47765625 21.27734375 21.09765625 C21.93734375 21.09765625 22.59734375 21.09765625 23.27734375 21.09765625 C23.27734375 25.71765625 23.27734375 30.33765625 23.27734375 35.09765625 C22.94734375 35.09765625 22.61734375 35.09765625 22.27734375 35.09765625 C22.27734375 33.11765625 22.27734375 31.13765625 22.27734375 29.09765625 C2.14734375 29.09765625 -17.98265625 29.09765625 -38.72265625 29.09765625 C-38.72265625 28.76765625 -38.72265625 28.43765625 -38.72265625 28.09765625 C-28.16265625 28.09765625 -17.60265625 28.09765625 -6.72265625 28.09765625 C-6.72265625 21.16765625 -6.72265625 14.23765625 -6.72265625 7.09765625 C-17.28265625 7.09765625 -27.84265625 7.09765625 -38.72265625 7.09765625 C-38.72265625 11.05765625 -38.72265625 15.01765625 -38.72265625 19.09765625 C-40.04265625 18.76765625 -41.36265625 18.43765625 -42.72265625 18.09765625 C-42.76537725 16.4315372 -42.76329457 14.7638274 -42.72265625 13.09765625 C-42.39265625 12.76765625 -42.06265625 12.43765625 -41.72265625 12.09765625 C-40.20800601 9.55849886 -40.20800601 9.55849886 -41.72265625 4.09765625 C-36.44265625 4.09765625 -31.16265625 4.09765625 -25.72265625 4.09765625 C-25.72265625 4.75765625 -25.72265625 5.41765625 -25.72265625 6.09765625 C-19.12265625 6.09765625 -12.52265625 6.09765625 -5.72265625 6.09765625 C-5.22765625 7.08765625 -5.22765625 7.08765625 -4.72265625 8.09765625 C-4.57828125 6.96328125 -4.43390625 5.82890625 -4.28515625 4.66015625 C-3.56955783 0.12803292 -3.56955783 0.12803292 0 0 Z " fill="#C88481" transform="translate(247.72265625,158.90234375)"/>
<path d="M0 0 C4.95 0 9.9 0 15 0 C14.43819394 8.98889697 12.31161634 17.33412665 10 26 C6.7 26 3.4 26 0 26 C0 17.42 0 8.84 0 0 Z " fill="#1B1D1E" transform="translate(52,161)"/>
<path d="M0 0 C0.598125 0.78375 1.19625 1.5675 1.8125 2.375 C3.97699171 4.97239005 5.54758702 6.81761361 9.01473367 7.25299966 C10.18001688 7.25511294 10.18001688 7.25511294 11.36884117 7.25726891 C12.71602464 7.26694224 12.71602464 7.26694224 14.09042394 7.276811 C15.07824853 7.2737138 16.06607312 7.2706166 17.08383179 7.26742554 C18.13234019 7.27195665 19.18084859 7.27648776 20.26112998 7.28115618 C23.79180661 7.29386623 27.32233029 7.29217556 30.85302734 7.29052734 C33.3773468 7.29650846 35.90166442 7.30331303 38.42597961 7.31088257 C44.58149084 7.32675064 50.73694558 7.33299279 56.89247535 7.33410732 C61.89522741 7.3350571 66.89796682 7.33916386 71.90071487 7.34550858 C86.07941334 7.36312512 100.2580815 7.37234681 114.43679099 7.37084763 C115.58376304 7.37072776 115.58376304 7.37072776 116.75390625 7.37060547 C117.51948619 7.37052371 118.28506613 7.37044195 119.07384546 7.37035771 C131.4828266 7.3695447 143.89168637 7.38868484 156.3006324 7.4168822 C169.03712996 7.44559587 181.7735683 7.45942333 194.51009905 7.45769465 C201.66268259 7.45703022 208.81513891 7.46254568 215.96769333 7.48405075 C222.69328085 7.50414222 229.41855475 7.50360444 236.14417076 7.48901749 C238.61573999 7.4869198 241.08732576 7.49168696 243.5588665 7.5037384 C246.92696463 7.51910062 250.29412402 7.50994174 253.66220093 7.49447632 C254.64556407 7.50476344 255.62892722 7.51505057 256.64208925 7.52564943 C260.89765605 7.48232016 263.3274302 7.41038472 267.02111244 5.15659523 C269.13568955 2.96312264 269.13568955 2.96312264 271 0 C271 2.97 271 5.94 271 9 C181.57 9 92.14 9 0 9 C0 6.03 0 3.06 0 0 Z " fill="#FEF4F6" transform="translate(0,194)"/>
<path d="M0 0 C0.66 0 1.32 0 2 0 C2 6.6 2 13.2 2 20 C-4.27 19.67 -10.54 19.34 -17 19 C-16.67 18.34 -16.34 17.68 -16 17 C-14.92878906 17.01160156 -13.85757813 17.02320313 -12.75390625 17.03515625 C-11.35677257 17.04453299 -9.95963701 17.05363331 -8.5625 17.0625 C-7.50192383 17.07506836 -7.50192383 17.07506836 -6.41992188 17.08789062 C-4.61306441 17.09653588 -2.80612397 17.05220011 -1 17 C-0.505 16.505 -0.505 16.505 0 16 C-1.91425781 16.12568359 -1.91425781 16.12568359 -3.8671875 16.25390625 C-5.53644035 16.35706232 -7.20571221 16.45991099 -8.875 16.5625 C-9.71675781 16.61857422 -10.55851562 16.67464844 -11.42578125 16.73242188 C-12.23144531 16.78076172 -13.03710938 16.82910156 -13.8671875 16.87890625 C-14.61081543 16.9260376 -15.35444336 16.97316895 -16.12060547 17.02172852 C-18 17 -18 17 -20 16 C-19.83242188 15.44570312 -19.66484375 14.89140625 -19.4921875 14.3203125 C-19.28851563 13.59585938 -19.08484375 12.87140625 -18.875 12.125 C-18.56175781 11.04605469 -18.56175781 11.04605469 -18.2421875 9.9453125 C-18.16226562 9.30335938 -18.08234375 8.66140625 -18 8 C-18.66 7.34 -19.32 6.68 -20 6 C-19.67 5.67 -19.34 5.34 -19 5 C-25.93 4.505 -25.93 4.505 -33 4 C-33 3.34 -33 2.68 -33 2 C-22.11 2 -11.22 2 0 2 C0 1.34 0 0.68 0 0 Z " fill="#FBFBFA" transform="translate(49,167)"/>
<path d="M0 0 C3.76904401 1.884522 6.92822223 4.08201223 10.25 6.625 C10.80429688 7.04523438 11.35859375 7.46546875 11.9296875 7.8984375 C13.28866663 8.92938719 14.64463835 9.96429911 16 11 C21.50854468 6.90389385 21.50854468 6.90389385 26.875 2.625 C29 1 29 1 31 1 C31 6.61 31 12.22 31 18 C30.34 18.33 29.68 18.66 29 19 C28.34 18.67 27.68 18.34 27 18 C27 17.34 27 16.68 27 16 C19.06390177 14.03929268 19.06390177 14.03929268 11 14 C8.89586384 15.85410577 8.89586384 15.85410577 7 18 C4.375 19.1875 4.375 19.1875 2 20 C1.34 20.33 0.68 20.66 0 21 C0 14.07 0 7.14 0 0 Z " fill="#D2F3F6" transform="translate(209,166)"/>
<path d="M0 0 C33.99 0 67.98 0 103 0 C103 20.13 103 40.26 103 61 C102.67 61 102.34 61 102 61 C102 41.2 102 21.4 102 1 C73.95 1 45.9 1 17 1 C17 3.31 17 5.62 17 8 C20.3 8 23.6 8 27 8 C27 8.33 27 8.66 27 9 C22.71 9 18.42 9 14 9 C14 9.66 14 10.32 14 11 C14.99 11.33 15.98 11.66 17 12 C15.68 12 14.36 12 13 12 C12.67 27.18 12.34 42.36 12 58 C11.67 58 11.34 58 11 58 C11 40.18 11 22.36 11 4 C10.34 3.67 9.68 3.34 9 3 C9 2.67 9 2.34 9 2 C6.03 1.67 3.06 1.34 0 1 C0 0.67 0 0.34 0 0 Z " fill="#2A4B84" transform="translate(83,87)"/>
<path d="M0 0 C2.64 0 5.28 0 8 0 C7.195625 0.61875 6.39125 1.2375 5.5625 1.875 C2.96125481 3.74164041 2.96125481 3.74164041 2 6 C1.89336953 8.25486107 1.85328195 10.51294259 1.84178162 12.77029419 C1.83684364 13.47437405 1.83190566 14.1784539 1.82681805 14.90386951 C1.81140037 17.27461498 1.80307092 19.64533329 1.79467773 22.01611328 C1.78510256 23.71097047 1.7750927 25.40582525 1.76467896 27.10067749 C1.73758471 31.71196689 1.71659966 36.32326656 1.69667697 40.93459177 C1.67484524 45.74994193 1.64744282 50.56526023 1.62062073 55.38058472 C1.57065572 64.50365388 1.52573105 73.62674069 1.48259836 82.74984443 C1.43325849 93.13423662 1.37832833 103.51859685 1.32291877 113.90295815 C1.20904029 135.26860901 1.10221406 156.63429037 1 178 C2.32 178 3.64 178 5 178 C5 180.31 5 182.62 5 185 C3.68 185.33 2.36 185.66 1 186 C1 188.64 1 191.28 1 194 C0.67 194 0.34 194 0 194 C0 129.98 0 65.96 0 0 Z " fill="#FBA4A6" transform="translate(0,0)"/>
<path d="M0 0 C1.20140625 -0.00386719 2.4028125 -0.00773437 3.640625 -0.01171875 C4.80335937 -0.01042969 5.96609375 -0.00914063 7.1640625 -0.0078125 C8.21287598 -0.00668457 9.26168945 -0.00555664 10.34228516 -0.00439453 C13.42624822 0.12718657 16.34410251 0.55440479 19.375 1.125 C19.375 1.455 19.375 1.785 19.375 2.125 C14.70298795 3.33068053 10.16003708 3.21882426 5.375 3.125 C5.375 3.785 5.375 4.445 5.375 5.125 C6.695 5.125 8.015 5.125 9.375 5.125 C9.375 6.115 9.375 7.105 9.375 8.125 C8.27043457 8.16258423 8.27043457 8.16258423 7.14355469 8.20092773 C3.80386622 8.31704273 0.46444903 8.43969918 -2.875 8.5625 C-4.03386719 8.60181641 -5.19273438 8.64113281 -6.38671875 8.68164062 C-8.05927734 8.74448242 -8.05927734 8.74448242 -9.765625 8.80859375 C-11.30524902 8.86358032 -11.30524902 8.86358032 -12.87597656 8.91967773 C-15.26110887 9.09782128 -17.33799499 9.45277363 -19.625 10.125 C-19.625 9.465 -19.625 8.805 -19.625 8.125 C-18.965 8.125 -18.305 8.125 -17.625 8.125 C-17.625 6.475 -17.625 4.825 -17.625 3.125 C-18.945 2.465 -20.265 1.805 -21.625 1.125 C-14.40777096 -0.00325169 -7.29479509 -0.02363325 0 0 Z " fill="#728FBA" transform="translate(122.625,121.875)"/>
<path d="M0 0 C0.89525391 -0.00128906 1.79050781 -0.00257813 2.71289062 -0.00390625 C4.09831055 0.00189453 4.09831055 0.00189453 5.51171875 0.0078125 C6.42373047 0.00394531 7.33574219 0.00007812 8.27539062 -0.00390625 C23.08373059 0.01732434 23.08373059 0.01732434 25.19921875 2.1328125 C25.23985707 3.79898365 25.24193975 5.46669345 25.19921875 7.1328125 C24.53921875 7.1328125 23.87921875 7.1328125 23.19921875 7.1328125 C23.19921875 5.8128125 23.19921875 4.4928125 23.19921875 3.1328125 C22.20921875 3.1328125 21.21921875 3.1328125 20.19921875 3.1328125 C20.19921875 4.7828125 20.19921875 6.4328125 20.19921875 8.1328125 C19.53921875 8.1328125 18.87921875 8.1328125 18.19921875 8.1328125 C17.70421875 5.6578125 17.70421875 5.6578125 17.19921875 3.1328125 C16.20921875 3.1328125 15.21921875 3.1328125 14.19921875 3.1328125 C14.69421875 5.1128125 14.69421875 5.1128125 15.19921875 7.1328125 C14.53921875 7.1328125 13.87921875 7.1328125 13.19921875 7.1328125 C13.19921875 5.8128125 13.19921875 4.4928125 13.19921875 3.1328125 C11.87921875 3.1328125 10.55921875 3.1328125 9.19921875 3.1328125 C8.86921875 4.4528125 8.53921875 5.7728125 8.19921875 7.1328125 C8.19921875 5.8128125 8.19921875 4.4928125 8.19921875 3.1328125 C6.87921875 3.1328125 5.55921875 3.1328125 4.19921875 3.1328125 C4.19921875 4.4528125 4.19921875 5.7728125 4.19921875 7.1328125 C3.53921875 6.8028125 2.87921875 6.4728125 2.19921875 6.1328125 C2.52921875 5.1428125 2.85921875 4.1528125 3.19921875 3.1328125 C1.87921875 3.1328125 0.55921875 3.1328125 -0.80078125 3.1328125 C-0.80078125 4.4528125 -0.80078125 5.7728125 -0.80078125 7.1328125 C-1.46078125 7.1328125 -2.12078125 7.1328125 -2.80078125 7.1328125 C-2.80078125 5.8128125 -2.80078125 4.4928125 -2.80078125 3.1328125 C-4.45078125 3.1328125 -6.10078125 3.1328125 -7.80078125 3.1328125 C-7.80078125 13.6928125 -7.80078125 24.2528125 -7.80078125 35.1328125 C-1.53078125 35.1328125 4.73921875 35.1328125 11.19921875 35.1328125 C11.19921875 35.4628125 11.19921875 35.7928125 11.19921875 36.1328125 C1.62921875 36.1328125 -7.94078125 36.1328125 -17.80078125 36.1328125 C-17.80078125 35.4728125 -17.80078125 34.8128125 -17.80078125 34.1328125 C-15.16078125 34.1328125 -12.52078125 34.1328125 -9.80078125 34.1328125 C-9.80078125 23.2428125 -9.80078125 12.3528125 -9.80078125 1.1328125 C-6.21427932 0.41551211 -3.54837648 0.00498618 0 0 Z " fill="#AF6F6E" transform="translate(18.80078125,139.8671875)"/>
<path d="M0 0 C5.94 0 11.88 0 18 0 C18 3.3 18 6.6 18 10 C15.69 10 13.38 10 11 10 C11 10.99 11 11.98 11 13 C12.32 13.33 13.64 13.66 15 14 C15 14.66 15 15.32 15 16 C11.37 16 7.74 16 4 16 C4 15.01 4 14.02 4 13 C4.99 13 5.98 13 7 13 C7 12.01 7 11.02 7 10 C2.71 10 -1.58 10 -6 10 C-6 9.01 -6 8.02 -6 7 C-0.06 7 5.88 7 12 7 C11.67 6.01 11.34 5.02 11 4 C7.37 3.67 3.74 3.34 0 3 C0 2.01 0 1.02 0 0 Z " fill="#F38481" transform="translate(252,134)"/>
<path d="M0 0 C-0.375 1.9375 -0.375 1.9375 -1 4 C-1.99 4.495 -1.99 4.495 -3 5 C-3 60.11 -3 115.22 -3 172 C-3.66 172 -4.32 172 -5 172 C-5.07003862 150.16462658 -5.12296292 128.32927165 -5.15543652 106.49380875 C-5.17091442 96.35553485 -5.19202156 86.2173307 -5.22631836 76.07910156 C-5.25619247 67.24403073 -5.27556829 58.40901039 -5.28226548 49.57389045 C-5.28618112 44.89447514 -5.29540254 40.21520432 -5.31719017 35.53583527 C-5.33752392 31.13312733 -5.34384012 26.73062366 -5.33932304 22.32787323 C-5.34014964 20.71053457 -5.34613385 19.09318922 -5.35761642 17.47589111 C-5.37251222 15.26999105 -5.36896478 13.06486522 -5.36076355 10.85894775 C-5.36352893 9.62374516 -5.36629431 8.38854256 -5.36914349 7.11590958 C-4.94616719 3.54560175 -4.11988575 0 0 0 Z " fill="#D06366" transform="translate(6,2)"/>
<path d="M0 0 C3.96 0 7.92 0 12 0 C12.33 0.99 12.66 1.98 13 3 C13.99 3 14.98 3 16 3 C16 3.66 16 4.32 16 5 C11.05 5.33 6.1 5.66 1 6 C1 6.66 1 7.32 1 8 C9.25 8 17.5 8 26 8 C26 8.66 26 9.32 26 10 C20.06 10.33 14.12 10.66 8 11 C8 11.66 8 12.32 8 13 C5.03 13 2.06 13 -1 13 C-1.33 12.01 -1.66 11.02 -2 10 C-1.67 9.34 -1.34 8.68 -1 8 C-1.99 8 -2.98 8 -4 8 C-4 7.34 -4 6.68 -4 6 C-4.66 6 -5.32 6 -6 6 C-6 4.68 -6 3.36 -6 2 C-4.02 2 -2.04 2 0 2 C0 1.34 0 0.68 0 0 Z " fill="#718AB4" transform="translate(110,106)"/>
<path d="M0 0 C3.00617269 3.00617269 2.59585316 5.82381598 3 10 C4.98 10 6.96 10 9 10 C9 10.99 9 11.98 9 13 C-5.52 13 -20.04 13 -35 13 C-35 12.01 -35 11.02 -35 10 C-33.02 10 -31.04 10 -29 10 C-28.67 7.36 -28.34 4.72 -28 2 C-27.67 2 -27.34 2 -27 2 C-26.67 4.31 -26.34 6.62 -26 9 C-17.75 9 -9.5 9 -1 9 C0.13074409 4.19611614 0.13074409 4.19611614 0 0 Z " fill="#FDF2F3" transform="translate(147,174)"/>
<path d="M0 0 C10.56 0 21.12 0 32 0 C32 1.65 32 3.3 32 5 C21.44 5 10.88 5 0 5 C0 3.35 0 1.7 0 0 Z " fill="#E8C9C6" transform="translate(198,127)"/>
<path d="M0 0 C4.29 0 8.58 0 13 0 C13 0.66 13 1.32 13 2 C13.95261719 1.98839844 14.90523437 1.97679688 15.88671875 1.96484375 C17.14097656 1.95582031 18.39523438 1.94679688 19.6875 1.9375 C20.92886719 1.92589844 22.17023438 1.91429688 23.44921875 1.90234375 C26.46235454 1.98521327 29.08275339 2.29160551 32 3 C32 3.66 32 4.32 32 5 C30.02 5 28.04 5 26 5 C26 5.66 26 6.32 26 7 C18.74 7 11.48 7 4 7 C4 6.34 4 5.68 4 5 C3.34 5 2.68 5 2 5 C2 4.34 2 3.68 2 3 C1.34 2.67 0.68 2.34 0 2 C0 1.34 0 0.68 0 0 Z " fill="#6C89B0" transform="translate(97,96)"/>
<path d="M0 0 C1.39456452 0.00667256 2.78911118 0.01863093 4.18359375 0.03515625 C4.89451172 0.03966797 5.60542969 0.04417969 6.33789062 0.04882812 C8.09899388 0.06064761 9.86005411 0.07858362 11.62109375 0.09765625 C11.62109375 2.07765625 11.62109375 4.05765625 11.62109375 6.09765625 C8.62109375 6.09765625 8.62109375 6.09765625 6.62109375 5.09765625 C6.62109375 4.43765625 6.62109375 3.77765625 6.62109375 3.09765625 C4.64109375 3.09765625 2.66109375 3.09765625 0.62109375 3.09765625 C0.62109375 5.07765625 0.62109375 7.05765625 0.62109375 9.09765625 C3.26109375 9.42765625 5.90109375 9.75765625 8.62109375 10.09765625 C8.95109375 9.43765625 9.28109375 8.77765625 9.62109375 8.09765625 C10.28109375 8.09765625 10.94109375 8.09765625 11.62109375 8.09765625 C11.62109375 9.41765625 11.62109375 10.73765625 11.62109375 12.09765625 C10.85796875 12.36578125 10.09484375 12.63390625 9.30859375 12.91015625 C6.74728491 14.04189737 5.42416437 15.00989026 3.62109375 17.09765625 C3.22921875 16.45828125 2.83734375 15.81890625 2.43359375 15.16015625 C0.21538726 12.63599025 -1.14321104 12.60075125 -4.37890625 12.09765625 C-4.40577904 10.28523573 -4.4252434 8.47270392 -4.44140625 6.66015625 C-4.45300781 5.65082031 -4.46460938 4.64148438 -4.4765625 3.6015625 C-4.32617643 -0.2543364 -3.97350921 0.11484131 0 0 Z " fill="#FAE7E4" transform="translate(209.37890625,100.90234375)"/>
<path d="M0 0 C1.32 0 2.64 0 4 0 C4.144375 1.134375 4.28875 2.26875 4.4375 3.4375 C4.61171478 6.80777201 4.61171478 6.80777201 6 8 C7.85349212 8.05000991 9.70867692 8.03569334 11.5625 8 C22.38657563 7.91008037 33.19005932 8.49907103 44 9 C44 9.33 44 9.66 44 10 C42.88757935 10.03758423 42.88757935 10.03758423 41.75268555 10.07592773 C38.39744672 10.19186132 35.04249056 10.31459985 31.6875 10.4375 C30.52025391 10.47681641 29.35300781 10.51613281 28.15039062 10.55664062 C27.03212891 10.59853516 25.91386719 10.64042969 24.76171875 10.68359375 C23.73006592 10.72025146 22.69841309 10.75690918 21.63549805 10.79467773 C18.89251742 10.90161242 18.89251742 10.90161242 16 12 C14.22686149 12.08209792 12.45079225 12.10746294 10.67578125 12.09765625 C9.64775391 12.09443359 8.61972656 12.09121094 7.56054688 12.08789062 C6.48869141 12.07951172 5.41683594 12.07113281 4.3125 12.0625 C3.22904297 12.05798828 2.14558594 12.05347656 1.02929688 12.04882812 C-1.64719085 12.03703743 -4.32356777 12.02058063 -7 12 C-7 11.01 -7 10.02 -7 9 C-5.02 9 -3.04 9 -1 9 C-0.67 6.03 -0.34 3.06 0 0 Z " fill="#A15958" transform="translate(8,178)"/>
<path d="M0 0 C0.99 0.495 0.99 0.495 2 1 C2 3.97 2 6.94 2 10 C2.33 9.34 2.66 8.68 3 8 C3.99 8 4.98 8 6 8 C6 7.01 6 6.02 6 5 C11.28 5 16.56 5 22 5 C21.34 6.32 20.68 7.64 20 9 C20.66 9.33 21.32 9.66 22 10 C22 10.66 22 11.32 22 12 C17.05 12.33 12.1 12.66 7 13 C12.28 13.33 17.56 13.66 23 14 C23 14.33 23 14.66 23 15 C19.35418313 15.02887512 15.70839537 15.04675585 12.0625 15.0625 C10.50112305 15.07506836 10.50112305 15.07506836 8.90820312 15.08789062 C7.91884766 15.09111328 6.92949219 15.09433594 5.91015625 15.09765625 C4.99371338 15.10289307 4.07727051 15.10812988 3.13305664 15.11352539 C1 15 1 15 0 14 C-0.07271741 11.64686445 -0.08370868 9.29166332 -0.0625 6.9375 C-0.05347656 5.64714844 -0.04445312 4.35679688 -0.03515625 3.02734375 C-0.02355469 2.02832031 -0.01195312 1.02929688 0 0 Z " fill="#EF8786" transform="translate(38,94)"/>
<path d="M0 0 C1.43655854 -0.08131463 2.8744483 -0.13933559 4.3125 -0.1875 C5.51326172 -0.23970703 5.51326172 -0.23970703 6.73828125 -0.29296875 C9 0 9 0 10.78125 1 C12.72956791 4.19723965 12.31086651 7.56558588 12.1875 11.1875 C12.16719727 12.31188477 12.16719727 12.31188477 12.14648438 13.45898438 C12.11118539 15.30629767 12.05737917 17.15324066 12 19 C12.62648438 18.90460938 13.25296875 18.80921875 13.8984375 18.7109375 C15.12433594 18.54464844 15.12433594 18.54464844 16.375 18.375 C17.59316406 18.20097656 17.59316406 18.20097656 18.8359375 18.0234375 C19.55007812 18.01570313 20.26421875 18.00796875 21 18 C23.77809395 20.77809395 23.29955703 22.56755203 23.3125 26.4375 C23.32925781 27.59121094 23.34601563 28.74492187 23.36328125 29.93359375 C23 33 23 33 21.7421875 34.8984375 C18.61622424 36.87494342 15.61125729 36.17760282 12 36 C12 37.65 12 39.3 12 41 C11.67 41 11.34 41 11 41 C11 39.02 11 37.04 11 35 C13.01822917 34.83723958 15.03645833 34.67447917 17.0546875 34.51171875 C19.39519216 34.12606964 19.39519216 34.12606964 21 31 C21.24150773 28.48415109 21.24150773 28.48415109 21.125 25.8125 C21.10695313 24.91144531 21.08890625 24.01039063 21.0703125 23.08203125 C21.04710938 22.39496094 21.02390625 21.70789063 21 21 C18.69 21 16.38 21 14 21 C14 22.98 14 24.96 14 27 C13.01 27 12.02 27 11 27 C10.98018066 26.34402832 10.96036133 25.68805664 10.93994141 25.01220703 C10.84487493 22.04938931 10.73512248 19.08729468 10.625 16.125 C10.5940625 15.09246094 10.563125 14.05992187 10.53125 12.99609375 C10.49257813 12.00996094 10.45390625 11.02382812 10.4140625 10.0078125 C10.3826416 9.09660645 10.3512207 8.18540039 10.31884766 7.24658203 C10.20117489 4.80068814 10.20117489 4.80068814 8 3 C4.95817107 2.74994614 4.95817107 2.74994614 2 3 C0.05909174 4.94090826 0.60080565 8.47293902 0.4375 11.0625 C0.35371094 12.35285156 0.26992188 13.64320313 0.18359375 14.97265625 C0.12300781 15.97167969 0.06242187 16.97070312 0 18 C-1.32 17.67 -2.64 17.34 -4 17 C-3.01 17 -2.02 17 -1 17 C-1.01160156 15.94039062 -1.02320313 14.88078125 -1.03515625 13.7890625 C-1.04453476 12.40104342 -1.05363489 11.01302245 -1.0625 9.625 C-1.07087891 8.92632812 -1.07925781 8.22765625 -1.08789062 7.5078125 C-1.11328125 2.2265625 -1.11328125 2.2265625 0 0 Z " fill="#D97338" transform="translate(47,119)"/>
<path d="M0 0 C0.66 0 1.32 0 2 0 C2 5.61 2 11.22 2 17 C1.34 17.33 0.68 17.66 0 18 C-0.66 17.67 -1.32 17.34 -2 17 C-2 16.34 -2 15.68 -2 15 C-4.97 14.01 -7.94 13.02 -11 12 C-10.29875 11.319375 -9.5975 10.63875 -8.875 9.9375 C-6.15381461 7.23957261 -3.73904225 4.33406548 -1.33203125 1.35546875 C-0.89246094 0.90816406 -0.45289063 0.46085938 0 0 Z " fill="#D2F5FA" transform="translate(238,167)"/>
<path d="M0 0 C8.25 0 16.5 0 25 0 C24.01 0.33 23.02 0.66 22 1 C22 2.32 22 3.64 22 5 C22 5.33 22 5.66 22 6 C14.74 6 7.48 6 0 6 C0 5.01 0 4.02 0 3 C2.64 3 5.28 3 8 3 C8 2.34 8 1.68 8 1 C5.36 1 2.72 1 0 1 C0 0.67 0 0.34 0 0 Z " fill="#294C85" transform="translate(110,116)"/>
<path d="M0 0 C0.33 0 0.66 0 1 0 C1.05384521 2.29141286 1.09272087 4.58318188 1.125 6.875 C1.14820313 8.15117187 1.17140625 9.42734375 1.1953125 10.7421875 C1 14 1 14 -1 16 C-2.87295532 16.24050903 -2.87295532 16.24050903 -5.17431641 16.22705078 C-6.46542831 16.22682419 -6.46542831 16.22682419 -7.78262329 16.22659302 C-8.71287323 16.21627045 -9.64312317 16.20594788 -10.6015625 16.1953125 C-11.55316254 16.1924826 -12.50476257 16.18965271 -13.48519897 16.18673706 C-16.53192592 16.17551989 -19.57836154 16.15041263 -22.625 16.125 C-24.68749576 16.11497218 -26.74999612 16.10584599 -28.8125 16.09765625 C-33.87511267 16.07557554 -38.9375069 16.0410353 -44 16 C-44 16.99 -44 17.98 -44 19 C-44.66 19 -45.32 19 -46 19 C-46 17.35 -46 15.7 -46 14 C-23.725 13.505 -23.725 13.505 -1 13 C-0.505 6.565 -0.505 6.565 0 0 Z " fill="#D17B7A" transform="translate(194,157)"/>
<path d="M0 0 C0.99 0 1.98 0 3 0 C3 10.56 3 21.12 3 32 C2.01 32 1.02 32 0 32 C0 21.44 0 10.88 0 0 Z " fill="#FEF2F4" transform="translate(11,143)"/>
<path d="M0 0 C3.62498334 -0.02893932 7.24993713 -0.04677792 10.875 -0.0625 C12.42380859 -0.07506836 12.42380859 -0.07506836 14.00390625 -0.08789062 C14.99003906 -0.09111328 15.97617188 -0.09433594 16.9921875 -0.09765625 C18.35899658 -0.10551147 18.35899658 -0.10551147 19.75341797 -0.11352539 C22 0 22 0 24 1 C24 1.99 24 2.98 24 4 C16.08 4 8.16 4 0 4 C0 2.68 0 1.36 0 0 Z " fill="#F8C052" transform="translate(63,183)"/>
<path d="M0 0 C3.96 0 7.92 0 12 0 C12 1.65 12 3.3 12 5 C13.32 5 14.64 5 16 5 C16 7.31 16 9.62 16 12 C13.69 12 11.38 12 9 12 C9 9.69 9 7.38 9 5 C9.66 5 10.32 5 11 5 C11 3.68 11 2.36 11 1 C7.7 1 4.4 1 1 1 C1 9.91 1 18.82 1 28 C0.67 28 0.34 28 0 28 C0 18.76 0 9.52 0 0 Z " fill="#ECBF95" transform="translate(245,159)"/>
<path d="M0 0 C0 14.52 0 29.04 0 44 C-0.33 44 -0.66 44 -1 44 C-2.19388403 17.0423526 -2.19388403 17.0423526 -2 5 C-4.64 5 -7.28 5 -10 5 C-9.34 4.67 -8.68 4.34 -8 4 C-8 2.68 -8 1.36 -8 0 C-6 -1 -6 -1 0 0 Z " fill="#F1EFD3" transform="translate(52,143)"/>
<path d="M0 0 C1.81242052 -0.02687279 3.62495233 -0.04633715 5.4375 -0.0625 C6.44683594 -0.07410156 7.45617187 -0.08570313 8.49609375 -0.09765625 C11 0 11 0 12 1 C12.1875 3.4375 12.1875 3.4375 12 6 C10 8 10 8 7.87109375 8.23046875 C7.06800781 8.21628906 6.26492187 8.20210937 5.4375 8.1875 C4.22900391 8.17783203 4.22900391 8.17783203 2.99609375 8.16796875 C1 8 1 8 0 7 C-0.04092937 4.66702567 -0.04241723 2.33294775 0 0 Z " fill="#C5C3C0" transform="translate(15,178)"/>
<path d="M0 0 C3.33331439 -0.02937438 6.66659483 -0.04692334 10 -0.0625 C10.93457031 -0.07087891 11.86914062 -0.07925781 12.83203125 -0.08789062 C18.31827929 -0.10707331 23.58203286 0.10327627 29 1 C30 2 30 2 30.0625 4.5625 C30.041875 5.366875 30.02125 6.17125 30 7 C29.34 7 28.68 7 28 7 C28 5.68 28 4.36 28 3 C27.01 3 26.02 3 25 3 C25 4.65 25 6.3 25 8 C24.34 8 23.68 8 23 8 C22.67 6.35 22.34 4.7 22 3 C21.01 3 20.02 3 19 3 C19.33 4.32 19.66 5.64 20 7 C19.34 7 18.68 7 18 7 C18 5.68 18 4.36 18 3 C16.68 3 15.36 3 14 3 C13.67 4.32 13.34 5.64 13 7 C13 5.68 13 4.36 13 3 C12.31292969 2.95101562 11.62585937 2.90203125 10.91796875 2.8515625 C10.01691406 2.77679688 9.11585937 2.70203125 8.1875 2.625 C7.29417969 2.55539063 6.40085937 2.48578125 5.48046875 2.4140625 C3 2 3 2 0 0 Z " fill="#C36560" transform="translate(14,140)"/>
<path d="M0 0 C1.65 0 3.3 0 5 0 C5 0.66 5 1.32 5 2 C13.25 2 21.5 2 30 2 C30 2.66 30 3.32 30 4 C24.06 4.33 18.12 4.66 12 5 C12 5.66 12 6.32 12 7 C9.03 7 6.06 7 3 7 C2.67 6.01 2.34 5.02 2 4 C2.33 3.34 2.66 2.68 3 2 C2.01 2 1.02 2 0 2 C0 1.34 0 0.68 0 0 Z " fill="#7F9DCB" transform="translate(106,112)"/>
<path d="M0 0 C9.24 0 18.48 0 28 0 C28 0.99 28 1.98 28 3 C18.76 3 9.52 3 0 3 C0 2.01 0 1.02 0 0 Z " fill="#9FD2DA" transform="translate(120,171)"/>
<path d="M0 0 C5.28 0 10.56 0 16 0 C16 0.66 16 1.32 16 2 C18.64 2 21.28 2 24 2 C24 2.33 24 2.66 24 3 C17.07 3 10.14 3 3 3 C3 6.96 3 10.92 3 15 C1.68 14.67 0.36 14.34 -1 14 C-1.042721 12.33388095 -1.04063832 10.66617115 -1 9 C-0.67 8.67 -0.34 8.34 0 8 C1.51465024 5.46084261 1.51465024 5.46084261 0 0 Z " fill="#787B7C" transform="translate(206,163)"/>
<path d="M0 0 C3.63 0 7.26 0 11 0 C11 2.31 11 4.62 11 7 C10.67 7 10.34 7 10 7 C9.67 5.35 9.34 3.7 9 2 C7.35 2.33 5.7 2.66 4 3 C4.33 3.66 4.66 4.32 5 5 C5.18704404 7.69013339 5.08581391 10.29686177 5 13 C4 14 4 14 1.93359375 14.09765625 C1.10988281 14.08605469 0.28617187 14.07445312 -0.5625 14.0625 C-1.38878906 14.05347656 -2.21507812 14.04445312 -3.06640625 14.03515625 C-3.70449219 14.02355469 -4.34257812 14.01195312 -5 14 C-5 11.36 -5 8.72 -5 6 C-4.67 6 -4.34 6 -4 6 C-4 7.98 -4 9.96 -4 12 C-1.69 12 0.62 12 3 12 C3 9.69 3 7.38 3 5 C2.01 5 1.02 5 0 5 C0 3.35 0 1.7 0 0 Z " fill="#FEFAD2" transform="translate(258,159)"/>
<path d="M0 0 C9.9 0 19.8 0 30 0 C30 0.99 30 1.98 30 3 C23.07 3 16.14 3 9 3 C9 2.34 9 1.68 9 1 C8.34 1 7.68 1 7 1 C6.67 1.66 6.34 2.32 6 3 C6 2.34 6 1.68 6 1 C5.34 1 4.68 1 4 1 C3.67 1.66 3.34 2.32 3 3 C3 2.34 3 1.68 3 1 C2.34 1 1.68 1 1 1 C0.67 1.66 0.34 2.32 0 3 C0 2.01 0 1.02 0 0 Z " fill="#FDF8F5" transform="translate(199,128)"/>
<path d="M0 0 C0.33 0.99 0.66 1.98 1 3 C6.94 3.33 12.88 3.66 19 4 C19 4.33 19 4.66 19 5 C12.4 5 5.8 5 -1 5 C-1 5.66 -1 6.32 -1 7 C5.6 7 12.2 7 19 7 C18.67 7.66 18.34 8.32 18 9 C13.05 9 8.1 9 3 9 C6.3 9.33 9.6 9.66 13 10 C13 10.33 13 10.66 13 11 C8.05 11 3.1 11 -2 11 C-2.25 3.375 -2.25 3.375 0 0 Z " fill="#E6E3E2" transform="translate(30,176)"/>
<path d="M0 0 C0.66 0 1.32 0 2 0 C2.33 4.29 2.66 8.58 3 13 C17.52 13 32.04 13 47 13 C47 13.33 47 13.66 47 14 C40.62796407 14.0505963 34.2559797 14.08568957 27.88378906 14.10986328 C25.71482406 14.11993789 23.54587269 14.13359798 21.37695312 14.15087891 C18.26428874 14.17506323 15.15180349 14.18646832 12.0390625 14.1953125 C11.065065 14.20563507 10.0910675 14.21595764 9.08755493 14.22659302 C8.18677216 14.22674408 7.28598938 14.22689514 6.35791016 14.22705078 C5.16544174 14.23371262 5.16544174 14.23371262 3.94888306 14.24050903 C2 14 2 14 0 12 C-0.1953125 9.1796875 -0.1953125 9.1796875 -0.125 5.875 C-0.10695313 4.77929688 -0.08890625 3.68359375 -0.0703125 2.5546875 C-0.04710938 1.71164063 -0.02390625 0.86859375 0 0 Z " fill="#FBDCDA" transform="translate(73,157)"/>
<path d="M0 0 C1 1 1 1 1.0625 3.5625 C1.041875 4.366875 1.02125 5.17125 1 6 C0.67 4.68 0.34 3.36 0 2 C-2.97 1.505 -2.97 1.505 -6 1 C-6 3.97 -6 6.94 -6 10 C-5.175 9.814375 -4.35 9.62875 -3.5 9.4375 C0.61926719 8.9225916 3.90823355 9.36507072 8 10 C7.67 12.31 7.34 14.62 7 17 C6.67 17 6.34 17 6 17 C6 15.35 6 13.7 6 12 C5.4225 12.185625 4.845 12.37125 4.25 12.5625 C-0.04233723 13.39712113 -3.94957999 11.380825 -8 10 C-8 6.7 -8 3.4 -8 0 C-5.11795733 -1.44102133 -3.08226581 -0.65580124 0 0 Z " fill="#DEA533" transform="translate(42,130)"/>
<path d="M0 0 C0.33 0 0.66 0 1 0 C1 3.3 1 6.6 1 10 C0.01 9.34 -0.98 8.68 -2 8 C-2.33 8.33 -2.66 8.66 -3 9 C-8.28735632 9.45977011 -8.28735632 9.45977011 -10.9375 7.75 C-12 6 -12 6 -11.6875 3.8125 C-11.460625 3.214375 -11.23375 2.61625 -11 2 C-7.25 0.875 -7.25 0.875 -5 2 C-5 2.66 -5 3.32 -5 4 C-3.68 4.33 -2.36 4.66 -1 5 C-0.67 3.35 -0.34 1.7 0 0 Z " fill="#CBC0BE" transform="translate(221,102)"/>
<path d="M0 0 C0.66 0 1.32 0 2 0 C2 1.32 2 2.64 2 4 C2.66 4.33 3.32 4.66 4 5 C3.34 5 2.68 5 2 5 C2 13.91 2 22.82 2 32 C1.34 32 0.68 32 0 32 C0 21.44 0 10.88 0 0 Z " fill="#E9DCD6" transform="translate(14,143)"/>
<path d="M0 0 C1.32 0 2.64 0 4 0 C4.33 1.32 4.66 2.64 5 4 C5 2.68 5 1.36 5 0 C7.97 0 10.94 0 14 0 C13.67 1.32 13.34 2.64 13 4 C13 3.01 13 2.02 13 1 C12.34 1 11.68 1 11 1 C11 2.32 11 3.64 11 5 C6.20862412 6.6290678 2.94367454 7.20577428 -2 6 C-1.34 5.67 -0.68 5.34 0 5 C0 3.35 0 1.7 0 0 Z " fill="#F3EFEF" transform="translate(18,143)"/>
<path d="M0 0 C2.21621622 6.27927928 2.21621622 6.27927928 1.25 9.5 C0.63125 10.7375 0.63125 10.7375 0 12 C-0.33 13.19625 -0.66 14.3925 -1 15.625 C-2 19 -2 19 -4 22 C-4.40850553 14.91923749 -2.90420731 8.80074041 -1 2 C-3.97 2 -6.94 2 -10 2 C-6.3558226 -0.4294516 -4.28758728 -0.16179575 0 0 Z " fill="#BE6060" transform="translate(68,159)"/>
<path d="M0 0 C1.43655854 -0.08131463 2.8744483 -0.13933559 4.3125 -0.1875 C5.51326172 -0.23970703 5.51326172 -0.23970703 6.73828125 -0.29296875 C9 0 9 0 10.78125 1.1875 C12.42341401 3.62969263 12.30107677 5.27236294 12.1875 8.1875 C12.16042969 9.08855469 12.13335937 9.98960937 12.10546875 10.91796875 C12.07066406 11.60503906 12.03585938 12.29210937 12 13 C11.67 13 11.34 13 11 13 C10.8046875 10.98177083 10.609375 8.96354167 10.4140625 6.9453125 C10.13625251 4.77331755 10.13625251 4.77331755 8 3 C4.95817107 2.74994614 4.95817107 2.74994614 2 3 C0.05909174 4.94090826 0.60080565 8.47293902 0.4375 11.0625 C0.35371094 12.35285156 0.26992188 13.64320313 0.18359375 14.97265625 C0.12300781 15.97167969 0.06242187 16.97070312 0 18 C-1.32 17.67 -2.64 17.34 -4 17 C-3.01 17 -2.02 17 -1 17 C-1.01160156 15.94039062 -1.02320313 14.88078125 -1.03515625 13.7890625 C-1.04453476 12.40104342 -1.05363489 11.01302245 -1.0625 9.625 C-1.07087891 8.92632812 -1.07925781 8.22765625 -1.08789062 7.5078125 C-1.11328125 2.2265625 -1.11328125 2.2265625 0 0 Z " fill="#DE7E3A" transform="translate(47,119)"/>
<path d="M0 0 C0.33 0.66 0.66 1.32 1 2 C5.62 2 10.24 2 15 2 C15 2.66 15 3.32 15 4 C11.69005287 5.65497356 8.00877 5.10084335 4.375 5.0625 C3.57320313 5.05798828 2.77140625 5.05347656 1.9453125 5.04882812 C-0.03649006 5.03703168 -2.01825433 5.01909605 -4 5 C-4 4.34 -4 3.68 -4 3 C-2.68 2.67 -1.36 2.34 0 2 C0 1.34 0 0.68 0 0 Z " fill="#284E82" transform="translate(108,101)"/>
<path d="M0 0 C0 0.33 0 0.66 0 1 C-1.65 1 -3.3 1 -5 1 C-5 1.66 -5 2.32 -5 3 C-3.35 3 -1.7 3 0 3 C0 3.66 0 4.32 0 5 C-5.94 4.67 -11.88 4.34 -18 4 C-18 3.67 -18 3.34 -18 3 C-14.04 3 -10.08 3 -6 3 C-6 2.34 -6 1.68 -6 1 C-10.29 1 -14.58 1 -19 1 C-19.33 1.66 -19.66 2.32 -20 3 C-20 2.34 -20 1.68 -20 1 C-21.32 0.67 -22.64 0.34 -24 0 C-21.1253509 -0.19586184 -18.25061717 -0.38193799 -15.375 -0.5625 C-14.16263672 -0.64661133 -14.16263672 -0.64661133 -12.92578125 -0.73242188 C-8.43837484 -1.00604422 -4.43137501 -0.96801881 0 0 Z " fill="#304B77" transform="translate(126,137)"/>
<path d="M0 0 C3.00617269 3.00617269 2.59585316 5.82381598 3 10 C4.98 10 6.96 10 9 10 C9 10.99 9 11.98 9 13 C3.39 13 -2.22 13 -8 13 C-8 12.67 -8 12.34 -8 12 C-4.7 12 -1.4 12 2 12 C2 11.34 2 10.68 2 10 C1.01 9.67 0.02 9.34 -1 9 C-0.835 8.2575 -0.67 7.515 -0.5 6.75 C0.11925696 3.80993422 0.11925696 3.80993422 0 0 Z " fill="#FCE4E3" transform="translate(147,174)"/>
<path d="M0 0 C1.65 0 3.3 0 5 0 C5 0.66 5 1.32 5 2 C9.95 2 14.9 2 20 2 C20 2.66 20 3.32 20 4 C13.73 4 7.46 4 1 4 C0.67 2.68 0.34 1.36 0 0 Z " fill="#7193C2" transform="translate(100,133)"/>
<path d="M0 0 C1.66611905 -0.042721 3.33382885 -0.04063832 5 0 C6.64849053 1.64849053 6.2102571 3.55046635 6.25 5.8125 C6.28867188 7.12154297 6.28867188 7.12154297 6.328125 8.45703125 C5.93244742 11.52353252 5.21469835 12.85466581 3 15 C0.23857697 15.52799676 -2.16365545 15.18598981 -5 15 C-5 14.34 -5 13.68 -5 13 C-0.545 12.505 -0.545 12.505 4 12 C4 8.37 4 4.74 4 1 C2.68 0.67 1.36 0.34 0 0 Z " fill="#FDBC35" transform="translate(63,139)"/>
<path d="M0 0 C0.33 0 0.66 0 1 0 C1.33 2.31 1.66 4.62 2 7 C15.86 7.495 15.86 7.495 30 8 C30 8.33 30 8.66 30 9 C19.77 9 9.54 9 -1 9 C-0.67 6.03 -0.34 3.06 0 0 Z " fill="#EBEFF1" transform="translate(119,176)"/>
<path d="M0 0 C3.63 0 7.26 0 11 0 C11 0.33 11 0.66 11 1 C8.69 1 6.38 1 4 1 C4 1.99 4 2.98 4 4 C7.96 4 11.92 4 16 4 C16 4.66 16 5.32 16 6 C11.71 6 7.42 6 3 6 C2.67 4.68 2.34 3.36 2 2 C1.34 2 0.68 2 0 2 C0 1.34 0 0.68 0 0 Z " fill="#717371" transform="translate(206,152)"/>
<path d="M0 0 C6.93 0 13.86 0 21 0 C20.67 0.99 20.34 1.98 20 3 C16.04 3 12.08 3 8 3 C8 2.34 8 1.68 8 1 C5.36 1 2.72 1 0 1 C0 0.67 0 0.34 0 0 Z " fill="#465E88" transform="translate(110,116)"/>
<path d="M0 0 C0.33 1.32 0.66 2.64 1 4 C1.66 4 2.32 4 3 4 C3 4.99 3 5.98 3 7 C4.98 6.67 6.96 6.34 9 6 C9 7.32 9 8.64 9 10 C6.03 10 3.06 10 0 10 C0 6.7 0 3.4 0 0 Z " fill="#21171A" transform="translate(199,177)"/>
<path d="M0 0 C3.3 0 6.6 0 10 0 C10 1.32 10 2.64 10 4 C6.7 4 3.4 4 0 4 C0 2.68 0 1.36 0 0 Z " fill="#F9F9F8" transform="translate(16,179)"/>
<path d="M0 0 C3.63 0 7.26 0 11 0 C11 0.66 11 1.32 11 2 C9.02 2.33 7.04 2.66 5 3 C6.65 3.33 8.3 3.66 10 4 C10 4.66 10 5.32 10 6 C7.36 6 4.72 6 2 6 C2.33 4.68 2.66 3.36 3 2 C2.01 2 1.02 2 0 2 C0 1.34 0 0.68 0 0 Z " fill="#5C5B5A" transform="translate(205,145)"/>
<path d="M0 0 C5.61 0 11.22 0 17 0 C17 0.33 17 0.66 17 1 C14.36 1.33 11.72 1.66 9 2 C9 2.66 9 3.32 9 4 C6.69 4 4.38 4 2 4 C2 3.34 2 2.68 2 2 C1.34 2 0.68 2 0 2 C0 1.34 0 0.68 0 0 Z " fill="#7499C6" transform="translate(99,99)"/>
<path d="M0 0 C1.32 0 2.64 0 4 0 C4.33 2.97 4.66 5.94 5 9 C3.35 9 1.7 9 0 9 C0 6.03 0 3.06 0 0 Z " fill="#C88A8D" transform="translate(8,178)"/>
<path d="M0 0 C0.94875 0.04125 1.8975 0.0825 2.875 0.125 C2.875 0.455 2.875 0.785 2.875 1.125 C0.895 1.785 -1.085 2.445 -3.125 3.125 C-3.455 7.745 -3.785 12.365 -4.125 17.125 C-6.765 17.125 -9.405 17.125 -12.125 17.125 C-11.795 15.145 -11.465 13.165 -11.125 11.125 C-10.8775 11.764375 -10.63 12.40375 -10.375 13.0625 C-9.32216567 15.31803909 -9.32216567 15.31803909 -7.046875 15.75390625 C-6.41265625 15.87636719 -5.7784375 15.99882812 -5.125 16.125 C-5.14820313 15.13757813 -5.17140625 14.15015625 -5.1953125 13.1328125 C-5.22238281 11.21082031 -5.22238281 11.21082031 -5.25 9.25 C-5.27320313 7.97382813 -5.29640625 6.69765625 -5.3203125 5.3828125 C-5.05786642 1.00521185 -4.40827 0.1763308 0 0 Z " fill="#FDC42D" transform="translate(52.125,120.875)"/>
<path d="M0 0 C0.99 0 1.98 0 3 0 C3.33 1.98 3.66 3.96 4 6 C5.45823212 6.0270043 6.91660675 6.04639787 8.375 6.0625 C9.59316406 6.07990234 9.59316406 6.07990234 10.8359375 6.09765625 C13.04937142 6.14466334 13.04937142 6.14466334 15 5 C15 5.99 15 6.98 15 8 C12.87527424 8.05386629 10.75016348 8.09273071 8.625 8.125 C6.84996094 8.15980469 6.84996094 8.15980469 5.0390625 8.1953125 C2 8 2 8 0 6 C-0.125 2.875 -0.125 2.875 0 0 Z " fill="#3F302D" transform="translate(12,179)"/>
<path d="M0 0 C3.63 0 7.26 0 11 0 C11 2.31 11 4.62 11 7 C10.67 7 10.34 7 10 7 C9.67 5.35 9.34 3.7 9 2 C8.2575 2.33 7.515 2.66 6.75 3 C4 4 4 4 0 4 C0 2.68 0 1.36 0 0 Z " fill="#FBE2DD" transform="translate(258,159)"/>
<path d="M0 0 C0.66 0 1.32 0 2 0 C3.44207941 2.88415883 3.09394887 5.41721528 3.0625 8.625 C3.05347656 9.81351563 3.04445312 11.00203125 3.03515625 12.2265625 C3.02355469 13.14179688 3.01195312 14.05703125 3 15 C1.68 14.67 0.36 14.34 -1 14 C-1.042721 12.33388095 -1.04063832 10.66617115 -1 9 C-0.67 8.67 -0.34 8.34 0 8 C1.43088528 5.13822943 0.59991697 3.06624227 0 0 Z " fill="#566062" transform="translate(206,163)"/>
<path d="M0 0 C0.66 0.33 1.32 0.66 2 1 C-0.97 3.64 -3.94 6.28 -7 9 C-10.05507993 7.47246003 -12.44341223 6.19136095 -15 4 C-15 3.34 -15 2.68 -15 2 C-12.33333333 3.33333333 -9.66666667 4.66666667 -7 6 C-4.69 4.02 -2.38 2.04 0 0 Z " fill="#97CAD6" transform="translate(233,171)"/>
<path d="M0 0 C1.47906892 -0.02689216 2.95827483 -0.04634621 4.4375 -0.0625 C5.26121094 -0.07410156 6.08492187 -0.08570313 6.93359375 -0.09765625 C9 0 9 0 10 1 C10.04063832 2.66617115 10.042721 4.33388095 10 6 C9.34 6 8.68 6 8 6 C8 4.68 8 3.36 8 2 C7.01 2 6.02 2 5 2 C5 3.65 5 5.3 5 7 C4.34 7 3.68 7 3 7 C2.67 5.35 2.34 3.7 2 2 C1.34 2 0.68 2 0 2 C0 1.34 0 0.68 0 0 Z " fill="#958559" transform="translate(34,141)"/>
<path d="M0 0 C0.33 1.32 0.66 2.64 1 4 C0.34 4 -0.32 4 -1 4 C-1 3.34 -1 2.68 -1 2 C-1.99 2 -2.98 2 -4 2 C-4 2.99 -4 3.98 -4 5 C-2.68 5.33 -1.36 5.66 0 6 C-1.8125 6.6875 -1.8125 6.6875 -4 7 C-5.8125 5.8125 -5.8125 5.8125 -7 4 C-6.8125 1.875 -6.8125 1.875 -6 0 C-3.50907189 -1.24546405 -2.58919267 -0.7767578 0 0 Z " fill="#31363A" transform="translate(216,104)"/>
<path d="M0 0 C1.32 0 2.64 0 4 0 C4 2.31 4 4.62 4 7 C2.68 7.33 1.36 7.66 0 8 C0 5.36 0 2.72 0 0 Z " fill="#B86160" transform="translate(1,178)"/>
<path d="M0 0 C-0.66 3.3 -1.32 6.6 -2 10 C-2.33 10 -2.66 10 -3 10 C-3.33 7.69 -3.66 5.38 -4 3 C-7.63 2.67 -11.26 2.34 -15 2 C-15 1.67 -15 1.34 -15 1 C-9.9752761 0.37470103 -5.07471573 -0.13012092 0 0 Z " fill="#1E1E1D" transform="translate(30,176)"/>
<path d="M0 0 C0.99 0 1.98 0 3 0 C3 1.32 3 2.64 3 4 C-0.37097383 5.49821059 -2.20442119 6 -6 6 C-6 5.01 -6 4.02 -6 3 C-4.02 2.67 -2.04 2.34 0 2 C0 1.34 0 0.68 0 0 Z " fill="#FDF3F1" transform="translate(218,109)"/>
<path d="M0 0 C0.99 0 1.98 0 3 0 C3 0.66 3 1.32 3 2 C4.32 2.66 5.64 3.32 7 4 C6.34 4 5.68 4 5 4 C5 4.99 5 5.98 5 7 C5.99 7 6.98 7 8 7 C7.67 7.99 7.34 8.98 7 10 C5.62437146 8.71034824 4.29233607 7.37310707 3 6 C3 5.34 3 4.68 3 4 C2.01 4 1.02 4 0 4 C0 2.68 0 1.36 0 0 Z " fill="#EBDCDE" transform="translate(207,108)"/>
<path d="M0 0 C2.31 0 4.62 0 7 0 C7 1.65 7 3.3 7 5 C4 5 4 5 2 4 C2 3.34 2 2.68 2 2 C1.34 2 0.68 2 0 2 C0 1.34 0 0.68 0 0 Z " fill="#F4F3F0" transform="translate(214,102)"/>
<path d="M0 0 C1.9375 0.75 1.9375 0.75 4 2 C4.625 4.0625 4.625 4.0625 5 6 C5.66 6.33 6.32 6.66 7 7 C5.68 7 4.36 7 3 7 C3 6.34 3 5.68 3 5 C1.68 5 0.36 5 -1 5 C-0.67 3.35 -0.34 1.7 0 0 Z " fill="#C2F1F1" transform="translate(213,169)"/>
<path d="M0 0 C2.97 0 5.94 0 9 0 C9.33 1.98 9.66 3.96 10 6 C9.34 6 8.68 6 8 6 C8 4.68 8 3.36 8 2 C6.68 2 5.36 2 4 2 C3.67 3.32 3.34 4.64 3 6 C3 4.68 3 3.36 3 2 C2.01 2 1.02 2 0 2 C0 1.34 0 0.68 0 0 Z " fill="#845755" transform="translate(24,141)"/>
<path d="M0 0 C2.64 0 5.28 0 8 0 C7.236875 0.5775 6.47375 1.155 5.6875 1.75 C3.33799083 3.71703093 1.70676495 5.48476744 0 8 C0 5.36 0 2.72 0 0 Z " fill="#FEF5F4" transform="translate(0,0)"/>
<path d="M0 0 C0.99 0 1.98 0 3 0 C2.67 2.64 2.34 5.28 2 8 C0.02 8 -1.96 8 -4 8 C-3.01 7.34 -2.02 6.68 -1 6 C-0.26656572 2.93443402 -0.26656572 2.93443402 0 0 Z " fill="#4F1C19" transform="translate(5,179)"/>
<path d="M0 0 C2.475 0.495 2.475 0.495 5 1 C5 1.66 5 2.32 5 3 C5.763125 2.649375 6.52625 2.29875 7.3125 1.9375 C10 1 10 1 13 2 C11.02 3.32 9.04 4.64 7 6 C5.83054208 5.19152271 4.66449539 4.37810888 3.5 3.5625 C2.8503125 3.11003906 2.200625 2.65757812 1.53125 2.19140625 C1.0259375 1.79824219 0.520625 1.40507812 0 1 C0 0.67 0 0.34 0 0 Z " fill="#E0FAFD" transform="translate(218,172)"/>
<path d="M0 0 C0 0.99 0 1.98 0 3 C-1.8125 4.0625 -1.8125 4.0625 -4 5 C-4.99 4.67 -5.98 4.34 -7 4 C-7 4.99 -7 5.98 -7 7 C-7.66 7 -8.32 7 -9 7 C-9 5.35 -9 3.7 -9 2 C-6.94921875 1.77213542 -4.8984375 1.54427083 -2.84765625 1.31640625 C-0.98859771 1.18113386 -0.98859771 1.18113386 0 0 Z " fill="#D76350" transform="translate(68,153)"/>
<path d="M0 0 C0.66 1.98 1.32 3.96 2 6 C-0.64 6 -3.28 6 -6 6 C-5.34 5.67 -4.68 5.34 -4 5 C-4 3.68 -4 2.36 -4 1 C-2 0 -2 0 0 0 Z " fill="#E1DECE" transform="translate(48,142)"/>
<path d="M0 0 C2.31 0 4.62 0 7 0 C7 2.64 7 5.28 7 8 C6.401875 7.236875 5.80375 6.47375 5.1875 5.6875 C3.53040668 3.6516425 1.89702326 1.8021721 0 0 Z " fill="#FEF1F3" transform="translate(264,0)"/>
<path d="M0 0 C0 0.66 0 1.32 0 2 C-3.3 2 -6.6 2 -10 2 C-10.33 1.34 -10.66 0.68 -11 0 C-6.94952424 -1.35015859 -4.2079832 -0.62084998 0 0 Z " fill="#557CB1" transform="translate(129,99)"/>
<path d="M0 0 C0 1.65 0 3.3 0 5 C-1.65 5 -3.3 5 -5 5 C-5 3.68 -5 2.36 -5 1 C-3 0 -3 0 0 0 Z " fill="#F4CF2D" transform="translate(260,165)"/>
<path d="M0 0 C2.76276177 0.52268466 5.3260876 1.10869587 8 2 C8 2.66 8 3.32 8 4 C5.125 4.125 5.125 4.125 2 4 C1.34 3.34 0.68 2.68 0 2 C0 1.34 0 0.68 0 0 Z " fill="#36528D" transform="translate(92,88)"/>
<path d="M0 0 C2.97 0 5.94 0 9 0 C9 0.66 9 1.32 9 2 C5.62182575 2.84454356 3.32534757 3.10844919 0 2 C0 1.34 0 0.68 0 0 Z " fill="#351810" transform="translate(1,176)"/>
<path d="M0 0 C1.98 0 3.96 0 6 0 C5.67 1.98 5.34 3.96 5 6 C2.5 4.6875 2.5 4.6875 0 3 C0 2.01 0 1.02 0 0 Z " fill="#DE6666" transform="translate(263,144)"/>
<path d="M0 0 C1.98 0 3.96 0 6 0 C5.67 1.32 5.34 2.64 5 4 C5 3.01 5 2.02 5 1 C4.34 1 3.68 1 3 1 C3 2.32 3 3.64 3 5 C1.35 5.33 -0.3 5.66 -2 6 C-1.34 4.02 -0.68 2.04 0 0 Z " fill="#E1DBDB" transform="translate(26,143)"/>
<path d="M0 0 C3.00617269 3.00617269 2.59585316 5.82381598 3 10 C1.68 9.67 0.36 9.34 -1 9 C-0.835 8.2575 -0.67 7.515 -0.5 6.75 C0.11925696 3.80993422 0.11925696 3.80993422 0 0 Z " fill="#E5D8D9" transform="translate(147,174)"/>
<path d="M0 0 C0.66 0 1.32 0 2 0 C2 0.66 2 1.32 2 2 C2.66 2 3.32 2 4 2 C4 3.32 4 4.64 4 6 C2.68 5.67 1.36 5.34 0 5 C0 3.35 0 1.7 0 0 Z " fill="#656D70" transform="translate(205,172)"/>
</svg>
