<?xml version="1.0" encoding="UTF-8"?>
<svg version="1.1" xmlns="http://www.w3.org/2000/svg" width="512" height="512">
<path d="M0 0 C1.02981672 -0.00397774 1.02981672 -0.00397774 2.08043781 -0.00803584 C4.39790923 -0.01574019 6.71532777 -0.01628844 9.03281116 -0.01688576 C10.70436878 -0.02089963 12.37592542 -0.02533772 14.04748088 -0.03016531 C18.65429619 -0.04214499 23.26110102 -0.04778249 27.86792886 -0.05234647 C32.8312727 -0.05829723 37.79460397 -0.06990834 42.75793934 -0.08063698 C54.75089419 -0.10517231 66.74385321 -0.11978941 78.73682544 -0.13269705 C82.12300906 -0.13640803 85.50919228 -0.14038133 88.89537549 -0.14444971 C109.91422191 -0.1696843 130.93306896 -0.19174171 151.95192719 -0.20417786 C156.82172809 -0.20710765 161.69152898 -0.2100693 166.56132984 -0.21308327 C167.77172445 -0.21382932 168.98211906 -0.21457537 170.22919229 -0.21534403 C189.84308262 -0.22800149 209.45688238 -0.26122925 229.07073035 -0.3028851 C249.19864545 -0.34528304 269.32651415 -0.36887038 289.45447379 -0.37409842 C300.75933142 -0.37751487 312.06404747 -0.3892977 323.3688612 -0.42220116 C332.99528995 -0.45017333 342.62154812 -0.46121341 352.24801435 -0.4500057 C357.16043401 -0.4448119 362.07249628 -0.44775272 366.98486423 -0.47247124 C371.48250919 -0.49491421 375.97953903 -0.49426252 380.47719441 -0.47526737 C382.10375886 -0.4724604 383.73036458 -0.47810455 385.35686251 -0.4930803 C401.37573781 -0.6315469 401.37573781 -0.6315469 407.31255054 5.13701439 C411.78802084 10.23276704 413.08394909 14.66794201 412.72661304 21.45732689 C411.81152855 27.37947746 409.61104413 31.45242568 404.81255054 35.07451439 C395.65233558 41.21602215 383.69582599 38.13701439 373.31255054 38.13701439 C373.31255054 61.89701439 373.31255054 85.65701439 373.31255054 110.13701439 C374.96255054 110.79701439 376.61255054 111.45701439 378.31255054 112.13701439 C382.31255054 117.21809547 382.31255054 117.21809547 382.31255054 121.13701439 C382.90423023 121.28396751 383.49590992 121.43092064 384.10551929 121.58232689 C390.037789 123.26620116 393.04723861 124.83088249 396.31255054 130.13701439 C396.70481261 132.46116714 397.04617082 134.79509266 397.31255054 137.13701439 C398.83351841 137.12369072 398.83351841 137.12369072 400.3852129 137.11009789 C409.94877469 137.02895251 419.51226647 136.96902041 429.07609463 136.9297657 C433.99278728 136.90890582 438.90920164 136.88061732 443.82573414 136.83525658 C448.57197136 136.79174188 453.31794119 136.76786525 458.06436253 136.75750542 C459.87365267 136.75012415 461.68292846 136.73571012 463.49210453 136.71409416 C466.02974092 136.68498501 468.56627752 136.68106146 471.10405445 136.68291283 C471.84924335 136.66853172 472.59443226 136.65415062 473.36220264 136.63933372 C478.50024306 136.67979774 481.37946603 137.86989335 485.31255054 141.13701439 C488.08501357 144.20553171 488.68784408 146.14236105 488.69007397 150.25359821 C488.69789721 151.2930474 488.70572045 152.33249658 488.71378076 153.40344423 C488.7070886 154.54399391 488.70039643 155.68454359 488.69350147 156.85965538 C488.69818144 158.0723603 488.70286142 159.28506522 488.70768321 160.53451878 C488.7175919 163.90227265 488.7140083 167.26952594 488.70472455 170.63724959 C488.69794763 174.26854671 488.70840858 177.89979951 488.71666431 181.53108788 C488.73001878 188.64567632 488.72711619 195.76016992 488.71842639 202.87476211 C488.71165645 208.65647826 488.71073014 214.4381678 488.71399784 220.21988678 C488.71445754 221.04218349 488.71491724 221.86448021 488.71539087 222.711695 C488.71635003 224.38208922 488.71732267 226.05248343 488.71830864 227.72287763 C488.72686769 243.39424822 488.71702062 259.06556621 488.70090754 274.73692817 C488.68750639 288.18712976 488.68982978 301.63725366 488.70366383 315.08745384 C488.71971486 330.70047077 488.72604104 346.31344155 488.71682703 361.92646557 C488.71587137 363.59108578 488.71492826 365.25570601 488.71399784 366.92032623 C488.71353501 367.73938347 488.71307219 368.55844071 488.71259534 369.40231786 C488.71000383 375.17736852 488.71437996 380.95238994 488.7214365 386.72743607 C488.72984651 393.76499078 488.72758201 400.80244509 488.71159427 407.83998828 C488.7037044 411.43148929 488.70063199 415.02282285 488.71054173 418.61432266 C488.72111584 422.50543993 488.70849842 426.39628239 488.69350147 430.28738976 C488.70019364 431.42570871 488.7068858 432.56402767 488.71378076 433.73684114 C488.70595752 434.77889808 488.69813428 435.82095501 488.69007397 436.89458942 C488.68934338 438.24181234 488.68934338 438.24181234 488.68859804 439.61625189 C488.08487611 443.66318646 486.28485955 446.31869195 483.18727589 448.92570496 C479.17563711 450.61607023 475.62916312 450.55208395 471.31694508 450.51796532 C470.40965216 450.52264529 469.50235924 450.52732526 468.56757259 450.53214705 C465.52668749 450.54411525 462.48625152 450.53463257 459.44536304 450.52519798 C457.26557114 450.52926287 455.0857813 450.53460427 452.90599537 450.54112816 C446.98460569 450.5548174 441.06337263 450.5494964 435.14198017 450.5399909 C428.94899539 450.53240268 422.75602413 450.53943759 416.56303883 450.5441494 C405.49601677 450.54995925 394.4290641 450.54062844 383.36205316 450.52537139 C373.32924091 450.51196826 363.29653279 450.51429638 353.26372242 450.52812767 C341.61078214 450.54412859 329.95790702 450.5501568 318.30495739 450.54129088 C312.13723595 450.53661056 305.96958624 450.53599943 299.80186939 450.54590034 C294.00375435 450.55455757 288.20583624 450.5485707 282.4077425 450.53121758 C280.27804104 450.5272461 278.14832304 450.52839803 276.01862812 450.53500557 C273.11491263 450.5431849 270.21183096 450.53294297 267.30815601 450.51796532 C266.4623403 450.52465748 265.61652458 450.53134965 264.74507809 450.53824461 C259.11564556 450.48179597 255.90808367 449.36175707 251.56255054 445.63701439 C248.50001001 441.96196575 249.23892076 437.62843141 249.31255054 433.13701439 C248.2474038 433.14070156 247.18225706 433.14438873 246.08483315 433.14818764 C220.13507568 433.23709267 194.18533802 433.30276807 168.23546028 433.34426308 C155.68615071 433.36486451 143.13694191 433.39293892 130.58769703 433.4387722 C119.64632685 433.47871394 108.70502967 433.50446478 97.76358861 433.51336837 C91.97329682 433.51857066 86.18321385 433.53074763 80.39298916 433.55993462 C74.93553287 433.58721958 69.47837011 433.595433 64.02085209 433.58944511 C62.02511274 433.59053951 60.02936289 433.59841494 58.03368282 433.61383629 C41.26659513 433.73697326 24.9178926 431.65432472 11.83989429 419.78935814 C0.22662736 407.2256448 -6.32148 392.90026987 -5.99994946 375.73857689 C-4.61349793 359.75972304 1.66780555 347.22459455 13.31255054 336.13701439 C15.89425863 334.13886836 18.51089846 332.29270652 21.24614429 330.51201439 C23.41249646 329.1683832 23.41249646 329.1683832 25.31255054 327.13701439 C24.70669117 326.81990501 24.10083179 326.50279564 23.47661304 326.17607689 C10.24593052 318.80760447 0.63166889 307.86453284 -3.59028149 293.2019558 C-7.55002612 277.90902425 -6.15090766 262.71903681 1.43755054 248.76201439 C7.5301351 239.20094353 15.3115709 232.37156969 25.31255054 227.13701439 C22.41036598 224.77898943 19.46288826 222.51994429 16.43755054 220.32451439 C3.34316546 210.42388177 -2.96573222 198.11301141 -5.68744946 182.13701439 C-7.39011871 168.09438137 -3.0653958 153.41440297 5.31255054 142.13701439 C14.8074199 130.9027488 26.73907823 123.64771236 41.31255054 121.13701439 C43.44183719 120.9934919 45.57413708 120.89136934 47.70708179 120.82060814 C48.90913258 120.77871361 50.11118336 120.73681908 51.34965992 120.69365501 C52.59553883 120.65433861 53.84141773 120.6150222 55.12505054 120.57451439 C56.39026539 120.5313308 57.65548023 120.4881472 58.95903492 120.44365501 C62.07676943 120.33776969 65.1945809 120.23569034 68.31255054 120.13701439 C68.14989201 119.63405846 67.98723347 119.13110252 67.81964588 118.6129055 C67.13058839 115.24858483 67.1818382 111.94064938 67.19902515 108.52275658 C67.19887913 107.76139397 67.1987331 107.00003136 67.19858265 106.21559715 C67.19927799 103.70499868 67.20705267 101.19447487 67.21489429 98.68388939 C67.21675982 96.94082746 67.21818309 95.19776501 67.21918201 93.45470238 C67.22299661 88.87129323 67.23281788 84.28791587 67.24388599 79.70451927 C67.25412284 75.02577202 67.25868451 70.34701962 67.26372242 65.66826439 C67.27444109 56.49116711 67.29150483 47.31409339 67.31255054 38.13701439 C65.98283474 38.14700714 65.98283474 38.14700714 64.62625599 38.15720177 C56.25497962 38.21741713 47.88377643 38.26304174 39.51233292 38.2924509 C35.20890946 38.30807896 30.90566559 38.32926467 26.60234547 38.36333275 C22.44614437 38.39602866 18.29011557 38.41388891 14.13379574 38.42164612 C12.55142538 38.42717132 10.96906401 38.43796066 9.38676739 38.45420456 C7.16317518 38.47611551 4.94028679 38.47897572 2.71660328 38.47759056 C1.45307529 38.4842524 0.18954731 38.49091423 -1.1122694 38.49777794 C-7.23332304 37.88011589 -12.241596 35.45937191 -16.68744946 31.13701439 C-20.8401223 25.55238539 -20.44278774 18.79078083 -19.68744946 12.13701439 C-17.40193016 7.21435744 -13.97050239 4.32652189 -9.68744946 1.13701439 C-6.25610128 -0.00676834 -3.62064293 0.00687249 0 0 Z M324.31255054 38.13701439 C323.98255054 65.52701439 323.65255054 92.91701439 323.31255054 121.13701439 C333.87255054 121.13701439 344.43255054 121.13701439 355.31255054 121.13701439 C356.63255054 118.49701439 357.95255054 115.85701439 359.31255054 113.13701439 C360.20834324 112.62035713 361.10413593 112.10369987 362.02707386 111.57138634 C362.78128117 111.09804359 363.53548847 110.62470085 364.31255054 110.13701439 C365.04099791 106.93731755 365.04099791 106.93731755 364.8801775 103.18706322 C364.8812727 102.13302048 364.8812727 102.13302048 364.88239002 101.05768394 C364.87890725 98.73568498 364.8400189 96.4156939 364.80083179 94.09404564 C364.79150599 92.4840867 364.78438878 90.87411356 364.7793932 89.26413536 C364.7603047 85.02721015 364.71118902 80.79114237 364.6558733 76.55455589 C364.59572616 71.47111036 364.57277328 66.38737806 364.54360676 61.30367851 C364.4951239 53.58086086 364.39932481 45.85992436 364.31255054 38.13701439 C351.11255054 38.13701439 337.91255054 38.13701439 324.31255054 38.13701439 Z " fill="#3964CC" transform="translate(21.68744945526123,30.862985610961914)"/>
<path d="M0 0 C2.91664838 -0.29856367 5.6216504 -0.39970224 8.5411377 -0.3742218 C9.43573338 -0.37819621 10.33032907 -0.38217061 11.25203371 -0.38626546 C14.2677906 -0.39593632 17.28308395 -0.38404151 20.29882812 -0.37231445 C22.45348791 -0.37474084 24.60814658 -0.37845866 26.76280212 -0.38337708 C32.6283931 -0.39281067 38.49381794 -0.38333991 44.35939598 -0.37004495 C50.48573214 -0.35876 56.61205976 -0.36283566 62.73840332 -0.36479187 C73.02826667 -0.36567578 83.31806427 -0.35457411 93.60791016 -0.33618164 C105.51967997 -0.31501255 117.4313534 -0.31150357 129.34313822 -0.3177436 C140.78219283 -0.32343015 152.22121336 -0.31779998 163.66026306 -0.30657005 C168.53743619 -0.30191465 173.41458855 -0.30105427 178.29176331 -0.3031559 C184.03070102 -0.30503385 189.76954006 -0.29697298 195.50845528 -0.2810955 C197.62006281 -0.27683798 199.73168033 -0.27601188 201.84329033 -0.27878571 C204.71525745 -0.28198707 207.58692592 -0.27297763 210.4588623 -0.26069641 C211.30379006 -0.26447573 212.14871781 -0.26825506 213.01924944 -0.27214891 C218.77167123 -0.22832877 218.77167123 -0.22832877 221 2 C221.251849 4.11084551 221.251849 4.11084551 221.25447559 6.78237057 C221.26030779 7.79817068 221.26613998 8.81397079 221.27214891 9.86055273 C221.26836958 10.98494664 221.26459026 12.10934055 221.26069641 13.26780701 C221.26452196 14.4557129 221.26834751 15.64361879 221.27228898 16.86752182 C221.28085147 20.17514497 221.28037431 23.482547 221.27610838 26.79016411 C221.27365037 30.35328553 221.28264377 33.91638038 221.29014587 37.47949219 C221.30292078 44.46398747 221.3046831 51.44844436 221.30234561 58.43294936 C221.30056539 64.10793824 221.30230571 69.78291543 221.30657005 75.45790291 C221.30716524 76.26439588 221.30776043 77.07088885 221.30837366 77.90182101 C221.30958536 79.54000775 221.31079949 81.17819449 221.31201603 82.81638122 C221.32290234 98.19294898 221.32072393 113.56949483 221.31463119 128.94606382 C221.30946111 143.02479895 221.32071793 157.10346491 221.33972941 171.18218636 C221.35908355 185.62495922 221.36736807 200.06769931 221.36360615 214.51048523 C221.36169041 222.62432223 221.36421783 230.73810035 221.37832069 238.8519268 C221.39020466 245.759293 221.39167311 252.66656407 221.37953053 259.57393151 C221.3736207 263.10036794 221.37259994 266.62663012 221.38453293 270.15305519 C221.39730101 273.97052738 221.38697728 277.78773231 221.3742218 281.60520935 C221.38159609 282.72737254 221.38897037 283.84953573 221.39656812 285.00570387 C221.3857583 286.53331566 221.3857583 286.53331566 221.37473011 288.09178829 C221.37478513 288.97355391 221.37484014 289.85531954 221.37489682 290.76380533 C221 293 221 293 219.71093768 294.78316802 C216.68427055 296.93575686 213.00325452 296.40970894 209.42126465 296.38095093 C208.53468721 296.3856309 207.64810977 296.39031087 206.73466635 296.39513266 C203.75199698 296.40713693 200.76978248 296.39760423 197.78710938 296.38818359 C195.65362784 296.39224688 193.5201484 296.39758739 191.38667297 296.40411377 C185.58306306 296.41782204 179.77961264 296.41247422 173.97599983 296.40297651 C167.91152634 296.39539809 161.84706679 296.40242046 155.78259277 296.40713501 C145.59706156 296.41259787 135.41159554 296.40538703 125.22607422 296.39111328 C113.43867757 296.37478579 101.65143658 296.38007392 89.86404371 296.3965925 C79.75615081 296.41019225 69.64830485 296.41213442 59.54040575 296.40427649 C53.49791442 296.39959166 47.45549632 296.39899733 41.41300964 296.40888596 C35.73311743 296.41753136 30.05342653 296.41157813 24.37355614 296.39420319 C22.28494285 296.39022535 20.19631272 296.39139441 18.10770607 296.39799118 C15.26448457 296.40614561 12.42191491 296.39595921 9.57873535 296.38095093 C8.74518445 296.38764309 7.91163356 296.39433526 7.05282354 296.40123022 C1.48308448 296.34389827 1.48308448 296.34389827 -0.71093768 294.78201735 C-2.409305 292.43417118 -2.37491094 290.99663826 -2.37473011 288.11019897 C-2.38193665 287.09589121 -2.3891432 286.08158344 -2.39656812 285.03653908 C-2.38919383 283.91894896 -2.38181955 282.80135883 -2.3742218 281.64990234 C-2.37819621 280.46522558 -2.38217061 279.28054882 -2.38626546 278.05997276 C-2.3942431 274.76589975 -2.38870671 271.47234441 -2.37751496 268.17831326 C-2.36869122 264.62816103 -2.37711116 261.07804488 -2.38337708 257.52789307 C-2.39287782 250.57091297 -2.38625411 243.61403639 -2.37411413 236.65706396 C-2.36051051 228.56049718 -2.36213054 220.46395521 -2.36424746 212.3673799 C-2.36743921 197.9239351 -2.35575899 183.48053957 -2.33618164 169.03710938 C-2.31717669 155.01235452 -2.31009386 140.98765743 -2.31567383 126.96289062 C-2.32172768 111.70185506 -2.32156179 96.44084492 -2.310188 81.17981148 C-2.30898067 79.55340703 -2.30777468 77.92700259 -2.30657005 76.30059814 C-2.30596651 75.50031327 -2.30536298 74.70002839 -2.30474115 73.87549245 C-2.30085707 68.22776272 -2.30125752 62.58004244 -2.3031559 56.93231201 C-2.30527509 50.05242805 -2.30007476 43.17259476 -2.28554235 36.29272509 C-2.2782843 32.7804979 -2.27423328 29.26834461 -2.27878571 25.75611115 C-2.28359402 21.95405673 -2.27297392 18.15213746 -2.26069641 14.35009766 C-2.26447573 13.23250753 -2.26825506 12.11491741 -2.27214891 10.96346092 C-2.26340062 9.44199927 -2.26340062 9.44199927 -2.25447559 7.88980103 C-2.25360882 7.01161524 -2.25274204 6.13342945 -2.251849 5.22863197 C-2 3 -2 3 0 0 Z " fill="#DEE9FB" transform="translate(281,177)"/>
<path d="M0 0 C79.2 0 158.4 0 240 0 C240 78 240 78 236 83 C234.0202179 83.62559515 234.0202179 83.62559515 231.89575195 83.62641239 C230.67528419 83.64504545 230.67528419 83.64504545 229.43016052 83.66405493 C228.54184036 83.6522192 227.6535202 83.64038347 226.73828125 83.62818909 C225.31631187 83.63883067 225.31631187 83.63883067 223.86561584 83.64968723 C220.68083467 83.66732584 217.49726446 83.6491321 214.3125 83.63110352 C212.03270917 83.63624007 209.75292231 83.64351935 207.47314453 83.65278625 C201.27481458 83.67134181 195.07691333 83.65833515 188.87860107 83.63869596 C182.39953082 83.62234259 175.92048843 83.63111773 169.44140625 83.63621521 C158.55982439 83.64073986 147.67841825 83.62494728 136.796875 83.59692383 C125.59888576 83.56808578 114.40114119 83.56100251 103.203125 83.57641602 C89.71201409 83.59496039 76.22109673 83.59324484 62.72998047 83.57420158 C57.57532735 83.56731941 52.42076515 83.56837553 47.26611328 83.57574654 C41.19873493 83.58339366 35.1317101 83.57133433 29.06439209 83.54389763 C26.83430023 83.53699623 24.60417546 83.53693449 22.37408447 83.54411316 C19.33623138 83.55276698 16.2994795 83.53692035 13.26171875 83.5146637 C12.37339859 83.52290446 11.48507843 83.53114523 10.56983948 83.53963572 C9.34937172 83.52306419 9.34937172 83.52306419 8.10424805 83.50615788 C7.05263741 83.50437065 7.05263741 83.50437065 5.9797821 83.50254732 C4 83 4 83 0 79 C0 52.93 0 26.86 0 0 Z " fill="#4570C6" transform="translate(98,69)"/>
<path d="M0 0 C1.28498729 -0.00170885 2.56997458 -0.0034177 3.89390087 -0.00517833 C7.4445643 -0.00963353 10.99510623 -0.00167346 14.54575419 0.00837779 C18.38068675 0.01703645 22.21561278 0.01409042 26.05055237 0.01257324 C32.68953059 0.01152592 39.32846943 0.01778657 45.96743774 0.02904892 C55.56619712 0.04532163 65.16493751 0.05051374 74.76370919 0.0530249 C90.33808905 0.05739922 105.91244793 0.0707012 121.48681641 0.08963013 C136.61344294 0.10799573 151.74006378 0.12214891 166.86669922 0.13064575 C167.79952705 0.1311712 168.73235487 0.13169665 169.69345021 0.13223802 C174.3732994 0.13484814 179.05314864 0.13737555 183.73299789 0.13986182 C222.54043776 0.16058614 261.34785421 0.19580452 300.15527344 0.24050903 C300.15527344 3.21050903 300.15527344 6.18050903 300.15527344 9.24050903 C298.92609695 9.24415466 297.69692047 9.24780029 296.43049622 9.2515564 C284.85028872 9.28848731 273.27034761 9.34623933 261.6903429 9.42441177 C255.73682866 9.46393168 249.78346333 9.49609813 243.82983398 9.51150513 C238.08491834 9.52664179 232.34041197 9.5610346 226.59567833 9.60881805 C224.40326175 9.62366265 222.21078675 9.6315518 220.01832008 9.63239288 C216.94869911 9.63475497 213.88021618 9.66177439 210.81079102 9.6946106 C209.90304428 9.68958023 208.99529755 9.68454987 208.06004333 9.67936707 C204.04451205 9.74588572 201.70888734 9.92050847 198.17680359 11.96212769 C196.07199877 14.3343644 195.24561682 16.29816142 194.15527344 19.24050903 C193.11220819 19.24289739 192.06914293 19.24528574 190.99446964 19.24774647 C165.60514393 19.30656163 140.21591296 19.38245702 114.82669163 19.47622395 C102.5486137 19.52117435 90.27056473 19.56059084 77.99243164 19.58694458 C67.28983053 19.60993069 56.58732112 19.64333572 45.88479275 19.68921059 C40.21878543 19.71313438 34.55286887 19.73186876 28.88681221 19.73812294 C23.55081441 19.74417751 18.21504883 19.76419121 12.87913704 19.79478455 C10.92367669 19.80355873 8.96818599 19.80728864 7.01270676 19.8055172 C4.33560239 19.80385815 1.65920068 19.82061726 -1.01780701 19.84178162 C-1.78534489 19.83693404 -2.55288277 19.83208646 -3.34367937 19.82709199 C-11.27411959 19.93003122 -18.66257735 22.15740857 -24.84472656 27.24050903 C-31.19806581 34.49276198 -33.3250851 40.2743552 -33.16113281 49.94754028 C-32.46232076 57.22036204 -29.1044924 63.20942866 -23.84472656 68.24050903 C-14.90625642 75.04026576 -4.35004672 73.95073511 6.29248047 73.89993286 C8.33334835 73.90839388 10.37420816 73.91904156 12.41505432 73.93170166 C17.9329945 73.9597746 23.45054496 73.95738928 28.96853495 73.94940782 C34.74347538 73.94627682 40.51829298 73.97133454 46.29318237 73.99336243 C57.2186975 74.03077432 68.14408816 74.04294875 79.06966102 74.04598683 C91.51227955 74.05068074 103.95477363 74.08361479 116.3973372 74.11888468 C141.98330552 74.19078029 167.56921364 74.22632813 193.15527344 74.24050903 C193.15527344 80.51050903 193.15527344 86.78050903 193.15527344 93.24050903 C165.99923884 93.35638596 138.84326405 93.44554968 111.68703175 93.49956989 C99.07715741 93.52532209 86.46743976 93.56041573 73.85766602 93.6177063 C62.86355773 93.66763241 51.86956296 93.69982172 40.87534446 93.71095151 C35.05705596 93.7174546 29.23909214 93.73267684 23.42090797 93.76915932 C17.93714399 93.8032641 12.4538364 93.81353273 6.96997643 93.80604744 C4.96455271 93.80741552 2.95911268 93.81726105 0.95378113 93.83653641 C-15.23961791 93.98446649 -27.6991405 92.06478329 -39.84472656 80.24050903 C-50.19925092 69.37940325 -53.45455263 56.53091994 -53.18457031 41.93582153 C-52.57897087 29.49716085 -45.91425246 19.89216855 -37.15722656 11.55300903 C-26.00343126 2.2401314 -14.06398838 -0.06858764 0 0 Z " fill="#F3A5A8" transform="translate(77.8447265625,159.75949096679688)"/>
<path d="M0 0 C0.84804718 -0.00170885 1.69609437 -0.0034177 2.56983995 -0.00517833 C5.39190337 -0.00845448 8.21372535 0.00249938 11.0357666 0.01345825 C13.0664774 0.01402277 15.09718861 0.01370501 17.12789917 0.01257324 C22.62728599 0.01200032 28.12658526 0.0237449 33.62595177 0.03772116 C39.37815276 0.05023856 45.13035585 0.05139982 50.88256836 0.05377197 C61.76918961 0.05998376 72.6557706 0.07639054 83.54237413 0.09647095 C95.93893244 0.11883929 108.33549269 0.12982574 120.73206615 0.13986182 C146.2272029 0.16075701 171.72230111 0.19633087 197.21740723 0.24050903 C197.21740723 6.84050903 197.21740723 13.44050903 197.21740723 20.24050903 C194.64630157 20.24193405 192.07519592 20.24335907 189.42617798 20.24482727 C165.20642903 20.26062234 140.98684097 20.30394617 116.7671833 20.3725996 C104.31535005 20.40723442 91.86362733 20.43260317 79.41174316 20.43606567 C68.55710908 20.43910764 57.70267193 20.45962969 46.84811389 20.5010336 C41.10208387 20.52234386 35.35633369 20.53497419 29.61026382 20.52666283 C24.19781343 20.51911044 18.7859295 20.53499445 13.37358284 20.56856918 C11.39112962 20.57678803 9.40861992 20.57656949 7.42617226 20.56710625 C-8.3191672 20.32772571 -8.3191672 20.32772571 -21.6624279 27.98060894 C-27.04187149 33.62678674 -28.9446819 38.98660389 -29.15759277 46.67800903 C-28.93510856 54.77087231 -27.16673693 60.605494 -21.66149902 66.63504028 C-14.49906564 72.75512369 -6.72135068 74.38725671 2.40509033 74.39872742 C3.23746916 74.40366539 4.06984799 74.40860337 4.92745042 74.41369098 C7.72038974 74.42906571 10.51330607 74.43742656 13.30627441 74.4458313 C15.30684105 74.45540984 17.30740566 74.46541991 19.30796814 74.47583008 C24.74349539 74.50288779 30.17903134 74.52389269 35.61458874 74.54383206 C41.29342931 74.56568624 46.97224307 74.59307772 52.65106201 74.61988831 C63.40674341 74.66982286 74.16243968 74.71475888 84.91815019 74.75791067 C97.16228405 74.80727651 109.40639102 74.86219707 121.65049887 74.91759026 C146.83944341 75.03142202 172.02841404 75.13806145 197.21740723 75.24050903 C197.21740723 81.18050903 197.21740723 87.12050903 197.21740723 93.24050903 C169.91371783 93.35635936 142.61008783 93.4455361 115.30620193 93.49956989 C102.62791821 93.52532797 89.94979021 93.56043292 77.27160645 93.6177063 C66.21854411 93.66761434 55.16559459 93.69981746 44.1124227 93.71095151 C38.26230891 93.71745765 32.41251779 93.73269945 26.56250763 93.76915932 C21.05002021 93.80323546 15.53798672 93.81353844 10.02540398 93.80604744 C8.00827246 93.80741679 5.99112491 93.81727951 3.97408485 93.83653641 C-12.64553741 93.98734938 -24.42571051 91.28354638 -36.71618652 79.36550903 C-46.80140696 68.60794057 -49.47072061 56.59646686 -49.15759277 42.31082153 C-48.49873251 29.64658612 -42.04124752 20.07227257 -33.09509277 11.55300903 C-23.49679923 3.53889986 -12.32885605 -0.09229118 0 0 Z " fill="#A1C6FD" transform="translate(73.7825927734375,260.7594909667969)"/>
<path d="M0 0 C0.86267254 -0.00170885 1.72534509 -0.0034177 2.61415923 -0.00517833 C5.49771027 -0.00846613 8.38102736 0.0025188 11.26455688 0.01345825 C13.33438105 0.01402252 15.40420561 0.0137055 17.47402954 0.01257324 C23.08923272 0.01199934 28.70435049 0.02375989 34.31953382 0.03772116 C40.18919409 0.05022212 46.05885631 0.05139852 51.92852783 0.05377197 C63.04187744 0.0599886 74.15518771 0.07640192 85.26852 0.09647095 C97.92137543 0.11882424 110.57423274 0.12982195 123.22710299 0.13986182 C149.25344481 0.16076796 175.27974894 0.19635031 201.30606079 0.24050903 C201.30606079 6.51050903 201.30606079 12.78050903 201.30606079 19.24050903 C198.7452626 19.24415466 196.18446442 19.24780029 193.54606628 19.2515564 C169.42902814 19.28778291 145.3121145 19.34597782 121.19517612 19.42441177 C108.79601896 19.46420843 96.39692532 19.4965978 83.99771118 19.51150513 C73.18961664 19.52451832 62.38166185 19.5514747 51.57364601 19.5951221 C45.8517199 19.61774415 40.1299662 19.63341925 34.40799141 19.63239288 C29.01941007 19.63164673 23.63120997 19.64958015 18.24272728 19.68167686 C16.26791752 19.6901772 14.29306501 19.69192489 12.31824493 19.68631172 C9.61469015 19.67965235 6.91234151 19.69763842 4.20890808 19.7215271 C3.43358831 19.71376668 2.65826853 19.70600626 1.85945421 19.69801068 C-6.54478179 19.82881746 -13.8473051 23.25790669 -19.69393921 29.24050903 C-24.59042952 37.24438742 -26.00159554 45.2223535 -24.26815796 54.52566528 C-22.00432449 61.51160538 -17.05482576 67.28180757 -10.56893921 70.67800903 C-4.99882263 73.25505467 0.5610054 73.39109103 6.61399841 73.39872742 C7.86384829 73.40613438 7.86384829 73.40613438 9.13894767 73.41369098 C11.92878092 73.42903955 14.71859121 73.43741946 17.50845337 73.4458313 C19.5091675 73.4554119 21.50987961 73.46542209 23.5105896 73.47583008 C28.94192558 73.5028655 34.37327023 73.52388247 39.80463624 73.54383206 C45.48080161 73.56569999 51.15694028 73.59308474 56.83308411 73.61988831 C67.58164906 73.66980425 78.33022884 73.71474718 89.07882279 73.75791067 C101.31572478 73.80729241 113.55259997 73.86220707 125.78947604 73.91759026 C150.96164613 74.03139346 176.13384223 74.13803989 201.30606079 74.24050903 C201.30606079 80.51050903 201.30606079 86.78050903 201.30606079 93.24050903 C174.52389075 93.33319399 147.74175948 93.40453314 120.95946121 93.44775772 C108.52334373 93.46836311 96.08732788 93.49644512 83.65127563 93.54226685 C72.80916453 93.58219643 61.96712704 93.60795655 51.12494445 93.61686301 C45.38666273 93.62206735 39.64859159 93.63425748 33.9103775 93.66342926 C28.50299094 93.69069497 23.09590055 93.69893148 17.68845177 93.69293976 C15.71003037 93.69403501 13.73159847 93.70192203 11.75323677 93.71733093 C-5.0365184 93.84162397 -19.21379403 91.44913026 -31.94393921 79.49050903 C-40.79524092 70.10276479 -45.29106416 59.27465209 -45.19393921 46.42800903 C-45.18894409 45.55362183 -45.18394897 44.67923462 -45.17880249 43.77835083 C-44.98169943 36.43048458 -43.41653282 30.63194621 -39.69393921 24.24050903 C-39.02491577 23.03201294 -39.02491577 23.03201294 -38.34237671 21.79910278 C-30.0678961 8.13927586 -15.88726621 -0.1157474 0 0 Z " fill="#6ADBDC" transform="translate(69.69393920898438,362.7594909667969)"/>
<path d="M0 0 C0.67878659 -0.00465992 1.35757317 -0.00931984 2.05692905 -0.01412097 C4.33010959 -0.02606628 6.60269191 -0.01667773 8.87587738 -0.00736332 C10.5225786 -0.01153644 12.16927694 -0.01701384 13.81596994 -0.02368313 C18.34011535 -0.03815913 22.86407892 -0.03388631 27.38823438 -0.02651632 C32.26765236 -0.02179233 37.14703056 -0.03428762 42.02643585 -0.04453373 C51.58485229 -0.06174163 61.14320304 -0.06255768 70.70163095 -0.05732083 C78.46889245 -0.05328193 86.23613451 -0.05471934 94.00339508 -0.06006908 C95.10821894 -0.06081751 96.2130428 -0.06156593 97.35134616 -0.06233703 C99.59566558 -0.06386848 101.83998499 -0.06540683 104.08430439 -0.066952 C125.13696703 -0.08068401 146.18959252 -0.07523421 167.24225432 -0.06376678 C186.51133851 -0.05383159 205.78032671 -0.0667788 225.0493961 -0.09070098 C244.82710206 -0.11506999 264.60476328 -0.12470539 284.38248396 -0.11804825 C295.48934438 -0.11455141 306.59613095 -0.11681886 317.70298004 -0.13429928 C327.15701605 -0.14899369 336.61092618 -0.1496928 346.06495965 -0.13222837 C350.89000841 -0.12369359 355.71483206 -0.12162913 360.53986931 -0.13687992 C364.95520091 -0.15066321 369.37011317 -0.1460463 373.78542012 -0.12664068 C375.38425898 -0.12286077 376.98313092 -0.12585963 378.58194047 -0.13625234 C380.75322936 -0.14936477 382.92305854 -0.13789261 385.09428406 -0.12025452 C386.30082059 -0.12014718 387.50735713 -0.12003984 388.75045538 -0.11992925 C392.73936952 0.48535675 394.91262807 1.88567496 398.04714203 4.38031673 C399.94637829 7.43560985 400.04714203 9.26558455 400.04714203 12.88031673 C398.82889185 17.14419237 396.76717371 19.16350655 393.04714203 21.38031673 C389.72365659 22.00706255 389.72365659 22.00706255 386.02902126 22.00952244 C385.34318158 22.01678964 384.65734191 22.02405685 383.95071921 22.03154427 C381.65319248 22.04978818 379.35733652 22.03244413 377.05982208 22.01523495 C375.39590399 22.02099643 373.73199225 22.02893773 372.06809384 22.03887117 C367.49629573 22.05976403 362.92501877 22.04941833 358.35321867 22.03394008 C353.42267597 22.02264055 348.49222372 22.04008227 343.56169891 22.05383968 C333.90330952 22.07609106 324.24511423 22.07126257 314.58671718 22.05677648 C306.73886937 22.04549237 298.89107602 22.04394975 291.04322243 22.04939556 C289.9270084 22.05016173 288.81079438 22.05092789 287.66075568 22.05171727 C285.39332253 22.05331587 283.12588939 22.05493694 280.85845626 22.05658023 C259.58928538 22.07084313 238.32022219 22.05443615 217.05106897 22.0275784 C198.79230046 22.00523609 180.53369087 22.00912165 162.27492523 22.0321722 C141.08120467 22.05891534 119.8875785 22.06947302 98.69384342 22.05411088 C96.43497759 22.0525181 94.17611173 22.05094625 91.91724586 22.04939556 C90.80578291 22.04862418 89.69431996 22.04785281 88.54917632 22.04705805 C80.70821375 22.04273683 72.86731096 22.05003665 65.02635765 22.06179333 C55.47454335 22.07580021 45.92293455 22.0720564 36.37114387 22.04538961 C31.49555113 22.03222751 26.62030131 22.02713977 21.74471092 22.04363537 C17.28431196 22.05849831 12.82457487 22.05040758 8.36423624 22.02374761 C6.74792408 22.01814709 5.13155637 22.02103818 3.5152797 22.03312655 C1.32252542 22.04827268 -0.86794452 22.03280508 -3.06057835 22.00952244 C-4.27964565 22.00871068 -5.49871296 22.00789891 -6.7547217 22.00706255 C-10.85744142 21.20304352 -12.34225416 19.56914967 -14.95285797 16.38031673 C-16.40826993 12.68580946 -16.30020484 9.29976433 -14.89035797 5.56781673 C-10.72403556 0.86390434 -6.07225305 0.0051794 0 0 Z " fill="#4570C6" transform="translate(25.952857971191406,38.619683265686035)"/>
<path d="M0 0 C0.83969151 -0.00085442 1.67938302 -0.00170885 2.54451972 -0.00258917 C5.36822768 -0.00424097 8.1918767 0.00127254 11.01557922 0.00672913 C13.03570047 0.00701109 15.05582181 0.00685309 17.07594299 0.00628662 C22.56940073 0.005999 28.06283676 0.01189007 33.55628943 0.01886058 C39.29384232 0.02509995 45.03139566 0.02569838 50.76895142 0.02688599 C61.63801669 0.02999757 72.50707193 0.03820865 83.37613279 0.04823548 C95.74839609 0.05940195 108.12065987 0.06490841 120.49292696 0.06993091 C145.94750476 0.0803914 171.40207366 0.09798752 196.85664368 0.12025452 C196.85664368 5.07025452 196.85664368 10.02025452 196.85664368 15.12025452 C137.78664368 15.45025452 78.71664368 15.78025452 17.85664368 16.12025452 C17.36164368 18.59525452 17.36164368 18.59525452 16.85664368 21.12025452 C18.77108997 23.03470081 22.24024344 22.26608624 24.77243042 22.2784729 C25.87014587 22.28587987 25.87014587 22.28587987 26.99003738 22.29343647 C29.46062574 22.30888634 31.93118797 22.31719222 34.40180969 22.32557678 C36.16548394 22.33514943 37.92915585 22.34515914 39.69282532 22.35557556 C44.4963171 22.38269716 49.29981879 22.40366731 54.10334516 22.42357755 C59.1175603 22.44539252 64.13174469 22.47280309 69.14593506 22.49963379 C78.64798898 22.54962158 88.15005993 22.59453775 97.65214723 22.63765615 C108.4669789 22.68697663 119.28177972 22.74191394 130.09658158 22.79733574 C152.34990706 22.91124919 174.60326243 23.01786849 196.85664368 23.12025452 C196.85664368 28.07025452 196.85664368 33.02025452 196.85664368 38.12025452 C170.39654804 38.21370675 143.93647714 38.28423818 117.47624969 38.3275032 C105.19023114 38.34812609 92.90431515 38.37624163 80.61836243 38.42201233 C69.90959908 38.46188826 59.20091002 38.48768932 48.49207449 38.4966085 C42.82210692 38.50182191 37.15235184 38.51406998 31.48245239 38.54317474 C26.14402243 38.57035559 20.80589219 38.57869401 15.4673996 38.57268524 C13.50987366 38.57378427 11.55233755 38.58172212 9.59487152 38.59707642 C6.91731826 38.61704611 4.24088925 38.61216838 1.56330872 38.60127258 C0.792858 38.61292395 0.02240727 38.62457531 -0.77139044 38.63657975 C-6.85418795 38.56990138 -12.12951283 36.89807508 -16.67526388 32.70831513 C-20.8764384 27.9363827 -22.65663962 23.62707384 -22.45195007 17.23353577 C-21.49202351 10.65986144 -17.83232797 6.3404162 -12.82695007 2.24916077 C-8.82998056 -0.43094176 -4.60794942 -0.01701372 0 0 Z " fill="#DFEAFB" transform="translate(74.14335632324219,187.87974548339844)"/>
<path d="M0 0 C1.25597521 -0.00256327 1.25597521 -0.00256327 2.53732365 -0.00517833 C5.34106567 -0.00847076 8.14456801 0.00252642 10.94828796 0.01345825 C12.95885207 0.01402242 14.9694166 0.0137057 16.97998047 0.01257324 C22.43822404 0.01199894 27.89637988 0.02376579 33.35460305 0.03772116 C39.05877504 0.05021563 44.762949 0.051398 50.46713257 0.05377197 C61.2688555 0.05999051 72.07053799 0.07640641 82.87224311 0.09647095 C95.16958014 0.1188183 107.4669191 0.12982046 119.76427138 0.13986182 C145.06090285 0.16077229 170.35749842 0.19595556 195.65409851 0.24050903 C195.65409851 5.19050903 195.65409851 10.14050903 195.65409851 15.24050903 C136.58409851 15.57050903 77.51409851 15.90050903 16.65409851 16.24050903 C16.15909851 18.71550903 16.15909851 18.71550903 15.65409851 21.24050903 C17.5685448 23.15495532 21.03769828 22.38634076 23.56988525 22.39872742 C24.6676007 22.40613438 24.6676007 22.40613438 25.78749222 22.41369098 C28.25808057 22.42914085 30.72864281 22.43744673 33.19926453 22.4458313 C34.96293877 22.45540395 36.72661069 22.46541366 38.49028015 22.47583008 C43.29377194 22.50295167 48.09727362 22.52392182 52.90079999 22.54383206 C57.91501514 22.56564703 62.92919953 22.59305761 67.94338989 22.61988831 C77.44544382 22.6698761 86.94751476 22.71479226 96.44960207 22.75791067 C107.26443374 22.80723115 118.07923456 22.86216846 128.89403641 22.91759026 C151.14736189 23.0315037 173.40071727 23.138123 195.65409851 23.24050903 C195.65409851 28.19050903 195.65409851 33.14050903 195.65409851 38.24050903 C169.04634812 38.33393904 142.4386223 38.40448179 115.83074093 38.44775772 C103.47631281 38.46838532 91.12198661 38.49650988 78.7676239 38.54226685 C67.99990651 38.58212834 57.23226291 38.6079404 46.46447378 38.61686301 C40.76268062 38.62207888 35.0610986 38.6343425 29.35937309 38.66342926 C23.9922195 38.6905873 18.62536397 38.69895314 13.25814819 38.69293976 C11.28891442 38.69403981 9.31967063 38.70199126 7.35049629 38.71733093 C4.65945675 38.73726487 1.969539 38.73243583 -0.7215271 38.7215271 C-1.49878161 38.73317847 -2.27603612 38.74482983 -3.0768438 38.75683427 C-9.09364408 38.69101454 -13.32114005 37.0815044 -17.8114801 32.86397004 C-21.69404914 28.54458037 -23.0897447 24.54592012 -23.72090149 18.86550903 C-23.11025753 12.96261744 -20.89917663 8.31089288 -16.40840149 4.36550903 C-10.94350734 0.57354167 -6.56350492 -0.04907267 0 0 Z " fill="#DEEAFB" transform="translate(75.34590148925781,389.7594909667969)"/>
<path d="M0 0 C0.84054593 -0.00170885 1.68109187 -0.0034177 2.54710889 -0.00517833 C5.36777561 -0.00847645 8.18820523 0.00253579 11.0088501 0.01345825 C13.0291188 0.0140223 15.04938791 0.01370594 17.06965637 0.01257324 C22.55894965 0.01199846 28.04815585 0.02377305 33.53742886 0.03772116 C39.27230325 0.05020766 45.00717954 0.05139737 50.74206543 0.05377197 C61.60402868 0.05999286 72.46595176 0.07641193 83.32789731 0.09647095 C95.69292454 0.11881101 108.05795367 0.12981862 120.42299604 0.13986182 C145.86081604 0.16077761 171.29860035 0.19596543 196.73638916 0.24050903 C196.73638916 5.19050903 196.73638916 10.14050903 196.73638916 15.24050903 C137.66638916 15.57050903 78.59638916 15.90050903 17.73638916 16.24050903 C17.24138916 18.71550903 17.24138916 18.71550903 16.73638916 21.24050903 C18.65083545 23.15495532 22.11998893 22.38634076 24.6521759 22.39872742 C25.74989135 22.40613438 25.74989135 22.40613438 26.86978287 22.41369098 C29.34037122 22.42914085 31.81093346 22.43744673 34.28155518 22.4458313 C36.04522942 22.45540395 37.80890134 22.46541366 39.5725708 22.47583008 C44.37606259 22.50295167 49.17956427 22.52392182 53.98309064 22.54383206 C58.99730579 22.56564703 64.01149018 22.59305761 69.02568054 22.61988831 C78.52773447 22.6698761 88.02980541 22.71479226 97.53189272 22.75791067 C108.34672439 22.80723115 119.16152521 22.86216846 129.97632706 22.91759026 C152.22965254 23.0315037 174.48300792 23.138123 196.73638916 23.24050903 C196.73638916 28.19050903 196.73638916 33.14050903 196.73638916 38.24050903 C170.14592951 38.35732319 143.55550833 38.44548799 116.96484375 38.49956989 C104.6182599 38.52534879 92.27183551 38.5604936 79.925354 38.6177063 C69.16385256 38.66755053 58.4024666 38.69980233 47.64085293 38.71095151 C41.94288779 38.71746845 36.24525303 38.73277913 30.5473938 38.76915932 C25.18265516 38.80313457 19.81838253 38.81355873 14.45354652 38.80604744 C12.48633605 38.80742128 10.51910975 38.81734447 8.55199242 38.83653641 C5.86109909 38.8614987 3.17195377 38.85540307 0.48101807 38.84178162 C-0.68049444 38.86362793 -0.68049444 38.86362793 -1.86547184 38.88591558 C-8.91959707 38.78971945 -13.77549977 35.79409671 -18.63861084 30.80300903 C-21.83797044 25.75786505 -22.87888785 21.18818679 -22.26361084 15.24050903 C-20.01726537 8.55252594 -16.37654379 4.99172992 -10.59258652 1.12272835 C-7.11339554 -0.19519417 -3.66880487 -0.02719273 0 0 Z " fill="#DFEAFB" transform="translate(74.26361083984375,288.7594909667969)"/>
<path d="M0 0 C1.47626106 -0.01485695 1.47626106 -0.01485695 2.98234558 -0.03001404 C4.59240227 -0.02326157 4.59240227 -0.02326157 6.23498535 -0.01637268 C7.37031204 -0.02323593 8.50563873 -0.03009918 9.67536926 -0.03717041 C13.43299825 -0.05549111 17.19021186 -0.05159355 20.94787598 -0.0459137 C23.55574683 -0.05047263 26.16361648 -0.05577734 28.77148438 -0.0617981 C34.23901351 -0.07182781 39.70642436 -0.06852729 45.1739502 -0.05836487 C51.49296027 -0.04687931 57.81154614 -0.06096663 64.13050032 -0.08776134 C70.21207625 -0.11258328 76.29345635 -0.11509779 82.37507629 -0.10864449 C84.96190598 -0.10849083 87.54874368 -0.11457175 90.13554382 -0.12693596 C93.74844159 -0.14177194 97.36039878 -0.13122246 100.9732666 -0.11402893 C102.04663773 -0.1236969 103.12000885 -0.13336487 104.22590637 -0.14332581 C111.42790381 -0.07136147 111.42790381 -0.07136147 114.76855469 2.19638062 C116.73780025 5.42736255 116.64190634 7.69044005 116.10412598 11.38768005 C113.22566312 14.21361887 111.13375737 14.76342503 107.16355896 14.76863098 C106.1695256 14.77709045 105.17549225 14.78554993 104.15133667 14.79426575 C103.06704376 14.78819305 101.98275085 14.78212036 100.86560059 14.77586365 C99.71891403 14.78112061 98.57222748 14.78637756 97.39079285 14.79179382 C93.59588042 14.80501088 89.80138651 14.79624989 86.00646973 14.78611755 C83.37378356 14.78813765 80.74109794 14.79104854 78.1084137 14.79481506 C72.58960421 14.80027094 67.07091522 14.7930847 61.55212402 14.77879333 C55.17067187 14.76245893 48.78950714 14.76776152 42.40806192 14.78427255 C36.26882927 14.79952128 30.12972413 14.79791481 23.99048042 14.78912735 C21.37771121 14.78712203 18.76493469 14.7895962 16.152174 14.79656601 C12.50566862 14.80415883 8.85972055 14.79260636 5.21325684 14.77586365 C4.1269397 14.78193634 3.04062256 14.78800903 1.92138672 14.79426575 C0.93017319 14.78580627 -0.06104034 14.7773468 -1.08229065 14.76863098 C-1.94450257 14.7674999 -2.8067145 14.76636883 -3.69505405 14.76520348 C-6.3764142 14.30524933 -7.25828793 13.52075993 -8.89587402 11.38768005 C-9.32946777 9.45018005 -9.32946777 9.45018005 -9.33337402 7.38768005 C-9.35270996 6.70705505 -9.3720459 6.02643005 -9.39196777 5.32518005 C-8.22627047 0.77253547 -4.18068412 0.01189652 0 0 Z " fill="#4772C6" transform="translate(365.8958740234375,372.61231994628906)"/>
<path d="M0 0 C0.99121353 -0.00845947 1.98242706 -0.01691895 3.00367737 -0.02563477 C4.63315308 -0.01652573 4.63315308 -0.01652573 6.29554749 -0.00723267 C7.44048172 -0.01248962 8.58541595 -0.01774658 9.76504517 -0.02316284 C13.56058785 -0.03639746 17.35571321 -0.02761159 21.15126038 -0.01748657 C23.78298015 -0.01950644 26.41469938 -0.02241715 29.04641724 -0.02618408 C34.56700686 -0.03164351 40.08747613 -0.024446 45.60804749 -0.01016235 C51.98889095 0.00615657 58.36944672 0.00088213 64.75028318 -0.01564157 C70.88897638 -0.03090159 77.02754214 -0.02927887 83.16624641 -0.02049637 C85.77818911 -0.01849219 88.39013913 -0.02096122 91.00207329 -0.02793503 C94.65087816 -0.03553792 98.2991278 -0.02396034 101.94789124 -0.00723267 C103.03218414 -0.01330536 104.11647705 -0.01937805 105.23362732 -0.02563477 C106.22766068 -0.01717529 107.22169403 -0.00871582 108.24584961 0 C109.10843856 0.00113108 109.97102751 0.00226215 110.85975552 0.00342751 C113.74049566 0.47085565 115.11265531 1.34503006 117.18641663 3.38095093 C117.72419699 7.07819093 117.8200909 9.34126843 115.85084534 12.57225037 C111.5487694 15.49263894 107.13589775 14.92841908 102.05555725 14.88265991 C100.92023056 14.8880629 99.78490387 14.89346588 98.61517334 14.89903259 C94.85740699 14.91155325 91.10040178 14.89500564 87.34266663 14.87704468 C84.73479675 14.87719959 82.12692664 14.87868722 79.51905823 14.88145447 C74.05147899 14.88415579 68.58411938 14.87068801 63.11659241 14.84750366 C56.79763225 14.82089419 50.47903927 14.81914699 44.16004229 14.83089203 C38.07846298 14.84167576 31.99703763 14.8353772 25.91546631 14.82133675 C23.32864773 14.81681461 20.74181835 14.81649207 18.15499878 14.82040215 C14.54219791 14.82330654 10.93000068 14.80684322 7.317276 14.78500366 C6.24390488 14.78950531 5.17053375 14.79400696 4.06463623 14.79864502 C3.08046219 14.78874039 2.09628815 14.77883575 1.08229065 14.76863098 C-0.19858303 14.76498614 -0.19858303 14.76498614 -1.50533295 14.76126766 C-4.33458838 14.29510802 -5.72521696 13.31417416 -7.81358337 11.38095093 C-8.30967712 9.44345093 -8.30967712 9.44345093 -8.25108337 7.38095093 C-8.24979431 6.70032593 -8.24850525 6.01970093 -8.24717712 5.31845093 C-7.22595882 0.75516912 -4.27872144 0.00561296 0 0 Z " fill="#4772C6" transform="translate(364.81358337402344,319.6190490722656)"/>
<path d="M0 0 C0.98417404 -0.00845947 1.96834808 -0.01691895 2.98234558 -0.02563477 C4.59240227 -0.01652573 4.59240227 -0.01652573 6.23498535 -0.00723267 C7.37031204 -0.01248962 8.50563873 -0.01774658 9.67536926 -0.02316284 C13.43301092 -0.03638041 17.19022991 -0.02761816 20.94787598 -0.01748657 C23.55574627 -0.01950679 26.16361602 -0.02241779 28.77148438 -0.02618408 C34.23901968 -0.03164023 39.70643336 -0.0244538 45.1739502 -0.01016235 C51.49289938 0.00616402 57.81155817 0.0008754 64.13050032 -0.01564157 C70.21206479 -0.03090111 76.29350064 -0.02927939 82.37507629 -0.02049637 C84.96189922 -0.01849245 87.54872953 -0.02096031 90.13554382 -0.02793503 C93.74831895 -0.03553782 97.36053333 -0.02396088 100.9732666 -0.00723267 C102.04663773 -0.01330536 103.12000885 -0.01937805 104.22590637 -0.02563477 C105.21008041 -0.01717529 106.19425446 -0.00871582 107.20825195 0 C108.06216774 0.00113108 108.91608353 0.00226215 109.79587555 0.00342751 C112.62679085 0.46643482 114.0141493 1.4481894 116.10412598 3.38095093 C116.63537598 5.31845093 116.63537598 5.31845093 116.60412598 7.38095093 C116.61959473 8.40188843 116.61959473 8.40188843 116.63537598 9.44345093 C115.87425376 12.21930843 114.52087213 12.88938804 112.10412598 14.38095093 C109.79587555 14.75847435 109.79587555 14.75847435 107.20825195 14.76190186 C106.22407791 14.77036133 105.23990387 14.7788208 104.22590637 14.78753662 C103.15253525 14.78146393 102.07916412 14.77539124 100.9732666 14.76913452 C99.27027657 14.77701996 99.27027657 14.77701996 97.53288269 14.7850647 C93.77524103 14.79828227 90.01802204 14.78952001 86.26037598 14.77938843 C83.65250568 14.78140865 81.04463594 14.78431965 78.43676758 14.78808594 C72.96923228 14.79354209 67.50181859 14.78635566 62.03430176 14.77206421 C55.71535257 14.75573784 49.39669379 14.76102645 43.07775164 14.77754343 C36.99618716 14.79280297 30.91475132 14.79118125 24.83317566 14.78239822 C22.24635274 14.78039431 19.65952243 14.78286216 17.07270813 14.78983688 C13.459933 14.79743968 9.84771863 14.78586273 6.23498535 14.76913452 C4.62492867 14.77824356 4.62492867 14.77824356 2.98234558 14.78753662 C1.99817154 14.77907715 1.0139975 14.77061768 0 14.76190186 C-0.85391579 14.76077078 -1.70783157 14.7596397 -2.5876236 14.75847435 C-5.4185389 14.29546704 -6.80589734 13.31371246 -8.89587402 11.38095093 C-9.42712402 9.44345093 -9.42712402 9.44345093 -9.39587402 7.38095093 C-9.40618652 6.70032593 -9.41649902 6.01970093 -9.42712402 5.31845093 C-8.18302091 0.78113368 -4.21045173 0.00557707 0 0 Z " fill="#4671C6" transform="translate(365.8958740234375,208.61904907226563)"/>
<path d="M0 0 C1.12396683 -0.00700928 2.24793365 -0.01401855 3.40596008 -0.02124023 C7.1264405 -0.03886488 10.84616204 -0.02718004 14.56665039 -0.01367188 C17.14970547 -0.01636567 19.73275956 -0.02024715 22.31581116 -0.02526855 C27.73213273 -0.03116986 33.14816858 -0.02296177 38.56445312 -0.00390625 C44.82097728 0.01785161 51.0769798 0.0108191 57.33349127 -0.01121187 C63.35742122 -0.03157275 69.38109658 -0.02938972 75.40506172 -0.01768494 C77.96593867 -0.01501497 80.52682892 -0.01829685 83.08769035 -0.02760315 C86.66689242 -0.03775424 90.24509144 -0.0222854 93.82421875 0 C95.41485641 -0.01214539 95.41485641 -0.01214539 97.03762817 -0.02453613 C101.48139379 0.02675931 104.23133206 0.09143455 108.14259338 2.32727051 C109.97680664 4.51757812 109.97680664 4.51757812 110.47680664 8.08007812 C109.97680664 11.51757812 109.97680664 11.51757812 108.74919891 13.20861244 C106.41803701 14.93024651 105.00351534 14.89478213 102.11853027 14.89852905 C100.61692101 14.91121826 100.61692101 14.91121826 99.0849762 14.92416382 C97.43911781 14.91505478 97.43911781 14.91505478 95.76000977 14.90576172 C94.02556862 14.91364716 94.02556862 14.91364716 92.25608826 14.92169189 C88.42327477 14.93492584 84.59087456 14.92614145 80.75805664 14.91601562 C78.10151652 14.91803538 75.44498909 14.92094111 72.78845215 14.92471313 C67.21658833 14.93017226 61.64484377 14.92297505 56.07299805 14.90869141 C49.6296516 14.89236447 43.18658992 14.89765288 36.74325037 14.91417062 C31.21280303 14.92778111 25.68244146 14.92970733 20.15198278 14.92185462 C16.84813816 14.91717563 13.5444569 14.91773575 10.24061584 14.92646408 C6.55808071 14.93405709 2.8760974 14.92250375 -0.80639648 14.90576172 C-2.45225487 14.91487076 -2.45225487 14.91487076 -4.13136292 14.92416382 C-5.13243576 14.91570435 -6.13350861 14.90724487 -7.16491699 14.89852905 C-8.03580208 14.89739798 -8.90668716 14.8962669 -9.80396271 14.89510155 C-12.52990256 14.43137952 -13.41396547 13.74137179 -15.02319336 11.51757812 C-15.49024661 7.84787404 -15.64112647 5.52883747 -13.68479919 2.32727051 C-9.40854875 -0.58025913 -5.05361272 -0.03851357 0 0 Z " fill="#4A74C7" transform="translate(372.023193359375,425.482421875)"/>
<path d="M0 0 C1.50160927 -0.01268921 1.50160927 -0.01268921 3.03355408 -0.02563477 C4.130793 -0.01956207 5.22803192 -0.01348938 6.35852051 -0.00723267 C7.51481461 -0.01248962 8.6711087 -0.01774658 9.86244202 -0.02316284 C13.6952555 -0.03639679 17.52765571 -0.02761239 21.36047363 -0.01748657 C24.01701375 -0.01950632 26.67354118 -0.02241206 29.33007812 -0.02618408 C34.90194195 -0.03164321 40.47368651 -0.02444599 46.04553223 -0.01016235 C52.48887868 0.00616458 58.93194036 0.00087618 65.3752799 -0.01564157 C70.90572724 -0.02925205 76.43608881 -0.03117828 81.96654749 -0.02332556 C85.27039211 -0.01864658 88.57407338 -0.0192067 91.87791443 -0.02793503 C95.56044956 -0.03552804 99.24243287 -0.0239747 102.92492676 -0.00723267 C104.02216568 -0.01330536 105.1194046 -0.01937805 106.24989319 -0.02563477 C107.25096603 -0.01717529 108.25203888 -0.00871582 109.28344727 0 C110.15433235 0.00113108 111.02521744 0.00226215 111.92249298 0.00342751 C114.6489515 0.46723777 115.5291122 1.15957254 117.14172363 3.38095093 C117.64172363 6.81845093 117.64172363 6.81845093 117.14172363 10.38095093 C114.97995061 12.9624108 113.19834712 14.21267018 109.84068108 14.74742126 C106.88315859 14.90370239 103.95076725 14.92114272 100.98913574 14.89852905 C99.8634166 14.90553833 98.73769745 14.91254761 97.5778656 14.91976929 C93.85801507 14.9373701 90.13892561 14.92571908 86.41906738 14.91220093 C83.83504592 14.91489503 81.25102544 14.91877676 78.66700745 14.92379761 C73.25246592 14.92969537 67.83821048 14.92150133 62.42370605 14.9024353 C56.1665733 14.88065639 49.90996169 14.88772719 43.65284151 14.90974092 C37.62837206 14.93008644 31.60415737 14.92792551 25.57965279 14.91621399 C23.01794932 14.91354246 20.45623258 14.91683135 17.8945446 14.9261322 C14.31764139 14.93626958 10.74174504 14.92083485 7.16491699 14.89852905 C6.10246765 14.90662598 5.04001831 14.9147229 3.94537354 14.92306519 C-3.18232025 14.8405504 -3.18232025 14.8405504 -6.5198822 12.57125854 C-8.47620948 9.36969158 -8.32532961 7.05065501 -7.85827637 3.38095093 C-5.58532298 0.23995433 -3.7706391 0.00489718 0 0 Z " fill="#4973C7" transform="translate(364.8582763671875,266.6190490722656)"/>
<path d="M0 0 C1.7634375 -0.01643555 1.7634375 -0.01643555 3.5625 -0.03320312 C12.08700084 0.03944887 12.08700084 0.03944887 15.83349609 2.18579102 C18.66494269 5.29195877 18.64396783 6.99263379 18.6640625 11.15625 C18.67373047 13.07244141 18.67373047 13.07244141 18.68359375 15.02734375 C18.67312012 15.68976074 18.66264648 16.35217773 18.65185547 17.03466797 C18.62506529 19.05756972 18.65161188 21.07492617 18.68359375 23.09765625 C18.67714844 24.37511719 18.67070312 25.65257812 18.6640625 26.96875 C18.65560303 28.72155273 18.65560303 28.72155273 18.64697266 30.50976562 C18 33.5625 18 33.5625 15.83349609 35.93920898 C10.82315038 38.80960263 5.64326761 38.17759624 0 38.125 C-1.175625 38.14884766 -2.35125 38.17269531 -3.5625 38.19726562 C-8.38138544 38.18905162 -11.95667118 38.10159472 -16.2734375 35.87109375 C-19.09885814 30.45676957 -18.71996739 25.07077022 -18.625 19.0625 C-18.64433594 17.83917969 -18.66367187 16.61585938 -18.68359375 15.35546875 C-18.65655301 10.4070137 -18.58195543 6.67769514 -16.2734375 2.25390625 C-10.99863842 -0.47161643 -5.84295598 -0.11852487 0 0 Z " fill="#3A64CD" transform="translate(320,254.4375)"/>
<path d="M0 0 C1.7634375 -0.01643555 1.7634375 -0.01643555 3.5625 -0.03320312 C12.09597199 0.03952533 12.09597199 0.03952533 15.83349609 2.20166016 C18.62056056 5.238725 18.64351618 6.82096334 18.6640625 10.90234375 C18.67373047 12.7440918 18.67373047 12.7440918 18.68359375 14.62304688 C18.66425781 15.90244141 18.64492188 17.18183594 18.625 18.5 C18.64433594 19.77552734 18.66367187 21.05105469 18.68359375 22.36523438 C18.65698904 27.43875196 18.62299114 31.3573927 16.2734375 35.90234375 C10.99002841 38.581877 5.8347561 38.28346638 0 38.1875 C-1.7634375 38.21650391 -1.7634375 38.21650391 -3.5625 38.24609375 C-8.37900937 38.21872722 -11.96210167 38.1000273 -16.2734375 35.8671875 C-19.10068188 30.45576499 -18.71993589 25.06877709 -18.625 19.0625 C-18.64433594 17.83917969 -18.66367187 16.61585938 -18.68359375 15.35546875 C-18.65655301 10.4070137 -18.58195543 6.67769514 -16.2734375 2.25390625 C-10.99863842 -0.47161643 -5.84295598 -0.11852487 0 0 Z " fill="#3A64CC" transform="translate(320,414.4375)"/>
<path d="M0 0 C1.23234375 -0.00515625 2.4646875 -0.0103125 3.734375 -0.015625 C5.66023438 0.00757813 5.66023438 0.00757813 7.625 0.03125 C8.90890625 0.01578125 10.1928125 0.0003125 11.515625 -0.015625 C12.74796875 -0.01046875 13.9803125 -0.0053125 15.25 0 C16.93996094 0.00676758 16.93996094 0.00676758 18.6640625 0.01367188 C21.625 0.53125 21.625 0.53125 23.99023438 2.16601562 C26.11501472 5.24021992 26.14134887 7.18522593 26.15625 10.90625 C26.16398437 12.75476563 26.16398437 12.75476563 26.171875 14.640625 C26.15640625 15.92453125 26.1409375 17.2084375 26.125 18.53125 C26.14046875 19.81515625 26.1559375 21.0990625 26.171875 22.421875 C26.16671875 23.65421875 26.1615625 24.8865625 26.15625 26.15625 C26.15173828 27.28289062 26.14722656 28.40953125 26.14257812 29.5703125 C25.51634529 33.15283695 24.4319102 34.29830183 21.625 36.53125 C17.54130163 38.57309918 12.36366494 37.84843347 7.875 37.90625 C6.24691406 37.96232422 6.24691406 37.96232422 4.5859375 38.01953125 C-4.42722181 38.11869804 -4.42722181 38.11869804 -8.1015625 35.88671875 C-11.62960059 32.22078536 -11.10267858 27.12277878 -11.09765625 22.33398438 C-11.06542969 21.05845703 -11.03320312 19.78292969 -11 18.46875 C-11.00644531 17.18935547 -11.01289063 15.90996094 -11.01953125 14.59179688 C-10.91229159 5.30581737 -10.91229159 5.30581737 -8.73583984 2.16821289 C-5.66462471 0.03868885 -3.72102645 0.01490114 0 0 Z " fill="#3D67CE" transform="translate(312.375,361.46875)"/>
<path d="M0 0 C1.23234375 -0.00515625 2.4646875 -0.0103125 3.734375 -0.015625 C5.66023438 0.00757813 5.66023438 0.00757813 7.625 0.03125 C8.90890625 0.01578125 10.1928125 0.0003125 11.515625 -0.015625 C12.74796875 -0.01046875 13.9803125 -0.0053125 15.25 0 C16.93996094 0.00676758 16.93996094 0.00676758 18.6640625 0.01367188 C21.625 0.53125 21.625 0.53125 23.99023438 2.16601562 C26.11501472 5.24021992 26.14134887 7.18522593 26.15625 10.90625 C26.16398437 12.75476563 26.16398437 12.75476563 26.171875 14.640625 C26.15640625 15.92453125 26.1409375 17.2084375 26.125 18.53125 C26.14046875 19.81515625 26.1559375 21.0990625 26.171875 22.421875 C26.16671875 23.65421875 26.1615625 24.8865625 26.15625 26.15625 C26.15173828 27.28289062 26.14722656 28.40953125 26.14257812 29.5703125 C25.625 32.53125 25.625 32.53125 23.99023438 34.89428711 C19.24373325 38.17930879 13.19753247 37.14130675 7.625 37.09375 C5.69914062 37.12952148 5.69914062 37.12952148 3.734375 37.16601562 C2.50203125 37.16408203 1.2696875 37.16214844 0 37.16015625 C-1.12664062 37.16088135 -2.25328125 37.16160645 -3.4140625 37.16235352 C-6.375 36.53125 -6.375 36.53125 -8.74023438 34.3828125 C-10.64083674 31.06754434 -10.89035996 29.07931989 -10.90625 25.27734375 C-10.91140625 24.09333984 -10.9165625 22.90933594 -10.921875 21.68945312 C-10.90640625 20.46162109 -10.8909375 19.23378906 -10.875 17.96875 C-10.89046875 16.73705078 -10.9059375 15.50535156 -10.921875 14.23632812 C-10.91671875 13.05361328 -10.9115625 11.87089844 -10.90625 10.65234375 C-10.90173828 9.5739624 -10.89722656 8.49558105 -10.89257812 7.38452148 C-9.73806632 1.02000286 -5.93617944 0.02377189 0 0 Z " fill="#3B66CE" transform="translate(312.375,197.46875)"/>
<path d="M0 0 C1.23234375 -0.00515625 2.4646875 -0.0103125 3.734375 -0.015625 C5.66023438 0.00757813 5.66023438 0.00757813 7.625 0.03125 C8.90890625 0.01578125 10.1928125 0.0003125 11.515625 -0.015625 C12.74796875 -0.01046875 13.9803125 -0.0053125 15.25 0 C16.93996094 0.00676758 16.93996094 0.00676758 18.6640625 0.01367188 C21.625 0.53125 21.625 0.53125 23.99023438 2.16601562 C26.11501472 5.24021992 26.14134887 7.18522593 26.15625 10.90625 C26.16398437 12.75476563 26.16398437 12.75476563 26.171875 14.640625 C26.15640625 15.92453125 26.1409375 17.2084375 26.125 18.53125 C26.14046875 19.81515625 26.1559375 21.0990625 26.171875 22.421875 C26.16671875 23.65421875 26.1615625 24.8865625 26.15625 26.15625 C26.15173828 27.28289062 26.14722656 28.40953125 26.14257812 29.5703125 C25.625 32.53125 25.625 32.53125 23.99023438 34.89428711 C19.24373325 38.17930879 13.19753247 37.14130675 7.625 37.09375 C5.69914062 37.12952148 5.69914062 37.12952148 3.734375 37.16601562 C2.50203125 37.16408203 1.2696875 37.16214844 0 37.16015625 C-1.12664062 37.16088135 -2.25328125 37.16160645 -3.4140625 37.16235352 C-6.375 36.53125 -6.375 36.53125 -8.74023438 34.3828125 C-10.64083674 31.06754434 -10.89035996 29.07931989 -10.90625 25.27734375 C-10.91140625 24.09333984 -10.9165625 22.90933594 -10.921875 21.68945312 C-10.90640625 20.46162109 -10.8909375 19.23378906 -10.875 17.96875 C-10.89046875 16.73705078 -10.9059375 15.50535156 -10.921875 14.23632812 C-10.91671875 13.05361328 -10.9115625 11.87089844 -10.90625 10.65234375 C-10.90173828 9.5739624 -10.89722656 8.49558105 -10.89257812 7.38452148 C-9.73806632 1.02000286 -5.93617944 0.02377189 0 0 Z " fill="#3B66CD" transform="translate(312.375,308.46875)"/>
<path d="M0 0 C6.93 0 13.86 0 21 0 C21 6.93 21 13.86 21 21 C14.07 21 7.14 21 0 21 C0 14.07 0 7.14 0 0 Z " fill="#A0C5FD" transform="translate(310,423)"/>
<path d="M0 0 C6.93 0 13.86 0 21 0 C21 6.93 21 13.86 21 21 C14.07 21 7.14 21 0 21 C0 14.07 0 7.14 0 0 Z " fill="#A0C5FD" transform="translate(310,263)"/>
<path d="M0 0 C6.6 0 13.2 0 20 0 C20 6.6 20 13.2 20 20 C13.4 20 6.8 20 0 20 C0 13.4 0 6.8 0 0 Z " fill="#A4C9FF" transform="translate(310,370)"/>
<path d="M0 0 C6.6 0 13.2 0 20 0 C20 6.6 20 13.2 20 20 C13.4 20 6.8 20 0 20 C0 13.4 0 6.8 0 0 Z " fill="#A4C9FF" transform="translate(310,317)"/>
<path d="M0 0 C6.6 0 13.2 0 20 0 C20 6.6 20 13.2 20 20 C13.4 20 6.8 20 0 20 C0 13.4 0 6.8 0 0 Z " fill="#A4C9FF" transform="translate(310,206)"/>
<path d="M0 0 C2.375 0.875 2.375 0.875 4.375 2.875 C4.52017744 5.7843558 4.56130796 8.594946 4.5 11.5 C4.49097656 12.30179688 4.48195313 13.10359375 4.47265625 13.9296875 C4.44906223 15.91158523 4.41319065 17.89332981 4.375 19.875 C0.745 19.875 -2.885 19.875 -6.625 19.875 C-6.7331866 17.29054227 -6.81237237 14.71062648 -6.875 12.125 C-6.90851563 11.39539063 -6.94203125 10.66578125 -6.9765625 9.9140625 C-7.04197522 6.31636307 -6.93131266 4.29246409 -4.7734375 1.3515625 C-2.625 -0.125 -2.625 -0.125 0 0 Z " fill="#9CC1FB" transform="translate(391.625,148.125)"/>
<path d="M0 0 C2.4375 0.6875 2.4375 0.6875 5 2 C5.8125 4.625 5.8125 4.625 6 7 C4.02 7 2.04 7 0 7 C0 4.69 0 2.38 0 0 Z " fill="#F3A4A7" transform="translate(404,161)"/>
</svg>
