<?xml version="1.0" encoding="UTF-8"?>
<svg version="1.1" xmlns="http://www.w3.org/2000/svg" width="512" height="512">
<path d="M0 0 C2.12399842 1.42463308 4.1116344 2.87259251 6.125 4.4375 C23.48128227 17.2936596 42.94217455 24.7586712 64 29 C64.15892199 36.05760195 63.55717754 42.81028512 62.64453125 49.8046875 C62.5010173 50.92328156 62.35750336 52.04187561 62.2096405 53.19436646 C61.90416167 55.55641154 61.59553357 57.91805123 61.28393555 60.27929688 C60.8186789 63.82787269 60.37274056 67.37852332 59.92773438 70.9296875 C55.99024305 101.49708958 48.14905476 129.16374608 25 151 C24.34 151 23.68 151 23 151 C23.00276538 151.88698672 23.00553076 152.77397345 23.00837994 153.68783855 C23.07460904 175.26191687 23.12426562 196.83597768 23.15543652 218.41013622 C23.17091086 228.8432041 23.19201126 239.27620416 23.22631836 249.70922852 C23.2562033 258.80177156 23.27557087 267.89426549 23.28226548 276.98685628 C23.28617927 281.80211772 23.29538905 286.61723863 23.31719017 291.43245506 C23.33754099 295.96402639 23.34383664 300.49539919 23.33932304 305.02701187 C23.34014887 306.69069433 23.34612291 308.35438339 23.35761642 310.01802635 C23.37253883 312.28925455 23.36895492 314.5597329 23.36076355 316.83097839 C23.36352893 318.10213092 23.36629431 319.37328344 23.36914349 320.68295574 C22.96754903 324.2915975 22.19132824 326.13482378 20 329 C16.62074891 331.25283406 15.50635314 331.24790712 11.55207825 331.24050903 C10.42045761 331.24325836 9.28883698 331.24600769 8.1229248 331.24884033 C6.88071167 331.24164978 5.63849854 331.23445923 4.35864258 331.22705078 C2.39751778 331.22748886 2.39751778 331.22748886 0.39677429 331.22793579 C-3.18976535 331.2285103 -6.77617159 331.21674021 -10.3626802 331.20278788 C-14.11029496 331.19029681 -17.85791268 331.1891113 -21.60554504 331.18673706 C-28.70283452 331.18051751 -35.80006249 331.16410028 -42.89732486 331.14403808 C-50.97703858 331.12169384 -59.05675522 331.11068937 -67.13649213 331.10064721 C-83.75770312 331.07973445 -100.37882937 331.04305231 -117 331 C-117 341.89 -117 352.78 -117 364 C-108.75 364 -100.5 364 -92 364 C-92 376.54 -92 389.08 -92 402 C-128.13709316 402.04523098 -164.27417807 402.08102909 -200.41129374 402.10213066 C-204.67946931 402.10463201 -208.94764483 402.10722066 -213.21582031 402.10986328 C-214.06552242 402.1103879 -214.91522452 402.11091252 -215.79067518 402.11145304 C-229.54146345 402.1201511 -243.29223498 402.13591778 -257.04301332 402.15430559 C-271.15691544 402.17302131 -285.2708088 402.18412026 -299.38472283 402.18817699 C-308.09084786 402.19091858 -316.79692553 402.19957176 -325.50303598 402.21583293 C-331.47648813 402.22642045 -337.44991587 402.22959662 -343.42337672 402.22700275 C-346.86760124 402.22572421 -350.31174309 402.22765772 -353.75595284 402.23841095 C-357.49661841 402.24838005 -361.23708231 402.24596151 -364.97775269 402.24050903 C-366.05754454 402.24633472 -367.13733639 402.2521604 -368.2498492 402.25816262 C-377.1195029 402.22328498 -385.99207725 401.96418958 -393 396 C-396.17116361 392.8037679 -399.099186 389.44217898 -402 386 C-402.47228027 385.44393066 -402.94456055 384.88786133 -403.43115234 384.31494141 C-414.76061572 370.87213314 -414.76061572 370.87213314 -416 363 C-416.14824219 362.08992188 -416.29648437 361.17984375 -416.44921875 360.2421875 C-418.31022426 344.91390559 -414.29372666 331.13706709 -404.9375 319 C-402.16873703 315.46845758 -399.35126775 311.99812341 -396 309 C-395.34 309 -394.68 309 -394 309 C-394 314.61 -394 320.22 -394 326 C-388.39 326.33 -382.78 326.66 -377 327 C-377 302.58 -377 278.16 -377 253 C-364.79 253 -352.58 253 -340 253 C-340.03552979 247.74924561 -340.07105957 242.49849121 -340.10766602 237.08862305 C-340.22480153 219.65043976 -340.33549814 202.21221985 -340.4429636 184.77397442 C-340.50821055 174.2115163 -340.57558594 163.64908022 -340.64819336 153.08666992 C-340.71156343 143.86722314 -340.7707146 134.64775995 -340.82505554 125.42825538 C-340.85389804 120.55867288 -340.88467874 115.68912213 -340.92053413 110.8195858 C-341.17350759 76.05206993 -341.17350759 76.05206993 -340.75756836 59.15161133 C-340.73575548 57.50871518 -340.73575548 57.50871518 -340.71350193 55.8326292 C-340.68054492 54.84350442 -340.64758791 53.85437963 -340.6136322 52.83528137 C-340.59191421 51.98968564 -340.57019621 51.14408991 -340.54782009 50.27287006 C-339.74496409 46.94187254 -338.87859663 45.91189539 -336 44 C-332.58886089 43.41173701 -329.21604864 43.4782652 -325.76226807 43.51898193 C-324.70937741 43.51556423 -323.65648675 43.51214653 -322.57169032 43.50862527 C-319.03221993 43.50201972 -315.49350246 43.52406749 -311.95410156 43.54589844 C-309.42152423 43.54702633 -306.88894559 43.54639419 -304.35636902 43.54412842 C-298.89805722 43.54321659 -293.43998927 43.55458545 -287.9817276 43.57707977 C-280.09004456 43.60958144 -272.19845401 43.62000489 -264.30671129 43.62503174 C-251.50308714 43.63378729 -238.6995649 43.66040987 -225.89599609 43.69824219 C-213.45817576 43.73495558 -201.0203831 43.76327061 -188.58251953 43.78027344 C-187.81591256 43.78132433 -187.04930559 43.78237523 -186.25946811 43.78345796 C-182.41364451 43.7886781 -178.56782071 43.79373293 -174.72199678 43.79870558 C-142.81459046 43.8401757 -110.90730937 43.91063115 -79 44 C-79.144375 43.33613281 -79.28875 42.67226562 -79.4375 41.98828125 C-79.623125 41.10527344 -79.80875 40.22226563 -80 39.3125 C-80.185625 38.44238281 -80.37125 37.57226562 -80.5625 36.67578125 C-80.98972047 34.06287036 -81.07616201 31.64186962 -81 29 C-80.40799805 28.82460693 -79.81599609 28.64921387 -79.20605469 28.46850586 C-41.76410111 17.41270543 -41.76410111 17.41270543 -7.05932617 -0.19287109 C-4.32087237 -1.26617617 -2.77760006 -0.8620717 0 0 Z " fill="#2552FA" transform="translate(432,56)"/>
<path d="M0 0 C43.17303012 0 43.17303012 0 64.51924133 0.15246582 C66.0951569 0.1633892 67.67107255 0.17429873 69.2469883 0.18519592 C70.43485888 0.19347884 70.43485888 0.19347884 71.64672685 0.20192909 C75.83590491 0.23086419 80.02509256 0.25834674 84.21427917 0.28601074 C92.07894012 0.33815314 99.94359219 0.39152327 107.80824155 0.4453826 C116.79078426 0.50683417 125.77333645 0.56684383 134.75588953 0.62675762 C153.17060367 0.7496151 171.58530573 0.87420128 190 1 C190 2.32 190 3.64 190 5 C224.32 5 258.64 5 294 5 C294 6.65 294 8.3 294 10 C259.68 10 225.36 10 190 10 C190 16.93 190 23.86 190 31 C231.58 31 273.16 31 316 31 C316 32.65 316 34.3 316 36 C274.42 36 232.84 36 190 36 C190 36.66 190 37.32 190 38 C221.02 38 252.04 38 284 38 C284 50.21 284 62.42 284 75 C276.08 75 268.16 75 260 75 C260 86.88 260 98.76 260 111 C268.25 111 276.5 111 285 111 C285 123.54 285 136.08 285 149 C248.86290684 149.04523098 212.72582193 149.08102909 176.58870626 149.10213066 C172.32053069 149.10463201 168.05235517 149.10722066 163.78417969 149.10986328 C162.93447758 149.1103879 162.08477548 149.11091252 161.20932482 149.11145304 C147.45853655 149.1201511 133.70776502 149.13591778 119.95698668 149.15430559 C105.84308456 149.17302131 91.7291912 149.18412026 77.61527717 149.18817699 C68.90915214 149.19091858 60.20307447 149.19957176 51.49696402 149.21583293 C45.52351187 149.22642045 39.55008413 149.22959662 33.57662328 149.22700275 C30.13239876 149.22572421 26.68825691 149.22765772 23.24404716 149.23841095 C19.50338159 149.24838005 15.76291769 149.24596151 12.02224731 149.24050903 C10.94245546 149.24633472 9.86266361 149.2521604 8.7501508 149.25816262 C-0.1195029 149.22328498 -8.99207725 148.96418958 -16 143 C-19.17116361 139.8037679 -22.099186 136.44217898 -25 133 C-25.47228027 132.44393066 -25.94456055 131.88786133 -26.43115234 131.31494141 C-37.76061572 117.87213314 -37.76061572 117.87213314 -39 110 C-39.14824219 109.08992188 -39.29648437 108.17984375 -39.44921875 107.2421875 C-41.31022426 91.91390559 -37.29372666 78.13706709 -27.9375 66 C-25.16873703 62.46845758 -22.35126775 58.99812341 -19 56 C-18.34 56 -17.68 56 -17 56 C-17 61.61 -17 67.22 -17 73 C-11.39 73.33 -5.78 73.66 0 74 C0 49.58 0 25.16 0 0 Z " fill="#FCC400" transform="translate(55,309)"/>
<path d="M0 0 C2.12399842 1.42463308 4.1116344 2.87259251 6.125 4.4375 C23.48128227 17.2936596 42.94217455 24.7586712 64 29 C64.15892199 36.05760195 63.55717754 42.81028512 62.64453125 49.8046875 C62.5010173 50.92328156 62.35750336 52.04187561 62.2096405 53.19436646 C61.90416167 55.55641154 61.59553357 57.91805123 61.28393555 60.27929688 C60.8186789 63.82787269 60.37274056 67.37852332 59.92773438 70.9296875 C55.97279923 101.63250888 48.12014846 128.98256132 25 151 C23.01200713 152.35117064 21.01052462 153.68259022 19 155 C16.30967244 157.09185039 13.68748985 159.26449515 11.0625 161.4375 C8.39134446 163.64609578 5.70746668 165.83604464 3 168 C2.36562012 168.51449707 1.73124023 169.02899414 1.07763672 169.55908203 C-3.45114902 173.05437254 -3.45114902 173.05437254 -5.93457031 172.80834961 C-8.35904692 171.85947939 -10.19287944 170.63395517 -12.29296875 169.09375 C-13.08767578 168.51496094 -13.88238281 167.93617188 -14.70117188 167.33984375 C-15.9319043 166.42912109 -15.9319043 166.42912109 -17.1875 165.5 C-18.43563477 164.58927734 -18.43563477 164.58927734 -19.70898438 163.66015625 C-25.79124715 159.20875285 -25.79124715 159.20875285 -27 158 C-29.37766412 157.88997717 -31.72691174 157.84504465 -34.10560608 157.84178162 C-34.85783414 157.83684364 -35.6100622 157.83190566 -36.38508505 157.82681805 C-38.92477115 157.81136737 -41.46443183 157.80306208 -44.00415039 157.79467773 C-45.81708503 157.78510515 -47.6300174 157.77509544 -49.44294739 157.76467896 C-54.38073281 157.73755667 -59.31852787 157.71658689 -64.25634694 157.69667697 C-69.41069767 157.67486243 -74.56501847 157.64745164 -79.71934509 157.62062073 C-89.48701923 157.57063236 -99.25470992 157.52571641 -109.02241653 157.48259836 C-120.13953937 157.43327838 -131.25663218 157.37834088 -142.37372601 157.32291877 C-165.24912269 157.20900445 -188.12454814 157.10218609 -211 157 C-211 155.35 -211 153.7 -211 152 C-153.58 151.67 -96.16 151.34 -37 151 C-40.96 147.04 -44.92 143.08 -49 139 C-50.05115997 137.453125 -51.10231995 135.90625 -52.18533325 134.3125 C-53.70497128 132.18144173 -54.48719683 131.18494734 -56.96038437 130.29296875 C-59.35734154 129.97605557 -61.61766088 129.9434281 -64.03466797 130 C-64.92311905 129.98907822 -65.81157013 129.97815643 -66.72694397 129.96690369 C-69.64986836 129.94029077 -72.56934455 129.96981194 -75.4921875 130 C-77.52387036 129.99247936 -79.55554299 129.98144356 -81.58718872 129.96704102 C-86.92391817 129.93862975 -92.25944688 129.95788303 -97.59613037 129.98712158 C-103.04593726 130.00852679 -108.49552775 129.98477538 -113.9453125 129.96484375 C-124.63047914 129.93241003 -135.31492158 129.95033794 -146 130 C-146 128.35 -146 126.7 -146 125 C-117.29 125 -88.58 125 -59 125 C-61.64 119.39 -64.28 113.78 -67 108 C-67.33 106.35 -67.66 104.7 -68 103 C-88.46 103 -108.92 103 -130 103 C-129.67 101.35 -129.34 99.7 -129 98 C-109.53 98 -90.06 98 -70 98 C-70.99 95.03 -71.98 92.06 -73 89 C-73.57884619 86.17276515 -74.08510101 83.41080199 -74.5 80.5625 C-74.68163696 79.37442749 -74.68163696 79.37442749 -74.86694336 78.16235352 C-76.09683422 69.85564056 -77.02438011 61.50996015 -77.91015625 53.16040039 C-78.53216572 47.43464416 -79.33318549 41.85661415 -80.61303711 36.23852539 C-81.03655663 33.78852506 -81.06368594 31.4815649 -81 29 C-80.40799805 28.82460693 -79.81599609 28.64921387 -79.20605469 28.46850586 C-41.76410111 17.41270543 -41.76410111 17.41270543 -7.05932617 -0.19287109 C-4.32087237 -1.26617617 -2.77760006 -0.8620717 0 0 Z " fill="#E67924" transform="translate(432,56)"/>
<path d="M0 0 C0.556875 1.03898437 1.11375 2.07796875 1.6875 3.1484375 C7.17229989 13.23397812 12.89884561 22.12888545 21.25 30.125 C30.14559324 38.84616984 31.03767481 50.09755688 32 62 C32.4846875 61.39671875 32.969375 60.7934375 33.46875 60.171875 C38.84233478 53.76490853 43.5839983 49.53695398 52 48.25 C52.99 48.1675 53.98 48.085 55 48 C54.566875 48.8353125 54.566875 48.8353125 54.125 49.6875 C50.62336244 56.88531053 49.56154127 63.20925333 51.91015625 71.03125 C54.30709377 77.01203302 57.30673087 82.51236882 60.765625 87.94140625 C63.94670427 93.2465606 63.59248875 99.01999722 63 105 C59.99098619 116.97981199 52.90306832 127.64405471 42.2315979 134.06384277 C33.16378822 138.45410055 23.22816959 137.57789264 13.3984375 137.53125 C11.39165052 137.53394861 9.38486481 137.53783409 7.37808228 137.54284668 C3.18714866 137.54872164 -1.00344235 137.5402417 -5.19433594 137.52148438 C-10.5519307 137.49866659 -15.90872504 137.51184873 -21.26629066 137.53577423 C-25.40485617 137.55026122 -29.54323334 137.54561341 -33.68180466 137.53526306 C-35.65686515 137.53260533 -37.63194304 137.53583178 -39.60698318 137.54518127 C-42.37077099 137.5553981 -45.13327957 137.53977582 -47.89697266 137.51757812 C-48.70341721 137.52567505 -49.50986176 137.53377197 -50.34074402 137.54211426 C-56.90858686 137.44492537 -61.88541964 135.41983465 -67.06640625 131.39453125 C-70.70604586 127.54582618 -74.04827626 123.55409236 -77.234375 119.3203125 C-78.41702277 117.76612494 -79.63678996 116.23953596 -80.890625 114.7421875 C-88.57633472 105.47412578 -90.58010728 95.73325141 -89.78515625 83.765625 C-87.86518723 68.47901453 -80.48151533 55.27163522 -69 45 C-68.34 45 -67.68 45 -67 45 C-67.0314209 45.57331055 -67.0628418 46.14662109 -67.09521484 46.73730469 C-67.71397437 59.75475184 -67.67328901 69.58001118 -59.25390625 80.203125 C-55.90313356 83.87479574 -52.96313142 85.91053213 -48 87 C-42.42476059 81.06390367 -38.2621658 75.38548967 -38.5 66.80859375 C-39.66373678 60.27166604 -42.51508393 54.12624737 -45 48 C-48.34971068 37.95086797 -46.59363223 25.31030818 -42 16 C-40.47282236 18.89430172 -39.37630379 21.78467406 -38.3125 24.875 C-35.66406943 31.43347716 -32.22808787 34.47685967 -25.87890625 37.47265625 C-22.93999027 38.71537808 -19.99122393 39.88995631 -17 41 C-17.15984375 40.44570313 -17.3196875 39.89140625 -17.484375 39.3203125 C-19.46483655 30.40823552 -18.05177503 21.20188926 -13.453125 13.36328125 C-4.42442078 0 -4.42442078 0 0 0 Z " fill="#68003B" transform="translate(105,320)"/>
<path d="M0 0 C43.17303012 0 43.17303012 0 64.51924133 0.15246582 C66.0951569 0.1633892 67.67107255 0.17429873 69.2469883 0.18519592 C70.43485888 0.19347884 70.43485888 0.19347884 71.64672685 0.20192909 C75.83590491 0.23086419 80.02509256 0.25834674 84.21427917 0.28601074 C92.07894012 0.33815314 99.94359219 0.39152327 107.80824155 0.4453826 C116.79078426 0.50683417 125.77333645 0.56684383 134.75588953 0.62675762 C153.17060367 0.7496151 171.58530573 0.87420128 190 1 C190 2.32 190 3.64 190 5 C224.32 5 258.64 5 294 5 C294 6.65 294 8.3 294 10 C259.68 10 225.36 10 190 10 C190 16.93 190 23.86 190 31 C231.58 31 273.16 31 316 31 C316 32.65 316 34.3 316 36 C274.42 36 232.84 36 190 36 C190 36.66 190 37.32 190 38 C221.02 38 252.04 38 284 38 C284 50.21 284 62.42 284 75 C276.08 75 268.16 75 260 75 C259.67 75.99 259.34 76.98 259 78 C259 77.01 259 76.02 259 75 C235.9 75 212.8 75 189 75 C189 62.79 189 50.58 189 38 C157.65 38 126.3 38 94 38 C94 45.92 94 53.84 94 62 C90.39520531 66.39996999 89.35736641 67.42453674 85 70 C82.73771808 72.56610309 82.73771808 72.56610309 81 75 C80.83564453 73.31583984 80.83564453 73.31583984 80.66796875 71.59765625 C79.32038176 58.56564603 77.81303881 48.45814584 67.875 39.0625 C60.42283453 31.80774288 54.29739436 22.46813015 50 13 C50 12.34 50 11.68 50 11 C42.31572178 16.84803512 35.11020821 24.82839669 33.19921875 34.609375 C32.71726558 40.39281308 32.86415489 46.20394199 33 52 C25.35931133 51.05464551 19.64595398 47.5309125 14.125 42.25 C11.38500891 38.0594254 9.66462229 33.70558032 8 29 C3.7644786 38.52992315 3.29951263 49.80266827 6.0546875 59.84375 C7.26242495 62.95956969 8.60183146 65.96639796 10 69 C12.25643636 75.14122886 13.32141955 80.33060357 11.0546875 86.625 C8.70027658 91.60035893 6.17827434 95.418622 2 99 C-4.36697588 97.72660482 -8.10155536 93.94267088 -12 89 C-18 78.94491525 -18 78.94491525 -18 74 C-12.06 74 -6.12 74 0 74 C0 49.58 0 25.16 0 0 Z " fill="#E57925" transform="translate(55,309)"/>
<path d="M0 0 C0.78222388 0.00151888 1.56444776 0.00303776 2.37037539 0.00460267 C3.27705565 -0.00336152 4.1837359 -0.01132572 5.11789131 -0.01953125 C6.60621125 -0.0020542 6.60621125 -0.0020542 8.12459826 0.01577592 C9.18157247 0.01235822 10.23854668 0.00894052 11.32755041 0.00541925 C14.88083925 -0.00118643 18.43337815 0.02086171 21.98659778 0.04269242 C24.5290272 0.04382031 27.07145793 0.04318818 29.61388659 0.0409224 C35.09347894 0.04001057 40.57282838 0.05137962 46.05237079 0.07387376 C53.97482288 0.10637516 61.89718283 0.11679885 69.81969437 0.12182572 C82.67323261 0.13058131 95.52666934 0.15720401 108.38015246 0.19503617 C120.86647542 0.23174946 133.35277081 0.26006455 145.83913684 0.27706742 C146.99352779 0.27864376 146.99352779 0.27864376 148.17123976 0.28025195 C152.03204744 0.28547208 155.8928553 0.29052692 159.7536633 0.29549956 C191.78548347 0.33696981 223.81717888 0.40742538 255.84890246 0.49679399 C256.3545762 4.70446573 256.85243786 8.91302652 257.34890246 13.12179399 C257.4919884 14.31159867 257.63507434 15.50140336 257.78249621 16.72726274 C257.91784778 17.88097367 258.05319934 19.03468461 258.19265246 20.22335649 C258.31833606 21.2811934 258.44401965 22.33903031 258.57351184 23.42892289 C258.84387877 26.44082966 258.84890246 29.47277668 258.84890246 32.49679399 C171.06890246 32.82679399 83.28890246 33.15679399 -7.15109754 33.49679399 C-6.04417 1.39589547 -6.04417 1.39589547 0 0 Z " fill="#2855FA" transform="translate(98.15109753608704,99.50320601463318)"/>
<path d="M0 0 C2.12399842 1.42463308 4.1116344 2.87259251 6.125 4.4375 C23.48128227 17.2936596 42.94217455 24.7586712 64 29 C64.15892199 36.05760195 63.55717754 42.81028512 62.64453125 49.8046875 C62.5010173 50.92328156 62.35750336 52.04187561 62.2096405 53.19436646 C61.90416167 55.55641154 61.59553357 57.91805123 61.28393555 60.27929688 C60.8186789 63.82787269 60.37274056 67.37852332 59.92773438 70.9296875 C55.97279923 101.63250888 48.12014846 128.98256132 25 151 C23.01200713 152.35117064 21.01052462 153.68259022 19 155 C16.30967244 157.09185039 13.68748985 159.26449515 11.0625 161.4375 C8.39134446 163.64609578 5.70746668 165.83604464 3 168 C2.36562012 168.51449707 1.73124023 169.02899414 1.07763672 169.55908203 C-3.45114902 173.05437254 -3.45114902 173.05437254 -5.93457031 172.80834961 C-8.35904692 171.85947939 -10.19287944 170.63395517 -12.29296875 169.09375 C-13.08767578 168.51496094 -13.88238281 167.93617188 -14.70117188 167.33984375 C-15.9319043 166.42912109 -15.9319043 166.42912109 -17.1875 165.5 C-18.43563477 164.58927734 -18.43563477 164.58927734 -19.70898438 163.66015625 C-25.79124715 159.20875285 -25.79124715 159.20875285 -27 158 C-29.37766412 157.88997717 -31.72691174 157.84504465 -34.10560608 157.84178162 C-34.85783414 157.83684364 -35.6100622 157.83190566 -36.38508505 157.82681805 C-38.92477115 157.81136737 -41.46443183 157.80306208 -44.00415039 157.79467773 C-45.81708503 157.78510515 -47.6300174 157.77509544 -49.44294739 157.76467896 C-54.38073281 157.73755667 -59.31852787 157.71658689 -64.25634694 157.69667697 C-69.41069767 157.67486243 -74.56501847 157.64745164 -79.71934509 157.62062073 C-89.48701923 157.57063236 -99.25470992 157.52571641 -109.02241653 157.48259836 C-120.13953937 157.43327838 -131.25663218 157.37834088 -142.37372601 157.32291877 C-165.24912269 157.20900445 -188.12454814 157.10218609 -211 157 C-211 155.35 -211 153.7 -211 152 C-153.58 151.67 -96.16 151.34 -37 151 C-40.96 147.04 -44.92 143.08 -49 139 C-50.05115997 137.453125 -51.10231995 135.90625 -52.18533325 134.3125 C-53.70497128 132.18144173 -54.48719683 131.18494734 -56.96038437 130.29296875 C-59.35734154 129.97605557 -61.61766088 129.9434281 -64.03466797 130 C-64.92311905 129.98907822 -65.81157013 129.97815643 -66.72694397 129.96690369 C-69.64986836 129.94029077 -72.56934455 129.96981194 -75.4921875 130 C-77.52387036 129.99247936 -79.55554299 129.98144356 -81.58718872 129.96704102 C-86.92391817 129.93862975 -92.25944688 129.95788303 -97.59613037 129.98712158 C-103.04593726 130.00852679 -108.49552775 129.98477538 -113.9453125 129.96484375 C-124.63047914 129.93241003 -135.31492158 129.95033794 -146 130 C-146 128.35 -146 126.7 -146 125 C-117.29 125 -88.58 125 -59 125 C-61.64 119.39 -64.28 113.78 -67 108 C-67.33 106.35 -67.66 104.7 -68 103 C-88.46 103 -108.92 103 -130 103 C-129.67 101.35 -129.34 99.7 -129 98 C-109.53 98 -90.06 98 -70 98 C-70.99 95.03 -71.98 92.06 -73 89 C-73.57884619 86.17276515 -74.08510101 83.41080199 -74.5 80.5625 C-74.68163696 79.37442749 -74.68163696 79.37442749 -74.86694336 78.16235352 C-76.09683422 69.85564056 -77.02438011 61.50996015 -77.91015625 53.16040039 C-78.53216572 47.43464416 -79.33318549 41.85661415 -80.61303711 36.23852539 C-81.03655663 33.78852506 -81.06368594 31.4815649 -81 29 C-80.40799805 28.82460693 -79.81599609 28.64921387 -79.20605469 28.46850586 C-41.76410111 17.41270543 -41.76410111 17.41270543 -7.05932617 -0.19287109 C-4.32087237 -1.26617617 -2.77760006 -0.8620717 0 0 Z M-8.8203125 9.30859375 C-27.30345602 18.48157688 -46.10721998 26.4090168 -66 32 C-66.76828125 32.22300781 -67.5365625 32.44601563 -68.328125 32.67578125 C-69.88297616 33.12570865 -71.44093153 33.56491113 -73 34 C-72.3691619 43.5069116 -71.35037051 52.92748689 -70.125 62.375 C-69.96386719 63.66921875 -69.80273438 64.9634375 -69.63671875 66.296875 C-65.66485851 97.14806847 -56.45237602 126.36330107 -31.5 146.875 C-26.80806707 150.48076893 -22.00010847 153.93259117 -17.1875 157.375 C-16.45789063 157.8994873 -15.72828125 158.42397461 -14.9765625 158.96435547 C-11.429394 161.46713435 -8.16972324 163.64012955 -4 165 C9.76015802 153.80172577 9.76015802 153.80172577 23 142 C23.91072266 141.20335937 23.91072266 141.20335937 24.83984375 140.390625 C47.52155049 119.6119186 51.01386615 85.78484625 54.75 57.1875 C54.94166748 55.74890625 54.94166748 55.74890625 55.13720703 54.28125 C55.93731845 47.82634269 56.14193125 41.50123965 56 35 C54.8140625 34.64808594 53.628125 34.29617187 52.40625 33.93359375 C33.54991153 28.23024223 14.92449628 21.09431266 -0.328125 8.25 C-3.50467008 5.87501303 -5.59063299 7.68139327 -8.8203125 9.30859375 Z " fill="#FBC302" transform="translate(432,56)"/>
<path d="M0 0 C0.495 1.98 0.495 1.98 1 4 C35.32 4 69.64 4 105 4 C105 5.65 105 7.3 105 9 C70.68 9 36.36 9 1 9 C1 15.93 1 22.86 1 30 C42.58 30 84.16 30 127 30 C127 31.65 127 33.3 127 35 C85.42 35 43.84 35 1 35 C1 35.66 1 36.32 1 37 C32.02 37 63.04 37 95 37 C95 49.21 95 61.42 95 74 C87.08 74 79.16 74 71 74 C70.67 74.99 70.34 75.98 70 77 C70 76.01 70 75.02 70 74 C46.9 74 23.8 74 0 74 C0 61.79 0 49.58 0 37 C-30.69 37 -61.38 37 -93 37 C-93 36.67 -93 36.34 -93 36 C-62.31 36 -31.62 36 0 36 C0 24.12 0 12.24 0 0 Z " fill="#E37927" transform="translate(244,310)"/>
<path d="M0 0 C1.33100739 0.00842926 1.33100739 0.00842926 2.68890381 0.01702881 C3.62232605 0.01513046 4.55574829 0.01323212 5.51745605 0.01127625 C8.61375229 0.00756092 11.70981579 0.01828347 14.80609131 0.02947998 C16.95078504 0.03067147 19.09547929 0.03112501 21.24017334 0.03086853 C25.73939267 0.03243471 30.23853258 0.0407346 34.73773193 0.05413818 C40.51514832 0.07112819 46.29247733 0.07495259 52.06991577 0.074193 C56.49986613 0.07446448 60.92979724 0.07994214 65.35974121 0.08719444 C67.49047703 0.09038456 69.62121504 0.09234931 71.75195312 0.09308815 C74.72576639 0.09524808 77.69948563 0.10398484 80.67327881 0.11468506 C81.56061707 0.11423187 82.44795532 0.11377869 83.36218262 0.11331177 C89.45213881 0.14547248 89.45213881 0.14547248 91.68109131 1.25994873 C91.68109131 16.76994873 91.68109131 32.27994873 91.68109131 48.25994873 C58.68109131 48.25994873 25.68109131 48.25994873 -8.31890869 48.25994873 C-8.31890869 0.04320554 -8.31890869 0.04320554 0 0 Z " fill="#FDFDFE" transform="translate(113.31890869140625,261.74005126953125)"/>
<path d="M0 0 C22.62106064 0 45.20228524 0.0515578 67.8125 0.5 C70.38996803 0.54849331 72.96744202 0.59667051 75.54492188 0.64453125 C81.69670761 0.75885473 87.84832012 0.8795054 94 1 C94 12.88 94 24.76 94 37 C89.545 37.20625 85.09 37.4125 80.5 37.625 C79.11103516 37.71604004 77.72207031 37.80708008 76.29101562 37.90087891 C67.38844144 38.09994108 67.38844144 38.09994108 63.46679688 34.99316406 C61.37488208 32.429543 59.66202937 29.85850283 58 27 C57.55333984 26.30600098 57.10667969 25.61200195 56.64648438 24.89697266 C55.52962215 23.12768138 54.50398841 21.33515915 53.5 19.5 C53.15453125 18.89414062 52.8090625 18.28828125 52.453125 17.6640625 C50 13.28348214 50 13.28348214 50 11 C42.31572178 16.84803512 35.11020821 24.82839669 33.19921875 34.609375 C32.71726558 40.39281308 32.86415489 46.20394199 33 52 C25.35931133 51.05464551 19.64595398 47.5309125 14.125 42.25 C11.38500891 38.0594254 9.66462229 33.70558032 8 29 C3.7644786 38.52992315 3.29951263 49.80266827 6.0546875 59.84375 C7.26242495 62.95956969 8.60183146 65.96639796 10 69 C12.25643636 75.14122886 13.32141955 80.33060357 11.0546875 86.625 C8.70027658 91.60035893 6.17827434 95.418622 2 99 C-4.36697588 97.72660482 -8.10155536 93.94267088 -12 89 C-18 78.94491525 -18 78.94491525 -18 74 C-12.06 74 -6.12 74 0 74 C0 49.58 0 25.16 0 0 Z " fill="#FCC400" transform="translate(55,309)"/>
<path d="M0 0 C31.68 0 63.36 0 96 0 C96 12.54 96 25.08 96 38 C64.32 38 32.64 38 0 38 C0 25.46 0 12.92 0 0 Z " fill="#E67825" transform="translate(244,420)"/>
<path d="M0 0 C31.35 0 62.7 0 95 0 C95 12.21 95 24.42 95 37 C76.19900791 37.05648064 57.41266277 36.85323054 38.61541748 36.53643799 C34.92006835 36.47461237 31.224681 36.41515902 27.52929688 36.35546875 C20.3528266 36.23921866 13.17640078 36.12047262 6 36 C6.11317263 34.57334471 6.23943682 33.1477246 6.37109375 31.72265625 C6.43997803 30.92867432 6.5088623 30.13469238 6.57983398 29.31665039 C7.21706063 25.8032026 8.79880177 23.76924939 11 21 C5.555 22.485 5.555 22.485 0 24 C0 16.08 0 8.16 0 0 Z " fill="#FCC400" transform="translate(149,347)"/>
<path d="M0 0 C21.12 0 42.24 0 64 0 C64 12.21 64 24.42 64 37 C47.17 37 30.34 37 13 37 C12.34 33.7 11.68 30.4 11 27 C9.57805882 24.10306014 8.18357888 21.47169621 6.5 18.75 C2.69397002 12.45120278 0 7.58912013 0 0 Z " fill="#E57925" transform="translate(155,383)"/>
<path d="M0 0 C71.28 0 142.56 0 216 0 C216 1.65 216 3.3 216 5 C144.72 5 73.44 5 0 5 C0 3.35 0 1.7 0 0 Z " fill="#F6F7FE" transform="translate(221,286)"/>
<path d="M0 0 C0 0.33 0 0.66 0 1 C-60.06 1 -120.12 1 -182 1 C-182 -0.65 -182 -2.3 -182 -4 C-159.30396827 -4.24744468 -136.60782187 -4.46600474 -113.91118526 -4.65021229 C-103.37265548 -4.7364167 -92.83436945 -4.83205959 -82.29614258 -4.94995117 C-73.11066405 -5.05268552 -63.92522164 -5.13768131 -54.73938662 -5.20140952 C-49.87580936 -5.23577004 -45.01267603 -5.27898923 -40.1493969 -5.34345436 C-35.57024537 -5.40387291 -30.99151281 -5.44053893 -26.41200638 -5.45913696 C-24.73296809 -5.4701161 -23.05396016 -5.48971051 -21.37513542 -5.51865196 C-5.58454802 -5.78191485 -5.58454802 -5.78191485 0 0 Z " fill="#EDF1FE" transform="translate(403,212)"/>
<path d="M0 0 C49.5 0 99 0 150 0 C150 1.65 150 3.3 150 5 C100.5 5 51 5 0 5 C0 3.35 0 1.7 0 0 Z " fill="#EAEEFE" transform="translate(221,263)"/>
<path d="M0 0 C41.91 0 83.82 0 127 0 C127.33 1.65 127.66 3.3 128 5 C85.43 5 42.86 5 -1 5 C-0.67 3.35 -0.34 1.7 0 0 Z " fill="#E9EEFE" transform="translate(221,236)"/>
<path d="M0 0 C41.58 0 83.16 0 126 0 C126 1.65 126 3.3 126 5 C84.42 5 42.84 5 0 5 C0 3.35 0 1.7 0 0 Z " fill="#EDF0FE" transform="translate(245,340)"/>
<path d="M0 0 C34.32 0 68.64 0 104 0 C104 1.65 104 3.3 104 5 C69.68 5 35.36 5 0 5 C0 3.35 0 1.7 0 0 Z " fill="#F5F7FE" transform="translate(245,314)"/>
<path d="M0 0 C0.495 0.99 0.495 0.99 1 2 C0.12646484 4.06518555 0.12646484 4.06518555 -1.2890625 6.63671875 C-1.81258301 7.59602295 -2.33610352 8.55532715 -2.87548828 9.54370117 C-3.45282715 10.58115479 -4.03016602 11.6186084 -4.625 12.6875 C-5.20878418 13.75009033 -5.79256836 14.81268066 -6.39404297 15.9074707 C-20.93280962 42.29083866 -20.93280962 42.29083866 -28 54 C-30.52512813 51.6732445 -32.25951463 49.20231214 -34.06640625 46.2890625 C-34.63423828 45.37382812 -35.20207031 44.45859375 -35.78710938 43.515625 C-36.37298828 42.56171875 -36.95886719 41.6078125 -37.5625 40.625 C-38.15224609 39.67882812 -38.74199219 38.73265625 -39.34960938 37.7578125 C-41.97144775 33.51037467 -44.13359549 29.66601128 -46 25 C-37.585 28.96 -37.585 28.96 -29 33 C-22.08885187 25.6523583 -15.31928271 18.35816235 -9.01171875 10.48828125 C-6.11115982 6.90059962 -3.06888439 3.44386061 0 0 Z " fill="#FCC201" transform="translate(446,114)"/>
<path d="M0 0 C1.47247314 2.53276062 1.47247314 2.53276062 1.47247314 3.53276062 C-28.55752686 3.53276062 -58.58752686 3.53276062 -89.52752686 3.53276062 C-89.52752686 1.88276062 -89.52752686 0.23276062 -89.52752686 -1.46723938 C-78.25367242 -1.71367706 -66.97964953 -1.93295425 -55.70460129 -2.11745167 C-50.46926122 -2.20397538 -45.23444294 -2.29989041 -39.99969482 -2.41719055 C-34.94896573 -2.53002295 -29.89835257 -2.61828703 -24.84687042 -2.68944359 C-22.91857807 -2.72094018 -20.99040999 -2.76132688 -19.06249237 -2.81069374 C-16.36410214 -2.878279 -13.66700132 -2.91438806 -10.96795654 -2.94306946 C-9.76925682 -2.98406013 -9.76925682 -2.98406013 -8.54634094 -3.02587891 C-4.54505398 -3.03423831 -2.91798145 -2.84838071 0 0 Z " fill="#F0F3FE" transform="translate(375.52752685546875,182.4672393798828)"/>
<path d="M0 0 C25.08 0 50.16 0 76 0 C76 1.65 76 3.3 76 5 C50.92 5 25.84 5 0 5 C0 3.35 0 1.7 0 0 Z " fill="#F6F7FE" transform="translate(361,314)"/>
<path d="M0 0 C25.08 0 50.16 0 76 0 C76 1.65 76 3.3 76 5 C50.92 5 25.84 5 0 5 C0 3.35 0 1.7 0 0 Z " fill="#EAEEFE" transform="translate(361,236)"/>
<path d="M0 0 C24.42 0 48.84 0 74 0 C74.495 2.475 74.495 2.475 75 5 C49.92 5 24.84 5 -1 5 C-0.67 3.35 -0.34 1.7 0 0 Z " fill="#F4F6FE" transform="translate(221,154)"/>
<path d="M0 0 C19.47 0 38.94 0 59 0 C59.495 2.475 59.495 2.475 60 5 C39.87 5 19.74 5 -1 5 C-0.67 3.35 -0.34 1.7 0 0 Z " fill="#F5F6FD" transform="translate(303,154)"/>
<path d="M0 0 C17.82 0 35.64 0 54 0 C54.495 2.475 54.495 2.475 55 5 C36.52 5 18.04 5 -1 5 C-0.67 3.35 -0.34 1.7 0 0 Z " fill="#ECF0FE" transform="translate(382,340)"/>
<path d="M0 0 C18.48 0 36.96 0 56 0 C55.67 1.65 55.34 3.3 55 5 C37.18 5 19.36 5 1 5 C0.67 3.35 0.34 1.7 0 0 Z " fill="#E9EEFE" transform="translate(381,263)"/>
<path d="M0 0 C4.79721537 0.83047127 6.65914789 3.90269607 9.4375 7.625 C9.90220703 8.22957031 10.36691406 8.83414063 10.84570312 9.45703125 C11.77896209 10.67794744 12.7026905 11.90620823 13.61669922 13.14160156 C14.55622879 14.4038146 15.51717557 15.6503082 16.49658203 16.88183594 C20.04819455 21.47746305 20.04819455 21.47746305 19.81274414 24.03027344 C18.88067119 26.28919942 17.96052991 27.25537711 16.0859375 28.8046875 C15.19068359 29.55685547 15.19068359 29.55685547 14.27734375 30.32421875 C13.64957031 30.83597656 13.02179688 31.34773438 12.375 31.875 C11.77042969 32.37902344 11.16585937 32.88304687 10.54296875 33.40234375 C9.319649 34.4222116 8.09141512 35.43621318 6.85839844 36.44433594 C5.58764006 37.50808691 4.3415054 38.60176907 3.11816406 39.71972656 C2.51456055 40.26854492 1.91095703 40.81736328 1.2890625 41.3828125 C0.7523291 41.88441895 0.2155957 42.38602539 -0.33740234 42.90283203 C-2 44 -2 44 -6 44 C-5.72132685 40.55293428 -5.2335227 39.23231065 -2.7421875 36.75390625 C-1.79601562 36.03074219 -0.84984375 35.30757812 0.125 34.5625 C1.11371094 33.79164063 2.10242188 33.02078125 3.12109375 32.2265625 C4.07113281 31.49179688 5.02117187 30.75703125 6 30 C8.35702694 28.02573812 10.67646988 26.0137261 13 24 C12.40203086 20.63723733 11.25938396 18.80612185 9.0234375 16.25 C8.14171875 15.21359375 8.14171875 15.21359375 7.2421875 14.15625 C5.994042 12.71487695 4.74140197 11.27738407 3.484375 9.84375 C2.89914063 9.1528125 2.31390625 8.461875 1.7109375 7.75 C1.16743652 7.12609375 0.62393555 6.5021875 0.06396484 5.859375 C-1 4 -1 4 -0.66943359 1.765625 C-0.44852051 1.18296875 -0.22760742 0.6003125 0 0 Z " fill="#F1F3FE" transform="translate(175,149)"/>
<path d="M0 0 C1.32 0.33 2.64 0.66 4 1 C3.39961219 4.34872675 2.25884202 6.21420147 0.05859375 8.78515625 C-0.52470703 9.48060547 -1.10800781 10.17605469 -1.70898438 10.89257812 C-2.94823843 12.34338029 -4.18782372 13.79389958 -5.42773438 15.24414062 C-6.00974609 15.93830078 -6.59175781 16.63246094 -7.19140625 17.34765625 C-7.72967041 17.97679932 -8.26793457 18.60594238 -8.82250977 19.25415039 C-10.2795801 21.06355996 -10.2795801 21.06355996 -10 24 C-7.8201366 26.13371063 -7.8201366 26.13371063 -5 28.25 C-4.00355469 29.04277344 -3.00710937 29.83554688 -1.98046875 30.65234375 C-0.99691406 31.42707031 -0.01335937 32.20179688 1 33 C2.57438466 34.25607983 4.13866465 35.52504799 5.6875 36.8125 C6.33074219 37.33457031 6.97398437 37.85664063 7.63671875 38.39453125 C9 40 9 40 9 44 C4.27490699 43.53342888 2.17561698 41.6913281 -1.1875 38.4375 C-6.24691595 33.65992652 -11.50129729 29.27014223 -17 25 C-16.53263871 20.17647873 -14.45869843 17.77576517 -11.3125 14.1875 C-7.34143903 9.59182571 -3.56084796 4.92149718 0 0 Z " fill="#F1F4FE" transform="translate(130,149)"/>
<path d="M0 0 C3.89062064 3.45599275 7.33866586 7.01599759 9 12 C-1.56 12 -12.12 12 -23 12 C-8.44927536 -2.55072464 -8.44927536 -2.55072464 0 0 Z " fill="#2C56F4" transform="translate(150,298)"/>
<path d="M0 0 C1.32 0 2.64 0 4 0 C4.01417969 1.14855469 4.02835938 2.29710937 4.04296875 3.48046875 C4.27787131 12.54379266 5.0538518 19.87416268 8.84375 28.203125 C10.0608237 31.14712761 10.58996419 33.85017942 11 37 C7.37 37 3.74 37 0 37 C0 24.79 0 12.58 0 0 Z " fill="#E37724" transform="translate(55,347)"/>
<path d="M0 0 C0.99 0.33 1.98 0.66 3 1 C2.26126559 7.32819477 0.75578332 13.39359723 -0.8125 19.5625 C-1.07949707 20.62210938 -1.34649414 21.68171875 -1.62158203 22.7734375 C-3.59825239 30.56125722 -5.69599614 38.30191652 -8 46 C-9.98 46.495 -9.98 46.495 -12 47 C-13.47552835 42.29847178 -12.32942698 38.61223895 -10.9375 34.0625 C-10.47013273 32.47041013 -10.00404842 30.87794324 -9.5390625 29.28515625 C-9.28930664 28.43840332 -9.03955078 27.59165039 -8.78222656 26.71923828 C-7.94849396 23.8209506 -7.1677557 20.91211822 -6.3984375 17.99609375 C-6.13426025 16.99892334 -5.87008301 16.00175293 -5.59790039 14.97436523 C-5.0799174 13.01272808 -4.56598946 11.05001506 -4.05639648 9.08618164 C-3.81735596 8.1914917 -3.57831543 7.29680176 -3.33203125 6.375 C-3.12296143 5.57835937 -2.9138916 4.78171875 -2.69848633 3.9609375 C-2 2 -2 2 0 0 Z " fill="#EFF2FE" transform="translate(160,147)"/>
<path d="M0 0 C3.74225404 1.1566967 5.28964665 1.79776291 7.4375 5.0625 C7.99671637 8.97701456 8.07024809 11.1007229 5.875 14.4375 C2.58257816 16.6324479 0.39580645 17.13194397 -3.5625 17.0625 C-6.5 15.0625 -6.5 15.0625 -8.5625 12.0625 C-9.36035988 7.59448469 -9.07984028 5.81499495 -6.5 2.0625 C-3.5625 0.0625 -3.5625 0.0625 0 0 Z " fill="#2C58FB" transform="translate(170.5625,276.9375)"/>
<path d="M0 0 C13.2 0 26.4 0 40 0 C40.495 2.475 40.495 2.475 41 5 C27.47 5 13.94 5 0 5 C0 3.35 0 1.7 0 0 Z " fill="#EEF2FE" transform="translate(221,181)"/>
<path d="M0 0 C3.42184945 3.61738371 6 6.94610715 6 12 C-1.26 12 -8.52 12 -16 12 C-14.27330056 7.6832514 -13.61563806 6.2336195 -10.5 3.25 C-9.8915625 2.65703125 -9.283125 2.0640625 -8.65625 1.453125 C-5.5642333 -1.25968211 -3.87166222 -1.29055407 0 0 Z " fill="#2E57F6" transform="translate(190,298)"/>
<path d="M0 0 C6.6 0 13.2 0 20 0 C20.495 6.93 20.495 6.93 21 14 C13.33891053 12.72315176 6.9839979 9.71349753 1.875 3.6875 C0 1 0 1 0 0 Z " fill="#E37625" transform="translate(67,347)"/>
<path d="M0 0 C1 2 1 2 0 6 C-31.02 6 -62.04 6 -94 6 C-94 5.67 -94 5.34 -94 5 C-92.96984772 4.99635437 -91.93969543 4.99270874 -90.87832642 4.98895264 C-81.13916743 4.9519068 -71.40032182 4.8940298 -61.66140175 4.81609726 C-56.65527722 4.77669767 -51.64932662 4.7444724 -46.64306641 4.72900391 C-41.80583389 4.7137877 -36.96907977 4.67925449 -32.132061 4.63169098 C-30.29266915 4.61692822 -28.45320898 4.60896193 -26.61375809 4.60811615 C-12.81931549 4.71058838 -12.81931549 4.71058838 0 0 Z " fill="#FF6532" transform="translate(149,452)"/>
<path d="M0 0 C2.5625 0.1875 2.5625 0.1875 4.5625 2.1875 C4.00694444 6.74305556 4.00694444 6.74305556 2.5625 8.1875 C0.125 8.375 0.125 8.375 -2.4375 8.1875 C-3.0975 7.5275 -3.7575 6.8675 -4.4375 6.1875 C-3.71780303 0.28598485 -3.71780303 0.28598485 0 0 Z " fill="#F4F6FE" transform="translate(152.4375,110.8125)"/>
<path d="M0 0 C3 0.125 3 0.125 4 1.125 C4.125 4.125 4.125 4.125 4 7.125 C3 8.125 3 8.125 0 8.25 C-3 8.125 -3 8.125 -4 7.125 C-4.125 4.125 -4.125 4.125 -4 1.125 C-3 0.125 -3 0.125 0 0 Z " fill="#F2F5FE" transform="translate(133,110.875)"/>
<path d="M0 0 C2.5625 0.1875 2.5625 0.1875 4.5625 2.1875 C4.00694444 6.74305556 4.00694444 6.74305556 2.5625 8.1875 C0.125 8.375 0.125 8.375 -2.4375 8.1875 C-3.0975 7.5275 -3.7575 6.8675 -4.4375 6.1875 C-3.71780303 0.28598485 -3.71780303 0.28598485 0 0 Z " fill="#F4F6FE" transform="translate(113.4375,110.8125)"/>
<path d="M0 0 C0.33 0.66 0.66 1.32 1 2 C0.67 2.99 0.34 3.98 0 5 C-3.3 5 -6.6 5 -10 5 C-6.7321794 2.82145293 -3.61941735 1.50239966 0 0 Z " fill="#D96F26" transform="translate(149,452)"/>
<path d="M0 0 C0.33 0.66 0.66 1.32 1 2 C-2.0096463 8.48231511 -2.0096463 8.48231511 -5.75 10.4375 C-6.86375 10.7159375 -6.86375 10.7159375 -8 11 C-6.63629701 8.00779732 -5.05091917 5.70973471 -2.875 3.25 C-2.33617187 2.63640625 -1.79734375 2.0228125 -1.2421875 1.390625 C-0.62730469 0.70226562 -0.62730469 0.70226562 0 0 Z " fill="#F8B706" transform="translate(446,114)"/>
</svg>
