<?xml version="1.0" encoding="UTF-8"?>
<svg version="1.1" xmlns="http://www.w3.org/2000/svg" width="512" height="512">
<path d="M0 0 C1.216875 -0.00386719 2.43375 -0.00773438 3.6875 -0.01171875 C5.5746875 0.00568359 5.5746875 0.00568359 7.5 0.0234375 C8.758125 0.01183594 10.01625 0.00023437 11.3125 -0.01171875 C12.529375 -0.00785156 13.74625 -0.00398437 15 0 C16.65515625 0.00507568 16.65515625 0.00507568 18.34375 0.01025391 C23.31369548 0.62150184 26.53209214 2.31835489 29.859375 6.03125 C31.951439 10.3249623 31.95682212 13.5801664 31.75 18.2734375 C31.73195313 19.0571875 31.71390625 19.8409375 31.6953125 20.6484375 C31.64855148 22.56563939 31.57682003 24.48220465 31.5 26.3984375 C35.88817559 26.8103188 35.88817559 26.8103188 39.625 24.75390625 C40.24375 24.03847656 40.8625 23.32304688 41.5 22.5859375 C45.6540974 18.13230367 48.81633329 15.73389584 55 14.9609375 C62.80070969 15.93602621 67.96692231 22.56098851 73.25 27.8984375 C74.01699219 28.65769531 74.78398437 29.41695312 75.57421875 30.19921875 C76.30769531 30.93527344 77.04117187 31.67132813 77.796875 32.4296875 C78.46041992 33.09548828 79.12396484 33.76128906 79.80761719 34.44726562 C83.77593443 39.02239421 83.87206666 42.53838765 83.5 48.3984375 C82.84 49.3884375 82.18 50.3784375 81.5 51.3984375 C82.4513382 51.40430374 83.40267639 51.41016998 84.38284302 51.41621399 C93.35798681 51.47348183 102.33288925 51.54626467 111.30778694 51.63415241 C115.92164481 51.67883782 120.53541474 51.71809797 125.14941406 51.74487305 C129.60403293 51.77092429 134.0583131 51.81133956 138.51272202 51.86162376 C140.21028295 51.87828017 141.90790245 51.88980209 143.6055336 51.89605141 C145.98754444 51.90570599 148.36869122 51.93378036 150.75048828 51.96606445 C151.44892349 51.96462936 152.1473587 51.96319427 152.86695862 51.9617157 C158.12377553 52.06216828 162.25558306 53.30329294 166.14453125 56.93359375 C169.38888889 61.17621528 169.38888889 61.17621528 170.5 63.3984375 C172.65792469 63.71530079 172.65792469 63.71530079 175.1875 63.7734375 C179.96332521 64.16288247 182.81180362 65.17126567 186.5 68.3984375 C188.47844237 71.53118236 188.73800562 73.92995432 188.6953125 77.6015625 C188.68886719 78.58125 188.68242187 79.5609375 188.67578125 80.5703125 C188.65902344 81.58609375 188.64226562 82.601875 188.625 83.6484375 C188.61597656 84.6796875 188.60695313 85.7109375 188.59765625 86.7734375 C188.57412011 89.31534037 188.54124023 91.8567703 188.5 94.3984375 C189.88336548 94.37487183 189.88336548 94.37487183 191.29467773 94.35083008 C194.75567381 94.29933557 198.2162557 94.2619114 201.67749023 94.23364258 C203.16811598 94.21866708 204.65869851 94.19827931 206.14916992 94.17211914 C216.98930583 93.98678661 226.63847276 93.92347474 234.99609375 101.71875 C239.61824027 106.88114741 241.61947119 112.31438432 241.63422108 119.17588329 C241.63867892 120.13971438 241.64313676 121.10354546 241.64772969 122.09658355 C241.64745315 123.68075047 241.64745315 123.68075047 241.64717102 125.29692078 C241.65084771 126.42104883 241.6545244 127.54517689 241.6583125 128.70336944 C241.66935823 132.48413564 241.67319469 136.26487437 241.67700195 140.0456543 C241.68273386 142.75082128 241.6898998 145.45598415 241.69691467 148.16114807 C241.71666538 156.28862232 241.72674324 164.41609779 241.73564246 172.54359004 C241.74002739 176.3723054 241.74539365 180.20101938 241.75063133 184.02973366 C241.76764174 196.75930208 241.78213576 209.48886965 241.78938007 222.21844769 C241.79128992 225.52087594 241.79321026 228.82330419 241.79516602 232.12573242 C241.79564976 232.9465193 241.7961335 233.76730618 241.7966319 234.61296538 C241.80493171 247.90831901 241.83026864 261.20358265 241.86274669 274.49889698 C241.89582897 288.15300872 241.91382986 301.80707474 241.91702431 315.46122676 C241.91918826 323.1258924 241.92792005 330.79042678 241.95348549 338.45505333 C241.97520843 344.98269267 241.9832351 351.51016888 241.97351871 358.03784027 C241.96897853 361.3666993 241.97303146 364.69494934 241.99028015 368.02380753 C242.00795784 371.63783405 242.00091198 375.25100901 241.98774719 378.86503601 C242.00420106 380.43247253 242.00420106 380.43247253 242.02098733 382.03157443 C241.9530658 389.76392768 240.39180457 395.95456115 235.3515625 401.95703125 C234.61679687 402.57707031 233.88203125 403.19710938 233.125 403.8359375 C232.39539063 404.47402344 231.66578125 405.11210937 230.9140625 405.76953125 C225.99966076 409.08555961 221.30921283 409.64777065 215.47647095 409.63894653 C214.45197659 409.64150981 214.45197659 409.64150981 213.40678537 409.64412487 C211.13127036 409.64740412 208.85605399 409.63644218 206.58056641 409.62548828 C204.94423428 409.62492383 203.30790165 409.62524139 201.67156982 409.62637329 C197.23813767 409.62694647 192.80481401 409.61519772 188.37140703 409.60122538 C183.73494551 409.58871229 179.09848142 409.58754706 174.46200562 409.58517456 C165.68610478 409.5789615 156.91025385 409.56255301 148.13437498 409.54247558 C138.1416881 409.5201112 128.14899883 409.50912179 118.15629315 409.49908471 C97.60416141 409.47818664 77.05209806 409.44151255 56.5 409.3984375 C56.5 424.5784375 56.5 439.7584375 56.5 455.3984375 C60.61726563 455.35203125 64.73453125 455.305625 68.9765625 455.2578125 C72.26953141 455.23206967 75.5624717 455.2103853 78.85548401 455.19143677 C82.32622632 455.17035616 85.79657482 455.14220943 89.26708984 455.09667969 C93.25353159 455.04471165 97.23981525 455.02545617 101.2265625 455.0078125 C102.46427399 454.98716736 103.70198547 454.96652222 104.97720337 454.94525146 C112.76253229 454.94322507 116.53379349 455.54528201 122.14453125 460.99609375 C126.29044419 466.19581733 126.91253923 470.03848063 126.84375 476.5390625 C126.12278539 482.53617719 123.04810172 486.16627491 118.4375 489.8359375 C113.36996902 492.5314327 108.82931756 492.54506441 103.16960144 492.53887939 C102.32174381 492.54185052 101.47388618 492.54482164 100.6003359 492.5478828 C97.75462478 492.5565658 94.90895574 492.55807771 92.06323242 492.55957031 C90.0247641 492.56419874 87.98629665 492.56922343 85.9478302 492.57461548 C80.4064518 492.58773843 74.86508551 492.59418415 69.32369399 492.59862614 C65.86219542 492.6015568 62.40070016 492.60566159 58.93920326 492.61013031 C48.11044714 492.62380447 37.2816986 492.63347174 26.45293444 492.6373322 C13.94979482 492.64181401 1.44676445 492.65936802 -11.05634195 492.6883328 C-20.71929932 492.70994167 -30.38222592 492.72003605 -40.0452072 492.72137332 C-45.81731375 492.72242184 -51.58931757 492.72833984 -57.3613987 492.74619293 C-62.79096031 492.76265998 -68.22034183 492.76483569 -73.64991951 492.75605392 C-75.64172091 492.75528284 -77.63353193 492.75963561 -79.62530899 492.76951218 C-82.34663747 492.78221407 -85.06732639 492.77636441 -87.78865051 492.76593018 C-88.57484939 492.77398658 -89.36104827 492.78204298 -90.17107135 492.79034352 C-97.42791989 492.72537014 -103.18934523 490.56157409 -108.5 485.3984375 C-112.24016838 480.11061324 -112.16205185 474.63664437 -111.5 468.3984375 C-109.72766847 462.87293333 -106.05001893 459.76435512 -101.5 456.3984375 C-98.86284904 455.07986202 -96.9016736 455.27852046 -93.94873047 455.28491211 C-92.78767792 455.28498764 -91.62662537 455.28506317 -90.4303894 455.28514099 C-89.17203278 455.29030228 -87.91367615 455.29546356 -86.6171875 455.30078125 C-85.33264679 455.3021962 -84.04810608 455.30361115 -82.72463989 455.30506897 C-79.30843158 455.30888839 -75.89226574 455.31871377 -72.47607422 455.32977295 C-68.99056585 455.33999943 -65.50505041 455.344624 -62.01953125 455.34960938 C-55.17964998 455.35980598 -48.33988536 455.379379 -41.5 455.3984375 C-41.5 440.2184375 -41.5 425.0384375 -41.5 409.3984375 C-48.98010742 409.42200317 -48.98010742 409.42200317 -56.61132812 409.44604492 C-73.07974589 409.49573406 -89.54816659 409.52903666 -106.01663971 409.55387402 C-116.00234298 409.56933489 -125.98797517 409.59040955 -135.97363281 409.62475586 C-144.67836286 409.65468203 -153.38304142 409.67401817 -162.08782148 409.68070298 C-166.69582462 409.68460978 -171.30368047 409.69377512 -175.91163635 409.71562767 C-180.25197855 409.73604365 -184.59211328 409.74226098 -188.93249893 409.73776054 C-190.52235671 409.73858346 -192.11222167 409.74451864 -193.70203781 409.75605392 C-210.49677651 409.87189841 -210.49677651 409.87189841 -217.671875 404.890625 C-218.19265625 404.35695313 -218.7134375 403.82328125 -219.25 403.2734375 C-220.04664063 402.49613281 -220.04664063 402.49613281 -220.859375 401.703125 C-226.04314679 394.42115986 -227.08218304 387.67874675 -227.00120544 378.89195251 C-227.00673984 377.76284677 -227.01227424 376.63374102 -227.01797634 375.47041994 C-227.03154449 371.70262814 -227.01663363 367.93550312 -227.00170898 364.16772461 C-227.00328613 361.46018868 -227.01084253 358.75267667 -227.01808167 356.04515076 C-227.03198525 349.46427941 -227.02447959 342.88360048 -227.00940608 336.30273836 C-226.99251154 328.63380166 -226.99576055 320.96491244 -226.99950016 313.29596288 C-227.00537336 299.61027434 -226.99122789 285.92467793 -226.96655273 272.23901367 C-226.94262885 258.96847074 -226.93555099 245.69805086 -226.94604492 232.42749023 C-226.95746145 217.964377 -226.95937548 203.50132062 -226.94494683 189.03820807 C-226.94342104 187.49521959 -226.94190068 185.95223111 -226.94038582 184.40924263 C-226.939628 183.65012878 -226.93887019 182.89101494 -226.93808941 182.10889764 C-226.93335263 176.76701158 -226.93519369 171.42515097 -226.93945122 166.0832653 C-226.94438445 159.57145174 -226.93836416 153.05975437 -226.91855692 146.54796737 C-226.90870444 143.22740431 -226.90517285 139.90716512 -226.91144943 136.58657074 C-226.91740585 132.98350451 -226.90488929 129.38095825 -226.88768005 125.77793884 C-226.8936901 124.73347892 -226.89970014 123.689019 -226.90589231 122.61290878 C-226.8317893 114.08050762 -225.12934045 107.36358991 -219.24609375 100.9375 C-213.00698873 95.43815464 -206.18310548 94.26874264 -198.109375 94.30078125 C-197.05245453 94.30290367 -197.05245453 94.30290367 -195.97418213 94.30506897 C-193.73274416 94.31064817 -191.49140757 94.32319677 -189.25 94.3359375 C-187.72656395 94.34095519 -186.20312632 94.34551763 -184.6796875 94.34960938 C-180.95309228 94.36061076 -177.22655604 94.37786104 -173.5 94.3984375 C-173.52094727 93.76341309 -173.54189453 93.12838867 -173.56347656 92.47412109 C-173.64704581 89.57405674 -173.69878774 86.67424634 -173.75 83.7734375 C-173.78351563 82.77441406 -173.81703125 81.77539062 -173.8515625 80.74609375 C-173.93023265 74.80649748 -173.732268 70.97106272 -169.5 66.3984375 C-166.52156994 64.30873254 -164.0801676 64.21392837 -160.5 64.1484375 C-157.86934254 64.00136324 -157.86934254 64.00136324 -155.5 63.3984375 C-153.08967433 60.65795891 -153.08967433 60.65795891 -151.5 57.3984375 C-146.47173763 52.86073732 -142.66583193 52.24647071 -136.09106445 52.19311523 C-135.33960144 52.18321564 -134.58813843 52.17331604 -133.81390381 52.16311646 C-131.33039499 52.13153254 -128.84686704 52.10675634 -126.36328125 52.08203125 C-124.64120487 52.06145904 -122.9191335 52.04046249 -121.19706726 52.01905823 C-116.66466334 51.96386516 -112.13221406 51.91444368 -107.59973145 51.86621094 C-102.97464969 51.81597574 -98.3496338 51.76030021 -93.72460938 51.70507812 C-84.64979586 51.59753037 -75.57492514 51.49607786 -66.5 51.3984375 C-67.16 50.4084375 -67.82 49.4184375 -68.5 48.3984375 C-69.09994189 42.29902828 -68.39988957 39.2087519 -64.5 34.3984375 C-61.75797522 31.3872547 -58.89402821 28.51298494 -56 25.6484375 C-55.24074219 24.88144531 -54.48148438 24.11445312 -53.69921875 23.32421875 C-52.96316406 22.59074219 -52.22710937 21.85726563 -51.46875 21.1015625 C-50.80294922 20.43801758 -50.13714844 19.77447266 -49.45117188 19.09082031 C-46.39729978 16.44199131 -44.21391301 15.47925784 -40.1875 15.0234375 C-32.90776296 15.76374974 -28.89213374 19.64119147 -24.37109375 25.0078125 C-21.74135452 26.96227423 -19.68695353 26.63086609 -16.5 26.3984375 C-16.54640625 25.24085937 -16.5928125 24.08328125 -16.640625 22.890625 C-16.67816248 21.35158844 -16.71456051 19.8125238 -16.75 18.2734375 C-16.78351563 17.51289063 -16.81703125 16.75234375 -16.8515625 15.96875 C-16.94350945 10.63582663 -16.19642909 7.52326069 -12.5 3.3984375 C-8.19341346 0.82246358 -4.99437384 0.01531569 0 0 Z " fill="#3863CC" transform="translate(248.5,9.6015625)"/>
<path d="M0 0 C1.57043101 0.01330874 3.14079971 0.03717648 4.7109375 0.0703125 C5.51273438 0.07933594 6.31453125 0.08835938 7.140625 0.09765625 C9.12252273 0.12125027 11.10426731 0.15712185 13.0859375 0.1953125 C13.08740406 1.05560877 13.08887062 1.91590504 13.09038162 2.80227089 C13.12743168 23.73423827 13.18642251 44.6660435 13.26984024 65.59787941 C13.30965124 75.72036633 13.34203327 85.84277527 13.35693359 95.96533203 C13.36993942 104.78805903 13.39687673 113.6106146 13.44055057 122.43324506 C13.46318944 127.10488638 13.47884673 131.77631608 13.47782135 136.44801712 C13.47707617 140.84594917 13.49496966 145.24341299 13.52710533 149.64122391 C13.53561806 151.25446436 13.53734493 152.86775726 13.53174019 154.48101044 C13.52509902 156.68650527 13.54302078 158.89051081 13.56695557 161.09585571 C13.57064274 162.32921473 13.57432991 163.56257374 13.57812881 164.83330727 C14.18874891 168.87598717 15.54086903 171.02879289 18.0859375 174.1953125 C21.52761819 176.4897663 22.77833732 176.44642553 26.82910728 176.44978809 C28.03376841 176.45562029 29.23842953 176.46145248 30.47959554 176.46746141 C31.82326074 176.46382789 33.16692543 176.4600035 34.5105896 176.45600891 C35.93267347 176.45902773 37.35475573 176.46291585 38.77683508 176.46760148 C42.69397474 176.47792511 46.61102331 176.47568861 50.52817059 176.47142088 C54.74912197 176.46896153 58.97005098 176.47795799 63.19099426 176.48545837 C71.4640861 176.49822973 79.73714551 176.49999602 88.01024555 176.49765811 C94.73305704 176.49587741 101.45585866 176.49761925 108.17866898 176.50188255 C109.13431852 176.50247774 110.08996806 176.50307293 111.07457668 176.50368616 C113.01578843 176.50489787 114.95700017 176.506112 116.89821191 176.50732853 C135.11712592 176.51821358 153.33602143 176.51603709 171.55493648 176.50994369 C188.23179625 176.50477435 204.9085976 176.5160287 221.58544581 176.53504191 C238.69734825 176.55440197 255.80922303 176.56267948 272.9211365 176.55891865 C282.53290708 176.55700373 292.14462795 176.55952234 301.75638962 176.57363319 C309.93946889 176.58552471 318.12246785 176.58697706 326.30554818 176.57484303 C330.48234026 176.56893845 334.6589853 176.56789826 338.83576775 176.57984543 C342.65774436 176.59065084 346.47945019 176.58766506 350.30141385 176.57358374 C351.68565685 176.57092198 353.06992071 176.57334947 354.45414333 176.58131961 C356.33310081 176.59138923 358.2121343 176.58123445 360.09108543 176.57004261 C361.13558873 176.57009763 362.18009202 176.57015264 363.25624692 176.57020932 C367.56145396 175.99982595 370.19415105 174.31843942 372.87351704 170.94401264 C374.38052233 167.52745395 374.47072257 164.94986979 374.48466492 161.21611023 C374.49131174 160.52580131 374.49795857 159.83549239 374.50480682 159.12426502 C374.52341575 156.8179624 374.52083305 154.51217954 374.51831055 152.20581055 C374.52732902 150.54991423 374.53765645 148.8940246 374.54919434 147.23814392 C374.57678049 142.74683009 374.58605105 138.25564287 374.59204841 133.76425529 C374.60142786 129.0690075 374.62763091 124.37385445 374.65205383 119.67866516 C374.69573431 110.78944266 374.72427178 101.90023852 374.74737722 93.01094133 C374.77442057 82.89004449 374.81833263 72.76924288 374.86366594 62.64841402 C374.9565344 41.83076473 375.02820508 21.01308693 375.0859375 0.1953125 C377.87785955 0.14150672 380.6687516 0.10173581 383.4609375 0.0703125 C384.255 0.05355469 385.0490625 0.03679687 385.8671875 0.01953125 C387.94085765 0.00195777 390.01476991 0.09196082 392.0859375 0.1953125 C394.4575609 2.5669359 394.33620096 3.01337886 394.33761978 6.23084259 C394.34283528 7.08005641 394.34805077 7.92927024 394.35342431 8.80421782 C394.34896287 9.74252833 394.34450142 10.68083884 394.33990479 11.64758301 C394.34302477 12.64018395 394.34614475 13.63278489 394.34935927 14.65546465 C394.35737731 18.00279091 394.35100084 21.3499378 394.34472656 24.69726562 C394.34743474 27.08837491 394.35099468 29.47948335 394.35534668 31.87059021 C394.36354237 37.7037206 394.36231141 43.5368039 394.3565214 49.36993301 C394.35201133 54.10909884 394.35138916 58.84825024 394.35356903 63.5874176 C394.3538755 64.26098196 394.35418196 64.93454631 394.35449772 65.62852171 C394.35513714 66.99669819 394.35578557 68.36487466 394.3564429 69.73305112 C394.36215099 82.57347576 394.35558081 95.41387187 394.34484217 108.25429183 C394.33590622 119.28070754 394.33745812 130.30708114 394.34667969 141.33349609 C394.35737388 154.12682715 394.36160162 166.92013318 394.35545516 179.71346807 C394.35481804 181.07671451 394.3541893 182.43996095 394.35356903 183.8032074 C394.35326048 184.47401479 394.35295193 185.14482219 394.35263403 185.83595708 C394.35090453 190.57143536 394.35382766 195.30689782 394.35852814 200.04237366 C394.36471114 206.41164952 394.36033218 212.78086439 394.34873962 219.15013313 C394.34608501 221.49395172 394.34687167 223.83777697 394.35126495 226.18159294 C394.35669034 229.36883475 394.34992299 232.55581695 394.33990479 235.74304199 C394.34436623 236.68135251 394.34882767 237.61966302 394.35342431 238.58640718 C394.34820882 239.43562101 394.34299332 240.28483483 394.33761978 241.15978241 C394.33729508 241.89611515 394.33697037 242.63244788 394.33663583 243.39109373 C394.0859375 245.1953125 394.0859375 245.1953125 392.0859375 247.1953125 C389.29196489 247.44370949 389.29196489 247.44370949 385.63974571 247.44140816 C384.63085765 247.44486969 384.63085765 247.44486969 383.60158801 247.44840115 C381.32555257 247.45373648 379.04979453 247.44468809 376.77377319 247.43582153 C375.13450066 247.43669288 373.4952284 247.43844255 371.85595763 247.44099987 C367.33401621 247.44549135 362.81216877 247.43744512 358.29023933 247.42744374 C353.42042662 247.41883735 348.55061956 247.4217274 343.68080139 247.42324829 C335.23775341 247.42429893 326.79473624 247.41800369 318.35169601 247.40677261 C306.14435755 247.39054474 293.93703406 247.38531239 281.72968598 247.38279663 C261.92590199 247.37841526 242.12213444 247.36509418 222.31835938 247.34619141 C203.07649824 247.32784404 183.83464155 247.31368195 164.59277344 247.30517578 C162.81480574 247.30438761 162.81480574 247.30438761 161.00091951 247.30358352 C155.05478451 247.30097351 149.10864949 247.29844608 143.16251445 247.29595971 C93.8036441 247.27521344 44.4447916 247.2399759 -4.9140625 247.1953125 C-6.05100134 244.92143483 -6.04028153 243.68461518 -6.04269695 241.15978241 C-6.0459214 240.31056859 -6.04914585 239.46135476 -6.052468 238.58640718 C-6.0509194 237.64809667 -6.0493708 236.70978616 -6.04777527 235.74304199 C-6.05004083 234.75044105 -6.05230638 233.75784011 -6.05464059 232.73516035 C-6.06100304 229.38788174 -6.0601498 226.04064339 -6.05932617 222.69335938 C-6.06231623 220.30225064 -6.0657184 217.9111424 -6.06950378 215.52003479 C-6.07744145 209.68691878 -6.08055907 203.8538123 -6.08111616 198.02069199 C-6.08159078 193.28152899 -6.08364281 188.54236934 -6.08681679 183.8032074 C-6.09562558 170.37813392 -6.10023573 156.95306845 -6.09948631 143.52799207 C-6.09944636 142.8038084 -6.0994064 142.07962473 -6.09936523 141.33349609 C-6.09932435 140.60843233 -6.09928347 139.88336856 -6.09924135 139.13633317 C-6.09883467 127.37841934 -6.10840934 115.6205375 -6.1225036 103.86263293 C-6.13684857 91.80080531 -6.14377485 79.7389933 -6.14290982 67.67715693 C-6.14257724 60.90084133 -6.14535136 54.12455928 -6.15608788 47.34825134 C-6.16611453 40.97898202 -6.16587683 34.60976538 -6.15857124 28.24049187 C-6.15752025 25.89667088 -6.1599185 23.55284557 -6.1659317 21.20903206 C-6.17358214 18.02179711 -6.16905332 14.83481208 -6.16130066 11.64758301 C-6.16644422 10.70927249 -6.17158779 9.77096198 -6.17688721 8.80421782 C-6.17228842 7.95500399 -6.16768962 7.10579017 -6.16295147 6.23084259 C-6.16316884 5.49450985 -6.16338621 4.75817712 -6.16361016 3.99953127 C-5.61661821 0.04480314 -3.65883533 0.18257661 0 0 Z " fill="#6ADCDC" transform="translate(61.9140625,137.8046875)"/>
<path d="M0 0 C26.07 0 52.14 0 79 0 C80.2077558 3.62326739 79.54311128 4.64146369 78 8 C76.13794922 8.03867188 76.13794922 8.03867188 74.23828125 8.078125 C72.59631972 8.13442082 70.954394 8.19176783 69.3125 8.25 C68.08756836 8.27126953 68.08756836 8.27126953 66.83789062 8.29296875 C61.66946111 8.50221691 58.73299753 9.08292961 55 13 C52.75964876 17.48070248 53.7314265 23.56552613 53.70483398 28.5480957 C53.68764349 30.79375573 53.64376 33.03793433 53.59960938 35.28320312 C53.58947999 36.71613503 53.58096465 38.14907943 53.57421875 39.58203125 C53.55963623 40.88374268 53.54505371 42.1854541 53.5300293 43.52661133 C54.07432357 47.54929945 55.16105796 49.16039736 58 52 C60.23647631 53.11823815 61.64891529 53.19396061 64.1328125 53.31640625 C64.93847656 53.35830078 65.74414062 53.40019531 66.57421875 53.44335938 C67.41597656 53.48267578 68.25773437 53.52199219 69.125 53.5625 C70.39923828 53.62727539 70.39923828 53.62727539 71.69921875 53.69335938 C73.79928223 53.79954236 75.89961948 53.90028497 78 54 C78.66 56.31 79.32 58.62 80 61 C79.45730469 61.53109375 78.91460937 62.0621875 78.35546875 62.609375 C77.64003906 63.31578125 76.92460937 64.0221875 76.1875 64.75 C75.47980469 65.44609375 74.77210938 66.1421875 74.04296875 66.859375 C70.65587914 70.40837138 68.55149284 72.71193171 68.375 77.75 C68.62494413 84.10968956 71.55356834 86.77733357 76 91 C77.07680551 92.10168109 78.14940084 93.20748619 79.21875 94.31640625 C80.37380025 95.50377245 81.53005804 96.68996512 82.6875 97.875 C83.24590576 98.44710205 83.80431152 99.0192041 84.37963867 99.60864258 C88.38103964 103.61363493 90.86462009 105.96441033 96.75 106.0625 C102.12154581 105.24073366 105.31025202 101.73872694 109 98 C109.825 97.195625 110.65 96.39125 111.5 95.5625 C111.995 95.046875 112.49 94.53125 113 94 C115.31 94.66 117.62 95.32 120 96 C120.02578125 97.24136719 120.0515625 98.48273438 120.078125 99.76171875 C120.13442082 101.40368028 120.19176783 103.045606 120.25 104.6875 C120.26417969 105.50412109 120.27835937 106.32074219 120.29296875 107.16210938 C120.50221691 112.33053889 121.08292961 115.26700247 125 119 C129.21637021 121.10818511 134.30223824 120.60851985 139 121 C139 152.02 139 183.04 139 215 C137.35 214.67 135.7 214.34 134 214 C132.10560511 213.90299488 130.2084053 213.85422571 128.31156921 213.84178162 C126.61353543 213.82712058 126.61353543 213.82712058 124.88119793 213.81216335 C123.02514289 213.80350797 123.02514289 213.80350797 121.1315918 213.79467773 C119.78933061 213.78495593 118.44707244 213.77481011 117.10481739 213.76427555 C113.51665684 213.73728127 109.92848412 213.71607562 106.34027863 213.69608307 C102.97084686 213.67642836 99.60145551 213.65153439 96.23205566 213.6270752 C86.38390556 213.55862917 76.53569857 213.49857534 66.6875 213.4375 C33.6771875 213.2209375 33.6771875 213.2209375 0 213 C0 142.71 0 72.42 0 0 Z " fill="#DFEAFB" transform="translate(113,70)"/>
<path d="M0 0 C26.07 0 52.14 0 79 0 C79 70.29 79 140.58 79 213 C12.3125 213.4375 12.3125 213.4375 -8.7487793 213.56811523 C-14.97575071 213.61136564 -14.97575071 213.61136564 -21.20271301 213.65589905 C-23.97749682 213.67512755 -26.75225012 213.69280673 -29.52705383 213.70826721 C-33.06718233 213.72808061 -36.60725055 213.75252204 -40.14732516 213.78030598 C-42.05859545 213.79414903 -43.96989829 213.80325035 -45.88119793 213.81216335 C-47.01322045 213.82193738 -48.14524298 213.83171141 -49.31156921 213.84178162 C-50.29512233 213.84823417 -51.27867544 213.85468672 -52.2920332 213.8613348 C-55.40558143 213.95483149 -55.40558143 213.95483149 -60 215 C-60 183.98 -60 152.96 -60 121 C-54.06 120.505 -54.06 120.505 -48 120 C-43.79207171 117.64356016 -42.45597162 115.49747166 -41 111 C-40.71132208 108.37194158 -40.49595962 105.82089169 -40.375 103.1875 C-40.33632813 102.49462891 -40.29765625 101.80175781 -40.2578125 101.08789062 C-40.16426432 99.39232985 -40.08107636 97.69620288 -40 96 C-37.03 95.01 -37.03 95.01 -34 94 C-33.38511719 94.62648438 -32.77023437 95.25296875 -32.13671875 95.8984375 C-31.32847656 96.71570313 -30.52023437 97.53296875 -29.6875 98.375 C-28.88699219 99.18710938 -28.08648437 99.99921875 -27.26171875 100.8359375 C-23.98824186 103.96807256 -21.80063563 105.3440821 -17.3125 105.5625 C-10.88923582 105.37739152 -8.25973816 102.49235185 -4 98 C-2.88638169 96.90002062 -1.76887438 95.8039707 -0.6484375 94.7109375 C7.1336138 87.86991671 7.1336138 87.86991671 10.75 78.625 C10.78711888 72.27767164 7.11018079 69.03095935 2.91308594 64.76025391 C1.62541706 63.48969275 0.31491707 62.24234048 -1 61 C-0.34 59.02 0.32 57.04 1 55 C2.08539063 54.97421875 3.17078125 54.9484375 4.2890625 54.921875 C5.73441349 54.86556262 7.17972444 54.808216 8.625 54.75 C9.33785156 54.73582031 10.05070312 54.72164062 10.78515625 54.70703125 C15.90389444 54.47222675 18.92992803 53.34894811 23 50 C26.2938715 45.05919275 25.37187315 39.16342591 25.37060547 33.37646484 C25.37497166 31.13952098 25.41127697 28.90456262 25.44921875 26.66796875 C25.45508877 25.23959005 25.45905693 23.81120202 25.4609375 22.3828125 C25.46915527 21.08746582 25.47737305 19.79211914 25.48583984 18.45751953 C24.92329948 14.45415438 23.82491199 12.83149227 21 10 C18.76352369 8.88176185 17.35108471 8.80603939 14.8671875 8.68359375 C14.06152344 8.64169922 13.25585938 8.59980469 12.42578125 8.55664062 C11.58402344 8.51732422 10.74226563 8.47800781 9.875 8.4375 C9.02550781 8.39431641 8.17601562 8.35113281 7.30078125 8.30664062 C5.20071777 8.20045764 3.10038052 8.09971503 1 8 C0.34 5.69 -0.32 3.38 -1 1 C-0.67 0.67 -0.34 0.34 0 0 Z " fill="#DFEAFB" transform="translate(320,70)"/>
<path d="M0 0 C0.74476089 0.00707474 1.48952179 0.01414948 2.2568512 0.0214386 C4.61110431 0.04919391 6.9628852 0.11188584 9.31640625 0.17578125 C10.92249143 0.20088899 12.52861429 0.22369781 14.13476562 0.24414062 C18.05117309 0.29468796 21.96230839 0.39254692 25.87890625 0.48828125 C25.87890625 6.09828125 25.87890625 11.70828125 25.87890625 17.48828125 C24.57695313 17.50246094 23.275 17.51664063 21.93359375 17.53125 C20.20699659 17.5781684 18.48043518 17.62641569 16.75390625 17.67578125 C15.47 17.68448242 15.47 17.68448242 14.16015625 17.69335938 C8.01324408 17.9061371 5.14041605 19.00212317 0.87890625 23.48828125 C-0.2619143 25.76992235 -0.24827056 27.02467345 -0.25252151 29.5594902 C-0.25636266 30.41668742 -0.2602038 31.27388463 -0.26416135 32.15705752 C-0.26329487 33.1043124 -0.26242838 34.05156728 -0.26153564 35.02752686 C-0.26450677 36.02955619 -0.26747789 37.03158553 -0.27053905 38.06397939 C-0.27925547 41.44337738 -0.28073678 44.82274007 -0.28222656 48.20214844 C-0.28685268 50.61632361 -0.29187705 53.03049805 -0.29727173 55.44467163 C-0.31041816 62.01912572 -0.31688159 68.59357244 -0.32128239 75.16803646 C-0.32404345 79.27241839 -0.32828059 83.37679795 -0.33278656 87.48117828 C-0.34498134 98.8424248 -0.35527975 110.20366942 -0.35866165 121.56492233 C-0.35888122 122.29237509 -0.35910078 123.01982784 -0.359327 123.76932462 C-0.35954528 124.49853286 -0.35976356 125.22774111 -0.35998845 125.97904658 C-0.36043192 127.45673418 -0.36087848 128.93442178 -0.36132812 130.41210938 C-0.36154955 131.14509574 -0.36177098 131.87808211 -0.36199912 132.63328019 C-0.36594643 144.50813711 -0.38339745 156.38293265 -0.40668765 168.25776586 C-0.43040006 180.44617435 -0.44286348 192.63455204 -0.44402957 204.82298398 C-0.44494648 211.66763478 -0.45070249 218.51220563 -0.46884918 225.35683441 C-0.48585806 231.79507648 -0.48750356 238.23320725 -0.47871017 244.67146683 C-0.47793777 247.03618653 -0.48230914 249.40091428 -0.49216843 251.76561356 C-0.50482858 254.9909584 -0.49904308 258.21576039 -0.48858643 261.44110107 C-0.49664283 262.37943307 -0.50469923 263.31776506 -0.51299977 264.28453135 C-0.47398964 269.42066042 -0.06034388 273.07895811 2.87890625 277.48828125 C6.50942086 279.90862432 8.17336735 279.73967083 12.49664879 279.74275684 C13.17565019 279.74596332 13.85465158 279.7491698 14.55422878 279.75247344 C16.84608194 279.76082297 19.13767713 279.75483201 21.42953491 279.74897766 C23.08260732 279.7519961 24.73567834 279.75588402 26.38874686 279.76057023 C30.94437073 279.77089879 35.49991633 279.76865611 40.05554676 279.76438963 C44.96361972 279.76193117 49.8716734 279.77092561 54.77973938 279.77842712 C64.40038429 279.79120091 74.02100132 279.79296447 83.64165328 279.79062686 C91.45904873 279.78884646 99.27643568 279.79058736 107.09383011 279.7948513 C108.20489988 279.79544649 109.31596965 279.79604168 110.46070821 279.79665491 C112.71759195 279.79786661 114.9744757 279.79908075 117.23135944 279.80029728 C138.41463954 279.81118323 159.59790374 279.80900539 180.78118475 279.80291244 C200.17398235 279.79774284 219.56672974 279.808998 238.9595174 279.82801066 C258.85576962 279.84736788 278.75199806 279.85564875 298.64825976 279.8518874 C309.82498554 279.84997208 321.00166857 279.85249507 332.17838669 279.86660194 C341.69362226 279.87848982 351.20878876 279.8799499 360.72402523 279.86781178 C365.58129955 279.86190469 370.43844738 279.86087394 375.29571342 279.87281418 C379.73941895 279.88361107 384.18289146 279.88064399 388.6265858 279.86655249 C390.23693769 279.86388838 391.84730748 279.86632544 393.45764188 279.87428836 C395.64187226 279.88434215 397.82528442 279.87601813 400.00948143 279.86301136 C401.83140843 279.86309388 401.83140843 279.86309388 403.69014204 279.86317807 C407.19440782 279.45118834 409.0697661 278.58490084 411.87890625 276.48828125 C414.69717239 271.98739928 414.16628076 266.72558507 414.15306091 261.58827209 C414.15829759 260.58367948 414.16353427 259.57908687 414.16892964 258.54405206 C414.18394537 255.17394052 414.18463514 251.8039806 414.18530273 248.43383789 C414.19292303 246.01921837 414.2013503 243.60460129 414.21052551 241.18998718 C414.23248727 234.62810356 414.24129316 228.06625586 414.24635196 221.50434422 C414.24961083 217.40647542 414.25613434 213.30861599 414.26335335 209.21075249 C414.28291395 197.86225341 414.29932207 186.51376303 414.30222988 175.16524601 C414.30251124 174.07647492 414.30251124 174.07647492 414.30279827 172.96570846 C414.30316452 171.49429254 414.30352822 170.02287661 414.30388939 168.55146069 C414.3040722 167.82106314 414.30425501 167.09066558 414.30444336 166.33813477 C414.30462391 165.6068449 414.30480446 164.87555504 414.30499048 164.12210488 C414.30853381 152.26678516 414.33556845 140.41164688 414.37294125 128.55639011 C414.41101455 116.38143951 414.43038727 104.20657898 414.43068939 92.03156751 C414.43127408 85.19696499 414.43977369 78.36257909 414.46868706 71.5280323 C414.49574769 65.1020012 414.49711417 58.67628638 414.48103142 52.25021553 C414.47921114 49.89032558 414.4859595 47.53041134 414.50185013 45.17057419 C414.52220644 41.95162788 414.5118192 38.73419983 414.49363708 35.51527405 C414.51343704 34.1108456 414.51343704 34.1108456 414.53363699 32.67804486 C414.4777027 28.34984413 414.26589003 25.39096746 411.52798557 21.9240942 C408.25364169 18.91335414 405.93366243 18.38461666 401.6484375 18.171875 C400.84599609 18.12998047 400.04355469 18.08808594 399.21679688 18.04492188 C398.38341797 18.00560547 397.55003906 17.96628906 396.69140625 17.92578125 C395.42393555 17.86100586 395.42393555 17.86100586 394.13085938 17.79492188 C392.04706192 17.68896607 389.96300522 17.58813105 387.87890625 17.48828125 C387.87890625 11.87828125 387.87890625 6.26828125 387.87890625 0.48828125 C392.4514657 0.39606156 397.0207547 0.3165525 401.59350586 0.26855469 C403.1463519 0.24853255 404.69912344 0.22130608 406.25170898 0.18652344 C408.49351457 0.13758515 410.73431718 0.11521957 412.9765625 0.09765625 C413.66226822 0.07701111 414.34797394 0.05636597 415.05445862 0.03509521 C420.51838556 0.03259462 423.48800544 1.47197945 427.87890625 4.48828125 C431.35696525 8.97314681 432.99989023 12.43748312 433.01592064 18.08300304 C433.02353245 19.50578777 433.02353245 19.50578777 433.03129804 20.95731562 C433.0317958 22.00145808 433.03229356 23.04560053 433.0328064 24.12138367 C433.03718865 25.22902866 433.0415709 26.33667365 433.04608595 27.47788364 C433.0594962 31.20880887 433.06565782 34.93971048 433.07177734 38.6706543 C433.07967652 41.33788736 433.08794018 44.00511738 433.09655762 46.67234802 C433.12107853 54.69047777 433.13570824 62.70861371 433.14861768 70.72676942 C433.15232982 72.99150069 433.15630303 75.25623134 433.16037035 77.520962 C433.18560687 91.58509063 433.20765965 105.64922023 433.2200985 119.71336651 C433.22302818 122.97093904 433.22598985 126.22851153 433.22900391 129.48608398 C433.22974996 130.29573621 433.23049601 131.10538844 433.23126467 131.93957559 C433.24391754 145.05462885 433.27713986 158.16954651 433.31880574 171.28453638 C433.361234 184.74989866 433.38479454 198.21519154 433.39001906 211.68062049 C433.39343215 219.24078809 433.40517517 226.80074378 433.4381218 234.36084557 C433.4661358 240.79962777 433.47711583 247.23815462 433.46592633 253.67699303 C433.46074296 256.96119559 433.46633651 260.24475201 433.48839188 263.52890015 C433.51102555 267.09313377 433.50281343 270.65602059 433.48690796 274.22026062 C433.50079005 275.25324947 433.51467213 276.28623831 433.52897489 277.35052985 C433.45670445 283.92382609 432.23720861 288.45183291 427.87890625 293.48828125 C422.45426185 297.71950389 418.67192374 298.61307356 411.89193344 298.62250233 C411.17301027 298.62485456 410.45408709 298.62720679 409.71337837 298.6296303 C407.2857716 298.6363281 404.85821827 298.63586184 402.43060303 298.63545227 C400.67996172 298.6387504 398.92932118 298.64247586 397.17868161 298.64659375 C392.35330394 298.6566275 387.52793871 298.66033275 382.70255208 298.66298306 C377.50405296 298.66688199 372.30556374 298.67646056 367.10707092 298.68519592 C354.54607486 298.70497113 341.98507798 298.71502751 329.42407024 298.72392371 C323.51254338 298.72830456 317.60101742 298.73367186 311.68949127 298.73891258 C292.04494284 298.7559253 272.40039497 298.77042053 252.7558403 298.77766132 C247.65640004 298.77957129 242.55695978 298.78149162 237.45751953 298.78344727 C236.19004093 298.78393101 234.92256233 298.78441475 233.61667529 298.78491315 C213.0741793 298.79321738 192.53174147 298.81856076 171.9892709 298.85102794 C150.91101963 298.88407106 129.83279796 298.90210756 108.75452065 298.90530556 C96.91483979 298.90747312 85.07524374 298.91625776 73.23558807 298.94176674 C63.15460213 298.96343614 53.07372162 298.97154268 42.99271503 298.96179996 C37.84756755 298.95724445 32.70263776 298.95921403 27.55751991 298.9785614 C22.84843912 298.99611653 18.13973607 298.99525779 13.43065169 298.97966411 C11.7260475 298.97727638 10.02141766 298.98167162 8.31685278 298.99349276 C6.00052293 299.00856293 3.68554003 298.99897438 1.36924362 298.98326588 C-0.56090367 298.98473109 -0.56090367 298.98473109 -2.53004384 298.9862259 C-7.94846404 298.23489316 -11.63048652 296.05946185 -15.43359375 292.05078125 C-18.10926865 287.98771937 -19.36996562 284.5325609 -19.37836266 279.66308117 C-19.38481155 278.71405932 -19.39126044 277.76503746 -19.39790475 276.78725737 C-19.39480755 275.75283155 -19.39171035 274.71840573 -19.38851929 273.65263367 C-19.3930504 272.54736338 -19.39758151 271.44209309 -19.40224993 270.30332977 C-19.41493025 266.59239568 -19.4132712 262.88160768 -19.41162109 259.1706543 C-19.41760407 256.51297457 -19.42435232 253.85530637 -19.43197632 251.19763184 C-19.44858335 244.72322253 -19.45408573 238.24884964 -19.45520107 231.77442082 C-19.45615171 226.5109684 -19.46026281 221.24752798 -19.46660233 215.98407936 C-19.48421413 201.05766911 -19.49344132 186.13128762 -19.49194138 171.20486691 C-19.49186147 170.40031991 -19.49178155 169.59577291 -19.49169922 168.7668457 C-19.49161746 167.96131509 -19.4915357 167.15578448 -19.49145146 166.32584385 C-19.49063863 153.27236647 -19.50977555 140.2190045 -19.53797595 127.16556051 C-19.56671066 113.75888823 -19.58051592 100.35227223 -19.5787884 86.94556838 C-19.57812469 79.42012617 -19.58360868 71.89480494 -19.6051445 64.36939049 C-19.62336408 57.96177757 -19.62769738 51.55434048 -19.61412565 45.14671286 C-19.60759968 41.87879015 -19.60964259 38.61127435 -19.62483215 35.34337044 C-19.64024877 31.7969053 -19.63099886 28.25132559 -19.61557007 24.70487976 C-19.62585719 23.6771461 -19.63614432 22.64941244 -19.64674318 21.59053534 C-19.58053709 14.7029741 -18.5282284 8.86955101 -13.47893751 3.85859126 C-9.31764694 0.37464993 -5.34328003 -0.19487699 0 0 Z " fill="#A0C6FD" transform="translate(49.12109375,112.51171875)"/>
<path d="M0 0 C1.25554687 -0.00128906 2.51109375 -0.00257812 3.8046875 -0.00390625 C4.46178711 -0.00181152 5.11888672 0.0002832 5.79589844 0.00244141 C7.80411335 0.00779016 9.81210459 0.00249559 11.8203125 -0.00390625 C13.70363281 -0.00197266 13.70363281 -0.00197266 15.625 0 C16.78644531 0.00112793 17.94789063 0.00225586 19.14453125 0.00341797 C21.8125 0.1328125 21.8125 0.1328125 22.8125 1.1328125 C22.90876473 2.58611143 22.94447106 4.04354204 22.953125 5.5 C22.97246094 6.38558594 22.99179687 7.27117188 23.01171875 8.18359375 C23.04542859 10.05837932 23.06379107 11.93350696 23.06640625 13.80859375 C23.13622528 16.34045212 23.25141693 18.6620934 23.8125 21.1328125 C26.01895261 23.28969594 26.01895261 23.28969594 28.8125 24.1328125 C29.946875 24.7103125 31.08125 25.2878125 32.25 25.8828125 C36.26499533 27.29158279 37.77775458 27.32810583 41.8125 26.1328125 C43.85725077 24.31494115 45.59072022 22.60912577 47.375 20.5703125 C52.03518563 15.25097755 52.03518563 15.25097755 55.21508789 14.76757812 C60.23164521 15.47297992 63.25062794 19.7326639 66.6875 23.1953125 C67.48414063 23.94748047 68.28078125 24.69964844 69.1015625 25.47460938 C74.70833705 31.05721679 74.70833705 31.05721679 75.171875 35.84375 C73.27982431 40.42164275 70.27366046 42.94751709 66.5859375 46.03710938 C64.85869146 47.52509292 64.85869146 47.52509292 62.8125 50.1328125 C62.81812728 54.46018877 64.38040957 57.72320501 66.375 61.5078125 C66.83003906 62.38179687 67.28507813 63.25578125 67.75390625 64.15625 C68.10324219 64.80851562 68.45257813 65.46078125 68.8125 66.1328125 C69.71343384 66.17039673 69.71343384 66.17039673 70.63256836 66.20874023 C73.33861437 66.3243653 76.04428283 66.44724186 78.75 66.5703125 C79.69552734 66.60962891 80.64105469 66.64894531 81.61523438 66.68945312 C82.51435547 66.73134766 83.41347656 66.77324219 84.33984375 66.81640625 C85.17249756 66.85306396 86.00515137 66.88972168 86.86303711 66.92749023 C88.8125 67.1328125 88.8125 67.1328125 89.8125 68.1328125 C90.0666555 72.77296575 89.99772798 77.42402556 90 82.0703125 C90.01224609 83.38451172 90.02449219 84.69871094 90.03710938 86.05273438 C90.03904297 87.30505859 90.04097656 88.55738281 90.04296875 89.84765625 C90.04707764 91.00386475 90.05118652 92.16007324 90.05541992 93.35131836 C89.8125 96.1328125 89.8125 96.1328125 87.8125 98.1328125 C85.74951172 98.45166016 85.74951172 98.45166016 83.2421875 98.546875 C82.34628906 98.58554688 81.45039063 98.62421875 80.52734375 98.6640625 C79.59019531 98.695 78.65304687 98.7259375 77.6875 98.7578125 C76.74261719 98.79648438 75.79773438 98.83515625 74.82421875 98.875 C72.48717625 98.96942596 70.15014499 99.05499644 67.8125 99.1328125 C66.93904514 100.83136485 66.0894956 102.54222204 65.25 104.2578125 C64.77433594 105.20914063 64.29867187 106.16046875 63.80859375 107.140625 C62.60027589 110.77031709 62.59560795 112.50590377 63.8125 116.1328125 C65.63037135 118.17756327 67.33618673 119.91103272 69.375 121.6953125 C74.68586825 126.34808059 74.68586825 126.34808059 75.19799805 129.52172852 C74.69173462 132.95078952 73.44292357 134.14766429 71.015625 136.59375 C70.2215625 137.39425781 69.4275 138.19476563 68.609375 139.01953125 C67.76890625 139.84066406 66.9284375 140.66179687 66.0625 141.5078125 C65.2375 142.35214844 64.4125 143.19648438 63.5625 144.06640625 C62.76328125 144.85917969 61.9640625 145.65195313 61.140625 146.46875 C60.4074707 147.19626465 59.67431641 147.9237793 58.91894531 148.67333984 C56.8125 150.1328125 56.8125 150.1328125 54.66479492 149.95263672 C52.3364597 148.92211745 50.75681425 147.59694033 48.875 145.8828125 C48.17761719 145.25890625 47.48023438 144.635 46.76171875 143.9921875 C44.8125 142.1328125 44.8125 142.1328125 42.1875 139.1328125 C39.97918084 136.84926546 39.97918084 136.84926546 37.0625 137.0703125 C34.29667452 137.97452468 31.75723848 139.00768018 29.109375 140.19921875 C27.90039551 140.74171265 27.90039551 140.74171265 26.66699219 141.29516602 C25.74901855 141.70980103 25.74901855 141.70980103 24.8125 142.1328125 C24.782771 143.02589111 24.782771 143.02589111 24.75244141 143.93701172 C24.65733874 146.62773403 24.54760158 149.31766398 24.4375 152.0078125 C24.4065625 152.94496094 24.375625 153.88210937 24.34375 154.84765625 C24.30507813 155.74355469 24.26640625 156.63945312 24.2265625 157.5625 C24.17943115 158.80362549 24.17943115 158.80362549 24.13134766 160.06982422 C23.8125 162.1328125 23.8125 162.1328125 21.8125 164.1328125 C19.046875 164.39160156 19.046875 164.39160156 15.5625 164.3984375 C14.3146875 164.40101563 13.066875 164.40359375 11.78125 164.40625 C9.81671875 164.39464844 9.81671875 164.39464844 7.8125 164.3828125 C6.5028125 164.39054688 5.193125 164.39828125 3.84375 164.40625 C2.5959375 164.40367187 1.348125 164.40109375 0.0625 164.3984375 C-1.08734375 164.39618164 -2.2371875 164.39392578 -3.421875 164.39160156 C-6.1875 164.1328125 -6.1875 164.1328125 -8.1875 162.1328125 C-8.50634766 160.06982422 -8.50634766 160.06982422 -8.6015625 157.5625 C-8.64023438 156.66660156 -8.67890625 155.77070313 -8.71875 154.84765625 C-8.7496875 153.91050781 -8.780625 152.97335938 -8.8125 152.0078125 C-8.85117188 151.06292969 -8.88984375 150.11804688 -8.9296875 149.14453125 C-9.02411346 146.80748875 -9.10968394 144.47045749 -9.1875 142.1328125 C-10.90828041 141.2618746 -12.63956323 140.41166692 -14.375 139.5703125 C-15.33792969 139.09464844 -16.30085938 138.61898437 -17.29296875 138.12890625 C-20.63247031 136.97968507 -21.92201818 136.81425833 -25.1875 138.1328125 C-27.62893155 140.4107712 -29.80907256 142.75600659 -31.99414062 145.27148438 C-34.31882306 147.78741728 -35.64178027 149.06342309 -39.09448242 149.50244141 C-42.79359607 149.06038141 -43.88730633 148.19318357 -46.4921875 145.58984375 C-47.23984375 144.84541016 -47.9875 144.10097656 -48.7578125 143.33398438 C-49.51835937 142.54572266 -50.27890625 141.75746094 -51.0625 140.9453125 C-52.238125 139.79192383 -52.238125 139.79192383 -53.4375 138.61523438 C-59.08048278 132.88868826 -59.08048278 132.88868826 -59.55493164 129.53759766 C-58.90997558 125.31645668 -55.25767615 123.01476441 -52.18554688 120.32617188 C-49.71168621 118.0463395 -48.26524953 116.36454256 -47.1875 113.15234375 C-47.1875 109.56696379 -48.02768424 107.45244401 -49.625 104.2578125 C-50.09808594 103.29101562 -50.57117188 102.32421875 -51.05859375 101.328125 C-51.43113281 100.60367188 -51.80367187 99.87921875 -52.1875 99.1328125 C-52.78288574 99.11299316 -53.37827148 99.09317383 -53.99169922 99.07275391 C-56.68242153 98.97765124 -59.37235148 98.86791408 -62.0625 98.7578125 C-62.99964844 98.726875 -63.93679687 98.6959375 -64.90234375 98.6640625 C-65.79824219 98.62539062 -66.69414062 98.58671875 -67.6171875 98.546875 C-68.85831299 98.49974365 -68.85831299 98.49974365 -70.12451172 98.45166016 C-72.1875 98.1328125 -72.1875 98.1328125 -74.1875 96.1328125 C-74.43041992 93.35131836 -74.43041992 93.35131836 -74.41796875 89.84765625 C-74.41603516 88.59533203 -74.41410156 87.34300781 -74.41210938 86.05273438 C-74.39986328 84.73853516 -74.38761719 83.42433594 -74.375 82.0703125 C-74.37435547 80.75224609 -74.37371094 79.43417969 -74.37304688 78.07617188 C-74.32759123 68.27290373 -74.32759123 68.27290373 -73.1875 67.1328125 C-71.70111008 66.97626223 -70.20800873 66.88214307 -68.71484375 66.81640625 C-67.81572266 66.77451172 -66.91660156 66.73261719 -65.99023438 66.68945312 C-65.04470703 66.65013672 -64.09917969 66.61082031 -63.125 66.5703125 C-62.17560547 66.52712891 -61.22621094 66.48394531 -60.24804688 66.43945312 C-57.89468647 66.33301974 -55.54121646 66.23100242 -53.1875 66.1328125 C-52.14948445 64.24633206 -51.13266833 62.34817594 -50.125 60.4453125 C-49.55652344 59.38957031 -48.98804688 58.33382812 -48.40234375 57.24609375 C-47.05846451 53.80213312 -46.8260241 52.53372374 -48.1875 49.1328125 C-50.13319202 46.74151766 -50.13319202 46.74151766 -52.5625 44.5703125 C-58.8261562 38.6841079 -58.8261562 38.6841079 -60.1875 36.1328125 C-58.46144737 30.3694417 -54.53196729 26.96247314 -50.375 22.8203125 C-49.66279297 22.07974609 -48.95058594 21.33917969 -48.21679688 20.57617188 C-47.52005859 19.87685547 -46.82332031 19.17753906 -46.10546875 18.45703125 C-45.47406982 17.81854248 -44.8426709 17.18005371 -44.19213867 16.5222168 C-41.63456578 14.74957676 -40.23985422 14.66383179 -37.1875 15.1328125 C-34.51223774 17.61490188 -32.17521617 20.17522422 -29.82421875 22.95507812 C-28.34628297 24.57696868 -27.02229411 25.92649903 -25.1875 27.1328125 C-20.4282356 27.17479058 -16.90475768 25.78997756 -12.75 23.5703125 C-11.45255859 22.88775391 -11.45255859 22.88775391 -10.12890625 22.19140625 C-9.48824219 21.84207031 -8.84757812 21.49273437 -8.1875 21.1328125 C-8.14991577 20.23187866 -8.14991577 20.23187866 -8.11157227 19.31274414 C-7.9959472 16.60669813 -7.87307064 13.90102967 -7.75 11.1953125 C-7.71068359 10.24978516 -7.67136719 9.30425781 -7.63085938 8.33007812 C-7.58896484 7.43095703 -7.54707031 6.53183594 -7.50390625 5.60546875 C-7.46724854 4.77281494 -7.43059082 3.94016113 -7.39282227 3.08227539 C-6.94311812 -1.18750773 -3.60684786 0.00350277 0 0 Z " fill="#FCE894" transform="translate(248.1875,18.8671875)"/>
<path d="M0 0 C7.94443718 5.35361063 13.71670382 12.98928487 17.25 21.875 C17.60707031 22.75027344 17.96414063 23.62554687 18.33203125 24.52734375 C19.50814781 28.81641562 19.57999319 32.76172232 19.5625 37.1875 C19.57861328 37.99123047 19.59472656 38.79496094 19.61132812 39.62304688 C19.62090389 51.52572128 14.3054981 62.26863142 6.328125 70.95703125 C-3.11196224 79.66959297 -13.5151349 83.45987986 -26.1875 83.3125 C-27.11546387 83.30347656 -28.04342773 83.29445313 -28.99951172 83.28515625 C-35.633536 83.11676219 -41.04570755 82.48466812 -46.75 78.875 C-47.66910156 78.30394531 -48.58820313 77.73289062 -49.53515625 77.14453125 C-59.34444916 70.53018973 -67.18533302 61.26233875 -70.359375 49.64453125 C-72.28326616 36.00414291 -71.13926745 24.25344998 -63.6875 12.4375 C-63.048125 11.591875 -62.40875 10.74625 -61.75 9.875 C-60.945625 8.6684375 -60.945625 8.6684375 -60.125 7.4375 C-43.77255182 -10.20593094 -20.09885789 -11.63039246 0 0 Z " fill="#A5C9FD" transform="translate(281.75,63.125)"/>
<path d="M0 0 C1.4113044 -0.00422974 1.4113044 -0.00422974 2.85112 -0.00854492 C3.89166534 -0.00652069 4.93221069 -0.00449646 6.00428772 -0.00241089 C7.09362106 -0.00416321 8.18295441 -0.00591553 9.30529785 -0.00772095 C12.92641263 -0.01214237 16.54747904 -0.00920024 20.16859436 -0.00582886 C22.67344167 -0.00650186 25.17828891 -0.00747186 27.68313599 -0.00872803 C32.94155882 -0.01020543 38.19996895 -0.00814389 43.45838928 -0.00338745 C49.54262859 0.00205233 55.62683437 0.00029455 61.71107286 -0.00521386 C67.55606911 -0.01029444 73.40105259 -0.00976189 79.24604988 -0.00683212 C81.73683743 -0.00616308 84.22762584 -0.0069905 86.7184124 -0.00931168 C90.19523791 -0.01184007 93.67199833 -0.00799478 97.14881897 -0.00241089 C98.18734009 -0.00443512 99.22586121 -0.00645935 100.29585266 -0.00854492 C101.23954208 -0.0057251 102.18323151 -0.00290527 103.15551758 0 C103.97830169 0.00037703 104.8010858 0.00075405 105.64880276 0.0011425 C107.64125061 0.12698364 107.64125061 0.12698364 109.64125061 1.12698364 C109.69060886 6.35971695 109.7269501 11.5923154 109.75111389 16.82522583 C109.76118492 18.60617431 109.77484246 20.38710621 109.79212952 22.16799927 C109.81632974 24.72468147 109.82772245 27.28114549 109.83656311 29.83792114 C109.84688568 30.63692841 109.85720825 31.43593567 109.86784363 32.25915527 C109.86824287 34.21655584 109.7636613 36.17341441 109.64125061 38.12698364 C107.1926998 40.57553446 106.56015923 40.37783885 103.20021057 40.38095093 C102.26638046 40.38659058 101.33255035 40.39223022 100.37042236 40.39804077 C99.34282303 40.39399231 98.31522369 40.38994385 97.25648499 40.38577271 C96.17675919 40.38927734 95.09703339 40.39278198 93.98458862 40.39639282 C90.40132798 40.40522403 86.8182634 40.39935602 83.23500061 40.39260864 C80.7540025 40.39395489 78.27300465 40.39589508 75.79200745 40.39840698 C69.91892032 40.40173894 64.04590483 40.39472044 58.1728282 40.38410544 C53.48405066 40.3765959 48.79535706 40.37925134 44.10658264 40.38772583 C37.65280718 40.39929169 31.19911308 40.40114934 24.74533081 40.39461517 C22.27966289 40.39327724 19.81399154 40.39493137 17.34832764 40.39957428 C13.9074629 40.40463097 10.46686129 40.39694121 7.02601624 40.38577271 C5.48461723 40.3918454 5.48461723 40.3918454 3.91207886 40.39804077 C2.97824875 40.39240112 2.04441864 40.38676147 1.08229065 40.38095093 C0.2681797 40.38019688 -0.54593124 40.37944283 -1.38471222 40.37866592 C-3.35874939 40.12698364 -3.35874939 40.12698364 -5.35874939 38.12698364 C-5.5462825 35.3418814 -5.61436171 32.65798718 -5.58921814 29.87307739 C-5.58875992 29.0570253 -5.5883017 28.24097321 -5.58782959 27.40019226 C-5.58480683 25.67442369 -5.57691981 23.94865786 -5.56455994 22.22293091 C-5.54629916 19.57171031 -5.54405025 16.92083869 -5.54429626 14.26956177 C-5.53938133 12.5957306 -5.53355311 10.92190182 -5.52671814 9.24807739 C-5.52560532 8.45018295 -5.52449249 7.65228851 -5.52334595 6.83021545 C-5.46401934 0.00250493 -5.46401934 0.00250493 0 0 Z " fill="#B9BEFC" transform="translate(130.35874938964844,216.87301635742188)"/>
<path d="M0 0 C0.84347636 -0.00297112 1.68695272 -0.00594224 2.55598897 -0.0090034 C5.39876063 -0.01771521 8.24149031 -0.01920074 11.08427429 -0.02069092 C13.11584056 -0.02531734 15.14740596 -0.03034176 17.17897034 -0.03573608 C22.71000263 -0.04887912 28.24102278 -0.05530876 33.77206826 -0.05974674 C37.22516498 -0.06267443 40.67825834 -0.06677865 44.13135338 -0.07125092 C54.92807606 -0.08493092 65.72479112 -0.09459509 76.52152187 -0.09845281 C88.99810144 -0.10293481 101.47457154 -0.12048726 113.95111781 -0.1494534 C123.58597836 -0.17104808 133.22080806 -0.1811559 142.85569257 -0.18249393 C148.61435123 -0.18354355 154.37290704 -0.1894848 160.1315403 -0.20731354 C165.54793693 -0.22375591 170.96415299 -0.22596837 176.38056564 -0.21717453 C178.36998032 -0.21640209 180.35940454 -0.22077394 182.34879494 -0.23063278 C185.06217381 -0.24329217 187.77490733 -0.23750827 190.48828125 -0.22705078 C191.2777791 -0.23510719 192.06727695 -0.24316359 192.88069898 -0.25146413 C198.51528555 -0.20058468 201.78512885 0.99095466 205.74711609 4.95294189 C207.35568671 7.9160983 207.34266584 9.80803559 206.93461609 13.14044189 C205.72216794 15.80782781 204.75136597 17.56169442 202.34910488 19.26393223 C198.79289016 20.55491216 195.28817737 20.42589933 191.55279541 20.41459656 C190.6994431 20.41983324 189.84609078 20.42506992 188.96687931 20.43046528 C186.10264346 20.44548726 183.23858592 20.44617091 180.37431335 20.44683838 C178.32274574 20.45445828 176.27118099 20.46288548 174.21961975 20.47206116 C168.64324697 20.49402722 163.06692902 20.50280768 157.49051785 20.5078876 C154.00825869 20.51152808 150.52601397 20.51776647 147.0437603 20.52488899 C134.90019472 20.54938889 122.75667191 20.56243697 110.61308289 20.565979 C99.28518268 20.56961673 87.957553 20.59952782 76.62973553 20.64138359 C66.90990248 20.67604178 57.1901593 20.69152665 47.47026485 20.69222504 C41.66238119 20.69301925 35.85477314 20.70182444 30.0469532 20.7302227 C24.58610571 20.75632726 19.12576386 20.75865105 13.66488266 20.74256706 C11.65933445 20.74074662 9.65375766 20.74749667 7.64827156 20.76338577 C4.91271743 20.78374 2.17895031 20.77335789 -0.55657959 20.75517273 C-1.3524951 20.7683727 -2.14841061 20.78157266 -2.96844476 20.79517263 C-7.03490667 20.73331395 -8.83604297 20.32684816 -12.03468418 17.72702122 C-14.98495737 13.96914628 -15.61897552 11.93823588 -15.06538391 7.14044189 C-10.98627404 0.54993975 -7.29202668 -0.00793581 0 0 Z " fill="#A3C8FE" transform="translate(160.0653839111328,472.85955810546875)"/>
<path d="M0 0 C2.82730592 0.12839867 5.65500709 0.2068052 8.48413181 0.2829771 C14.32019273 0.44160861 20.15560136 0.63786996 25.98724365 0.91491699 C27.52965477 0.98466988 27.52965477 0.98466988 29.10322571 1.05583191 C31.54754639 1.4083252 31.54754639 1.4083252 33.54754639 3.4083252 C33.74728372 6.10967842 33.82736212 8.70629731 33.81317139 11.4083252 C33.81508484 12.19980957 33.81699829 12.99129395 33.81896973 13.8067627 C33.82033156 15.48124509 33.8166352 17.15573805 33.80828857 18.8302002 C33.79758879 21.39814901 33.80818364 23.96539823 33.82098389 26.5333252 C33.81966229 28.15832674 33.8170999 29.78332786 33.81317139 31.4083252 C33.81721985 32.17918457 33.82126831 32.95004395 33.82543945 33.7442627 C33.77746771 39.17840387 33.77746771 39.17840387 31.54754639 41.4083252 C29.57350922 41.66000748 29.57350922 41.66000748 27.10650635 41.66229248 C26.17267624 41.66793213 25.23884613 41.67357178 24.27671814 41.67938232 C23.2491188 41.67533386 22.22151947 41.6712854 21.16278076 41.66711426 C20.08305496 41.6706189 19.00332916 41.67412354 17.8908844 41.67773438 C14.30762376 41.68656558 10.72455918 41.68069757 7.14129639 41.6739502 C4.66029828 41.67529644 2.17930043 41.67723664 -0.30169678 41.67974854 C-6.1747839 41.68308049 -12.0477994 41.676062 -17.92087603 41.665447 C-22.60965356 41.65793745 -27.29834716 41.66059289 -31.98712158 41.66906738 C-38.44089704 41.68063324 -44.89459114 41.68249089 -51.34837341 41.67595673 C-53.81404133 41.6746188 -56.27971268 41.67627292 -58.74537659 41.68091583 C-62.18624133 41.68597253 -65.62684294 41.67828276 -69.06768799 41.66711426 C-70.60908699 41.67318695 -70.60908699 41.67318695 -72.18162537 41.67938232 C-73.11545547 41.67374268 -74.04928558 41.66810303 -75.01141357 41.66229248 C-75.82552452 41.66153843 -76.63963547 41.66078438 -77.47841644 41.66000748 C-79.45245361 41.4083252 -79.45245361 41.4083252 -81.45245361 39.4083252 C-81.92641914 35.22162974 -81.97530364 33.15043491 -79.51495361 29.6583252 C-78.83432861 28.9158252 -78.15370361 28.1733252 -77.45245361 27.4083252 C-76.26549808 23.84745861 -76.10149944 20.43501496 -75.88995361 16.7208252 C-75.82517822 15.6679834 -75.82517822 15.6679834 -75.75909424 14.59387207 C-75.65328002 12.86557313 -75.55238781 11.1369741 -75.45245361 9.4083252 C-73.47245361 8.7483252 -71.49245361 8.0883252 -69.45245361 7.4083252 C-68.8375708 8.03480957 -68.22268799 8.66129395 -67.58917236 9.3067627 C-66.78093018 10.12402832 -65.97268799 10.94129395 -65.13995361 11.7833252 C-64.3394458 12.59543457 -63.53893799 13.40754395 -62.71417236 14.2442627 C-59.44069547 17.37639775 -57.25308925 18.75240729 -52.76495361 18.9708252 C-47.58348357 18.83604707 -45.26496501 17.27959575 -41.60577393 13.75891113 C-39.36038199 11.45577266 -39.36038199 11.45577266 -37.72393799 8.60412598 C-28.78468639 -3.8121891 -13.71799936 -0.68093069 0 0 Z " fill="#B8BEFB" transform="translate(355.45245361328125,156.5916748046875)"/>
<path d="M0 0 C27.06 0 54.12 0 82 0 C82 15.18 82 30.36 82 46 C54.94 46 27.88 46 0 46 C0 30.82 0 15.64 0 0 Z " fill="#DEE9FB" transform="translate(215,419)"/>
<path d="M0 0 C6.96018891 4.74646216 12.88070802 10.68177899 15 19 C16.32960995 28.91746565 16.24797375 38.74825689 10 47 C5.05013839 53.18732702 -1.13482419 57.48909549 -9 59 C-20.08427755 59.85156288 -28.68000723 58.83353261 -37.375 51.625 C-42.89089941 46.420482 -46.89813249 40.62629128 -47.37109375 32.92578125 C-47.6712466 21.68402415 -46.56678224 13.8237859 -38.8125 5.1875 C-27.57276178 -5.23883612 -13.5415497 -6.54155591 0 0 Z " fill="#DFEAFB" transform="translate(272,73)"/>
<path d="M0 0 C2.05078125 0.03255208 4.1015625 0.06510417 6.15234375 0.09765625 C6.15869166 1.78927462 6.15869166 1.78927462 6.16516781 3.5150671 C6.26820635 30.91273822 6.3769345 58.31038221 6.49168301 85.70800686 C6.547041 98.95710287 6.60052716 112.20620158 6.6496582 125.45532227 C6.69246855 136.99868202 6.73873846 148.54202173 6.7892223 160.08535057 C6.81584869 166.20156705 6.8407023 172.31777949 6.86141777 178.43401909 C6.88094585 184.18358095 6.90507792 189.93310459 6.93283463 195.68263245 C6.94222542 197.79949311 6.94989334 199.91636219 6.95576286 202.03323555 C6.96398973 204.90997104 6.97825646 207.78661288 6.99412537 210.66331482 C6.99559253 211.93712207 6.99559253 211.93712207 6.99708933 213.23666281 C6.66541796 216.97172682 6.66541796 216.97172682 8.15234375 220.09765625 C10.17695683 220.20668386 12.20541037 220.24456578 14.23292542 220.25587463 C14.87489756 220.26081261 15.51686971 220.26575059 16.17829555 220.2708382 C18.3448538 220.28628389 20.51138226 220.29459281 22.67797852 220.30297852 C24.22490708 220.3125515 25.77183299 220.32256123 27.3187561 220.33297729 C31.53135557 220.36009532 35.74396633 220.38106741 39.9566052 220.40097928 C44.35422416 220.42279644 48.75180808 220.45020595 53.1493988 220.47703552 C61.48272346 220.52702033 69.81606752 220.57193761 78.14943022 220.61505789 C87.63418118 220.6643809 97.11889698 220.71931728 106.60361397 220.77473748 C126.11982462 220.88864635 145.63606841 220.9954659 165.15234375 221.09765625 C165.15234375 222.41765625 165.15234375 223.73765625 165.15234375 225.09765625 C143.39552094 225.12098309 121.63870018 225.13863437 99.88186741 225.14946842 C89.78053432 225.15463184 79.67920898 225.1616754 69.57788086 225.1730957 C60.77689911 225.18304115 51.97592297 225.18950934 43.17493576 225.19174474 C38.51188108 225.19305209 33.84884247 225.19613943 29.18579292 225.20338631 C24.80202009 225.21014434 20.41827004 225.21227366 16.03449249 225.21076393 C14.42074141 225.21104036 12.80698962 225.21304677 11.19324303 225.21686172 C8.99965485 225.22179559 6.80615405 225.22065569 4.61256409 225.21791077 C2.76667364 225.21929346 2.76667364 225.21929346 0.88349247 225.22070408 C-1.84765625 225.09765625 -1.84765625 225.09765625 -2.84765625 224.09765625 C-2.94781625 221.22999885 -2.98204433 218.38635048 -2.97463989 215.51818848 C-2.97619988 214.60740744 -2.97775987 213.69662641 -2.97936714 212.75824594 C-2.98338127 209.68191352 -2.9801859 206.60562974 -2.97705078 203.52929688 C-2.97840464 201.3337552 -2.98018448 199.13821375 -2.98236084 196.94267273 C-2.98693702 190.96144496 -2.98514486 184.98023436 -2.98198175 178.99900627 C-2.9794591 172.75474881 -2.98179542 166.51049287 -2.98336792 160.26623535 C-2.98530677 149.10510344 -2.98218899 137.94397786 -2.97710858 126.78284746 C-2.97264054 116.65324208 -2.97341647 106.52364815 -2.97802734 96.39404297 C-2.98337305 84.64450167 -2.98537397 72.89496596 -2.98241508 61.14542341 C-2.98085187 54.92078342 -2.98065974 48.69615133 -2.98395157 42.47151184 C-2.98682914 36.62099734 -2.9848567 30.77050459 -2.97905731 24.91999245 C-2.9777291 22.76603545 -2.97812486 20.61207664 -2.98031998 18.45812035 C-2.98302908 15.53109641 -2.97965331 12.60414337 -2.97463989 9.67712402 C-2.97687061 8.81303751 -2.97910134 7.94895101 -2.98139966 7.05868006 C-2.95826913 0.15635672 -2.95826913 0.15635672 0 0 Z " fill="#4570C6" transform="translate(86.84765625,81.90234375)"/>
<path d="M0 0 C6.75 -0.125 6.75 -0.125 9 1 C9.02332521 30.05831675 9.04097731 59.11663211 9.05181217 88.17495632 C9.05283207 90.85695331 9.05387339 93.53895029 9.05493164 96.22094727 C9.05532511 97.22091444 9.05532511 97.22091444 9.05572652 98.24108297 C9.06008323 109.04920919 9.06797078 119.85733012 9.0771528 130.66545319 C9.08648931 141.74748907 9.0919807 152.82952279 9.09408849 163.9115625 C9.09539602 170.13957334 9.09848449 176.36757215 9.10573006 182.59557915 C9.11248642 188.45018075 9.11461775 194.3047653 9.11310768 200.15937042 C9.11338418 202.31494044 9.11539157 204.47051099 9.11920547 206.62607765 C9.12413673 209.55534085 9.1230004 212.48453857 9.12025452 215.4138031 C9.12462378 216.71095604 9.12462378 216.71095604 9.12908131 218.0343141 C9.11412121 223.88587879 9.11412121 223.88587879 8 225 C5.84840274 225.096937 3.69355889 225.12186783 1.53977966 225.12025452 C0.51556816 225.12153615 0.51556816 225.12153615 -0.52933449 225.12284368 C-2.83411691 225.12450043 -5.13882772 225.11897397 -7.44360352 225.11352539 C-9.08905028 225.11324353 -10.73449716 225.11340122 -12.37994385 225.1139679 C-16.86115759 225.11425593 -21.34234481 225.10835821 -25.82355237 225.10139394 C-30.50142105 225.09516142 -35.17929028 225.09455668 -39.85716248 225.09336853 C-48.72175168 225.09025491 -57.58632862 225.08204111 -66.45091242 225.07201904 C-76.54022202 225.06085885 -86.6295322 225.05534769 -96.71884644 225.05032361 C-117.47923782 225.03985852 -138.23961814 225.02225849 -159 225 C-159 223.68 -159 222.36 -159 221 C-157.78767873 220.99365209 -157.78767873 220.99365209 -156.55086613 220.98717594 C-136.91422296 220.88401495 -117.27761697 220.77539935 -97.64103794 220.66066074 C-88.14506339 220.60530726 -78.64908509 220.55182184 -69.15307617 220.50268555 C-60.87944795 220.45986968 -52.60584762 220.41359835 -44.33226246 220.36312145 C-39.94868048 220.33649951 -35.56510412 220.311646 -31.18148994 220.29092598 C-27.06033787 220.27139205 -22.93923901 220.24725821 -18.81813431 220.21950912 C-17.30114772 220.21012143 -15.78414943 220.20245238 -14.26714516 220.19658089 C-12.20489836 220.18834873 -10.14278174 220.17408059 -8.08058167 220.15821838 C-6.92373147 220.15176583 -5.76688128 220.14531328 -4.57497501 220.1386652 C-2.06854217 220.29122895 -2.06854217 220.29122895 -1 219 C-0.88967309 216.18086415 -0.84502972 213.38570214 -0.84178162 210.56565857 C-0.83684364 209.67050618 -0.83190566 208.77535379 -0.82681805 207.85307556 C-0.81136273 204.82970535 -0.80306081 201.80635649 -0.79467773 198.78295898 C-0.78510551 196.62520151 -0.77509583 194.46744594 -0.76467896 192.30969238 C-0.73755271 186.43185199 -0.71658508 180.5540035 -0.69667697 174.67613482 C-0.67486485 168.54083438 -0.64745289 162.4055591 -0.62062073 156.27027893 C-0.57062906 144.64326391 -0.52571434 133.01623497 -0.48259836 121.38919264 C-0.43328119 108.15603096 -0.37834266 94.92289452 -0.32291877 81.68975723 C-0.20899938 54.45986168 -0.10218214 27.22994194 0 0 Z " fill="#4570C6" transform="translate(419,82)"/>
<path d="M0 0 C0.33 0 0.66 0 1 0 C1.01401855 1.32390747 1.01401855 1.32390747 1.02832031 2.67456055 C1.07246114 5.96456672 1.13412676 9.25329074 1.20751953 12.54272461 C1.23566014 13.96350192 1.25690908 15.38443378 1.27099609 16.80541992 C1.29252394 18.85415359 1.33921514 20.901043 1.390625 22.94921875 C1.41157227 24.17987061 1.43251953 25.41052246 1.45410156 26.6784668 C2.0913436 30.55578251 3.27147773 32.22583212 6 35 C8.23647631 36.11823815 9.64891529 36.19396061 12.1328125 36.31640625 C12.93847656 36.35830078 13.74414062 36.40019531 14.57421875 36.44335938 C15.83685547 36.50233398 15.83685547 36.50233398 17.125 36.5625 C18.39923828 36.62727539 18.39923828 36.62727539 19.69921875 36.69335938 C21.79928223 36.79954236 23.89961948 36.90028497 26 37 C26 37.33 26 37.66 26 38 C20.39 38 14.78 38 9 38 C9.04125 39.93875 9.0825 41.8775 9.125 43.875 C9.1953125 47.1796875 9.1953125 47.1796875 9 50 C6.57613655 52.42386345 5.98938588 52.25210208 2.67382812 52.25878906 C1.77950073 52.26509338 0.88517334 52.27139771 -0.03625488 52.27789307 C-1.00397827 52.2738446 -1.97170166 52.26979614 -2.96875 52.265625 C-4.45562317 52.26849518 -4.45562317 52.26849518 -5.97253418 52.27142334 C-8.07072198 52.27278585 -10.16891819 52.26908482 -12.26708984 52.26074219 C-15.48684546 52.25004371 -18.70604308 52.26063536 -21.92578125 52.2734375 C-23.96093874 52.27211592 -25.99609588 52.26955355 -28.03125 52.265625 C-29.48283508 52.27169769 -29.48283508 52.27169769 -30.96374512 52.27789307 C-31.85807251 52.27158875 -32.7523999 52.26528442 -33.67382812 52.25878906 C-34.46277466 52.25719788 -35.25172119 52.25560669 -36.0645752 52.25396729 C-38 52 -38 52 -40 50 C-40.19973733 47.29864677 -40.27981573 44.70202789 -40.265625 42 C-40.26753845 41.20851562 -40.2694519 40.41703125 -40.27142334 39.6015625 C-40.27278518 37.9270801 -40.26908882 36.25258715 -40.26074219 34.578125 C-40.2500424 32.01017619 -40.26063725 29.44292697 -40.2734375 26.875 C-40.2721159 25.24999845 -40.26955351 23.62499734 -40.265625 22 C-40.26967346 21.22914062 -40.27372192 20.45828125 -40.27789307 19.6640625 C-40.22992132 14.22992132 -40.22992132 14.22992132 -38 12 C-35.13111419 11.82467711 -32.36007355 11.76862386 -29.4921875 11.8046875 C-28.23125778 11.80893234 -28.23125778 11.80893234 -26.94485474 11.81326294 C-24.25475954 11.8244757 -21.5649949 11.84958197 -18.875 11.875 C-17.05339022 11.8850284 -15.23177523 11.89415449 -13.41015625 11.90234375 C-8.93997642 11.92441858 -4.47004429 11.95895566 0 12 C0 8.04 0 4.08 0 0 Z " fill="#B8BDFB" transform="translate(165,87)"/>
<path d="M0 0 C0.90707199 -0.00845947 1.81414398 -0.01691895 2.748703 -0.02563477 C3.74151276 -0.01956207 4.73432251 -0.01348938 5.75721741 -0.00723267 C7.3283152 -0.0151181 7.3283152 -0.0151181 8.93115234 -0.02316284 C12.40205185 -0.03639335 15.87249467 -0.02761308 19.34339905 -0.01748657 C21.75091643 -0.01950658 24.15843321 -0.0224174 26.56594849 -0.02618408 C31.61576656 -0.03061171 36.66542561 -0.02416269 41.71522522 -0.01016235 C48.19314977 0.00692041 54.67070121 -0.00290342 61.14861202 -0.02087975 C66.12167173 -0.03171345 71.0946428 -0.02827294 76.06770515 -0.02049637 C78.45636095 -0.01849275 80.84502474 -0.02095927 83.23367119 -0.02793503 C86.57116421 -0.03554146 89.90805087 -0.02395555 93.24549866 -0.00723267 C94.23628418 -0.01330536 95.2270697 -0.01937805 96.24787903 -0.02563477 C97.15777084 -0.01717529 98.06766266 -0.00871582 99.00512695 0 C100.18839522 0.00169662 100.18839522 0.00169662 101.39556789 0.00342751 C104.14868201 0.48229002 105.54064323 1.48323416 107.5660553 3.38095093 C108.0035553 5.88095093 108.0035553 5.88095093 107.5660553 8.38095093 C105.98141297 10.4546839 105.09661295 11.28386299 102.50299835 11.75847435 C101.30728588 11.76017097 101.30728588 11.76017097 100.0874176 11.76190186 C99.1704863 11.77036133 98.25355499 11.7788208 97.30883789 11.78753662 C96.30510635 11.78146393 95.30137482 11.77539124 94.26722717 11.76913452 C93.20846878 11.77439148 92.14971039 11.77964844 91.05886841 11.7850647 C87.55069837 11.79829451 84.04298015 11.7895158 80.5348053 11.77938843 C78.10247205 11.7814083 75.6701394 11.78431901 73.23780823 11.78808594 C68.13671613 11.79251335 63.03578147 11.78606468 57.93470764 11.77206421 C51.38718382 11.7549723 44.84002889 11.76481123 38.29251862 11.7827816 C33.2688874 11.79360807 28.24534403 11.79017828 23.22171021 11.78239822 C20.80710812 11.78039308 18.39249813 11.78286646 15.97790527 11.78983688 C12.60668222 11.79743249 9.23606147 11.78587313 5.86488342 11.76913452 C4.35928612 11.77824356 4.35928612 11.77824356 2.82327271 11.78753662 C1.9063414 11.77907715 0.9894101 11.77061768 0.04469299 11.76190186 C-0.75244865 11.76077078 -1.5495903 11.7596397 -2.37088776 11.75847435 C-4.96422904 11.28391301 -5.85238764 10.45714787 -7.4339447 8.38095093 C-7.8089447 5.88095093 -7.8089447 5.88095093 -7.4339447 3.38095093 C-5.1911516 0.44331186 -3.6306553 0.00520826 0 0 Z " fill="#BBC1FC" transform="translate(281.43394470214844,245.61904907226563)"/>
<path d="M0 0 C0.5 2.5 0.5 2.5 0 5 C-1.5875342 7.07049851 -2.47066953 7.90241993 -5.06305695 8.38031673 C-5.86019859 8.38274663 -6.65734024 8.38517653 -7.4786377 8.38768005 C-8.395569 8.39758469 -9.31250031 8.40748932 -10.25721741 8.41769409 C-11.26094894 8.41319244 -12.26468048 8.4086908 -13.29882812 8.40405273 C-14.35758652 8.41091599 -15.41634491 8.41777924 -16.50718689 8.42485046 C-20.0153434 8.44318813 -23.52305573 8.43927125 -27.03125 8.43359375 C-29.46358385 8.4381519 -31.8959164 8.44345637 -34.32824707 8.44947815 C-39.42933378 8.45842275 -44.53026404 8.45597035 -49.63134766 8.44604492 C-56.17894718 8.43454845 -62.72600796 8.45477091 -69.27353668 8.48396206 C-74.29717456 8.50227779 -79.32068222 8.50204091 -84.34434509 8.49632454 C-86.75895443 8.49617079 -89.1735723 8.50225942 -91.58815002 8.51461601 C-94.95950472 8.52943803 -98.32984951 8.51891329 -101.70117188 8.50170898 C-102.70490341 8.51137695 -103.70863495 8.52104492 -104.74278259 8.53100586 C-105.6597139 8.52117172 -106.5766452 8.51133759 -107.5213623 8.50120544 C-108.31850395 8.50099616 -109.1156456 8.50078688 -109.93694305 8.50057125 C-112 8 -112 8 -113.79553986 6.13664341 C-115 4 -115 4 -114.75 1.3125 C-114 -1 -114 -1 -113 -2 C-111.60782423 -2.11399796 -110.21000864 -2.1600859 -108.81329346 -2.17840576 C-107.4589772 -2.19959221 -107.4589772 -2.19959221 -106.07730103 -2.22120667 C-105.07887177 -2.23167526 -104.0804425 -2.24214386 -103.05175781 -2.25292969 C-102.00625763 -2.26764816 -100.96075745 -2.28236664 -99.88357544 -2.29753113 C-96.40680495 -2.34463404 -92.93000641 -2.38388836 -89.453125 -2.421875 C-88.2687661 -2.43573494 -87.0844072 -2.44959488 -85.86415863 -2.46387482 C-79.59503479 -2.53723168 -73.32587986 -2.60478518 -67.05664062 -2.66748047 C-60.57193633 -2.73336914 -54.08762031 -2.81797239 -47.60319901 -2.9070549 C-42.62592336 -2.97213847 -37.64857368 -3.02362951 -32.67110443 -3.07138824 C-30.28042497 -3.09666369 -27.88979381 -3.12703438 -25.49924469 -3.16255951 C-22.15473548 -3.21093874 -18.81057792 -3.24014947 -15.46582031 -3.26464844 C-14.47548798 -3.28321396 -13.48515564 -3.30177948 -12.46481323 -3.32090759 C-3.83252365 -3.34777265 -3.83252365 -3.34777265 0 0 Z " fill="#B9BEFB" transform="translate(240,190)"/>
<path d="M0 0 C1.37333496 -0.01062721 1.37333496 -0.01062721 2.77441406 -0.02146912 C4.28540428 -0.01775299 4.28540428 -0.01775299 5.82691956 -0.01396179 C6.88553192 -0.01907272 7.94414429 -0.02418365 9.03483582 -0.02944946 C12.54835093 -0.0433957 16.061671 -0.0423849 19.57521057 -0.04008484 C22.00897292 -0.043969 24.44273458 -0.04830308 26.87649536 -0.05307007 C31.98352758 -0.06054312 37.09049068 -0.06023314 42.19752502 -0.05497742 C48.75290683 -0.04918141 55.30800624 -0.06611196 61.86334133 -0.08932209 C66.89125227 -0.10403014 71.91909475 -0.10493512 76.94702339 -0.10181236 C79.36442181 -0.10232705 81.78182392 -0.10759224 84.19920158 -0.11762428 C87.57529603 -0.1299145 90.95083449 -0.12324136 94.32691956 -0.11161804 C95.33222214 -0.11926178 96.33752472 -0.12690552 97.37329102 -0.13478088 C98.29166748 -0.12776657 99.21004395 -0.12075226 100.15625 -0.11352539 C100.95469047 -0.11369313 101.75313093 -0.11386087 102.57576656 -0.1140337 C105.18494471 0.35925211 106.10254764 1.12355226 107.64161682 3.26069641 C107.20683421 8.69547902 107.20683421 8.69547902 105.64161682 10.26069641 C104.21913757 10.36271292 102.79164732 10.39587733 101.36552429 10.40113831 C100.44292816 10.40684845 99.52033203 10.41255859 98.56977844 10.41844177 C97.54950562 10.41955963 96.52923279 10.42067749 95.4780426 10.42182922 C94.40982269 10.42679413 93.34160278 10.43175903 92.24101257 10.43687439 C88.68964506 10.45153921 85.1383222 10.45830509 81.58692932 10.46382141 C79.12931821 10.46956918 76.67170713 10.47532695 74.21409607 10.48109436 C69.05402924 10.49161657 63.89397804 10.49745129 58.73390198 10.50093079 C52.11013007 10.50641892 45.48656339 10.53044884 38.86285591 10.55890274 C33.78434132 10.57749268 28.70587653 10.58273277 23.62733078 10.58426666 C21.18480685 10.58730182 18.74228397 10.59535917 16.29979324 10.60845184 C12.88769507 10.62543654 9.47610296 10.62365053 6.0639801 10.61714172 C5.04775574 10.62635651 4.03153137 10.63557129 2.98451233 10.64506531 C2.05627655 10.63949615 1.12804077 10.633927 0.17167664 10.62818909 C-0.63543699 10.62965565 -1.44255062 10.63112221 -2.27412224 10.63263321 C-4.88419169 10.16686577 -5.79997977 9.37777228 -7.35838318 7.26069641 C-6.96657184 1.90594147 -5.30862427 0.01365545 0 0 Z " fill="#B9BEFC" transform="translate(281.35838317871094,216.7393035888672)"/>
<path d="M0 0 C4.08586872 4.08586872 4.45825104 4.61970417 4.51632524 9.98650622 C4.50467387 10.78806305 4.4930225 11.58961988 4.48101807 12.41546631 C4.48443577 13.27234645 4.48785347 14.12922659 4.49137473 15.0120728 C4.49797239 17.88826982 4.47594651 20.76353715 4.45410156 23.63964844 C4.45297349 25.69932534 4.45360615 27.75900385 4.45587158 29.81867981 C4.45702123 35.41551224 4.43347112 41.01200314 4.40557575 46.60875607 C4.380604 52.45572627 4.37822343 58.30270394 4.37347412 64.14971924 C4.36103193 75.22423468 4.32819341 86.29859254 4.28807616 97.37303853 C4.2433972 109.97988252 4.22138115 122.58673395 4.20129442 135.19363737 C4.15946194 161.12917901 4.08908564 187.06458068 4 213 C2.68 212.67 1.36 212.34 0 212 C0 142.04 0 72.08 0 0 Z " fill="#B5BBFA" transform="translate(407,72)"/>
<path d="M0 0 C0 69.96 0 139.92 0 212 C-1.32 212.33 -2.64 212.66 -4 213 C-4.07002336 185.81888623 -4.12295544 158.63778593 -4.15543652 131.45660019 C-4.17091765 118.83643329 -4.19203099 106.21632238 -4.22631836 93.59619141 C-4.25618255 82.59887444 -4.27556593 71.601598 -4.28226548 60.60424161 C-4.28618279 54.77906608 -4.29541491 48.95400653 -4.31719017 43.1288681 C-4.3375082 37.64931287 -4.34384328 32.16992173 -4.33932304 26.69033241 C-4.34015034 24.67630688 -4.34614375 22.66227603 -4.35761642 20.648283 C-4.37248721 17.90380735 -4.36897343 15.15995564 -4.36076355 12.41546631 C-4.36950207 11.61390948 -4.3782406 10.81235265 -4.38724393 9.98650622 C-4.36025202 6.6606405 -4.22281157 4.38547685 -2.53995228 1.47403336 C-1 0 -1 0 0 0 Z " fill="#B5BBFA" transform="translate(105,72)"/>
<path d="M0 0 C7.32535795 0.0922073 13.06432084 3.94136145 19.3125 7.4375 C20.40884766 8.03626953 21.50519531 8.63503906 22.63476562 9.25195312 C30.68897021 13.68897021 30.68897021 13.68897021 33 16 C32.95263672 18.42114258 32.95263672 18.42114258 32 21 C29.73095703 22.72924805 29.73095703 22.72924805 26.7578125 24.26171875 C25.69175781 24.82310547 24.62570312 25.38449219 23.52734375 25.96289062 C22.40457031 26.53201172 21.28179687 27.10113281 20.125 27.6875 C17.91887108 28.83647235 15.71312442 29.98617906 13.5078125 31.13671875 C12.52441895 31.63905029 11.54102539 32.14138184 10.52783203 32.65893555 C7.8659766 34.01707567 7.8659766 34.01707567 5 36 C2.375 36.1875 2.375 36.1875 0 36 C-1.7329298 34.2670702 -1.12820046 32.03785664 -1.13894653 29.72851562 C-1.1369223 28.99310547 -1.13489807 28.25769531 -1.1328125 27.5 C-1.13376923 26.74912109 -1.13472595 25.99824219 -1.13571167 25.22460938 C-1.13639338 23.63411373 -1.13453972 22.04361533 -1.13037109 20.453125 C-1.12502267 18.01035345 -1.13031634 15.56776579 -1.13671875 13.125 C-1.13605797 11.58333293 -1.1347768 10.04166597 -1.1328125 8.5 C-1.13483673 7.76458984 -1.13686096 7.02917969 -1.13894653 6.27148438 C-1.11495161 1.11495161 -1.11495161 1.11495161 0 0 Z " fill="#F8A9A9" transform="translate(243,82)"/>
<path d="M0 0 C8.6838625 -0.06947174 17.36762954 -0.1227967 26.05170918 -0.15543652 C30.08397033 -0.17110102 34.11604153 -0.1923533 38.14819336 -0.22631836 C42.0385392 -0.25888429 45.9287022 -0.27684711 49.81917381 -0.28463173 C51.30437283 -0.29018026 52.7895617 -0.30101511 54.274683 -0.31719017 C56.35302072 -0.33892851 58.43060032 -0.34196856 60.5090332 -0.34057617 C61.69261917 -0.34723801 62.87620514 -0.35389984 64.09565735 -0.36076355 C67 0 67 0 68.91740417 1.36112976 C70 3 70 3 69.8125 5.5625 C69 8 69 8 67 10 C64.56672668 10.33230591 64.56672668 10.33230591 61.46801758 10.44580078 C60.30953812 10.491492 59.15105865 10.53718323 57.95747375 10.58425903 C56.69920273 10.62090668 55.4409317 10.65755432 54.14453125 10.6953125 C52.85439621 10.73365204 51.56426117 10.77199158 50.23503113 10.81149292 C47.49887851 10.8885672 44.76264885 10.95529637 42.02612305 11.01757812 C38.53204806 11.09992154 35.04138984 11.2292808 31.54922962 11.369524 C28.20670838 11.49255715 24.86348443 11.55851196 21.51953125 11.6328125 C20.27138138 11.68970245 19.02323151 11.74659241 17.73725891 11.8052063 C9.24431032 11.90769114 9.24431032 11.90769114 5.64242554 9.2802124 C2.96010742 6.30893112 1.26871884 3.80615653 0 0 Z " fill="#B8BEFB" transform="translate(319,129)"/>
<path d="M0 0 C-8.83151775 0.06942341 -17.66294198 0.12277203 -26.49467278 0.15543652 C-30.59534193 0.17111161 -34.6958248 0.1923831 -38.79638672 0.22631836 C-42.75156619 0.25884669 -46.70656617 0.27683912 -50.66186905 0.28463173 C-52.17301384 0.29018704 -53.68414849 0.30103491 -55.19521713 0.31719017 C-57.30728352 0.33887859 -59.41860242 0.34197066 -61.53076172 0.34057617 C-62.73433319 0.34723801 -63.93790466 0.35389984 -65.177948 0.36076355 C-66.10922516 0.24171158 -67.04050232 0.12265961 -68 0 C-70 -3 -70 -3 -69.75 -5.5625 C-69 -8 -69 -8 -67 -10 C-64.68061829 -10.31884766 -64.68061829 -10.31884766 -61.7434082 -10.4140625 C-60.644991 -10.45329834 -59.54657379 -10.49253418 -58.41487122 -10.53295898 C-57.22222153 -10.56333252 -56.02957184 -10.59370605 -54.80078125 -10.625 C-52.96546089 -10.67539429 -52.96546089 -10.67539429 -51.09306335 -10.72680664 C-48.4981332 -10.79274924 -45.90305004 -10.85288353 -43.30786133 -10.90771484 C-39.34511175 -10.99924673 -35.38527745 -11.13383983 -31.42382812 -11.26953125 C-28.90370676 -11.32819907 -26.38352339 -11.3842724 -23.86328125 -11.4375 C-22.08948845 -11.50735107 -22.08948845 -11.50735107 -20.27986145 -11.57861328 C-9.64950813 -11.71236407 -6.31462958 -7.97965845 0 0 Z " fill="#B8BEFB" transform="translate(195,168)"/>
<path d="M0 0 C1.15942612 -0.00983414 2.31885223 -0.01966827 3.51341248 -0.02980042 C4.78157806 -0.02013245 6.04974365 -0.01046448 7.3563385 -0.00050354 C8.70841026 -0.00428751 10.06047815 -0.00978821 11.41253662 -0.01687622 C15.08210475 -0.03083958 18.75120444 -0.0196547 22.42074656 -0.00316501 C26.26211968 0.01068727 30.10346565 0.00422511 33.94485474 0.0007019 C40.39687139 -0.00200041 46.84870204 0.011476 53.30067444 0.03465271 C60.75680847 0.06125142 68.21263128 0.06301326 75.66879648 0.05126435 C82.84385971 0.0404785 90.01881051 0.04668066 97.19386482 0.06081963 C100.24599939 0.0665736 103.29805154 0.06650137 106.3501873 0.06175423 C109.94620967 0.05697584 113.54189208 0.06712139 117.13784981 0.08870888 C119.0846456 0.09691313 121.03148597 0.09043302 122.97828674 0.08351135 C124.72165565 0.0983683 124.72165565 0.0983683 126.50024414 0.11352539 C128.01202696 0.11717023 128.01202696 0.11717023 129.55435085 0.12088871 C132.76945272 0.56403495 134.69583013 1.61655841 137.31361389 3.50120544 C137.31361389 3.83120544 137.31361389 4.16120544 137.31361389 4.50120544 C88.80361389 4.50120544 40.29361389 4.50120544 -9.68638611 4.50120544 C-5.18625801 0.00107734 -5.18625801 0.00107734 0 0 Z " fill="#B0B7F8" transform="translate(271.68638610839844,290.49879455566406)"/>
<path d="M0 0 C1.15942612 -0.00983414 2.31885223 -0.01966827 3.51341248 -0.02980042 C4.78157806 -0.02013245 6.04974365 -0.01046448 7.3563385 -0.00050354 C8.70841026 -0.00428751 10.06047815 -0.00978821 11.41253662 -0.01687622 C15.08210475 -0.03083958 18.75120444 -0.0196547 22.42074656 -0.00316501 C26.26211968 0.01068727 30.10346565 0.00422511 33.94485474 0.0007019 C40.39687139 -0.00200041 46.84870204 0.011476 53.30067444 0.03465271 C60.75680847 0.06125142 68.21263128 0.06301326 75.66879648 0.05126435 C82.84385971 0.0404785 90.01881051 0.04668066 97.19386482 0.06081963 C100.24599939 0.0665736 103.29805154 0.06650137 106.3501873 0.06175423 C109.94620967 0.05697584 113.54189208 0.06712139 117.13784981 0.08870888 C119.0846456 0.09691313 121.03148597 0.09043302 122.97828674 0.08351135 C124.72165565 0.0983683 124.72165565 0.0983683 126.50024414 0.11352539 C128.01202696 0.11717023 128.01202696 0.11717023 129.55435085 0.12088871 C132.76945272 0.56403495 134.69583013 1.61655841 137.31361389 3.50120544 C137.31361389 3.83120544 137.31361389 4.16120544 137.31361389 4.50120544 C88.80361389 4.50120544 40.29361389 4.50120544 -9.68638611 4.50120544 C-5.18625801 0.00107734 -5.18625801 0.00107734 0 0 Z " fill="#B0B7F8" transform="translate(112.68638610839844,290.49879455566406)"/>
<path d="M0 0 C0.33 0 0.66 0 1 0 C1 3.96 1 7.92 1 12 C2.748573 11.97643433 2.748573 11.97643433 4.5324707 11.95239258 C8.85417786 11.89812466 13.17585485 11.86366141 17.49780273 11.83520508 C19.36894799 11.82011127 21.24005783 11.79963411 23.11108398 11.77368164 C25.79940526 11.73732407 28.48725913 11.72027985 31.17578125 11.70703125 C32.43217155 11.68380547 32.43217155 11.68380547 33.71394348 11.66011047 C39.57015982 11.65841049 39.57015982 11.65841049 41.71769714 13.36503601 C43 15 43 15 43.4375 17.5 C43 20 43 20 41.51660156 21.63793945 C37.8628941 23.61543595 34.34339145 23.37026814 30.296875 23.29296875 C29.45908508 23.28872391 28.62129517 23.28447906 27.75811768 23.28010559 C25.08841498 23.26334408 22.41947363 23.22569711 19.75 23.1875 C17.93751092 23.17244987 16.12500998 23.15876203 14.3125 23.14648438 C9.87470769 23.11344889 5.43748283 23.06168443 1 23 C0.67 24.32 0.34 25.64 0 27 C0 18.09 0 9.18 0 0 Z " fill="#BAC0FB" transform="translate(346,87)"/>
<path d="M0 0 C0.90492188 0.02320313 1.80984375 0.04640625 2.7421875 0.0703125 C4.10730469 0.09738281 4.10730469 0.09738281 5.5 0.125 C6.19867188 0.14820313 6.89734375 0.17140625 7.6171875 0.1953125 C5.69431716 4.48910063 2.99239881 6.96684951 -0.3828125 10.1953125 C-1.7028125 9.5353125 -3.0228125 8.8753125 -4.3828125 8.1953125 C-4.5078125 5.3203125 -4.5078125 5.3203125 -4.3828125 2.1953125 C-2.3828125 0.1953125 -2.3828125 0.1953125 0 0 Z " fill="#B9BEFB" transform="translate(185.3828125,128.8046875)"/>
<path d="M0 0 C2.31 0.66 4.62 1.32 7 2 C7 7.28 7 12.56 7 18 C6.67 18 6.34 18 6 18 C6 13.38 6 8.76 6 4 C3.03 4 0.06 4 -3 4 C-2.01 2.68 -1.02 1.36 0 0 Z " fill="#A2B1F1" transform="translate(226,164)"/>
</svg>
