<?xml version="1.0" encoding="UTF-8"?>
<svg version="1.1" xmlns="http://www.w3.org/2000/svg" width="512" height="512">
<path d="M0 0 C8.25239752 5.38481914 12.62111022 12.90633202 16 22 C16.04677522 23.66601016 16.05509412 25.33424419 16 27 C16.66008057 26.78794922 17.32016113 26.57589844 18.00024414 26.35742188 C21.01778134 25.3945188 24.0399873 24.44716369 27.0625 23.5 C28.62000977 22.99919922 28.62000977 22.99919922 30.20898438 22.48828125 C40.63876173 19.24346163 40.63876173 19.24346163 46 20 C48.49336211 23.74004317 48.25481228 26.62561609 48.1953125 30.94921875 C48.19106766 32.10814384 48.19106766 32.10814384 48.18673706 33.29048157 C48.17554878 35.75631243 48.15044703 38.22177906 48.125 40.6875 C48.11496843 42.36002079 48.10584289 44.03254728 48.09765625 45.70507812 C48.07561392 49.80352559 48.04109363 53.90170106 48 58 C48.97582031 57.96519531 49.95164062 57.93039063 50.95703125 57.89453125 C52.86548828 57.85392578 52.86548828 57.85392578 54.8125 57.8125 C56.07707031 57.77769531 57.34164063 57.74289063 58.64453125 57.70703125 C62 58 62 58 63.9309082 59.28833008 C65.74047394 62.18553615 65.30763166 65.38849985 65.1875 68.6875 C65.17396484 69.38939453 65.16042969 70.09128906 65.14648438 70.81445312 C65.11120182 72.54329829 65.05739583 74.27174765 65 76 C66.093125 75.9175 67.18625 75.835 68.3125 75.75 C78.52928196 75.78603803 88.94464197 81.49271477 96.4140625 88.15234375 C106.48046368 98.53858042 110.16377879 109.85572719 110.12025452 123.94038391 C110.12153615 125.45362292 110.12153615 125.45362292 110.12284368 126.99743241 C110.12449224 130.38152568 110.11898728 133.76556949 110.11352539 137.1496582 C110.11324336 139.5740102 110.11340157 141.99836228 110.1139679 144.42271423 C110.1141957 149.6440968 110.11135722 154.86546816 110.10573006 160.08684731 C110.09759944 167.63606414 110.09499823 175.18527493 110.09374207 182.73449566 C110.09155401 194.98291264 110.08490057 207.23132296 110.07543945 219.47973633 C110.06625898 231.37719693 110.05918125 243.27465571 110.05493164 255.17211914 C110.05453756 256.27235008 110.05453756 256.27235008 110.05413551 257.39480791 C110.05283046 261.07453626 110.05156676 264.75426462 110.05032361 268.43399298 C110.03995865 298.95600009 110.02227261 329.47799912 110 360 C110.9286084 359.98952637 111.8572168 359.97905273 112.81396484 359.96826172 C116.2542569 359.93420796 119.69437027 359.90911507 123.13476562 359.89013672 C124.6247032 359.88006957 126.11462097 359.86641482 127.60449219 359.84912109 C129.74419028 359.82490347 131.88362753 359.81352436 134.0234375 359.8046875 C135.31169434 359.79421387 136.59995117 359.78374023 137.92724609 359.77294922 C141 360 141 360 143 362 C143.42622739 366.25188689 143.37158312 370.52040312 143.37060547 374.79125977 C143.37492078 376.89880789 143.41105528 379.00415914 143.44921875 381.11132812 C143.54624966 392.57888702 141.5048818 402.01326619 133.984375 410.99609375 C125.89866378 419.16138874 116.95851289 422.29029193 105.64338647 422.40421668 C103.35592445 422.4108243 101.06876405 422.40271461 98.78131104 422.39440918 C97.11653538 422.39930096 95.45176311 422.4054921 93.7869966 422.41286707 C89.22195174 422.42925352 84.65707972 422.42695128 80.09201574 422.4214921 C75.16479726 422.41882029 70.23762468 422.43335662 65.3104248 422.44558716 C55.6607043 422.46663751 46.01104388 422.47118221 36.36130312 422.46939927 C28.51643251 422.46809135 20.67158064 422.47189733 12.82671356 422.47932434 C10.5664831 422.48142355 8.30625264 422.48352116 6.04602218 422.48561716 C4.35850737 422.48718245 4.35850737 422.48718245 2.63690135 422.48877937 C-18.63865816 422.50768043 -39.91418318 422.50663206 -61.1897476 422.49981004 C-80.64543102 422.49423572 -100.10098271 422.51505555 -119.55663535 422.54817051 C-139.5400972 422.58191944 -159.52349598 422.59707427 -179.50698686 422.59245348 C-190.72357613 422.59020988 -201.94004368 422.59543595 -213.15660858 422.62034607 C-222.70669418 422.64137477 -232.25659132 422.64493561 -241.8066847 422.62604648 C-246.67709401 422.61689808 -251.54715208 422.61571821 -256.41753387 422.63640213 C-260.88128334 422.65514905 -265.34439482 422.65056714 -269.80812028 422.62785631 C-271.41777541 422.6236799 -273.02747981 422.62783819 -274.63708279 422.64145225 C-286.98944338 422.73876422 -297.95544915 420.9074455 -307.25 412.01953125 C-313.93111685 404.3094031 -317.24640056 396.09501654 -317.265625 385.859375 C-317.26820313 384.54195313 -317.27078125 383.22453125 -317.2734375 381.8671875 C-317.26924805 381.19139648 -317.26505859 380.51560547 -317.26074219 379.81933594 C-317.24995455 377.74124454 -317.26071265 375.66400372 -317.2734375 373.5859375 C-317.26957031 371.61753906 -317.26957031 371.61753906 -317.265625 369.609375 C-317.26336914 368.41280273 -317.26111328 367.21623047 -317.25878906 365.98339844 C-317 363 -317 363 -315 360 C-311.92724609 359.65942383 -311.92724609 359.65942383 -308.0234375 359.70703125 C-307.33819 359.71127609 -306.6529425 359.71552094 -305.94692993 359.71989441 C-303.75588871 359.73670247 -301.56576368 359.77435595 -299.375 359.8125 C-297.89063827 359.82754421 -296.40626215 359.84123307 -294.921875 359.85351562 C-291.28095167 359.8866121 -287.64056522 359.93840793 -284 360 C-284.00276538 358.74139978 -284.00553076 357.48279957 -284.00837994 356.18605995 C-284.07339691 326.28865661 -284.12284327 296.39127155 -284.15319599 266.4938148 C-284.15694797 262.81146886 -284.16083095 259.12912307 -284.16479492 255.44677734 C-284.16558185 254.71370921 -284.16636878 253.98064108 -284.16717956 253.22535877 C-284.18022246 241.36601514 -284.20387014 229.50671528 -284.23145839 217.64739759 C-284.25954368 205.47259843 -284.27618286 193.29782214 -284.28226548 181.12299192 C-284.28637546 173.61450275 -284.29934194 166.10613729 -284.3237494 158.59768622 C-284.34152818 152.83371585 -284.34335774 147.06982422 -284.33932304 141.30583191 C-284.3401471 138.94601557 -284.34609744 136.58619447 -284.35761642 134.2264061 C-284.37260004 130.99798579 -284.36893192 127.7700896 -284.36076355 124.54165649 C-284.36950207 123.61361163 -284.3782406 122.68556676 -284.38724393 121.72939932 C-284.29772462 108.58844372 -279.10953513 97.61867634 -270.2265625 88.0703125 C-261.60773314 80.05631327 -250.66724897 75.67660077 -239 76 C-239.05220703 74.30230469 -239.05220703 74.30230469 -239.10546875 72.5703125 C-239.13360336 71.08855647 -239.16090387 69.60678444 -239.1875 68.125 C-239.21263672 67.37863281 -239.23777344 66.63226563 -239.26367188 65.86328125 C-239.29296875 63.6953125 -239.29296875 63.6953125 -239 60 C-235.2632157 57.50881047 -233.25548181 57.7934774 -228.8125 57.875 C-227.54019531 57.89304688 -226.26789063 57.91109375 -224.95703125 57.9296875 C-223.98121094 57.95289063 -223.00539063 57.97609375 -222 58 C-222.01047363 56.91992676 -222.02094727 55.83985352 -222.03173828 54.72705078 C-222.06788194 50.72773541 -222.09087984 46.72843454 -222.10986328 42.72900391 C-222.11993376 40.99655735 -222.13359089 39.26412784 -222.15087891 37.53173828 C-222.17508162 35.04455361 -222.18647239 32.55759325 -222.1953125 30.0703125 C-222.20563507 29.29317902 -222.21595764 28.51604553 -222.22659302 27.71536255 C-222.22699271 25.80874507 -222.1223214 23.90268964 -222 22 C-220 20 -220 20 -216.77845764 19.77038574 C-213.08656958 19.99473923 -210.07869384 20.61382871 -206.54467773 21.67382812 C-205.29613007 22.0431395 -204.0475824 22.41245087 -202.76119995 22.79295349 C-201.40193143 23.2055001 -200.04273143 23.61827253 -198.68359375 24.03125 C-197.24862699 24.45984934 -195.81340948 24.88760992 -194.37796021 25.31459045 C-191.31946985 26.22612024 -188.26279564 27.14343518 -185.20730591 28.06497192 C-180.41388916 29.50959478 -175.61445641 30.93349538 -170.81420898 32.35522461 C-156.42349297 36.62435587 -142.05522028 40.94856156 -127.74994469 45.49646378 C-123.4972296 46.84324227 -119.23595823 48.16283238 -114.97610474 49.48681641 C-112.72425649 50.19641122 -110.47703807 50.92089268 -108.2350769 51.66113281 C-94.67774985 56.13652878 -85.56211301 58.2975908 -72 53 C-70.31655662 52.4915775 -68.62962488 51.9943613 -66.9375 51.515625 C-65.62343159 51.09866099 -64.31081277 50.67708859 -63 50.25 C-62.3090625 50.02957031 -61.618125 49.80914062 -60.90625 49.58203125 C-59.26940141 49.05914906 -57.63445158 48.53032738 -56 48 C-56.2165625 47.41734375 -56.433125 46.8346875 -56.65625 46.234375 C-60.45769544 35.04123008 -60.04521113 24.76014055 -55 14 C-49.86593427 5.53853978 -42.42693416 -0.88725556 -33.09375 -4.30078125 C-21.79488509 -6.85443885 -10.00061026 -6.09318619 0 0 Z M-44.1875 18.875 C-48.27628932 25.92463675 -48.54068486 32.14930435 -47 40 C-44.59788131 47.48051092 -39.41757563 52.96259915 -32.75 56.9375 C-30.02495412 58.18019964 -30.02495412 58.18019964 -27 58 C-27 51.4 -27 44.8 -27 38 C-29.97 37.67 -32.94 37.34 -36 37 C-38 34 -38 34 -37.6875 31.375 C-37 29 -37 29 -36 28 C-33.79349344 27.89987599 -31.58377614 27.8691882 -29.375 27.8671875 C-28.71290527 27.86623077 -28.05081055 27.86527405 -27.36865234 27.86428833 C-25.96647039 27.86360674 -24.5642853 27.86545958 -23.16210938 27.86962891 C-21.00904287 27.87497754 -18.85618498 27.8696833 -16.703125 27.86328125 C-15.34374954 27.86394204 -13.9843742 27.86522321 -12.625 27.8671875 C-10.75714844 27.86887939 -10.75714844 27.86887939 -8.8515625 27.87060547 C-6 28 -6 28 -5 29 C-4.875 32.5 -4.875 32.5 -5 36 C-7.40370085 38.40370085 -11.62144496 37.624605 -15 38 C-15 44.6 -15 51.2 -15 58 C-6.86402149 56.3728043 -1.6159563 51.74371449 3 45 C6.48565268 37.71938758 6.83282925 30.47867338 4.27734375 22.83984375 C0.93126557 15.32203173 -4.8100166 9.66593739 -12.484375 6.6640625 C-25.7589222 3.15991184 -36.15103453 8.31278824 -44.1875 18.875 Z M-211 33 C-211 89.43 -211 145.86 -211 204 C-171.70317353 215.78904794 -132.38600767 227.51241443 -93 239 C-93 182.57 -93 126.14 -93 68 C-103.58876309 64.4704123 -114.10018917 60.98455489 -124.80078125 57.86328125 C-126.68467668 57.30917213 -128.56857197 56.75506256 -130.45246124 56.2009325 C-133.07061426 55.43172224 -135.68964882 54.66553653 -138.30865097 53.89922333 C-141.69445946 52.9078648 -145.07927483 51.91312829 -148.46411133 50.91845703 C-149.1381346 50.72039459 -149.81215788 50.52233215 -150.5066061 50.31826782 C-151.8633709 49.9195792 -153.22013252 49.5208798 -154.57689095 49.12216949 C-156.592542 48.52999387 -158.60832397 47.93826564 -160.62413025 47.34661865 C-168.47118388 45.0427129 -176.3131395 42.72248821 -184.1484375 40.37890625 C-185.03188339 40.11485489 -185.91532928 39.85080353 -186.82554626 39.57875061 C-190.05787922 38.61216613 -193.29005779 37.64511422 -196.5206604 36.67276001 C-198.63160452 36.0374301 -200.7434432 35.40516103 -202.85546875 34.7734375 C-204.00684326 34.42716309 -205.15821777 34.08088867 -206.34448242 33.72412109 C-208.86284533 32.91230671 -208.86284533 32.91230671 -211 33 Z M16 39 C13.33960998 42.50051319 12.76321069 45.73874029 12 50 C9.35474658 54.6078608 6.07261825 59.50609431 1.16015625 61.89453125 C-1.14320545 63.07682938 -2.43064479 63.91322795 -4 66 C-4.48867463 69.15647612 -4.66391924 72.21027894 -4.72851562 75.40087891 C-4.86360916 80.88432546 -5.53728055 83.76778734 -9 88 C-13.21932211 91.72293127 -18.54142702 92.13667788 -24 92 C-29.22178423 90.45914564 -32.65066786 88.30628417 -36 84 C-37.23854999 80.34627753 -37.98939255 77.35351082 -38.01953125 73.5078125 C-38.08634947 69.5108683 -38.22807837 66.96490204 -40.78125 63.7734375 C-44.51279777 60.56583993 -46.48897559 58.95531472 -51.56640625 59.10546875 C-57.13257404 60.0530822 -62.49868756 61.80971995 -67.875 63.5 C-68.91914063 63.82097656 -69.96328125 64.14195313 -71.0390625 64.47265625 C-76.12486514 65.96662899 -76.12486514 65.96662899 -81 68 C-81 124.43 -81 180.86 -81 239 C-56.10393404 231.78167514 -56.10393404 231.78167514 -31.2421875 224.44921875 C-29.65855944 223.97834963 -28.07491012 223.50755198 -26.49124146 223.03681946 C-23.24706745 222.07228928 -20.00308871 221.10710647 -16.75927734 220.14135742 C-12.64210007 218.91562107 -8.52448509 217.69136249 -4.40673637 216.46754742 C-1.16693938 215.50453885 2.07267027 214.54090129 5.31222153 213.57706642 C6.83094461 213.12526472 8.34971366 212.67361753 9.86853409 212.22214317 C11.98692092 211.59231321 14.10506239 210.96166431 16.22314453 210.33081055 C17.41537628 209.9760112 18.60760803 209.62121185 19.83596802 209.25566101 C25.56472202 207.52815914 31.28104735 205.75967774 37 204 C37 147.57 37 91.14 37 33 C30.18032204 33 21.94778896 35.78486146 16 39 Z M-228 69 C-228 125.76 -228 182.52 -228 241 C-194.67 241 -161.34 241 -127 241 C-130.21820405 238.85453064 -132.85088191 238.02530199 -136.55664062 236.94042969 C-137.21906265 236.74495041 -137.88148468 236.54947113 -138.5639801 236.34806824 C-140.76003671 235.70124785 -142.95812811 235.06163813 -145.15625 234.421875 C-146.6984303 233.96878355 -148.24046084 233.51518205 -149.78234863 233.06109619 C-153.85742458 231.86220386 -157.93418064 230.66913344 -162.01141357 229.4776001 C-169.24913027 227.36147372 -176.48415208 225.23613577 -183.71875 223.109375 C-184.87333206 222.77003685 -184.87333206 222.77003685 -186.05123901 222.42384338 C-194.95845181 219.80413391 -203.86011581 217.17128695 -212.71875 214.390625 C-213.8556427 214.03578033 -213.8556427 214.03578033 -215.01550293 213.67376709 C-219.87402826 212.12597174 -219.87402826 212.12597174 -221 211 C-221.10868162 209.16541825 -221.14688416 207.3266395 -221.15821838 205.48887634 C-221.1680072 204.2926918 -221.17779602 203.09650726 -221.18788147 201.86407471 C-221.19378641 200.52648966 -221.19959681 199.18890419 -221.20532227 197.85131836 C-221.21489553 196.45217089 -221.22490528 195.05302634 -221.23532104 193.65388489 C-221.262436 189.84416691 -221.28340975 186.03443646 -221.30332303 182.22467494 C-221.32514208 178.24746201 -221.35255067 174.27028781 -221.37937927 170.29310608 C-221.42936152 162.7566427 -221.47427975 155.22015788 -221.51740164 147.68365246 C-221.56672684 139.10577421 -221.6216624 130.52793481 -221.67708123 121.9500941 C-221.79098617 104.30009878 -221.89780657 86.65006682 -222 69 C-223.98 69 -225.96 69 -228 69 Z M48 69 C47.67 115.86 47.34 162.72 47 211 C42.79988926 213.10005537 39.5287627 214.58572953 35.14770508 215.8659668 C33.44720757 216.36745491 33.44720757 216.36745491 31.71235657 216.8790741 C30.49372421 217.23222183 29.27509186 217.58536957 28.01953125 217.94921875 C26.72500484 218.3288235 25.43063022 218.70894622 24.13639832 219.08955383 C20.72055422 220.09263869 17.30277955 221.08897845 13.88452148 222.08380127 C10.50979482 223.06705276 7.13676841 224.05609545 3.76367188 225.04492188 C-0.22355672 226.21340915 -4.21094121 227.38134908 -8.19918823 228.5463562 C-21.14356332 232.32797668 -34.07338445 236.15810277 -47 240 C-47 240.33 -47 240.66 -47 241 C-13.67 241 19.66 241 54 241 C54 184.24 54 127.48 54 69 C52.02 69 50.04 69 48 69 Z M-27 70 C-27.34646126 74.0303028 -27.34646126 74.0303028 -27 78 C-24.66169042 80.5404226 -24.66169042 80.5404226 -22 82 C-19.08482708 80.92598892 -17.22189824 80.22189824 -15 78 C-14.75787127 76.01871492 -14.75787127 76.01871492 -14.875 73.875 C-14.91625 72.59625 -14.9575 71.3175 -15 70 C-18.96 70 -22.92 70 -27 70 Z M-263 97 C-270.65954698 106.04658769 -273.47184187 114.61067571 -273.36076355 126.34547424 C-273.36332682 127.34955084 -273.3658901 128.35362744 -273.36853105 129.38813061 C-273.37344868 132.73230893 -273.35700916 136.07602971 -273.34057617 139.42016602 C-273.33972946 141.82540374 -273.34020589 144.23064224 -273.34190369 146.63587952 C-273.34267421 152.47611347 -273.32969915 158.31619905 -273.31059071 164.15639914 C-273.28909113 170.95574909 -273.28465053 177.75507836 -273.2812262 184.55445754 C-273.27467055 196.67867026 -273.25473353 208.8028222 -273.22631836 220.92700195 C-273.19875478 232.70011085 -273.17753247 244.47320321 -273.16479492 256.24633789 C-273.16400675 256.9728003 -273.16321858 257.69926271 -273.16240653 258.44773913 C-273.15849124 262.0924167 -273.15470015 265.73709439 -273.15097082 269.38177216 C-273.11990254 299.5878916 -273.06686698 329.79393734 -273 360 C-271.02 360 -269.04 360 -267 360 C-266.99668985 358.89177981 -266.99337971 357.78355963 -266.98996925 356.64175701 C-266.90892168 329.65781753 -266.81658978 302.67393456 -266.71247292 275.69007397 C-266.66238287 262.64080664 -266.6159395 249.59154548 -266.578125 236.54223633 C-266.5451509 225.16649851 -266.50528972 213.79080908 -266.45720994 202.41512471 C-266.43199888 196.39360064 -266.41020166 190.37210844 -266.39665604 184.35054588 C-266.38378677 178.67807311 -266.36168003 173.00570993 -266.33261681 167.33329773 C-266.32357901 165.25611878 -266.31785971 163.1789222 -266.31578636 161.10172462 C-266.29640025 144.62362386 -266.19996782 128.69140158 -254.85546875 115.5078125 C-250.06707814 111.06324679 -244.80565799 107.94890565 -239 105 C-239 99.06 -239 93.12 -239 87 C-248.09065279 87 -256.50893725 90.59127631 -263 97 Z M65 87 C63.90291335 96.03791037 63.90291335 96.03791037 65 105 C67.74321235 107.79700083 70.24512919 108.95052495 73.81640625 110.51953125 C81.523888 114.10374669 85.59513696 121.35292408 88.9921875 128.8359375 C92.68165754 140.4191574 92.30684906 152.14783051 92.31884766 164.16870117 C92.32815675 166.30823135 92.33832686 168.44775793 92.34928894 170.58728027 C92.37649237 176.36949471 92.39170965 182.15168491 92.40471697 187.93394637 C92.42038988 193.98645401 92.44716679 200.03891248 92.4727478 206.09138489 C92.51946205 217.54098222 92.55624171 228.99058889 92.58942068 240.44023257 C92.62769409 253.48017333 92.67709056 266.5200646 92.72740483 279.55996358 C92.83061529 306.37327234 92.91991101 333.18661291 93 360 C94.98 360 96.96 360 99 360 C99.09132982 329.10310395 99.16207963 298.20624374 99.20426132 267.30924467 C99.2092639 263.65822995 99.21444122 260.0072155 99.21972656 256.35620117 C99.22130043 255.26596429 99.22130043 255.26596429 99.22290608 254.15370242 C99.24029217 242.39848031 99.2718199 230.64333677 99.30861118 218.8881612 C99.3460707 206.81845054 99.36824642 194.74878091 99.37635398 182.6790145 C99.38134097 175.90288077 99.39329491 169.12691059 99.42292023 162.3508358 C99.45012741 155.96920333 99.45843411 149.58782167 99.45243073 143.2061367 C99.45352857 140.86769751 99.46145051 138.52924968 99.4768219 136.19086075 C99.49683229 132.98893035 99.49189843 129.78793705 99.48101807 126.58598328 C99.49849512 125.20995808 99.49849512 125.20995808 99.51632524 123.8061344 C99.42486723 113.79411423 96.11308232 104.20447095 89 97 C81.8933109 90.98292252 74.47887507 86.71877683 65 87 Z M-246 122 C-252.89716454 130.54713279 -255.31560774 137.41216657 -255.24050903 148.23179626 C-255.24222107 149.13806259 -255.24393311 150.04432892 -255.24569702 150.97805786 C-255.24899732 154.01271525 -255.23797677 157.04715002 -255.22705078 160.08178711 C-255.22643791 162.29535954 -255.22670544 164.50893236 -255.2277813 166.72250462 C-255.22823246 172.6455952 -255.21664811 178.56860483 -255.20256042 184.49167633 C-255.19116317 190.05146029 -255.19063378 195.61122466 -255.18920898 201.17102051 C-255.178718 217.42652438 -255.15079566 233.68201321 -255.125 249.9375 C-255.08375 286.258125 -255.0425 322.57875 -255 360 C-144.12 360 -33.24 360 81 360 C81.061875 323.720625 81.12375 287.44125 81.1875 250.0625 C81.21481201 238.60668213 81.24212402 227.15086426 81.27026367 215.34790039 C81.2802969 205.08007185 81.2802969 205.08007185 81.28633118 194.8122406 C81.2891264 190.23842504 81.30037005 185.66471392 81.31672668 181.09092712 C81.33732269 175.25426371 81.34346995 169.4177519 81.33921683 163.58105552 C81.34010603 161.44056979 81.3460438 159.30007869 81.35764539 157.15962422 C81.37261105 154.2636607 81.3689543 151.36828284 81.36076355 148.4723053 C81.36950154 147.63886313 81.37823954 146.80542097 81.38724232 145.94672298 C81.31532258 136.45805414 78.32354713 129.03852105 72 122 C68.94238038 118.9167103 68.94238038 118.9167103 65 118 C64.67 161.56 64.34 205.12 64 250 C61.5196478 251.2401761 59.88104874 251.12534235 57.10551453 251.12584114 C55.54431365 251.12975276 55.54431365 251.12975276 53.95157337 251.13374341 C52.7992607 251.13151268 51.64694803 251.12928196 50.4597168 251.12698364 C48.63392231 251.12932363 48.63392231 251.12932363 46.7712431 251.13171089 C43.38193459 251.13502073 39.99268113 251.13381412 36.60337591 251.13072467 C32.95234832 251.12847025 29.30132569 251.13195039 25.65029907 251.13470459 C18.49369072 251.13916082 11.33709283 251.13818647 4.18048406 251.13529195 C-1.63371667 251.13303734 -7.44791445 251.13272564 -13.26211548 251.13381577 C-14.50142931 251.13404561 -14.50142931 251.13404561 -15.76577979 251.13428011 C-17.44399126 251.13459982 -19.12220274 251.13492403 -20.8004142 251.1352527 C-36.55226182 251.13810706 -52.30410362 251.13482115 -68.05595028 251.12945233 C-81.58385258 251.12498433 -95.1117463 251.12576028 -108.63964844 251.13037109 C-124.33354808 251.13571763 -140.02744262 251.13783237 -155.72134304 251.13475883 C-157.39352353 251.13444027 -159.06570403 251.1341259 -160.73788452 251.13381577 C-161.56071798 251.13366149 -162.38355144 251.13350721 -163.23131925 251.13334826 C-169.04130921 251.13248335 -174.85129594 251.13394545 -180.6612854 251.13629532 C-187.73773487 251.13909439 -194.81417324 251.13835278 -201.89062142 251.13301457 C-205.50396476 251.13037901 -209.11728957 251.12937006 -212.73063278 251.13266373 C-216.64033803 251.13617375 -220.55001265 251.13199442 -224.4597168 251.12698364 C-225.61202947 251.12921436 -226.76434214 251.13144509 -227.95157337 251.13374341 C-228.99237395 251.13113566 -230.03317453 251.12852791 -231.10551453 251.12584114 C-232.00892421 251.12567879 -232.91233389 251.12551644 -233.84311962 251.12534916 C-236 251 -236 251 -238 250 C-238.33 206.44 -238.66 162.88 -239 118 C-242.33267655 118 -243.5806202 119.74191218 -246 122 Z M-306 371 C-306.75353698 390.71082787 -306.75353698 390.71082787 -297.26953125 405.4296875 C-289.62293192 410.72044986 -282.72008695 411.5748043 -273.56651306 411.48101807 C-271.72350509 411.48614462 -271.72350509 411.48614462 -269.84326464 411.49137473 C-266.45417871 411.49680172 -263.06602781 411.48438853 -259.67705548 411.46426249 C-256.01460367 411.44692184 -252.3521786 411.45283884 -248.68969727 411.45587158 C-242.35134543 411.45796478 -236.01315883 411.44545893 -229.67484856 411.42292023 C-220.51084534 411.39035479 -211.34692168 411.37998858 -202.18286688 411.37496826 C-187.31335364 411.36622272 -172.44392838 411.33962729 -157.57446289 411.30175781 C-143.13371215 411.26501852 -128.69298534 411.23671615 -114.25219727 411.21972656 C-112.91607652 411.21815022 -112.91607652 411.21815022 -111.55296343 411.21654204 C-107.08416198 411.21132173 -102.61536037 411.20626693 -98.14655864 411.20129442 C-61.09764365 411.15985548 -24.04882869 411.08942727 13 411 C13.04898437 410.09636719 13.09796875 409.19273437 13.1484375 408.26171875 C13.22320312 407.08222656 13.29796875 405.90273438 13.375 404.6875 C13.44460938 403.51574219 13.51421875 402.34398437 13.5859375 401.13671875 C14 398 14 398 16 395 C19 394.625 19 394.625 22 395 C24.34770643 398.52155964 24.37669614 400.50771843 24.625 404.6875 C24.73714844 406.45673828 24.73714844 406.45673828 24.8515625 408.26171875 C24.90054687 409.16535156 24.94953125 410.06898438 25 411 C28.63 411 32.26 411 36 411 C36.06058594 410.01257813 36.12117188 409.02515625 36.18359375 408.0078125 C36.26738281 406.72648437 36.35117187 405.44515625 36.4375 404.125 C36.51871094 402.84882813 36.59992188 401.57265625 36.68359375 400.2578125 C37 397 37 397 38 395 C40.33294775 394.95758277 42.66702567 394.95907063 45 395 C46.99616554 396.99616554 46.40983427 400.81701963 46.5625 403.5625 C46.60568359 404.27341797 46.64886719 404.98433594 46.69335938 405.71679688 C46.79971777 407.47761912 46.90038846 409.2387832 47 411 C50.96 411 54.92 411 59 411 C59.06058594 409.92878906 59.12117188 408.85757813 59.18359375 407.75390625 C59.26798537 406.35675609 59.35263406 404.95962143 59.4375 403.5625 C59.49647461 402.50192383 59.49647461 402.50192383 59.55664062 401.41992188 C59.88671875 396.11328125 59.88671875 396.11328125 61 395 C63.64 395 66.28 395 69 395 C69.33 400.28 69.66 405.56 70 411 C73.63 411 77.26 411 81 411 C81.04898437 410.09636719 81.09796875 409.19273437 81.1484375 408.26171875 C81.22320312 407.08222656 81.29796875 405.90273438 81.375 404.6875 C81.44460938 403.51574219 81.51421875 402.34398437 81.5859375 401.13671875 C82 398 82 398 84 395 C87 394.625 87 394.625 90 395 C92.34770643 398.52155964 92.37669614 400.50771843 92.625 404.6875 C92.73714844 406.45673828 92.73714844 406.45673828 92.8515625 408.26171875 C92.90054687 409.16535156 92.94953125 410.06898438 93 411 C109.76611493 412.01230101 109.76611493 412.01230101 124.04296875 404.16796875 C133.44685283 394.33751673 132 384.89688502 132 371 C84.48 371 36.96 371 -12 371 C-13.485 375.95 -13.485 375.95 -15 381 C-17.80904238 386.61808476 -21.19214173 389.00573233 -27 391 C-30.9386449 391.55574776 -34.82410301 391.54734171 -38.796875 391.51757812 C-39.95562134 391.5245874 -41.11436768 391.53159668 -42.30822754 391.53881836 C-46.12239851 391.55636261 -49.93582203 391.54478734 -53.75 391.53125 C-56.40984004 391.53394592 -59.06965774 391.53782358 -61.72949219 391.54284668 C-67.29760776 391.55010714 -72.86551054 391.54057779 -78.43359375 391.52148438 C-84.85486785 391.49971844 -91.2756338 391.50677097 -97.6968956 391.52879 C-103.22754108 391.54699001 -108.75803432 391.54947999 -114.2887001 391.53903532 C-117.5842889 391.53282547 -120.87958893 391.53348455 -124.1751709 391.54518127 C-127.85150249 391.5553666 -131.52686535 391.53981589 -135.203125 391.51757812 C-136.28388306 391.52567505 -137.36464111 391.53377197 -138.47814941 391.54211426 C-145.09628721 391.46814202 -149.34196071 390.49299829 -155 387 C-156.8046875 385.140625 -156.8046875 385.140625 -157.875 383.25 C-158.24367187 382.63640625 -158.61234375 382.0228125 -158.9921875 381.390625 C-160.39287493 378.06806413 -161.12548043 374.49807826 -162 371 C-209.52 371 -257.04 371 -306 371 Z M-150 371 C-149.54207942 376.69104245 -149.54207942 376.69104245 -147.1652832 379.35058594 C-142.31474747 381.8781771 -137.74246659 381.49268023 -132.35546875 381.390625 C-131.2305452 381.38496521 -130.10562164 381.37930542 -128.9466095 381.37347412 C-125.35980366 381.35111468 -121.77400304 381.30091667 -118.1875 381.25 C-115.75326965 381.22993455 -113.31902362 381.21168386 -110.88476562 381.1953125 C-104.92279079 381.1512509 -98.96156573 381.08222413 -93 381 C-93 377.7 -93 374.4 -93 371 C-111.81 371 -130.62 371 -150 371 Z M-81 371 C-81 374.3 -81 377.6 -81 381 C-73.82841005 381.09891323 -66.65721763 381.17149124 -59.48510742 381.21972656 C-57.04558393 381.23983564 -54.6061086 381.26712683 -52.16674805 381.30175781 C-48.65922152 381.35030489 -45.15233257 381.37297632 -41.64453125 381.390625 C-40.55477493 381.41127014 -39.46501862 381.43191528 -38.34223938 381.45318604 C-33.8770272 381.45450775 -30.83714847 381.43623409 -26.8347168 379.35058594 C-24.45792058 376.69104245 -24.45792058 376.69104245 -24 371 C-42.81 371 -61.62 371 -81 371 Z " fill="#2E6DC1" transform="translate(343,59)"/>
<path d="M0 0 C0.71154236 0.2099057 1.42308472 0.4198114 2.15618896 0.63607788 C4.48843031 1.32554229 6.81846313 2.02215475 9.1484375 2.71923828 C10.78066908 3.20417951 12.41299488 3.68880371 14.04541016 4.17312622 C17.45896429 5.18710673 20.87145223 6.20457846 24.28320312 7.22460938 C28.6422714 8.52761164 33.00372701 9.82240119 37.36599731 11.11463737 C40.73507294 12.1135555 44.10291502 13.11658058 47.47039795 14.12085342 C49.07749887 14.59965636 50.68495711 15.07726168 52.29278564 15.55361557 C54.54540173 16.22173066 56.79631459 16.89531001 59.046875 17.5703125 C60.03056061 17.86035156 60.03056061 17.86035156 61.03411865 18.15625 C65.35691571 19.46103806 69.40790146 21.07780812 73.5234375 22.91455078 C73.5234375 25.55455078 73.5234375 28.19455078 73.5234375 30.91455078 C67.487899 33.93641555 63.01226043 32.08025769 56.94140625 30.18017578 C55.90590637 29.87115829 54.87040649 29.56214081 53.80352783 29.24375916 C50.43409066 28.23389264 47.07268126 27.1997107 43.7109375 26.16455078 C41.40351905 25.46687667 39.09565512 24.77067427 36.78735352 24.07592773 C32.18417445 22.68769628 27.5840833 21.28987674 22.98632812 19.88378906 C17.29363702 18.14472881 11.59116446 16.44121754 5.8828125 14.75439453 C3.61178566 14.08012326 1.34103307 13.4049407 -0.92953491 12.72912598 C-2.33018246 12.31277146 -3.73124249 11.89780194 -5.13272095 11.48425293 C-7.04219312 10.91918827 -8.94892495 10.34488718 -10.85546875 9.77001953 C-11.9029126 9.45701904 -12.95035645 9.14401855 -14.02954102 8.8215332 C-16.4765625 7.91455078 -16.4765625 7.91455078 -18.4765625 5.91455078 C-18.8515625 2.97705078 -18.8515625 2.97705078 -18.4765625 -0.08544922 C-13.96345316 -5.6817048 -5.87716899 -1.76916162 0 0 Z " fill="#49AFE4" transform="translate(163.4765625,156.08544921875)"/>
<path d="M0 0 C0.88343079 0.21157745 1.76686157 0.42315491 2.67706299 0.6411438 C9.42379919 2.47521374 16.13566721 4.40511952 22.83740234 6.39624023 C24.47258244 6.87958678 26.1078066 7.36278429 27.74307251 7.84584045 C31.15126514 8.85389956 34.55837474 9.86552707 37.96484375 10.87939453 C42.32676853 12.17704161 46.69207592 13.46288892 51.05835533 14.74579525 C54.42808278 15.73780612 57.79552815 16.7373903 61.16237259 17.73913765 C62.77151586 18.21663433 64.38145505 18.69145741 65.99219894 19.16352654 C68.23909636 19.82296845 70.4826082 20.49289308 72.72558594 21.16552734 C73.38744904 21.35731567 74.04931213 21.549104 74.73123169 21.7467041 C78.25804187 22.81760128 81.17462807 23.86653244 83.81396484 26.49389648 C84.25146484 30.05639648 84.25146484 30.05639648 83.81396484 33.49389648 C80.58490159 35.64660532 79.74401876 35.67808265 76.09020996 35.02182007 C70.81567633 33.79851126 65.64092017 32.2179314 60.45458984 30.66967773 C59.14258837 30.28153761 57.83047257 29.89378375 56.51824951 29.50639343 C53.76712771 28.69312829 51.01698455 27.87666244 48.26757812 27.05761719 C44.80308042 26.02559424 41.33693671 24.99924778 37.87014008 23.97497749 C29.51093851 21.50487026 21.15907742 19.01122262 12.81396484 16.49389648 C11.76394287 16.17725037 10.7139209 15.86060425 9.63208008 15.53436279 C6.91399437 14.71025032 4.19918886 13.87642173 1.48583984 13.03686523 C0.71637024 12.80324783 -0.05309937 12.56963043 -0.84588623 12.32893372 C-5.9526339 10.72729774 -5.9526339 10.72729774 -8.18603516 8.49389648 C-8.56103516 5.55639648 -8.56103516 5.55639648 -8.18603516 2.49389648 C-5.37131417 -0.25888027 -3.81084296 -0.92217877 0 0 Z " fill="#3F98D8" transform="translate(153.18603515625,200.506103515625)"/>
<path d="M0 0 C4.03078367 0.19178753 7.53877216 0.98225211 11.36448669 2.15766907 C12.07442276 2.36742874 12.78435883 2.57718842 13.51580811 2.79330444 C15.84460249 3.48394 18.16905193 4.18811561 20.49363708 4.89277649 C22.12334031 5.37959014 23.75327295 5.86563636 25.38342285 6.35095215 C28.79359223 7.36829646 32.20182018 8.39181791 35.60862732 9.42036438 C39.95798004 10.73340911 44.31044125 12.03574088 48.66422176 13.33401966 C52.83764833 14.57903302 57.00944233 15.82947508 61.18113708 17.08027649 C61.96860762 17.31588602 62.75607815 17.55149555 63.56741142 17.79424477 C65.81708234 18.46840756 68.0655555 19.14642253 70.31370544 19.82563782 C71.29199814 20.11803345 71.29199814 20.11803345 72.29005432 20.41633606 C84.98814029 24.2700922 84.98814029 24.2700922 86.90379333 26.18574524 C87.09129333 29.62324524 87.09129333 29.62324524 86.90379333 33.18574524 C84.90379333 35.18574524 84.90379333 35.18574524 81.7844696 35.44546509 C77.57572319 35.16378867 73.8205018 34.25620676 69.81297302 33.03022766 C69.03648407 32.80096085 68.25999512 32.57169403 67.4599762 32.33547974 C64.91222677 31.58034498 62.36893218 30.81130904 59.82566833 30.04121399 C58.04940857 29.50975159 56.27297759 28.97886115 54.49638367 28.44851685 C50.78261814 27.33747643 47.07102371 26.21952442 43.36082458 25.09663391 C38.60433767 23.65769926 33.84285171 22.23618664 29.07961655 20.81977367 C25.41442163 19.72779936 21.75202666 18.6266722 18.09041595 17.52274513 C16.33537379 16.99483173 14.5794686 16.46977871 12.8227005 15.94763756 C10.37122759 15.2175245 7.92379595 14.47517564 5.47703552 13.72944641 C4.75075958 13.51581451 4.02448364 13.30218262 3.27619934 13.08207703 C-3.23543119 11.07078971 -3.23543119 11.07078971 -5.09620667 8.18574524 C-4.55049941 0.27299005 -4.55049941 0.27299005 0 0 Z " fill="#44A4DE" transform="translate(150.09620666503906,176.8142547607422)"/>
<path d="M0 0 C4.09638775 0.05628995 7.62937508 0.86304641 11.56124878 2.06013489 C12.229104 2.26014099 12.89695923 2.46014709 13.58505249 2.66621399 C15.76938439 3.32317114 17.94862136 3.99556418 20.12814331 4.66828918 C21.66187746 5.13289565 23.19591031 5.59651711 24.73022461 6.0592041 C28.7570689 7.27638297 32.77977455 8.50671365 36.80172729 9.73994446 C40.87037909 10.98501734 44.94275115 12.21778975 49.01486206 13.45149231 C55.65714233 15.46532675 62.29853435 17.48207396 68.93333244 19.52045155 C73.46050818 20.90893717 78.00322793 22.23345461 82.56591797 23.50024414 C84.38595581 24.18000793 84.38595581 24.18000793 86.38595581 26.18000793 C86.63595581 29.68000793 86.63595581 29.68000793 86.38595581 33.18000793 C84.38595581 35.18000793 84.38595581 35.18000793 82.50466919 35.30117798 C74.75351495 34.5132804 67.53847532 32.36911043 60.12033081 30.06672668 C58.75594472 29.65090533 57.39129457 29.23594955 56.02639771 28.82180786 C52.45205467 27.73493862 48.88114387 26.63720923 45.3109436 25.53681946 C41.00775469 24.21259413 36.70075871 22.90081907 32.39419937 21.58760548 C29.03541433 20.56320534 25.67722512 19.53700238 22.32095337 18.50439453 C21.09298035 18.12753006 19.86500732 17.75066559 18.599823 17.36238098 C17.41271729 16.99744537 16.22561157 16.63250977 15.00253296 16.2565155 C12.4914448 15.50906693 9.98725709 14.79304823 7.45785522 14.11546326 C6.20081787 13.7755838 4.94378052 13.43570435 3.64865112 13.08552551 C2.51759949 12.78979141 1.38654785 12.49405731 0.22122192 12.18936157 C-2.56661944 11.19689113 -3.95889824 10.61431659 -5.61404419 8.18000793 C-5.06731207 0.25239215 -5.06731207 0.25239215 0 0 Z " fill="#4DBBEA" transform="translate(150.61404418945313,129.8199920654297)"/>
<path d="M0 0 C3.51479568 0.99072018 7.01433439 2.02430409 10.51229858 3.07290649 C11.82283501 3.46116709 13.13352246 3.84891825 14.4443512 4.2361908 C17.18974211 5.04865701 19.93388845 5.86515131 22.67709351 6.68496704 C26.13344451 7.71788912 29.59175135 8.74404834 33.05088997 9.76759148 C45.20257134 13.36367409 57.34806347 16.9816382 69.44198608 20.76821899 C70.22008133 21.0102153 70.99817657 21.25221161 71.79985046 21.50154114 C76.93402382 23.12744423 76.93402382 23.12744423 78.05526733 24.24868774 C78.24276733 27.68618774 78.24276733 27.68618774 78.05526733 31.24868774 C76.05526733 33.24868774 76.05526733 33.24868774 72.75546265 33.6065979 C66.54249787 33.43731823 60.74194688 31.34944214 54.85214233 29.52212524 C53.56656949 29.13195964 52.28069429 28.74278907 50.99453735 28.35455322 C47.61266565 27.33086835 44.23495659 26.29407492 40.85800171 25.25430298 C37.4912 24.21999651 34.12080679 23.19754812 30.75057983 22.17446899 C26.82393325 20.98206649 22.89800093 19.78755098 18.97555542 18.58139038 C13.24365371 16.82041118 7.51008332 15.07788309 1.74472046 13.42935181 C0.8065448 13.15861847 -0.13163086 12.88788513 -1.09823608 12.60894775 C-2.80393865 12.11937894 -4.51218689 11.63855463 -6.22335815 11.16845703 C-11.7224147 9.5821647 -11.7224147 9.5821647 -13.94473267 6.24868774 C-14.29279778 3.4641668 -14.27144806 1.8612791 -12.94473267 -0.62631226 C-9.05115954 -2.81644714 -4.13450366 -1.05486766 0 0 Z " fill="#51C5EF" transform="translate(158.94473266601563,107.75131225585938)"/>
<path d="M0 0 C5.66204467 1.46000701 11.25644776 3.12144369 16.85546875 4.8046875 C18.48717811 5.28982838 20.11904225 5.77444891 21.75105286 6.25857544 C25.15736838 7.2708684 28.56204187 8.28845471 31.96557617 9.31005859 C36.31713032 10.6159019 40.67210591 11.90987035 45.02831554 13.20008659 C48.393391 14.19789948 51.75679991 15.20123436 55.11971474 16.20630264 C56.72475228 16.68543519 58.33024575 17.1630433 59.93620872 17.63906479 C62.18205627 18.30581894 64.42560789 18.9798082 66.66870117 19.65576172 C67.32494476 19.84912109 67.98118835 20.04248047 68.65731812 20.24169922 C72.66948947 21.46108752 76.30070648 23.03015546 80 25 C80.125 28.375 80.125 28.375 80 32 C78 34 78 34 74.79418945 34.23478699 C71.01088205 34.00067339 67.91546471 33.33457884 64.29296875 32.2434082 C63.34734322 31.96284828 63.34734322 31.96284828 62.38261414 31.67662048 C60.31469536 31.0605309 58.25118968 30.43087778 56.1875 29.80078125 C54.73151463 29.36358084 53.27529252 28.92716811 51.81884766 28.49150085 C48.76759078 27.57669444 45.71828533 26.65574632 42.67041016 25.72973633 C38.80815007 24.55631099 34.94295894 23.39296256 31.07643127 22.23368549 C27.3416195 21.11353864 23.60820747 19.98876147 19.875 18.86328125 C18.83803482 18.55107856 18.83803482 18.55107856 17.78012085 18.23256874 C8.12792171 15.32149502 -1.451364 12.23568766 -11 9 C-12.33987044 2.54426059 -12.33987044 2.54426059 -10.78962708 0.06173706 C-7.38582792 -1.95764438 -3.6721981 -0.77919266 0 0 Z " fill="#3A8DD2" transform="translate(157,225)"/>
<path d="M0 0 C1.2375 0.34695923 1.2375 0.34695923 2.5 0.70092773 C4.25715057 1.19727646 6.01232326 1.70067161 7.765625 2.21044922 C10.53529721 3.01019207 13.31312564 3.77446519 16.09375 4.53515625 C17.89629236 5.04264323 19.69838976 5.5517138 21.5 6.0625 C22.78100586 6.41151367 22.78100586 6.41151367 24.08789062 6.76757812 C29.97438895 8.48824687 29.97438895 8.48824687 32.57421875 11.01953125 C33.84083169 13.72912095 33.45423661 15.21069298 32.5 18 C30.5 20 30.5 20 27.36010742 20.25512695 C23.26668311 19.98457933 19.6294755 19.12798361 15.73828125 17.91796875 C15.02520309 17.70312332 14.31212494 17.48827789 13.57743835 17.266922 C12.08102964 16.81344773 10.58606676 16.35517713 9.0925293 15.89233398 C6.81232149 15.18744482 4.52691076 14.50193409 2.24023438 13.81835938 C0.78090128 13.37353827 -0.67809563 12.92761244 -2.13671875 12.48046875 C-2.81594894 12.27721481 -3.49517914 12.07396088 -4.19499207 11.86454773 C-7.80929678 10.73126983 -10.6359659 9.50165908 -13.5 7 C-13.01553557 0.45973017 -13.01553557 0.45973017 -10.984375 -1.3515625 C-7.10115273 -2.36510793 -3.74578406 -1.09416724 0 0 Z " fill="#3684CD" transform="translate(158.5,249)"/>
<path d="M0 0 C0.71495132 -0.00287018 1.42990265 -0.00574036 2.16651917 -0.00869751 C3.67522984 -0.01073443 5.18396714 -0.00523051 6.69262695 0.00732422 C8.99295627 0.02336116 11.29152254 0.00747686 13.59179688 -0.01171875 C15.06120177 -0.00973579 16.53060558 -0.00589101 18 0 C19.02522011 -0.00910904 19.02522011 -0.00910904 20.07115173 -0.0184021 C24.37105494 0.04440634 27.19252493 0.67840296 30.56640625 3.3984375 C31.12890625 6.3984375 31.12890625 6.3984375 30.56640625 9.3984375 C28.11320352 12.03257309 26.65591908 12.38939267 23.03881836 12.75488281 C21.64044437 12.76113975 20.24192875 12.7507522 18.84375 12.7265625 C18.10185928 12.72468933 17.35996857 12.72281616 16.59559631 12.72088623 C15.03137703 12.71417907 13.46717414 12.70029103 11.90307617 12.6796875 C9.50879321 12.64850115 7.11516921 12.63871081 4.72070312 12.6328125 C3.19921072 12.62364296 1.67772501 12.61326735 0.15625 12.6015625 C-0.55942642 12.59731262 -1.27510284 12.59306274 -2.01246643 12.58868408 C-5.08353919 12.54448565 -7.49759535 12.37710363 -10.43359375 11.3984375 C-11.84801249 8.56960003 -11.75259707 6.52467005 -11.43359375 3.3984375 C-8.13262035 -0.13939331 -4.55595327 -0.04035993 0 0 Z " fill="#091392" transform="translate(70.43359375,443.6015625)"/>
<path d="M0 0 C0.91652344 -0.00257813 1.83304688 -0.00515625 2.77734375 -0.0078125 C4.20240234 0.00378906 4.20240234 0.00378906 5.65625 0.015625 C6.60628906 0.00789063 7.55632812 0.00015625 8.53515625 -0.0078125 C9.90994141 -0.00394531 9.90994141 -0.00394531 11.3125 0 C12.14587891 0.00225586 12.97925781 0.00451172 13.83789062 0.00683594 C16.4051183 0.29340516 18.0037776 0.84298647 20.15625 2.265625 C21.15625 5.140625 21.15625 5.140625 21.15625 8.265625 C19.14068347 10.87525325 17.91796422 12.10804946 14.65429688 12.78320312 C13.73712891 12.78771484 12.81996094 12.79222656 11.875 12.796875 C10.86824219 12.80203125 9.86148438 12.8071875 8.82421875 12.8125 C7.25607422 12.78929687 7.25607422 12.78929687 5.65625 12.765625 C4.61082031 12.78109375 3.56539062 12.7965625 2.48828125 12.8125 C1.48152344 12.80734375 0.47476563 12.8021875 -0.5625 12.796875 C-1.47966797 12.79236328 -2.39683594 12.78785156 -3.34179688 12.78320312 C-6.60546422 12.10804946 -7.82818347 10.87525325 -9.84375 8.265625 C-9.84375 5.140625 -9.84375 5.140625 -8.84375 2.265625 C-5.89390564 0.31597759 -3.49016819 0.00944748 0 0 Z " fill="#091392" transform="translate(121.84375,443.734375)"/>
<path d="M0 0 C2.8197783 2.88581527 3.41141819 5.0182779 3.375 9 C3.38273437 9.845625 3.39046875 10.69125 3.3984375 11.5625 C2.91929727 14.49371079 2.05574238 15.87669801 0 18 C-3 18.5 -3 18.5 -6 18 C-8.09460444 15.85156227 -8.9310427 14.51964249 -9.328125 11.52734375 C-9.30234375 10.67269531 -9.2765625 9.81804688 -9.25 8.9375 C-9.23453125 8.08027344 -9.2190625 7.22304688 -9.203125 6.33984375 C-9 4 -9 4 -8 1 C-5.17116253 -0.41441874 -3.12623255 -0.31900332 0 0 Z " fill="#5CE1FD" transform="translate(325,31)"/>
<path d="M0 0 C2.6875 0.75 2.6875 0.75 4.625 2.4375 C5.6875 4.75 5.6875 4.75 5.8125 7.0625 C4.07193178 11.22052407 1.31459926 14.10199502 -2.3125 16.75 C-5.73983641 17.40910316 -7.24892688 17.42359631 -10.1875 15.5625 C-11.72365405 13.08758514 -11.63470371 11.63287531 -11.3125 8.75 C-8.39781942 4.51113713 -5.0643387 1.14664272 0 0 Z " fill="#5BDEFB" transform="translate(361.3125,46.25)"/>
<path d="M0 0 C4.82550807 1.02078055 7.37993724 3.77163355 10.25 7.6875 C11.375 10.9375 11.375 10.9375 11.25 13.6875 C10.1875 15.5625 10.1875 15.5625 8.25 16.6875 C5.5 17.3125 5.5 17.3125 2.25 16.6875 C-1.37709926 14.03949502 -4.13443178 11.15802407 -5.875 7 C-5.75 4.6875 -5.75 4.6875 -4.6875 2.375 C-2.75 0.6875 -2.75 0.6875 0 0 Z " fill="#5BDDFB" transform="translate(282.75,46.3125)"/>
<path d="M0 0 C1.71703125 -0.01160156 1.71703125 -0.01160156 3.46875 -0.0234375 C6.5 0.375 6.5 0.375 8.41796875 1.70703125 C9.5 3.375 9.5 3.375 9.3125 6.4375 C8.5 9.375 8.5 9.375 6.5 11.375 C3.56640625 11.67578125 3.56640625 11.67578125 0.0625 11.6875 C-1.66806641 11.71263672 -1.66806641 11.71263672 -3.43359375 11.73828125 C-6.5 11.375 -6.5 11.375 -8.38671875 10.01171875 C-9.98425709 7.66305712 -9.91650522 6.1517015 -9.5 3.375 C-6.98406769 -0.30213183 -4.22404134 -0.02854082 0 0 Z " fill="#57D2F5" transform="translate(270.5,85.625)"/>
</svg>
