<?xml version="1.0" encoding="UTF-8"?>
<svg version="1.1" xmlns="http://www.w3.org/2000/svg" width="512" height="512">
<path d="M0 0 C1.9028752 1.2028746 3.33249223 2.51031282 4.84765625 4.16796875 C8.03182571 2.63956741 11.04354005 0.89090237 14.06640625 -0.9296875 C21.65039729 -4.7715777 33.25629938 -3.8825091 41.34765625 -2.03125 C49.06371464 0.89241275 57.33355719 6.19998858 61.15234375 13.74609375 C63.5370061 17.15275425 66.64974544 18.03307928 70.41015625 19.41796875 C77.89740053 22.43593263 83.35784752 26.14282495 88.84765625 32.16796875 C89.42902344 32.80476563 90.01039063 33.4415625 90.609375 34.09765625 C95.79225984 40.39022676 100.3635825 48.8676258 99.84765625 57.16796875 C100.71390625 57.41546875 101.58015625 57.66296875 102.47265625 57.91796875 C106.33618315 59.34890464 109.90115189 61.22146439 112.84765625 64.16796875 C114.18218798 64.27429217 115.52212923 64.31412955 116.86083984 64.32568359 C117.71197357 64.33594574 118.5631073 64.34620789 119.44003296 64.35678101 C120.82903305 64.367733 120.82903305 64.367733 122.24609375 64.37890625 C124.18881052 64.40697403 126.13151875 64.43563849 128.07421875 64.46484375 C131.15103934 64.50614336 134.22770025 64.5430119 137.3046875 64.56933594 C140.26466231 64.59688384 143.22390078 64.64275678 146.18359375 64.69140625 C147.10554535 64.69465912 148.02749695 64.69791199 148.97738647 64.70126343 C149.83482452 64.7178299 150.69226257 64.73439636 151.57568359 64.75146484 C152.32989594 64.7595517 153.08410828 64.76763855 153.86117554 64.77597046 C156.38122812 65.27326011 157.25073066 66.19696886 158.84765625 68.16796875 C160.02191889 70.51649403 159.96273798 71.9057094 159.9453125 74.51953125 C159.94208984 75.3703125 159.93886719 76.22109375 159.93554688 77.09765625 C159.92716797 77.98710938 159.91878906 78.8765625 159.91015625 79.79296875 C159.90564453 80.69015625 159.90113281 81.58734375 159.89648438 82.51171875 C159.88468216 84.73053523 159.8682178 86.94921893 159.84765625 89.16796875 C160.50640747 89.1590863 161.16515869 89.15020386 161.84387207 89.14105225 C168.72232353 89.05231237 175.6006114 88.99212379 182.47949219 88.94824219 C185.04401255 88.92817147 187.6084874 88.90090874 190.17285156 88.86621094 C193.86665096 88.8174952 197.55984334 88.79495362 201.25390625 88.77734375 C202.96374695 88.74637604 202.96374695 88.74637604 204.70812988 88.71478271 C212.59181151 88.71257835 217.87756755 89.82325685 224.0546875 95.02734375 C224.58449219 95.65125 225.11429687 96.27515625 225.66015625 96.91796875 C226.20285156 97.5315625 226.74554688 98.14515625 227.3046875 98.77734375 C231.91409438 105.91900706 232.28192197 112.49692899 232.2353363 120.76852417 C232.24341461 122.49553643 232.24341461 122.49553643 232.25165612 124.25743783 C232.26593706 128.10646775 232.25883134 131.95515383 232.25170898 135.80419922 C232.25576989 138.56745289 232.2642763 141.33068913 232.27250671 144.09393311 C232.28967822 150.81527303 232.29053812 157.53651939 232.28529381 164.25787555 C232.28124761 169.72290246 232.28270101 175.18790179 232.28804207 180.6529274 C232.28879049 181.43160812 232.28953891 182.21028884 232.29031001 183.01256595 C232.29184154 184.59461037 232.29337989 186.17665479 232.29492498 187.75869919 C232.30864419 202.58565905 232.30321653 217.4125661 232.29173977 232.23952474 C232.28180917 245.792619 232.29474606 259.34557671 232.31867396 272.89864992 C232.34307929 286.82749852 232.35266924 300.75628357 232.34602123 314.68515313 C232.34253204 322.50012249 232.34474114 330.31498687 232.36227226 338.12994003 C232.37701225 344.78300137 232.37760638 351.43588379 232.36020135 358.08894168 C232.35170323 361.48071785 232.35168974 364.87191306 232.36485291 368.26371384 C232.37805535 371.94725823 232.36652014 375.62993859 232.34886169 379.31344604 C232.3584667 380.37610809 232.36807171 381.43877014 232.37796777 382.53363407 C232.29798527 390.66118131 230.73509484 397.67264835 225.47265625 404.04296875 C215.25513422 412.31429611 206.45068985 412.4690072 193.7109375 412.48681641 C192.18267798 412.49612589 190.65442349 412.50629606 189.12617493 412.51725769 C184.99662572 412.54445688 180.86711044 412.55967706 176.73749542 412.57268572 C172.41463856 412.58836056 168.09185052 412.61513683 163.76904297 412.64071655 C155.59178852 412.68742745 147.41452101 412.72420869 139.23720169 412.75738943 C129.92397057 412.79566526 120.6108087 412.84506106 111.29763603 412.89537358 C92.14769352 412.99857903 72.99770868 413.08787633 53.84765625 413.16796875 C54.52924805 414.92439697 54.52924805 414.92439697 55.22460938 416.71630859 C56.90523293 421.04980376 58.58146111 425.38498774 60.25634766 429.72070312 C60.98268237 431.59909895 61.71021774 433.47703096 62.43896484 435.35449219 C63.48458754 438.04892674 64.52591964 440.74498489 65.56640625 443.44140625 C66.05856628 444.70553848 66.05856628 444.70553848 66.56066895 445.99520874 C67.01113586 447.16619614 67.01113586 447.16619614 67.47070312 448.36083984 C67.73717651 449.04922943 68.0036499 449.73761902 68.27819824 450.4468689 C68.84765625 452.16796875 68.84765625 452.16796875 68.84765625 454.16796875 C69.50054123 454.1590863 70.15342621 454.15020386 70.82609558 454.14105225 C77.62298831 454.05253959 84.41971724 453.99221789 91.21704102 453.94824219 C93.753567 453.92813034 96.29004665 453.90083714 98.82641602 453.86621094 C102.47293536 453.81767633 106.11884153 453.79499512 109.765625 453.77734375 C111.46588081 453.74637604 111.46588081 453.74637604 113.20048523 453.71478271 C117.73176339 453.71349208 120.96334949 453.73242368 125.06567383 455.75292969 C127.48288066 459.02885926 127.46434888 461.14671522 127.44140625 465.19921875 C127.44144653 465.87214966 127.44148682 466.54508057 127.44152832 467.23840332 C127.43618105 468.6572405 127.41863132 470.0760777 127.38964844 471.49462891 C127.34778305 473.66140631 127.34858121 475.82507371 127.35546875 477.9921875 C127.27809368 488.17911807 127.27809368 488.17911807 125.90266418 491.33891392 C122.54571427 494.32675905 118.88894135 493.71512407 114.54760742 493.66917419 C113.58344249 493.67470859 112.61927755 493.68024299 111.6258955 493.68594509 C108.38054667 493.69960737 105.13595948 493.6845519 101.890625 493.66967773 C99.56995312 493.67345887 97.2492835 493.67895721 94.92861938 493.68605042 C88.61465199 493.70004895 82.30095575 493.68880428 75.98700333 493.6723392 C69.39001484 493.65852255 62.79304264 493.66494491 56.19604492 493.66847229 C45.11600524 493.67190808 34.03606777 493.65776277 22.95605469 493.63452148 C11.55041489 493.61059978 0.1449182 493.60351681 -11.26074219 493.61401367 C-24.99705378 493.62663279 -38.73326451 493.62413871 -52.46957397 493.60835457 C-57.71993556 493.60258491 -62.97024926 493.60268514 -68.22061157 493.60741997 C-74.39954005 493.61218028 -80.57826958 493.60212722 -86.75716019 493.58046532 C-89.02960158 493.57488438 -91.30206205 493.57444404 -93.57450485 493.57941818 C-96.66732489 493.58534072 -99.7595304 493.57292406 -102.85229492 493.5556488 C-103.75977384 493.56165885 -104.66725275 493.56766889 -105.60223103 493.57386106 C-106.84153763 493.56120115 -106.84153763 493.56120115 -108.10588074 493.54828548 C-109.17710064 493.54674179 -109.17710064 493.54674179 -110.26996136 493.54516691 C-112.75013143 493.04818203 -113.63649667 492.16452071 -115.15234375 490.16796875 C-115.74557785 485.62662377 -115.6673135 481.06477609 -115.65332031 476.48950195 C-115.65234832 474.24104625 -115.69395731 471.99600927 -115.73828125 469.74804688 C-115.7434889 468.31641335 -115.74617643 466.88476799 -115.74609375 465.453125 C-115.75318359 464.1525415 -115.76027344 462.85195801 -115.76757812 461.51196289 C-115.15234375 458.16796875 -115.15234375 458.16796875 -113.37036133 455.73706055 C-108.36244608 453.2952222 -103.56553245 453.67725623 -98.0703125 453.77734375 C-96.90099686 453.78300354 -95.73168121 453.78866333 -94.52693176 453.79449463 C-90.7974835 453.81685939 -87.06900095 453.86705875 -83.33984375 453.91796875 C-80.80925868 453.9380335 -78.27865853 453.9562843 -75.74804688 453.97265625 C-69.54913961 454.01672474 -63.3508412 454.0852489 -57.15234375 454.16796875 C-57.00756592 453.63316895 -56.86278809 453.09836914 -56.71362305 452.54736328 C-54.33260154 444.17630178 -51.1400461 436.13476332 -47.96484375 428.04296875 C-47.40003518 426.5951907 -46.83557938 425.14727497 -46.27148438 423.69921875 C-44.90249571 420.18720304 -43.5287596 416.67707991 -42.15234375 413.16796875 C-43.33675961 413.16438622 -43.33675961 413.16438622 -44.54510307 413.16073132 C-63.78438775 413.10151893 -83.02354482 413.02592896 -102.26269341 412.93225384 C-111.56671895 412.88734498 -120.87070665 412.84791903 -130.17480469 412.8215332 C-138.28705864 412.79851331 -146.39919229 412.76507082 -154.51135075 412.71926719 C-158.80414352 412.69538869 -163.09681754 412.67662478 -167.38967514 412.67035484 C-171.43626993 412.66427958 -175.4825611 412.64419228 -179.5290432 412.61369324 C-181.00837401 412.60495196 -182.48774457 412.60118226 -183.96710014 412.60296059 C-194.30393333 412.61145763 -205.03139527 412.36608217 -213.15234375 405.16796875 C-217.51247521 399.02274817 -220.27059561 393.88622915 -220.28656483 386.29961205 C-220.29102267 385.31549729 -220.29548051 384.33138253 -220.30007344 383.31744611 C-220.29988908 382.23867126 -220.29970472 381.1598964 -220.29951477 380.0484314 C-220.30319146 378.90050759 -220.30686815 377.75258378 -220.31065625 376.56987441 C-220.31977369 373.38296766 -220.32439072 370.19609118 -220.32704556 367.00917363 C-220.33095289 363.5720663 -220.34053094 360.13497381 -220.34925842 356.69787598 C-220.36901088 348.3968686 -220.37908757 340.09586003 -220.38798621 331.79483503 C-220.39237118 327.88406224 -220.39773745 323.9732908 -220.40297508 320.06251907 C-220.41998627 307.05930296 -220.4344799 294.05608769 -220.44172382 281.05286217 C-220.44363366 277.6792844 -220.445554 274.30570664 -220.44750977 270.93212891 C-220.44799351 270.09366065 -220.44847725 269.2551924 -220.44897565 268.39131601 C-220.45727395 254.81211167 -220.48260798 241.23299548 -220.51509044 227.65382962 C-220.54817983 213.70703988 -220.56617429 199.76029491 -220.56936806 185.81346571 C-220.57153144 177.9850077 -220.58025475 170.15667823 -220.60582924 162.32825851 C-220.62756197 155.66047909 -220.63557407 148.99285944 -220.62586246 142.32504861 C-220.62132512 138.92525967 -220.62317034 135.52580019 -220.6426239 132.12605667 C-220.66031938 128.43356333 -220.65324686 124.74190199 -220.64009094 121.04940796 C-220.65106019 119.98401743 -220.66202943 118.91862691 -220.67333108 117.82095182 C-220.59030732 108.14783897 -218.19843617 100.51121237 -211.2265625 93.640625 C-204.26367533 88.69710624 -197.96025104 88.76271024 -189.65625 88.875 C-187.87322731 88.88136726 -187.87322731 88.88136726 -186.05418396 88.88786316 C-182.27416918 88.90459624 -178.4946962 88.94223985 -174.71484375 88.98046875 C-172.14519002 88.99552247 -169.57552789 89.00920967 -167.00585938 89.02148438 C-160.7211707 89.05448227 -154.43679594 89.10462871 -148.15234375 89.16796875 C-148.16281738 88.61334961 -148.17329102 88.05873047 -148.18408203 87.48730469 C-148.22576379 84.96423916 -148.25170813 82.44124622 -148.27734375 79.91796875 C-148.29410156 79.04527344 -148.31085938 78.17257813 -148.328125 77.2734375 C-148.33457031 76.42910156 -148.34101563 75.58476563 -148.34765625 74.71484375 C-148.35812988 73.93979492 -148.36860352 73.16474609 -148.37939453 72.36621094 C-148.1214527 69.86889026 -147.47994781 68.28957208 -146.15234375 66.16796875 C-143.87095882 65.02727629 -142.59189462 65.03797037 -140.05737305 65.02612305 C-139.21277023 65.01908859 -138.36816742 65.01205414 -137.49797058 65.00480652 C-136.12612358 64.9985601 -136.12612358 64.9985601 -134.7265625 64.9921875 C-132.79621308 64.96898735 -130.8658745 64.94486994 -128.93554688 64.91992188 C-125.88737759 64.88481207 -122.83960661 64.85546771 -119.79125977 64.84204102 C-116.85253455 64.82655774 -113.91497855 64.78634293 -110.9765625 64.7421875 C-110.06807053 64.74409592 -109.15957855 64.74600433 -108.22355652 64.74797058 C-102.8544086 64.6442983 -100.11429544 64.10765446 -96.15234375 60.16796875 C-90.68805804 57.16796875 -90.68805804 57.16796875 -88.15234375 57.16796875 C-88.13171875 56.13671875 -88.11109375 55.10546875 -88.08984375 54.04296875 C-86.56690686 42.43571998 -79.10356279 32.25326312 -70.15234375 25.16796875 C-65.28636044 21.97593792 -60.4010536 19.49840644 -54.83984375 17.79296875 C-50.69132721 16.36797018 -49.04728564 13.74950414 -46.625 10.22265625 C-36.42521707 -4.00834062 -15.35311849 -7.06730851 0 0 Z " fill="#0101CB" transform="translate(250.15234375,10.83203125)"/>
<path d="M0 0 C7.26 0 14.52 0 22 0 C21.67 2.64 21.34 5.28 21 8 C20.04162237 17.22242077 22.39727178 26.8590841 27.8125 34.4375 C37.99610959 46.53053638 48.86777391 48.67962206 64 50 C64.02578125 50.67546875 64.0515625 51.3509375 64.078125 52.046875 C64.13484375 52.93890625 64.1915625 53.8309375 64.25 54.75 C64.29640625 55.63171875 64.3428125 56.5134375 64.390625 57.421875 C65.19689556 60.83301968 66.20908192 61.87474464 69 64 C71.80696003 64.41786702 74.23851941 64.60474313 77.046875 64.609375 C77.81807678 64.62591125 78.58927856 64.64244751 79.3838501 64.65948486 C81.83931454 64.70794593 84.29415984 64.72933037 86.75 64.75 C88.41799987 64.77816146 90.08597092 64.80808914 91.75390625 64.83984375 C95.83622167 64.91702185 99.91658551 64.95755286 104 65 C104 71.27 104 77.54 104 84 C95.89769821 89.03324808 95.89769821 89.03324808 91.625 88.875 C89.75 88.25 87.875 87.625 86 87 C79.78836412 86.47359018 75.0575792 87.13112012 70 91 C68.24550511 93.27022538 67.22070565 95.36327581 66 98 C65.67 98.66 65.34 99.32 65 100 C64.45704054 105.42959458 65.5151464 108.68822749 68.125 113.30078125 C69 115 69 115 69 117 C70.32338632 117.68620031 71.65949948 118.34786461 73 119 C73.7425 119.37125 74.485 119.7425 75.25 120.125 C80.67378351 121.8507493 85.14216116 121.66191563 90.25 119.3125 C93.73567473 117.33728432 95.99104133 115.55431149 98 112 C98.25577471 110.35809135 98.48230293 108.71149329 98.6875 107.0625 C99.21162878 103.93628058 99.556912 102.43462135 101.83984375 100.1953125 C104.17059489 98.65741517 106.53493263 97.31078979 109 96 C110.50718033 95.09518773 112.00777675 94.1792726 113.5 93.25 C114.1496875 92.86328125 114.799375 92.4765625 115.46875 92.078125 C117.16513994 91.06461786 117.16513994 91.06461786 118 89 C118.15306901 87.18828902 118.24946661 85.3716206 118.31640625 83.5546875 C118.35830078 82.47832031 118.40019531 81.40195313 118.44335938 80.29296875 C118.48267578 79.16503906 118.52199219 78.03710938 118.5625 76.875 C118.62727539 75.17150391 118.62727539 75.17150391 118.69335938 73.43359375 C118.79965945 70.62254739 118.90035397 67.8112901 119 65 C123.29 65 127.58 65 132 65 C132.14836451 70.76567303 132.25722333 76.53023468 132.32958984 82.29736328 C132.35975617 84.25882317 132.40069608 86.22014824 132.45263672 88.18115234 C132.52546116 91.00131462 132.55945652 93.81969385 132.5859375 96.640625 C132.63238907 97.95489471 132.63238907 97.95489471 132.67977905 99.29571533 C132.68109528 101.67890123 132.62841075 103.70024869 132 106 C129.0546875 108.46875 129.0546875 108.46875 126 110 C122.78666276 114.08970195 121.29913106 118.80492842 121.625 123.98828125 C122.67261775 129.60831395 124.99797071 133.67708005 129.6875 137 C134.13401105 139.43361922 138.03290978 139.92753692 143 139 C148.85633108 137.14463139 152.06700482 134.51403094 155 129 C157.12590904 122.62227287 156.3034884 117.73883927 153.4609375 111.859375 C152.00047353 109.72880424 152.00047353 109.72880424 148.9453125 108.46875 C146 106 146 106 145.46939087 104.0581665 C145.30453294 101.56581408 145.32583177 99.13696658 145.4140625 96.640625 C145.42255219 95.73624695 145.43104187 94.8318689 145.43978882 93.90008545 C145.47333915 91.01550443 145.54861924 88.13373379 145.625 85.25 C145.65509759 83.29300916 145.68247376 81.33597445 145.70703125 79.37890625 C145.77313569 74.58485698 145.87666714 69.79290469 146 65 C150.29 65 154.58 65 159 65 C159.01417969 66.67449219 159.02835938 68.34898437 159.04296875 70.07421875 C159.08987204 72.2786733 159.1381194 74.48309955 159.1875 76.6875 C159.19330078 77.79029297 159.19910156 78.89308594 159.20507812 80.02929688 C159.31992027 86.44079252 159.31992027 86.44079252 162.1328125 92.0390625 C165.22656874 94.15495573 168.37003282 95.94365465 171.6875 97.6875 C177.5648176 101.0120596 177.5648176 101.0120596 179.11328125 104.52734375 C179.36725474 106.23332728 179.5657916 107.9486602 179.703125 109.66796875 C180.21185838 113.66420329 182.08879621 115.28728738 185 118 C189.51904698 121.01269798 193.66174088 121.74487337 199 121 C205.8371965 118.91407565 208.79431852 115.70955521 212.375 109.6875 C213.57097939 104.54478864 212.90752139 99.70614021 210.4375 95.0625 C209.963125 94.381875 209.48875 93.70125 209 93 C209 92.34 209 91.68 209 91 C207.67661368 90.31379969 206.34050052 89.65213539 205 89 C204.278125 88.62875 203.55625 88.2575 202.8125 87.875 C197.16297107 86.11736878 192.22707803 86.31117385 187 89 C181.41130021 88.75161334 179.26475975 87.00843414 174 84 C174 77.73 174 71.46 174 65 C176.48015625 64.97421875 178.9603125 64.9484375 181.515625 64.921875 C183.92182693 64.88344471 186.32781527 64.83828791 188.73388672 64.79248047 C190.40403011 64.76428282 192.07430665 64.74306221 193.74462891 64.72900391 C196.14815372 64.70755663 198.55007983 64.66090155 200.953125 64.609375 C202.0705307 64.60753204 202.0705307 64.60753204 203.21051025 64.60565186 C206.69693378 64.50750064 208.65492765 64.26276904 211.46484375 62.12304688 C213.32348705 59.55263305 213.58439163 57.89655898 213.75 54.75 C213.80671875 53.85796875 213.8634375 52.9659375 213.921875 52.046875 C213.94765625 51.37140625 213.9734375 50.6959375 214 50 C214.81082031 49.97421875 215.62164062 49.9484375 216.45703125 49.921875 C229.10656303 49.27393624 239.21549563 46.17684952 248.125 36.875 C254.01542554 30.04976505 257.15807439 21.73334545 257.125 12.6875 C257.12886719 11.64142578 257.12886719 11.64142578 257.1328125 10.57421875 C256.95016184 7.03401921 256.43969175 3.51753397 256 0 C263.26 0 270.52 0 278 0 C278 58.08 278 116.16 278 176 C220.125 176.3125 220.125 176.3125 201.89111328 176.38793945 C196.46920881 176.42452946 196.46920881 176.42452946 191.04733276 176.4650116 C188.64363556 176.48109813 186.23989543 176.49142895 183.83615112 176.49711609 C180.18236547 176.5069014 176.52913505 176.53529359 172.87548828 176.56762695 C171.2853123 176.56548801 171.2853123 176.56548801 169.66301155 176.56330585 C161.13998947 176.67050164 153.80559416 178.61757587 146 182 C145.97812622 180.61494263 145.97812622 180.61494263 145.95581055 179.2019043 C145.89473692 175.77422796 145.8205839 172.34735338 145.73754883 168.92016602 C145.70430577 167.43720146 145.67627177 165.95411056 145.65356445 164.47094727 C145.62000532 162.33815707 145.56769362 160.20652388 145.51171875 158.07421875 C145.48553467 156.79119873 145.45935059 155.50817871 145.43237305 154.1862793 C145.25503377 151.05195559 145.25503377 151.05195559 143.65551758 149.08129883 C141.04859551 147.37859158 139.0253275 147.62183406 136 148 C134.20668071 149.02493436 134.20668071 149.02493436 133 151 C132.49141092 154.29271596 132.49141092 154.29271596 132.48828125 158.07421875 C132.47033005 158.7580513 132.45237885 159.44188385 132.43388367 160.1464386 C132.37977925 162.32673 132.3458866 164.50680256 132.3125 166.6875 C132.2793268 168.16734817 132.24483713 169.64716745 132.20898438 171.12695312 C132.12158362 174.75103576 132.05970334 178.37535997 132 182 C131.30470184 181.64726517 130.60940369 181.29453033 129.89303589 180.93110657 C117.30484605 175.46551276 104.3229855 176.26764938 90.8203125 176.29296875 C88.49144203 176.28042282 86.16258244 176.26565838 83.83374023 176.24865723 C75.26426581 176.20147314 66.69459906 176.19699863 58.125 176.1875 C38.94375 176.125625 19.7625 176.06375 0 176 C0 117.92 0 59.84 0 0 Z " fill="#C7D2FD" transform="translate(117,90)"/>
<path d="M0 0 C1.11503906 0.00644531 2.23007812 0.01289062 3.37890625 0.01953125 C4.53777344 0.03628906 5.69664063 0.05304688 6.890625 0.0703125 C8.65212891 0.08384766 8.65212891 0.08384766 10.44921875 0.09765625 C13.34656036 0.12121187 16.24348941 0.15410598 19.140625 0.1953125 C19.14209156 1.28937031 19.14355812 2.38342812 19.14506912 3.51063919 C19.18163341 30.10827579 19.24104257 56.70578617 19.32452774 83.30331802 C19.36436912 96.16559311 19.39673569 109.02780655 19.41162109 121.89013672 C19.42461119 133.09847468 19.45150812 144.30667731 19.49523807 155.51493907 C19.51791234 161.45188633 19.53353211 167.3886663 19.53250885 173.32566071 C19.53176576 178.9103874 19.54957492 184.49474346 19.58179283 190.07937431 C19.59033198 192.13207498 19.59201473 194.18481702 19.58642769 196.23752785 C19.5798266 199.03478644 19.59761456 201.83085231 19.62164307 204.62799072 C19.61388265 205.44511134 19.60612223 206.26223197 19.59812665 207.10411382 C19.64952704 210.47133455 19.74358734 212.66802823 21.8026216 215.40252042 C24.76149197 217.67139623 26.35192388 217.69639336 30.05648804 217.69867706 C31.2742071 217.70910805 32.49192616 217.71953904 33.74654579 217.73028612 C35.09975035 217.72163768 36.45295254 217.71261104 37.80615234 217.70324707 C39.24219076 217.70785463 40.67822447 217.71420657 42.11424828 217.72215605 C46.06536396 217.73889273 50.01609444 217.73058354 53.96721172 217.71821117 C58.22631664 217.70918064 62.48535417 217.72312045 66.7444458 217.73413086 C75.08996175 217.75194208 83.43533402 217.74806454 91.78085566 217.7364803 C98.56182188 217.72745647 105.34274776 217.72621741 112.12371826 217.73057556 C113.08784712 217.73118849 114.05197598 217.73180143 115.04532087 217.73243293 C117.00376782 217.7337118 118.96221476 217.73500865 120.92066169 217.7363233 C139.29647273 217.74773672 157.67220404 217.73460344 176.048002 217.71312183 C191.82435899 217.69525016 207.60059826 217.69835405 223.37695312 217.71679688 C241.68581647 217.73819014 259.99460987 217.74663801 278.30348396 217.73434782 C280.25483321 217.73307359 282.20618247 217.73181611 284.15753174 217.73057556 C285.11769931 217.72995846 286.07786689 217.72934136 287.06713045 217.72870556 C293.84203223 217.72524802 300.61688974 217.73108968 307.39178467 217.74049377 C315.64516623 217.751698 323.89839557 217.74870701 332.15175962 217.7273708 C336.36492258 217.71683906 340.57783151 217.71277449 344.79099274 217.72596741 C348.64503491 217.73785351 352.49858668 217.73139198 356.35258412 217.7100572 C357.74956057 217.70557497 359.14657813 217.70789363 360.54352832 217.71756035 C362.43724465 217.72966325 364.33107643 217.71489839 366.22476196 217.69867706 C367.27821619 217.69802765 368.33167042 217.69737824 369.4170475 217.69670916 C372.8676388 217.06147299 374.04934148 215.97263319 376.140625 213.1953125 C376.53672045 210.21669818 376.68789644 207.60668911 376.65960693 204.62799072 C376.66710819 203.75477637 376.67460944 202.88156202 376.682338 201.98188663 C376.7026676 199.05050993 376.69450216 196.11990284 376.68652344 193.18847656 C376.69525557 191.08938326 376.70574009 188.99029662 376.71784973 186.89122009 C376.74577422 181.18704073 376.74911299 175.48307787 376.74812984 169.77884007 C376.7512534 163.81969382 376.77685997 157.86064588 376.80010986 151.90155029 C376.84071614 140.61461605 376.86102147 129.32773965 376.87408376 118.04074359 C376.88993812 105.19199201 376.92834716 92.34333908 376.96867704 79.49464464 C377.05113935 53.06156701 377.10519191 26.62849204 377.140625 0.1953125 C381.18204715 0.07868989 385.22303365 0.007919 389.265625 -0.0546875 C390.40773438 -0.08820313 391.54984375 -0.12171875 392.7265625 -0.15625 C402.23693774 -0.26683576 402.23693774 -0.26683576 405.8203125 1.8984375 C409.34698267 5.38948474 410.2374886 8.51353991 410.38672066 13.38692951 C410.39510454 15.08803692 410.39244341 16.78922019 410.38113403 18.49031067 C410.38370209 19.89602577 410.38370209 19.89602577 410.38632202 21.33013916 C410.38963358 24.48164463 410.37858338 27.63293776 410.36767578 30.78442383 C410.36706317 33.07785123 410.36733 35.371279 410.3684063 37.66470623 C410.36885819 43.81167689 410.35725846 49.95856984 410.34318542 56.10552216 C410.33180362 61.87157946 410.33125962 67.63761778 410.32983398 73.40368652 C410.31933534 90.27173883 410.29141309 107.13977664 410.265625 124.0078125 C410.224375 161.6896875 410.183125 199.3715625 410.140625 238.1953125 C270.220625 238.1953125 130.300625 238.1953125 -13.859375 238.1953125 C-13.941875 200.3690625 -14.024375 162.5428125 -14.109375 123.5703125 C-14.14579102 111.61731934 -14.18220703 99.66432617 -14.21972656 87.34912109 C-14.23779297 72.77661133 -14.23779297 72.77661133 -14.2411499 65.95913696 C-14.24488334 61.18765862 -14.25990023 56.41635747 -14.28167725 51.64492798 C-14.3090725 45.56213346 -14.3173473 39.47959736 -14.3116641 33.39674687 C-14.31285284 31.16219299 -14.32080913 28.92763025 -14.33623552 26.6931293 C-14.35608769 23.67793397 -14.35135222 20.66374681 -14.34039307 17.64852905 C-14.35204372 16.77134027 -14.36369438 15.8941515 -14.37569809 14.99038124 C-14.32295801 9.60358104 -13.54610266 6.40390576 -9.859375 2.1953125 C-6.68013576 -0.10465036 -3.85589072 -0.03934582 0 0 Z " fill="#C6D1FD" transform="translate(57.859375,113.8046875)"/>
<path d="M0 0 C139.92 0 279.84 0 424 0 C424 35.839854 424 35.839854 419.24258417 40.8512302 C416.11206973 42.45484468 413.63135917 42.37740433 410.1186533 42.38031673 C409.42330269 42.38497665 408.72795209 42.38963657 408.01153025 42.3944377 C405.66997758 42.4064356 403.32900004 42.39697417 400.98744202 42.38768005 C399.2963815 42.39185088 397.60532379 42.39732702 395.9142713 42.40399987 C391.25826106 42.41850615 386.60242706 42.41419364 381.94640696 42.40683305 C376.92859441 42.40211646 371.91082082 42.41459782 366.89302063 42.42485046 C357.05927313 42.44207344 347.22558942 42.44287124 337.39183075 42.43763756 C329.40140084 42.43360117 321.41098984 42.43503309 313.42056084 42.44038582 C311.71669204 42.44150845 311.71669204 42.44150845 309.97840164 42.44265376 C307.67102643 42.44418519 305.36365122 42.44572354 303.05627602 42.44726873 C281.40324458 42.4610064 259.75024924 42.45554716 238.09721863 42.44408352 C218.27444473 42.43414952 198.45176416 42.44709248 178.62900466 42.47101771 C158.28975096 42.49538196 137.95054077 42.50502319 117.61127275 42.49836498 C106.18639344 42.49486685 94.76158592 42.49714397 83.33671761 42.51461601 C73.61105002 42.52930457 63.88550479 42.53001735 54.1598397 42.5125451 C49.19518755 42.50400512 44.23075428 42.50195837 39.26611328 42.51719666 C34.72431262 42.53096482 30.18291996 42.52638278 25.64114337 42.50695742 C23.99515649 42.50317277 22.34913752 42.50618971 20.70317901 42.51656907 C18.47068545 42.52964973 16.23961886 42.51823762 14.00718784 42.50057125 C12.76577205 42.50046391 11.52435626 42.50035658 10.24532181 42.50024599 C6.3242232 41.89583325 4.73018602 40.84773426 2 38 C-2.71079302 26.22301745 0 12.68419839 0 0 Z " fill="#6481FC" transform="translate(44,366)"/>
<path d="M0 0 C3.96 0 7.92 0 12 0 C12.00238835 0.96613629 12.00477671 1.93227259 12.00723743 2.92768574 C12.06597493 26.41220668 12.14182193 49.89662456 12.23571491 73.38103199 C12.28072241 84.73781724 12.32012557 96.09457079 12.34643555 107.45141602 C12.36937558 117.3475167 12.40272863 127.24351745 12.44870156 137.13953894 C12.47268781 142.38169995 12.49138111 147.62376166 12.49761391 152.86597633 C12.50364041 157.79650214 12.5235515 162.7267737 12.55427551 167.65720558 C12.56309496 169.47005451 12.56677029 171.2829366 12.56500816 173.09580612 C12.56336547 175.56484443 12.57996767 178.03309834 12.60127258 180.50202942 C12.59642501 181.22478917 12.59157743 181.94754893 12.58658296 182.6922105 C12.60833923 186.41933008 12.60833923 186.41933008 14.2106263 189.68298036 C16.59164075 191.43546101 18.07063227 191.37593454 21.01473999 191.37752342 C22.05691492 191.38534666 23.09908985 191.39316991 24.17284584 191.40123022 C25.32156355 191.39453805 26.47028126 191.38784589 27.65380859 191.38095093 C28.87115377 191.3856309 30.08849895 191.39031087 31.34273338 191.39513266 C34.72800807 191.40505206 38.11278582 191.40145019 41.49803066 191.39217401 C45.14634885 191.38540399 48.79462267 191.39585454 52.44293213 191.40411377 C59.5924131 191.41747526 66.74179975 191.41456265 73.89128447 191.40587585 C79.7002156 191.39910919 85.50912025 191.39817816 91.3180542 191.4014473 C92.14383921 191.401907 92.96962422 191.40236669 93.82043302 191.40284032 C95.49783723 191.40379947 97.17524144 191.40477211 98.85264564 191.4057581 C114.5931006 191.41431907 130.3335032 191.40446679 146.07394958 191.388357 C159.58903949 191.37495317 173.10405211 191.37728107 186.61914062 191.39111328 C202.30208167 191.40715663 217.98497678 191.41349503 233.66792488 191.40427649 C235.33926518 191.40332081 237.01060549 191.4023777 238.6819458 191.4014473 C239.91554244 191.40075306 239.91554244 191.40075306 241.17406023 191.40004479 C246.97809154 191.39745116 252.78209379 191.40183392 258.58612061 191.40888596 C265.65632864 191.41728735 272.72643671 191.41504961 279.79663324 191.39904372 C283.40610667 191.39114256 287.01541325 191.38810057 290.62488556 191.39799118 C294.5320825 191.40853593 298.43900438 191.39597175 302.34619141 191.38095093 C304.06926797 191.39098918 304.06926797 191.39098918 305.82715416 191.40123022 C306.86932909 191.39340697 307.91150402 191.38558373 308.98526001 191.37752342 C310.33899184 191.37679284 310.33899184 191.37679284 311.72007179 191.37604749 C314.48488911 190.92002321 315.37592589 190.25774446 317 188 C317.30017954 185.4213693 317.41603164 183.08204025 317.39872742 180.50202942 C317.40869766 179.34662274 317.40869766 179.34662274 317.41886932 178.16787452 C317.43756701 175.57898696 317.43488953 172.99055883 317.43237305 170.40161133 C317.44138609 168.54896895 317.45171217 166.69633256 317.46325684 164.84370422 C317.49090677 159.80683682 317.50012218 154.7700823 317.50611091 149.73314881 C317.51547382 144.47201172 317.54167545 139.21095964 317.56611633 133.94987488 C317.60984247 123.98393839 317.63835185 114.01801834 317.66143972 104.05201501 C317.68845865 92.70749341 317.73237216 81.36305709 317.77772844 70.01859629 C317.87066228 46.67911038 317.94230296 23.33959773 318 0 C321.96 0 325.92 0 330 0 C330 67.32 330 134.64 330 204 C221.1 204 112.2 204 0 204 C0 136.68 0 69.36 0 0 Z " fill="#6481FC" transform="translate(91,114)"/>
<path d="M0 0 C4.52299914 5.19341219 4.53920365 9.44595702 4.390625 15.9921875 C4.38496521 16.93812775 4.37930542 17.88406799 4.37347412 18.8586731 C4.35117571 21.86464142 4.30099138 24.86939511 4.25 27.875 C4.22992656 29.91925356 4.21167727 31.96352589 4.1953125 34.0078125 C4.15133228 39.00567265 4.08234985 44.00263075 4 49 C0.535 49.495 0.535 49.495 -3 50 C-3.37125 51.2375 -3.37125 51.2375 -3.75 52.5 C-4.1625 53.655 -4.575 54.81 -5 56 C-5.23332031 56.68449219 -5.46664062 57.36898437 -5.70703125 58.07421875 C-6.97417602 61.20447135 -8.09026209 63.37304361 -10.91015625 65.31640625 C-14.42551293 66.79818799 -16.85311401 67.33917055 -20.5625 66.2421875 C-23.125 65.125 -23.125 65.125 -25.4453125 63.8828125 C-29.11834364 62.61353874 -31.26118891 62.94443049 -35 64 C-37.59543518 65.81112014 -39.70589944 67.95537279 -41.875 70.25 C-42.45507812 70.82363281 -43.03515625 71.39726563 -43.6328125 71.98828125 C-47.84017052 76.26972572 -47.84017052 76.26972572 -49 82 C-48.09681919 85.0549987 -46.91933142 87.91946367 -45.71484375 90.8671875 C-44.81592163 94.80672598 -45.6502916 97.24715225 -47 101 C-50.94668939 101.12509012 -54.89258657 101.21502442 -58.84082031 101.2746582 C-60.83179353 101.31169623 -62.82221653 101.37528228 -64.8125 101.43945312 C-72.9367389 101.5420319 -79.30835938 100.89482634 -86 96 C-91.30760945 90.56352598 -93.53334934 85.19985596 -94.375 77.625 C-93.68828024 70.98670901 -90.74376225 64.74376225 -86 60 C-83.75 59.1875 -83.75 59.1875 -82 59 C-81.34 60.98 -80.68 62.96 -80 65 C-75.20640638 66.23391606 -75.20640638 66.23391606 -70.7578125 64.640625 C-68.04202913 60.56091487 -68.83548999 56.76004439 -69.125 52 C-69.4223802 41.60767163 -67.9745931 34.4127697 -60.73828125 26.5390625 C-54.63191671 20.78595872 -54.63191671 20.78595872 -50 20 C-49.731875 20.94875 -49.46375 21.8975 -49.1875 22.875 C-48.25013412 26.25267273 -48.25013412 26.25267273 -45 28 C-41.36060068 27.68269476 -41.36060068 27.68269476 -38 27 C-37.82984375 25.98679687 -37.6596875 24.97359375 -37.484375 23.9296875 C-37.24031887 22.57799199 -36.99548568 21.22643662 -36.75 19.875 C-36.64042969 19.20984375 -36.53085938 18.5446875 -36.41796875 17.859375 C-34.83639119 9.36880072 -29.78453025 4.02214251 -23 -1 C-15.73982954 -4.63008523 -6.88438019 -4.13062811 0 0 Z " fill="#6481FC" transform="translate(245,25)"/>
<path d="M0 0 C5.84261601 2.9736612 9.92605714 7.0178803 13.0625 12.75 C14.28830753 16.55645497 15.0363084 20.25398554 15.625 24.203125 C16.34860468 26.79001174 17.09039734 27.8579345 19.25 29.4375 C22.89734979 29.21419287 24.63372835 29.05377165 27.25 26.4375 C27.89767793 23.86688689 27.89767793 23.86688689 28.25 21.4375 C35.62532017 23.5118088 40.89252274 29.17896788 44.75 35.5625 C47.95459544 42.31534723 47.67174562 48.91640118 47.29296875 56.22705078 C47.25171875 57.10087402 47.21046875 57.97469727 47.16796875 58.875 C47.11406982 59.65746094 47.0601709 60.43992188 47.00463867 61.24609375 C47.32406108 64.09896489 48.27241183 65.38960141 50.25 67.4375 C53.46414378 67.9062293 55.34504195 68.061609 58.0625 66.1875 C59.36258722 64.27158198 59.85856977 62.70779534 60.25 60.4375 C64.81576158 61.61155298 66.69219042 63.79212316 69.1796875 67.578125 C72.35885031 73.10105017 73.18407765 78.47619258 71.71484375 84.70703125 C69.39952166 92.3362073 65.91820947 96.31820213 59.15234375 100.421875 C55.2164505 102.52317324 52.00531438 102.55433543 47.61328125 102.53515625 C45.66518555 102.53032227 45.66518555 102.53032227 43.67773438 102.52539062 C42.30598892 102.51703531 40.93424413 102.50857037 39.5625 102.5 C38.17903805 102.49498335 36.79557437 102.49042073 35.41210938 102.48632812 C32.02469605 102.47452529 28.63736967 102.45806019 25.25 102.4375 C23.37066996 97.21204574 23.08683855 94.45341589 25.1875 89.3125 C27.38204614 83.93075895 27.38204614 83.93075895 26.25 78.4375 C24.4033445 75.98006536 22.30802307 73.84626726 20.125 71.6875 C19.568125 71.09839844 19.01125 70.50929688 18.4375 69.90234375 C15.50823029 66.96632457 13.69576905 65.5633529 9.625 64.4140625 C6.12637792 64.43835849 4.41765951 64.93360148 1.375 66.5625 C-2.22741937 68.10639402 -4.63419162 68.80958472 -8.5 67.9375 C-13.81425967 65.75704887 -15.51673439 61.15415075 -17.75390625 56.15234375 C-18.75 53.4375 -18.75 53.4375 -18.75 51.4375 C-21.06 50.7775 -23.37 50.1175 -25.75 49.4375 C-25.84911689 43.56596769 -25.92158611 37.69492587 -25.96972656 31.82275391 C-25.98980169 29.82657382 -26.01706789 27.83045225 -26.05175781 25.83447266 C-26.10045657 22.9598138 -26.12300986 20.0859346 -26.140625 17.2109375 C-26.16127014 16.32320648 -26.18191528 15.43547546 -26.20318604 14.52084351 C-26.20517556 8.98657064 -25.47605851 5.81012421 -21.75 1.4375 C-15.4386734 -3.18054385 -7.059911 -2.79982795 0 0 Z " fill="#6481FC" transform="translate(288.75,23.5625)"/>
<path d="M0 0 C20.79 0 41.58 0 63 0 C65.6890279 5.37805579 68.11794846 10.56155959 70.234375 16.1484375 C70.51726379 16.8870401 70.80015259 17.6256427 71.09161377 18.3866272 C71.6817217 19.93033073 72.26981861 21.47480443 72.85595703 23.02001953 C73.75639527 25.39184566 74.66486634 27.76048543 75.57421875 30.12890625 C76.14891348 31.63523516 76.72314911 33.14173932 77.296875 34.6484375 C77.56868591 35.35672699 77.84049683 36.06501648 78.12054443 36.79476929 C80 41.76948815 80 41.76948815 80 44 C48.32 44 16.64 44 -16 44 C-14.11666374 37.72221246 -12.22535894 31.66558912 -9.86328125 25.5859375 C-9.48447815 24.59847534 -9.48447815 24.59847534 -9.09802246 23.59106445 C-8.17350386 21.18417365 -7.24265695 18.77971745 -6.3125 16.375 C-4.229375 10.97125 -2.14625 5.5675 0 0 Z " fill="#6481FC" transform="translate(224,422)"/>
<path d="M0 0 C2.65565687 -0.39023965 3.7457387 -0.21473247 6.046875 1.19921875 C7.6171875 3.70703125 7.6171875 3.70703125 9.171875 6.82421875 C12.6866404 13.65175154 16.74424649 15.84129097 23.671875 18.34375 C28.16664391 19.48304906 30.59329494 19.44934649 35.046875 18.19921875 C35.71847656 18.02261719 36.39007813 17.84601563 37.08203125 17.6640625 C38.74853048 17.21679133 40.39994167 16.71388542 42.046875 16.19921875 C44.026875 18.50921875 46.006875 20.81921875 48.046875 23.19921875 C47.2734375 24.90078125 47.2734375 24.90078125 46.484375 26.63671875 C44.25787236 32.74889667 44.89012357 37.35346829 47.3203125 43.33203125 C49.80285167 48.56174575 51.32837639 51.66034479 56.046875 55.19921875 C49.446875 55.19921875 42.846875 55.19921875 36.046875 55.19921875 C35.0775 53.05421875 34.108125 50.90921875 33.109375 48.69921875 C29.1024091 40.43114939 23.89487296 34.80943846 15.546875 30.69921875 C6.30310204 27.50277389 -4.60800854 27.58369681 -13.515625 31.63671875 C-23.22669252 37.33033094 -27.8104046 44.97187777 -31.953125 55.19921875 C-38.553125 55.19921875 -45.153125 55.19921875 -51.953125 55.19921875 C-50.303125 53.87921875 -48.653125 52.55921875 -46.953125 51.19921875 C-43.15582092 44.71148433 -39.80764418 37.72022989 -41.38671875 30.109375 C-42.56568436 26.11963689 -42.56568436 26.11963689 -43.953125 22.19921875 C-41.973125 20.21921875 -39.993125 18.23921875 -37.953125 16.19921875 C-37.31246094 16.42738281 -36.67179688 16.65554687 -36.01171875 16.890625 C-30.55756055 18.7032588 -26.63702959 19.76719243 -20.953125 18.19921875 C-20.01210937 17.94527344 -19.07109375 17.69132812 -18.1015625 17.4296875 C-9.89068959 14.70970851 -7.45433132 11.28531362 -3.59375 3.7421875 C-1.953125 1.19921875 -1.953125 1.19921875 0 0 Z " fill="#6380FC" transform="translate(253.953125,85.80078125)"/>
<path d="M0 0 C70.62 0 141.24 0 214 0 C214 3.3 214 6.6 214 10 C143.38 10 72.76 10 0 10 C0 6.7 0 3.4 0 0 Z " fill="#6481FC" transform="translate(149,480)"/>
<path d="M0 0 C0.99132935 -0.00274933 1.98265869 -0.00549866 3.00402832 -0.0083313 C4.61811836 0.00245453 4.61811836 0.00245453 6.26481628 0.01345825 C7.40671417 0.0131662 8.54861206 0.01287415 9.72511292 0.01257324 C13.49648152 0.01396569 17.26765215 0.02952321 21.03898621 0.04519653 C23.65500785 0.04892696 26.2710309 0.05177379 28.88705444 0.05377197 C35.06700828 0.05998195 41.24689116 0.0763862 47.42681378 0.09647095 C54.46427071 0.118845 61.50173107 0.12982716 68.53921473 0.13986182 C83.01183228 0.16075287 97.48439025 0.1963235 111.95695496 0.24050903 C111.95695496 4.20050903 111.95695496 8.16050903 111.95695496 12.24050903 C69.05695496 12.24050903 26.15695496 12.24050903 -18.04304504 12.24050903 C-15.76177601 6.53733645 -13.22915989 3.7500191 -7.65901661 1.1110096 C-4.93184353 0.2035052 -2.864348 -0.00615327 0 0 Z " fill="#C5D0FD" transform="translate(283.0430450439453,279.7594909667969)"/>
<path d="M0 0 C14.98632187 -0.06954856 29.97261922 -0.12303582 44.9590683 -0.15543652 C51.91808071 -0.1708829 58.87699079 -0.19192953 65.8359375 -0.22631836 C72.55326238 -0.25949725 79.27045905 -0.27685989 85.98786926 -0.28463173 C88.54907401 -0.29016946 91.11027303 -0.30098326 93.6714325 -0.31719017 C97.26220204 -0.33900619 100.85253409 -0.34196509 104.44335938 -0.34057617 C105.49928284 -0.351362 106.5552063 -0.36214783 107.64312744 -0.3732605 C114.48742945 -0.34466401 120.63178128 0.17848842 126.09375 4.75390625 C126.78984375 5.64916016 126.78984375 5.64916016 127.5 6.5625 C127.9846875 7.16191406 128.469375 7.76132812 128.96875 8.37890625 C130 10 130 10 130 12 C87.1 12 44.2 12 0 12 C0 8.04 0 4.08 0 0 Z " fill="#C5D0FD" transform="translate(117,280)"/>
<path d="M0 0 C1.19070854 -0.01007584 1.19070854 -0.01007584 2.4054718 -0.02035522 C5.03217815 -0.03936889 7.65862949 -0.04326097 10.28540039 -0.04541016 C12.10999151 -0.05183531 13.9345816 -0.05856346 15.75917053 -0.06558228 C19.58491404 -0.07756315 23.41056718 -0.08126222 27.23632812 -0.08007812 C32.14047417 -0.07987479 37.04404165 -0.10718824 41.9480505 -0.14162254 C45.71670701 -0.16385022 49.48522332 -0.16791695 53.25393867 -0.16685867 C55.06206826 -0.16922044 56.87020138 -0.17807623 58.67826653 -0.19352341 C61.20649735 -0.21310205 63.73346799 -0.20737823 66.26171875 -0.1953125 C67.00938507 -0.20655151 67.75705139 -0.21779053 68.52737427 -0.22937012 C71.95829306 -0.18772505 73.88028244 0.06218008 76.69142151 2.09823608 C78.19555664 4.29052734 78.19555664 4.29052734 78.19555664 7.85302734 C77.19555664 11.29052734 77.19555664 11.29052734 75.61546326 12.97912598 C72.27527454 14.78924874 69.18273203 14.72541138 65.47705078 14.71044922 C64.70421249 14.71891876 63.93137421 14.72738831 63.13511658 14.7361145 C60.58348073 14.75949034 58.03244766 14.76050657 55.48071289 14.75927734 C53.70478575 14.76637851 51.92886092 14.77407744 50.15293884 14.78234863 C46.43148419 14.79579471 42.71024168 14.79736163 38.98876953 14.79150391 C34.2224676 14.78560716 29.45718407 14.8161972 24.69107914 14.85662079 C21.02358019 14.88248472 17.35632689 14.88537642 13.68874931 14.88172913 C11.93168007 14.88342156 10.17459963 14.893076 8.41761971 14.91087341 C5.9588744 14.93303891 3.50219596 14.92337563 1.04345703 14.90576172 C0.31965851 14.91902496 -0.40414001 14.93228821 -1.14987183 14.94595337 C-5.00760756 14.8818196 -6.70500025 14.36727488 -9.79493713 11.98254395 C-11.80444336 9.29052734 -11.80444336 9.29052734 -11.80444336 5.60302734 C-9.91997931 -0.63925981 -5.6121237 -0.00678503 0 0 Z " fill="#0606CC" transform="translate(295.804443359375,230.70947265625)"/>
<path d="M0 0 C0.80516556 -0.00525696 1.61033112 -0.01051392 2.43989563 -0.01593018 C5.10400739 -0.02914465 7.76752268 -0.02038713 10.43164062 -0.01025391 C12.28104772 -0.01227423 14.13045404 -0.01518532 15.9798584 -0.01895142 C19.85692933 -0.02337673 23.73379299 -0.01693707 27.61083984 -0.00292969 C32.58451586 0.01416233 37.55770625 0.00432225 42.53136444 -0.01364708 C46.35060292 -0.02447934 50.16972597 -0.02104115 53.9889679 -0.0132637 C55.82302406 -0.01126015 57.65709065 -0.0137264 59.49113464 -0.02070236 C62.05296658 -0.02830771 64.61400828 -0.01672592 67.17578125 0 C67.93639359 -0.00607269 68.69700592 -0.01214539 69.48066711 -0.0184021 C74.57075418 0.04327323 74.57075418 0.04327323 77.05114746 1.69760132 C78.87200615 4.66681446 78.56031742 7.02214267 78.08789062 10.38818359 C75.27640757 13.4056987 73.58757161 14.31790596 69.47642517 14.89611816 C68.0644741 14.91973908 66.65205052 14.92155803 65.23999023 14.90576172 C64.46539963 14.912771 63.69080902 14.91978027 62.89274597 14.92700195 C60.34154027 14.94455598 57.79145064 14.93297023 55.24023438 14.91943359 C53.46334114 14.92212899 51.68644935 14.92601182 49.90956116 14.93103027 C46.1898084 14.93692155 42.47044039 14.92837342 38.75073242 14.90966797 C33.98333386 14.88686183 29.21683523 14.90001407 24.44946957 14.92395782 C20.78199989 14.93841174 17.11474363 14.93381201 13.44726753 14.92344666 C11.68939673 14.9207791 9.93150652 14.92405016 8.17365837 14.93336487 C5.71738208 14.94352589 3.26256414 14.928038 0.80639648 14.90576172 C-0.28233765 14.9179071 -0.28233765 14.9179071 -1.39306641 14.93029785 C-4.76681883 14.87362037 -6.62019193 14.60336374 -9.36717224 12.57849121 C-11.60287259 9.40886612 -11.39326332 7.16867884 -10.91210938 3.38818359 C-8.41220645 -0.70374178 -4.29281271 -0.03427361 0 0 Z " fill="#0506CC" transform="translate(147.912109375,230.61181640625)"/>
<path d="M0 0 C1.10927856 -0.00574036 1.10927856 -0.00574036 2.2409668 -0.01159668 C3.8009579 -0.01431271 5.36099478 -0.00697292 6.92089844 0.00976562 C9.30507186 0.03118327 11.68623249 0.00995737 14.0703125 -0.015625 C15.5885483 -0.01298166 17.10678223 -0.00785656 18.625 0 C19.33551514 -0.00809692 20.04603027 -0.01619385 20.77807617 -0.02453613 C24.17450313 0.03962088 26.01488456 0.30661215 28.7578125 2.37695312 C30.3125 4.53125 30.3125 4.53125 30.875 7.53125 C30.3125 10.53125 30.3125 10.53125 28.234375 12.68554688 C24.58085854 14.99341657 22.30180538 15.04736802 18 15.0625 C17.30865967 15.0663269 16.61731934 15.07015381 15.9050293 15.07409668 C14.44936662 15.07680787 12.99365456 15.06950211 11.53808594 15.05273438 C9.31854955 15.0313084 7.10224904 15.05255772 4.8828125 15.078125 C3.46353457 15.07548158 2.04425865 15.07035629 0.625 15.0625 C-1.29892578 15.05573242 -1.29892578 15.05573242 -3.26171875 15.04882812 C-7.23867947 14.44797602 -8.91609212 13.40424144 -11.6875 10.53125 C-12.25 7.53125 -12.25 7.53125 -11.6875 4.53125 C-8.47169375 0.07517676 -5.153048 -0.05872336 0 0 Z " fill="#0101CB" transform="translate(246.6875,379.46875)"/>
<path d="M0 0 C2.25890127 -0.0043796 4.51585768 -0.04072464 6.77441406 -0.07861328 C8.20930322 -0.08448052 9.64420165 -0.08845053 11.07910156 -0.09033203 C12.38492187 -0.0985498 13.69074219 -0.10676758 15.03613281 -0.11523438 C18.26660156 0.37060547 18.26660156 0.37060547 20.21972656 2.17675781 C21.82899918 5.54917473 21.23079936 7.83521356 20.26660156 11.37060547 C17.02235051 14.68739938 14.22616837 14.77671199 9.70800781 14.83935547 C7.75519753 14.85913076 5.80226424 14.87825291 3.84936523 14.87158203 C1.8378983 14.87060972 -0.16974779 14.91224424 -2.18066406 14.95654297 C-4.09202148 14.96041016 -4.09202148 14.96041016 -6.04199219 14.96435547 C-7.20529053 14.97144531 -8.36858887 14.97853516 -9.56713867 14.98583984 C-13.68725532 14.18526201 -15.19570966 12.65379799 -17.73339844 9.37060547 C-17.73339844 5.68310547 -17.73339844 5.68310547 -16.73339844 2.37060547 C-11.77033607 -0.93810278 -5.81430918 -0.00126673 0 0 Z " fill="#0708CD" transform="translate(352.7333984375,202.62939453125)"/>
<path d="M0 0 C0.69891357 -0.00287018 1.39782715 -0.00574036 2.11791992 -0.00869751 C3.59392101 -0.01073675 5.06994921 -0.00521653 6.54589844 0.00732422 C8.80465138 0.0233817 11.06161518 0.0074728 13.3203125 -0.01171875 C14.75521228 -0.00973629 16.19011095 -0.00589256 17.625 0 C18.93082031 0.00338379 20.23664063 0.00676758 21.58203125 0.01025391 C24.8125 0.3984375 24.8125 0.3984375 26.73046875 1.70849609 C28.62025998 4.66001571 28.28703654 7.01736468 27.8125 10.3984375 C25.18190499 13.1038476 23.49824966 14.28239429 19.75390625 14.91601562 C18.08134766 14.9227832 18.08134766 14.9227832 16.375 14.9296875 C14.53808594 14.93742188 14.53808594 14.93742188 12.6640625 14.9453125 C11.39304688 14.92984375 10.12203125 14.914375 8.8125 14.8984375 C6.90597656 14.92164063 6.90597656 14.92164063 4.9609375 14.9453125 C3.73632812 14.94015625 2.51171875 14.935 1.25 14.9296875 C0.13496094 14.92517578 -0.98007813 14.92066406 -2.12890625 14.91601562 C-5.87324966 14.28239429 -7.55690499 13.1038476 -10.1875 10.3984375 C-10.99331818 4.65698295 -10.99331818 4.65698295 -9.10546875 1.70849609 C-6.14536821 -0.3133852 -3.54679942 0.00919087 0 0 Z " fill="#0505CC" transform="translate(147.1875,202.6015625)"/>
<path d="M0 0 C1.27552734 -0.01998047 2.55105469 -0.03996094 3.86523438 -0.06054688 C5.70891602 -0.05958008 5.70891602 -0.05958008 7.58984375 -0.05859375 C8.71124756 -0.06044678 9.83265137 -0.0622998 10.98803711 -0.06420898 C14.73877633 0.54785876 16.41403799 1.75194553 19.0625 4.4375 C19.61458443 7.75000656 19.49015227 9.59836198 17.96459961 12.59179688 C15.15275275 15.32027361 12.99018342 14.954897 9.12890625 14.96875 C8.45456039 14.9725769 7.78021454 14.97640381 7.08543396 14.98034668 C5.66070054 14.98306566 4.23591719 14.9757051 2.8112793 14.95898438 C0.63541688 14.93760237 -1.53713196 14.95876335 -3.71289062 14.984375 C-5.0989656 14.98173106 -6.48503851 14.9766047 -7.87109375 14.96875 C-9.12978271 14.96423828 -10.38847168 14.95972656 -11.68530273 14.95507812 C-14.9375 14.4375 -14.9375 14.4375 -17.37915039 12.62695312 C-18.9375 10.4375 -18.9375 10.4375 -18.9375 6.875 C-16.35464375 -2.00356835 -7.67818304 -0.04254913 0 0 Z " fill="#0708CD" transform="translate(354.9375,173.5625)"/>
<path d="M0 0 C1.76923828 -0.00773438 1.76923828 -0.00773438 3.57421875 -0.015625 C5.40919922 0.00757813 5.40919922 0.00757813 7.28125 0.03125 C8.50457031 0.01578125 9.72789062 0.0003125 10.98828125 -0.015625 C12.16777344 -0.01046875 13.34726563 -0.0053125 14.5625 0 C16.1722168 0.00676758 16.1722168 0.00676758 17.81445312 0.01367188 C21.49712789 0.65613982 23.18360694 1.8767761 25.78125 4.53125 C26.58888002 10.28561387 26.58888002 10.28561387 24.68554688 13.22119141 C21.78475159 15.21678981 19.29902681 14.92035335 15.8125 14.9296875 C15.13578247 14.93255768 14.45906494 14.93542786 13.76184082 14.93838501 C12.33291791 14.94042397 10.90396698 14.93490569 9.47509766 14.92236328 C7.28875275 14.90630511 5.10425621 14.92221534 2.91796875 14.94140625 C1.52864176 14.93942379 0.13931591 14.93558004 -1.25 14.9296875 C-2.51392578 14.92630371 -3.77785156 14.92291992 -5.08007812 14.91943359 C-8.21875 14.53125 -8.21875 14.53125 -10.12304688 13.22119141 C-12.03335122 10.27486193 -11.69396541 7.91715978 -11.21875 4.53125 C-7.61188522 0.84547478 -5.09231095 0.02140912 0 0 Z " fill="#0606CC" transform="translate(148.21875,173.46875)"/>
<path d="M0 0 C1.54880859 -0.02320313 1.54880859 -0.02320313 3.12890625 -0.046875 C7.7071518 -0.02324535 10.66874719 0.01858733 14.68359375 2.34375 C16.5 4.5 16.5 4.5 17.0625 7.5 C16.36952327 11.19587589 15.42498721 12.19104069 12.5 14.5 C9.70678711 15.01757812 9.70678711 15.01757812 6.52734375 15.03125 C5.38072266 15.03640625 4.23410156 15.0415625 3.05273438 15.046875 C1.85970703 15.03140625 0.66667969 15.0159375 -0.5625 15 C-2.3578418 15.02320313 -2.3578418 15.02320313 -4.18945312 15.046875 C-5.90745117 15.03914062 -5.90745117 15.03914062 -7.66015625 15.03125 C-9.23228882 15.02448242 -9.23228882 15.02448242 -10.83618164 15.01757812 C-13.5 14.5 -13.5 14.5 -15.33374023 12.65429688 C-16.95099773 9.66692402 -17.05753205 7.8451923 -16.5 4.5 C-12.01818275 -0.83181708 -6.42309841 -0.09622619 0 0 Z " fill="#0606CC" transform="translate(357.5,145.5)"/>
<path d="M0 0 C1.08474609 -0.02384766 2.16949219 -0.04769531 3.28710938 -0.07226562 C12.15417472 -0.05591578 12.15417472 -0.05591578 15.28125 2.9375 C17.0625 5.5625 17.0625 5.5625 17.625 8.125 C16.87304711 11.38346254 15.65652448 12.4782337 13.0625 14.5625 C10.26928711 15.06420898 10.26928711 15.06420898 7.08984375 15.05859375 C5.94322266 15.05923828 4.79660156 15.05988281 3.61523438 15.06054688 C2.42220703 15.04056641 1.22917969 15.02058594 0 15 C-1.19689453 15.00708984 -2.39378906 15.01417969 -3.62695312 15.02148438 C-12.38446924 14.95741701 -12.38446924 14.95741701 -14.77514648 13.25024414 C-16.76036612 10.36769355 -16.35161299 7.93456288 -15.9375 4.5625 C-11.61399441 -1.0470998 -6.55958245 -0.06602303 0 0 Z " fill="#0707CC" transform="translate(152.9375,145.4375)"/>
<path d="M0 0 C4.70146326 2.31608927 7.52462007 5.25236515 9.85546875 9.9140625 C9.85546875 10.5740625 9.85546875 11.2340625 9.85546875 11.9140625 C-2.68453125 11.9140625 -15.22453125 11.9140625 -28.14453125 11.9140625 C-25.42002055 5.10278576 -21.73598973 1.6591445 -15.18359375 -1.359375 C-9.79965839 -3.27778875 -5.08231422 -2.10370453 0 0 Z " fill="#C4CFFC" transform="translate(265.14453125,129.0859375)"/>
<path d="M0 0 C2.625 0.375 2.625 0.375 5 1 C5.625 3.375 5.625 3.375 6 6 C5.34 6.66 4.68 7.32 4 8 C1.375 7.625 1.375 7.625 -1 7 C-1.625 4.625 -1.625 4.625 -2 2 C-1.34 1.34 -0.68 0.68 0 0 Z " fill="#5D78F9" transform="translate(254,208)"/>
<path d="M0 0 C1.65 0.33 3.3 0.66 5 1 C5.625 3.375 5.625 3.375 6 6 C5.34 6.66 4.68 7.32 4 8 C1.375 7.625 1.375 7.625 -1 7 C-1.625 5.1875 -1.625 5.1875 -2 3 C-1.34 2.01 -0.68 1.02 0 0 Z " fill="#5F7BFA" transform="translate(197,190)"/>
<path d="M0 0 C2.625 0.375 2.625 0.375 5 1 C5.6875 2.8125 5.6875 2.8125 6 5 C4.8125 6.8125 4.8125 6.8125 3 8 C0.8125 7.6875 0.8125 7.6875 -1 7 C-1.625 4.625 -1.625 4.625 -2 2 C-1.34 1.34 -0.68 0.68 0 0 Z " fill="#607CFA" transform="translate(311,190)"/>
</svg>
