<?xml version="1.0" encoding="UTF-8"?>
<svg version="1.1" xmlns="http://www.w3.org/2000/svg" width="512" height="512">
<path d="M0 0 C1.3216249 0.33084026 2.64340174 0.66107408 3.96531677 0.99075317 C7.52662305 1.88092705 11.08562343 2.78000404 14.64416027 3.68117666 C18.38117512 4.62632907 22.11995821 5.56444064 25.85845947 6.50369263 C32.13040911 8.08067502 38.40083102 9.66362154 44.67041016 11.25 C51.90856431 13.08136055 59.14923327 14.90249944 66.39128566 16.71837795 C72.6255333 18.28183895 78.85838471 19.85077306 85.09010625 21.42427266 C88.80508969 22.36229817 92.5205146 23.29846245 96.23720551 24.229702 C99.7289199 25.10489986 103.21882588 25.98697729 106.70747566 26.87430954 C108.59203549 27.35190389 110.47832865 27.82264236 112.3646698 28.29315186 C121.25662142 30.56598911 126.99802291 32.33413356 132.56738281 39.81298828 C133.71565131 42.10952528 133.68299456 43.39611995 133.66503906 45.94580078 C133.66181641 46.75146484 133.65859375 47.55712891 133.65527344 48.38720703 C133.64689453 49.22896484 133.63851563 50.07072266 133.62988281 50.93798828 C133.62537109 51.78748047 133.62085938 52.63697266 133.61621094 53.51220703 C133.60441155 55.61249737 133.58647587 57.71275158 133.56738281 59.81298828 C134.17158051 59.80632645 134.7757782 59.79966461 135.39828491 59.7928009 C141.72559247 59.72607846 148.05279895 59.68103543 154.38037109 59.64819336 C156.73718327 59.6331705 159.0939678 59.61274632 161.45068359 59.58666992 C164.85163223 59.55000007 168.25220902 59.53319632 171.65332031 59.52001953 C172.69539642 59.50453568 173.73747253 59.48905182 174.81112671 59.47309875 C186.32548589 59.47049042 195.86955416 62.45825553 204.32128906 70.47705078 C210.24764393 76.98267342 213.69166364 84.20668565 213.69322395 93.03610039 C213.69713557 94.63092477 213.69713557 94.63092477 213.70112622 96.25796783 C213.69778014 98.00862413 213.69778014 98.00862413 213.69436646 99.79464722 C213.69592645 101.03523144 213.69748644 102.27581566 213.6990937 103.55399334 C213.70239678 106.9994699 213.7012017 110.44489209 213.69810748 113.89036536 C213.69584871 117.6055112 213.69933542 121.32065223 213.7020874 125.03579712 C213.70653921 132.31512776 213.70557116 139.59444811 213.70267476 146.87377916 C213.70041808 152.78991904 213.70010936 158.70605602 213.70119858 164.6221962 C213.70135181 165.46363172 213.70150504 166.30506724 213.70166292 167.1720008 C213.70198264 168.88128828 213.70230685 170.59057576 213.70263551 172.29986323 C213.70548867 188.33702287 213.70220603 204.37417679 213.69683515 220.41133548 C213.69236888 234.17331506 213.69314189 247.9352862 213.69775391 261.69726562 C213.70310537 277.67321859 213.70521228 293.64916655 213.70214164 309.62512028 C213.70182309 311.32879647 213.70150872 313.03247265 213.70119858 314.73614883 C213.7010443 315.57441413 213.70089003 316.41267943 213.70073108 317.27634671 C213.69986752 323.18466851 213.70132537 329.09298713 213.70367813 335.00130844 C213.70648273 342.20275946 213.70572395 349.40419957 213.70039739 356.60564934 C213.69776907 360.28026006 213.69674061 363.95485261 213.70004654 367.6294632 C213.70357539 371.61210643 213.69936192 375.5947199 213.69436646 379.57736206 C213.69659718 380.74000481 213.6988279 381.90264757 213.70112622 383.10052192 C213.69851847 384.16895367 213.69591072 385.23738542 213.69322395 386.33819389 C213.6930616 387.25722712 213.69289925 388.17626035 213.69273198 389.12314308 C213.55489285 392.08100813 213.10609291 394.90362893 212.56738281 397.81298828 C213.7365625 397.78978516 214.90574219 397.76658203 216.11035156 397.74267578 C217.65852224 397.72391008 219.20669985 397.70571074 220.75488281 397.68798828 C221.52380859 397.67123047 222.29273438 397.65447266 223.08496094 397.63720703 C230.85764777 397.57048869 230.85764777 397.57048869 234.56738281 399.81298828 C238.97779207 404.26436493 240.1999806 406.70331937 240.19628906 413.16064453 C240.19870102 413.85379257 240.20111298 414.54694061 240.20359802 415.26109314 C240.20262278 416.72433197 240.18930598 418.18760918 240.16430664 419.65063477 C240.13033806 421.846065 240.1435734 424.0373797 240.16308594 426.23291016 C240.15270124 437.45083686 238.62941445 448.24886351 232.12988281 457.75048828 C231.57429688 458.58451172 231.01871094 459.41853516 230.44628906 460.27783203 C221.43469197 472.43693081 209.37793243 480.60564875 194.31406498 482.89477158 C186.05559816 484.01636828 177.87686657 484.09216943 169.55796814 484.06695557 C167.88048005 484.06926486 166.20299298 484.07244451 164.52550799 484.07641006 C159.95316992 484.08470222 155.38091613 484.08065837 150.8085779 484.07443762 C145.86305655 484.06989117 140.91754916 484.0769077 135.97203064 484.08239746 C126.29873683 484.09126958 116.62547413 484.08937924 106.95217913 484.08357218 C99.0879193 484.07904736 91.22366818 484.07844633 83.35940742 484.08061981 C82.23826102 484.08092628 81.11711461 484.08123274 79.96199407 484.0815485 C77.68410805 484.08218797 75.40622203 484.0828364 73.12833602 484.08349368 C51.79168058 484.08919052 30.45504235 484.08264909 9.11838973 484.07189295 C-9.17409319 484.0629568 -27.46655073 484.06451126 -45.7590332 484.07373047 C-67.0231836 484.08444241 -88.28731893 484.08864254 -109.55147165 484.08250594 C-111.82046695 484.08186887 -114.08946226 484.08124013 -116.35845757 484.08061981 C-117.47472725 484.08031126 -118.59099693 484.08000271 -119.74109297 484.07968481 C-127.59289748 484.07796074 -135.44469241 484.08086674 -143.29649544 484.08557892 C-152.86941556 484.09119796 -162.4423029 484.08964973 -172.01521928 484.07901743 C-176.89581262 484.0737747 -181.77635138 484.07168011 -186.65694427 484.07831573 C-191.13080982 484.08430623 -195.60457052 484.08094926 -200.07842665 484.07036063 C-201.69061 484.06813971 -203.30280233 484.06923323 -204.91497982 484.07411221 C-223.12487612 484.12496328 -240.38552921 482.55612717 -254.43261719 469.81298828 C-255.29886719 469.02923828 -256.16511719 468.24548828 -257.05761719 467.43798828 C-268.96676815 454.27524248 -272.65054847 442.2441493 -272.83764648 424.72119141 C-272.85924598 423.20240569 -272.89337329 421.68374512 -272.94018555 420.16552734 C-273.37426345 405.92282895 -273.37426345 405.92282895 -269.65527344 401.33642578 C-266.29994375 398.10331186 -262.84578737 397.68107033 -258.32324219 397.71533203 C-257.56914062 397.71855469 -256.81503906 397.72177734 -256.03808594 397.72509766 C-255.26078125 397.73347656 -254.48347656 397.74185547 -253.68261719 397.75048828 C-252.88984375 397.755 -252.09707031 397.75951172 -251.28027344 397.76416016 C-249.3310221 397.77590263 -247.38180981 397.79383683 -245.43261719 397.81298828 C-245.59484888 397.26112874 -245.75708057 396.70926919 -245.92422837 396.14068663 C-246.49011022 393.54975187 -246.56169628 391.22225516 -246.56683826 388.56981468 C-246.57129611 387.50209843 -246.57575395 386.43438218 -246.58034688 385.33431089 C-246.58016252 384.16215327 -246.57997816 382.98999566 -246.57978821 381.78231812 C-246.5834649 380.53638905 -246.58714158 379.29045999 -246.59092969 378.0067755 C-246.60005037 374.54622417 -246.60466487 371.08572024 -246.607319 367.62516141 C-246.61122501 363.89357343 -246.62080315 360.16199915 -246.62953186 356.43041992 C-246.64928792 347.41750372 -246.65936142 338.4045864 -246.66825965 329.39165395 C-246.67264398 325.14615871 -246.67801042 320.9006647 -246.68324852 316.65517044 C-246.70025998 302.54019874 -246.71475384 288.4252278 -246.72199726 274.31024742 C-246.72390712 270.64791233 -246.72582746 266.98557725 -246.7277832 263.32324219 C-246.72826694 262.41299918 -246.72875068 261.50275617 -246.72924908 260.56493004 C-246.73754823 245.82175428 -246.76288356 231.07865968 -246.79536388 216.33551936 C-246.82844647 201.19543666 -246.84644711 186.0553952 -246.8496415 170.91527617 C-246.85180549 162.41612631 -246.86053788 153.91709481 -246.88610268 145.41798019 C-246.90782608 138.17927844 -246.91585205 130.94072381 -246.90613589 123.70199315 C-246.9015959 120.01057573 -246.90345949 116.31946175 -246.92289734 112.62808609 C-246.94381813 108.62036486 -246.93352871 104.61331442 -246.92036438 100.6055603 C-246.93133363 99.44678702 -246.94230287 98.28801373 -246.95360452 97.09412611 C-246.86898221 86.41031218 -243.75909219 77.70042309 -236.43261719 69.81298828 C-227.80139058 61.61806543 -217.46634865 59.21797337 -205.85839844 59.20361328 C-204.8085527 59.18707703 -203.75870697 59.17054077 -202.67704773 59.15350342 C-199.36634237 59.10541998 -196.05609493 59.08374071 -192.74511719 59.06298828 C-190.48272484 59.03479547 -188.22035347 59.00486348 -185.95800781 58.97314453 C-180.44962635 58.89967231 -174.94137155 58.84779874 -169.43261719 58.81298828 C-170.07199219 58.02923828 -170.71136719 57.24548828 -171.37011719 56.43798828 C-175.25912341 51.488344 -175.0319513 46.9539914 -174.43261719 40.81298828 C-171.94466301 35.11142662 -167.97098365 33.0961074 -162.43261719 30.81298828 C-158.49253891 29.55873866 -154.5018992 28.56253689 -150.48730469 27.57666016 C-149.31214798 27.28014053 -148.13699127 26.98362091 -146.92622375 26.67811584 C-143.72279192 25.87174999 -140.51750884 25.07369225 -137.31109238 24.27933693 C-133.93364795 23.44048862 -130.55890059 22.59092377 -127.18383789 21.74255371 C-120.78411227 20.13560083 -114.38204781 18.53817983 -107.97907543 16.94421911 C-100.75169045 15.1445434 -93.52696683 13.33430014 -86.30245972 11.5231123 C-77.46708262 9.3082476 -68.63113864 7.09566727 -59.79345703 4.89001465 C-58.55595703 4.58103493 -57.31845703 4.27205521 -56.04345703 3.95371246 C-53.66249286 3.36056797 -51.28099864 2.76954627 -48.89892578 2.18087006 C-44.07832929 0.98770096 -39.26652646 -0.21566215 -34.48193359 -1.54663086 C-33.75879471 -1.74319527 -33.03565582 -1.93975967 -32.29060364 -2.14228058 C-30.49617481 -2.63407556 -28.70682744 -3.14432241 -26.91821289 -3.65686035 C-17.77673259 -5.04725921 -8.81175563 -2.24185081 0 0 Z " fill="#013434" transform="translate(272.4326171875,16.18701171875)"/>
<path d="M0 0 C0.77097015 -0.00043808 1.54194031 -0.00087616 2.33627319 -0.00132751 C4.88500276 0.00076279 7.43307479 0.02410471 9.98168945 0.04760742 C11.74859762 0.05320253 13.51551044 0.05747303 15.28242493 0.06047058 C19.93336838 0.07192609 24.58403086 0.1013993 29.23486328 0.13458252 C33.98051146 0.16526821 38.72620504 0.1789727 43.47192383 0.1940918 C52.78389625 0.22626836 62.09566011 0.27747322 71.4074707 0.34057617 C71.41333694 0.95587692 71.41920319 1.57117767 71.42524719 2.2051239 C71.4892145 8.61312561 71.57364307 15.02062666 71.66992188 21.42822266 C71.70316237 23.819106 71.731197 26.21006765 71.75390625 28.60107422 C71.78746753 32.03932037 71.83978595 35.47684946 71.89575195 38.91479492 C71.90214188 39.98267746 71.9085318 41.05056 71.91511536 42.15080261 C72.04821295 48.87932448 72.61092309 52.60117664 77.54711246 57.43649387 C81.08182895 59.78948274 83.85116749 59.89829433 87.95372009 59.84178162 C88.70513246 59.84731601 89.45654482 59.85285041 90.23072726 59.85855252 C92.74432562 59.87214735 95.25692899 59.85719676 97.77050781 59.84228516 C99.57429933 59.8460688 101.37808795 59.85156922 103.18186951 59.85865784 C108.07863779 59.87262479 112.97505518 59.86143349 117.871804 59.84494662 C122.99661585 59.83109863 128.12140727 59.837556 133.24623108 59.84107971 C141.8536647 59.84378227 150.46095892 59.83030308 159.06835938 59.80712891 C169.01758639 59.78052735 178.96658017 59.77876924 188.91583055 59.79051727 C198.4877209 59.80130004 208.05952694 59.7951035 217.6314106 59.78096199 C221.70424964 59.77520568 225.77702692 59.77528212 229.84986687 59.78002739 C234.64748773 59.78480289 239.44485355 59.77467166 244.24242592 59.75307274 C246.0024263 59.74751221 247.76245123 59.74703284 249.52245331 59.7520256 C251.92666363 59.75799006 254.33009725 59.74545153 256.73423767 59.72825623 C257.42928451 59.73426627 258.12433135 59.74027632 258.84044021 59.74646848 C263.41250971 59.68708476 266.51514234 58.71989235 270.4074707 56.34057617 C275.37616226 51.09469267 275.00894655 45.64957943 275.0168457 38.81713867 C275.03338196 37.71582611 275.04991821 36.61451355 275.06695557 35.47982788 C275.11539723 31.97502035 275.13679891 28.47064665 275.1574707 24.96557617 C275.18563345 22.58404398 275.21556129 20.20253195 275.24731445 17.82104492 C275.32115581 11.99425771 275.37075437 6.16771081 275.4074707 0.34057617 C280.6874707 0.34057617 285.9674707 0.34057617 291.4074707 0.34057617 C291.0774707 1.66057617 290.7474707 2.98057617 290.4074707 4.34057617 C289.45573373 12.09043441 291.03430904 17.87839765 295.4074707 24.34057617 C299.32538977 28.82570068 303.85088179 31.01027936 309.76293945 31.55932617 C317.31477351 31.83352287 323.29165341 30.0804858 329.05200195 24.90698242 C333.72132449 19.5110218 334.85865893 13.5609914 334.64575195 6.60229492 C334.41684677 4.42957191 333.95813852 2.45040713 333.4074707 0.34057617 C337.48249865 0.26637406 341.55726463 0.21195047 345.6328125 0.17578125 C347.0189499 0.1607022 348.40503965 0.14023567 349.79101562 0.11425781 C351.78405217 0.07783902 353.77743793 0.06244599 355.77075195 0.04760742 C356.96998291 0.03189697 358.16921387 0.01618652 359.40478516 0 C362.4074707 0.34057617 362.4074707 0.34057617 364.07154334 1.58340544 C365.76403958 3.80957801 365.78328855 5.01661578 365.78499413 7.79588413 C365.79281737 8.71327352 365.80064061 9.63066291 365.80870092 10.57585198 C365.80200875 11.58517767 365.79531659 12.59450336 365.78842163 13.63441467 C365.7931016 14.70545753 365.79778157 15.7765004 365.80260336 16.8799991 C365.81461722 20.48685528 365.80507104 24.09333598 365.7956543 27.70019531 C365.79971713 30.27864301 365.80505737 32.85708898 365.81158447 35.43553162 C365.82494259 41.7224069 365.822035 48.0091749 365.81334655 54.29605443 C365.80657916 59.40371748 365.80564918 64.5113504 365.808918 69.61901665 C365.8093777 70.34517738 365.8098374 71.07133811 365.81031103 71.81950371 C365.81127017 73.29454165 365.81224281 74.76957959 365.8132288 76.24461751 C365.82178863 90.08414946 365.81193898 103.92362183 365.7958277 117.76314401 C365.78242114 129.64746437 365.78475423 141.53169684 365.79858398 153.41601562 C365.81462449 167.20661713 365.82096758 180.99716641 365.81174719 194.78777593 C365.81079151 196.25716777 365.8098484 197.72655961 365.808918 199.19595146 C365.80845517 199.91898196 365.80799235 200.64201247 365.80751549 201.38695299 C365.80492122 206.49114139 365.80930594 211.59529677 365.81635666 216.69948006 C365.82562999 223.56373625 365.81906479 230.42782308 365.80167389 237.29206276 C365.79769155 239.8180997 365.79887268 242.34415056 365.80546188 244.87018204 C365.81359845 248.30488757 365.80345148 251.73905081 365.78842163 255.17372131 C365.7951138 256.18527772 365.80180596 257.19683414 365.80870092 258.23904377 C365.80087768 259.15382541 365.79305444 260.06860705 365.78499413 261.01110935 C365.78426354 262.20137158 365.78426354 262.20137158 365.7835182 263.41567951 C365.65942252 264.05089541 365.53532685 264.68611131 365.4074707 265.34057617 C361.87904495 267.69286001 360.44653997 267.59104842 356.26828003 267.59225845 C354.97530062 267.59747395 353.68232121 267.60268944 352.3501606 267.60806298 C350.90686107 267.60373844 349.46356209 267.59922511 348.02026367 267.59454346 C346.49363493 267.59684642 344.9670073 267.60002183 343.440382 267.60399795 C339.23433963 267.61237727 335.02838756 267.6082065 330.82234478 267.60202551 C326.29059411 267.5975148 321.75885936 267.60447789 317.22711182 267.60998535 C308.34508055 267.61889581 299.46308301 267.61695 290.5810504 267.61116007 C283.36480144 267.60665007 276.14856197 267.6060278 268.93231201 267.6082077 C267.90670099 267.60851417 266.88108997 267.60882063 265.82439983 267.60913639 C263.74113162 267.60977581 261.65786342 267.61042424 259.57459521 267.61108157 C240.02282441 267.61678971 220.47107234 267.6102194 200.91930461 267.59948084 C184.1295433 267.59054489 167.33980964 267.5920968 150.55004883 267.60131836 C131.07000078 267.61201246 111.58996917 267.61624034 92.10991859 267.61009383 C90.03415553 267.60945671 87.95839246 267.60882797 85.88262939 267.6082077 C84.8612157 267.60789915 83.839802 267.6075906 82.78743637 267.6072727 C75.57677243 267.60554318 68.36611887 267.60846639 61.15545654 267.61316681 C52.37249523 267.6187661 43.58956969 267.6172793 34.80661249 267.60660532 C30.3222599 267.60133575 25.83796701 267.59931364 21.35361481 267.60590363 C17.25299842 267.61183871 13.1524974 267.60862861 9.05189157 267.59794852 C7.56405192 267.59570408 6.07620264 267.59687399 4.58836913 267.6017001 C2.57447313 267.60773431 0.56055004 267.60038188 -1.45333862 267.59225845 C-2.57454542 267.59193375 -3.69575222 267.59160904 -4.85093498 267.5912745 C-7.5925293 267.34057617 -7.5925293 267.34057617 -10.5925293 265.34057617 C-10.96857679 263.41567951 -10.96857679 263.41567951 -10.97005272 261.01110935 C-10.97787596 260.09632771 -10.9856992 259.18154607 -10.99375951 258.23904377 C-10.98706735 257.22748736 -10.98037518 256.21593095 -10.97348022 255.17372131 C-10.9781602 254.10423844 -10.98284017 253.03475557 -10.98766196 251.93286413 C-10.99969174 248.32523626 -10.99012346 244.71798269 -10.98071289 241.11035156 C-10.98477506 238.53367388 -10.99011494 235.95699793 -10.99664307 233.38032532 C-11.01001024 227.09364585 -11.00708932 220.8070736 -10.99840514 214.52038986 C-10.99164009 209.41223475 -10.99070676 204.30410976 -10.99397659 199.19595146 C-10.99443629 198.46994397 -10.99489599 197.74393647 -10.99536962 196.99592875 C-10.99632876 195.521215 -10.9973014 194.04650126 -10.99828739 192.57178753 C-11.00685018 178.73032215 -10.99699357 164.88891629 -10.9808863 151.04746067 C-10.96748512 139.16344655 -10.96980781 127.27952034 -10.98364258 115.39550781 C-10.99968761 101.60636889 -11.00602314 87.8172822 -10.99680579 74.02813524 C-10.99585011 72.55842905 -10.994907 71.08872285 -10.99397659 69.61901665 C-10.99351377 68.89583187 -10.99305094 68.17264709 -10.99257409 67.42754762 C-10.98998075 62.32434156 -10.99436265 57.22116855 -11.00141525 52.11796761 C-11.01069497 45.25208006 -11.00411283 38.38636172 -10.98673248 31.52049065 C-10.9827529 28.99487459 -10.98392664 26.46924461 -10.99052048 23.94363403 C-10.99866797 20.50703586 -10.98849645 17.07097803 -10.97348022 13.63441467 C-10.98017239 12.62508898 -10.98686455 11.61576329 -10.99375951 10.57585198 C-10.98593627 9.65846259 -10.97811303 8.7410732 -10.97005272 7.79588413 C-10.96956566 7.00221363 -10.96907861 6.20854312 -10.96857679 5.39082199 C-9.88183521 -0.53419392 -4.9862797 -0.07388307 0 0 Z " fill="#E5FEFE" transform="translate(78.592529296875,117.659423828125)"/>
<path d="M0 0 C151.47 0 302.94 0 459 0 C459 3.63 459 7.26 459 11 C460.75376953 10.96519531 460.75376953 10.96519531 462.54296875 10.9296875 C464.09113942 10.91092179 465.63931703 10.89272245 467.1875 10.875 C468.34088867 10.84986328 468.34088867 10.84986328 469.51757812 10.82421875 C477.29026496 10.75750041 477.29026496 10.75750041 481 13 C485.41040925 17.45137665 486.63259779 19.89033109 486.62890625 26.34765625 C486.63131821 27.04080429 486.63373016 27.73395233 486.63621521 28.44810486 C486.63523997 29.91134369 486.62192316 31.3746209 486.59692383 32.83764648 C486.56295525 35.03307671 486.57619059 37.22439142 486.59570312 39.41992188 C486.58531843 50.63784858 485.06203163 61.43587523 478.5625 70.9375 C478.00691406 71.77152344 477.45132812 72.60554688 476.87890625 73.46484375 C467.86730916 85.62394253 455.81054962 93.79266047 440.74668217 96.08178329 C432.48821534 97.20338 424.30948376 97.27918115 415.99058533 97.25396729 C414.31309724 97.25627658 412.63561016 97.25945623 410.95812517 97.26342177 C406.38578711 97.27171394 401.81353332 97.26767009 397.24119508 97.26144934 C392.29567374 97.25690289 387.35016635 97.26391941 382.40464783 97.26940918 C372.73135402 97.2782813 363.05809132 97.27639096 353.38479631 97.2705839 C345.52053649 97.26605908 337.65628536 97.26545805 329.79202461 97.26763153 C328.67087821 97.267938 327.5497318 97.26824446 326.39461126 97.26856022 C324.11672524 97.26919969 321.83883922 97.26984812 319.56095321 97.2705054 C298.22429777 97.27620223 276.88765954 97.26966081 255.55100692 97.25890467 C237.25852399 97.24996852 218.96606645 97.25152298 200.67358398 97.26074219 C179.40943359 97.27145413 158.14529826 97.27565426 136.88114554 97.26951766 C134.61215023 97.26888059 132.34315493 97.26825185 130.07415962 97.26763153 C128.95788994 97.26732298 127.84162026 97.26701443 126.69152422 97.26669653 C118.8397197 97.26497245 110.98792478 97.26787846 103.13612175 97.27259064 C93.56320163 97.27820968 83.99031429 97.27666145 74.41739791 97.26602915 C69.53680456 97.26078642 64.65626581 97.25869183 59.77567291 97.26532745 C55.30180737 97.27131795 50.82804666 97.26796098 46.35419054 97.25737235 C44.74200719 97.25515143 43.12981486 97.25624495 41.51763736 97.26112393 C23.30774107 97.311975 6.04708798 95.74313889 -8 83 C-8.86625 82.21625 -9.7325 81.4325 -10.625 80.625 C-22.53415096 67.4622542 -26.21793128 55.43116102 -26.4050293 37.90820312 C-26.42662879 36.38941741 -26.4607561 34.87075683 -26.50756836 33.35253906 C-26.94164626 19.10984067 -26.94164626 19.10984067 -23.22265625 14.5234375 C-19.86732657 11.29032358 -16.41317018 10.86808204 -11.890625 10.90234375 C-11.13652344 10.90556641 -10.38242188 10.90878906 -9.60546875 10.91210938 C-8.82816406 10.92048828 -8.05085938 10.92886719 -7.25 10.9375 C-6.45722656 10.94201172 -5.66445313 10.94652344 -4.84765625 10.95117188 C-2.89840492 10.96291435 -0.94919262 10.98084854 1 11 C0.7525 10.2265625 0.7525 10.2265625 0.5 9.4375 C0 7 0 7 0 0 Z " fill="#003131" transform="translate(26,403)"/>
<path d="M0 0 C1.3216249 0.33084026 2.64340174 0.66107408 3.96531677 0.99075317 C7.52662305 1.88092705 11.08562343 2.78000404 14.64416027 3.68117666 C18.38117512 4.62632907 22.11995821 5.56444064 25.85845947 6.50369263 C32.13040911 8.08067502 38.40083102 9.66362154 44.67041016 11.25 C51.90856431 13.08136055 59.14923327 14.90249944 66.39128566 16.71837795 C72.6255333 18.28183895 78.85838471 19.85077306 85.09010625 21.42427266 C88.80508969 22.36229817 92.5205146 23.29846245 96.23720551 24.229702 C99.7289199 25.10489986 103.21882588 25.98697729 106.70747566 26.87430954 C108.59203549 27.35190389 110.47832865 27.82264236 112.3646698 28.29315186 C121.25662142 30.56598911 126.99802291 32.33413356 132.56738281 39.81298828 C133.80340576 42.28503417 133.68539995 43.90641833 133.67749023 46.6706543 C133.67835884 48.18847252 133.67835884 48.18847252 133.679245 49.73695374 C133.67713516 50.8358342 133.67502533 51.93471466 133.67285156 53.06689453 C133.68631448 55.38916941 133.70133887 57.71143566 133.71777344 60.03369141 C133.74055425 63.69846308 133.75492789 67.36226691 133.74243164 71.02709961 C133.73358207 74.56190431 133.76260649 78.09478858 133.79785156 81.62939453 C133.77950508 83.2564608 133.77950508 83.2564608 133.76078796 84.91639709 C133.86687234 91.6291351 135.03162349 95.65256549 139.1842804 100.979599 C142.46735588 105.33152213 142.20611698 110.62235546 141.56738281 115.81298828 C139.32302727 122.68695614 135.66904944 127.90026035 129.56738281 131.81298828 C123.39644505 134.82989119 115.91169911 134.77887474 109.37988281 132.81298828 C103.34648173 130.22375543 99.80380264 124.96675184 96.62988281 119.43798828 C95.00029845 113.87822988 94.72373037 108.34394561 96.56738281 102.81298828 C91.61738281 102.48298828 86.66738281 102.15298828 81.56738281 101.81298828 C81.58833008 103.29621582 81.60927734 104.77944336 81.63085938 106.30761719 C81.70336006 111.82021397 81.74921979 117.33276873 81.78710938 122.84570312 C81.80720175 125.22988985 81.83448062 127.61402743 81.86914062 129.99804688 C81.9177614 133.42867166 81.94037593 136.85864383 81.95800781 140.28955078 C81.97865295 141.35227203 81.9992981 142.41499329 82.02056885 143.50991821 C82.02241341 149.61879132 81.6539672 153.16603931 77.56738281 157.81298828 C73.09532787 161.74297595 69.01544022 161.96511524 63.27510071 161.98034668 C62.52680833 161.98614007 61.77851594 161.99193345 61.00754803 161.99790239 C58.49274987 162.01598222 55.97797417 162.0268395 53.46313477 162.03759766 C51.66288549 162.04877209 49.86263829 162.06028539 48.06239319 162.07211304 C42.14351295 162.10868129 36.22461136 162.13389076 30.30566406 162.15673828 C29.29868084 162.16068415 28.29169761 162.16463001 27.25419974 162.16869545 C17.75735895 162.20511319 8.26051073 162.23655722 -1.23637676 162.25780487 C-13.38338745 162.28538335 -25.52981444 162.33615839 -37.67658204 162.41827917 C-46.21766772 162.47406776 -54.75859502 162.50304045 -63.29985648 162.51227808 C-68.40100637 162.51853577 -73.50147187 162.5366595 -78.60242271 162.58366394 C-83.40350289 162.62735726 -88.20352506 162.63781063 -93.00477028 162.62303543 C-94.76398284 162.62336388 -96.52324111 162.63562441 -98.28227234 162.66088486 C-113.21690552 162.86398131 -113.21690552 162.86398131 -118.47956848 158.4498291 C-122.60378548 154.05934028 -122.59346011 149.80692222 -122.63793945 144.03686523 C-122.64783905 143.24638794 -122.65773865 142.45591064 -122.66793823 141.64147949 C-122.69953112 139.02810666 -122.72430193 136.41471565 -122.74902344 133.80126953 C-122.76959487 131.9895124 -122.7905914 130.17776005 -122.81199646 128.36601257 C-122.86719754 123.59687164 -122.9166155 118.82768754 -122.96484375 114.05847168 C-123.01507309 109.19209957 -123.07075168 104.32579018 -123.12597656 99.45947266 C-123.23353413 89.9106981 -123.33498447 80.36186911 -123.43261719 70.81298828 C-124.36420654 70.5915918 -125.2957959 70.37019531 -126.25561523 70.14208984 C-129.77731882 69.30393156 -133.29764718 68.46011182 -136.81762695 67.61474609 C-138.32898747 67.25257084 -139.8406964 66.89184579 -141.3527832 66.53271484 C-146.39061425 65.33554026 -151.41670525 64.09897364 -156.43261719 62.81298828 C-157.70057129 62.48878906 -158.96852539 62.16458984 -160.27490234 61.83056641 C-161.42651855 61.51023437 -162.57813477 61.18990234 -163.76464844 60.85986328 C-164.76858643 60.5849707 -165.77252441 60.31007813 -166.80688477 60.02685547 C-170.63119494 58.25888985 -172.57469951 55.52882364 -174.43261719 51.81298828 C-174.94853805 46.63686423 -175.03000702 42.18200664 -172.93261719 37.37548828 C-166.91185796 31.20421007 -158.59261003 29.56710575 -150.48730469 27.57666016 C-148.72456963 27.13188072 -148.72456963 27.13188072 -146.92622375 26.67811584 C-143.72279192 25.87174999 -140.51750884 25.07369225 -137.31109238 24.27933693 C-133.93364795 23.44048862 -130.55890059 22.59092377 -127.18383789 21.74255371 C-120.78411227 20.13560083 -114.38204781 18.53817983 -107.97907543 16.94421911 C-100.75169045 15.1445434 -93.52696683 13.33430014 -86.30245972 11.5231123 C-77.46708262 9.3082476 -68.63113864 7.09566727 -59.79345703 4.89001465 C-58.55595703 4.58103493 -57.31845703 4.27205521 -56.04345703 3.95371246 C-53.66249286 3.36056797 -51.28099864 2.76954627 -48.89892578 2.18087006 C-44.07832929 0.98770096 -39.26652646 -0.21566215 -34.48193359 -1.54663086 C-33.75879471 -1.74319527 -33.03565582 -1.93975967 -32.29060364 -2.14228058 C-30.49617481 -2.63407556 -28.70682744 -3.14432241 -26.91821289 -3.65686035 C-17.77673259 -5.04725921 -8.81175563 -2.24185081 0 0 Z " fill="#333333" transform="translate(272.4326171875,16.18701171875)"/>
<path d="M0 0 C1.3216249 0.33084026 2.64340174 0.66107408 3.96531677 0.99075317 C7.52662305 1.88092705 11.08562343 2.78000404 14.64416027 3.68117666 C18.38117512 4.62632907 22.11995821 5.56444064 25.85845947 6.50369263 C32.13040911 8.08067502 38.40083102 9.66362154 44.67041016 11.25 C51.90856431 13.08136055 59.14923327 14.90249944 66.39128566 16.71837795 C72.6255333 18.28183895 78.85838471 19.85077306 85.09010625 21.42427266 C88.80508969 22.36229817 92.5205146 23.29846245 96.23720551 24.229702 C99.7289199 25.10489986 103.21882588 25.98697729 106.70747566 26.87430954 C108.59203549 27.35190389 110.47832865 27.82264236 112.3646698 28.29315186 C121.25662142 30.56598911 126.99802291 32.33413356 132.56738281 39.81298828 C134.10335735 42.88493736 133.79388662 45.41543121 133.56738281 48.81298828 C131.79637781 53.73244662 129.21232757 57.35544566 124.56738281 59.81298828 C122.32813158 60.50626581 120.06629864 61.12803517 117.79394531 61.70361328 C116.43710018 62.05244549 115.08033149 62.40157519 113.72363281 62.75097656 C113.03124512 62.92711487 112.33885742 63.10325317 111.62548828 63.284729 C108.44465649 64.10116136 105.27629444 64.96285609 102.10644531 65.82080078 C84.34776827 70.58926095 66.53494774 75.08313465 48.65185547 79.36230469 C40.43695791 81.33428169 32.29347573 83.42031184 24.18164062 85.78833008 C17.57664326 87.66087628 10.91798415 89.31811553 4.25244141 90.95996094 C2.62064246 91.36406595 0.99010608 91.77330173 -0.63916016 92.1875 C-14.94118718 95.82225352 -24.97061997 96.61979933 -39.37548828 92.53796387 C-43.09655432 91.48469045 -46.82944715 90.47485934 -50.56152344 89.46142578 C-51.35076202 89.24619263 -52.14000061 89.03095947 -52.95315552 88.8092041 C-63.41222436 85.9757632 -73.95322635 83.47064214 -84.4914856 80.95123291 C-93.94789123 78.69014151 -103.34683718 76.31817833 -112.70292664 73.6710968 C-121.94656319 71.07459243 -131.29092621 68.89676623 -140.63256836 66.68530273 C-145.90929966 65.43326111 -151.17695057 64.15084761 -156.43261719 62.81298828 C-157.08937439 62.64728333 -157.74613159 62.48157837 -158.42279053 62.31085205 C-160.22747801 61.84536026 -162.02375148 61.3476002 -163.81933594 60.84814453 C-164.81537842 60.57494385 -165.8114209 60.30174316 -166.83764648 60.02026367 C-170.63874953 58.25185135 -172.58388749 55.51044768 -174.43261719 51.81298828 C-174.94853805 46.63686423 -175.03000702 42.18200664 -172.93261719 37.37548828 C-166.91185796 31.20421007 -158.59261003 29.56710575 -150.48730469 27.57666016 C-148.72456963 27.13188072 -148.72456963 27.13188072 -146.92622375 26.67811584 C-143.72279192 25.87174999 -140.51750884 25.07369225 -137.31109238 24.27933693 C-133.93364795 23.44048862 -130.55890059 22.59092377 -127.18383789 21.74255371 C-120.78411227 20.13560083 -114.38204781 18.53817983 -107.97907543 16.94421911 C-100.75169045 15.1445434 -93.52696683 13.33430014 -86.30245972 11.5231123 C-77.46708262 9.3082476 -68.63113864 7.09566727 -59.79345703 4.89001465 C-58.55595703 4.58103493 -57.31845703 4.27205521 -56.04345703 3.95371246 C-53.66249286 3.36056797 -51.28099864 2.76954627 -48.89892578 2.18087006 C-44.07832929 0.98770096 -39.26652646 -0.21566215 -34.48193359 -1.54663086 C-33.75879471 -1.74319527 -33.03565582 -1.93975967 -32.29060364 -2.14228058 C-30.49617481 -2.63407556 -28.70682744 -3.14432241 -26.91821289 -3.65686035 C-17.77673259 -5.04725921 -8.81175563 -2.24185081 0 0 Z " fill="#4C4C4C" transform="translate(272.4326171875,16.18701171875)"/>
<path d="M0 0 C1.35677101 -0.01902626 1.35677101 -0.01902626 2.74095154 -0.03843689 C4.19574669 -0.03403343 4.19574669 -0.03403343 5.67993164 -0.02954102 C7.1851815 -0.03740379 7.1851815 -0.03740379 8.72084045 -0.04542542 C10.8415535 -0.05184429 12.96230216 -0.05051037 15.08300781 -0.04199219 C18.32494646 -0.03348699 21.56512038 -0.06223868 24.80688477 -0.09399414 C26.8687332 -0.09560639 28.93058474 -0.09502817 30.99243164 -0.09204102 C31.96027084 -0.10327499 32.92811005 -0.11450897 33.92527771 -0.12608337 C37.93348993 -0.08465752 40.81939927 0.14673403 44.51391602 1.77685547 C47.49638525 5.92555653 47.09794968 9.94858819 47.03149414 14.93530273 C47.0339061 15.96337036 47.03631805 16.99143799 47.0388031 18.05065918 C47.03782428 20.22269552 47.02442244 22.39475669 46.99951172 24.56665039 C46.96520995 27.89221909 46.97885002 31.21513023 46.99829102 34.54077148 C46.99139249 36.65145989 46.98172005 38.76214142 46.96899414 40.87280273 C46.97395401 41.867677 46.97891388 42.86255127 46.98402405 43.88757324 C46.91826927 47.73977846 46.82760255 50.58382627 45.04125977 54.03125 C40.72093885 56.27895212 36.41261341 55.95296515 31.61743164 55.90014648 C30.03847862 55.90232933 30.03847862 55.90232933 28.42762756 55.90455627 C26.20432769 55.90289744 23.98101632 55.89133801 21.7578125 55.87060547 C18.34919657 55.84163016 14.94213356 55.85000151 11.53344727 55.86303711 C9.37393448 55.8568004 7.21442661 55.84840999 5.05493164 55.83764648 C3.52206764 55.84204994 3.52206764 55.84204994 1.95823669 55.84654236 C1.01037796 55.83385818 0.06251923 55.82117401 -0.9140625 55.80810547 C-1.74805069 55.80270248 -2.58203888 55.7972995 -3.44129944 55.79173279 C-5.59741211 55.40405273 -5.59741211 55.40405273 -7.36486816 54.17823792 C-8.97118162 51.86603027 -8.98373068 50.41863859 -9.00146484 47.61303711 C-9.01414902 46.64192993 -9.02683319 45.67082275 -9.03990173 44.67028809 C-9.03696609 43.62336792 -9.03403046 42.57644775 -9.03100586 41.49780273 C-9.03624771 40.4215564 -9.04148956 39.34531006 -9.04689026 38.2364502 C-9.05331605 35.96013248 -9.0519663 33.68378158 -9.04345703 31.4074707 C-9.03494479 27.91745134 -9.06370615 24.42906664 -9.09545898 20.93920898 C-9.09707094 18.72957406 -9.09649358 16.51993623 -9.09350586 14.31030273 C-9.10473984 13.26338257 -9.11597382 12.2164624 -9.12754822 11.13781738 C-9.11816727 10.16671021 -9.10878632 9.19560303 -9.09912109 8.19506836 C-9.09887184 6.91291443 -9.09887184 6.91291443 -9.09861755 5.6048584 C-8.59741211 3.40405273 -8.59741211 3.40405273 -6.85339355 1.62986755 C-4.33266243 0.26019779 -2.85069713 0.01941736 0 0 Z " fill="#FECF02" transform="translate(145.597412109375,301.595947265625)"/>
<path d="M0 0 C1.4217881 -0.01902626 1.4217881 -0.01902626 2.87229919 -0.03843689 C3.89420853 -0.03550125 4.91611786 -0.03256561 5.96899414 -0.02954102 C7.02067276 -0.03478287 8.07235138 -0.04002472 9.15589905 -0.04542542 C11.38094194 -0.05185138 13.60601878 -0.05050124 15.83105469 -0.04199219 C19.23767574 -0.03348839 22.64261723 -0.06222716 26.04907227 -0.09399414 C28.20987905 -0.09560635 30.37068882 -0.09502825 32.53149414 -0.09204102 C33.55137924 -0.10327499 34.57126434 -0.11450897 35.62205505 -0.12608337 C39.55211584 -0.08731651 42.44999076 -0.05057132 45.9597168 1.79052734 C48.13570724 5.98159926 47.8664605 10.06405647 47.81274414 14.71655273 C47.81419937 15.72242432 47.8156546 16.7282959 47.81715393 17.76464844 C47.81549523 19.88959655 47.80393727 22.0145567 47.78320312 24.1394043 C47.75425585 27.39220199 47.76259375 30.64336923 47.77563477 33.89624023 C47.76939706 35.96135232 47.76100587 38.02645927 47.75024414 40.09155273 C47.75317978 41.06455322 47.75611542 42.03755371 47.75914001 43.04003906 C47.74011375 44.40165161 47.74011375 44.40165161 47.72070312 45.79077148 C47.71530014 46.58700928 47.70989716 47.38324707 47.70433044 48.20361328 C47.20460926 51.03998877 46.36863672 52.38810363 44.31665039 54.40405273 C42.11584473 54.90525818 42.11584473 54.90525818 39.52563477 54.90576172 C38.55452759 54.91514267 37.58342041 54.92452362 36.58288574 54.93418884 C35.53596558 54.92295486 34.48904541 54.91172089 33.41040039 54.90014648 C32.33415405 54.90160172 31.25790771 54.90305695 30.14904785 54.90455627 C27.87269383 54.90289565 25.59632877 54.89131626 23.32006836 54.87060547 C19.83016403 54.8416648 16.34177915 54.84999094 12.85180664 54.86303711 C10.64216382 54.85679954 8.43252581 54.84840845 6.22290039 54.83764648 C5.17598022 54.84058212 4.12906006 54.84351776 3.05041504 54.84654236 C2.07930786 54.83385818 1.10820068 54.82117401 0.10766602 54.80810547 C-0.74710327 54.80270248 -1.60187256 54.7972995 -2.48254395 54.79173279 C-4.68334961 54.40405273 -4.68334961 54.40405273 -6.45852661 53.17250061 C-8.0435448 50.88398868 -8.06362355 49.47861827 -8.0715332 46.70483398 C-8.08098969 45.75374756 -8.09044617 44.80266113 -8.10018921 43.82275391 C-8.09411652 42.79770752 -8.08804382 41.77266113 -8.08178711 40.71655273 C-8.08465729 39.66250244 -8.08752747 38.60845215 -8.09048462 37.52246094 C-8.09252674 35.29320743 -8.08698659 33.06393606 -8.07446289 30.8347168 C-8.05841191 27.41731805 -8.0743072 24.00110208 -8.09350586 20.58374023 C-8.09152345 18.41967512 -8.08767984 16.25561074 -8.08178711 14.09155273 C-8.0878598 13.06650635 -8.0939325 12.04145996 -8.10018921 10.98535156 C-8.08600449 9.55872192 -8.08600449 9.55872192 -8.0715332 8.10327148 C-8.06914642 7.26626709 -8.06675964 6.4292627 -8.06430054 5.56689453 C-7.68334961 3.40405273 -7.68334961 3.40405273 -6.45179749 1.63560486 C-4.16974776 0.04637895 -2.77074608 0.01795025 0 0 Z " fill="#7DD63F" transform="translate(144.683349609375,208.595947265625)"/>
<path d="M0 0 C29.37 0 58.74 0 89 0 C87.35 1.32 85.7 2.64 84 4 C79.68595506 10.3211768 79.68595506 10.3211768 80 25 C56.9 25 33.8 25 10 25 C9.67 19.72 9.34 14.44 9 9 C5.98467897 3.97446496 5.07105013 3.14111005 0 1 C0 0.67 0 0.34 0 0 Z " fill="#E5E5E5" transform="translate(211,415)"/>
<path d="M0 0 C1.16094177 -0.00845947 2.32188354 -0.01691895 3.51800537 -0.02563477 C5.4303598 -0.01652573 5.4303598 -0.01652573 7.38134766 -0.00723267 C8.73651554 -0.01129741 10.09168011 -0.01663875 11.44683838 -0.02316284 C15.12864538 -0.03685399 18.81020055 -0.03153052 22.49201202 -0.02202559 C26.34233791 -0.01443824 30.19264203 -0.02147202 34.04296875 -0.02618408 C40.50931679 -0.03164435 46.97556209 -0.02444297 53.44189453 -0.01016235 C60.92132742 0.00616474 68.400515 0.00087642 75.87994194 -0.01564157 C82.29785197 -0.02924877 88.71568808 -0.03117987 95.13360786 -0.02332556 C98.96840563 -0.0186448 102.80308803 -0.01803517 106.63787842 -0.02793503 C110.24289197 -0.03659136 113.84758878 -0.03060759 117.45256805 -0.01325226 C119.40931257 -0.00738312 121.36608382 -0.01631435 123.32281494 -0.02563477 C124.48375671 -0.01717529 125.64469849 -0.00871582 126.84082031 0 C128.35731674 0.00169662 128.35731674 0.00169662 129.90444946 0.00342751 C132.42041016 0.38095093 132.42041016 0.38095093 134.27694702 1.68210411 C135.42041016 3.38095093 135.42041016 3.38095093 135.29541016 6.94345093 C134.42041016 10.38095093 134.42041016 10.38095093 131.42041016 12.38095093 C128.93847752 12.63821983 128.93847752 12.63821983 125.92347717 12.64837646 C124.78080887 12.65690643 123.63814056 12.6654364 122.46084595 12.67422485 C121.20621552 12.67331848 119.95158508 12.67241211 118.65893555 12.67147827 C117.32509484 12.6774622 115.9912576 12.68426744 114.65742493 12.6918335 C111.03346414 12.7095135 107.40959778 12.71418968 103.78559804 12.71546507 C100.7611699 12.71736354 97.73676378 12.72472038 94.71234411 12.73180926 C87.57766794 12.74809802 80.44304224 12.75297773 73.30834961 12.7515564 C65.94591369 12.75035446 58.58377068 12.77146536 51.2214089 12.80304372 C44.90200357 12.82918383 38.58269403 12.83992467 32.26323503 12.83864558 C28.48814535 12.83813532 24.71331599 12.84385348 20.93828011 12.86500168 C17.38820847 12.88434654 13.83864651 12.8845349 10.28855705 12.86996841 C8.36418063 12.86687579 6.43980438 12.88358259 4.51550293 12.90084839 C3.3700148 12.89245941 2.22452667 12.88407043 1.04432678 12.87542725 C0.04899964 12.87651678 -0.9463275 12.87760632 -1.97181606 12.87872887 C-5.3110675 12.24132477 -6.50246698 11.02004135 -8.57958984 8.38095093 C-9.01708984 5.81845093 -9.01708984 5.81845093 -8.57958984 3.38095093 C-6.13991561 0.0099787 -4.01923785 0.00449661 0 0 Z " fill="#393A3A" transform="translate(239.57958984375,323.6190490722656)"/>
<path d="M0 0 C1.1426683 -0.00708481 2.28533661 -0.01416962 3.46263123 -0.02146912 C4.71726166 -0.0189917 5.97189209 -0.01651428 7.26454163 -0.01396179 C8.59838141 -0.0183087 9.93221869 -0.02349178 11.26605225 -0.02944946 C14.89002262 -0.04285317 18.5138888 -0.04341662 22.13787913 -0.04088616 C25.16230567 -0.03981736 28.18671105 -0.0446975 31.21113306 -0.04949158 C38.34581396 -0.06059155 45.48044221 -0.06102146 52.61512756 -0.05497742 C59.97751568 -0.04893641 67.33971275 -0.06125063 74.70206827 -0.08254749 C81.02147197 -0.10015584 87.34081481 -0.10616606 93.66024214 -0.10290974 C97.43527994 -0.10109548 101.21018146 -0.10374718 104.98519707 -0.11762428 C108.53520567 -0.13018563 112.08491618 -0.12827488 115.63492012 -0.11521339 C117.55927937 -0.11171427 119.48364764 -0.12303813 121.40797424 -0.13478088 C122.55346237 -0.12776657 123.6989505 -0.12075226 124.87915039 -0.11352539 C126.3721411 -0.113777 126.3721411 -0.113777 127.89529324 -0.1140337 C130.94648013 0.32441369 132.32647538 1.09934985 134.50306702 3.26069641 C134.95638154 6.36913883 135.18127868 8.30586571 133.32165432 10.92396641 C130.80336585 12.77500306 129.07932268 12.64083422 125.96817017 12.64837646 C124.81708771 12.6582811 123.66600525 12.66818573 122.4800415 12.6783905 C121.21606033 12.67388885 119.95207916 12.66938721 118.64979553 12.66474915 C117.30610078 12.67045098 115.96241088 12.67741451 114.61872864 12.68554688 C110.96785806 12.70351492 107.31722735 12.70230309 103.66632581 12.69660449 C100.61952221 12.6935177 97.57276502 12.69959942 94.52596802 12.70564324 C87.33852633 12.71969897 80.15120347 12.71811866 72.96376038 12.70674133 C65.54677882 12.69526015 58.13015885 12.70933314 50.71322495 12.73613781 C44.34709898 12.75828417 37.98108661 12.76493458 31.61492485 12.7590614 C27.81190615 12.75568788 24.00911923 12.75813265 20.20613289 12.77531242 C16.62977456 12.79076269 13.05395236 12.78684812 9.47761536 12.76800728 C7.53894218 12.76255504 5.60024505 12.77685029 3.66162109 12.79170227 C2.50771881 12.78186813 1.35381653 12.772034 0.16494751 12.76190186 C-0.83775397 12.76169257 -1.84045546 12.76148329 -2.87354183 12.76126766 C-6.23452124 12.11995664 -7.44939502 10.95876919 -9.49693298 8.26069641 C-9.43443298 5.13569641 -9.43443298 5.13569641 -8.49693298 2.26069641 C-5.11246352 0.00438343 -3.96506963 0.00818109 0 0 Z " fill="#343434" transform="translate(240.49693298339844,229.7393035888672)"/>
<path d="M0 0 C1.30453125 -0.02578125 2.6090625 -0.0515625 3.953125 -0.078125 C9.8862743 0.4346163 14.56613251 3.06613251 18.75 7.25 C22.98031731 13.58385422 25.20264789 19.64426631 23.75 27.25 C21.44118372 34.12559385 17.88144008 39.31817968 11.75 43.25 C5.57906223 46.26690291 -1.90568371 46.21588646 -8.4375 44.25 C-14.47090109 41.66076714 -18.01358018 36.40376356 -21.1875 30.875 C-23.17232109 24.10325744 -23.14560987 18.50533975 -20.25 12 C-15.69728866 3.71641347 -9.19466508 0.10817253 0 0 Z " fill="#4D4E4E" transform="translate(390.25,104.75)"/>
<path d="M0 0 C0.33 0 0.66 0 1 0 C1 14.85 1 29.7 1 45 C-1.64 43.68 -4.28 42.36 -7 41 C-14.03777682 39.86984606 -21.01099787 39.73912118 -27.1875 43.625 C-29.91250951 45.65666389 -31.07821352 47.14472162 -32.72265625 50.1875 C-35 53 -35 53 -38.890625 53.5859375 C-40.3450511 53.55186656 -41.7985637 53.47424101 -43.25 53.375 C-45.8075 53.25125 -48.365 53.1275 -51 53 C-51 42.77 -51 32.54 -51 22 C-39.7180566 18.5099024 -28.54781668 15.23010856 -16.98168945 12.82543945 C-10.86864543 11.47843696 -6.42613036 9.76076903 -2.1875 4.9375 C-0.84435463 2.90994674 -0.84435463 2.90994674 0 0 Z " fill="#313333" transform="translate(405,65)"/>
<path d="M0 0 C0.17534031 4.49950218 0.28121079 8.99811773 0.375 13.5 C0.45041016 15.40265625 0.45041016 15.40265625 0.52734375 17.34375 C0.6336996 24.15052439 0.58896748 29.472659 -4.15087891 34.69335938 C-7.46375431 37.03432969 -10.46457056 36.86481199 -14.375 36.5 C-16.89125 36.335 -19.4075 36.17 -22 36 C-22 25.77 -22 15.54 -22 5 C-18.225625 3.7625 -18.225625 3.7625 -14.375 2.5 C-13.59431152 2.23896484 -12.81362305 1.97792969 -12.00927734 1.70898438 C-11.3745752 1.50595703 -10.73987305 1.30292969 -10.0859375 1.09375 C-9.4470459 0.88427734 -8.8081543 0.67480469 -8.14990234 0.45898438 C-5.40465878 -0.12709987 -2.79810989 -0.0696914 0 0 Z " fill="#003333" transform="translate(376,82)"/>
<path d="M0 0 C4.40608743 2.16298837 7.1987497 4.39680479 9 9 C9.68426057 14.04325384 9.5739862 17.83076884 7.3125 22.4375 C3.29457394 26.88979644 0.53708356 28.19236562 -5.4375 28.5 C-9.22006989 28.40314174 -11.60238997 28.10079168 -14.5625 25.6875 C-18.95505829 20.84442291 -19.44207668 18.07263638 -19.31640625 11.73046875 C-18.75079154 6.84942332 -16.44390947 4.27403777 -12.875 1.125 C-8.55651358 -0.56484251 -4.5732948 -0.65960983 0 0 Z " fill="#333333" transform="translate(396,113)"/>
</svg>
