<?xml version="1.0" encoding="UTF-8"?>
<svg version="1.1" xmlns="http://www.w3.org/2000/svg" width="512" height="512">
<path d="M0 0 C28.05870799 -0.22427031 56.05512285 0.4208682 84.0980835 1.33239746 C88.53205677 1.47461099 92.96624179 1.60949653 97.40044212 1.74441433 C101.705368 1.87612898 106.0101646 2.01172477 110.31492996 2.14857674 C112.35218664 2.2130057 114.38947654 2.27639354 116.42679977 2.33868217 C119.24740075 2.42562589 122.06779106 2.51765165 124.88818359 2.61108398 C125.71190964 2.63554092 126.53563568 2.65999786 127.38432312 2.68519592 C131.99480533 2.84408996 136.44539816 3.26067818 141 4 C140.67 6.64 140.34 9.28 140 12 C165.92142616 12.00955845 191.84262535 11.98493627 217.7639761 11.9197216 C229.7999722 11.8902359 241.83579179 11.87189796 253.87182617 11.87988281 C264.36353507 11.88681477 274.85497077 11.87274957 285.34661251 11.83356392 C290.9009584 11.81354956 296.45487536 11.80398669 302.00924492 11.81957626 C307.24038535 11.83392667 312.47070701 11.82014054 317.70174217 11.78504753 C319.61850273 11.77709815 321.53533743 11.77930829 323.45206833 11.79260826 C337.34251652 11.98158732 337.34251652 11.98158732 349 5 C352.0390625 3.57421875 352.0390625 3.57421875 354.625 2.6875 C355.48351562 2.38199219 356.34203125 2.07648437 357.2265625 1.76171875 C373.31285052 -2.65634627 394.73076134 0.77867239 409.375 8.6875 C415.54632809 11.84173436 422.14168424 11.78775527 428.93139648 12.27124023 C438.30840158 12.98440283 446.53809911 14.6347781 453.5703125 21.296875 C461.66877706 30.94422623 462.15023995 43.39858445 462.14044189 55.3664093 C462.14489858 57.07376394 462.14489858 57.07376394 462.1494453 58.81561059 C462.15811063 62.62618602 462.15963871 66.43672995 462.16113281 70.24731445 C462.16522655 72.98085718 462.17076695 75.71439662 462.17617798 78.44793701 C462.18973125 85.87150927 462.19578098 93.29507611 462.20018864 100.71865869 C462.20295548 105.35695208 462.20719357 109.9952434 462.21169281 114.63353539 C462.22388028 127.48503774 462.23418145 140.33653845 462.2375679 153.18804646 C462.23778747 154.00974853 462.23800703 154.8314506 462.23823325 155.67805273 C462.23845153 156.50167193 462.23866981 157.32529112 462.2388947 158.17386848 C462.23933816 159.84271896 462.23978472 161.51156944 462.24023438 163.18041992 C462.2404558 164.00821983 462.24067723 164.83601973 462.24090537 165.68890449 C462.24485366 179.10300457 462.26231094 192.51705033 462.2855939 205.93112943 C462.30932547 219.71529275 462.32177053 233.49942883 462.32293582 247.28361291 C462.32385143 255.01810333 462.32957517 262.75252292 462.34775543 270.48699379 C462.36318063 277.07233868 462.36826255 283.65759083 462.36001733 290.24295036 C462.35611966 293.60021663 462.3586403 296.95714494 462.37107468 300.31441307 C462.383786 303.96064858 462.37792122 307.60640741 462.36749268 311.25263977 C462.37554908 312.30431109 462.38360548 313.35598241 462.39190602 314.43952256 C462.30698679 327.16431968 458.16783034 338.02725368 449.125 347.125 C448.08653048 348.0867969 447.04540884 349.04575025 446 350 C446.96421875 350.74765625 447.9284375 351.4953125 448.921875 352.265625 C450.19802809 353.26027373 451.47406356 354.25507337 452.75 355.25 C453.38421875 355.74113281 454.0184375 356.23226563 454.671875 356.73828125 C461.65147399 362.19109296 461.65147399 362.19109296 464 365 C465.83536448 381.25608544 458.40113118 398.1372853 449 411 C433.05746585 430.71292863 407.4582924 447.6700857 382 452 C375.10773081 452.64344344 369.01928347 451.86585932 363.28149414 447.7746582 C358.23907963 443.54815418 354.80875141 438.80931195 351.27148438 433.30273438 C348.27341615 428.93110185 345.98834508 427.284867 340.94750977 425.72875977 C330.425787 421.7915224 321.42941272 406.32243488 316 397 C315.75350708 396.36503098 315.50701416 395.73006195 315.25305176 395.07585144 C313.55657785 390.8758334 313.55657785 390.8758334 310.2590332 387.94613647 C308.09219801 387.19947011 305.96199764 386.67651795 303.71875 386.20703125 C302.90942017 386.00824875 302.10009033 385.80946625 301.26623535 385.60466003 C298.68380074 384.97591696 296.09380441 384.39236261 293.5 383.8125 C290.11102897 383.0210771 286.72654168 382.21193652 283.34375 381.39453125 C282.52739075 381.19878006 281.71103149 381.00302887 280.86993408 380.80134583 C272.15010316 378.65016715 263.8422639 375.55960565 256.25 370.6875 C255.43015625 370.17574219 254.6103125 369.66398437 253.765625 369.13671875 C251 367 251 367 249.60380554 365.07745361 C246.56106184 361.1601957 244.22415365 359.24911433 239.29086304 358.24519348 C234.61538186 357.8535159 229.94139501 357.91287873 225.25390625 357.97265625 C223.51569545 357.96980243 221.77748714 357.96442454 220.03929138 357.95664978 C216.40506282 357.94938922 212.77241666 357.97037446 209.13842773 358.01196289 C204.49979839 358.06310555 199.86431712 358.0472855 195.22564793 358.01058292 C191.63843404 357.98908195 188.05194787 358.0016203 184.46476555 358.02435112 C182.7556981 358.03149254 181.04655688 358.02867507 179.33752632 358.01536751 C169.14711778 357.95926744 162.58422624 358.58466219 155 366 C148.18527315 369.52201919 140.87138487 370.7671385 133.3125 371.5625 C132.29994141 371.67762939 131.28738281 371.79275879 130.24414062 371.91137695 C126.83102499 372.29092483 123.41583586 372.64582026 120 373 C118.09806885 373.20737793 118.09806885 373.20737793 116.15771484 373.41894531 C102.36466213 374.92220873 88.57233359 376.26625961 74.6875 376.4375 C73.2943457 376.47073364 73.2943457 376.47073364 71.87304688 376.50463867 C62.66823557 376.47522227 54.17924606 373.98629275 47.4375 367.5 C46.22900391 366.37078125 46.22900391 366.37078125 44.99609375 365.21875 C43.15418465 363.17138333 42.15746834 361.46151705 41 359 C39.23910034 358.98598145 39.23910034 358.98598145 37.44262695 358.97167969 C33.0270593 358.93137286 28.61215903 358.86550772 24.19702148 358.79248047 C22.29737007 358.76450422 20.39760729 358.7431754 18.49780273 358.72900391 C3.48712383 358.61040492 -9.83820349 357.86801956 -22 348 C-22.62519531 347.49855469 -23.25039063 346.99710937 -23.89453125 346.48046875 C-30.37610669 340.67670512 -35.63946794 331.51385148 -36.1276505 322.69369638 C-36.128897 321.8379114 -36.13014349 320.98212641 -36.13142776 320.10040855 C-36.13526891 319.10932701 -36.13911005 318.11824546 -36.1430676 317.09713113 C-36.14220112 316.01057438 -36.14133463 314.92401763 -36.14044189 313.80453491 C-36.14341302 312.648444 -36.14638414 311.49235309 -36.1494453 310.30122912 C-36.15662449 307.09151711 -36.15930453 303.88183772 -36.16004276 300.6721189 C-36.16189441 297.21047348 -36.1694424 293.74883965 -36.17617798 290.28720093 C-36.18975838 282.71676146 -36.1957858 275.14632729 -36.20018864 267.57587767 C-36.20295202 262.84731274 -36.2071896 258.11874986 -36.21169281 253.39018631 C-36.22388597 240.29432237 -36.23418462 227.19846006 -36.2375679 214.10259056 C-36.23778747 213.26444507 -36.23800703 212.42629958 -36.23823325 211.56275574 C-36.23845153 210.72261751 -36.23866981 209.88247927 -36.2388947 209.0168823 C-36.23933816 207.31447752 -36.23978473 205.61207275 -36.24023438 203.90966797 C-36.2404558 203.06521848 -36.24067723 202.220769 -36.24090537 201.35073014 C-36.24485147 187.67454546 -36.26229952 173.99841413 -36.2855939 160.32225005 C-36.30932512 146.27601887 -36.32177059 132.22981443 -36.32293582 118.18356287 C-36.32385168 110.29923957 -36.32958136 102.41498574 -36.34775543 94.53068161 C-36.36318046 87.8153423 -36.36826281 81.10009394 -36.36001733 74.38474028 C-36.35611906 70.96070454 -36.35699981 67.53685179 -36.37107468 64.11283875 C-36.3837831 60.39419124 -36.37792268 56.67601133 -36.36749268 52.95736694 C-36.37554908 51.88419452 -36.38360548 50.8110221 -36.39190602 49.7053293 C-36.3234491 39.24719043 -33.99104841 30.00291068 -27 22 C-19.36038758 15.05765379 -10.10363704 13 0 13 C0 8.71 0 4.42 0 0 Z " fill="#FEFEFE" transform="translate(42,30)"/>
<path d="M0 0 C7.45255696 -0.02301155 14.90509978 -0.04117211 22.35768414 -0.05181217 C25.82188471 -0.05693054 29.28605881 -0.06381397 32.75024414 -0.07543945 C47.47364521 -0.12343772 62.17802751 -0.05424551 76.89453125 0.44140625 C78.06892258 0.48039536 79.2433139 0.51938446 80.45329285 0.55955505 C87.00195019 0.80541537 93.48939908 1.24926584 100 2 C99.67 4.64 99.34 7.28 99 10 C212.85 10.495 212.85 10.495 329 11 C329 10.34 329 9.68 329 9 C330.46875 7.59765625 330.46875 7.59765625 332.5 6.0625 C333.1496875 5.55847656 333.799375 5.05445313 334.46875 4.53515625 C340.63122443 0.79772963 346.40024835 -0.5374567 353.5625 -0.4375 C354.73377441 -0.42505249 354.73377441 -0.42505249 355.92871094 -0.41235352 C374.88418866 0.12873641 391.13140128 8.42519769 404 22 C412.74319655 31.94186059 416.36249893 42.25012489 416.25 55.375 C416.25773437 56.26960938 416.26546875 57.16421875 416.2734375 58.0859375 C416.22775251 73.80157382 409.87618671 86.26649744 398.8828125 97.33984375 C391.00750659 104.60689432 382.09473852 108.6476428 372 112 C370.89527344 112.36738281 369.79054688 112.73476562 368.65234375 113.11328125 C356.46647897 116.07177463 343.61967231 114.58878995 332.5859375 108.71484375 C321.45176247 101.84685606 315.01387825 92.82133895 310 81 C309.63777344 80.16726562 309.27554687 79.33453125 308.90234375 78.4765625 C302.57403706 61.22824753 308.84536825 42.74018985 316 27 C243.4 26.67 170.8 26.34 96 26 C96.33 26.66 96.66 27.32 97 28 C97.7773504 37.90165995 96.75704684 47.25279025 95 57 C91.3408478 77.92398683 92.81423555 98.10330568 96 119 C81.65819761 123.7806008 63.53911797 122.3442033 48.5078125 122.57321167 C46.59963203 122.60749121 44.69164513 122.65557106 42.78417969 122.7180481 C24.27467006 123.29404248 24.27467006 123.29404248 16.01074219 116.1003418 C13.68385686 113.66976937 11.41071508 111.25455177 9.4140625 108.54296875 C8.00492119 106.79600227 8.00492119 106.79600227 5.43774414 105.88208008 C3 104 3 104 2.46411133 100.59960938 C2.47831 99.18051617 2.51956386 97.76153875 2.58203125 96.34375 C2.59461975 95.57723618 2.60720825 94.81072235 2.62017822 94.02098083 C2.6488321 92.37175513 2.68826887 90.72268876 2.73733521 89.07394409 C2.86362537 84.74926214 2.90695152 80.42382028 2.953125 76.09765625 C2.96388565 75.23402969 2.9746463 74.37040314 2.98573303 73.48060608 C3.0840671 62.93313744 2.24726572 52.489447 1.27001953 41.99169922 C0.78931953 36.6657518 0.39904468 31.33259029 0 26 C-10.92523858 25.89279629 -10.92523858 25.89279629 -20 31 C-21.79733728 33.95654682 -22.2507241 36.14604317 -22.25447559 39.58559322 C-22.26030779 40.50660696 -22.26613998 41.4276207 -22.27214891 42.37654394 C-22.26836958 43.38480138 -22.26459026 44.39305881 -22.26069641 45.43186951 C-22.26452196 46.50573365 -22.26834751 47.57959779 -22.27228898 48.68600327 C-22.2826356 52.29649615 -22.27862363 55.9068305 -22.2746582 59.51733398 C-22.27900374 62.10091296 -22.28418635 64.68449065 -22.29014587 67.26806641 C-22.30290356 73.5644772 -22.30468525 79.86084537 -22.30234561 86.15726691 C-22.30056352 91.27441083 -22.30230975 96.39154179 -22.30657005 101.50868416 C-22.30716524 102.23661859 -22.30776043 102.96455302 -22.30837366 103.71454607 C-22.30958539 105.19328228 -22.31079952 106.67201849 -22.31201603 108.1507547 C-22.32289565 122.02231832 -22.32072706 135.89385765 -22.31463119 149.76542265 C-22.30946139 162.45884585 -22.32071837 175.15219233 -22.33972941 187.84560036 C-22.35909562 200.8759314 -22.36736596 213.90622612 -22.36360615 226.93657166 C-22.36169229 234.25343447 -22.36419967 241.57023197 -22.37832069 248.88708305 C-22.3914623 255.76612614 -22.38899102 262.64501292 -22.37590981 269.52405548 C-22.37353619 272.0520616 -22.3763066 274.58007843 -22.38453293 277.10807228 C-22.39493551 280.5526112 -22.38695159 283.99662717 -22.3742218 287.44114685 C-22.38159609 288.44717357 -22.38897037 289.45320028 -22.39656812 290.48971266 C-22.35768473 295.47317426 -22.28831912 298.97471224 -19 303 C-16.08625383 305.76177122 -14.11729079 306.38003565 -10.13964844 306.43237305 C-8.69860748 306.46206429 -8.69860748 306.46206429 -7.22845459 306.49235535 C-6.19915833 306.49874527 -5.16986206 306.50513519 -4.109375 306.51171875 C-3.04962463 306.52966995 -1.98987427 306.54762115 -0.89801025 306.56611633 C2.48461944 306.6202702 5.8671076 306.65413199 9.25 306.6875 C11.54429055 306.72066852 13.83856241 306.75515773 16.1328125 306.79101562 C21.75508143 306.87599955 27.37736856 306.94432802 33 307 C32.99476318 305.8761792 32.98952637 304.7523584 32.98413086 303.59448242 C32.96586569 299.37688003 32.95449028 295.15928104 32.94506836 290.94165039 C32.94007689 289.12523814 32.93328136 287.30882982 32.92456055 285.49243164 C32.77990011 254.56062668 32.77990011 254.56062668 38.35546875 248.53515625 C43.55213166 243.92629068 48.79876002 242.65535653 55.53515625 241.91015625 C56.2718605 241.82637222 57.00856476 241.7425882 57.76759338 241.65626526 C66.96912734 240.68974003 76.19373667 240.57712341 85.4375 240.4375 C88.08464573 240.39341704 90.73167845 240.34687283 93.37867737 240.29469299 C95.00679185 240.26294664 96.63500878 240.23599268 98.26329041 240.21446228 C102.26207373 240.22548566 102.26207373 240.22548566 106 239 C114.27263481 238.26652511 121.77296971 238.61793872 129 243 C133.4342696 246.8172368 135.66888142 251.44476413 136.4140625 257.1953125 C137.30773543 273.84410819 137 290.23554438 137 307 C164.72 306.67 192.44 306.34 221 306 C213.08 295.605 213.08 295.605 205 285 C196.00639307 270.86718911 196.00639307 270.86718911 197 263 C199.07012839 259.52514162 201.11634312 257.25647722 205 256 C208.25 255.875 208.25 255.875 211 256 C211.35578125 254.71802734 211.35578125 254.71802734 211.71875 253.41015625 C213.13665188 249.63628936 215.12988008 246.65192781 217.5 243.4375 C221.67545012 238.14148432 221.67545012 238.14148432 224 232 C222.55916462 229.53673777 221.21896314 227.69132738 219.375 225.5625 C218.87299072 224.95631836 218.37098145 224.35013672 217.85375977 223.72558594 C216.25258098 221.80228679 214.62683408 219.90161417 213 218 C211.979033 216.77593568 210.95947203 215.55069709 209.94140625 214.32421875 C205.38311137 208.87778108 200.75532726 203.67265285 195.625 198.75 C189.74879763 192.94961959 184.75134806 187.18677502 184.4375 178.625 C184.50381783 175.91039014 184.9149712 174.18802594 186.03515625 171.7109375 C188.53073741 169.53784694 190.52186384 169.35409807 193.78369141 169.52832031 C198.01772868 170.42941747 201.22309632 172.87996602 204.6875 175.375 C205.47060547 175.91866211 206.25371094 176.46232422 207.06054688 177.02246094 C213.87735787 181.79645817 220.49698096 186.80807351 227 192 C227.9384375 192.74507812 228.876875 193.49015625 229.84375 194.2578125 C236.43250017 199.50943396 236.43250017 199.50943396 239.44921875 202.1171875 C242.0941626 204.0695044 244.15640289 204.9083741 247.3125 205.75 C248.63701172 206.11351562 248.63701172 206.11351562 249.98828125 206.484375 C250.65214844 206.65453125 251.31601562 206.8246875 252 207 C251.76216797 205.59814453 251.76216797 205.59814453 251.51953125 204.16796875 C250.8191414 199.22543075 250.73961098 194.29778365 250.6875 189.3125 C250.64399414 187.90774414 250.64399414 187.90774414 250.59960938 186.47460938 C250.53700155 179.72741226 250.53700155 179.72741226 252.6484375 176.41015625 C255.50547198 174.69688474 257.62706597 174.40052162 260.9375 174.125 C265.11694329 173.57386462 267.54437816 173.21219351 270.25 169.875 C271.11625 168.451875 271.11625 168.451875 272 167 C275.20148395 167.35572044 275.96202632 167.95362966 278.0614624 170.51728821 C282.15400568 173.97499637 285.13579723 173.6612446 290.32910156 173.53588867 C291.26147141 173.53340622 292.19384125 173.53092377 293.15446472 173.52836609 C296.23382218 173.51469869 299.31162934 173.46605087 302.390625 173.41796875 C304.53666692 173.40355448 306.68272707 173.39165381 308.82879639 173.38215637 C314.48094111 173.3517342 320.13241612 173.29307338 325.78424072 173.22674561 C334.8156539 173.12447558 343.84733983 173.06061757 352.87914276 173.00493813 C356.02609609 172.98086672 359.17261815 172.9421989 362.31939697 172.9016571 C364.26403456 172.884791 366.20867559 172.86831657 368.15332031 172.85229492 C369.02012924 172.83724915 369.88693817 172.82220337 370.78001404 172.80670166 C376.23638472 172.77696257 381.87233556 172.95423729 387 175 C391.08453996 181.12680994 390.18277147 189.0521545 390.1875 196.1875 C390.19974609 197.17169922 390.21199219 198.15589844 390.22460938 199.16992188 C390.22654297 200.11802734 390.22847656 201.06613281 390.23046875 202.04296875 C390.23457764 202.89914795 390.23868652 203.75532715 390.24291992 204.63745117 C389.96821215 207.30915677 389.56545472 208.81095432 388 211 C384.01107302 213.24850208 379.863023 213.42365529 375.37890625 213.62109375 C374.27029991 213.67770424 374.27029991 213.67770424 373.13929749 213.73545837 C364.40776571 214.13940743 355.67598559 214.10962931 346.9375 214.0625 C345.28060034 214.05746482 343.62369917 214.05290555 341.96679688 214.04882812 C337.97782584 214.03800562 333.98893065 214.02085757 330 214 C330.44730469 214.88228271 330.89460938 215.76456543 331.35546875 216.67358398 C334.62792803 223.15585462 337.80461548 229.65609089 340.76293945 236.28930664 C350.87894615 258.96696997 362.35335497 280.7826693 375.61230469 301.78125 C377.10598575 304.16945787 378.5571981 306.58077793 380 309 C380.59167969 308.88140625 381.18335938 308.7628125 381.79296875 308.640625 C382.58316406 308.51171875 383.37335938 308.3828125 384.1875 308.25 C384.96480469 308.11078125 385.74210937 307.9715625 386.54296875 307.828125 C390.11771604 308.07818681 391.44863298 309.52848797 394 312 C395.68250163 314.12483673 397.23390234 316.20419116 398.75 318.4375 C399.14832031 318.99759766 399.54664063 319.55769531 399.95703125 320.13476562 C402.19325966 323.38298214 403.55867853 326.06488358 404 330 C402.54634731 331.17249353 401.08692581 332.33783816 399.625 333.5 C398.81289063 334.1496875 398.00078125 334.799375 397.1640625 335.46875 C395 337 395 337 393 337 C393.185625 338.27875 393.37125 339.5575 393.5625 340.875 C393.53513311 346.69502609 390.70964947 349.52896481 386.74609375 353.5234375 C365.71981716 372.48596859 365.71981716 372.48596859 354.7734375 373.21484375 C353.85820312 373.14394531 352.94296875 373.07304687 352 373 C348.87690547 372.65290727 348.87690547 372.65290727 346.9140625 375.01171875 C346.15867187 375.89472656 345.40328125 376.77773438 344.625 377.6875 C341.51531946 381.26161335 338.3976769 384.70225477 335 388 C334.401875 388.598125 333.80375 389.19625 333.1875 389.8125 C332.795625 390.204375 332.40375 390.59625 332 391 C323.28167134 387.25806248 316.06514144 376.21987278 312 368 C311.83165422 365.085213 312.39068203 362.89426037 313 360 C311.47761081 357.06236925 310.08852055 355.40783995 306.94287109 354.22924805 C304.32801842 353.57725832 301.71216996 353.05421254 299.0625 352.5625 C297.07449057 352.15341264 295.0875273 351.73921315 293.1015625 351.3203125 C292.08868164 351.10793945 291.07580078 350.89556641 290.03222656 350.67675781 C282.68548342 349.03704992 275.48738043 346.82079595 268.27832031 344.66699219 C266.24413429 344.0714718 264.19691756 343.52088479 262.1484375 342.9765625 C245.35474365 338.37501173 235.98153816 326.34943478 226 313 C225.63065842 312.28962585 225.26131683 311.57925171 224.88078308 310.84735107 C221.93232341 307.95130198 218.58298034 308.42959994 214.6730957 308.45410156 C213.82409698 308.44376389 212.97509827 308.43342621 212.10037231 308.42277527 C209.2919837 308.39325931 206.48431303 308.39184626 203.67578125 308.390625 C201.72949339 308.37564927 199.78321826 308.35892341 197.83695984 308.34051514 C192.71267119 308.29676117 187.58855398 308.27682472 182.46411133 308.26177979 C177.23573637 308.24223768 172.00754736 308.20026446 166.77929688 308.16015625 C156.51958849 308.084767 146.25992154 308.03452833 136 308 C136.01377686 309.89359253 136.01377686 309.89359253 136.02783203 311.82543945 C136.07581112 318.42003901 134.83116273 323.99849656 130.3125 328.9375 C111.73117698 340.50700301 77.8006454 339.16499054 56.25 339.4375 C55.38294434 339.4595752 54.51588867 339.48165039 53.62255859 339.50439453 C47.07183128 339.48191979 43.48233905 337.41338518 38.75 332.8125 C37.06607679 330.10619485 36.52160569 328.38779606 35.890625 325.32421875 C35.72079102 324.51428467 35.55095703 323.70435059 35.37597656 322.86987305 C35.2519043 322.25281494 35.12783203 321.63575684 35 321 C34.22405487 321.00888245 33.44810974 321.01776489 32.64865112 321.0269165 C25.32191551 321.10719665 17.99539434 321.16803206 10.66833305 321.20724869 C6.90174409 321.22808854 3.13551976 321.25633908 -0.63085938 321.30175781 C-4.26836587 321.34534598 -7.90552253 321.36916419 -11.54327011 321.37950897 C-12.92832824 321.38687726 -14.31336807 321.40126605 -15.69827652 321.42292023 C-26.64996275 321.58728698 -26.64996275 321.58728698 -31.64794922 319.41308594 C-38.12537483 312.76757268 -38.58086175 307.22471629 -38.50793457 298.27172852 C-38.51417453 297.09462342 -38.5204145 295.91751833 -38.52684355 294.70474339 C-38.5400096 291.45021487 -38.53530982 288.19628619 -38.52289867 284.94177294 C-38.51383347 281.42704151 -38.52782516 277.91239001 -38.53881836 274.39767456 C-38.55659257 267.51741941 -38.55276855 260.63733894 -38.5411678 253.75707698 C-38.5321294 248.16470708 -38.53091123 242.57238609 -38.53526306 236.98001099 C-38.53618246 235.78550917 -38.53618246 235.78550917 -38.53712043 234.56687599 C-38.53839935 232.94907084 -38.5396962 231.33126569 -38.5410108 229.71346056 C-38.55241337 214.54798246 -38.53930797 199.38260112 -38.51780933 184.21713889 C-38.49993863 171.20818737 -38.50304282 158.19937863 -38.52148438 145.19042969 C-38.5428968 130.07873528 -38.55131477 114.96712566 -38.53903532 99.85541821 C-38.53776114 98.24360849 -38.53650366 96.63179876 -38.53526306 95.01998901 C-38.53464596 94.22697516 -38.53402886 93.4339613 -38.53339306 92.61691672 C-38.52994127 87.03211687 -38.5357648 81.44737086 -38.54518127 75.86257935 C-38.55640678 69.05532351 -38.55334972 62.24825213 -38.5320583 55.44101739 C-38.52155516 51.9686914 -38.51741313 48.49667283 -38.53065491 45.02434921 C-38.54156758 41.25868228 -38.52789649 37.49388298 -38.50793457 33.72827148 C-38.5213189 32.08512891 -38.5213189 32.08512891 -38.53497362 30.40879154 C-38.46949801 24.05117669 -37.80096371 20.16367981 -34 15 C-27.71632273 9.71386716 -20.95784393 10.53471008 -13.0625 10.75 C-11.17821289 10.77707031 -11.17821289 10.77707031 -9.25585938 10.8046875 C-6.16978084 10.85162406 -3.08529219 10.91727586 0 11 C0 7.37 0 3.74 0 0 Z " fill="#FEAD92" transform="translate(61,49)"/>
<path d="M0 0 C28.05870799 -0.22427031 56.05512285 0.4208682 84.0980835 1.33239746 C88.53205677 1.47461099 92.96624179 1.60949653 97.40044212 1.74441433 C101.705368 1.87612898 106.0101646 2.01172477 110.31492996 2.14857674 C112.35218664 2.2130057 114.38947654 2.27639354 116.42679977 2.33868217 C119.24740075 2.42562589 122.06779106 2.51765165 124.88818359 2.61108398 C125.71190964 2.63554092 126.53563568 2.65999786 127.38432312 2.68519592 C131.99480533 2.84408996 136.44539816 3.26067818 141 4 C140.67 6.64 140.34 9.28 140 12 C165.92142616 12.00955845 191.84262535 11.98493627 217.7639761 11.9197216 C229.7999722 11.8902359 241.83579179 11.87189796 253.87182617 11.87988281 C264.36353507 11.88681477 274.85497077 11.87274957 285.34661251 11.83356392 C290.9009584 11.81354956 296.45487536 11.80398669 302.00924492 11.81957626 C307.24038535 11.83392667 312.47070701 11.82014054 317.70174217 11.78504753 C319.61850273 11.77709815 321.53533743 11.77930829 323.45206833 11.79260826 C337.34251652 11.98158732 337.34251652 11.98158732 349 5 C352.0390625 3.57421875 352.0390625 3.57421875 354.625 2.6875 C355.48351562 2.38199219 356.34203125 2.07648437 357.2265625 1.76171875 C373.31285052 -2.65634627 394.73076134 0.77867239 409.375 8.6875 C415.54632809 11.84173436 422.14168424 11.78775527 428.93139648 12.27124023 C438.30840158 12.98440283 446.53809911 14.6347781 453.5703125 21.296875 C461.66877706 30.94422623 462.15023995 43.39858445 462.14044189 55.3664093 C462.14489858 57.07376394 462.14489858 57.07376394 462.1494453 58.81561059 C462.15811063 62.62618602 462.15963871 66.43672995 462.16113281 70.24731445 C462.16522655 72.98085718 462.17076695 75.71439662 462.17617798 78.44793701 C462.18973125 85.87150927 462.19578098 93.29507611 462.20018864 100.71865869 C462.20295548 105.35695208 462.20719357 109.9952434 462.21169281 114.63353539 C462.22388028 127.48503774 462.23418145 140.33653845 462.2375679 153.18804646 C462.23778747 154.00974853 462.23800703 154.8314506 462.23823325 155.67805273 C462.23845153 156.50167193 462.23866981 157.32529112 462.2388947 158.17386848 C462.23933816 159.84271896 462.23978472 161.51156944 462.24023438 163.18041992 C462.2404558 164.00821983 462.24067723 164.83601973 462.24090537 165.68890449 C462.24485366 179.10300457 462.26231094 192.51705033 462.2855939 205.93112943 C462.30932547 219.71529275 462.32177053 233.49942883 462.32293582 247.28361291 C462.32385143 255.01810333 462.32957517 262.75252292 462.34775543 270.48699379 C462.36318063 277.07233868 462.36826255 283.65759083 462.36001733 290.24295036 C462.35611966 293.60021663 462.3586403 296.95714494 462.37107468 300.31441307 C462.383786 303.96064858 462.37792122 307.60640741 462.36749268 311.25263977 C462.37554908 312.30431109 462.38360548 313.35598241 462.39190602 314.43952256 C462.30698679 327.16431968 458.16783034 338.02725368 449.125 347.125 C448.08653048 348.0867969 447.04540884 349.04575025 446 350 C446.96421875 350.74765625 447.9284375 351.4953125 448.921875 352.265625 C450.19802809 353.26027373 451.47406356 354.25507337 452.75 355.25 C453.38421875 355.74113281 454.0184375 356.23226563 454.671875 356.73828125 C461.65147399 362.19109296 461.65147399 362.19109296 464 365 C465.83536448 381.25608544 458.40113118 398.1372853 449 411 C433.05746585 430.71292863 407.4582924 447.6700857 382 452 C375.10773081 452.64344344 369.01928347 451.86585932 363.28149414 447.7746582 C358.23907963 443.54815418 354.80875141 438.80931195 351.27148438 433.30273438 C348.27341615 428.93110185 345.98834508 427.284867 340.94750977 425.72875977 C330.425787 421.7915224 321.42941272 406.32243488 316 397 C315.75350708 396.36503098 315.50701416 395.73006195 315.25305176 395.07585144 C313.55657785 390.8758334 313.55657785 390.8758334 310.2590332 387.94613647 C308.09219801 387.19947011 305.96199764 386.67651795 303.71875 386.20703125 C302.90942017 386.00824875 302.10009033 385.80946625 301.26623535 385.60466003 C298.68380074 384.97591696 296.09380441 384.39236261 293.5 383.8125 C290.11102897 383.0210771 286.72654168 382.21193652 283.34375 381.39453125 C282.52739075 381.19878006 281.71103149 381.00302887 280.86993408 380.80134583 C272.15010316 378.65016715 263.8422639 375.55960565 256.25 370.6875 C255.43015625 370.17574219 254.6103125 369.66398437 253.765625 369.13671875 C251 367 251 367 249.60380554 365.07745361 C246.56106184 361.1601957 244.22415365 359.24911433 239.29086304 358.24519348 C234.61538186 357.8535159 229.94139501 357.91287873 225.25390625 357.97265625 C223.51569545 357.96980243 221.77748714 357.96442454 220.03929138 357.95664978 C216.40506282 357.94938922 212.77241666 357.97037446 209.13842773 358.01196289 C204.49979839 358.06310555 199.86431712 358.0472855 195.22564793 358.01058292 C191.63843404 357.98908195 188.05194787 358.0016203 184.46476555 358.02435112 C182.7556981 358.03149254 181.04655688 358.02867507 179.33752632 358.01536751 C169.14711778 357.95926744 162.58422624 358.58466219 155 366 C148.18527315 369.52201919 140.87138487 370.7671385 133.3125 371.5625 C132.29994141 371.67762939 131.28738281 371.79275879 130.24414062 371.91137695 C126.83102499 372.29092483 123.41583586 372.64582026 120 373 C118.09806885 373.20737793 118.09806885 373.20737793 116.15771484 373.41894531 C102.36466213 374.92220873 88.57233359 376.26625961 74.6875 376.4375 C73.2943457 376.47073364 73.2943457 376.47073364 71.87304688 376.50463867 C62.66823557 376.47522227 54.17924606 373.98629275 47.4375 367.5 C46.22900391 366.37078125 46.22900391 366.37078125 44.99609375 365.21875 C43.15418465 363.17138333 42.15746834 361.46151705 41 359 C39.23910034 358.98598145 39.23910034 358.98598145 37.44262695 358.97167969 C33.0270593 358.93137286 28.61215903 358.86550772 24.19702148 358.79248047 C22.29737007 358.76450422 20.39760729 358.7431754 18.49780273 358.72900391 C3.48712383 358.61040492 -9.83820349 357.86801956 -22 348 C-22.62519531 347.49855469 -23.25039063 346.99710937 -23.89453125 346.48046875 C-30.37610669 340.67670512 -35.63946794 331.51385148 -36.1276505 322.69369638 C-36.128897 321.8379114 -36.13014349 320.98212641 -36.13142776 320.10040855 C-36.13526891 319.10932701 -36.13911005 318.11824546 -36.1430676 317.09713113 C-36.14220112 316.01057438 -36.14133463 314.92401763 -36.14044189 313.80453491 C-36.14341302 312.648444 -36.14638414 311.49235309 -36.1494453 310.30122912 C-36.15662449 307.09151711 -36.15930453 303.88183772 -36.16004276 300.6721189 C-36.16189441 297.21047348 -36.1694424 293.74883965 -36.17617798 290.28720093 C-36.18975838 282.71676146 -36.1957858 275.14632729 -36.20018864 267.57587767 C-36.20295202 262.84731274 -36.2071896 258.11874986 -36.21169281 253.39018631 C-36.22388597 240.29432237 -36.23418462 227.19846006 -36.2375679 214.10259056 C-36.23778747 213.26444507 -36.23800703 212.42629958 -36.23823325 211.56275574 C-36.23845153 210.72261751 -36.23866981 209.88247927 -36.2388947 209.0168823 C-36.23933816 207.31447752 -36.23978473 205.61207275 -36.24023438 203.90966797 C-36.2404558 203.06521848 -36.24067723 202.220769 -36.24090537 201.35073014 C-36.24485147 187.67454546 -36.26229952 173.99841413 -36.2855939 160.32225005 C-36.30932512 146.27601887 -36.32177059 132.22981443 -36.32293582 118.18356287 C-36.32385168 110.29923957 -36.32958136 102.41498574 -36.34775543 94.53068161 C-36.36318046 87.8153423 -36.36826281 81.10009394 -36.36001733 74.38474028 C-36.35611906 70.96070454 -36.35699981 67.53685179 -36.37107468 64.11283875 C-36.3837831 60.39419124 -36.37792268 56.67601133 -36.36749268 52.95736694 C-36.37554908 51.88419452 -36.38360548 50.8110221 -36.39190602 49.7053293 C-36.3234491 39.24719043 -33.99104841 30.00291068 -27 22 C-19.36038758 15.05765379 -10.10363704 13 0 13 C0 8.71 0 4.42 0 0 Z M19 19 C19 22.63 19 26.26 19 30 C17.82812134 29.9685791 17.82812134 29.9685791 16.63256836 29.93652344 C13.06767826 29.85299817 9.50299459 29.80122311 5.9375 29.75 C4.70837891 29.71648438 3.47925781 29.68296875 2.21289062 29.6484375 C-7.14766472 29.51287371 -7.14766472 29.51287371 -15 34 C-19.50282412 40.11924979 -19.57072952 45.27346746 -19.5146637 52.72154236 C-19.52160922 53.89794189 -19.52855475 55.07434141 -19.53571075 56.28638941 C-19.55080908 59.53897887 -19.54804741 62.79097864 -19.53755772 66.04356802 C-19.5305542 69.55628164 -19.54657235 73.06890256 -19.55955505 76.58158875 C-19.58118121 83.45816052 -19.58107174 90.33456671 -19.57292951 97.21116131 C-19.5666259 102.80114062 -19.56776984 108.39107169 -19.57420158 113.98105049 C-19.57510324 114.77709632 -19.57600489 115.57314214 -19.57693387 116.39331057 C-19.5787851 118.01054999 -19.58064766 119.6277894 -19.58252143 121.2450288 C-19.59909513 136.40576363 -19.59038443 151.56640536 -19.57353585 166.72713459 C-19.55883984 180.59206584 -19.5734666 194.45678036 -19.60230602 208.3216837 C-19.63171076 222.56464389 -19.64266913 236.80750409 -19.63312382 251.0504933 C-19.63210128 252.6620401 -19.63110667 254.27358691 -19.6301403 255.88513374 C-19.62966391 256.67800689 -19.62918752 257.47088004 -19.6286967 258.28777964 C-19.62653396 263.86912191 -19.63632919 269.45036936 -19.65091133 275.0316906 C-19.66844199 281.83638317 -19.66830699 288.64079948 -19.64555968 295.44548123 C-19.63442379 298.91597183 -19.6312393 302.38597585 -19.64986038 305.85644531 C-19.66575913 309.62192025 -19.65086668 313.38606222 -19.62818909 317.151474 C-19.64002482 318.24398954 -19.65186054 319.33650508 -19.66405493 320.46212715 C-19.58141381 327.21356671 -18.45095429 331.80314824 -14 337 C-10.26557454 340.05905039 -7.4086226 340.36919012 -2.64916992 340.34057617 C-1.3882402 340.34034958 -0.12731049 340.34012299 1.17182922 340.33988953 C2.53773356 340.32457202 3.90363422 340.30892407 5.26953125 340.29296875 C6.67485602 340.28736912 8.08018667 340.28310075 9.48551941 340.28010559 C13.17308905 340.26868555 16.86030069 340.23924342 20.54772949 340.20599365 C24.31497353 340.17523111 28.08227577 340.16158709 31.84960938 340.14648438 C39.23323561 340.11437048 46.61656752 340.06320917 54 340 C54.17523193 340.75200684 54.35046387 341.50401367 54.53100586 342.27880859 C54.90044312 343.7611499 54.90044312 343.7611499 55.27734375 345.2734375 C55.51445068 346.25231934 55.75155762 347.23120117 55.99584961 348.23974609 C57.76094972 353.09173293 61.49560723 355.74780362 66 358 C69.22989442 358.2434784 72.47294381 358.18107812 75.7109375 358.17578125 C76.69242767 358.17435623 77.67391785 358.17293121 78.68515015 358.17146301 C88.43769377 358.09360759 98.09492275 357.38377107 107.79931641 356.45581055 C110.65803881 356.18436283 113.51811246 355.93411083 116.37890625 355.68554688 C135.61037002 354.53081585 135.61037002 354.53081585 151.75 345.25 C154.32586717 340.6134391 155.04880474 336.05586389 155.02075195 330.85058594 C155.01390381 329.57989258 155.00705566 328.30919922 155 327 C166.15349796 326.80571445 177.30499569 326.68791298 188.46024036 326.66578102 C193.64133616 326.65314007 198.81952084 326.6148891 203.99975586 326.51660156 C209.00636724 326.42257547 214.00911624 326.39779467 219.01651573 326.41953659 C220.91952578 326.415917 222.82266044 326.38800005 224.72492409 326.33458328 C239.21387408 325.95090603 239.21387408 325.95090603 243.85250473 329.36244965 C247.1325321 332.62750585 249.58026764 336.30384357 251.92484093 340.27364731 C257.9138429 349.89001937 267.0476567 357.74520731 277.92578125 360.94140625 C279.06837402 361.27914063 280.2109668 361.616875 281.38818359 361.96484375 C282.58008301 362.30644531 283.77198242 362.64804687 285 363 C286.16998535 363.33644531 287.3399707 363.67289062 288.54541016 364.01953125 C292.17190215 365.04958769 295.80363488 366.05878739 299.4375 367.0625 C301.24831055 367.57006836 301.24831055 367.57006836 303.09570312 368.08789062 C310.38021837 370.1029224 317.59793541 371.76390071 325.05883789 372.99389648 C328.7329736 374.25073331 330.03597966 375.6854648 332 379 C331.731875 380.155 331.46375 381.31 331.1875 382.5 C330.4705948 386.33797732 331.56778501 388.47657282 333.68505859 391.6965332 C338.31091438 398.22151444 343.47693207 404.21579411 349 410 C352.81537933 408.22055838 355.07119646 406.06193097 358 403 C359.35146644 401.64313848 360.70581864 400.28914729 362.0625 398.9375 C362.71347656 398.28652344 363.36445313 397.63554687 364.03515625 396.96484375 C366.0234375 394.9765625 368.01171875 392.98828125 370 391 C370.33 391.33 370.66 391.66 371 392 C382.50587447 392.91915688 393.49319405 382.6490003 401.80859375 375.62890625 C408.72950033 370.19628096 408.72950033 370.19628096 412.29296875 362.640625 C412.24076172 361.45726562 412.24076172 361.45726562 412.1875 360.25 C412.16042969 359.45078125 412.13335937 358.6515625 412.10546875 357.828125 C412.07066406 357.22484375 412.03585937 356.6215625 412 356 C413.051875 355.6596875 413.051875 355.6596875 414.125 355.3125 C417.69343613 353.68343133 420.06514511 351.59359269 423 349 C422.44596023 344.86316974 421.13645656 342.35617173 418.6875 339 C418.05714844 338.13375 417.42679687 337.2675 416.77734375 336.375 C412.93541763 331.12864531 412.93541763 331.12864531 408 327 C405.70285813 326.97360171 405.70285813 326.97360171 403.3125 327.375 C402.50425781 327.48585938 401.69601562 327.59671875 400.86328125 327.7109375 C399.94095703 327.85402344 399.94095703 327.85402344 399 328 C398.67 327.34 398.34 326.68 398 326 C398.99797607 326.0314209 398.99797607 326.0314209 400.01611328 326.06347656 C403.05225302 326.14700609 406.08815043 326.19877603 409.125 326.25 C410.69507813 326.30027344 410.69507813 326.30027344 412.296875 326.3515625 C418.32147819 326.4278233 422.43905913 326.40065221 427 322 C430.191169 316.9289649 430.42699537 312.8588441 430.37854004 307.06291199 C430.38533523 305.72942568 430.38533523 305.72942568 430.3922677 304.36900026 C430.40387711 301.39583413 430.39425043 298.42311917 430.38476562 295.44995117 C430.38887145 293.31590993 430.39433239 291.18187093 430.40104675 289.0478363 C430.41277049 284.45452023 430.41525646 279.86132431 430.41069031 275.26799583 C430.40388134 268.00211328 430.41974802 260.73638881 430.43908691 253.47053528 C430.47695257 238.04286538 430.48974104 222.61520924 430.5 207.1875 C430.51107398 190.54227865 430.52644393 173.89713006 430.57071257 157.25195867 C430.58905661 150.03221232 430.59296531 142.8126466 430.58577728 135.59288251 C430.58425352 131.09645802 430.59505163 126.60012356 430.60915565 122.10372353 C430.61315231 120.02246567 430.61204354 117.94119061 430.60538292 115.85993958 C430.59697181 113.01242019 430.60702572 110.16552126 430.62145996 107.31803894 C430.61111906 106.09116128 430.61111906 106.09116128 430.60056925 104.83949822 C430.64977229 99.83539353 431.50615729 95.7228912 433.2594018 91.03178769 C437.05960077 80.60616489 436.81426782 65.38366596 432.25 55.3359375 C431.8375 54.56507812 431.425 53.79421875 431 53 C430.5875 52.16726562 430.175 51.33453125 429.75 50.4765625 C421.86237794 35.91135131 407.72131625 26.09340551 392.18359375 21.09375 C380.88229431 18.03858019 366.84381389 16.50953857 355.9921875 21.78515625 C352.97321431 23.62613794 350.5075599 25.4924401 348 28 C348 28.66 348 29.32 348 30 C272.1 29.67 196.2 29.34 118 29 C118.33 26.36 118.66 23.72 119 21 C111.30497988 20.11269105 103.63426756 19.69836097 95.89453125 19.44140625 C94.64001663 19.39915421 93.38550201 19.35690216 92.0929718 19.31336975 C77.97293422 18.87955175 63.85674027 18.88393226 49.73144531 18.93133545 C46.24349621 18.94185512 42.75553876 18.94619211 39.26757812 18.95117188 C32.51169782 18.96166719 25.75585622 18.97913968 19 19 Z " fill="#FEFEFE" transform="translate(42,30)"/>
<path d="M0 0 C7.45255696 -0.02301155 14.90509978 -0.04117211 22.35768414 -0.05181217 C25.82188471 -0.05693054 29.28605881 -0.06381397 32.75024414 -0.07543945 C47.47364521 -0.12343772 62.17802751 -0.05424551 76.89453125 0.44140625 C78.06892258 0.48039536 79.2433139 0.51938446 80.45329285 0.55955505 C87.00195019 0.80541537 93.48939908 1.24926584 100 2 C99.67 4.64 99.34 7.28 99 10 C212.85 10.495 212.85 10.495 329 11 C329 10.34 329 9.68 329 9 C330.46875 7.59765625 330.46875 7.59765625 332.5 6.0625 C333.1496875 5.55847656 333.799375 5.05445313 334.46875 4.53515625 C340.63122443 0.79772963 346.40024835 -0.5374567 353.5625 -0.4375 C354.73377441 -0.42505249 354.73377441 -0.42505249 355.92871094 -0.41235352 C374.88418866 0.12873641 391.13140128 8.42519769 404 22 C412.74319655 31.94186059 416.36249893 42.25012489 416.25 55.375 C416.25773437 56.26960938 416.26546875 57.16421875 416.2734375 58.0859375 C416.22775251 73.80157382 409.87618671 86.26649744 398.8828125 97.33984375 C391.00750659 104.60689432 382.09473852 108.6476428 372 112 C370.89527344 112.36738281 369.79054688 112.73476562 368.65234375 113.11328125 C356.46647897 116.07177463 343.61967231 114.58878995 332.5859375 108.71484375 C321.45176247 101.84685606 315.01387825 92.82133895 310 81 C309.63777344 80.16726562 309.27554687 79.33453125 308.90234375 78.4765625 C302.57403706 61.22824753 308.84536825 42.74018985 316 27 C243.4 26.67 170.8 26.34 96 26 C96.33 26.66 96.66 27.32 97 28 C97.7773504 37.90165995 96.75704684 47.25279025 95 57 C91.3408478 77.92398683 92.81423555 98.10330568 96 119 C81.65819761 123.7806008 63.53911797 122.3442033 48.5078125 122.57321167 C46.59963203 122.60749121 44.69164513 122.65557106 42.78417969 122.7180481 C24.27467006 123.29404248 24.27467006 123.29404248 16.01074219 116.1003418 C13.68385686 113.66976937 11.41071508 111.25455177 9.4140625 108.54296875 C8.00492119 106.79600227 8.00492119 106.79600227 5.43774414 105.88208008 C3 104 3 104 2.46411133 100.59960938 C2.47831 99.18051617 2.51956386 97.76153875 2.58203125 96.34375 C2.59461975 95.57723618 2.60720825 94.81072235 2.62017822 94.02098083 C2.6488321 92.37175513 2.68826887 90.72268876 2.73733521 89.07394409 C2.86362537 84.74926214 2.90695152 80.42382028 2.953125 76.09765625 C2.96388565 75.23402969 2.9746463 74.37040314 2.98573303 73.48060608 C3.0840671 62.93313744 2.24726572 52.489447 1.27001953 41.99169922 C0.78931953 36.6657518 0.39904468 31.33259029 0 26 C-10.92523858 25.89279629 -10.92523858 25.89279629 -20 31 C-21.79733728 33.95654682 -22.2507241 36.14604317 -22.25447559 39.58559322 C-22.26030779 40.50660696 -22.26613998 41.4276207 -22.27214891 42.37654394 C-22.26836958 43.38480138 -22.26459026 44.39305881 -22.26069641 45.43186951 C-22.26452196 46.50573365 -22.26834751 47.57959779 -22.27228898 48.68600327 C-22.2826356 52.29649615 -22.27862363 55.9068305 -22.2746582 59.51733398 C-22.27900374 62.10091296 -22.28418635 64.68449065 -22.29014587 67.26806641 C-22.30290356 73.5644772 -22.30468525 79.86084537 -22.30234561 86.15726691 C-22.30056352 91.27441083 -22.30230975 96.39154179 -22.30657005 101.50868416 C-22.30716524 102.23661859 -22.30776043 102.96455302 -22.30837366 103.71454607 C-22.30958539 105.19328228 -22.31079952 106.67201849 -22.31201603 108.1507547 C-22.32289565 122.02231832 -22.32072706 135.89385765 -22.31463119 149.76542265 C-22.30946139 162.45884585 -22.32071837 175.15219233 -22.33972941 187.84560036 C-22.35909562 200.8759314 -22.36736596 213.90622612 -22.36360615 226.93657166 C-22.36169229 234.25343447 -22.36419967 241.57023197 -22.37832069 248.88708305 C-22.3914623 255.76612614 -22.38899102 262.64501292 -22.37590981 269.52405548 C-22.37353619 272.0520616 -22.3763066 274.58007843 -22.38453293 277.10807228 C-22.39493551 280.5526112 -22.38695159 283.99662717 -22.3742218 287.44114685 C-22.38159609 288.44717357 -22.38897037 289.45320028 -22.39656812 290.48971266 C-22.35772736 295.46771081 -22.30181419 298.99301398 -19 303 C-13.76138512 307.75013979 -8.85062145 307.60109724 -2.1328125 307.609375 C-1.09808807 307.62591125 -0.06336365 307.64244751 1.00271606 307.65948486 C4.29353815 307.7079017 7.58389829 307.72932242 10.875 307.75 C13.11200233 307.77816486 15.3489832 307.80809301 17.5859375 307.83984375 C23.05725364 307.91365944 28.52831428 307.96327303 34 308 C34.33 312.29 34.66 316.58 35 321 C26.88943596 321.09051192 18.77926717 321.16383654 10.66833305 321.20724869 C6.90174409 321.22808854 3.13551976 321.25633908 -0.63085938 321.30175781 C-4.26836587 321.34534598 -7.90552253 321.36916419 -11.54327011 321.37950897 C-12.92832824 321.38687726 -14.31336807 321.40126605 -15.69827652 321.42292023 C-26.64996275 321.58728698 -26.64996275 321.58728698 -31.64794922 319.41308594 C-38.12537483 312.76757268 -38.58086175 307.22471629 -38.50793457 298.27172852 C-38.51417453 297.09462342 -38.5204145 295.91751833 -38.52684355 294.70474339 C-38.5400096 291.45021487 -38.53530982 288.19628619 -38.52289867 284.94177294 C-38.51383347 281.42704151 -38.52782516 277.91239001 -38.53881836 274.39767456 C-38.55659257 267.51741941 -38.55276855 260.63733894 -38.5411678 253.75707698 C-38.5321294 248.16470708 -38.53091123 242.57238609 -38.53526306 236.98001099 C-38.53618246 235.78550917 -38.53618246 235.78550917 -38.53712043 234.56687599 C-38.53839935 232.94907084 -38.5396962 231.33126569 -38.5410108 229.71346056 C-38.55241337 214.54798246 -38.53930797 199.38260112 -38.51780933 184.21713889 C-38.49993863 171.20818737 -38.50304282 158.19937863 -38.52148438 145.19042969 C-38.5428968 130.07873528 -38.55131477 114.96712566 -38.53903532 99.85541821 C-38.53776114 98.24360849 -38.53650366 96.63179876 -38.53526306 95.01998901 C-38.53464596 94.22697516 -38.53402886 93.4339613 -38.53339306 92.61691672 C-38.52994127 87.03211687 -38.5357648 81.44737086 -38.54518127 75.86257935 C-38.55640678 69.05532351 -38.55334972 62.24825213 -38.5320583 55.44101739 C-38.52155516 51.9686914 -38.51741313 48.49667283 -38.53065491 45.02434921 C-38.54156758 41.25868228 -38.52789649 37.49388298 -38.50793457 33.72827148 C-38.5213189 32.08512891 -38.5213189 32.08512891 -38.53497362 30.40879154 C-38.46949801 24.05117669 -37.80096371 20.16367981 -34 15 C-27.71632273 9.71386716 -20.95784393 10.53471008 -13.0625 10.75 C-11.17821289 10.77707031 -11.17821289 10.77707031 -9.25585938 10.8046875 C-6.16978084 10.85162406 -3.08529219 10.91727586 0 11 C0 7.37 0 3.74 0 0 Z " fill="#E9E4DA" transform="translate(61,49)"/>
<path d="M0 0 C1.17127441 0.01244751 1.17127441 0.01244751 2.36621094 0.02514648 C21.32168866 0.56623641 37.56890128 8.86269769 50.4375 22.4375 C59.18069655 32.37936059 62.79999893 42.68762489 62.6875 55.8125 C62.69910156 57.15441406 62.69910156 57.15441406 62.7109375 58.5234375 C62.66525251 74.23907382 56.31368671 86.70399744 45.3203125 97.77734375 C37.44500659 105.04439432 28.53223852 109.0851428 18.4375 112.4375 C16.78041016 112.98857422 16.78041016 112.98857422 15.08984375 113.55078125 C2.90397897 116.50927463 -9.94282769 115.02628995 -20.9765625 109.15234375 C-32.11073753 102.28435606 -38.54862175 93.25883895 -43.5625 81.4375 C-44.10583984 80.18839844 -44.10583984 80.18839844 -44.66015625 78.9140625 C-49.86780629 64.72018845 -46.68688971 47.66020959 -40.76171875 34.1953125 C-36.17504071 24.37303733 -30.57951412 15.83782072 -22.5625 8.4375 C-21.634375 7.57125 -20.70625 6.705 -19.75 5.8125 C-13.61484805 1.24121031 -7.56053938 -0.10551522 0 0 Z " fill="#7AD002" transform="translate(414.5625,48.5625)"/>
<path d="M0 0 C6.46622934 2.34692962 10.14209229 5.27970414 13.1796875 11.5625 C18.44730439 27.43288422 15.09375 53.55457127 15.09375 67.31640625 C43.47375 67.31640625 71.85375 67.31640625 101.09375 67.31640625 C101.09375 67.64640625 101.09375 67.97640625 101.09375 68.31640625 C72.38375 68.31640625 43.67375 68.31640625 14.09375 68.31640625 C14.09375 70.95640625 14.09375 73.59640625 14.09375 76.31640625 C13.26389049 81.52122683 11.99221283 85.33436548 8.40625 89.25390625 C-10.17507302 100.82340926 -44.1056046 99.48139679 -65.65625 99.75390625 C-66.52330566 99.77598145 -67.39036133 99.79805664 -68.28369141 99.82080078 C-74.78151804 99.79850753 -78.27779765 97.71956269 -83.09375 93.31640625 C-87.85113064 85.44212104 -87.90625 77.37342517 -87.90625 68.31640625 C-103.41625 68.31640625 -118.92625 68.31640625 -134.90625 68.31640625 C-134.90625 67.98640625 -134.90625 67.65640625 -134.90625 67.31640625 C-119.72625 67.31640625 -104.54625 67.31640625 -88.90625 67.31640625 C-88.94561627 54.97690593 -88.94561627 54.97690593 -88.99633789 42.63745117 C-89.0742347 14.82071248 -89.0742347 14.82071248 -83.55078125 8.8515625 C-78.35411834 4.24269693 -73.10748998 2.97176278 -66.37109375 2.2265625 C-65.6343895 2.14277847 -64.89768524 2.05899445 -64.13865662 1.97267151 C-54.93712266 1.00614628 -45.71251333 0.89352966 -36.46875 0.75390625 C-33.82160427 0.70982329 -31.17457155 0.66327908 -28.52757263 0.61109924 C-26.89945815 0.57935289 -25.27124122 0.55239893 -23.64295959 0.53086853 C-15.4808833 0.37916423 -8.40293938 -1.97649784 0 0 Z " fill="#E8E3D8" transform="translate(182.90625,288.68359375)"/>
<path d="M0 0 C1.88428711 0.02707031 1.88428711 0.02707031 3.80664062 0.0546875 C6.89225705 0.10161703 9.9774787 0.17335351 13.0625 0.25 C13.0625 5.2 13.0625 10.15 13.0625 15.25 C10.87625 15.3325 8.69 15.415 6.4375 15.5 C0.69408589 15.91190142 -2.78721621 16.21500187 -6.9375 20.25 C-8.73483728 23.20654682 -9.1882241 25.39604317 -9.19197559 28.83559322 C-9.19780779 29.75660696 -9.20363998 30.6776207 -9.20964891 31.62654394 C-9.20586958 32.63480138 -9.20209026 33.64305881 -9.19819641 34.68186951 C-9.20202196 35.75573365 -9.20584751 36.82959779 -9.20978898 37.93600327 C-9.2201356 41.54649615 -9.21612363 45.1568305 -9.2121582 48.76733398 C-9.21650374 51.35091296 -9.22168635 53.93449065 -9.22764587 56.51806641 C-9.24040356 62.8144772 -9.24218525 69.11084537 -9.23984561 75.40726691 C-9.23806352 80.52441083 -9.23980975 85.64154179 -9.24407005 90.75868416 C-9.24466524 91.48661859 -9.24526043 92.21455302 -9.24587366 92.96454607 C-9.24708539 94.44328228 -9.24829952 95.92201849 -9.24951603 97.4007547 C-9.26039565 111.27231832 -9.25822706 125.14385765 -9.25213119 139.01542265 C-9.24696139 151.70884585 -9.25821837 164.40219233 -9.27722941 177.09560036 C-9.29659562 190.1259314 -9.30486596 203.15622612 -9.30110615 216.18657166 C-9.29919229 223.50343447 -9.30169967 230.82023197 -9.31582069 238.13708305 C-9.3289623 245.01612614 -9.32649102 251.89501292 -9.31340981 258.77405548 C-9.31103619 261.3020616 -9.3138066 263.83007843 -9.32203293 266.35807228 C-9.33243551 269.8026112 -9.32445159 273.24662717 -9.3117218 276.69114685 C-9.31909609 277.69717357 -9.32647037 278.70320028 -9.33406812 279.73971266 C-9.29522736 284.71771081 -9.23931419 288.24301398 -5.9375 292.25 C-0.69888512 297.00013979 4.21187855 296.85109724 10.9296875 296.859375 C11.96441193 296.87591125 12.99913635 296.89244751 14.06521606 296.90948486 C17.35603815 296.9579017 20.64639829 296.97932242 23.9375 297 C26.17450233 297.02816486 28.4114832 297.05809301 30.6484375 297.08984375 C36.11975364 297.16365944 41.59081428 297.21327303 47.0625 297.25 C47.3925 301.54 47.7225 305.83 48.0625 310.25 C39.95193596 310.34051192 31.84176717 310.41383654 23.73083305 310.45724869 C19.96424409 310.47808854 16.19801976 310.50633908 12.43164062 310.55175781 C8.79413413 310.59534598 5.15697747 310.61916419 1.51922989 310.62950897 C0.13417176 310.63687726 -1.25086807 310.65126605 -2.63577652 310.67292023 C-13.58746275 310.83728698 -13.58746275 310.83728698 -18.58544922 308.66308594 C-25.06287483 302.01757268 -25.51836175 296.47471629 -25.44543457 287.52172852 C-25.45167453 286.34462342 -25.4579145 285.16751833 -25.46434355 283.95474339 C-25.4775096 280.70021487 -25.47280982 277.44628619 -25.46039867 274.19177294 C-25.45133347 270.67704151 -25.46532516 267.16239001 -25.47631836 263.64767456 C-25.49409257 256.76741941 -25.49026855 249.88733894 -25.4786678 243.00707698 C-25.4696294 237.41470708 -25.46841123 231.82238609 -25.47276306 226.23001099 C-25.47368246 225.03550917 -25.47368246 225.03550917 -25.47462043 223.81687599 C-25.47589935 222.19907084 -25.4771962 220.58126569 -25.4785108 218.96346056 C-25.48991337 203.79798246 -25.47680797 188.63260112 -25.45530933 173.46713889 C-25.43743863 160.45818737 -25.44054282 147.44937863 -25.45898438 134.44042969 C-25.4803968 119.32873528 -25.48881477 104.21712566 -25.47653532 89.10541821 C-25.47526114 87.49360849 -25.47400366 85.88179876 -25.47276306 84.26998901 C-25.47214596 83.47697516 -25.47152886 82.6839613 -25.47089306 81.86691672 C-25.46744127 76.28211687 -25.4732648 70.69737086 -25.48268127 65.11257935 C-25.49390678 58.30532351 -25.49084972 51.49825213 -25.4695583 44.69101739 C-25.45905516 41.2186914 -25.45491313 37.74667283 -25.46815491 34.27434921 C-25.47906758 30.50868228 -25.46539649 26.74388298 -25.44543457 22.97827148 C-25.4588189 21.33512891 -25.4588189 21.33512891 -25.47247362 19.65879154 C-25.40699801 13.30117669 -24.73846371 9.41367981 -20.9375 4.25 C-14.65382273 -1.03613284 -7.89534393 -0.21528992 0 0 Z " fill="#0BAEFD" transform="translate(47.9375,59.75)"/>
<path d="M0 0 C3.20096604 0.35566289 3.9598206 0.95077555 6.05473328 3.51728821 C10.17374162 6.98940519 13.21361807 6.66041055 18.43676758 6.53588867 C19.38049728 6.53340622 20.32422699 6.53092377 21.29655457 6.52836609 C24.41317659 6.51469905 27.52826678 6.4660548 30.64453125 6.41796875 C32.81538923 6.40355568 34.98626522 6.39165459 37.15715027 6.38215637 C42.87379019 6.35173508 48.58976787 6.29306952 54.30609131 6.22674561 C63.4444546 6.12446415 72.58308974 6.06067103 81.721838 6.00493813 C84.90816611 5.98083834 88.09407132 5.94217647 91.28022766 5.9016571 C93.24516459 5.88479436 95.21010489 5.86831992 97.17504883 5.85229492 C98.05480377 5.83724915 98.93455872 5.82220337 99.8409729 5.80670166 C105.23347021 5.77756047 109.86624595 6.27711684 115 8 C119.04062066 14.06093099 118.21447619 21.50658319 118.25 28.5625 C118.2809375 30.10454102 118.2809375 30.10454102 118.3125 31.67773438 C118.36299702 41.41734777 118.36299702 41.41734777 115 45 C112.23051181 45.89892843 109.5895776 46.16686816 106.69116211 46.29663086 C105.84316544 46.33567032 104.99516876 46.37470978 104.12147522 46.41493225 C103.20353683 46.45202805 102.28559845 46.48912384 101.33984375 46.52734375 C100.36941635 46.56866928 99.39898895 46.60999481 98.39915466 46.65257263 C86.79082233 47.12347837 75.17815282 47.36062368 63.5625 47.5625 C62.41265625 47.58268188 61.2628125 47.60286377 60.078125 47.62365723 C51.7189796 47.76721496 43.35965103 47.89002157 35 48 C33.26178986 48.02317291 33.26178986 48.02317291 31.48846436 48.04681396 C24.85408332 48.13199447 18.2200157 48.19625551 11.58517456 48.23117065 C9.54178223 48.24364183 7.49841373 48.26109249 5.45510864 48.28372192 C2.62616926 48.31335763 -0.2021739 48.3234578 -3.03125 48.328125 C-3.85689957 48.34042648 -4.68254913 48.35272797 -5.53321838 48.36540222 C-10.42062493 48.34659896 -13.7661677 47.71378484 -18 45 C-21.85413273 38.57644546 -21.27920389 29.13233025 -21.4375 21.8125 C-21.48326172 20.93658203 -21.52902344 20.06066406 -21.57617188 19.15820312 C-21.68384195 12.98355826 -21.68384195 12.98355826 -19.8112793 10.2902832 C-16.69618673 7.47395974 -14.06571044 6.46436505 -9.9375 6.5625 C-6.29347257 6.42458121 -6.29347257 6.42458121 -3.24609375 4.6171875 C-1.70214928 2.79216242 -1.70214928 2.79216242 0 0 Z " fill="#7CD005" transform="translate(97,223)"/>
<path d="M0 0 C0.65787003 -0.00136459 1.31574005 -0.00272919 1.99354553 -0.00413513 C4.1689236 -0.00617872 6.34416664 0.00023006 8.51953125 0.0078125 C9.65920349 0.00964035 9.65920349 0.00964035 10.82189941 0.01150513 C22.71070244 0.0336476 34.58083359 0.28489702 46.46264648 0.70874023 C55.72044178 1.03154225 64.97574689 1.2192877 74.23828125 1.3515625 C75.45747253 1.36993668 76.67666382 1.38831085 77.93280029 1.40724182 C85.34792546 1.51889874 85.34792546 1.51889874 92.76330566 1.61154175 C96.23950914 1.65065213 99.71538448 1.70131047 103.19140625 1.75390625 C104.24203247 1.76228516 105.29265869 1.77066406 106.37512207 1.77929688 C107.35057983 1.79597412 108.3260376 1.81265137 109.33105469 1.82983398 C110.17972107 1.84014145 111.02838745 1.85044891 111.902771 1.86106873 C115.80847771 2.29797189 118.54858859 3.34936984 121.33203125 6.1328125 C121.59082031 8.94262695 121.59082031 8.94262695 121.59765625 12.49609375 C121.60023438 13.77548828 121.6028125 15.05488281 121.60546875 16.37304688 C121.6012793 17.04166748 121.59708984 17.71028809 121.59277344 18.39916992 C121.58212619 20.42722897 121.59264092 22.45439141 121.60546875 24.48242188 C121.60289062 25.76568359 121.6003125 27.04894531 121.59765625 28.37109375 C121.59540039 29.54712158 121.59314453 30.72314941 121.59082031 31.93481445 C121.32775734 35.18562754 120.98588694 37.32206793 119.33203125 40.1328125 C114.65651414 42.8105886 109.80387626 42.35915986 104.58813477 42.26464844 C103.61193176 42.25530273 102.63572876 42.24595703 101.62994385 42.23632812 C99.51391185 42.21535336 97.3979194 42.19003794 95.28198433 42.16088104 C91.93203682 42.11680727 88.58231603 42.08866895 85.23216248 42.06549072 C75.70841474 41.99832207 66.18504353 41.91496699 56.66186523 41.79003906 C50.83358145 41.71472114 45.00568269 41.66869301 39.17698479 41.64142609 C36.95733836 41.62532302 34.73774355 41.59811229 32.51837349 41.55956268 C29.41354016 41.50656829 26.3105519 41.49081712 23.20532227 41.48339844 C21.8328257 41.44632782 21.8328257 41.44632782 20.43260193 41.4085083 C15.64156599 41.37632762 15.64156599 41.37632762 11.53040886 43.54755402 C10.12139786 45.06717246 8.7258468 46.59924463 7.33203125 48.1328125 C3.53990233 47.76211339 1.75410096 45.98739466 -0.66796875 43.1328125 C-0.66796875 42.4728125 -0.66796875 41.8128125 -0.66796875 41.1328125 C-1.4878125 41.17921875 -2.30765625 41.225625 -3.15234375 41.2734375 C-4.76882812 41.32757813 -4.76882812 41.32757813 -6.41796875 41.3828125 C-7.4853125 41.42921875 -8.55265625 41.475625 -9.65234375 41.5234375 C-12.66796875 41.1328125 -12.66796875 41.1328125 -14.99609375 39.3046875 C-19.6019399 33.32139204 -18.11639356 23.38234687 -17.66796875 16.1328125 C-16.16848404 5.54821452 -16.16848404 5.54821452 -12.80859375 2.37890625 C-8.6403681 -0.04748788 -4.76688527 0.00450526 0 0 Z " fill="#A66EF7" transform="translate(208.66796875,131.8671875)"/>
<path d="M0 0 C3.70806596 -0.11674705 7.4156554 -0.18743274 11.125 -0.25 C12.17171875 -0.28351562 13.2184375 -0.31703125 14.296875 -0.3515625 C20.35897222 -0.42829791 24.37020392 -0.3557583 29 4 C33.85150941 9.51543922 33.56996768 14.58851957 33.52139282 21.72190857 C33.52904392 22.91040989 33.53669501 24.09891122 33.54457796 25.32342774 C33.56162925 28.61452223 33.56077753 31.90472179 33.55221677 35.19579041 C33.5472805 38.74804699 33.56531267 42.30019883 33.58029175 45.85241699 C33.6057847 52.80832433 33.60937335 59.76407726 33.60469122 66.72002345 C33.60112463 72.37391905 33.60462465 78.02776779 33.61314011 83.68165779 C33.61492567 84.88885197 33.61492567 84.88885197 33.61674731 86.12043392 C33.61917082 87.7553916 33.62159909 89.39034928 33.62403207 91.02530695 C33.64578251 106.35625264 33.64145822 121.68711034 33.62926237 137.01806099 C33.61892273 151.04219064 33.64143817 165.06604251 33.67945881 179.09011721 C33.71820526 193.49237533 33.73472955 207.894502 33.72721231 222.29681259 C33.72338678 230.38172393 33.72837767 238.4663988 33.75664139 246.55126762 C33.78045796 253.43363029 33.78329185 260.31561092 33.75906105 267.19797879 C33.74727531 270.70892307 33.74510437 274.2191684 33.76906586 277.7300663 C33.78991042 281.53773144 33.7738758 285.34351138 33.7484436 289.15110779 C33.76319217 290.25889113 33.77794074 291.36667448 33.79313624 292.50802702 C33.70694497 298.63105262 33.00233194 302.22836088 28.67681253 306.69000012 C23.58405668 310.66868554 18.02014976 310.94580828 11.71875 310.7265625 C7.25096175 309.85365429 5.99728648 308.68212092 3.25 305.125 C2.39148438 303.76761719 2.39148438 303.76761719 1.515625 302.3828125 C0.06910239 299.75403199 0.06910239 299.75403199 -3 298 C-5.29714187 297.97360171 -5.29714187 297.97360171 -7.6875 298.375 C-8.49574219 298.48585938 -9.30398438 298.59671875 -10.13671875 298.7109375 C-11.05904297 298.85402344 -11.05904297 298.85402344 -12 299 C-12.495 297.515 -12.495 297.515 -13 296 C-11.9941687 295.97812622 -11.9941687 295.97812622 -10.96801758 295.95581055 C-7.91561178 295.881117 -4.86427415 295.78452701 -1.8125 295.6875 C-0.75740234 295.66494141 0.29769531 295.64238281 1.38476562 295.61914062 C2.91713867 295.5659668 2.91713867 295.5659668 4.48046875 295.51171875 C5.41785889 295.48553467 6.35524902 295.45935059 7.32104492 295.43237305 C10.59764743 294.903542 12.38797898 294.05504395 15 292 C18.2075744 286.94650798 18.42690198 282.84767302 18.37854004 277.06291199 C18.38307017 276.17392112 18.3876003 275.28493024 18.3922677 274.36900026 C18.40387711 271.39583413 18.39425043 268.42311917 18.38476562 265.44995117 C18.38887145 263.31590993 18.39433239 261.18187093 18.40104675 259.0478363 C18.41277049 254.45452023 18.41525646 249.86132431 18.41069031 245.26799583 C18.40388134 238.00211328 18.41974802 230.73638881 18.43908691 223.47053528 C18.47695257 208.04286538 18.48974104 192.61520924 18.5 177.1875 C18.51107398 160.54227865 18.52644393 143.89713006 18.57071257 127.25195867 C18.58905661 120.03221232 18.59296531 112.8126466 18.58577728 105.59288251 C18.58425352 101.09645802 18.59505163 96.60012356 18.60915565 92.10372353 C18.61315231 90.02246567 18.61204354 87.94119061 18.60538292 85.85993958 C18.59697181 83.01242019 18.60702572 80.16552126 18.62145996 77.31803894 C18.61456603 76.5001205 18.60767209 75.68220207 18.60056925 74.83949822 C18.64977229 69.83539353 19.50615729 65.7228912 21.2594018 61.03178769 C25.05993433 50.60524978 24.81103567 35.39093408 20.25390625 25.33984375 C19.84011719 24.56769531 19.42632812 23.79554687 19 23 C18.36384766 21.73349609 18.36384766 21.73349609 17.71484375 20.44140625 C14.14087208 13.90073943 9.41065141 9.05649968 4 4 C2.66207692 2.67127227 1.32731386 1.33932575 0 0 Z " fill="#01ABFD" transform="translate(453,60)"/>
<path d="M0 0 C3.20148395 0.35572044 3.96202632 0.95362966 6.0614624 3.51728821 C10.15400568 6.97499637 13.13579723 6.6612446 18.32910156 6.53588867 C19.72765633 6.53216499 19.72765633 6.53216499 21.15446472 6.52836609 C24.23382218 6.51469869 27.31162934 6.46605087 30.390625 6.41796875 C32.53666692 6.40355448 34.68272707 6.39165381 36.82879639 6.38215637 C42.48094111 6.3517342 48.13241612 6.29307338 53.78424072 6.22674561 C62.8156539 6.12447558 71.84733983 6.06061757 80.87914276 6.00493813 C84.02609609 5.98086672 87.17261815 5.9421989 90.31939697 5.9016571 C92.26403456 5.884791 94.20867559 5.86831657 96.15332031 5.85229492 C97.02012924 5.83724915 97.88693817 5.82220337 98.78001404 5.80670166 C104.23638472 5.77696257 109.87233556 5.95423729 115 8 C119.08453996 14.12680994 118.18277147 22.0521545 118.1875 29.1875 C118.19974609 30.17169922 118.21199219 31.15589844 118.22460938 32.16992188 C118.22654297 33.11802734 118.22847656 34.06613281 118.23046875 35.04296875 C118.23457764 35.89914795 118.23868652 36.75532715 118.24291992 37.63745117 C117.96821215 40.30915677 117.56545472 41.81095432 116 44 C112.3936856 45.7664566 109.43934973 46.26186611 105.44702148 46.30639648 C104.35916855 46.32238388 103.27131561 46.33837128 102.15049744 46.35484314 C100.98579422 46.36020584 99.821091 46.36556854 98.62109375 46.37109375 C97.41687271 46.38012222 96.21265167 46.3891507 94.97193909 46.39845276 C92.42931604 46.41294437 89.8866558 46.42183928 87.34399414 46.42553711 C83.44809751 46.43746755 79.55376724 46.48669648 75.65820312 46.53710938 C73.18750773 46.54656973 70.71680262 46.55380662 68.24609375 46.55859375 C67.0793663 46.57812607 65.91263885 46.59765839 64.71055603 46.61778259 C56.61846229 46.57244147 56.61846229 46.57244147 53.37524414 43.57055664 C52.92141357 42.72227295 52.46758301 41.87398926 52 41 C47.9516379 37.96372842 43.86507403 37.07196546 39 36 C39.33 34.35 39.66 32.7 40 31 C14.755 31.495 14.755 31.495 -11 32 C-11 32.99 -11 33.98 -11 35 C-5.72 35.66 -0.44 36.32 5 37 C5 37.33 5 37.66 5 38 C4.03320312 38.06058594 3.06640625 38.12117188 2.0703125 38.18359375 C-5.30358562 38.65815155 -12.65389666 39.1876074 -20 40 C-21.00212728 34.09315222 -21.2499271 28.29864036 -21.3125 22.3125 C-21.34150391 21.37599609 -21.37050781 20.43949219 -21.40039062 19.47460938 C-21.46299845 12.72741226 -21.46299845 12.72741226 -19.3515625 9.41015625 C-16.49452802 7.69688474 -14.37293403 7.40052162 -11.0625 7.125 C-6.88305671 6.57386462 -4.45562184 6.21219351 -1.75 2.875 C-1.1725 1.92625 -0.595 0.9775 0 0 Z " fill="#FFB022" transform="translate(333,216)"/>
<path d="M0 0 C5.69400369 1.38502792 8.93208134 6.38869306 12.0625 11 C12.46082031 11.56009766 12.85914063 12.12019531 13.26953125 12.69726562 C15.50575966 15.94548214 16.87117853 18.62738358 17.3125 22.5625 C15.85884731 23.73499353 14.39942581 24.90033816 12.9375 26.0625 C12.12539063 26.7121875 11.31328125 27.361875 10.4765625 28.03125 C8.3125 29.5625 8.3125 29.5625 6.3125 29.5625 C6.498125 30.84125 6.68375 32.12 6.875 33.4375 C6.84763311 39.25752609 4.02214947 42.09146481 0.05859375 46.0859375 C-20.96768284 65.04846859 -20.96768284 65.04846859 -31.9140625 65.77734375 C-32.82929688 65.70644531 -33.74453125 65.63554687 -34.6875 65.5625 C-37.81059453 65.21540727 -37.81059453 65.21540727 -39.7734375 67.57421875 C-40.52882813 68.45722656 -41.28421875 69.34023438 -42.0625 70.25 C-45.17218054 73.82411335 -48.2898231 77.26475477 -51.6875 80.5625 C-52.285625 81.160625 -52.88375 81.75875 -53.5 82.375 C-53.891875 82.766875 -54.28375 83.15875 -54.6875 83.5625 C-63.35869782 79.8407912 -70.671187 68.75532082 -74.6875 60.5625 C-74.87121684 57.5843534 -74.18183329 56.16829287 -72.3112793 53.87597656 C-70.51281909 51.95632078 -68.65190212 50.12957992 -66.75 48.3125 C-66.10353516 47.67570312 -65.45707031 47.03890625 -64.79101562 46.3828125 C-60.02630862 41.73190431 -60.02630862 41.73190431 -57.6875 40.5625 C-57.3179753 38.51251776 -57.04176086 36.44536595 -56.8125 34.375 C-55.87291275 27.94513801 -54.8470882 24.06310519 -49.58984375 19.90234375 C-47.00370994 18.03754044 -44.36830401 16.28829108 -41.6875 14.5625 C-40.75808594 13.96050781 -39.82867187 13.35851562 -38.87109375 12.73828125 C-37.01854395 11.55048506 -35.15925255 10.37312959 -33.29296875 9.20703125 C-31.65177111 8.17113289 -30.02643283 7.10922942 -28.42578125 6.01171875 C-24.39840617 3.28844608 -21.71317739 1.68846915 -16.6875 2.5625 C-15.73875 3.160625 -14.79 3.75875 -13.8125 4.375 C-12.78125 4.766875 -11.75 5.15875 -10.6875 5.5625 C-8.44836858 4.52905473 -6.5818003 3.21944812 -4.5703125 1.796875 C-2.6875 0.5625 -2.6875 0.5625 0 0 Z " fill="#A369F5" transform="translate(447.6875,356.4375)"/>
<path d="M0 0 C0.495 0.99 0.495 0.99 1 2 C2.33078886 2.67173152 3.66490302 3.33687236 5 4 C9.16392718 6.85116196 13.23219215 9.82709334 17.31152344 12.79736328 C18.74594508 13.81904648 20.21727992 14.78858569 21.6953125 15.74609375 C26.76577717 19.09914297 26.76577717 19.09914297 27.8125 23.125 C23.98612792 41.37385148 11.75012264 56.6660722 -3.625 66.75 C-10.9647285 71.36028317 -18.89372848 74.87361123 -26.90527344 78.14355469 C-28.30346059 78.71521442 -29.69247516 79.30983448 -31.07128906 79.92675781 C-35.71809017 81.90036309 -38.99609439 82.54375811 -44 81 C-46.5546875 78.69921875 -46.5546875 78.69921875 -48.875 75.6875 C-49.29136719 75.15785645 -49.70773437 74.62821289 -50.13671875 74.08251953 C-51.4466261 72.40407707 -52.72558685 70.70550734 -54 69 C-54.8565798 67.86834496 -55.71334794 66.73683245 -56.5703125 65.60546875 C-58.12426688 63.54649451 -59.65975351 61.47726398 -61.1875 59.3984375 C-62.9299206 56.97820023 -62.9299206 56.97820023 -65 55 C-59.33333333 49.33333333 -53.66666667 43.66666667 -48 38 C-47.505 38.495 -47.505 38.495 -47 39 C-35.48421589 39.91994852 -24.47045744 29.62884861 -16.15625 22.59375 C-9.90144254 17.71737167 -9.90144254 17.71737167 -6.796875 10.87890625 C-6.78140625 10.11449219 -6.7659375 9.35007812 -6.75 8.5625 C-6.55078125 6.1640625 -6.55078125 6.1640625 -6 4 C-2.9375 1.4375 -2.9375 1.4375 0 0 Z " fill="#FEAD92" transform="translate(460,382)"/>
<path d="M0 0 C75.9 0 151.8 0 230 0 C228.02 2.64 226.04 5.28 224 8 C223.2366953 9.30263825 222.4733906 10.60527651 221.68695545 11.94738865 C220.24360676 13.95843577 219.47235669 14.84466427 217.10651433 15.62267768 C214.71181389 15.88566052 212.41725097 15.8998767 210.00871277 15.84178162 C209.10197557 15.84776259 208.19523838 15.85374356 207.2610243 15.85990578 C204.22145352 15.87144016 201.1845853 15.83293511 198.14526367 15.79467773 C195.9672146 15.79270331 193.78916086 15.79381136 191.6111145 15.79777527 C185.6959028 15.79978607 179.78168202 15.75859308 173.86670089 15.70975757 C167.68611262 15.66603778 161.50550236 15.66188953 155.32478333 15.65357971 C143.61975323 15.63181136 131.91518006 15.57435199 120.21035129 15.50413328 C106.88527755 15.42536612 93.56020185 15.38741274 80.23494756 15.35226524 C52.82304492 15.27907096 25.41154804 15.1559236 -2 15 C-1.85816304 13.24967156 -1.71136571 11.49974466 -1.5625 9.75 C-1.48128906 8.77546875 -1.40007812 7.8009375 -1.31640625 6.796875 C-1 4 -1 4 0 0 Z " fill="#09AEFD" transform="translate(159,60)"/>
<path d="M0 0 C6.69130913 2.42862274 10.08146739 5.48348699 13.40625 11.81640625 C14.09375 14.31640625 14.09375 14.31640625 14.09375 20.31640625 C-19.23625 20.31640625 -52.56625 20.31640625 -86.90625 20.31640625 C-85.90625 11.31640625 -85.90625 11.31640625 -84.453125 9.1953125 C-83.86015625 8.76089844 -83.2671875 8.32648438 -82.65625 7.87890625 C-81.78226562 7.20021484 -81.78226562 7.20021484 -80.890625 6.5078125 C-76.27071027 3.7340448 -71.66945243 2.81268277 -66.37109375 2.2265625 C-65.26603737 2.10088646 -65.26603737 2.10088646 -64.13865662 1.97267151 C-54.93712266 1.00614628 -45.71251333 0.89352966 -36.46875 0.75390625 C-33.82160427 0.70982329 -31.17457155 0.66327908 -28.52757263 0.61109924 C-26.89945815 0.57935289 -25.27124122 0.55239893 -23.64295959 0.53086853 C-15.4808833 0.37916423 -8.40293938 -1.97649784 0 0 Z " fill="#FE615C" transform="translate(182.90625,288.68359375)"/>
<path d="M0 0 C11.18741218 -0.2554045 22.37412589 -0.45058591 33.56386471 -0.56993389 C38.7605056 -0.62723117 43.95514557 -0.70487452 49.15063477 -0.82983398 C54.16937819 -0.94978041 59.18620365 -1.01521082 64.20627022 -1.04364967 C66.11661535 -1.06390145 68.0268609 -1.10345362 69.9363842 -1.16303062 C85.66320124 -1.63397703 85.66320124 -1.63397703 90.23171997 2.45175171 C96 9.31673005 96 9.31673005 96 13 C63.99 13 31.98 13 -1 13 C-0.67 8.71 -0.34 4.42 0 0 Z " fill="#03ABFD" transform="translate(197,357)"/>
<path d="M0 0 C2.82049367 2.60695472 4.94078275 5.58186076 7.1875 8.6875 C11.0360523 13.93168116 15.22908902 18.58008247 20 23 C18.59828464 26.11569405 16.91591092 28.4114956 14.625 30.9375 C12.62088027 33.1693606 10.71086699 35.37417214 8.875 37.75 C6.81410224 40.22307731 4.56977955 42.07266534 2 44 C-6.67119782 40.2782912 -13.983687 29.19282082 -18 21 C-18.17787756 18.03377155 -17.50118341 16.61552628 -15.63989258 14.32958984 C-13.85702464 12.42522695 -12.01141982 10.61420036 -10.125 8.8125 C-9.48691406 8.18408203 -8.84882813 7.55566406 -8.19140625 6.90820312 C-5.53923609 4.3197072 -3.09583159 2.06388773 0 0 Z " fill="#BD3336" transform="translate(391,396)"/>
<path d="M0 0 C4.76938475 1.58979492 6.26650433 5.64594522 8.8125 9.8125 C9.37348389 10.72217529 9.93446777 11.63185059 10.51245117 12.5690918 C17.7908788 24.62948154 23.88583326 37.3219937 30 50 C25.87255657 50 24.95305417 48.38249504 22 45.5625 C21.01230787 44.63859906 20.02267351 43.71677071 19.03125 42.796875 C18.52722656 42.32830078 18.02320313 41.85972656 17.50390625 41.37695312 C8.84112805 33.44544841 -0.61262127 25.44114949 -12 22 C-12.67197778 17.46845753 -11.11356064 15.23037083 -8.54296875 11.73046875 C-8.07503906 11.11816406 -7.60710937 10.50585938 -7.125 9.875 C-6.21083277 8.64330689 -5.29676664 7.41153874 -4.3828125 6.1796875 C-3.20332031 4.60574219 -3.20332031 4.60574219 -2 3 C-1.34 2.01 -0.68 1.02 0 0 Z " fill="#ED6E4F" transform="translate(285,283)"/>
<path d="M0 0 C0.86925078 0.00092179 1.73850157 0.00184359 2.63409328 0.00279331 C3.62833813 0.00141865 4.62258297 0.00004398 5.64695644 -0.00137234 C6.74674831 0.00222294 7.84654018 0.00581821 8.97965908 0.00952244 C10.70626011 0.0093034 10.70626011 0.0093034 12.46774197 0.00907993 C16.29326635 0.00977965 20.11874275 0.0175748 23.94425869 0.02539158 C26.58841837 0.02725555 29.2325784 0.02867955 31.87673855 0.0296793 C38.13825661 0.03279234 44.3997573 0.04100535 50.6612677 0.05102879 C57.78811781 0.06219078 64.91496874 0.06770059 72.04182541 0.07272422 C86.70592674 0.08318799 101.37001435 0.10078689 116.03410244 0.12304783 C116.59660244 2.06054783 116.59660244 2.06054783 117.03410244 4.12304783 C116.03410244 5.12304783 116.03410244 5.12304783 114.06820488 5.24609566 C113.1989541 5.24517386 112.32970331 5.24425207 111.4341116 5.24330235 C109.94274433 5.24536434 109.94274433 5.24536434 108.42124844 5.24746799 C107.32145657 5.24387272 106.2216647 5.24027744 105.0885458 5.23657322 C103.93747845 5.23671925 102.78641109 5.23686527 101.60046291 5.23701572 C97.77493853 5.236316 93.94946213 5.22852085 90.12394619 5.22070408 C87.47978651 5.21884011 84.83562648 5.21741611 82.19146633 5.21641636 C75.92994827 5.21330332 69.66844758 5.20509031 63.40693718 5.19506687 C56.28008707 5.18390487 49.15323614 5.17839506 42.02637947 5.17337143 C27.36227814 5.16290767 12.69819053 5.14530876 -1.96589756 5.12304783 C-2.52839756 3.18554783 -2.52839756 3.18554783 -2.96589756 1.12304783 C-1.96589756 0.12304783 -1.96589756 0.12304783 0 0 Z " fill="#FBFDF9" transform="translate(87.96589756011963,239.87695217132568)"/>
<path d="M0 0 C0.86925078 0.00092179 1.73850157 0.00184359 2.63409328 0.00279331 C3.62833813 0.00141865 4.62258297 0.00004398 5.64695644 -0.00137234 C6.74674831 0.00222294 7.84654018 0.00581821 8.97965908 0.00952244 C10.70626011 0.0093034 10.70626011 0.0093034 12.46774197 0.00907993 C16.29326635 0.00977965 20.11874275 0.0175748 23.94425869 0.02539158 C26.58841837 0.02725555 29.2325784 0.02867955 31.87673855 0.0296793 C38.13825661 0.03279234 44.3997573 0.04100535 50.6612677 0.05102879 C57.78811781 0.06219078 64.91496874 0.06770059 72.04182541 0.07272422 C86.70592674 0.08318799 101.37001435 0.10078689 116.03410244 0.12304783 C116.59660244 2.06054783 116.59660244 2.06054783 117.03410244 4.12304783 C116.03410244 5.12304783 116.03410244 5.12304783 114.06820488 5.24609566 C113.1989541 5.24517386 112.32970331 5.24425207 111.4341116 5.24330235 C109.94274433 5.24536434 109.94274433 5.24536434 108.42124844 5.24746799 C107.32145657 5.24387272 106.2216647 5.24027744 105.0885458 5.23657322 C103.93747845 5.23671925 102.78641109 5.23686527 101.60046291 5.23701572 C97.77493853 5.236316 93.94946213 5.22852085 90.12394619 5.22070408 C87.47978651 5.21884011 84.83562648 5.21741611 82.19146633 5.21641636 C75.92994827 5.21330332 69.66844758 5.20509031 63.40693718 5.19506687 C56.28008707 5.18390487 49.15323614 5.17839506 42.02637947 5.17337143 C27.36227814 5.16290767 12.69819053 5.14530876 -1.96589756 5.12304783 C-2.52839756 3.18554783 -2.52839756 3.18554783 -2.96589756 1.12304783 C-1.96589756 0.12304783 -1.96589756 0.12304783 0 0 Z " fill="#FFFDF9" transform="translate(323.96589756011963,232.87695217132568)"/>
<path d="M0 0 C1.21702354 0.00297592 1.21702354 0.00297592 2.45863342 0.00601196 C3.73577965 0.00403305 3.73577965 0.00403305 5.03872681 0.00201416 C7.87274117 0.00007296 10.70666003 0.00650176 13.54066467 0.01382446 C14.98838257 0.01515381 14.98838257 0.01515381 16.46534729 0.01651001 C39.10137936 0.0407406 61.7258116 0.54947251 84.35316467 1.13882446 C84.91566467 3.07632446 84.91566467 3.07632446 85.35316467 5.13882446 C83.51959023 6.9723989 80.95680772 6.25882413 78.51722717 6.26324463 C77.67925598 6.25964935 76.84128479 6.25605408 75.97792053 6.25234985 C74.66096947 6.25256889 74.66096947 6.25256889 73.31741333 6.25279236 C70.40092032 6.25209291 67.48449034 6.24429902 64.56800842 6.23648071 C62.55161575 6.23461665 60.53522263 6.23319269 58.51882935 6.23219299 C53.2005133 6.22836691 47.88222437 6.21853585 42.56391907 6.20748901 C37.14145779 6.19727684 31.71899216 6.19269579 26.29652405 6.18765259 C15.64872564 6.17691366 5.00094741 6.15983616 -5.64683533 6.13882446 C-6.029023 4.48267789 -6.36078634 2.81425422 -6.64683533 1.13882446 C-4.84734332 -0.66066754 -2.39594329 0.01015794 0 0 Z " fill="#FFB837" transform="translate(238.64683532714844,193.86117553710938)"/>
<path d="M0 0 C0.9015834 0.04102089 0.9015834 0.04102089 1.82138062 0.08287048 C20.98179147 0.93400929 40.13202143 1.28522254 59.30749512 1.53222656 C63.23758154 1.58356506 67.16761559 1.63864849 71.09765625 1.69335938 C78.73172583 1.79911155 86.36584062 1.90091731 94 2 C94.5625 3.9375 94.5625 3.9375 95 6 C93.14946998 7.85053002 90.11289833 7.12776474 87.63867188 7.12939453 C86.64065804 7.13202301 86.64065804 7.13202301 85.6224823 7.13470459 C83.40454554 7.13913247 81.1866877 7.13617658 78.96875 7.1328125 C77.41906723 7.13348654 75.86938456 7.13445741 74.31970215 7.13571167 C71.05443323 7.13719092 67.78919154 7.13503152 64.52392578 7.13037109 C60.38798527 7.12474929 56.25211073 7.12790249 52.11617279 7.13394356 C48.90374279 7.13760844 45.69132762 7.13638256 42.47889709 7.13381577 C40.95785006 7.13315875 39.43680157 7.13393087 37.91575623 7.13629532 C29.88971796 7.14601035 21.88187253 7.02583787 13.86523438 6.61669922 C13.17922401 6.58635653 12.49321365 6.55601383 11.7864151 6.52475166 C7.23117999 6.26031984 3.31469153 5.37892429 -1 4 C-0.67 2.68 -0.34 1.36 0 0 Z " fill="#FFB42B" transform="translate(358,193)"/>
<path d="M0 0 C39.27 0 78.54 0 119 0 C119 1.32 119 2.64 119 4 C79.73 4 40.46 4 0 4 C0 2.68 0 1.36 0 0 Z " fill="#FEFEFE" transform="translate(201,159)"/>
<path d="M0 0 C2.125 0.375 2.125 0.375 4 1 C3.98445572 1.64622314 3.96891144 2.29244629 3.95289612 2.95825195 C3.79758484 9.70675461 3.69227104 16.45474676 3.61547852 23.20458984 C3.5803565 25.72075026 3.53264696 28.23676863 3.47192383 30.75244141 C3.38664889 34.3769846 3.34722662 37.99963394 3.31640625 41.625 C3.28027725 42.74302002 3.24414825 43.86104004 3.20692444 45.01293945 C3.20406838 50.74158656 3.57673762 54.21618279 7.40600586 58.6328125 C8.57947666 59.78082731 9.77480589 60.90735591 11 62 C11.721875 62.7425 12.44375 63.485 13.1875 64.25 C14.0846875 65.11625 14.0846875 65.11625 15 66 C17.72874808 68.71272804 20.43970374 71.43427439 23.0625 74.25 C23.65160156 74.87390625 24.24070312 75.4978125 24.84765625 76.140625 C26 78 26 78 25.68359375 80.234375 C25.34521484 81.10835937 25.34521484 81.10835937 25 82 C21.63062552 81.42008587 20.03447573 80.39650321 17.6875 77.9375 C16.77871094 76.99003906 16.77871094 76.99003906 15.8515625 76.0234375 C13.46220101 73.41227874 11.14698383 70.74240976 8.83984375 68.05859375 C6.22128046 65.12869385 3.42250228 62.39786901 0.6015625 59.6640625 C-2.18151569 56.77237638 -2.12957652 54.75249374 -2.14526367 50.84765625 C-2.15164352 49.77314209 -2.15802338 48.69862793 -2.16459656 47.59155273 C-2.16570938 46.42696533 -2.1668222 45.26237793 -2.16796875 44.0625 C-2.17129715 42.87148682 -2.17462555 41.68047363 -2.17805481 40.45336914 C-2.1831246 37.9314818 -2.18546312 35.40958774 -2.18530273 32.88769531 C-2.18749086 29.01616455 -2.20565084 25.14491786 -2.22460938 21.2734375 C-2.22754287 18.82812598 -2.22952796 16.3828131 -2.23046875 13.9375 C-2.23765427 12.7729126 -2.24483978 11.6083252 -2.25224304 10.40844727 C-2.24916641 9.33393311 -2.24608978 8.25941895 -2.24291992 7.15234375 C-2.24434494 6.20351318 -2.24576996 5.25468262 -2.24723816 4.27709961 C-2 2 -2 2 0 0 Z " fill="#F4FBEB" transform="translate(415,58)"/>
<path d="M0 0 C4.14756236 2.87297924 6.94533943 6.30605555 9.75 10.4375 C10.14832031 10.99759766 10.54664063 11.55769531 10.95703125 12.13476562 C13.19325966 15.38298214 14.55867853 18.06488358 15 22 C13.56967163 23.17544805 12.13046758 24.34010262 10.6875 25.5 C9.88699219 26.1496875 9.08648437 26.799375 8.26171875 27.46875 C6 29 6 29 3 29 C1.4921875 26.98046875 1.4921875 26.98046875 -0.125 24.1875 C-3.40433469 18.74774525 -7.17419439 14.06604319 -11.375 9.3125 C-11.91125 8.549375 -12.4475 7.78625 -13 7 C-11.7801838 3.3405514 -10.16373527 2.55976007 -6.8359375 0.80078125 C-4.30043799 -0.30512811 -2.72098534 -0.57283902 0 0 Z " fill="#BC3438" transform="translate(450,357)"/>
<path d="M0 0 C26.07 0 52.14 0 79 0 C79 1.32 79 2.64 79 4 C77.31496301 5.68503699 75.23740116 5.11965983 72.98905945 5.12442017 C72.27264786 5.12082489 71.55623627 5.11722961 70.81811523 5.11352539 C69.6913588 5.11374443 69.6913588 5.11374443 68.5418396 5.1139679 C66.04739541 5.11326863 63.55302497 5.10547564 61.05859375 5.09765625 C59.33366436 5.09579212 57.60873443 5.09436819 55.88380432 5.09336853 C51.33487497 5.08954297 46.78597733 5.07971238 42.23706055 5.06866455 C37.59879994 5.05845124 32.96053423 5.05387108 28.32226562 5.04882812 C19.21482978 5.03809014 10.10741752 5.02101327 1 5 C0.67 3.35 0.34 1.7 0 0 Z " fill="#FFB42B" transform="translate(119,193)"/>
<path d="M0 0 C0 5.94 0 11.88 0 18 C-4.82241015 19.92896406 -7.26253299 20.21939191 -12.3125 20.125 C-13.56675781 20.10695313 -14.82101563 20.08890625 -16.11328125 20.0703125 C-17.06589844 20.04710937 -18.01851563 20.02390625 -19 20 C-19.05451714 17.95863605 -19.09302485 15.91684144 -19.125 13.875 C-19.14820312 12.73804688 -19.17140625 11.60109375 -19.1953125 10.4296875 C-18.99375044 6.89025774 -18.4485145 4.23277739 -17 1 C-11.57364835 -0.80878388 -5.66885438 -0.05200784 0 0 Z " fill="#FEB227" transform="translate(126,352)"/>
<path d="M0 0 C2.95064148 -0.2208564 5.68368231 -0.28060989 8.625 -0.1875 C9.42679688 -0.17396484 10.22859375 -0.16042969 11.0546875 -0.14648438 C13.03674378 -0.11109051 15.01845551 -0.05728234 17 0 C17.054348 2.0622048 17.09294961 4.12482816 17.125 6.1875 C17.14820313 7.33605469 17.17140625 8.48460937 17.1953125 9.66796875 C17.00199973 12.96588466 16.57982087 15.1123804 15 18 C9.44957552 20.42831071 3.97956034 20.21656355 -2 20 C-2.05392397 17.22890693 -2.09363455 14.45886182 -2.125 11.6875 C-2.14175781 10.90181641 -2.15851563 10.11613281 -2.17578125 9.30664062 C-2.18544922 8.1706543 -2.18544922 8.1706543 -2.1953125 7.01171875 C-2.20578613 6.31522217 -2.21625977 5.61872559 -2.22705078 4.90112305 C-2 3 -2 3 0 0 Z " fill="#FEB125" transform="translate(140,321)"/>
<path d="M0 0 C0 5.94 0 11.88 0 18 C-4.33938291 20.16969145 -6.48390408 20.21326104 -11.25 20.125 C-12.51328125 20.10695313 -13.7765625 20.08890625 -15.078125 20.0703125 C-16.04234375 20.04710937 -17.0065625 20.02390625 -18 20 C-18.02690104 17.20826945 -18.04679053 14.41679652 -18.0625 11.625 C-18.07087891 10.8309375 -18.07925781 10.036875 -18.08789062 9.21875 C-18.11328125 3.2265625 -18.11328125 3.2265625 -17 1 C-11.57364835 -0.80878388 -5.66885438 -0.05200784 0 0 Z " fill="#FEB124" transform="translate(157,352)"/>
<path d="M0 0 C2.43375 0.020625 4.8675 0.04125 7.375 0.0625 C7.375 5.6725 7.375 11.2825 7.375 17.0625 C1.13190073 19.83721079 -3.82296625 20.43884203 -10.625 20.0625 C-10.65197137 17.45826408 -10.67182489 14.85430756 -10.6875 12.25 C-10.69587891 11.51201172 -10.70425781 10.77402344 -10.71289062 10.01367188 C-10.72759828 6.76327932 -10.66031702 4.16845105 -9.625 1.0625 C-6.56118406 -0.46940797 -3.35534134 -0.03993613 0 0 Z " fill="#FEB021" transform="translate(178.625,320.9375)"/>
<path d="M0 0 C2.43375 0.020625 4.8675 0.04125 7.375 0.0625 C7.375 5.6725 7.375 11.2825 7.375 17.0625 C1.13190073 19.83721079 -3.82296625 20.43884203 -10.625 20.0625 C-10.65197137 17.45826408 -10.67182489 14.85430756 -10.6875 12.25 C-10.69587891 11.51201172 -10.70425781 10.77402344 -10.71289062 10.01367188 C-10.72759828 6.76327932 -10.66031702 4.16845105 -9.625 1.0625 C-6.56118406 -0.46940797 -3.35534134 -0.03993613 0 0 Z " fill="#FEB021" transform="translate(117.625,320.9375)"/>
<path d="M0 0 C3.49406769 1.66762322 4.82670681 2.74006022 7 6 C7.45971784 10.96495273 7.15065843 14.06167696 4 18 C0.78446554 20.32849047 -2.11021377 20.54457007 -6 20 C-8.92483867 18.17452064 -11.43429205 16.13141589 -13 13 C-13.40417552 10.03604618 -13.56382171 7.91095074 -11.953125 5.30859375 C-8.12285003 0.63340518 -5.98728971 -0.46959135 0 0 Z " fill="#FF6561" transform="translate(220,187)"/>
<path d="M0 0 C5.57894737 3.15789474 5.57894737 3.15789474 7 6 C7.70153846 13.13230769 7.70153846 13.13230769 4.625 16.9375 C0.83919272 19.91206287 -1.17180697 20.47335226 -6 20 C-8.69990662 18.20006226 -10.5418865 16.916227 -12 14 C-12.5811138 6.91041162 -12.5811138 6.91041162 -10.125 3.0625 C-6.76664891 -0.19707606 -4.63575359 -0.44574554 0 0 Z " fill="#FF645F" transform="translate(341,187)"/>
<path d="M0 0 C2.92937654 1.81310142 5.43647949 3.87295899 7 7 C7.40417552 9.96395382 7.56382171 12.08904926 5.953125 14.69140625 C3.2305096 18.01459858 1.5226254 19.79236926 -2.75 20.375 C-7.2753858 19.8528401 -8.7671103 18.15770622 -12 15 C-13.45147903 12.09704195 -13.37239025 10.22738221 -13 7 C-9.6221874 1.54256397 -6.46231639 -0.74565189 0 0 Z " fill="#FF645F" transform="translate(104,187)"/>
<path d="M0 0 C0 6.93 0 13.86 0 21 C-8.69544613 19.26091077 -14.69867672 12.86053602 -20 6 C-21.32117972 4.65462284 -22.65264751 3.3191652 -24 2 C-22.21142578 1.80083984 -22.21142578 1.80083984 -20.38671875 1.59765625 C-18.82029322 1.41944017 -17.25388802 1.24104544 -15.6875 1.0625 C-14.90181641 0.97548828 -14.11613281 0.88847656 -13.30664062 0.79882812 C-12.54931641 0.71181641 -11.79199219 0.62480469 -11.01171875 0.53515625 C-10.31522217 0.456604 -9.61872559 0.37805176 -8.90112305 0.29711914 C-2.69269064 -0.67317266 -2.69269064 -0.67317266 0 0 Z " fill="#FEAF95" transform="translate(89,150)"/>
<path d="M0 0 C-0.33 1.32 -0.66 2.64 -1 4 C-3.70827004 4.47952665 -6.41661344 4.95863231 -9.125 5.4375 C-10.26582031 5.63956055 -10.26582031 5.63956055 -11.4296875 5.84570312 C-12.93064355 6.11095829 -14.43186243 6.37473087 -15.93334961 6.63696289 C-17.69001671 6.94554694 -19.44483575 7.26462193 -21.19921875 7.5859375 C-24.06016572 8.00889479 -26.7966077 8.16734036 -29.6875 8.1875 C-30.61949219 8.20167969 -31.55148438 8.21585938 -32.51171875 8.23046875 C-35 8 -35 8 -38 6 C-37.67 4.68 -37.34 3.36 -37 2 C-26.96715847 -1.26650655 -9.22446991 -6.1496466 0 0 Z " fill="#FDFDFC" transform="translate(143,77)"/>
<path d="M0 0 C1.35568336 0.00333092 1.35568336 0.00333092 2.73875427 0.00672913 C3.75973709 0.00680466 4.78071991 0.00688019 5.8326416 0.00695801 C6.94304306 0.01211929 8.05344452 0.01728058 9.19749451 0.02259827 C10.89336952 0.02472069 10.89336952 0.02472069 12.62350464 0.02688599 C16.25105891 0.03250433 19.8785525 0.04505994 23.50608826 0.05775452 C25.95856133 0.06276715 28.41103536 0.06733047 30.86351013 0.07142639 C36.89022371 0.08247971 42.91690165 0.09923568 48.94358826 0.12025452 C48.61358826 1.77025452 48.28358826 3.42025452 47.94358826 5.12025452 C31.44358826 5.12025452 14.94358826 5.12025452 -2.05641174 5.12025452 C-2.38641174 3.80025452 -2.71641174 2.48025452 -3.05641174 1.12025452 C-2.05641174 0.12025452 -2.05641174 0.12025452 0 0 Z " fill="#F5FBED" transform="translate(88.05641174316406,253.87974548339844)"/>
<path d="M0 0 C1.35568336 0.00333092 1.35568336 0.00333092 2.73875427 0.00672913 C3.75973709 0.00680466 4.78071991 0.00688019 5.8326416 0.00695801 C6.94304306 0.01211929 8.05344452 0.01728058 9.19749451 0.02259827 C10.89336952 0.02472069 10.89336952 0.02472069 12.62350464 0.02688599 C16.25105891 0.03250433 19.8785525 0.04505994 23.50608826 0.05775452 C25.95856133 0.06276715 28.41103536 0.06733047 30.86351013 0.07142639 C36.89022371 0.08247971 42.91690165 0.09923568 48.94358826 0.12025452 C48.94358826 1.44025452 48.94358826 2.76025452 48.94358826 4.12025452 C46.50391329 5.340092 44.94454301 5.24076979 42.2184906 5.23377991 C41.23762482 5.23370438 40.25675903 5.23362885 39.24617004 5.23355103 C38.18467743 5.22838974 37.12318481 5.22322845 36.02952576 5.21791077 C34.94474945 5.21649582 33.85997314 5.21508087 32.74232483 5.21362305 C29.26771826 5.20801254 25.79317545 5.19545824 22.31858826 5.18275452 C19.96702669 5.17774087 17.61546411 5.17317773 15.26390076 5.16908264 C9.4904414 5.1580397 3.71701938 5.14129131 -2.05641174 5.12025452 C-2.61891174 3.18275452 -2.61891174 3.18275452 -3.05641174 1.12025452 C-2.05641174 0.12025452 -2.05641174 0.12025452 0 0 Z " fill="#FFFAF2" transform="translate(324.05641174316406,246.87974548339844)"/>
<path d="M0 0 C6.94170022 -0.05058729 13.88335315 -0.08568579 20.82519531 -0.10986328 C23.18816911 -0.11993924 25.55113039 -0.13360029 27.9140625 -0.15087891 C31.30471888 -0.17505724 34.69521084 -0.18646699 38.0859375 -0.1953125 C39.14743011 -0.20563507 40.20892273 -0.21595764 41.30258179 -0.22659302 C42.77388046 -0.22681961 42.77388046 -0.22681961 44.27490234 -0.22705078 C45.14094086 -0.231492 46.00697937 -0.23593323 46.89926147 -0.24050903 C49 0 49 0 51 2 C51 2.99 51 3.98 51 5 C33.84 5 16.68 5 -1 5 C-0.67 3.35 -0.34 1.7 0 0 Z " fill="#FBF9FE" transform="translate(202,144)"/>
<path d="M0 0 C0.495 1.98 0.495 1.98 1 4 C-10.31697696 8.14955822 -21.91548184 10.09420404 -34 9 C-34.99 8.34 -35.98 7.68 -37 7 C-36.67 5.68 -36.34 4.36 -36 3 C-23.88505185 0.15738647 -12.41955333 -0.34357371 0 0 Z " fill="#FDFDFD" transform="translate(142,114)"/>
<path d="M0 0 C5.31978609 0.45621443 8.90147747 2.51339506 13.1875 5.5 C13.83807373 5.9434375 14.48864746 6.386875 15.15893555 6.84375 C21.77952437 11.41942263 28.3009597 16.3009597 34 22 C33.625 24.125 33.625 24.125 33 26 C28.83721988 25.46128728 26.63167509 23.16519293 23.5625 20.4375 C18.32885963 15.89639101 12.89064313 12.27212177 6.91015625 8.7890625 C4.07365115 7.04527816 1.55187277 5.13361002 -1 3 C-0.67 2.01 -0.34 1.02 0 0 Z " fill="#ED6F50" transform="translate(304,254)"/>
<path d="M0 0 C1.32 0.33 2.64 0.66 4 1 C1.62334251 7.41697523 -2.3852413 14.88251029 -8 19 C-10.71164524 18.75650533 -11.7869929 18.21789258 -13.703125 16.2578125 C-14.21359375 15.55398437 -14.7240625 14.85015625 -15.25 14.125 C-16.03117187 13.07699219 -16.03117187 13.07699219 -16.828125 12.0078125 C-18 10 -18 10 -18 7 C-15.625 7.3125 -15.625 7.3125 -13 8 C-12.01 9.485 -12.01 9.485 -11 11 C-7.32943063 9.52202738 -5.58914217 7.52384523 -3.25 4.375 C-2.63640625 3.55773437 -2.0228125 2.74046875 -1.390625 1.8984375 C-0.93171875 1.27195312 -0.4728125 0.64546875 0 0 Z " fill="#292946" transform="translate(93,108)"/>
<path d="M0 0 C1.32 0 2.64 0 4 0 C3.34452695 3.70560765 1.70671673 6.35227028 -0.3125 9.5 C-0.90675781 10.4384375 -1.50101563 11.376875 -2.11328125 12.34375 C-3.93302213 14.90570403 -5.53020019 17.05091234 -8 19 C-10.046875 18.9921875 -10.046875 18.9921875 -12 18 C-13.703125 16.2578125 -13.703125 16.2578125 -15.25 14.125 C-16.03117187 13.07699219 -16.03117187 13.07699219 -16.828125 12.0078125 C-18 10 -18 10 -18 7 C-15.625 7.3125 -15.625 7.3125 -13 8 C-12.01 9.485 -12.01 9.485 -11 11 C-6.39822042 9.16332482 -4.52607158 5.85347586 -1.78125 1.8984375 C-1.1934375 1.27195312 -0.605625 0.64546875 0 0 Z " fill="#292946" transform="translate(93,70)"/>
<path d="M0 0 C0.66 0 1.32 0 2 0 C1.86186975 4.14612814 1.71321141 8.29181162 1.5625 12.4375 C1.52318359 13.62150391 1.48386719 14.80550781 1.44335938 16.02539062 C1.40146484 17.15009766 1.35957031 18.27480469 1.31640625 19.43359375 C1.26141968 20.99678345 1.26141968 20.99678345 1.20532227 22.59155273 C1 25 1 25 0 26 C-2.34987262 26.23527773 -4.70556039 26.41386417 -7.0625 26.5625 C-8.35285156 26.64628906 -9.64320313 26.73007812 -10.97265625 26.81640625 C-11.97167969 26.87699219 -12.97070312 26.93757813 -14 27 C-13 25 -13 25 -11.4375 24.375 C-7.94613998 23.83786769 -4.53236285 23.97848307 -1 24 C-1.00523682 23.30849854 -1.01047363 22.61699707 -1.01586914 21.90454102 C-1.036575 18.79053648 -1.04963963 15.67654639 -1.0625 12.5625 C-1.07087891 11.47388672 -1.07925781 10.38527344 -1.08789062 9.26367188 C-1.09111328 8.22919922 -1.09433594 7.19472656 -1.09765625 6.12890625 C-1.10289307 5.17056885 -1.10812988 4.21223145 -1.11352539 3.22485352 C-1 1 -1 1 0 0 Z " fill="#F3EBFD" transform="translate(427,368)"/>
<path d="M0 0 C6.93 0 13.86 0 21 0 C21 0.33 21 0.66 21 1 C19.89140625 1.06058594 18.7828125 1.12117188 17.640625 1.18359375 C16.1770718 1.26802951 14.71353075 1.35267599 13.25 1.4375 C12.15558594 1.49647461 12.15558594 1.49647461 11.0390625 1.55664062 C7.5727027 1.76147098 4.34666974 2.0852002 1 3 C0.67 2.01 0.34 1.02 0 0 Z " fill="#78C8F3" transform="translate(440,356)"/>
<path d="M0 0 C1.19882812 0.15275391 1.19882812 0.15275391 2.421875 0.30859375 C3.02515625 0.39238281 3.6284375 0.47617187 4.25 0.5625 C4.25 0.8925 4.25 1.2225 4.25 1.5625 C-0.37 1.8925 -4.99 2.2225 -9.75 2.5625 C-8.75 0.5625 -8.75 0.5625 -6.984375 -0.08984375 C-4.5100683 -0.47483203 -2.47863829 -0.32805507 0 0 Z " fill="#E8D9FD" transform="translate(422.75,392.4375)"/>
<path d="M0 0 C0.66 0 1.32 0 2 0 C1.67 2.97 1.34 5.94 1 9 C0.34 9 -0.32 9 -1 9 C-1.09765625 2.84765625 -1.09765625 2.84765625 -1 1 C-0.67 0.67 -0.34 0.34 0 0 Z " fill="#E8DAFD" transform="translate(427,368)"/>
</svg>
