<?xml version="1.0" encoding="UTF-8"?>
<svg version="1.1" xmlns="http://www.w3.org/2000/svg" width="512" height="512">
<path d="M0 0 C1.66425405 -0.00679667 1.66425405 -0.00679667 3.36212939 -0.01373065 C7.08144296 -0.0263951 10.80061048 -0.02475293 14.51994324 -0.02310181 C17.18600001 -0.02908576 19.85204532 -0.03583439 22.51809692 -0.04345703 C29.00941546 -0.0600543 35.50069768 -0.065566 41.99203566 -0.06668179 C47.26975762 -0.06763286 52.54746761 -0.07174611 57.82518578 -0.07808304 C72.79595972 -0.09569192 87.76670501 -0.10492245 102.73748938 -0.10342209 C103.54419525 -0.10334218 104.35090111 -0.10326227 105.18205261 -0.10317993 C106.39359273 -0.10305729 106.39359273 -0.10305729 107.62960842 -0.10293217 C120.71791242 -0.10211935 133.80610131 -0.12125678 146.89437202 -0.14945666 C160.34063119 -0.17819875 173.78683425 -0.19199623 187.23312491 -0.19026911 C194.7792638 -0.18960567 202.32528202 -0.19507782 209.8713932 -0.21662521 C216.29652008 -0.23485447 222.72147159 -0.23917012 229.14661316 -0.22560637 C232.4227673 -0.21908538 235.69851605 -0.22111004 238.97465134 -0.23631287 C242.53165923 -0.25174895 246.08778646 -0.24246665 249.64477539 -0.22705078 C251.18681986 -0.24248147 251.18681986 -0.24248147 252.76001674 -0.25822389 C261.90592739 -0.17075368 270.2858513 2.89446693 277.01286316 9.26742554 C282.96844737 16.67759944 285.31790337 23.28431105 285.2802887 32.81814575 C285.28481981 33.66559553 285.28935092 34.51304532 285.29401934 35.38617539 C285.30665408 38.21871825 285.30504356 41.0510686 285.3033905 43.88363647 C285.30937637 45.91753384 285.31618206 47.95142893 285.32374573 49.98532104 C285.34140808 55.50613443 285.34610124 61.02688581 285.3473773 66.54772472 C285.34879945 69.99887676 285.3530703 73.45001307 285.35837173 76.90116119 C285.3768736 88.94676208 285.38504225 100.99231872 285.38346863 113.03793335 C285.38226756 124.25667529 285.40336276 135.47522475 285.43495595 146.69391799 C285.46113152 156.33319049 285.47183536 165.97240017 285.47055781 175.61170793 C285.47004851 181.36546232 285.47571426 187.11904567 285.49691391 192.87276459 C285.51631743 198.28681993 285.51640611 203.70054146 285.50188065 209.11460876 C285.49979401 211.09708902 285.50448473 213.07959028 285.51660156 215.06203461 C285.64960533 238.33813319 285.64960533 238.33813319 276.82536316 247.66976929 C269.38307501 254.22988966 263.16779221 255.57493736 253.01286316 257.26742554 C253.01286316 304.12742554 253.01286316 350.98742554 253.01286316 399.26742554 C261.59286316 399.26742554 270.17286316 399.26742554 279.01286316 399.26742554 C284.01286316 402.26742554 284.01286316 402.26742554 285.01286316 404.26742554 C286.76770948 423.2830553 277.77261129 441.17797305 266.00627136 455.59994507 C264.69062354 457.16889094 263.35256344 458.71896712 262.01286316 460.26742554 C261.41860535 460.96351929 260.82434753 461.65961304 260.21208191 462.37680054 C252.27564126 470.96312343 240.48496852 479.32305329 228.65017474 480.64225912 C224.65568593 480.79380332 220.67110362 480.82071738 216.67480469 480.80227661 C215.13005539 480.8097598 213.58531366 480.81896689 212.04058379 480.8297379 C207.81645845 480.85410373 203.59265101 480.85368829 199.3684715 480.8489604 C194.80453304 480.84814166 190.24069489 480.8702452 185.67680359 480.88919067 C176.74290401 480.92236083 167.80911002 480.9334075 158.875154 480.93564019 C151.61005943 480.93754352 144.34499958 480.94577594 137.079916 480.95844269 C116.46339165 480.99365404 95.84695046 481.01212256 75.23039583 481.00912079 C74.11986737 481.00896097 73.00933892 481.00880114 71.86515808 481.00863647 C70.75326721 481.00847295 69.64137635 481.00830943 68.49579182 481.00814095 C50.48097476 481.00651556 32.46649231 481.04478577 14.45177201 481.10118994 C-4.06389401 481.15870323 -22.579397 481.18626748 -41.09515458 481.18281484 C-51.48303605 481.18148893 -61.87056673 481.19238954 -72.25836754 481.23552704 C-81.10354062 481.27202425 -89.94820392 481.28058581 -98.79341986 481.25348935 C-103.30192284 481.2404661 -107.80944889 481.24006003 -112.31785774 481.27490234 C-116.45453369 481.3065415 -120.58946555 481.30046415 -124.7261012 481.26576582 C-126.21328133 481.25966409 -127.70059452 481.26674609 -129.18761756 481.28920612 C-144.945124 481.51122705 -156.45711718 474.68227922 -167.98713684 464.26742554 C-168.74381653 463.60355835 -169.50049622 462.93969116 -170.28010559 462.25570679 C-183.63570084 449.81960175 -193.6004945 430.76554161 -195.33869934 412.59164429 C-195.54841745 404.02179977 -195.54841745 404.02179977 -193.64729309 401.46664429 C-190.23715526 399.00332119 -187.06082298 399.14999292 -183.00666809 399.16976929 C-181.84328918 399.17299194 -180.67991028 399.1762146 -179.48127747 399.17953491 C-177.65886536 399.19210327 -177.65886536 399.19210327 -175.79963684 399.20492554 C-174.57309387 399.20943726 -173.3465509 399.21394897 -172.08283997 399.21859741 C-169.05089016 399.23039488 -166.01903778 399.24685633 -162.98713684 399.26742554 C-162.98941516 398.71472272 -162.99169348 398.1620199 -162.99404085 397.59256852 C-163.12838324 364.81647445 -163.23129338 332.04044954 -163.29352882 299.26414175 C-163.30103283 295.3264338 -163.30879879 291.3887264 -163.31672668 287.45101929 C-163.31830055 286.66711071 -163.31987441 285.88320213 -163.32149597 285.07553874 C-163.34758586 272.39164938 -163.39488332 259.7079236 -163.45005362 247.02413119 C-163.50621309 234.00409023 -163.53950015 220.9841348 -163.55166781 207.96397769 C-163.5598902 199.93327995 -163.58583526 191.90304462 -163.63463564 183.87248926 C-163.67017687 177.70893277 -163.67385528 171.54572695 -163.66578293 165.38208199 C-163.66743184 162.85776361 -163.6793436 160.33342753 -163.70236969 157.80921364 C-163.73231305 154.35699308 -163.72501306 150.90673569 -163.70866394 147.45446777 C-163.72614099 146.46027679 -163.74361804 145.4660858 -163.76162469 144.44176781 C-163.66806199 137.11072542 -161.4861914 132.0538156 -156.98713684 126.26742554 C-149.76694474 119.46523515 -141.78713528 118.97094022 -132.27839661 119.04037476 C-131.2239888 119.0400827 -130.16958099 119.03979065 -129.08322144 119.03948975 C-125.6149102 119.04087768 -122.14681658 119.05641378 -118.67854309 119.07211304 C-116.26716225 119.07584507 -113.85577988 119.07869114 -111.44439697 119.08068848 C-105.110151 119.08830992 -98.77599733 119.10794571 -92.44178772 119.13009644 C-85.97319283 119.1505869 -79.50458298 119.15969704 -73.03596497 119.16976929 C-60.35298297 119.19119293 -47.67006482 119.22492432 -34.98713684 119.26742554 C-34.99601929 118.0972438 -35.00490173 116.92706207 -35.01405334 115.72142029 C-35.09527806 104.67245345 -35.15516894 93.6235475 -35.19438553 82.5743494 C-35.21522526 76.89435913 -35.24347712 71.21461066 -35.28889465 65.53475952 C-35.33248091 60.04935276 -35.35630112 54.564178 -35.36664581 49.07861137 C-35.37401423 46.98990669 -35.38840295 44.90121415 -35.41005707 42.81260872 C-35.43926067 39.87808302 -35.44308574 36.94450572 -35.4412384 34.00985718 C-35.45561951 33.1538945 -35.47000061 32.29793182 -35.4848175 31.41603088 C-35.42646328 22.80172945 -31.94684598 14.55822963 -25.98713684 8.26742554 C-17.65702158 1.57248105 -10.49938279 -0.03142751 0 0 Z " fill="#333433" transform="translate(210.9871368408203,15.732574462890625)"/>
<path d="M0 0 C0.91422729 -0.00687332 1.82845459 -0.01374664 2.77038574 -0.02082825 C3.7658844 -0.00285187 4.76138306 0.01512451 5.78704834 0.03364563 C7.36800293 0.03255043 7.36800293 0.03255043 8.980896 0.03143311 C12.46595657 0.0349176 15.94968207 0.07382181 19.43450928 0.11299133 C21.85017161 0.12231633 24.26584339 0.12943392 26.68151855 0.13442993 C33.04069102 0.15352406 39.39929281 0.20264684 45.75823975 0.25794983 C52.24660522 0.30908956 58.73506287 0.33193277 65.22357178 0.35713196 C77.95558614 0.41076225 90.68720486 0.49514458 103.41888428 0.60127258 C103.4203093 1.7522644 103.42173431 2.90325623 103.42320251 4.08912659 C103.43992575 14.97552734 103.48286169 25.86155683 103.55097485 36.74776077 C103.58515729 42.34351635 103.61034123 47.93900144 103.61444092 53.53486633 C103.61874259 58.94272319 103.64736015 64.34997075 103.69231606 69.75763702 C103.70523143 71.81308687 103.70962006 73.86860984 103.70503807 75.92409515 C103.68332933 88.62826159 103.88695105 99.4009327 111.73138428 110.03877258 C116.83913632 114.90895477 123.29587951 119.50660279 130.61199951 119.64179993 C132.25786154 119.58492564 133.90369406 119.52719271 135.54949951 119.46870422 C146.66275967 119.23564583 146.66275967 119.23564583 151.49310303 122.99189758 C153.58747537 125.80285682 155.4105482 128.60387569 157.17474365 131.62324524 C159.48163995 135.29092062 162.33011367 138.53399718 165.10638428 141.85127258 C166.21273809 143.19974151 167.3169748 144.54995076 168.41888428 145.90205383 C169.19232178 146.85072327 169.19232178 146.85072327 169.98138428 147.81855774 C172.43547221 150.86199355 174.80469825 153.96918135 177.14935303 157.09736633 C179.04736295 159.34577809 180.30569765 159.58618103 183.23138428 159.97627258 C189.23619002 159.26982485 192.80431495 153.11590184 196.54388428 148.66377258 C197.01326416 148.10673645 197.48264404 147.54970032 197.96624756 146.9757843 C201.478851 142.78098584 204.90921112 138.52479587 208.29388428 134.22627258 C208.73361572 133.66818909 209.17334717 133.11010559 209.62640381 132.53511047 C210.05034424 131.99233459 210.47428467 131.44955872 210.91107178 130.89033508 C211.31587171 130.3891192 211.72067163 129.88790331 212.13773823 129.37149906 C213.4659386 127.66436773 213.4659386 127.66436773 214.23090649 125.77676296 C215.3778533 123.46465882 216.3612796 122.18624767 218.41888428 120.60127258 C223.38996789 119.53833533 228.344884 119.71671995 233.39862061 119.80659485 C234.94613556 119.80857006 236.49365707 119.80745967 238.04116821 119.80349731 C242.23759508 119.80148948 246.4326203 119.84263107 250.62872148 119.89151502 C255.01554642 119.93528603 259.40240383 119.93938702 263.78941345 119.94769287 C272.09460108 119.96944643 280.3991434 120.02688478 288.70404691 120.0971393 C299.92793077 120.19002476 311.15199122 120.22779878 322.37616253 120.26865482 C340.0575531 120.33446859 357.73758195 120.47392354 375.41888428 120.60127258 C375.41888428 168.12127258 375.41888428 215.64127258 375.41888428 264.60127258 C364.76993896 264.62705383 354.12099365 264.65283508 343.14935303 264.67939758 C336.41821463 264.70455274 329.68710515 264.73071126 322.95599365 264.76142883 C312.26320572 264.81003771 301.57051401 264.85445406 290.87762451 264.87226868 C283.09099058 264.88526024 275.3045514 264.91216067 267.51802713 264.95588565 C263.39365081 264.97855697 259.26951519 264.99417989 255.14507103 264.99315643 C251.26503064 264.99241314 247.38552345 265.0102294 243.50562096 265.04244041 C242.07979258 265.05097716 240.65390465 265.05266385 239.22806168 265.04707527 C237.28478361 265.04047168 235.34146899 265.06065264 233.39830017 265.08229065 C232.30966266 265.08597782 231.22102514 265.08966499 230.09939861 265.0934639 C227.32023886 265.35991268 227.32023886 265.35991268 225.59985828 267.41495895 C224.23356109 269.72852817 224.23356109 269.72852817 223.54388428 273.10127258 C222.20147219 277.27766575 221.07640602 278.27408626 217.41888428 280.60127258 C214.26971436 281.10920715 214.26971436 281.10920715 210.68841553 281.11885071 C209.70450333 281.12936462 209.70450333 281.12936462 208.70071411 281.14009094 C206.54383344 281.15762066 204.38827705 281.14606789 202.23138428 281.13252258 C200.72592926 281.13521899 199.22047593 281.13910265 197.71502686 281.14411926 C194.56438569 281.15000744 191.41419905 281.14147394 188.26361084 281.12275696 C184.23163167 281.09996707 180.20071758 281.11309391 176.16877747 281.13704681 C173.06142194 281.15152365 169.95431757 281.14689033 166.84695435 281.13653564 C165.36064527 281.13387353 163.87431315 281.13711999 162.38803101 281.14645386 C160.30786022 281.15665149 158.22939709 281.1410777 156.14935303 281.11885071 C154.96752441 281.11566833 153.7856958 281.11248596 152.5680542 281.10920715 C148.78285361 280.4986862 147.12603508 279.26604228 144.41888428 276.60127258 C143.37982178 274.31221008 143.37982178 274.31221008 142.79388428 271.97627258 C141.81834148 268.06588218 141.81834148 268.06588218 138.41888428 265.60127258 C135.65678262 265.28846798 135.65678262 265.28846798 132.47743225 265.32279968 C131.23642761 265.3116362 129.99542297 265.30047272 128.71681213 265.28897095 C127.33926422 265.28660591 125.96171597 265.28443028 124.58416748 265.28242493 C123.13546182 265.2731281 121.68676153 265.2629598 120.23806763 265.25198364 C116.30243178 265.22464179 112.36683182 265.20952189 108.43112588 265.19655561 C104.3191085 265.18094334 100.20716458 265.15414708 96.09519958 265.12852478 C88.30735587 265.08170321 80.51949839 265.04497548 72.73158568 265.01185191 C63.86585953 264.97365436 55.00020711 264.92423802 46.13454306 264.87386775 C27.89604406 264.77049767 9.65750008 264.6812538 -8.58111572 264.60127258 C-8.67264265 231.69133388 -8.74313987 198.78142814 -8.78537704 165.87139123 C-8.79037995 161.98732478 -8.79555723 158.10325858 -8.80084229 154.2191925 C-8.80189153 153.44593483 -8.80294077 152.67267716 -8.80402181 151.87598743 C-8.82143383 139.3504313 -8.85297589 126.8249485 -8.88972691 114.29943589 C-8.92711417 101.45004532 -8.94934688 88.60069318 -8.9574697 75.75125045 C-8.96296209 67.8204552 -8.98031807 59.8898672 -9.01278159 51.95913573 C-9.03639659 45.88097623 -9.03894118 39.80299555 -9.03354645 33.72478485 C-9.03464948 31.22902079 -9.04264028 28.73324909 -9.05793762 26.23753166 C-9.07776672 22.83645825 -9.07308 19.43627983 -9.06213379 16.03518677 C-9.07378515 15.04199537 -9.08543652 14.04880396 -9.09744096 13.02551585 C-9.06042352 8.78583679 -8.93847469 6.23955945 -6.83737183 2.48673248 C-4.28500136 0.35382206 -3.2789766 -0.01906382 0 0 Z " fill="#FEFEFE" transform="translate(72.58111572265625,151.3987274169922)"/>
<path d="M0 0 C0.83397812 -0.0071553 1.66795624 -0.01431061 2.52720642 -0.02168274 C3.43892609 -0.02437164 4.35064575 -0.02706055 5.28999329 -0.02983093 C6.25293808 -0.03640213 7.21588287 -0.04297333 8.20800781 -0.04974365 C11.39980649 -0.06947902 14.59155807 -0.0811406 17.78340149 -0.09111023 C18.8739213 -0.09518576 19.96444111 -0.09926128 21.08800697 -0.10346031 C26.86138851 -0.12432332 32.63474627 -0.13862335 38.40815735 -0.147995 C44.36558216 -0.15905225 50.32263272 -0.19344395 56.27992535 -0.23316669 C60.86538375 -0.25933961 65.45075315 -0.26768752 70.03627968 -0.27127647 C72.23186072 -0.27614164 74.42743781 -0.28775357 76.62294579 -0.30631447 C79.70106324 -0.33071677 82.77821454 -0.32973846 85.85639954 -0.32279968 C87.2087973 -0.34201477 87.2087973 -0.34201477 88.58851624 -0.36161804 C93.91231559 -0.31802828 97.53252302 0.51473112 102.10903645 3.28869343 C104.16712896 4.4357697 104.16712896 4.4357697 107.89668274 4.14717102 C109.7267786 3.30710177 109.7267786 3.30710177 111.52412415 2.17951965 C116.32173453 -0.32780078 120.5223467 -0.41874235 125.85762024 -0.3704071 C127.30313263 -0.38092102 127.30313263 -0.38092102 128.77784729 -0.39164734 C131.94275787 -0.40915913 135.10676409 -0.3976285 138.27168274 -0.38407898 C140.48311025 -0.38677584 142.69453661 -0.39065988 144.90596008 -0.39567566 C149.53254018 -0.4015615 154.15881061 -0.39303698 158.78535461 -0.37431335 C164.70348258 -0.35152472 170.62088484 -0.36465266 176.53898621 -0.38860321 C181.10303677 -0.40308572 185.66691646 -0.39844388 190.23097229 -0.38809204 C192.41257311 -0.38543155 194.59418965 -0.38867055 196.77577209 -0.39801025 C199.82951208 -0.40821602 202.88209128 -0.39261782 205.93574524 -0.3704071 C206.82948853 -0.37850403 207.72323181 -0.38660095 208.64405823 -0.39494324 C215.9627042 -0.29676991 221.10641102 1.7373909 226.64668274 6.52217102 C231.43373695 12.1070676 234.00984754 16.33945109 234.05058289 23.71762085 C234.05918335 24.87686066 234.06778381 26.03610046 234.0766449 27.23046875 C234.08303482 29.14035332 234.08303482 29.14035332 234.08955383 31.08882141 C234.09745717 32.44248158 234.10572627 33.79613966 234.11433411 35.14979553 C234.14053721 39.59811903 234.15586447 44.04645183 234.17012024 48.49482727 C234.17548146 50.02845706 234.18085898 51.5620868 234.18625259 53.09571648 C234.20788277 59.47896669 234.22661631 65.8622144 234.23787498 72.24549198 C234.25409239 81.37905769 234.28721435 90.51219652 234.34427583 99.64560133 C234.38306425 106.0746396 234.40251842 112.50356415 234.40779555 118.93271631 C234.41143816 122.76844943 234.42334121 126.60372709 234.45589828 130.43933296 C234.4861349 134.05348905 234.49223621 137.66691787 234.48051453 141.28117371 C234.48019111 143.22590988 234.50455508 145.1706022 234.52989197 147.11517334 C234.46983066 155.62766333 233.05166046 162.62944504 227.14114952 169.05597019 C221.12582304 174.73415679 214.78583061 176.60157478 206.64155579 176.5160675 C205.44979736 176.52171722 205.44979736 176.52171722 204.23396301 176.52748108 C202.51964176 176.53388486 200.80528495 176.53361061 199.09096336 176.52729607 C196.36961769 176.5181342 193.64895354 176.52846831 190.92764282 176.54391479 C183.19443242 176.58386813 175.46127809 176.58522276 167.72798157 176.58296204 C162.98649544 176.58291071 158.24537718 176.60219169 153.50399208 176.63229561 C150.83733214 176.64304733 148.17139665 176.63103388 145.50476074 176.61846924 C131.83641013 176.49582779 131.83641013 176.49582779 120.07495117 182.79510498 C116.81133047 186.30238068 114.36807037 190.41324171 111.97480774 194.54560852 C110.89668274 196.14717102 110.89668274 196.14717102 108.89668274 197.14717102 C106.08418274 197.52217102 106.08418274 197.52217102 102.89668274 197.14717102 C99.57906245 194.55780884 97.5332503 191.64561695 95.39668274 188.08467102 C91.61925118 181.86301904 86.84280287 179.1407392 79.89668274 177.14717102 C77.09563522 176.77114293 74.35099446 176.75829781 71.5280304 176.79414368 C70.33605293 176.7909034 70.33605293 176.7909034 69.11999512 176.78759766 C67.40840734 176.78452917 65.69679719 176.78806146 63.98523331 176.79761124 C61.26800673 176.81145121 58.55150225 176.80485229 55.83427429 176.79277039 C48.11381631 176.76195205 40.39353104 176.76664469 32.67304993 176.78681946 C27.93684446 176.79778489 23.20118355 176.78444743 18.46505356 176.75692368 C16.67028004 176.75151311 14.87545103 176.75546974 13.08072281 176.76932144 C-6.88872677 176.92166969 -6.88872677 176.92166969 -14.99256897 169.39170837 C-22.32355738 161.72316475 -22.54360178 153.87710272 -22.50737 143.71968079 C-22.51307921 142.36218201 -22.5200456 141.00468802 -22.52816772 139.64720154 C-22.54605351 135.97563868 -22.54493948 132.30431541 -22.53922534 128.63272214 C-22.53612684 125.56124189 -22.54223327 122.48980722 -22.54826409 119.41833347 C-22.56229264 112.16929711 -22.56076197 104.92037864 -22.54936218 97.67134094 C-22.53788226 90.20664124 -22.5519581 82.74230087 -22.57875866 75.27764851 C-22.60094885 68.85532916 -22.60754559 62.43312234 -22.60168225 56.0107674 C-22.59831941 52.18085332 -22.60068264 48.35116955 -22.61793327 44.52128792 C-22.63345359 40.91860143 -22.62939136 37.31644537 -22.61062813 33.71377945 C-22.60521324 31.77114272 -22.61941759 29.82848187 -22.63432312 27.88589478 C-22.56270348 19.36180062 -21.42347593 13.99156527 -15.72831726 7.39717102 C-10.82465864 3.19403506 -6.58392198 0.03884731 0 0 Z " fill="#333433" transform="translate(230.1033172607422,47.85282897949219)"/>
<path d="M0 0 C0.91568024 -0.00445784 1.83136049 -0.00891569 2.77478862 -0.01350862 C3.77710875 -0.01332426 4.77942888 -0.01313989 5.81212234 -0.01294994 C6.87978624 -0.01662663 7.94745013 -0.02030332 9.04746747 -0.02409142 C12.6370944 -0.03513417 16.22669239 -0.0389731 19.81633377 -0.04278088 C22.38519254 -0.049045 24.9540504 -0.05569176 27.52290726 -0.0626936 C35.2395454 -0.08244096 42.95618482 -0.09252135 50.67284191 -0.10142139 C54.30792569 -0.10580652 57.94300803 -0.11117269 61.57809067 -0.11641026 C73.66342618 -0.13341969 85.7487608 -0.14791407 97.83410645 -0.155159 C100.96913275 -0.15706884 104.10415905 -0.15898918 107.23918533 -0.16094494 C108.01836591 -0.16142868 108.79754649 -0.16191242 109.60033861 -0.16241082 C122.22385132 -0.17071198 134.8472693 -0.1960516 147.47074065 -0.22852562 C160.43441008 -0.26160267 173.39803136 -0.27960828 186.36174321 -0.28280324 C193.63905289 -0.28496758 200.91622436 -0.29370522 208.19349289 -0.31926441 C215.0389143 -0.34325164 221.88408322 -0.34679305 228.72953796 -0.33650303 C231.24177883 -0.33600669 233.7540318 -0.34235593 236.26623535 -0.35605907 C239.69670664 -0.37372396 243.12627965 -0.36669745 246.55675125 -0.35352612 C248.04684712 -0.36997998 248.04684712 -0.36997998 249.56704593 -0.38676625 C256.48664181 -0.32265267 261.91450028 0.73142271 267.01858068 5.660092 C270.63141963 10.09999114 271.15222186 13.97673872 271.05986404 19.56636524 C271.06625287 20.38890685 271.07264169 21.21144845 271.07922411 22.05891556 C271.09442406 24.80139824 271.07404674 27.54242461 271.05363846 30.28485584 C271.05714113 32.25642849 271.06280136 34.22799831 271.07045364 36.19955921 C271.08468918 41.54460657 271.06765246 46.88913873 271.04416847 52.23413682 C271.02404824 57.83005621 271.0299396 63.42595446 271.03227615 69.02190113 C271.0322226 78.41774452 271.01247484 87.81338669 270.98039627 97.20917225 C270.94349359 108.07070849 270.93472241 118.93198126 270.94169378 129.79357201 C270.94799939 140.24539881 270.93724407 150.69713532 270.91772842 161.1489439 C270.90955555 165.59578139 270.90684467 170.04257271 270.90842056 174.48941708 C270.90929964 179.725363 270.89507687 184.96105863 270.86919403 190.19693851 C270.86203353 192.11819273 270.85994805 194.03947357 270.86331177 195.96073818 C270.86702812 198.58378362 270.85227378 201.20609926 270.83281326 203.82906055 C270.83814119 204.58888928 270.84346911 205.348718 270.84895849 206.13157183 C270.77948092 211.56136284 269.66104966 215.75321907 265.90324783 219.77875233 C260.96821657 223.55259977 258.33508523 224.27975213 252.24618912 224.25879383 C251.12185713 224.26090905 251.12185713 224.26090905 249.97481138 224.26306701 C247.44988033 224.26673235 244.92500502 224.26337818 242.40007401 224.26019764 C240.59510631 224.26159182 238.79013895 224.26349076 236.98517227 224.26585865 C233.09135233 224.270362 229.19754295 224.27221187 225.30372047 224.27232075 C219.14825506 224.27345895 212.99284993 224.28628152 206.83740616 224.30188465 C205.28056186 224.30574393 205.28056186 224.30574393 203.69226617 224.30968118 C201.56959084 224.31494793 199.44691556 224.32023341 197.32424033 224.3255372 C182.98915741 224.36067813 168.65414885 224.38719787 154.31901932 224.38470936 C144.65577927 224.38312202 134.99274401 224.39912783 125.32956964 224.43541598 C120.21359906 224.45389962 115.0979705 224.463198 109.98197365 224.45094013 C105.16949146 224.43952165 100.35762191 224.4511643 95.54522133 224.48057461 C93.77835575 224.48722715 92.0114343 224.48532795 90.24459076 224.47427654 C87.832848 224.46044237 85.42318432 224.47725304 83.01156998 224.50171375 C82.31156394 224.49035837 81.6115579 224.479003 80.89033955 224.46730351 C77.04842837 224.54312817 75.55137017 225.03891164 72.57195377 227.55264378 C71.51584668 228.83052454 71.51584668 228.83052454 70.43840408 230.13422108 C69.87411697 230.77367664 69.30982986 231.41313221 68.72844315 232.07196522 C68.22538651 232.68161121 67.72232986 233.29125721 67.20402908 233.91937733 C66.63394119 234.60975086 66.0638533 235.3001244 65.47649002 236.01141834 C64.88642166 236.73256824 64.2963533 237.45371815 63.68840408 238.19672108 C63.0751326 238.94171864 62.46186111 239.68671619 61.83000565 240.45428944 C57.39630374 245.87306448 53.17854577 251.40977455 49.11027908 257.10687733 C48.55856033 257.77590076 48.00684158 258.4449242 47.43840408 259.13422108 C46.77840408 259.13422108 46.11840408 259.13422108 45.43840408 259.13422108 C43.75377875 257.17035912 42.18331946 255.19603915 40.62590408 253.13422108 C39.64148466 251.85590783 38.65575126 250.57860565 37.66887283 249.30218983 C37.14728592 248.62591541 36.62569901 247.949641 36.08830643 247.25287342 C33.25298081 243.61200989 30.34790165 240.02840015 27.43840408 236.44672108 C26.61118851 235.42288319 26.61118851 235.42288319 25.76726151 234.3783617 C25.24623856 233.73705311 24.72521561 233.09574451 24.18840408 232.43500233 C23.50004471 231.58675892 23.50004471 231.58675892 22.79777908 230.72137928 C20.83536673 228.43013598 19.15524169 226.49263988 16.43840408 225.13422108 C14.76883729 225.0286466 13.09555522 224.97891498 11.42277908 224.95843983 C10.4185994 224.93459217 9.41441971 224.91074451 8.37981033 224.8861742 C6.26803061 224.84352504 4.15599152 224.81210233 2.04387283 224.7924242 C-4.12071658 224.62315387 -7.86986905 224.25564079 -12.56159592 220.13422108 C-17.25710468 214.93108975 -17.71039489 210.97570292 -17.70876694 204.18309498 C-17.71428197 202.95440912 -17.71428197 202.95440912 -17.71990842 201.70090133 C-17.73095247 198.94649055 -17.7347903 196.19211749 -17.73859787 193.43768787 C-17.7448619 191.46670887 -17.75150864 189.49573105 -17.75851059 187.52475452 C-17.77592408 182.16313416 -17.786473 176.80152272 -17.79471612 171.43988109 C-17.79986483 168.09146485 -17.80594057 164.74305139 -17.81222725 161.39463711 C-17.83127906 150.92201709 -17.84551104 140.44940412 -17.85383922 129.9767701 C-17.86361698 117.88051921 -17.8899507 105.78445104 -17.93034011 93.68826455 C-17.96047565 84.34296311 -17.9753056 74.99771413 -17.97862023 65.65236503 C-17.98097334 60.06858964 -17.989968 54.48500947 -18.01508141 48.90128613 C-18.0383227 43.64898771 -18.04261119 38.39701362 -18.03232002 33.14467716 C-18.03182362 31.21695281 -18.03817479 29.2892127 -18.05187607 27.36153698 C-18.06953776 24.72940042 -18.06251736 22.09843501 -18.04934311 19.4662981 C-18.06579698 18.3224623 -18.06579698 18.3224623 -18.08258325 17.15551871 C-18.02029919 12.00013501 -16.7885012 9.11710482 -13.56159592 5.13422108 C-9.14075774 1.04494576 -5.90873604 0.01337681 0 0 Z M3.43840408 25.13422108 C-0.19378108 30.1789227 -1.68134017 33.5182014 -1.71549606 39.70467091 C-1.72409653 40.86391071 -1.73269699 42.02315052 -1.74155807 43.21751881 C-1.74581802 44.49077518 -1.75007797 45.76403156 -1.75446701 47.07587147 C-1.76237035 48.42953164 -1.77063944 49.78318971 -1.77924728 51.13684559 C-1.80545039 55.58516909 -1.82077765 60.03350189 -1.83503342 64.48187733 C-1.84039464 66.01550712 -1.84577215 67.54913685 -1.85116577 69.08276653 C-1.87279595 75.46601674 -1.89152949 81.84926445 -1.90278816 88.23254204 C-1.91900557 97.36610775 -1.95212753 106.49924658 -2.00918901 115.63265139 C-2.04797743 122.06168966 -2.06743159 128.49061421 -2.07270873 134.91976637 C-2.07635134 138.75549949 -2.08825439 142.59077714 -2.12081146 146.42638302 C-2.15104808 150.0405391 -2.15714939 153.65396792 -2.1454277 157.26822376 C-2.14510429 159.21295993 -2.16946826 161.15765226 -2.19480515 163.1022234 C-2.13474384 171.61471338 -0.71657364 178.61649509 5.1939373 185.04302025 C11.20926378 190.72120684 17.54925622 192.58862483 25.69353104 192.50311756 C26.48803665 192.50688404 27.28254227 192.51065052 28.10112381 192.51453114 C29.81544507 192.52093492 31.52980187 192.52066067 33.24412346 192.51434612 C35.96546913 192.50518425 38.68613329 192.51551837 41.407444 192.53096485 C49.14065441 192.57091819 56.87380874 192.57227282 64.60710526 192.57001209 C69.34859138 192.56996076 74.08970964 192.58924175 78.83109474 192.61934566 C81.49775468 192.63009738 84.16369017 192.61808393 86.83032608 192.60551929 C105.47455863 192.64393851 105.47455863 192.64393851 112.26013565 198.78215504 C115.52375635 202.28943073 117.96701645 206.40029176 120.36027908 210.53265858 C121.35871638 212.29947562 121.35871638 212.29947562 123.43840408 213.13422108 C126.31146636 213.63517131 126.31146636 213.63517131 129.43840408 213.13422108 C132.75602438 210.5448589 134.80183653 207.63266701 136.93840408 204.07172108 C140.71583564 197.8500691 145.49228395 195.12778925 152.43840408 193.13422108 C155.2394516 192.75819299 157.98409236 192.74534787 160.80705643 192.78119373 C161.60170807 192.77903355 162.39635971 192.77687336 163.21509171 192.77464771 C164.92667948 192.77157922 166.63828963 192.77511152 168.34985352 192.78466129 C171.06708009 192.79850126 173.78358457 192.79190235 176.50081253 192.77982044 C184.22127051 192.7490021 191.94155578 192.75369474 199.6620369 192.77386951 C204.39824236 192.78483495 209.13390327 192.77149748 213.87003326 192.74397373 C215.66480678 192.73856317 217.45963579 192.7425198 219.25436401 192.7563715 C234.46423649 192.92524139 234.46423649 192.92524139 247.32765579 185.37875843 C254.6586442 177.7102148 254.8786886 169.86415277 254.84245682 159.70673084 C254.84816603 158.34923206 254.85513243 156.99173808 254.86325455 155.63425159 C254.88114034 151.96268874 254.8800263 148.29136547 254.87431216 144.6197722 C254.87121366 141.54829195 254.8773201 138.47685728 254.88335091 135.40538353 C254.89737947 128.15634716 254.89584879 120.9074287 254.88444901 113.658391 C254.87296908 106.19369129 254.88704492 98.72935093 254.91384548 91.26469857 C254.93603567 84.84237922 254.94263242 78.4201724 254.93676907 71.99781746 C254.93340623 68.16790338 254.93576946 64.33821961 254.9530201 60.50833797 C254.96854041 56.90565148 254.96447818 53.30349543 254.94571495 49.70082951 C254.94030007 47.75819277 254.95450441 45.81553193 254.96940994 43.87294483 C254.89737949 35.29995613 253.77150942 29.88396458 247.93840408 23.32172108 C240.97583241 17.22947086 235.95367319 15.83453949 226.81804276 15.84369373 C225.85480591 15.83697651 224.89156906 15.83025928 223.89914322 15.82333851 C220.71816712 15.80435743 217.53740203 15.80043415 214.35637283 15.79828358 C212.14065845 15.79185543 209.92494493 15.78512705 207.70923233 15.77811146 C203.0648184 15.76613819 198.42047885 15.76243066 193.77605057 15.76361561 C187.83434874 15.76381873 181.89312558 15.73652377 175.95153713 15.70207119 C171.37464598 15.67979682 166.7978699 15.67577825 162.2209301 15.67683506 C160.03094013 15.67447965 157.84094697 15.66565952 155.65101051 15.65017033 C152.58265245 15.63050131 149.51532485 15.63635258 146.44694901 15.64838123 C145.09926437 15.63152271 145.09926437 15.63152271 143.72435379 15.61432362 C138.41167028 15.66705512 134.79473699 16.51014799 130.22716618 19.27630138 C128.43840408 20.13422108 128.43840408 20.13422108 124.43840408 20.13422108 C122.64796829 19.27741718 122.64796829 19.27741718 120.81096268 18.16656971 C116.01335229 15.65924928 111.81274012 15.5683077 106.47746658 15.61664295 C105.51379166 15.60963367 104.55011673 15.6026244 103.55723953 15.59540272 C100.39232895 15.57789092 97.22832274 15.58942156 94.06340408 15.60297108 C91.85197657 15.60027421 89.64055021 15.59639018 87.42912674 15.5913744 C82.80254664 15.58548856 78.17627621 15.59401308 73.54973221 15.6127367 C67.63160424 15.63552534 61.71420199 15.6223974 55.79610062 15.59844685 C51.23205005 15.58396434 46.66817036 15.58860618 42.10411453 15.59895802 C39.92251371 15.6016185 37.74089718 15.5983795 35.55931473 15.5890398 C32.50557475 15.57883404 29.45299554 15.59443224 26.39934158 15.61664295 C25.5055983 15.60854603 24.61185501 15.6004491 23.69102859 15.59210682 C15.13463637 15.70688344 9.05058672 18.58667467 3.43840408 25.13422108 Z " fill="#00CD3E" transform="translate(209.56159591674805,31.865778923034668)"/>
<path d="M0 0 C21.81795782 -0.18682042 43.6357839 -0.3279251 65.45437908 -0.41449738 C75.5850109 -0.45576166 85.71514599 -0.51202575 95.84545898 -0.60351562 C104.67431633 -0.68321371 113.50281399 -0.7348562 122.33202106 -0.75270796 C127.00794516 -0.76314477 131.6828402 -0.78769672 136.35843468 -0.84584045 C140.75901291 -0.90012112 145.15813788 -0.91689776 149.55901909 -0.90486145 C151.17439421 -0.90706341 152.78981761 -0.92299294 154.40490341 -0.9536438 C166.65982496 -1.17481869 166.65982496 -1.17481869 170.00858498 1.76075745 C171.28333218 3.80392347 172.12268021 5.76646333 173 8 C178.64453878 13.49599829 184.63059443 15.37078376 192.35302734 15.40405273 C193.05160355 15.41091599 193.75017975 15.41777924 194.46992493 15.42485046 C196.75880784 15.44301807 199.04699858 15.43929511 201.3359375 15.43359375 C202.94105245 15.43816093 204.54616544 15.44346809 206.15127563 15.44947815 C209.50848352 15.45838995 212.86545329 15.45600893 216.22265625 15.44604492 C220.50523183 15.4345673 224.78698134 15.45475746 229.06944847 15.48396206 C232.38281395 15.50239257 235.69598405 15.50201789 239.00938797 15.49632454 C240.5872984 15.49617211 242.16522275 15.50215121 243.74308395 15.51461601 C253.906849 15.58359586 262.00187461 14.91898331 270.375 8.625 C273.51387012 5.76282918 273.51387012 5.76282918 276 0 C331.44 0 386.88 0 444 0 C440.11422606 17.48598274 431.15910414 31.96764859 416 42 C415.28678717 42.48718044 414.57357433 42.97436087 413.83874899 43.47630435 C405.89045881 48.40807591 399.01853156 48.85175586 389.84971619 48.75517273 C388.33766004 48.76138016 386.82561279 48.77020451 385.31358534 48.78139812 C381.18447712 48.80439018 377.05622427 48.79025623 372.92713439 48.76968896 C368.4641988 48.7540024 364.0013884 48.77300075 359.53846741 48.78749084 C350.80615053 48.81027899 342.07415439 48.80086336 333.34184401 48.77998998 C326.24357943 48.76368613 319.1454022 48.75951128 312.04712105 48.76395607 C311.03571645 48.76458675 310.02431186 48.76521742 308.98225864 48.76586721 C306.9274308 48.7672133 304.87260299 48.76859287 302.8177752 48.77000556 C283.56422738 48.78193341 264.31085515 48.75789874 245.05734731 48.72098748 C228.54557498 48.69009122 212.03400467 48.68772684 195.5222168 48.70678711 C176.33463298 48.72891075 157.14716233 48.73503329 137.95957285 48.71446449 C135.91273631 48.71230161 133.86589976 48.71015251 131.81906319 48.70801735 C130.81205081 48.70695098 129.80503844 48.70588462 128.76751054 48.70478594 C121.67924958 48.69832292 114.59104697 48.7030752 107.50279045 48.71204185 C98.86250851 48.72258907 90.2224633 48.71503928 81.58222502 48.68458607 C77.17583403 48.66948195 72.76981634 48.6622619 68.36341476 48.67677689 C64.32605008 48.68983634 60.28942339 48.67962914 56.25214369 48.65121815 C54.79538426 48.64496272 53.33855897 48.64703238 51.88183116 48.65848859 C37.58561856 48.76168018 29.77999235 44.43085732 19.75390625 34.75 C18.39072266 33.38875 18.39072266 33.38875 17 32 C16.32839844 31.34 15.65679687 30.68 14.96484375 30 C7.79157759 22.41823349 0 10.59171071 0 0 Z " fill="#00CC3E" transform="translate(34,432)"/>
<path d="M0 0 C0.9095343 -0.0087616 1.8190686 -0.01752319 2.75616455 -0.02655029 C5.75720176 -0.04852422 8.75676079 -0.0339985 11.7578125 -0.01708984 C13.84619428 -0.02045855 15.93457415 -0.02531162 18.02294922 -0.03158569 C22.39765101 -0.03895432 26.771842 -0.02825152 31.14648438 -0.00488281 C36.75239723 0.02360458 42.35711323 0.00720061 47.96298218 -0.02274513 C52.27474984 -0.04081815 56.58623402 -0.03505997 60.89801025 -0.02210617 C62.96486554 -0.01877219 65.03174661 -0.02285894 67.09857178 -0.03450394 C69.98828233 -0.04721243 72.87605845 -0.02783536 75.765625 0 C77.04533173 -0.01518173 77.04533173 -0.01518173 78.35089111 -0.03067017 C82.21257465 0.03819887 84.48726555 0.4296276 87.91716003 2.31428528 C91.13007563 7.76165883 90.5348852 13.44080016 90.45043945 19.61694336 C90.44902844 21.05608572 90.44982201 22.49523168 90.45265198 23.93437195 C90.45408549 27.83509423 90.4247072 31.7350464 90.38978219 35.63558984 C90.35850736 39.71414797 90.35558708 43.79272413 90.34965515 47.87138367 C90.33411996 55.59206814 90.29309609 63.31239825 90.2429077 71.03292674 C90.18700399 79.82363547 90.15952519 88.6143612 90.13443053 97.40520346 C90.08217978 115.48599403 89.99424399 133.56645484 89.8828125 151.64697266 C89.06296875 151.29763672 88.243125 150.94830078 87.3984375 150.58837891 C86.32078125 150.13333984 85.243125 149.67830078 84.1328125 149.20947266 C82.53179687 148.53078125 82.53179687 148.53078125 80.8984375 147.83837891 C75.7634042 145.80964166 71.36679626 145.50128202 65.87304688 145.50512695 C65.06934158 145.50165253 64.26563629 145.4981781 63.43757629 145.49459839 C61.69535511 145.48725662 59.95312467 145.48190284 58.21089172 145.47830772 C55.45379064 145.47113214 52.69686648 145.45545899 49.93981934 145.43696594 C42.10199347 145.38453597 34.26426717 145.33648894 26.42626953 145.32104492 C21.62986216 145.31097477 16.83390399 145.28168028 12.03767395 145.23972511 C10.21006158 145.22740164 8.38238583 145.22229631 6.55473328 145.22452354 C4.00019173 145.22687143 1.44694491 145.20475237 -1.10742188 145.17700195 C-1.86286789 145.18360336 -2.6183139 145.19020477 -3.39665222 145.19700623 C-6.89065629 145.13460474 -8.76478131 144.92277466 -11.55529785 142.73884583 C-14.04566982 139.40343586 -14.24745689 137.5148374 -14.27108765 133.39091492 C-14.27968811 132.2763089 -14.28828857 131.16170288 -14.29714966 130.01332092 C-14.30140961 128.78471848 -14.30566956 127.55611603 -14.31005859 126.2902832 C-14.31823608 125.00079773 -14.32641357 123.71131226 -14.33483887 122.38275146 C-14.36106259 118.09975272 -14.37636658 113.81674418 -14.390625 109.53369141 C-14.39598449 108.0596955 -14.401362 106.58569965 -14.40675735 105.11170387 C-14.42838637 98.98068813 -14.44712342 92.84967503 -14.45837975 86.71863079 C-14.47462142 77.92978146 -14.5078036 69.14137407 -14.56478059 60.35269135 C-14.60347068 54.17427997 -14.62301128 47.99598685 -14.62830031 41.8174575 C-14.63195506 38.12662093 -14.64398824 34.43625566 -14.67640305 30.74555016 C-14.71205366 26.62738097 -14.7081153 22.51016246 -14.70068359 18.3918457 C-14.71708893 17.16931595 -14.73349426 15.94678619 -14.75039673 14.68721008 C-14.6904666 6.59613507 -14.6904666 6.59613507 -12.15054321 2.39085388 C-7.99197236 0.00008461 -4.7248997 -0.05605359 0 0 Z " fill="#FDFEFE" transform="translate(238.1171875,63.35302734375)"/>
<path d="M0 0 C4.95 0 9.9 0 15 0 C15.33 17.16 15.66 34.32 16 52 C20.62 48.37 25.24 44.74 30 41 C33.53787946 42.76893973 36.03466557 44.51562303 39.0625 47 C41.66686965 49.13049187 44.19819406 51.13212937 47 53 C47 48.71 47 44.42 47 40 C49.29517578 39.97873047 49.29517578 39.97873047 51.63671875 39.95703125 C53.65367579 39.91012527 55.67060196 39.86187792 57.6875 39.8125 C58.69490234 39.80669922 59.70230469 39.80089844 60.74023438 39.79492188 C65.57027898 39.6514552 68.21176855 39.5702917 72.20703125 36.6796875 C74.34176816 34.02657582 74.34176816 34.02657582 74 30.3125 C73.30616669 26.74460887 73.30616669 26.74460887 70 25 C67.48497823 24.63303819 67.48497823 24.63303819 64.67578125 24.5859375 C63.74934814 24.55032715 62.82291504 24.5147168 61.8684082 24.47802734 C60.6949585 24.44402832 59.52150879 24.4100293 58.3125 24.375 C52.7128125 24.189375 52.7128125 24.189375 47 24 C47 16.08 47 8.16 47 0 C53.60305856 -0.114858 60.20264615 -0.21437866 66.8059082 -0.2746582 C69.05147044 -0.29978723 71.296951 -0.33389615 73.54223633 -0.37719727 C76.77185218 -0.43791776 80.00038584 -0.46622631 83.23046875 -0.48828125 C84.23272995 -0.51408768 85.23499115 -0.5398941 86.2676239 -0.56648254 C87.20822159 -0.5668602 88.14881927 -0.56723785 89.11791992 -0.56762695 C89.94176682 -0.57873001 90.76561371 -0.58983307 91.61442566 -0.60127258 C95.50007911 0.37808775 96.72252998 1.67500398 99 5 C99.73734257 9.23519657 99.6515441 13.42400034 99.59936523 17.71313477 C99.60330795 19.00466461 99.60725067 20.29619446 99.61131287 21.62686157 C99.62127699 25.16215194 99.60013642 28.6966389 99.57283282 32.23181272 C99.54897844 35.93349211 99.55194759 39.63515624 99.55152893 43.3368988 C99.54690298 49.55180438 99.52327466 55.7664033 99.48706055 61.98120117 C99.44530984 69.16524666 99.42774451 76.34901616 99.4244408 83.533176 C99.42084046 91.18465975 99.40196608 98.83604428 99.37732053 106.4874866 C99.37109412 108.69127426 99.36745644 110.89505436 99.36428642 113.09884834 C99.35728635 117.20477304 99.33289336 121.31041467 99.30639648 125.41625977 C99.30573181 126.63767166 99.30506714 127.85908356 99.30438232 129.11750793 C99.2944072 130.23486328 99.28443207 131.35221863 99.27415466 132.50343323 C99.26950416 133.4740397 99.26485365 134.44464617 99.26006222 135.44466496 C98.98821365 138.115811 98.41620086 139.73615385 97 142 C93.44355783 144.70032714 89.29465838 144.27182411 85.02539062 144.23950195 C83.82447784 144.24252319 83.82447784 144.24252319 82.5993042 144.24560547 C80.86200811 144.24914788 79.12469912 144.24838769 77.3874054 144.24382973 C74.62803394 144.23822393 71.86908097 144.24741845 69.10974121 144.2610321 C61.2645491 144.29808998 53.41949599 144.31675984 45.57421875 144.30541992 C40.77126496 144.29953066 35.96889596 144.31801938 31.1660614 144.35130882 C29.34504329 144.35920864 27.52396051 144.35806024 25.70295715 144.34728432 C14.90329634 144.28617204 6.83922827 145.0696422 -3 150 C-3.66 150 -4.32 150 -5 150 C-5.11678906 131.18077249 -5.20496642 112.36161849 -5.25906086 93.54210377 C-5.28484522 84.80390625 -5.32000001 76.06593387 -5.37719727 67.32788086 C-5.42702534 59.71199271 -5.45928933 52.0962676 -5.47044247 44.48022097 C-5.47696233 40.44729505 -5.49229 36.41483556 -5.52865028 32.3820591 C-5.56260078 28.58578166 -5.57305517 24.79016255 -5.56553841 20.99374771 C-5.56691341 19.60094944 -5.57685246 18.20812906 -5.59602737 16.81546211 C-5.62094225 14.91248147 -5.61193396 13.00914719 -5.60127258 11.10603333 C-5.60588155 10.04136243 -5.61049051 8.97669153 -5.61523914 7.87975788 C-5 5 -5 5 0 0 Z " fill="#FDFEFD" transform="translate(349,64)"/>
<path d="M0 0 C0.90451401 -0.01591187 1.80902802 -0.03182373 2.74095154 -0.04821777 C3.71081497 -0.04841919 4.68067841 -0.04862061 5.67993164 -0.04882812 C7.1851815 -0.06024841 7.1851815 -0.06024841 8.72084045 -0.07189941 C10.84153761 -0.08269706 12.96228794 -0.08555489 15.08300781 -0.08105469 C18.32520347 -0.08008259 21.56503092 -0.12170446 24.80688477 -0.16601562 C26.86872879 -0.17122288 28.93058104 -0.17391081 30.99243164 -0.17382812 C31.96027084 -0.19022339 32.92811005 -0.20661865 33.92527771 -0.22351074 C38.55316489 -0.17606551 40.72701105 -0.07758985 44.54541016 2.734375 C46.40258789 5.41992188 46.40258789 5.41992188 46.52758789 8.98242188 C45.1471473 13.20043478 44.20154947 14.16027822 40.40258789 16.41992188 C37.01768376 17.02513598 33.67851248 17.02811996 30.24633789 17.02148438 C29.26644897 17.03005463 28.28656006 17.03862488 27.27697754 17.04745483 C25.20934129 17.05891883 23.14162439 17.05995849 21.07397461 17.05126953 C17.91258278 17.04494188 14.75492415 17.09190485 11.59399414 17.14257812 C9.5822801 17.14712381 7.57055602 17.14853124 5.55883789 17.14648438 C4.61600952 17.16490387 3.67318115 17.18332336 2.70178223 17.20230103 C-3.63793365 17.11300214 -3.63793365 17.11300214 -6.3347168 15.16497803 C-8.92292644 12.26763876 -9.59367268 10.64054843 -9.65991211 6.73242188 C-8.01140704 1.5929649 -5.28418762 0.05608594 0 0 Z " fill="#04CE42" transform="translate(377.597412109375,167.580078125)"/>
<path d="M0 0 C0.90451401 -0.01591187 1.80902802 -0.03182373 2.74095154 -0.04821777 C3.71081497 -0.04841919 4.68067841 -0.04862061 5.67993164 -0.04882812 C7.1851815 -0.06024841 7.1851815 -0.06024841 8.72084045 -0.07189941 C10.84153761 -0.08269706 12.96228794 -0.08555489 15.08300781 -0.08105469 C18.32520347 -0.08008259 21.56503092 -0.12170446 24.80688477 -0.16601562 C26.86872879 -0.17122288 28.93058104 -0.17391081 30.99243164 -0.17382812 C31.96027084 -0.19022339 32.92811005 -0.20661865 33.92527771 -0.22351074 C38.55316489 -0.17606551 40.72701105 -0.07758985 44.54541016 2.734375 C46.40258789 5.41992188 46.40258789 5.41992188 46.52758789 8.98242188 C45.1471473 13.20043478 44.20154947 14.16027822 40.40258789 16.41992188 C37.01768376 17.02513598 33.67851248 17.02811996 30.24633789 17.02148438 C29.26644897 17.03005463 28.28656006 17.03862488 27.27697754 17.04745483 C25.20934129 17.05891883 23.14162439 17.05995849 21.07397461 17.05126953 C17.91258278 17.04494188 14.75492415 17.09190485 11.59399414 17.14257812 C9.5822801 17.14712381 7.57055602 17.14853124 5.55883789 17.14648438 C4.61600952 17.16490387 3.67318115 17.18332336 2.70178223 17.20230103 C-3.63793365 17.11300214 -3.63793365 17.11300214 -6.3347168 15.16497803 C-8.92292644 12.26763876 -9.59367268 10.64054843 -9.65991211 6.73242188 C-8.01140704 1.5929649 -5.28418762 0.05608594 0 0 Z " fill="#04CE42" transform="translate(257.597412109375,167.580078125)"/>
<path d="M0 0 C0.90451401 -0.01591187 1.80902802 -0.03182373 2.74095154 -0.04821777 C3.71081497 -0.04841919 4.68067841 -0.04862061 5.67993164 -0.04882812 C7.1851815 -0.06024841 7.1851815 -0.06024841 8.72084045 -0.07189941 C10.84153761 -0.08269706 12.96228794 -0.08555489 15.08300781 -0.08105469 C18.32520347 -0.08008259 21.56503092 -0.12170446 24.80688477 -0.16601562 C26.86872879 -0.17122288 28.93058104 -0.17391081 30.99243164 -0.17382812 C31.96027084 -0.19022339 32.92811005 -0.20661865 33.92527771 -0.22351074 C38.55316489 -0.17606551 40.72701105 -0.07758985 44.54541016 2.734375 C46.40258789 5.41992188 46.40258789 5.41992188 46.52758789 8.98242188 C45.1471473 13.20043478 44.20154947 14.16027822 40.40258789 16.41992188 C37.01768376 17.02513598 33.67851248 17.02811996 30.24633789 17.02148438 C29.26644897 17.03005463 28.28656006 17.03862488 27.27697754 17.04745483 C25.20934129 17.05891883 23.14162439 17.05995849 21.07397461 17.05126953 C17.91258278 17.04494188 14.75492415 17.09190485 11.59399414 17.14257812 C9.5822801 17.14712381 7.57055602 17.14853124 5.55883789 17.14648438 C4.61600952 17.16490387 3.67318115 17.18332336 2.70178223 17.20230103 C-3.63793365 17.11300214 -3.63793365 17.11300214 -6.3347168 15.16497803 C-8.92292644 12.26763876 -9.59367268 10.64054843 -9.65991211 6.73242188 C-8.01140704 1.5929649 -5.28418762 0.05608594 0 0 Z " fill="#04CE42" transform="translate(377.597412109375,127.580078125)"/>
<path d="M0 0 C0.90451401 -0.01591187 1.80902802 -0.03182373 2.74095154 -0.04821777 C3.71081497 -0.04841919 4.68067841 -0.04862061 5.67993164 -0.04882812 C7.1851815 -0.06024841 7.1851815 -0.06024841 8.72084045 -0.07189941 C10.84153761 -0.08269706 12.96228794 -0.08555489 15.08300781 -0.08105469 C18.32520347 -0.08008259 21.56503092 -0.12170446 24.80688477 -0.16601562 C26.86872879 -0.17122288 28.93058104 -0.17391081 30.99243164 -0.17382812 C31.96027084 -0.19022339 32.92811005 -0.20661865 33.92527771 -0.22351074 C38.55316489 -0.17606551 40.72701105 -0.07758985 44.54541016 2.734375 C46.40258789 5.41992188 46.40258789 5.41992188 46.52758789 8.98242188 C45.1471473 13.20043478 44.20154947 14.16027822 40.40258789 16.41992188 C37.01768376 17.02513598 33.67851248 17.02811996 30.24633789 17.02148438 C29.26644897 17.03005463 28.28656006 17.03862488 27.27697754 17.04745483 C25.20934129 17.05891883 23.14162439 17.05995849 21.07397461 17.05126953 C17.91258278 17.04494188 14.75492415 17.09190485 11.59399414 17.14257812 C9.5822801 17.14712381 7.57055602 17.14853124 5.55883789 17.14648438 C4.61600952 17.16490387 3.67318115 17.18332336 2.70178223 17.20230103 C-3.63793365 17.11300214 -3.63793365 17.11300214 -6.3347168 15.16497803 C-8.92292644 12.26763876 -9.59367268 10.64054843 -9.65991211 6.73242188 C-8.01140704 1.5929649 -5.28418762 0.05608594 0 0 Z " fill="#04CE42" transform="translate(257.597412109375,127.580078125)"/>
<path d="M0 0 C0.90451401 -0.01591187 1.80902802 -0.03182373 2.74095154 -0.04821777 C3.71081497 -0.04841919 4.68067841 -0.04862061 5.67993164 -0.04882812 C7.1851815 -0.06024841 7.1851815 -0.06024841 8.72084045 -0.07189941 C10.84153761 -0.08269706 12.96228794 -0.08555489 15.08300781 -0.08105469 C18.32520347 -0.08008259 21.56503092 -0.12170446 24.80688477 -0.16601562 C26.86872879 -0.17122288 28.93058104 -0.17391081 30.99243164 -0.17382812 C31.96027084 -0.19022339 32.92811005 -0.20661865 33.92527771 -0.22351074 C38.55316489 -0.17606551 40.72701105 -0.07758985 44.54541016 2.734375 C46.40258789 5.41992188 46.40258789 5.41992188 46.52758789 8.98242188 C45.1471473 13.20043478 44.20154947 14.16027822 40.40258789 16.41992188 C37.01768376 17.02513598 33.67851248 17.02811996 30.24633789 17.02148438 C29.26644897 17.03005463 28.28656006 17.03862488 27.27697754 17.04745483 C25.20934129 17.05891883 23.14162439 17.05995849 21.07397461 17.05126953 C17.91258278 17.04494188 14.75492415 17.09190485 11.59399414 17.14257812 C9.5822801 17.14712381 7.57055602 17.14853124 5.55883789 17.14648438 C4.61600952 17.16490387 3.67318115 17.18332336 2.70178223 17.20230103 C-3.63793365 17.11300214 -3.63793365 17.11300214 -6.3347168 15.16497803 C-8.92292644 12.26763876 -9.59367268 10.64054843 -9.65991211 6.73242188 C-8.01140704 1.5929649 -5.28418762 0.05608594 0 0 Z " fill="#04CE42" transform="translate(257.597412109375,87.580078125)"/>
<path d="M0 0 C3.73037847 -0.1350499 7.45586412 -0.23415132 11.1875 -0.3125 C12.24259766 -0.35439453 13.29769531 -0.39628906 14.38476562 -0.43945312 C22.20836722 -0.56285378 22.20836722 -0.56285378 26.23046875 2.296875 C28 5 28 5 28.125 8.5625 C26.73242934 12.81757701 25.87789593 13.77371105 22 16 C18.21602252 16.48496233 14.49430892 16.37665007 10.6875 16.25 C9.14739258 16.22292969 9.14739258 16.22292969 7.57617188 16.1953125 C5.05037929 16.14832101 2.52506863 16.07658169 0 16 C0 10.72 0 5.44 0 0 Z " fill="#04CE42" transform="translate(396,88)"/>
</svg>
