<?xml version="1.0" encoding="UTF-8"?>
<svg version="1.1" xmlns="http://www.w3.org/2000/svg" width="512" height="512">
<path d="M0 0 C1.01201477 0.00054382 2.02402954 0.00108765 3.06671143 0.00164795 C19.60117395 0.0423949 35.52064864 0.96613093 51.75 4.375 C52.76529785 4.58398926 53.7805957 4.79297852 54.82666016 5.00830078 C102.26191172 15.08725364 144.95477718 38.83328266 179.75 72.375 C180.30606934 72.90915527 180.86213867 73.44331055 181.43505859 73.99365234 C188.74462845 81.05152969 195.57207844 88.28915648 201.75 96.375 C202.26675293 97.04241211 202.78350586 97.70982422 203.31591797 98.39746094 C238.3182428 143.79562604 257.24118295 198.26465817 257.125 255.625 C257.12418427 257.14302216 257.12418427 257.14302216 257.12335205 258.69171143 C257.08261077 275.22387291 256.16682284 291.148992 252.75 307.375 C252.42854004 308.921875 252.42854004 308.921875 252.10058594 310.5 C243.25820574 351.68721488 224.27326528 390.46839988 196.75 422.375 C196.11578125 423.12007813 195.4815625 423.86515625 194.828125 424.6328125 C183.01698485 438.13779833 170.26639772 450.80918743 155.75 461.375 C154.60005169 462.23149066 153.45031411 463.08826433 152.30078125 463.9453125 C144.11065742 469.98534209 135.60620382 475.36867614 126.75 480.375 C126.04278809 480.7771875 125.33557617 481.179375 124.60693359 481.59375 C98.40402993 496.34620951 69.4637648 505.88095735 39.75 510.375 C38.62827393 510.55160156 37.50654785 510.72820312 36.35083008 510.91015625 C24.71674533 512.57079155 13.17687065 512.77373309 1.4375 512.75 C0.42354156 512.74945618 -0.59041687 512.74891235 -1.63510132 512.74835205 C-17.84432821 512.70845968 -33.35641944 511.79183573 -49.25 508.375 C-50.30864258 508.15537598 -51.36728516 507.93575195 -52.45800781 507.70947266 C-99.19538919 497.84393338 -141.82474624 475.53143726 -176.25 442.375 C-176.90935547 441.74287598 -177.56871094 441.11075195 -178.24804688 440.45947266 C-187.73630305 431.31502521 -196.4762044 422.01765991 -204.25 411.375 C-205.10806152 410.22394983 -205.96613451 409.07290823 -206.82421875 407.921875 C-212.86054543 399.73242703 -218.22087134 391.2145633 -223.25 382.375 C-223.59272949 381.77606934 -223.93545898 381.17713867 -224.28857422 380.56005859 C-236.74107873 358.60573877 -245.28863947 334.56108738 -250.625 309.9375 C-250.8636377 308.83801025 -251.10227539 307.73852051 -251.34814453 306.60571289 C-254.76635951 289.95581758 -255.62705986 273.70455979 -255.5625 256.75 C-255.56034485 255.73209381 -255.5581897 254.71418762 -255.55596924 253.66543579 C-255.50629854 239.05636477 -255.25540191 224.72424147 -252.25 210.375 C-252.05132324 209.40014648 -251.85264648 208.42529297 -251.64794922 207.42089844 C-241.28913481 157.90033399 -218.3380545 113.77434897 -183.25 77.375 C-182.71584473 76.81893066 -182.18168945 76.26286133 -181.63134766 75.68994141 C-174.57347031 68.38037155 -167.33584352 61.55292156 -159.25 55.375 C-158.58258789 54.85824707 -157.91517578 54.34149414 -157.22753906 53.80908203 C-141.01556322 41.30952741 -123.80469845 31.00787354 -105.25 22.375 C-104.55567871 22.04935059 -103.86135742 21.72370117 -103.14599609 21.38818359 C-82.64489661 11.90729182 -60.57693133 5.68050474 -38.25 2.375 C-37.13189941 2.19984863 -36.01379883 2.02469727 -34.86181641 1.84423828 C-23.24356028 0.18575552 -11.72359297 -0.02374605 0 0 Z " fill="#FEC94F" transform="translate(255.25,-0.375)"/>
<path d="M0 0 C3.0940533 3.64656282 3.54257146 7.33422887 4 12 C4.72703125 12.26039063 5.4540625 12.52078125 6.203125 12.7890625 C9.07548834 14.0326835 11.24926053 15.50353157 13.75 17.375 C27.08061674 26.81017954 43.8360046 30.16565437 60.02148438 27.69091797 C69.78344757 25.87619404 81.17337785 23.04056817 88.203125 15.69921875 C90.74537091 11.88032326 91.67605191 7.93588141 92.875 3.546875 C94 1 94 1 95.6963501 0.23812866 C98.80980847 -0.08371003 101.00496708 0.68272578 103.98339844 1.64306641 C105.79744171 2.21959457 105.79744171 2.21959457 107.64813232 2.80776978 C108.96860858 3.23884406 110.28902112 3.67011353 111.609375 4.1015625 C112.97751009 4.54033464 114.34594423 4.97817527 115.71466064 5.41513062 C119.32821812 6.57141291 122.93770598 7.73992091 126.54644775 8.91113281 C130.16023036 10.08186104 133.77744709 11.24186443 137.39453125 12.40234375 C141.49234612 13.71752331 145.58984201 15.03359914 149.68450928 16.35855103 C150.93169739 16.7618161 152.1788855 17.16508118 153.46386719 17.58056641 C154.68988647 17.97818176 155.91590576 18.37579712 157.17907715 18.78546143 C159.86355535 19.64782344 162.55712795 20.47172677 165.25939941 21.27655029 C165.96988056 21.49067251 166.68036171 21.70479473 167.41237259 21.9254055 C168.7625958 22.33089034 170.11486718 22.72964892 171.4695549 23.11995888 C179.86120728 25.65295899 185.56063542 29.40260348 190 37 C197.21487067 51.55543595 198.31992383 69.55547112 200.75 85.4375 C200.86286346 86.1709967 200.97572693 86.90449341 201.0920105 87.66021729 C201.41500663 89.77149895 201.73209598 91.88357289 202.046875 93.99609375 C202.23088867 95.22513428 202.41490234 96.4541748 202.60449219 97.72045898 C202.94657706 100.55701828 203.25250447 103.15530543 203 106 C173.68527084 136.36732267 122.48303837 152.87716426 82 159 C80.31741089 159.26490234 80.31741089 159.26490234 78.60083008 159.53515625 C66.96674533 161.19579155 55.42687065 161.39873309 43.6875 161.375 C42.67354156 161.37445618 41.65958313 161.37391235 40.61489868 161.37335205 C24.40567179 161.33345968 8.89358056 160.41683573 -7 157 C-8.05864258 156.78037598 -9.11728516 156.56075195 -10.20800781 156.33447266 C-45.81974056 148.81738596 -78.43729583 134.19096494 -108 113 C-108.99 112.34 -109.98 111.68 -111 111 C-112.16228847 105.01316193 -110.52638995 98.61948037 -109.171875 92.78515625 C-108.98159729 91.93054306 -108.79131958 91.07592987 -108.59527588 90.19541931 C-107.98909609 87.48235259 -107.36987777 84.77246602 -106.75 82.0625 C-106.34938031 80.28079662 -105.94963446 78.49889653 -105.55078125 76.71679688 C-104.76201543 73.19601728 -103.96419763 69.677455 -103.16113281 66.15991211 C-102.38448034 62.74221416 -101.64056988 59.31987063 -100.92480469 55.88891602 C-100.75273499 55.07647934 -100.58066528 54.26404266 -100.40338135 53.42698669 C-100.08344261 51.91030227 -99.77049337 50.39211781 -99.46624756 48.87220764 C-98.04886202 42.21399834 -95.31765819 37.19918006 -91 32 C-90.2265625 31.00613281 -90.2265625 31.00613281 -89.4375 29.9921875 C-85.39768411 25.67182884 -80.64832028 24.0569241 -75.1015625 22.41796875 C-73.39012688 21.89493769 -71.67922614 21.37015452 -69.96875 20.84399414 C-69.02241699 20.55396515 -68.07608398 20.26393616 -67.10107422 19.96511841 C-61.83198269 18.32526819 -56.58961412 16.60372016 -51.34466553 14.88850212 C-48.09825044 13.82796286 -44.84979326 12.7737123 -41.6015625 11.71875 C-37.58005415 10.41255473 -33.55925358 9.10431222 -29.54101562 7.78808594 C-26.23382238 6.70496133 -22.9243799 5.62898597 -19.61329269 4.557827 C-17.76541716 3.95792641 -15.91998462 3.35051726 -14.07461548 2.74295044 C-12.95509491 2.3819223 -11.83557434 2.02089417 -10.68212891 1.64892578 C-9.70241119 1.32949005 -8.72269348 1.01005432 -7.71328735 0.68093872 C-4.98259997 -0.00436679 -2.79943356 -0.28806496 0 0 Z " fill="#0F7885" transform="translate(213,351)"/>
<path d="M0 0 C3.84777742 1.28259247 7.31430812 2.50650369 10.9609375 4.1640625 C12.28544922 4.76347656 12.28544922 4.76347656 13.63671875 5.375 C14.54035156 5.7875 15.44398438 6.2 16.375 6.625 C17.30183594 7.04523438 18.22867188 7.46546875 19.18359375 7.8984375 C21.45694599 8.92964882 23.72902406 9.96356863 26 11 C26.0501123 11.98693848 26.10022461 12.97387695 26.15185547 13.99072266 C26.34304349 17.72235736 26.54268585 21.45350349 26.74462891 25.18457031 C26.83019766 26.78634048 26.91360257 28.38822801 26.99462891 29.99023438 C27.5078423 40.10243894 28.35285356 49.99788006 30 60 C30.7938208 60.28665527 31.5876416 60.57331055 32.40551758 60.86865234 C37.02799039 62.88432366 38.20714878 67.52441521 40 72 C41.33818343 76.05593741 42 79.69556252 42 84 C43.32 84 44.64 84 46 84 C45.97679687 83.25234375 45.95359375 82.5046875 45.9296875 81.734375 C45.91164062 80.74953125 45.89359375 79.7646875 45.875 78.75 C45.85179687 77.77546875 45.82859375 76.8009375 45.8046875 75.796875 C46.00585862 72.91610457 46.67557127 71.50622667 48 69 C49.08539844 62.03325651 47.33360094 56.20830674 44.77734375 49.76171875 C43.92239227 46.72427806 44.13189267 44.99742719 45 42 C48.57179036 41.02587536 51.2382907 41.18781953 54.85620117 41.74438477 C82.81033735 45.07748812 116.95839685 39.79861197 140.375 23.4375 C145.9208374 19.80571267 151.72928935 20.72315846 158 22 C159 23 159 23 159.1328125 25.29296875 C159.12894531 26.72576172 159.12894531 26.72576172 159.125 28.1875 C159.12757813 29.12980469 159.13015625 30.07210937 159.1328125 31.04296875 C159 34 159 34 158.5078125 36.67578125 C157.77826501 41.45151134 157.77559385 46.17555841 157.75 51 C157.729375 51.97195312 157.70875 52.94390625 157.6875 53.9453125 C157.65793809 59.36992224 157.85124978 63.35330065 161 68 C161.66 68.33 162.32 68.66 163 69 C163.4140625 72.16015625 163.4140625 72.16015625 163.625 76.0625 C163.73714844 77.99802734 163.73714844 77.99802734 163.8515625 79.97265625 C163.90054687 80.97167969 163.94953125 81.97070312 164 83 C165.32 83 166.64 83 168 83 C168.03738281 82.14277344 168.07476562 81.28554687 168.11328125 80.40234375 C168.93779904 66.06220096 168.93779904 66.06220096 174 61 C177.4375 60.625 177.4375 60.625 181 61 C183.26836221 63.21086915 183.94333417 64.63703236 184.43359375 67.77734375 C184.44860803 79.92389839 181.52885453 91.25013339 174 101 C171.08902862 103.65626139 168.83074932 104.32124306 165 105 C164.764021 105.75506836 164.52804199 106.51013672 164.28491211 107.28808594 C163.18405843 110.78030216 162.06093467 114.26498548 160.9375 117.75 C160.56689453 118.93722656 160.19628906 120.12445313 159.81445312 121.34765625 C156.12429349 132.69722287 150.73786208 142.40269597 143.1875 151.625 C142.71119141 152.22183594 142.23488281 152.81867188 141.74414062 153.43359375 C139.90921777 155.72015022 138.07438567 157.92561433 136 160 C135.54087897 163.32862749 135.82476062 166.65292783 136 170 C136.01546875 171.60101563 136.01546875 171.60101563 136.03125 173.234375 C136.3836726 178.59623317 136.85448281 181.8296163 140.69921875 185.7578125 C143.64408484 188.08788117 146.77995097 190.06973741 150 192 C150.99 192.66 151.98 193.32 153 194 C152.34 194.33 151.68 194.66 151 195 C150.21802744 197.21119582 149.49911744 199.44486215 148.8125 201.6875 C146.71656503 207.84093031 144.87244697 211.90201462 139 215 C121.11297135 223.38390877 103.28518819 225.76525626 84 220 C76.55936229 217.1160319 69.64918618 213.20172964 63.453125 208.1640625 C61.98669335 206.90577592 61.98669335 206.90577592 60 206 C59.18359375 203.75 59.18359375 203.75 58.4375 201 C57.73509107 197.71746634 57.73509107 197.71746634 56 195 C49.13449116 195.42681139 43.07342068 197.44801686 36.59765625 199.66796875 C34.38636048 200.4038751 32.17476241 201.13887362 29.96289062 201.87304688 C26.50573184 203.02887383 23.05129217 204.19132924 19.60180664 205.36987305 C16.25264361 206.51027248 12.89508 207.62224301 9.53515625 208.73046875 C8.00194481 209.26621773 8.00194481 209.26621773 6.4377594 209.81278992 C-0.09539608 211.93962593 -4.49473879 212.23311585 -11 210 C-11.98266846 209.71302246 -12.96533691 209.42604492 -13.9777832 209.13037109 C-14.82687256 208.84758301 -15.67596191 208.56479492 -16.55078125 208.2734375 C-17.49630859 207.9640625 -18.44183594 207.6546875 -19.41601562 207.3359375 C-21.36693516 206.68870054 -23.31744865 206.04023852 -25.26757812 205.390625 C-26.20666016 205.08382812 -27.14574219 204.77703125 -28.11328125 204.4609375 C-28.95673096 204.18040527 -29.80018066 203.89987305 -30.66918945 203.61083984 C-33.24330116 202.8309929 -33.24330116 202.8309929 -37 203 C-39.39193528 209.91170418 -41.78293557 216.82373109 -44.17281628 223.73614597 C-45.28314681 226.94754065 -46.39377204 230.15883271 -47.50512695 233.36987305 C-54.35854573 253.14902452 -54.35854573 253.14902452 -61 273 C-63 272 -63 272 -63.979599 269.66247559 C-64.32140701 268.62594849 -64.66321503 267.58942139 -65.01538086 266.52148438 C-65.40596176 265.34936401 -65.79654266 264.17724365 -66.19895935 262.96960449 C-66.6210725 261.67770255 -67.04302998 260.38574973 -67.46484375 259.09375 C-67.90254722 257.77130773 -68.34091647 256.44908564 -68.77992249 255.1270752 C-69.9378107 251.63428193 -71.08667731 248.1385848 -72.23370361 244.64221191 C-73.39203418 241.11649115 -74.55861174 237.5935035 -75.72460938 234.0703125 C-77.81376612 227.75436734 -79.89718479 221.43658173 -81.96920776 215.11499023 C-82.61867357 213.15234482 -83.27819843 211.19297215 -83.95193481 209.23852539 C-84.22762299 208.43858154 -84.50331116 207.6386377 -84.78735352 206.81445312 C-85.02430435 206.13999146 -85.26125519 205.46552979 -85.50538635 204.77062988 C-86 203 -86 203 -86 200 C-85.030625 199.525625 -84.06125 199.05125 -83.0625 198.5625 C-79.58652303 195.65402948 -79.30226321 194.76974564 -78.625 190.4375 C-78.37055441 183.87757451 -80.79387989 180.71594395 -84.85546875 175.80078125 C-89.52292385 169.70503387 -91.94131755 162.54450543 -93 155 C-93.7425 154.95875 -94.485 154.9175 -95.25 154.875 C-99.18891005 153.62171044 -100.04966611 151.56440331 -102 148 C-104.10238682 143.16451031 -104.34616246 139.19243696 -104 134 C-102 132 -102 132 -99.5625 131.9375 C-97 133 -97 133 -95.1875 136.25 C-94.16080261 139.49220227 -93.69638999 141.66028985 -94 145 C-93.01 145 -92.02 145 -91 145 C-90.94571027 142.77110504 -90.90707662 140.54182529 -90.875 138.3125 C-90.85179688 137.07113281 -90.82859375 135.82976562 -90.8046875 134.55078125 C-90.99222715 131.14131034 -91.74068821 129.10594968 -93 126 C-92.55810547 123.85668945 -92.55810547 123.85668945 -92 122 C-91.39752441 122.02618408 -90.79504883 122.05236816 -90.17431641 122.0793457 C-73.56594032 122.701884 -57.82211124 121.93713823 -43.3359375 112.91796875 C-39.84300759 111.54532907 -36.73726963 111.86288843 -33 112 C-33.01047363 112.62044189 -33.02094727 113.24088379 -33.03173828 113.88012695 C-33.07330886 116.69087677 -33.09932933 119.5015619 -33.125 122.3125 C-33.15013672 123.77719727 -33.15013672 123.77719727 -33.17578125 125.27148438 C-33.18222656 126.20927734 -33.18867187 127.14707031 -33.1953125 128.11328125 C-33.20578613 128.97735596 -33.21625977 129.84143066 -33.22705078 130.73168945 C-33.15090168 133.28180721 -33.15090168 133.28180721 -31 136 C-30.835 137.19625 -30.67 138.3925 -30.5 139.625 C-30.335 140.73875 -30.17 141.8525 -30 143 C-29.34 143.33 -28.68 143.66 -28 144 C-28.061875 142.948125 -28.12375 141.89625 -28.1875 140.8125 C-27.99172455 136.83173257 -27.50001325 135.05557175 -25 132 C-24.01 132 -23.02 132 -22 132 C-21.67 124.08 -21.34 116.16 -21 108 C-17.06799212 106.1654032 -13.13555042 104.33180443 -9.2019043 102.50073242 C-7.86406683 101.87761894 -6.52649939 101.25392537 -5.18920898 100.62963867 C-3.26617113 99.73203058 -1.34216956 98.83651808 0.58203125 97.94140625 C1.73936768 97.40201416 2.8967041 96.86262207 4.08911133 96.30688477 C7 95 7 95 10 94 C9.67 93.67 9.34 93.34 9 93 C8.16533629 88.77933705 7.61019922 84.50815333 7 80.25 C6.81920898 78.99348633 6.63841797 77.73697266 6.45214844 76.44238281 C4.96256717 65.63125983 4.23601458 54.90387371 4 44 C2.68 43.34 1.36 42.68 0 42 C0 28.14 0 14.28 0 0 Z " fill="#FDD097" transform="translate(157,157)"/>
<path d="M0 0 C0.80229034 0.37683426 1.60458069 0.75366852 2.43118286 1.141922 C4.1577699 1.95377813 5.88244887 2.76970235 7.6053772 3.58929443 C12.21088198 5.77944209 16.83071994 7.93898658 21.44921875 10.1015625 C22.38770157 10.54187805 23.32618439 10.9821936 24.29310608 11.43585205 C33.28247981 15.64410031 42.34276527 19.68247023 51.42578125 23.68359375 C63.04651139 28.81153551 74.61031285 34.03567803 86.11401367 39.42260742 C92.5928683 42.45338244 99.08880761 45.4391108 105.609375 48.37890625 C106.37007797 48.72233566 107.13078094 49.06576508 107.91453552 49.41960144 C111.65042124 51.10573423 115.38836586 52.78703678 119.12963867 54.46118164 C120.48104215 55.07028645 121.83236468 55.67957088 123.18359375 56.2890625 C124.37742676 56.82426514 125.57125977 57.35946777 126.80126953 57.91088867 C129.61328125 59.30859375 129.61328125 59.30859375 131.61328125 61.30859375 C126.14116728 63.85121174 120.66830721 66.39221519 115.19482422 68.93188477 C113.34274292 69.7914945 111.49084722 70.65150426 109.63916016 71.51196289 C96.67164772 77.53737854 83.66593357 83.46985321 70.61328125 89.30859375 C70.59346191 90.20989014 70.57364258 91.11118652 70.55322266 92.03979492 C70.47418035 95.44887666 70.38746922 98.85759761 70.29589844 102.26635742 C70.25809032 103.72949966 70.22316288 105.19271977 70.19140625 106.65600586 C69.7353509 127.42790188 69.7353509 127.42790188 67.61328125 134.30859375 C64.17578125 136.18359375 64.17578125 136.18359375 60.61328125 137.30859375 C57.48597858 142.31227802 57.16175327 147.12663626 56.82421875 152.953125 C56.61328125 155.30859375 56.61328125 155.30859375 55.61328125 157.30859375 C54.29328125 157.30859375 52.97328125 157.30859375 51.61328125 157.30859375 C50.67708312 154.15353233 50.50756895 151.34272873 50.55078125 148.05859375 C50.55980469 147.1665625 50.56882812 146.27453125 50.578125 145.35546875 C50.59552734 144.34226563 50.59552734 144.34226563 50.61328125 143.30859375 C49.68515625 142.96828125 49.68515625 142.96828125 48.73828125 142.62109375 C45.92500815 140.88348389 45.61662783 139.42255252 44.61328125 136.30859375 C44.37036133 133.81665039 44.37036133 133.81665039 44.3828125 131.21875 C44.38474609 130.26935547 44.38667969 129.31996094 44.38867188 128.34179688 C44.40091797 127.36146484 44.41316406 126.38113281 44.42578125 125.37109375 C44.42674805 123.90639648 44.42674805 123.90639648 44.42773438 122.41210938 C44.45720074 117.58289967 44.73787543 113.06774444 45.61328125 108.30859375 C45.67716513 106.35119182 45.69966294 104.39189228 45.67578125 102.43359375 C45.66675781 101.46679688 45.65773438 100.5 45.6484375 99.50390625 C45.63683594 98.77945313 45.62523437 98.055 45.61328125 97.30859375 C35.04476742 94.82933622 29.37834613 97.50374327 20.6484375 102.88671875 C-4.58287161 118.43041385 -37.81560634 119.34643747 -66.38671875 116.30859375 C-67.41281189 120.66184071 -67.10768274 122.81363742 -65.44921875 126.99609375 C-63.48443521 132.50972506 -62.47750744 137.47272579 -63.38671875 143.30859375 C-63.7115625 143.9428125 -64.03640625 144.57703125 -64.37109375 145.23046875 C-65.66134253 147.87051626 -65.803057 150.1373292 -66.01171875 153.05859375 C-66.08648437 154.0434375 -66.16125 155.02828125 -66.23828125 156.04296875 C-66.28726563 156.790625 -66.33625 157.53828125 -66.38671875 158.30859375 C-67.70671875 158.30859375 -69.02671875 158.30859375 -70.38671875 158.30859375 C-70.6290625 157.30699219 -70.87140625 156.30539063 -71.12109375 155.2734375 C-73.48823115 145.25078532 -73.48823115 145.25078532 -78.38671875 136.30859375 C-79.38638672 135.91994141 -79.38638672 135.91994141 -80.40625 135.5234375 C-82.38671875 134.30859375 -82.38671875 134.30859375 -83.3984375 131.61328125 C-86.43053293 116.22495878 -86.53955955 100.93232042 -86.38671875 85.30859375 C-86.93126709 85.14061279 -87.47581543 84.97263184 -88.03686523 84.79956055 C-93.73629396 82.97937519 -99.06994604 80.72761203 -104.44921875 78.12109375 C-107.06859375 76.86296875 -109.68796875 75.60484375 -112.38671875 74.30859375 C-112.38671875 62.75859375 -112.38671875 51.20859375 -112.38671875 39.30859375 C-92.34271365 30.04340146 -72.27498697 20.84528916 -52.06469727 11.94750977 C-45.35017399 8.98736249 -38.66346888 5.9939377 -32.04296875 2.828125 C-30.38551636 2.04091064 -30.38551636 2.04091064 -28.69458008 1.23779297 C-26.68968975 0.27934841 -24.69143017 -0.69316204 -22.7019043 -1.68310547 C-21.82832275 -2.09963379 -20.95474121 -2.51616211 -20.0546875 -2.9453125 C-19.31500732 -3.30955322 -18.57532715 -3.67379395 -17.81323242 -4.04907227 C-11.38328805 -5.75117345 -5.66724422 -2.7306967 0 0 Z " fill="#807C7C" transform="translate(269.38671875,82.69140625)"/>
<path d="M0 0 C3.84777742 1.28259247 7.31430812 2.50650369 10.9609375 4.1640625 C12.28544922 4.76347656 12.28544922 4.76347656 13.63671875 5.375 C14.54035156 5.7875 15.44398438 6.2 16.375 6.625 C17.30183594 7.04523438 18.22867188 7.46546875 19.18359375 7.8984375 C21.45694599 8.92964882 23.72902406 9.96356863 26 11 C26.0501123 11.98693848 26.10022461 12.97387695 26.15185547 13.99072266 C26.34304349 17.72235736 26.54268585 21.45350349 26.74462891 25.18457031 C26.83019766 26.78634048 26.91360257 28.38822801 26.99462891 29.99023438 C27.5078423 40.10243894 28.35285356 49.99788006 30 60 C29.195625 60.45375 28.39125 60.9075 27.5625 61.375 C24.91143428 62.74725665 24.91143428 62.74725665 24 65 C23.10789862 73.42414717 23.70724541 80.64053938 26.6875 88.5625 C26.93121338 89.21621582 27.17492676 89.86993164 27.42602539 90.54345703 C29.31819201 95.18813759 31.39642397 98.5717052 35 102 C38.67924984 102.96838142 38.67924984 102.96838142 42 103 C42.25579834 103.76965088 42.51159668 104.53930176 42.77514648 105.33227539 C49.29408012 124.75547373 55.94129578 142.85325957 70.73828125 157.75 C72.66534432 161.18649638 72.13706068 164.51940195 71.8125 168.3125 C71.76802734 169.04662109 71.72355469 169.78074219 71.67773438 170.53710938 C71.26675306 176.25533089 70.81638245 181.8555281 66.98608398 186.37768555 C57.09870514 194.02739919 45.89610392 197.19862254 34.0625 200.8125 C32.01038961 201.45813511 29.95895085 202.105909 27.90820312 202.75585938 C23.99728302 203.99224736 20.08050082 205.20591236 16.15673828 206.40087891 C13.07313478 207.34356394 10.01700236 208.32452242 6.97998047 209.40771484 C0.13978843 211.78323727 -4.16790683 212.46316105 -11 210 C-12.85021912 209.42434642 -14.70048201 208.84883351 -16.55078125 208.2734375 C-19.45951097 207.32170589 -22.36396792 206.35785537 -25.26757812 205.390625 C-26.20666016 205.08382812 -27.14574219 204.77703125 -28.11328125 204.4609375 C-28.95673096 204.18040527 -29.80018066 203.89987305 -30.66918945 203.61083984 C-33.24330116 202.8309929 -33.24330116 202.8309929 -37 203 C-39.39193528 209.91170418 -41.78293557 216.82373109 -44.17281628 223.73614597 C-45.28314681 226.94754065 -46.39377204 230.15883271 -47.50512695 233.36987305 C-54.35854573 253.14902452 -54.35854573 253.14902452 -61 273 C-63 272 -63 272 -63.979599 269.66247559 C-64.32140701 268.62594849 -64.66321503 267.58942139 -65.01538086 266.52148438 C-65.40596176 265.34936401 -65.79654266 264.17724365 -66.19895935 262.96960449 C-66.6210725 261.67770255 -67.04302998 260.38574973 -67.46484375 259.09375 C-67.90254722 257.77130773 -68.34091647 256.44908564 -68.77992249 255.1270752 C-69.9378107 251.63428193 -71.08667731 248.1385848 -72.23370361 244.64221191 C-73.39203418 241.11649115 -74.55861174 237.5935035 -75.72460938 234.0703125 C-77.81376612 227.75436734 -79.89718479 221.43658173 -81.96920776 215.11499023 C-82.61867357 213.15234482 -83.27819843 211.19297215 -83.95193481 209.23852539 C-84.22762299 208.43858154 -84.50331116 207.6386377 -84.78735352 206.81445312 C-85.02430435 206.13999146 -85.26125519 205.46552979 -85.50538635 204.77062988 C-86 203 -86 203 -86 200 C-85.030625 199.525625 -84.06125 199.05125 -83.0625 198.5625 C-79.58652303 195.65402948 -79.30226321 194.76974564 -78.625 190.4375 C-78.37055441 183.87757451 -80.79387989 180.71594395 -84.85546875 175.80078125 C-89.52292385 169.70503387 -91.94131755 162.54450543 -93 155 C-93.7425 154.95875 -94.485 154.9175 -95.25 154.875 C-99.18891005 153.62171044 -100.04966611 151.56440331 -102 148 C-104.10238682 143.16451031 -104.34616246 139.19243696 -104 134 C-102 132 -102 132 -99.5625 131.9375 C-97 133 -97 133 -95.1875 136.25 C-94.16080261 139.49220227 -93.69638999 141.66028985 -94 145 C-93.01 145 -92.02 145 -91 145 C-90.94571027 142.77110504 -90.90707662 140.54182529 -90.875 138.3125 C-90.85179688 137.07113281 -90.82859375 135.82976562 -90.8046875 134.55078125 C-90.99222715 131.14131034 -91.74068821 129.10594968 -93 126 C-92.55810547 123.85668945 -92.55810547 123.85668945 -92 122 C-91.39752441 122.02618408 -90.79504883 122.05236816 -90.17431641 122.0793457 C-73.56594032 122.701884 -57.82211124 121.93713823 -43.3359375 112.91796875 C-39.84300759 111.54532907 -36.73726963 111.86288843 -33 112 C-33.01047363 112.62044189 -33.02094727 113.24088379 -33.03173828 113.88012695 C-33.07330886 116.69087677 -33.09932933 119.5015619 -33.125 122.3125 C-33.15013672 123.77719727 -33.15013672 123.77719727 -33.17578125 125.27148438 C-33.18222656 126.20927734 -33.18867187 127.14707031 -33.1953125 128.11328125 C-33.20578613 128.97735596 -33.21625977 129.84143066 -33.22705078 130.73168945 C-33.15090168 133.28180721 -33.15090168 133.28180721 -31 136 C-30.835 137.19625 -30.67 138.3925 -30.5 139.625 C-30.335 140.73875 -30.17 141.8525 -30 143 C-29.34 143.33 -28.68 143.66 -28 144 C-28.061875 142.948125 -28.12375 141.89625 -28.1875 140.8125 C-27.99172455 136.83173257 -27.50001325 135.05557175 -25 132 C-24.01 132 -23.02 132 -22 132 C-21.67 124.08 -21.34 116.16 -21 108 C-17.06799212 106.1654032 -13.13555042 104.33180443 -9.2019043 102.50073242 C-7.86406683 101.87761894 -6.52649939 101.25392537 -5.18920898 100.62963867 C-3.26617113 99.73203058 -1.34216956 98.83651808 0.58203125 97.94140625 C1.73936768 97.40201416 2.8967041 96.86262207 4.08911133 96.30688477 C7 95 7 95 10 94 C9.67 93.67 9.34 93.34 9 93 C8.16533629 88.77933705 7.61019922 84.50815333 7 80.25 C6.81920898 78.99348633 6.63841797 77.73697266 6.45214844 76.44238281 C4.96256717 65.63125983 4.23601458 54.90387371 4 44 C2.68 43.34 1.36 42.68 0 42 C0 28.14 0 14.28 0 0 Z " fill="#FEC94F" transform="translate(157,157)"/>
<path d="M0 0 C0.80229034 0.37683426 1.60458069 0.75366852 2.43118286 1.141922 C4.1577699 1.95377813 5.88244887 2.76970235 7.6053772 3.58929443 C12.21088198 5.77944209 16.83071994 7.93898658 21.44921875 10.1015625 C22.38770157 10.54187805 23.32618439 10.9821936 24.29310608 11.43585205 C33.28247981 15.64410031 42.34276527 19.68247023 51.42578125 23.68359375 C63.04651139 28.81153551 74.61031285 34.03567803 86.11401367 39.42260742 C92.5928683 42.45338244 99.08880761 45.4391108 105.609375 48.37890625 C106.37007797 48.72233566 107.13078094 49.06576508 107.91453552 49.41960144 C111.65042124 51.10573423 115.38836586 52.78703678 119.12963867 54.46118164 C120.48104215 55.07028645 121.83236468 55.67957088 123.18359375 56.2890625 C124.37742676 56.82426514 125.57125977 57.35946777 126.80126953 57.91088867 C129.61328125 59.30859375 129.61328125 59.30859375 131.61328125 61.30859375 C126.10473022 63.86991917 120.59524309 66.42921733 115.08496094 68.98681641 C113.21915628 69.85315144 111.35358769 70.71999511 109.48828125 71.58740234 C103.20356414 74.50966036 96.91304918 77.41891443 90.61328125 80.30859375 C89.7363562 80.71094238 88.85943115 81.11329102 87.95593262 81.52783203 C85.45683907 82.67018112 82.95392317 83.8036087 80.44921875 84.93359375 C79.69935699 85.27656494 78.94949524 85.61953613 78.1769104 85.97290039 C75.15836219 87.32435384 72.95937689 88.30859375 69.61328125 88.30859375 C69.61553711 87.52734131 69.61779297 86.74608887 69.62011719 85.94116211 C69.57863563 79.86005563 69.35680767 73.81745024 68.78515625 67.76171875 C68.68299805 66.6418457 68.58083984 65.52197266 68.47558594 64.36816406 C67.3833833 60.49288563 65.74262339 58.96555792 62.61328125 56.49609375 C59.2802768 55.23425918 59.2802768 55.23425918 55.61328125 54.30859375 C54.2897445 53.80543653 52.97213984 53.28646215 51.66015625 52.75390625 C13.34974675 37.76171557 -37.32674356 40.42188315 -74.78515625 56.5625 C-75.98696861 57.14185974 -77.18754786 57.72378624 -78.38671875 58.30859375 C-80.08054687 59.04142578 -80.08054687 59.04142578 -81.80859375 59.7890625 C-85.37693028 63.27630048 -85.14746149 65.98366448 -85.26953125 70.8359375 C-85.26566406 72.43115234 -85.26566406 72.43115234 -85.26171875 74.05859375 C-85.28234375 75.13753906 -85.30296875 76.21648437 -85.32421875 77.328125 C-85.37131479 79.98905141 -85.39116053 82.64733573 -85.38671875 85.30859375 C-89.13093948 84.69193328 -92.24693563 83.612938 -95.6875 82.0234375 C-96.56833252 81.61988037 -97.44916504 81.21632324 -98.35668945 80.80053711 C-99.45972412 80.2875708 -100.56275879 79.77460449 -101.69921875 79.24609375 C-105.22609375 77.61671875 -108.75296875 75.98734375 -112.38671875 74.30859375 C-112.38671875 62.75859375 -112.38671875 51.20859375 -112.38671875 39.30859375 C-92.34271365 30.04340146 -72.27498697 20.84528916 -52.06469727 11.94750977 C-45.35017399 8.98736249 -38.66346888 5.9939377 -32.04296875 2.828125 C-30.38551636 2.04091064 -30.38551636 2.04091064 -28.69458008 1.23779297 C-26.68968975 0.27934841 -24.69143017 -0.69316204 -22.7019043 -1.68310547 C-21.82832275 -2.09963379 -20.95474121 -2.51616211 -20.0546875 -2.9453125 C-19.31500732 -3.30955322 -18.57532715 -3.67379395 -17.81323242 -4.04907227 C-11.38328805 -5.75117345 -5.66724422 -2.7306967 0 0 Z " fill="#666665" transform="translate(269.38671875,82.69140625)"/>
<path d="M0 0 C-0.01047363 0.62044189 -0.02094727 1.24088379 -0.03173828 1.88012695 C-0.07330886 4.69087677 -0.09932933 7.5015619 -0.125 10.3125 C-0.15013672 11.77719727 -0.15013672 11.77719727 -0.17578125 13.27148438 C-0.18222656 14.20927734 -0.18867188 15.14707031 -0.1953125 16.11328125 C-0.20578613 16.97735596 -0.21625977 17.84143066 -0.22705078 18.73168945 C-0.15090168 21.28180721 -0.15090168 21.28180721 2 24 C2.53916146 26.6602023 2.73370098 29.29262663 3 32 C3.66 32 4.32 32 5 32 C5.07347656 31.07767578 5.07347656 31.07767578 5.1484375 30.13671875 C5.22320312 29.32847656 5.29796875 28.52023437 5.375 27.6875 C5.44460938 26.88699219 5.51421875 26.08648437 5.5859375 25.26171875 C6 23 6 23 8 20 C9.65 20.33 11.3 20.66 13 21 C13.43267 28.82010961 13.02240638 35.22199202 8 41.5 C6 43 6 43 3 43 C2.84144531 43.76183594 2.68289063 44.52367187 2.51953125 45.30859375 C0.77887456 53.01172086 -1.37347778 59.90445874 -6.69140625 65.91015625 C-10.34606889 70.03967065 -11.43891897 72.64403652 -11.1875 78.25 C-10.63449819 82.20570667 -10.34961773 83.61358041 -7.625 86.625 C-6.75875 87.07875 -5.8925 87.5325 -5 88 C-3.515 88.99 -3.515 88.99 -2 90 C-2.99 90.495 -2.99 90.495 -4 91 C-4.84988462 93.07665626 -5.59995486 95.19432668 -6.30664062 97.32397461 C-6.52805222 97.98415085 -6.74946381 98.64432709 -6.97758484 99.32450867 C-7.45832678 100.7612049 -7.93559571 102.19906677 -8.40983582 103.63792229 C-9.15989377 105.91339798 -9.91888051 108.18571499 -10.68029785 110.45741272 C-12.29520953 115.28134687 -13.89793368 120.10928773 -15.5 124.9375 C-17.35628012 130.52741083 -19.21746822 136.11562737 -21.0879364 141.70080757 C-21.8363527 143.94268518 -22.5773426 146.18692813 -23.31799316 148.43138123 C-23.77611694 149.80324189 -24.23455531 151.17499756 -24.69335938 152.54663086 C-25.29053772 154.34746376 -25.29053772 154.34746376 -25.89978027 156.18467712 C-27 159 -27 159 -29 161 C-30.7148681 156.07241468 -32.42370025 151.14279392 -34.12695312 146.21118164 C-34.70732517 144.5335234 -35.28934749 142.85643512 -35.87304688 141.17993164 C-36.71137224 138.77117193 -37.54375694 136.36043022 -38.375 133.94921875 C-38.63748535 133.19912033 -38.8999707 132.44902191 -39.17041016 131.67619324 C-40.20420273 128.66193993 -41 126.21044036 -41 123 C-41.66 123 -42.32 123 -43 123 C-44.33203125 120.953125 -44.33203125 120.953125 -45.8125 118.25 C-52.48333218 106.91916065 -64.26511886 105.07925107 -76.24902344 101.75024414 C-79.5756324 100.80857084 -82.09890643 99.93406238 -85 98 C-84.14003418 97.75878418 -84.14003418 97.75878418 -83.26269531 97.51269531 C-70.0924328 93.82589918 -70.0924328 93.82589918 -57 89.875 C-55.700625 89.46894531 -55.700625 89.46894531 -54.375 89.0546875 C-51.37601229 87.72290019 -49.3248698 86.3288782 -47 84 C-45.57922442 79.65033049 -45.45102449 75.53038039 -46 71 C-47.44680294 68.28775973 -49.08401112 66.30086456 -51.15234375 64.03515625 C-56.48655318 58.1596317 -58.17178876 50.53444633 -60 43 C-60.76699219 42.91363281 -61.53398437 42.82726562 -62.32421875 42.73828125 C-65.5746118 41.84145747 -66.17385521 41.07463606 -67.8125 38.1875 C-70.71173581 32.57023063 -70.47037375 27.1775753 -70 21 C-68.35 20.67 -66.7 20.34 -65 20 C-61.25474201 23.74525799 -61.31090051 27.98270909 -61 33 C-60.01 33 -59.02 33 -58 33 C-57.97265529 30.66658501 -57.95299763 28.33350051 -57.9375 26 C-57.92589844 24.700625 -57.91429687 23.40125 -57.90234375 22.0625 C-57.9332899 17.98160152 -58.42758987 14.03842109 -59 10 C-58.36610352 10.01571045 -57.73220703 10.0314209 -57.07910156 10.04760742 C-40.4268784 10.40599617 -24.79252362 9.99532726 -10.15625 0.84765625 C-6.77726761 -0.4806756 -3.61100594 -0.12036686 0 0 Z " fill="#FDD097" transform="translate(447,269)"/>
<path d="M0 0 C-0.01047363 0.62044189 -0.02094727 1.24088379 -0.03173828 1.88012695 C-0.07330886 4.69087677 -0.09932933 7.5015619 -0.125 10.3125 C-0.15013672 11.77719727 -0.15013672 11.77719727 -0.17578125 13.27148438 C-0.18222656 14.20927734 -0.18867187 15.14707031 -0.1953125 16.11328125 C-0.20578613 16.97735596 -0.21625977 17.84143066 -0.22705078 18.73168945 C-0.15090168 21.28180721 -0.15090168 21.28180721 2 24 C2.165 25.19625 2.33 26.3925 2.5 27.625 C2.665 28.73875 2.83 29.8525 3 31 C3.66 31.33 4.32 31.66 5 32 C4.938125 30.948125 4.87625 29.89625 4.8125 28.8125 C5.0077786 24.84183507 5.70325068 23.15803031 8 20 C11.875 20.875 11.875 20.875 13 22 C13.91261368 28.70247423 12.45987434 34.23739994 9 40 C6.96050867 42.38582005 6.07612032 42.97462656 3 44 C2.15037186 46.29970018 1.45921546 48.51878094 0.8125 50.875 C-1.51166796 58.63400233 -5.20645523 65.20645523 -11 71 C-11.23481693 73.18292774 -11.41363323 75.37203174 -11.5625 77.5625 C-11.64628906 78.76003906 -11.73007813 79.95757812 -11.81640625 81.19140625 C-11.90728516 82.58166016 -11.90728516 82.58166016 -12 84 C-11.40703125 84.29648437 -10.8140625 84.59296875 -10.203125 84.8984375 C-7.46875 86.265625 -4.734375 87.6328125 -2 89 C-2.64062378 89.95749146 -2.64062378 89.95749146 -3.29418945 90.93432617 C-5.46495374 94.83561243 -6.84931077 98.83595382 -8.29296875 103.05078125 C-8.60047058 103.93446381 -8.90797241 104.81814636 -9.22479248 105.72860718 C-10.21799599 108.58798782 -11.20295361 111.45012825 -12.1875 114.3125 C-12.8643301 116.26744986 -13.54149537 118.22228372 -14.21899414 120.17700195 C-18.91558348 133.75052119 -23.53504642 147.34836877 -28 161 C-30 160 -30 160 -30.979599 157.66247559 C-31.32140701 156.62594849 -31.66321503 155.58942139 -32.01538086 154.52148438 C-32.40596176 153.34936401 -32.79654266 152.17724365 -33.19895935 150.96960449 C-33.6210725 149.67770255 -34.04302998 148.38574973 -34.46484375 147.09375 C-34.90254722 145.77130773 -35.34091647 144.44908564 -35.77992249 143.1270752 C-36.9378107 139.63428193 -38.08667731 136.1385848 -39.23370361 132.64221191 C-40.39203418 129.11649115 -41.55861174 125.5935035 -42.72460938 122.0703125 C-44.81376612 115.75436734 -46.89718479 109.43658173 -48.96920776 103.11499023 C-49.61867357 101.15234482 -50.27819843 99.19297215 -50.95193481 97.23852539 C-51.36546707 96.03860962 -51.36546707 96.03860962 -51.78735352 94.81445312 C-52.02430435 94.13999146 -52.26125519 93.46552979 -52.50538635 92.77062988 C-53 91 -53 91 -53 88 C-52.030625 87.525625 -51.06125 87.05125 -50.0625 86.5625 C-46.58652303 83.65402948 -46.30226321 82.76974564 -45.625 78.4375 C-45.37055441 71.87757451 -47.79387989 68.71594395 -51.85546875 63.80078125 C-56.52292385 57.70503387 -58.94131755 50.54450543 -60 43 C-60.7425 42.95875 -61.485 42.9175 -62.25 42.875 C-66.18891005 41.62171044 -67.04966611 39.56440331 -69 36 C-71.10238682 31.16451031 -71.34616246 27.19243696 -71 22 C-69 20 -69 20 -66.5625 19.9375 C-64 21 -64 21 -62.1875 24.25 C-61.16080261 27.49220227 -60.69638999 29.66028985 -61 33 C-60.01 33 -59.02 33 -58 33 C-57.94571027 30.77110504 -57.90707662 28.54182529 -57.875 26.3125 C-57.85179688 25.07113281 -57.82859375 23.82976562 -57.8046875 22.55078125 C-57.99222715 19.14131034 -58.74068821 17.10594968 -60 14 C-59.55810547 11.85668945 -59.55810547 11.85668945 -59 10 C-58.39752441 10.02618408 -57.79504883 10.05236816 -57.17431641 10.0793457 C-40.56594032 10.701884 -24.82211124 9.93713823 -10.3359375 0.91796875 C-6.84300759 -0.45467093 -3.73726963 -0.13711157 0 0 Z " fill="#FDD097" transform="translate(124,269)"/>
<path d="M0 0 C3.97661221 1.5137151 7.83935771 3.20627819 11.71118164 4.96801758 C12.91399025 5.51097221 12.91399025 5.51097221 14.14109802 6.06489563 C16.74770147 7.24218416 19.35247549 8.42346351 21.95727539 9.60473633 C23.75205186 10.41609321 25.54697479 11.22712618 27.34204102 12.0378418 C30.95919352 13.67160711 34.57581979 15.30652908 38.19213867 16.94213867 C45.58544719 20.28406219 52.98960039 23.60171281 60.39477539 26.91723633 C61.63380464 27.47229596 62.87281882 28.02738922 64.11181641 28.58251953 C66.87266826 29.81939244 69.63364747 31.05597987 72.39477539 32.29223633 C72.39477539 33.28223633 72.39477539 34.27223633 72.39477539 35.29223633 C68.30348584 37.1483922 64.21003817 38.99967535 60.11450195 40.84643555 C58.72099129 41.47562673 57.32808375 42.10615543 55.93579102 42.73803711 C53.93670449 43.64503007 51.93551226 44.54722171 49.93383789 45.44848633 C49.30982086 45.73284546 48.68580383 46.01720459 48.0428772 46.31018066 C43.6225188 48.29223633 43.6225188 48.29223633 41.39477539 48.29223633 C41.40001221 48.87714844 41.40524902 49.46206055 41.41064453 50.06469727 C41.43147697 52.72386596 41.44445546 55.38301744 41.45727539 58.04223633 C41.4656543 58.96262695 41.4740332 59.88301758 41.48266602 60.83129883 C41.48588867 61.72075195 41.48911133 62.61020508 41.49243164 63.52661133 C41.49766846 64.34355469 41.50290527 65.16049805 41.50830078 66.00219727 C41.39495234 68.28866689 41.22075016 70.15316588 40.39477539 72.29223633 C38.90977539 72.78723633 38.90977539 72.78723633 37.39477539 73.29223633 C36.36438583 75.85265698 36.36438583 75.85265698 35.70727539 78.85473633 C35.4559082 79.86665039 35.20454102 80.87856445 34.94555664 81.92114258 C34.76379883 82.70360352 34.58204102 83.48606445 34.39477539 84.29223633 C33.73477539 84.29223633 33.07477539 84.29223633 32.39477539 84.29223633 C32.18981445 83.66575195 31.98485352 83.03926758 31.77368164 82.39379883 C31.50426758 81.5765332 31.23485352 80.75926758 30.95727539 79.91723633 C30.69043945 79.10512695 30.42360352 78.29301758 30.14868164 77.45629883 C29.4429781 75.28191834 29.4429781 75.28191834 28.39477539 73.29223633 C28.37867368 71.69545311 28.42941912 70.09769643 28.51586914 68.50317383 C28.56420898 67.5621582 28.61254883 66.62114258 28.66235352 65.65161133 C28.71842773 64.66676758 28.77450195 63.68192383 28.83227539 62.66723633 C28.88448242 61.6746582 28.93668945 60.68208008 28.99047852 59.65942383 C29.12036489 57.20339065 29.25533703 54.74774273 29.39477539 52.29223633 C27.8062851 52.57967923 26.21932971 52.87561172 24.63305664 53.17504883 C23.30721558 53.42085693 23.30721558 53.42085693 21.95458984 53.67163086 C19.57030706 54.24968015 17.72190609 54.99208484 15.58227539 56.16723633 C5.70817011 61.54761615 -5.08505478 63.46788067 -16.16772461 63.41723633 C-17.01786133 63.42110352 -17.86799805 63.4249707 -18.74389648 63.42895508 C-19.56567383 63.42766602 -20.38745117 63.42637695 -21.23413086 63.42504883 C-21.97735596 63.4239209 -22.72058105 63.42279297 -23.48632812 63.42163086 C-25.63795082 63.29023784 -27.53601815 62.88143212 -29.60522461 62.29223633 C-29.25459961 63.30286133 -28.90397461 64.31348633 -28.54272461 65.35473633 C-26.86134518 71.85685399 -27.96888449 78.68805778 -28.60522461 85.29223633 C-29.59522461 85.29223633 -30.58522461 85.29223633 -31.60522461 85.29223633 C-31.70319336 84.68895508 -31.80116211 84.08567383 -31.90209961 83.46411133 C-32.12639648 82.2652832 -32.12639648 82.2652832 -32.35522461 81.04223633 C-32.49444336 80.25333008 -32.63366211 79.46442383 -32.77709961 78.65161133 C-33.44629331 76.14746162 -33.44629331 76.14746162 -35.60522461 74.47192383 C-38.34391494 71.48717929 -38.50812563 68.54604477 -38.85522461 64.66723633 C-38.93111816 63.95954102 -39.00701172 63.2518457 -39.08520508 62.52270508 C-39.62864049 57.11053201 -39.84051371 51.73002878 -39.60522461 46.29223633 C-40.1969043 46.11047852 -40.78858398 45.9287207 -41.39819336 45.74145508 C-42.58348633 45.3644043 -42.58348633 45.3644043 -43.79272461 44.97973633 C-44.5700293 44.73610352 -45.34733398 44.4924707 -46.14819336 44.24145508 C-46.95901367 43.92821289 -47.76983398 43.6149707 -48.60522461 43.29223633 C-49.98194336 42.76629883 -49.98194336 42.76629883 -51.38647461 42.22973633 C-53.60522461 40.29223633 -53.60522461 40.29223633 -53.99902344 38.45751953 C-54.09926559 36.14780556 -54.03994944 33.91446116 -53.91772461 31.60473633 C-53.86025644 30.12197332 -53.80462837 28.63913826 -53.75048828 27.15625 C-53.70255127 25.88112549 -53.65461426 24.60600098 -53.60522461 23.29223633 C-42.60316369 17.69079835 -31.48830564 12.41986355 -20.23022461 7.35473633 C-18.00413355 6.34947489 -15.77844151 5.34333451 -13.55282593 4.33702087 C-12.18651774 3.7196329 -10.81985557 3.10302751 -9.45278931 2.48731995 C-2.45428618 -0.6667581 -2.45428618 -0.6667581 0 0 Z " fill="#807C7C" transform="translate(417.605224609375,216.707763671875)"/>
<path d="M0 0 C0.62066345 0.27159943 1.2413269 0.54319885 1.88079834 0.82302856 C4.05602114 1.77729421 6.20962659 2.77148954 8.36328125 3.7734375 C9.15470016 4.13845367 9.94611908 4.50346985 10.76152039 4.87954712 C13.27989305 6.0417394 15.79625869 7.20820136 18.3125 8.375 C20.81842795 9.53377707 23.32476855 10.69165512 25.8313446 11.84902954 C27.38569453 12.56707671 28.93961028 13.28606484 30.49299622 14.00619507 C35.63998803 16.38854556 40.81279406 18.70646611 46 21 C46 24.3 46 27.6 46 31 C46.66 31 47.32 31 48 31 C48.99 30.01 48.99 30.01 50 29 C53.046875 28.953125 53.046875 28.953125 56.75 29.25 C58.56757813 29.38148438 58.56757813 29.38148438 60.421875 29.515625 C63.84221474 29.97864042 66.7755819 30.79331593 70 32 C68.43404266 35.13191467 65.7797738 35.63297434 62.62890625 37.0390625 C61.67261574 37.46764053 61.67261574 37.46764053 60.69700623 37.90487671 C59.34747224 38.50802396 57.99652106 39.10800866 56.64428711 39.70507812 C54.57116518 40.62117094 52.5031157 41.5480151 50.43554688 42.4765625 C40.28639129 47 40.28639129 47 38 47 C38.01160156 48.22976563 38.02320313 49.45953125 38.03515625 50.7265625 C38.04454022 52.35937347 38.05363977 53.9921861 38.0625 55.625 C38.07087891 56.43324219 38.07925781 57.24148438 38.08789062 58.07421875 C38.12487306 67.17189796 38.12487306 67.17189796 37 71 C35.68366304 71.69962791 34.34965281 72.36702329 33 73 C32.08400573 75.40404738 32.08400573 75.40404738 31.75 78.125 C31.60046875 79.03507812 31.4509375 79.94515625 31.296875 80.8828125 C31.19890625 81.58148438 31.1009375 82.28015625 31 83 C29.515 82.505 29.515 82.505 28 82 C27.87625 80.906875 27.7525 79.81375 27.625 78.6875 C27.24535199 74.92618198 27.24535199 74.92618198 25 72 C24.31657022 65.03828312 25.15954374 57.91875601 26 51 C20.55943041 51.79071185 15.76911819 52.95622986 10.8125 55.375 C-3.78511857 62.21699925 -17.1700851 62.53639748 -33 62 C-32.76337646 63.17018677 -32.76337646 63.17018677 -32.52197266 64.36401367 C-31.17537126 71.1644137 -30.87840893 77.14583236 -32 84 C-32.99 84 -33.98 84 -35 84 C-35.27263672 82.96939453 -35.27263672 82.96939453 -35.55078125 81.91796875 C-35.80214844 81.01691406 -36.05351563 80.11585938 -36.3125 79.1875 C-36.55613281 78.29417969 -36.79976562 77.40085937 -37.05078125 76.48046875 C-38.03758077 73.90179511 -39.02254248 72.85022164 -41 71 C-43.69535011 62.91394966 -43.17190717 53.46165271 -43 45 C-43.59167969 44.81824219 -44.18335938 44.63648438 -44.79296875 44.44921875 C-45.97826172 44.07216797 -45.97826172 44.07216797 -47.1875 43.6875 C-47.96480469 43.44386719 -48.74210937 43.20023437 -49.54296875 42.94921875 C-50.35378906 42.63597656 -51.16460937 42.32273437 -52 42 C-53.37671875 41.4740625 -53.37671875 41.4740625 -54.78125 40.9375 C-57 39 -57 39 -57.39379883 37.1652832 C-57.49404098 34.85556923 -57.43472483 32.62222484 -57.3125 30.3125 C-57.25503184 28.82973699 -57.19940376 27.34690193 -57.14526367 25.86401367 C-57.09732666 24.58888916 -57.04938965 23.31376465 -57 22 C-46.45794444 16.67233317 -35.87540284 11.44105944 -25.16894531 6.45068359 C-23.61807027 5.7234427 -22.07093319 4.988185 -20.52734375 4.24560547 C-18.25316326 3.15265103 -15.9683691 2.08562382 -13.6796875 1.0234375 C-12.99526581 0.6882309 -12.31084412 0.35302429 -11.60568237 0.00765991 C-6.92005999 -2.1209383 -4.62561784 -2.16601987 0 0 Z " fill="#7F7C7C" transform="translate(98,218)"/>
<path d="M0 0 C4.44838098 2.63369849 8.76620586 5.44292489 13.0859375 8.28125 C27.33256513 16.68408667 45.28687472 18.19342294 61.1875 14.375 C69.83505979 12.11337884 77.94532575 8.55473183 85 3 C84.81819687 3.54205582 84.63639374 4.08411163 84.44908142 4.64259338 C82.59812662 10.17625385 80.79013698 15.72250128 79.00390625 21.27734375 C78.43964136 23.0254514 77.87518227 24.77349637 77.31054688 26.52148438 C76.43565773 29.23047847 75.56176984 31.93977314 74.69116211 34.65014648 C69.12957524 51.95652391 69.12957524 51.95652391 65.97241211 59.51000977 C63.67539146 65.39183592 61.89569917 71.4787891 60 77.5 C57.5524174 85.2741296 55.10281122 92.98713557 51.98242188 100.52441406 C50.0163563 105.47866479 48.410955 110.5621631 46.75 115.625 C46.38648438 116.72457031 46.02296875 117.82414062 45.6484375 118.95703125 C44.76284378 121.63711752 43.88008793 124.31810177 43 127 C40.82663255 123.73994882 39.72850466 120.52702644 38.5390625 116.83984375 C38.3072226 116.13533585 38.07538269 115.43082794 37.83651733 114.70497131 C37.09503292 112.45053444 36.35948974 110.19422456 35.625 107.9375 C34.89721154 105.70592228 34.1679952 103.47485275 33.43490601 101.24501038 C32.97975077 99.86018031 32.52753412 98.47437905 32.07901001 97.08738708 C30.88924317 93.46327656 29.58011045 89.92595533 28.13012695 86.39746094 C25.49490668 79.8904874 23.36049309 73.22405609 21.19140625 66.55078125 C20.73857468 65.16601461 20.28543831 63.78134761 19.83201599 62.39677429 C18.64580536 58.77201892 17.46343015 55.1460245 16.28198242 51.51971436 C14.85830698 47.15219017 13.43024543 42.78609872 12.00269222 38.41984081 C10.88917321 35.01386283 9.77628932 31.60768289 8.66566467 28.20075989 C8.2585173 26.95284164 7.85136993 25.7049234 7.43188477 24.41918945 C7.03679718 23.20792389 6.64170959 21.99665833 6.23464966 20.74868774 C5.36006352 18.09323783 4.47670453 15.44216016 3.58053589 12.79403687 C3.34822989 12.10558024 3.1159239 11.41712362 2.87657833 10.70780468 C2.22689128 8.78610282 1.57356539 6.86563229 0.92002869 4.94523621 C0 2 0 2 0 0 Z " fill="#20CFC1" transform="translate(218,363)"/>
<path d="M0 0 C8.0981181 23.63442964 16.15324619 47.28077753 24 71 C24.40726318 69.83355957 24.81452637 68.66711914 25.23413086 67.46533203 C25.50570511 66.6875238 25.77727936 65.90971558 26.05708313 65.1083374 C26.67177708 63.34738094 27.2862627 61.58635175 27.90055847 59.82525635 C29.60101111 54.95070161 31.30433543 50.07718485 33.01318359 45.20556641 C36.02016771 36.6225682 39.01839349 28.04179057 41.82421875 19.390625 C42.2219751 18.18132324 42.61973145 16.97202148 43.02954102 15.72607422 C43.74397353 13.54058266 44.44190948 11.34960864 45.12084961 9.15283203 C45.59083374 7.72753174 45.59083374 7.72753174 46.0703125 6.2734375 C46.32570801 5.46310059 46.58110352 4.65276367 46.84423828 3.81787109 C48 2 48 2 50.20727539 1.1159668 C53.72261669 0.96999362 56.27549157 1.75849719 59.61328125 2.87109375 C60.86044922 3.28037109 62.10761719 3.68964844 63.39257812 4.11132812 C64.69930555 4.55312878 66.00594511 4.99518937 67.3125 5.4375 C68.63831195 5.87673896 69.96448089 6.3149019 71.29101562 6.75195312 C74.53101347 7.82409787 77.76695351 8.90710797 81 10 C81 10.66 81 11.32 81 12 C79.42412109 12.47179687 79.42412109 12.47179687 77.81640625 12.953125 C63.54218808 17.27467729 53.68215751 20.35296377 45.9561615 34.02159119 C44.3872207 37.2679113 43.72540565 40.59465053 43.04296875 44.1171875 C42.71059925 45.71591925 42.37773354 47.3145479 42.04443359 48.91308594 C41.87506287 49.7446521 41.70569214 50.57621826 41.53118896 51.4329834 C40.63126823 55.78192815 39.6476125 60.11198789 38.67578125 64.4453125 C38.28257347 66.2186105 37.88999776 67.99204877 37.49804688 69.765625 C36.90102321 72.46692858 36.30292158 75.16796333 35.70092773 77.86816406 C35.1057479 80.53895901 34.51530669 83.21076453 33.92578125 85.8828125 C33.74662674 86.68188019 33.56747223 87.48094788 33.38288879 88.30422974 C32.3106663 93.19173018 31.55051462 98.02589689 31 103 C11.30529816 90.20859571 -6.32433423 71.99934622 -20 53 C-20.85176801 51.85335128 -21.70465463 50.70753275 -22.55859375 49.5625 C-30.8200948 38.36833813 -38.03221382 26.57497803 -44 14 C-36.06899686 10.59342696 -27.91953956 7.97252037 -19.68359375 5.42578125 C-17.47489134 4.74222934 -15.26861636 4.05122245 -13.0625 3.359375 C-11.65638589 2.92143845 -10.25014069 2.48392253 -8.84375 2.046875 C-8.18548218 1.84068542 -7.52721436 1.63449585 -6.84899902 1.42205811 C-2.23094217 0 -2.23094217 0 0 0 Z " fill="#FE767C" transform="translate(71,358)"/>
<path d="M0 0 C2.37924286 2.36685097 4.74923765 4.73641458 7.0625 7.16796875 C7.701875 7.83441406 8.34125 8.50085938 9 9.1875 C9.639375 9.86167969 10.27875 10.53585937 10.9375 11.23046875 C16.73058978 16.20067646 23.66851178 15.33240743 30.875 15.3125 C32.61330078 15.33666992 32.61330078 15.33666992 34.38671875 15.36132812 C41.94955308 15.36564974 47.30821424 15.06286144 53.29296875 10.09765625 C54.23076172 9.09025391 54.23076172 9.09025391 55.1875 8.0625 C55.82042969 7.39347656 56.45335937 6.72445313 57.10546875 6.03515625 C57.73066406 5.36355469 58.35585938 4.69195312 59 4 C60.32868761 2.66203708 61.66074083 1.32738104 63 0 C63.02803711 0.61931396 63.05607422 1.23862793 63.08496094 1.87670898 C63.27335381 14.57780199 63.27335381 14.57780199 68.765625 25.39453125 C71.61805887 27.67831693 74.72655171 29.38146168 78 31 C78.99 31.66 79.98 32.32 81 33 C80.01 33.495 80.01 33.495 79 34 C78.21802744 36.21119582 77.49911744 38.44486215 76.8125 40.6875 C74.71656503 46.84093031 72.87244697 50.90201462 67 54 C49.11297135 62.38390877 31.28518819 64.76525626 12 59 C4.55936229 56.1160319 -2.35081382 52.20172964 -8.546875 47.1640625 C-10.01330665 45.90577592 -10.01330665 45.90577592 -12 45 C-12.85185473 42.5113354 -13.47104109 39.99351892 -14.12109375 37.4453125 C-15.03685714 34.89745524 -15.95212127 33.72272806 -18 32 C-17.41992188 31.69707031 -16.83984375 31.39414062 -16.2421875 31.08203125 C-15.46101562 30.66308594 -14.67984375 30.24414062 -13.875 29.8125 C-12.72644531 29.20341797 -12.72644531 29.20341797 -11.5546875 28.58203125 C-10.71164063 28.05996094 -9.86859375 27.53789062 -9 27 C-7.948125 26.3503125 -6.89625 25.700625 -5.8125 25.03125 C-1.49669214 21.33819294 -1.61683598 16.0259697 -1.125 10.6875 C-1.00898438 9.66076172 -0.89296875 8.63402344 -0.7734375 7.57617188 C-0.49170937 5.05235736 -0.23481328 2.52853809 0 0 Z " fill="#EEB97D" transform="translate(229,318)"/>
<path d="M0 0 C4.8774816 0.48881661 9.38642833 1.58076685 14.0703125 2.99609375 C14.71443085 3.18969986 15.35854919 3.38330597 16.02218628 3.58277893 C17.37244767 3.98972427 18.72198118 4.39909206 20.07080078 4.81079102 C22.12495423 5.43748604 24.18136657 6.05626339 26.23828125 6.67382812 C37.13119561 9.96550666 37.13119561 9.96550666 42 12 C40.52954093 17.08336119 38.31287077 21.30148339 35.625 25.8125 C35.18873291 26.54807129 34.75246582 27.28364258 34.30297852 28.04150391 C26.86521094 40.38402884 18.41252167 52.0884471 9 63 C8.36578125 63.74507813 7.7315625 64.49015625 7.078125 65.2578125 C1.9300686 71.14415606 -3.56207882 76.69479263 -9.0625 82.25 C-9.81845459 83.01900635 -10.57440918 83.7880127 -11.35327148 84.58032227 C-15.95003357 89.18408475 -20.66824386 93.26840533 -26 97 C-27.66280484 94.01525884 -28.41456118 91.42138257 -28.9296875 88.05126953 C-29.08324707 87.06990021 -29.23680664 86.08853088 -29.39501953 85.0774231 C-29.55341309 84.0232016 -29.71180664 82.9689801 -29.875 81.8828125 C-30.04499512 80.79290009 -30.21499023 79.70298767 -30.39013672 78.58004761 C-30.93309396 75.09597847 -31.46736823 71.61066154 -32 68.125 C-32.53314458 64.64656846 -33.06830675 61.16850807 -33.60986328 57.69137573 C-33.94661559 55.52852019 -34.27852723 53.36490396 -34.60498047 51.20046997 C-35.23314942 47.16017524 -35.85778386 43.417289 -37.1796875 39.53857422 C-38 37 -38 37 -37 33 C-33.04 44.88 -29.08 56.76 -25 69 C-22.92941573 65.89412359 -21.95196862 63.24089788 -20.76928711 59.70849609 C-20.5560228 59.07568222 -20.34275848 58.44286835 -20.12303162 57.7908783 C-19.4204379 55.7030615 -18.72399466 53.61324392 -18.02734375 51.5234375 C-17.5398236 50.07264635 -17.05182567 48.62201567 -16.56336975 47.17153931 C-15.27941036 43.35584893 -14.00024936 39.53856984 -12.72259521 35.72076416 C-10.67479981 29.60221321 -8.62261966 23.48514758 -6.56500435 17.36989212 C-5.84613548 15.22966929 -5.13107015 13.08820084 -4.41624451 10.94662476 C-3.97809125 9.6419359 -3.53979066 8.33729651 -3.10131836 7.03271484 C-2.71874374 5.88926605 -2.33616913 4.74581726 -1.94200134 3.56771851 C-1 1 -1 1 0 0 Z " fill="#FE777C" transform="translate(443,359)"/>
<path d="M0 0 C0.48210937 0.42152344 0.96421875 0.84304688 1.4609375 1.27734375 C2.09257812 1.82519531 2.72421875 2.37304688 3.375 2.9375 C4.00148438 3.48277344 4.62796875 4.02804687 5.2734375 4.58984375 C8.71368211 7.3996363 11.43245624 7.1949628 15.8125 7.25 C17.03582031 7.27578125 18.25914062 7.3015625 19.51953125 7.328125 C25.25200271 6.78768998 28.67410328 3.58431442 33 0 C33.08636719 0.74765625 33.17273438 1.4953125 33.26171875 2.265625 C34.02649507 8.50236645 34.02649507 8.50236645 37.4375 13.5625 C38.7059375 14.2740625 38.7059375 14.2740625 40 15 C40.99 15.66 41.98 16.32 43 17 C42.34 17.33 41.68 17.66 41 18 C40.15011538 20.07665626 39.40004514 22.19432668 38.69335938 24.32397461 C38.47194778 24.98415085 38.25053619 25.64432709 38.02241516 26.32450867 C37.54167322 27.7612049 37.06440429 29.19906677 36.59016418 30.63792229 C35.84010623 32.91339798 35.08111949 35.18571499 34.31970215 37.45741272 C32.70479047 42.28134687 31.10206632 47.10928773 29.5 51.9375 C27.64371988 57.52741083 25.78253178 63.11562737 23.9120636 68.70080757 C23.1636473 70.94268518 22.4226574 73.18692813 21.68200684 75.43138123 C21.22388306 76.80324189 20.76544469 78.17499756 20.30664062 79.54663086 C19.70946228 81.34746376 19.70946228 81.34746376 19.10021973 83.18467712 C18 86 18 86 16 88 C14.2851319 83.07241468 12.57629975 78.14279392 10.87304688 73.21118164 C10.29267483 71.5335234 9.71065251 69.85643512 9.12695312 68.17993164 C8.28862776 65.77117193 7.45624306 63.36043022 6.625 60.94921875 C6.36251465 60.19912033 6.1000293 59.44902191 5.82958984 58.67619324 C4.79579727 55.66193993 4 53.21044036 4 50 C3.34 50 2.68 50 2 50 C0.66796875 47.953125 0.66796875 47.953125 -0.8125 45.25 C-7.48333218 33.91916065 -19.26511886 32.07925107 -31.24902344 28.75024414 C-34.5756324 27.80857084 -37.09890643 26.93406238 -40 25 C-39.42668945 24.83918945 -38.85337891 24.67837891 -38.26269531 24.51269531 C-18.41400948 20.63849343 -18.41400948 20.63849343 -2 11 C-1.01561384 7.3625089 -0.4320767 3.74036542 0 0 Z " fill="#F0B97D" transform="translate(402,342)"/>
<path d="M0 0 C0.71922638 -0.00358521 1.43845276 -0.00717041 2.17947388 -0.01086426 C12.48888356 -0.03864167 22.48906262 0.81944125 32.6875 2.3125 C32.6875 3.3025 32.6875 4.2925 32.6875 5.3125 C2.75229887 23.48579622 -29.65747497 27.99722002 -64.3125 24.3125 C-65.33859314 28.66574696 -65.03346399 30.81754367 -63.375 35 C-61.41021646 40.51363131 -60.40328869 45.47663204 -61.3125 51.3125 C-61.63734375 51.94671875 -61.9621875 52.5809375 -62.296875 53.234375 C-63.58712378 55.87442251 -63.72883825 58.14123545 -63.9375 61.0625 C-64.01226562 62.04734375 -64.08703125 63.0321875 -64.1640625 64.046875 C-64.21304688 64.79453125 -64.26203125 65.5421875 -64.3125 66.3125 C-65.6325 66.3125 -66.9525 66.3125 -68.3125 66.3125 C-68.55484375 65.31089844 -68.7971875 64.30929688 -69.046875 63.27734375 C-71.4140124 53.25469157 -71.4140124 53.25469157 -76.3125 44.3125 C-76.98812988 44.01843262 -77.66375977 43.72436523 -78.35986328 43.42138672 C-80.3125 42.3125 -80.3125 42.3125 -81.13623047 40.32080078 C-82.23965041 33.89212427 -82.55648411 27.70416819 -82.4375 21.1875 C-82.42847656 20.23101562 -82.41945312 19.27453125 -82.41015625 18.2890625 C-82.38689827 15.96326475 -82.35422213 13.63802706 -82.3125 11.3125 C-55.29801409 3.61746462 -28.08060903 0.05590662 0 0 Z " fill="#676766" transform="translate(267.3125,174.6875)"/>
<path d="M0 0 C3.97661221 1.5137151 7.83935771 3.20627819 11.71118164 4.96801758 C12.91399025 5.51097221 12.91399025 5.51097221 14.14109802 6.06489563 C16.74770147 7.24218416 19.35247549 8.42346351 21.95727539 9.60473633 C23.75205186 10.41609321 25.54697479 11.22712618 27.34204102 12.0378418 C30.95919352 13.67160711 34.57581979 15.30652908 38.19213867 16.94213867 C45.58544719 20.28406219 52.98960039 23.60171281 60.39477539 26.91723633 C61.63380464 27.47229596 62.87281882 28.02738922 64.11181641 28.58251953 C66.87266826 29.81939244 69.63364747 31.05597987 72.39477539 32.29223633 C72.39477539 33.28223633 72.39477539 34.27223633 72.39477539 35.29223633 C68.30348584 37.1483922 64.21003817 38.99967535 60.11450195 40.84643555 C58.72099129 41.47562673 57.32808375 42.10615543 55.93579102 42.73803711 C53.93670449 43.64503007 51.93551226 44.54722171 49.93383789 45.44848633 C49.30982086 45.73284546 48.68580383 46.01720459 48.0428772 46.31018066 C43.6225188 48.29223633 43.6225188 48.29223633 41.39477539 48.29223633 C41.43860352 47.33961914 41.48243164 46.38700195 41.52758789 45.40551758 C41.7725851 38.27558914 41.7725851 38.27558914 38.48852539 32.35473633 C35.78315901 30.98493056 33.32470931 30.10453036 30.39477539 29.29223633 C29.64510498 29.04054687 28.89543457 28.78885742 28.12304688 28.52954102 C20.15777692 26.0250088 12.50172059 25.81843181 4.20727539 25.91723633 C3.52323639 25.9215567 2.83919739 25.92587708 2.13442993 25.93032837 C-8.03542891 26.00575764 -17.82000796 26.31518787 -27.60522461 29.29223633 C-29.1559668 29.7330957 -29.1559668 29.7330957 -30.73803711 30.18286133 C-33.63480364 31.26410566 -35.46383029 32.05899891 -37.60522461 34.29223633 C-38.72142686 38.34442081 -38.83194474 42.11125038 -38.60522461 46.29223633 C-44.24165925 45.40868711 -48.57155428 42.9097449 -53.60522461 40.29223633 C-53.60522461 34.68223633 -53.60522461 29.07223633 -53.60522461 23.29223633 C-42.58870104 17.70928625 -31.49180198 12.42143659 -20.23022461 7.35473633 C-18.00413355 6.34947489 -15.77844151 5.34333451 -13.55282593 4.33702087 C-12.18651774 3.7196329 -10.81985557 3.10302751 -9.45278931 2.48731995 C-2.45428618 -0.6667581 -2.45428618 -0.6667581 0 0 Z " fill="#686766" transform="translate(417.605224609375,216.707763671875)"/>
<path d="M0 0 C0.62066345 0.27159943 1.2413269 0.54319885 1.88079834 0.82302856 C4.05602114 1.77729421 6.20962659 2.77148954 8.36328125 3.7734375 C9.15470016 4.13845367 9.94611908 4.50346985 10.76152039 4.87954712 C13.27989305 6.0417394 15.79625869 7.20820136 18.3125 8.375 C20.81842795 9.53377707 23.32476855 10.69165512 25.8313446 11.84902954 C27.38569453 12.56707671 28.93961028 13.28606484 30.49299622 14.00619507 C35.63998803 16.38854556 40.81279406 18.70646611 46 21 C46 24.3 46 27.6 46 31 C46.66 31 47.32 31 48 31 C48.99 30.01 48.99 30.01 50 29 C53.046875 28.953125 53.046875 28.953125 56.75 29.25 C58.56757813 29.38148438 58.56757813 29.38148438 60.421875 29.515625 C63.84221474 29.97864042 66.7755819 30.79331593 70 32 C68.43404266 35.13191467 65.7797738 35.63297434 62.62890625 37.0390625 C61.67261574 37.46764053 61.67261574 37.46764053 60.69700623 37.90487671 C59.34747224 38.50802396 57.99652106 39.10800866 56.64428711 39.70507812 C54.57116518 40.62117094 52.5031157 41.5480151 50.43554688 42.4765625 C40.28639129 47 40.28639129 47 38 47 C38.04382813 46.04738281 38.08765625 45.09476562 38.1328125 44.11328125 C38.37780971 36.98335281 38.37780971 36.98335281 35.09375 31.0625 C32.38838361 29.69269424 29.92993392 28.81229403 27 28 C26.25032959 27.74831055 25.50065918 27.49662109 24.72827148 27.23730469 C16.76300152 24.73277247 9.1069452 24.52619548 0.8125 24.625 C0.128461 24.62932037 -0.555578 24.63364075 -1.26034546 24.63809204 C-14.67931915 24.73761981 -27.26272823 25.16451673 -39.1796875 32.01171875 C-41 33 -41 33 -43 33 C-43 36.96 -43 40.92 -43 45 C-49.54296875 42.94921875 -49.54296875 42.94921875 -52 42 C-53.37671875 41.4740625 -53.37671875 41.4740625 -54.78125 40.9375 C-57 39 -57 39 -57.39379883 37.1652832 C-57.49404098 34.85556923 -57.43472483 32.62222484 -57.3125 30.3125 C-57.25503184 28.82973699 -57.19940376 27.34690193 -57.14526367 25.86401367 C-57.09732666 24.58888916 -57.04938965 23.31376465 -57 22 C-46.45794444 16.67233317 -35.87540284 11.44105944 -25.16894531 6.45068359 C-23.61807027 5.7234427 -22.07093319 4.988185 -20.52734375 4.24560547 C-18.25316326 3.15265103 -15.9683691 2.08562382 -13.6796875 1.0234375 C-12.99526581 0.6882309 -12.31084412 0.35302429 -11.60568237 0.00765991 C-6.92005999 -2.1209383 -4.62561784 -2.16601987 0 0 Z " fill="#686766" transform="translate(98,218)"/>
<path d="M0 0 C0.73605469 0.49371094 1.47210938 0.98742187 2.23046875 1.49609375 C3.69419922 2.45708984 3.69419922 2.45708984 5.1875 3.4375 C6.15042969 4.07558594 7.11335938 4.71367187 8.10546875 5.37109375 C15.21953329 9.37455517 25.01172765 8.9580748 33 8 C36.98626061 6.74855046 40.39110656 5.06755453 44 3 C41.97874279 10.75586783 39.63608258 18.3535938 37.05859375 25.94140625 C36.50607689 27.57564796 36.50607689 27.57564796 35.94239807 29.24290466 C35.17009513 31.52327452 34.39606171 33.80305898 33.62036133 36.08227539 C32.4309066 39.58189917 31.25138519 43.08477311 30.07226562 46.58789062 C29.31830849 48.81009955 28.56377213 51.03211205 27.80859375 53.25390625 C27.45647324 54.30276505 27.10435272 55.35162384 26.74156189 56.43226624 C26.41104324 57.39764816 26.0805246 58.36303009 25.73999023 59.35766602 C25.4514769 60.20829117 25.16296356 61.05891632 24.8657074 61.93531799 C24 64 24 64 22 66 C21.61779297 64.87843506 21.23558594 63.75687012 20.84179688 62.60131836 C19.38577052 58.32937514 17.9289312 54.05770958 16.47174072 49.78616333 C15.82589967 47.89287671 15.18018761 45.99954608 14.53460693 44.10617065 C10.45505075 32.14352446 6.36594498 20.18524873 2.13476562 8.27514648 C0 2.21376714 0 2.21376714 0 0 Z " fill="#FEFDFC" transform="translate(396,364)"/>
<path d="M0 0 C0.71800781 0.433125 1.43601562 0.86625 2.17578125 1.3125 C11.85983349 6.52235127 21.13916821 7.66433657 32 6 C36.01807304 4.75212459 39.39816589 3.13284728 43 1 C40.79173454 8.59511596 38.32526481 16.0857833 35.76953125 23.5703125 C35.1766053 25.31367386 35.1766053 25.31367386 34.57170105 27.09225464 C33.32031447 30.77041097 32.06644799 34.44771621 30.8125 38.125 C29.95881979 40.63275648 29.10530252 43.14056843 28.25195312 45.6484375 C26.16985264 51.76626779 24.08572052 57.88340299 22 64 C20 63 20 63 19.00021362 60.62210083 C18.64935699 59.5674765 18.29850037 58.51285217 17.93701172 57.42626953 C17.53674774 56.23478302 17.13648376 55.04329651 16.72409058 53.81570435 C16.29233057 52.50483664 15.86087014 51.19387023 15.4296875 49.8828125 C14.98466634 48.54603879 14.53911284 47.20944219 14.0930481 45.87301636 C13.15873081 43.06840864 12.22956448 40.26216362 11.30419922 37.45458984 C10.11749454 33.85484446 8.92025804 30.25871437 7.71940422 26.66366768 C6.797987 23.90248551 5.88113386 21.13980554 4.96576309 18.37661362 C4.52595156 17.05014395 4.08496436 15.72406349 3.64278793 14.39838028 C3.02545243 12.5445768 2.4146719 10.68859431 1.80419922 8.83251953 C1.45493378 7.77630402 1.10566833 6.7200885 0.74581909 5.63186646 C0 3 0 3 0 0 Z " fill="#FEFDFC" transform="translate(74,366)"/>
<path d="M0 0 C5.26770198 0.65759749 10.30133173 1.73264124 15.4375 3.0625 C16.16904297 3.24876953 16.90058594 3.43503906 17.65429688 3.62695312 C19.43703198 4.0813758 21.21863787 4.54022466 23 5 C23.4822819 30.37338658 23.4822819 30.37338658 21 37 C17.5625 38.875 17.5625 38.875 14 40 C10.87269733 45.00368427 10.54847202 49.81804251 10.2109375 55.64453125 C10 58 10 58 9 60 C7.68 60 6.36 60 5 60 C4.06380187 56.84493858 3.8942877 54.03413498 3.9375 50.75 C3.94652344 49.85796875 3.95554687 48.9659375 3.96484375 48.046875 C3.97644531 47.37140625 3.98804688 46.6959375 4 46 C3.38125 45.773125 2.7625 45.54625 2.125 45.3125 C-0.81562151 43.49623378 -1.14602322 42.36362283 -2 39 C-2.28329713 35.57911101 -2.28293864 32.18091218 -2.25 28.75 C-2.24613281 27.78304199 -2.24226563 26.81608398 -2.23828125 25.81982422 C-2.13520248 17.11682605 -1.27765797 8.60137595 0 0 Z " fill="#686766" transform="translate(316,180)"/>
<path d="M0 0 C0.33 0 0.66 0 1 0 C1 3.96 1 7.92 1 12 C2.32 12.66 3.64 13.32 5 14 C7 15 9 16 11 17 C10.01453001 18.67529898 9.01059521 20.33973644 8 22 C7.46375 23.010625 6.9275 24.02125 6.375 25.0625 C2.59716256 29.73508841 -1.06659101 31.50495065 -7.06396484 32.25976562 C-17.93938099 33.17744404 -27.84131176 32.57856355 -37 26 C-39.05959474 22.83329577 -39.49277678 19.71963692 -40 16 C-39.05125 15.566875 -38.1025 15.13375 -37.125 14.6875 C-34.62697375 13.07910103 -34.05462116 12.17574865 -33.15625 9.28515625 C-32.67318524 6.52529359 -32.27875389 3.78753893 -32 1 C-31.51789063 1.42152344 -31.03578125 1.84304688 -30.5390625 2.27734375 C-29.90742187 2.82519531 -29.27578125 3.37304688 -28.625 3.9375 C-27.99851562 4.48277344 -27.37203125 5.02804687 -26.7265625 5.58984375 C-23.28631789 8.3996363 -20.56754376 8.1949628 -16.1875 8.25 C-14.96417969 8.27578125 -13.74085937 8.3015625 -12.48046875 8.328125 C-7.40750444 7.84986574 -4.9777748 6.16789768 -1.75 2.3125 C-0.88375 1.1678125 -0.88375 1.1678125 0 0 Z " fill="#F0B97D" transform="translate(111,341)"/>
<path d="M0 0 C2.6875 0.9375 2.6875 0.9375 5 3 C5.73519831 6.10821465 5.64592877 9.1935399 5.625 12.375 C5.78242213 21.08797262 6.60472303 29.46827958 7.98486328 38.06982422 C8.67610231 42.43567966 9.16605698 46.55978075 9 51 C7.12054688 50.85691406 7.12054688 50.85691406 5.203125 50.7109375 C3.5521234 50.59836921 1.90107933 50.48642253 0.25 50.375 C-0.575 50.31054688 -1.4 50.24609375 -2.25 50.1796875 C-3.04921875 50.128125 -3.8484375 50.0765625 -4.671875 50.0234375 C-5.4050293 49.97106934 -6.13818359 49.91870117 -6.89355469 49.86474609 C-9.34775441 50.02232915 -10.88853213 50.77735161 -13 52 C-14 51 -14 51 -14.15234375 47.48046875 C-14.09541621 42.98519031 -13.37404326 38.72338792 -12.5625 34.3125 C-11.1325834 26.12655541 -10.56721553 18.07390979 -10.46704102 9.7668457 C-10.44697998 8.92597412 -10.42691895 8.08510254 -10.40625 7.21875 C-10.39561523 6.1040332 -10.39561523 6.1040332 -10.38476562 4.96679688 C-9.27829202 -0.68913671 -4.9291122 -0.50990816 0 0 Z " fill="#FD5C60" transform="translate(157,198)"/>
<path d="M0 0 C-7.06418605 7.55653841 -20.94466757 11.64960565 -31.10473633 12.09155273 C-33.59156546 12.13432002 -36.07534771 12.13636551 -38.5625 12.125 C-39.41263672 12.12886719 -40.26277344 12.13273437 -41.13867188 12.13671875 C-41.96044922 12.13542969 -42.78222656 12.13414062 -43.62890625 12.1328125 C-44.37213135 12.13168457 -45.11535645 12.13055664 -45.88110352 12.12939453 C-48.03272621 11.99800151 -49.93079354 11.58919579 -52 11 C-51.649375 12.010625 -51.29875 13.02125 -50.9375 14.0625 C-49.25612057 20.56461766 -50.36365988 27.39582145 -51 34 C-51.99 34 -52.98 34 -54 34 C-54.09796875 33.39671875 -54.1959375 32.7934375 -54.296875 32.171875 C-55.24726106 27.09222539 -56.08448502 24.53659418 -60 21 C-60.99799114 17.36807023 -61.10769761 13.93890138 -61.0625 10.1875 C-61.05347656 9.21167969 -61.04445313 8.23585938 -61.03515625 7.23046875 C-61.02355469 6.49441406 -61.01195312 5.75835937 -61 5 C-43.96606866 -2.60871782 -18.11499425 -4.17375853 0 0 Z " fill="#696867" transform="translate(440,268)"/>
<path d="M0 0 C0 0.66 0 1.32 0 2 C-17.23452325 10.71898309 -31.87949021 12.64789946 -51 12 C-50.84225098 12.78012451 -50.68450195 13.56024902 -50.52197266 14.36401367 C-49.17537126 21.1644137 -48.87840893 27.14583236 -50 34 C-50.99 34 -51.98 34 -53 34 C-53.18175781 33.31292969 -53.36351562 32.62585938 -53.55078125 31.91796875 C-53.80214844 31.01691406 -54.05351563 30.11585938 -54.3125 29.1875 C-54.55613281 28.29417969 -54.79976562 27.40085937 -55.05078125 26.48046875 C-56.03758077 23.90179511 -57.02254248 22.85022164 -59 21 C-60.14077657 17.57767028 -60.09815117 14.91326783 -60.0625 11.3125 C-60.05347656 10.13300781 -60.04445312 8.95351563 -60.03515625 7.73828125 C-60.02355469 6.83464844 -60.01195312 5.93101562 -60 5 C-53.92948837 2.78933558 -48.01924636 1.22937288 -41.625 0.3125 C-40.74666504 0.18584961 -39.86833008 0.05919922 -38.96337891 -0.07128906 C-10.98649278 -3.66216426 -10.98649278 -3.66216426 0 0 Z " fill="#6A6967" transform="translate(116,268)"/>
<path d="M0 0 C0 9.57 0 19.14 0 29 C-7.13754133 26.62081956 -13.69931771 24.04392868 -20.5 20.9375 C-21.5003125 20.49083984 -22.500625 20.04417969 -23.53125 19.58398438 C-24.954375 18.93719727 -24.954375 18.93719727 -26.40625 18.27734375 C-27.26541016 17.88796631 -28.12457031 17.49858887 -29.00976562 17.09741211 C-31 16 -31 16 -32 14 C-27.76644081 12.00130443 -23.53057785 10.00760929 -19.29248047 8.01855469 C-17.85042586 7.34089622 -16.40901564 6.66186476 -14.96826172 5.98144531 C-12.89978365 5.00486173 -10.82905454 4.03320497 -8.7578125 3.0625 C-8.11192169 2.75626709 -7.46603088 2.45003418 -6.80056763 2.13452148 C-2.22774341 0 -2.22774341 0 0 0 Z " fill="#686765" transform="translate(152,125)"/>
<path d="M0 0 C1.46763898 3.97579521 2.92239053 7.95619152 4.375 11.9375 C4.7875 13.05447266 5.2 14.17144531 5.625 15.32226562 C7.87611576 21.51283398 9.75133186 27.53025245 11 34 C9.50071419 32.03602327 8.0499577 30.07751013 6.7109375 28 C6.27007812 27.34 5.82921875 26.68 5.375 26 C4.73691406 25.01 4.73691406 25.01 4.0859375 24 C-2.0950395 18.07366999 -12.10667719 16.22902153 -20.0625 13.75 C-21.21427734 13.38648438 -22.36605469 13.02296875 -23.55273438 12.6484375 C-26.36705229 11.76093476 -29.18278171 10.87824343 -32 10 C-32 9.67 -32 9.34 -32 9 C-31.410979 8.83395264 -30.82195801 8.66790527 -30.21508789 8.49682617 C-27.49693883 7.72922663 -24.77972006 6.95838135 -22.0625 6.1875 C-21.13630859 5.92646484 -20.21011719 5.66542969 -19.25585938 5.39648438 C-14.04219926 3.91470729 -8.89070418 2.33732522 -3.77514648 0.54418945 C-2 0 -2 0 0 0 Z " fill="#FA797C" transform="translate(394,358)"/>
<path d="M0 0 C0.99 0.33 1.98 0.66 3 1 C3 25.75 3 50.5 3 76 C1.35 76 -0.3 76 -2 76 C-2.04627741 66.38615582 -2.08184573 56.77234979 -2.10362434 47.15841866 C-2.11407534 42.69460245 -2.12825844 38.23086228 -2.15087891 33.76708984 C-2.17256052 29.46179326 -2.1845587 25.15656995 -2.18975449 20.85122299 C-2.19345869 19.20612306 -2.20069177 17.56102727 -2.21146011 15.9159584 C-2.22591299 13.61722296 -2.22798058 11.31879287 -2.22705078 9.02001953 C-2.231492 7.7098587 -2.23593323 6.39969788 -2.24050903 5.04983521 C-2 2 -2 2 0 0 Z " fill="#F2EDE2" transform="translate(154,122)"/>
<path d="M0 0 C8.03571429 0.9375 8.03571429 0.9375 12 2 C12.20930233 15.06976744 12.20930233 15.06976744 11 19 C10.02546875 19.41185547 10.02546875 19.41185547 9.03125 19.83203125 C6.7637206 20.84070043 6.7637206 20.84070043 6.171875 23.3828125 C6.03265625 24.28773438 5.8934375 25.19265625 5.75 26.125 C5.60046875 27.03507812 5.4509375 27.94515625 5.296875 28.8828125 C5.19890625 29.58148438 5.1009375 30.28015625 5 31 C4.01 30.67 3.02 30.34 2 30 C1.87625 28.906875 1.7525 27.81375 1.625 26.6875 C1.24535199 22.92618198 1.24535199 22.92618198 -1 20 C-1.64406729 13.34099918 -0.86634394 6.60587255 0 0 Z " fill="#686766" transform="translate(124,270)"/>
<path d="M0 0 C3.63 0.66 7.26 1.32 11 2 C11.02709444 4.08326131 11.04643873 6.16662441 11.0625 8.25 C11.07410156 9.41015625 11.08570313 10.5703125 11.09765625 11.765625 C10.94791667 16.725 10.94791667 16.725 10 19 C9.01 19.33 8.02 19.66 7 20 C5.96961044 22.56042066 5.96961044 22.56042066 5.3125 25.5625 C5.06113281 26.57441406 4.80976563 27.58632813 4.55078125 28.62890625 C4.36902344 29.41136719 4.18726563 30.19382812 4 31 C3.34 31 2.68 31 2 31 C1.79503906 30.37351562 1.59007812 29.74703125 1.37890625 29.1015625 C0.97478516 27.87566406 0.97478516 27.87566406 0.5625 26.625 C0.29566406 25.81289063 0.02882813 25.00078125 -0.24609375 24.1640625 C-0.95179729 21.98968201 -0.95179729 21.98968201 -2 20 C-2.33183416 13.03148258 -1.38383002 6.83266072 0 0 Z " fill="#696866" transform="translate(448,270)"/>
<path d="M0 0 C3 0.125 3 0.125 4 1.125 C4.228226 2.9749996 4.39504938 4.83265514 4.53515625 6.69140625 C4.62216797 7.81611328 4.70917969 8.94082031 4.79882812 10.09960938 C4.88583984 11.28361328 4.97285156 12.46761719 5.0625 13.6875 C5.15337891 14.87537109 5.24425781 16.06324219 5.33789062 17.28710938 C5.56266136 20.23278905 5.78317196 23.17872674 6 26.125 C3.47524538 27.38737731 1.68799534 27.22356404 -1.125 27.1875 C-2.03507812 27.17847656 -2.94515625 27.16945313 -3.8828125 27.16015625 C-4.93082031 27.14275391 -4.93082031 27.14275391 -6 27.125 C-5.76291327 24.04287245 -5.52534728 20.96079403 -5.28515625 17.87890625 C-5.09589719 15.38742734 -4.91612128 12.89520892 -4.74609375 10.40234375 C-4.62427734 8.65630859 -4.62427734 8.65630859 -4.5 6.875 C-4.4278125 5.79734375 -4.355625 4.7196875 -4.28125 3.609375 C-3.87139734 -0.01099013 -3.71931269 0.15497136 0 0 Z " fill="#FE5E60" transform="translate(40,278.875)"/>
<path d="M0 0 C2.4375 0.1875 2.4375 0.1875 3.4375 1.1875 C3.66353233 2.51620604 3.83155513 3.85492419 3.97265625 5.1953125 C4.05966797 6.01773437 4.14667969 6.84015625 4.23632812 7.6875 C4.32333984 8.55375 4.41035156 9.42 4.5 10.3125 C4.59087891 11.15554688 4.68175781 11.99859375 4.77539062 12.8671875 C5.27129653 17.66964467 5.53561567 22.36020908 5.4375 27.1875 C1.8075 27.1875 -1.8225 27.1875 -5.5625 27.1875 C-6.57766507 23.12683972 -6.39226996 22.07258187 -5.5625 18.1875 C-5.3451316 14.72685713 -5.17142031 11.27146354 -5.04492188 7.80664062 C-4.67690822 0.3422128 -4.67690822 0.3422128 0 0 Z " fill="#FE5E60" transform="translate(363.5625,278.8125)"/>
<path d="M0 0 C0 4.95 0 9.9 0 15 C-6.01618347 13.11994266 -11.42532955 10.93937169 -17 8 C-13.9703348 5.55185821 -10.92450401 3.90547147 -7.375 2.3125 C-6.41335937 1.87550781 -5.45171875 1.43851563 -4.4609375 0.98828125 C-2 0 -2 0 0 0 Z " fill="#6C6A65" transform="translate(39,241)"/>
<path d="M0 0 C0 4.95 0 9.9 0 15 C-4.14667871 13.61777376 -7.55940815 12.33435798 -11.375 10.375 C-12.24898438 9.92898437 -13.12296875 9.48296875 -14.0234375 9.0234375 C-14.67570312 8.68570313 -15.32796875 8.34796875 -16 8 C-13.52093943 5.13437405 -10.87838941 3.8382206 -7.4375 2.3125 C-5.98150391 1.65701172 -5.98150391 1.65701172 -4.49609375 0.98828125 C-2 0 -2 0 0 0 Z " fill="#6C6A65" transform="translate(362,241)"/>
<path d="M0 0 C2.9375 1.125 2.9375 1.125 5 3 C5.3125 6.1875 5.3125 6.1875 5 9 C4.505 8.835 4.01 8.67 3.5 8.5 C-1.05963297 7.58807341 -5.55868337 7.51956112 -10 9 C-10.35789474 3.63157895 -10.35789474 3.63157895 -8.9375 1.125 C-5.87480351 -0.6533399 -3.46923068 -0.35888593 0 0 Z " fill="#867F7B" transform="translate(157,198)"/>
<path d="M0 0 C1.98 0 3.96 0 6 0 C6.33 1.32 6.66 2.64 7 4 C4.36 4 1.72 4 -1 4 C-0.67 2.68 -0.34 1.36 0 0 Z " fill="#928177" transform="translate(37,279)"/>
<path d="M0 0 C1.2065625 0.0309375 1.2065625 0.0309375 2.4375 0.0625 C2.7675 1.3825 3.0975 2.7025 3.4375 4.0625 C0.7975 4.3925 -1.8425 4.7225 -4.5625 5.0625 C-3.43829114 0.08386076 -3.43829114 0.08386076 0 0 Z " fill="#917F78" transform="translate(363.5625,278.9375)"/>
</svg>
